<?xml version="1.0" standalone="no"?>
<!DOCTYPE svg PUBLIC "-//W3C//DTD SVG 1.1//EN" "http://www.w3.org/Graphics/SVG/1.1/DTD/svg11.dtd" >
<svg xmlns="http://www.w3.org/2000/svg" xmlns:xlink="http://www.w3.org/1999/xlink" version="1.1">
<metadata>
Created by FontForge 20190801 at Wed Aug  3 17:24:08 2022
 By root
(c) Igor Stepanchenko, 2022
</metadata>
<defs>
<font id="Steppe-Medium" horiz-adv-x="1376" >
  <font-face 
    font-family="Steppe Medium"
    font-weight="500"
    font-stretch="normal"
    units-per-em="2048"
    panose-1="2 0 0 0 0 0 0 0 0 0"
    ascent="1638"
    descent="-410"
    x-height="1028"
    cap-height="1434"
    bbox="-377 -610 4776 1960"
    underline-thickness="147"
    underline-position="-425"
    unicode-range="U+000D-1F6D2"
  />
<missing-glyph horiz-adv-x="2054" 
d="M1028 -168q-192 0 -358 64.5t-285.5 179t-187.5 280.5t-68 361t68 361t187.5 280.5t285.5 179t358 64.5t357.5 -64.5t284.5 -179t187 -280.5t68 -361t-68 -361t-187 -280.5t-284.5 -179t-357.5 -64.5zM1028 -20q214 0 381 93t259.5 261t92.5 383t-92.5 383t-259.5 261
t-381 93q-215 0 -382 -93t-259 -260.5t-92 -383.5t92 -383.5t259 -260.5t382 -93zM1303 848q-59 0 -97.5 35.5t-38.5 91.5t38.5 91.5t97.5 35.5t97 -35t38 -92t-38 -92t-97 -35zM752 848q-59 0 -97.5 35.5t-38.5 91.5t38.5 91.5t97.5 35.5t97 -35t38 -92t-38 -92t-97 -35z
M1516 311h-166q-24 114 -103 186t-219 72q-141 0 -219 -72t-102 -186h-166q32 187 154.5 296.5t332.5 109.5q209 0 331.5 -109.5t156.5 -296.5z" />
    <glyph glyph-name="f_f" unicode="ff" horiz-adv-x="2138" 
d="M78 848v180h256v92q0 163 75 238.5t238 75.5h422v-181h-391q-82 0 -114 -31.5t-32 -113.5v-80h793v92q0 163 75 238.5t238 75.5h422v-181h-391q-82 0 -113.5 -31.5t-31.5 -113.5v-80h536v-180h-536v-848h-199v848h-793v-848h-198v848h-256z" />
    <glyph glyph-name="fi" unicode="fi" horiz-adv-x="1708" 
d="M1411 1214q-57 0 -94 33.5t-37 85.5t37 84.5t94 32.5t94 -32.5t37 -84.5t-37 -85.5t-94 -33.5zM78 848v180h256v92q0 163 75 238.5t238 75.5h422v-181h-391q-82 0 -114 -31.5t-32 -113.5v-80h979v-1028h-198v848h-781v-848h-198v848h-256z" />
    <glyph glyph-name="f_f_i" unicode="ffi" horiz-adv-x="2699" 
d="M2402 1214q-57 0 -94 33.5t-37 85.5t37 84.5t94 32.5t94 -32.5t37 -84.5t-37 -85.5t-94 -33.5zM78 848v180h256v92q0 163 75 238.5t238 75.5h422v-181h-391q-82 0 -114 -31.5t-32 -113.5v-80h793v92q0 163 75 238.5t238 75.5h422v-181h-391q-82 0 -113.5 -31.5
t-31.5 -113.5v-80h979v-1028h-199v848h-780v-848h-199v848h-793v-848h-198v848h-256z" />
    <glyph glyph-name="f_f_t" unicode="fft" horiz-adv-x="3155" 
d="M78 848v180h256v92q0 163 75 238.5t238 75.5h422v-181h-391q-82 0 -114 -31.5t-32 -113.5v-80h793v92q0 163 75 238.5t238 75.5h422v-181h-391q-82 0 -113.5 -31.5t-31.5 -113.5v-80h792v340h199v-340h537v-180h-537v-520q0 -82 31.5 -114t113.5 -32h392v-182h-422
q-163 0 -238.5 75t-75.5 238v535h-792v-848h-199v848h-793v-848h-198v848h-256z" />
    <glyph glyph-name="f_t" unicode="ft" horiz-adv-x="2164" 
d="M78 848v180h256v92q0 163 75 238.5t238 75.5h422v-181h-391q-82 0 -114 -31.5t-32 -113.5v-80h793v340h199v-340h536v-180h-536v-520q0 -82 31.5 -114t113.5 -32h391v-182h-422q-163 0 -238 75t-75 238v535h-793v-848h-198v848h-256z" />
    <glyph glyph-name=".notdef" horiz-adv-x="2054" 
d="M1028 -168q-192 0 -358 64.5t-285.5 179t-187.5 280.5t-68 361t68 361t187.5 280.5t285.5 179t358 64.5t357.5 -64.5t284.5 -179t187 -280.5t68 -361t-68 -361t-187 -280.5t-284.5 -179t-357.5 -64.5zM1028 -20q214 0 381 93t259.5 261t92.5 383t-92.5 383t-259.5 261
t-381 93q-215 0 -382 -93t-259 -260.5t-92 -383.5t92 -383.5t259 -260.5t382 -93zM1303 848q-59 0 -97.5 35.5t-38.5 91.5t38.5 91.5t97.5 35.5t97 -35t38 -92t-38 -92t-97 -35zM752 848q-59 0 -97.5 35.5t-38.5 91.5t38.5 91.5t97.5 35.5t97 -35t38 -92t-38 -92t-97 -35z
M1516 311h-166q-24 114 -103 186t-219 72q-141 0 -219 -72t-102 -186h-166q32 187 154.5 296.5t332.5 109.5q209 0 331.5 -109.5t156.5 -296.5z" />
    <glyph glyph-name="uni0000" horiz-adv-x="0" 
 />
    <glyph glyph-name="uni000D" unicode="&#xd;" horiz-adv-x="512" 
 />
    <glyph glyph-name="space" unicode=" " horiz-adv-x="581" 
 />
    <glyph glyph-name="exclam" unicode="!" horiz-adv-x="497" 
d="M354 1434l-8 -1049h-194l-9 1049h211zM250 -16q-62 0 -100.5 36.5t-38.5 96.5t38.5 96.5t100.5 36.5q60 0 98.5 -36.5t38.5 -96.5t-38.5 -96.5t-98.5 -36.5z" />
    <glyph glyph-name="quotedbl" unicode="&#x22;" horiz-adv-x="804" 
d="M330 1434l-8 -463h-195l-8 463h211zM686 1434l-8 -463h-195l-8 463h211z" />
    <glyph glyph-name="numbersign" unicode="#" horiz-adv-x="1441" 
d="M55 408l35 172h246l59 301h-243l32 172h248l78 381h197l-78 -381h315l78 381h197l-78 -381h245l-34 -172h-248l-62 -301h248l-33 -172h-249l-84 -408h-195l84 408h-317l-84 -408h-195l84 408h-246zM530 580h318l59 301h-315z" />
    <glyph glyph-name="dollar" unicode="$" horiz-adv-x="1372" 
d="M571 1454v205h211v-209q177 -24 287.5 -130t134.5 -296h-219q-21 119 -101 184.5t-218 65.5q-56 0 -104.5 -11.5t-90.5 -36t-66 -69.5t-24 -106q0 -63 29.5 -105.5t79 -64.5t114 -36t136 -25t143 -25.5t136 -43t114 -71.5t79 -117.5t29.5 -175.5q0 -88 -24.5 -157.5
t-66 -115t-101 -76.5t-125 -45t-142.5 -18v-200h-211v209q-423 58 -460 473h219q18 -152 120 -224.5t269 -72.5q62 0 114 10.5t97.5 35t71.5 70.5t26 111q0 67 -29.5 113t-79 70t-114 38.5t-136 25.5t-143 24.5t-136 40.5t-114 68t-79 113t-29.5 171q0 86 25 154t63.5 111
t93.5 73t108 44t113 21z" />
    <glyph glyph-name="percent" unicode="%" horiz-adv-x="2058" 
d="M459 553q-173 0 -280 121.5t-107 329.5t107 329t280 121q174 0 281.5 -121t107.5 -329t-107.5 -329.5t-281.5 -121.5zM543 0l803 1434h172l-805 -1434h-170zM459 709q102 0 161.5 79t59.5 216t-59.5 215.5t-161.5 78.5q-100 0 -159.5 -78.5t-59.5 -215.5t59.5 -216
t159.5 -79zM1597 -20q-173 0 -280 121t-107 329t107 329.5t280 121.5q174 0 282 -121.5t108 -329.5t-108 -329t-282 -121zM1597 135q102 0 162 79t60 216t-60 216t-162 79q-100 0 -159.5 -79t-59.5 -216t59.5 -216t159.5 -79z" />
    <glyph glyph-name="ampersand" unicode="&#x26;" horiz-adv-x="1556" 
d="M578 -25q-93 0 -177 26t-149 75t-103 125.5t-38 171.5q0 82 27 148.5t79 116.5t107 84.5t131 70.5l-64 63q-119 122 -119 262q0 83 33.5 149t91 107t130.5 62.5t155 21.5q83 0 156 -21.5t131 -62.5t91.5 -107t33.5 -149q0 -73 -25.5 -133t-75.5 -106t-102.5 -78.5
t-126.5 -67.5l297 -299l258 234l115 -125l-250 -230l100 -100q36 -39 96 -39h131v-174h-155q-101 0 -174 70l-127 129l-45 -41q-40 -36 -75 -62t-90 -57t-123 -47.5t-144 -16.5zM629 868q65 27 107 49t83 52.5t60.5 67.5t19.5 81q0 80 -61 125t-156 45q-94 0 -155.5 -45.5
t-61.5 -124.5q0 -88 92 -180zM932 317l-340 342q-54 -25 -90 -44t-77.5 -47t-65.5 -54.5t-40 -63t-16 -77.5q0 -103 82.5 -165.5t192.5 -62.5q86 0 167.5 38.5t145.5 97.5z" />
    <glyph glyph-name="quotesingle" unicode="'" horiz-adv-x="448" 
d="M330 1434l-8 -463h-195l-8 463h211z" />
    <glyph glyph-name="parenleft" unicode="(" horiz-adv-x="614" 
d="M328 -328q-213 426 -213 881t213 881h209q-224 -428 -224 -881t224 -881h-209z" />
    <glyph glyph-name="parenright" unicode=")" horiz-adv-x="614" 
d="M287 -328h-209q223 426 223 881t-223 881h209q213 -426 213 -881t-213 -881z" />
    <glyph glyph-name="asterisk" unicode="*" horiz-adv-x="831" 
d="M256 729l-121 86l160 221v8l-234 72l41 141l232 -75h8l-4 252h158l-7 -252h9l231 75l41 -141l-233 -72v-8l159 -221l-121 -86l-155 219h-8z" />
    <glyph glyph-name="plus" unicode="+" horiz-adv-x="1179" 
d="M78 524v181h422v421h180v-421h422v-181h-422v-422h-180v422h-422z" />
    <glyph glyph-name="comma" unicode="," horiz-adv-x="473" 
d="M139 -229l72 215q-52 8 -82.5 43t-30.5 88q0 61 37.5 97t102.5 36t101 -38.5t36 -107.5q0 -46 -23 -124l-69 -209h-144z" />
    <glyph glyph-name="hyphen" unicode="-" horiz-adv-x="1011" 
d="M147 492v184h717v-184h-717z" />
    <glyph glyph-name="period" unicode="." horiz-adv-x="473" 
d="M238 -16q-62 0 -101 36.5t-39 96.5t39 96.5t101 36.5q60 0 98.5 -36.5t38.5 -96.5t-38.5 -96.5t-98.5 -36.5z" />
    <glyph glyph-name="slash" unicode="/" horiz-adv-x="770" 
d="M33 -410l512 1844h192l-512 -1844h-192z" />
    <glyph glyph-name="zero" unicode="0" horiz-adv-x="1452" 
d="M725 -25q-262 0 -427 201.5t-165 540.5t165 540t427 201q263 0 428.5 -201t165.5 -540q0 -340 -165.5 -541t-428.5 -201zM725 168q170 0 275.5 146.5t105.5 402.5t-105.5 402.5t-275.5 146.5q-169 0 -274 -146.5t-105 -402.5t105 -402.5t274 -146.5z" />
    <glyph glyph-name="one" unicode="1" horiz-adv-x="847" 
d="M424 0v1163l-303 -149l-78 178l487 242h105v-1434h-211z" />
    <glyph glyph-name="two" unicode="2" horiz-adv-x="1228" 
d="M98 0v172l643 598q40 38 65 65t54.5 65.5t43.5 78t14 80.5q0 71 -44 121.5t-107 72t-136 21.5q-128 0 -219 -71t-97 -208h-217q6 103 40 184.5t85 133t120 85t139.5 47t148.5 13.5q221 0 360 -104t139 -295q0 -87 -36 -167t-85.5 -137.5t-134.5 -136.5l-446 -417v-8h702
v-193h-1032z" />
    <glyph glyph-name="three" unicode="3" horiz-adv-x="1314" 
d="M655 -25q-116 0 -213 26t-173 78.5t-121 138.5t-52 200h211q9 -123 109 -190.5t239 -67.5q61 0 116 14t102.5 42.5t75.5 78.5t28 115q0 108 -74.5 174.5t-230.5 66.5h-201v189h195q145 0 213.5 57t68.5 152q0 63 -27.5 109.5t-74 70.5t-95.5 34.5t-104 10.5
q-145 0 -232 -66t-96 -172h-210q10 143 82.5 239t187.5 139.5t268 43.5q110 0 202 -23.5t162 -70t109 -121.5t39 -172q0 -217 -184 -309v-8q106 -49 159.5 -141t53.5 -216q0 -109 -41.5 -191.5t-115 -132t-168 -74t-208.5 -24.5z" />
    <glyph glyph-name="four" unicode="4" horiz-adv-x="1327" 
d="M842 0v352h-748v146l694 936h267v-893h194v-189h-194v-352h-213zM358 541h484v643h-8l-476 -635v-8z" />
    <glyph glyph-name="five" unicode="5" horiz-adv-x="1333" 
d="M678 -25q-218 0 -370 110t-175 296h215q28 -101 115.5 -162t214.5 -61q152 0 249 86t97 223t-94.5 223t-241.5 86q-104 0 -186.5 -46t-128.5 -136h-217l106 840h891v-189h-709l-47 -395h9q132 108 319 108q138 0 254 -59t187 -172.5t71 -259.5q0 -147 -74 -260
t-200.5 -172.5t-284.5 -59.5z" />
    <glyph glyph-name="six" unicode="6" 
d="M717 -25q-128 0 -233.5 44.5t-184.5 133.5t-122.5 233t-43.5 331q0 123 17.5 228t60 201.5t108 164t167 107.5t231.5 40q220 0 352 -105t162 -292h-217q-53 213 -297 213q-185 0 -278 -127.5t-97 -396.5h8q140 184 398 184q228 0 373 -133.5t145 -345.5
q0 -215 -155.5 -347.5t-393.5 -132.5zM717 160q145 0 240.5 79.5t95.5 215.5q0 137 -95 216t-241 79t-241 -79t-95 -216q0 -136 95.5 -215.5t240.5 -79.5z" />
    <glyph glyph-name="seven" unicode="7" horiz-adv-x="1146" 
d="M252 0l573 1227v8h-768v199h1016v-164l-592 -1270h-229z" />
    <glyph glyph-name="eight" unicode="8" horiz-adv-x="1427" 
d="M713 -25q-120 0 -223 25t-186 75t-130 134t-47 194q0 260 270 345v8q-110 42 -168.5 124.5t-58.5 186.5q0 121 74 211.5t196 135t273 44.5t273.5 -44.5t196.5 -135t74 -211.5q0 -104 -59 -186.5t-170 -124.5v-8q270 -85 270 -345q0 -110 -47 -194t-129 -134t-185 -75
t-224 -25zM375 1061q0 -104 95 -158.5t243 -54.5q149 0 244.5 54.5t95.5 158.5q0 103 -95.5 158t-244.5 55q-147 0 -242.5 -55t-95.5 -158zM340 412q0 -67 28.5 -116.5t80 -78.5t117.5 -43t147 -14q82 0 148 14t117.5 43t80 78.5t28.5 116.5q0 129 -102 189.5t-272 60.5
q-169 0 -271 -60.5t-102 -189.5z" />
    <glyph glyph-name="nine" unicode="9" 
d="M659 1458q128 0 233 -44.5t184.5 -133t123 -232.5t43.5 -331q0 -123 -17.5 -228t-60 -201.5t-108 -164.5t-167 -108t-231.5 -40q-220 0 -352 105.5t-162 292.5h217q53 -213 297 -213q185 0 278 127.5t97 396.5h-8q-140 -184 -397 -184q-228 0 -373 133.5t-145 345.5
q0 215 155 347t393 132zM659 1274q-145 0 -240 -79.5t-95 -215.5q0 -137 94.5 -216t240.5 -79t241 79t95 216q0 136 -95.5 215.5t-240.5 79.5z" />
    <glyph glyph-name="colon" unicode=":" horiz-adv-x="473" 
d="M238 778q-62 0 -101 36.5t-39 96.5t39 96.5t101 36.5q60 0 98.5 -36.5t38.5 -96.5t-38.5 -96.5t-98.5 -36.5zM238 -16q-62 0 -101 36.5t-39 96.5t39 96.5t101 36.5q60 0 98.5 -36.5t38.5 -96.5t-38.5 -96.5t-98.5 -36.5z" />
    <glyph glyph-name="semicolon" unicode=";" horiz-adv-x="477" 
d="M238 778q-62 0 -101 36.5t-39 96.5t39 96.5t101 36.5q60 0 98.5 -36.5t38.5 -96.5t-38.5 -96.5t-98.5 -36.5zM143 -229l72 215q-52 8 -82.5 43t-30.5 88q0 61 37.5 97t102.5 36t101 -38.5t36 -107.5q0 -46 -23 -124l-69 -209h-144z" />
    <glyph glyph-name="less" unicode="&#x3c;" horiz-adv-x="1175" 
d="M78 541v147l966 348v-188l-665 -230v-8l665 -229v-188z" />
    <glyph glyph-name="equal" unicode="=" horiz-adv-x="1220" 
d="M98 887h1024v-174h-1024v174zM98 334v174h1024v-174h-1024z" />
    <glyph glyph-name="greater" unicode="&#x3e;" horiz-adv-x="1175" 
d="M1098 688v-147l-967 -348v188l666 229v8l-666 230v188z" />
    <glyph glyph-name="question" unicode="?" horiz-adv-x="1169" 
d="M455 385q0 96 24.5 170.5t64 121t87 83.5t95 65.5t87 58t64 71.5t24.5 96q0 57 -25 100.5t-68 68.5t-93 37.5t-105 12.5q-85 0 -157 -27t-123.5 -91.5t-55.5 -158.5h-217q6 104 41.5 185.5t89.5 133t125.5 85.5t144.5 47.5t152 13.5q224 0 363 -105t139 -302
q0 -78 -24.5 -138.5t-63.5 -98.5t-86.5 -69.5l-95 -63t-86.5 -68.5t-63.5 -95t-24.5 -133h-213zM569 -16q-62 0 -100.5 36.5t-38.5 96.5t38.5 96.5t100.5 36.5q61 0 99.5 -37t38.5 -96t-38.5 -96t-99.5 -37z" />
    <glyph glyph-name="at" unicode="@" horiz-adv-x="1918" 
d="M913 61q-190 0 -312 126t-122 325t116 325t298 126q194 0 303 -138h8v117h164v-565q0 -83 31 -123.5t74 -40.5q73 0 127.5 100.5t54.5 245.5q0 176 -89.5 313t-248 212t-359.5 75q-151 0 -279 -44.5t-220.5 -126.5t-144.5 -204.5t-52 -271.5t52 -271.5t144.5 -204.5
t220.5 -126.5t279 -44.5h410v-160h-410q-251 0 -447 97.5t-308.5 282t-112.5 427.5t112.5 427.5t308.5 282t447 97.5q187 0 348 -56t275.5 -155t180 -241t65.5 -308q0 -219 -102 -358.5t-259 -139.5q-84 0 -140.5 42t-86.5 102h-8q-116 -144 -318 -144zM926 213
q136 0 207 82t71 217t-71 217t-207 82t-208.5 -82.5t-72.5 -216.5t72.5 -216.5t208.5 -82.5z" />
    <glyph glyph-name="A" unicode="A" horiz-adv-x="1533" 
d="M1493 0h-221l-148 340h-714l-148 -340h-221l623 1434h206zM487 528h560l-277 631h-8z" />
    <glyph glyph-name="B" unicode="B" horiz-adv-x="1554" 
d="M205 0v1434h749q204 0 329.5 -100.5t125.5 -266.5q0 -200 -192 -313v-9q105 -43 169 -141.5t64 -218.5q0 -167 -121.5 -276t-327.5 -109h-796zM416 825h520q122 0 191 55.5t69 153.5t-69.5 154.5t-190.5 56.5h-520v-420zM416 188h553q130 0 200 62.5t70 161.5
q0 101 -72.5 162t-205.5 61h-545v-447z" />
    <glyph glyph-name="C" unicode="C" horiz-adv-x="1660" 
d="M852 -25q-156 0 -290 55t-229.5 152t-149.5 235.5t-54 299.5t54 299.5t149.5 235t229.5 151.5t290 55q262 0 446 -144.5t246 -389.5h-221q-57 160 -178.5 251t-292.5 91q-225 0 -367.5 -153t-142.5 -396t142.5 -396t367.5 -153q171 0 292.5 91t178.5 251h221
q-62 -245 -246 -390t-446 -145z" />
    <glyph glyph-name="D" unicode="D" horiz-adv-x="1619" 
d="M205 0v1434h561q207 0 371 -87.5t259 -251.5t95 -378t-95 -378t-259 -251.5t-371 -87.5h-561zM416 193h350q224 0 368 142t144 382t-144 382t-368 142h-350v-1048z" />
    <glyph glyph-name="E" unicode="E" horiz-adv-x="1478" 
d="M416 649v-456h911v-193h-1122v1434h1122v-193h-911v-401h813v-191h-813z" />
    <glyph glyph-name="F" unicode="F" horiz-adv-x="1441" 
d="M416 608v-608h-211v1434h1122v-193h-911v-442h813v-191h-813z" />
    <glyph glyph-name="G" unicode="G" horiz-adv-x="1708" 
d="M850 -25q-206 0 -370.5 94t-257.5 263.5t-93 384.5q0 161 54.5 299.5t150 235t230 151.5t290.5 55q251 0 430 -134.5t252 -365.5h-227q-61 146 -177.5 227t-277.5 81q-225 0 -368.5 -153.5t-143.5 -395.5q0 -243 145 -396t377 -153q197 0 331.5 112.5t160.5 297.5h-531
v186h723v-764h-184v225h-8q-76 -124 -208 -187t-298 -63z" />
    <glyph glyph-name="H" unicode="H" horiz-adv-x="1628" 
d="M205 0v1434h211v-592h796v592h211v-1434h-211v647h-796v-647h-211z" />
    <glyph glyph-name="I" unicode="I" horiz-adv-x="620" 
d="M205 0v1434h211v-1434h-211z" />
    <glyph glyph-name="J" unicode="J" horiz-adv-x="1400" 
d="M94 0v199h758q85 0 116 31t31 116v1088h213v-1121q0 -164 -74.5 -238.5t-238.5 -74.5h-805z" />
    <glyph glyph-name="K" unicode="K" horiz-adv-x="1523" 
d="M205 0v1434h211v-592h205l548 592h269l-643 -695l655 -739h-276l-572 647h-186v-647h-211z" />
    <glyph glyph-name="L" unicode="L" horiz-adv-x="1417" 
d="M205 0v1434h211v-1235h907v-199h-1118z" />
    <glyph glyph-name="M" unicode="M" horiz-adv-x="2084" 
d="M1880 1434v-1434h-213v1137h-8l-529 -1137h-176l-530 1137h-8v-1137h-211v1434h307l526 -1125h9l524 1125h309z" />
    <glyph glyph-name="N" unicode="N" horiz-adv-x="1673" 
d="M1470 1434v-1434h-268l-778 1130h-8v-1130h-211v1434h266l778 -1131h8v1131h213z" />
    <glyph glyph-name="O" unicode="O" horiz-adv-x="1724" 
d="M862 -25q-154 0 -289 55t-233 152t-154.5 235.5t-56.5 299.5q0 214 96.5 384t264 263.5t372.5 93.5t372.5 -93.5t264 -263.5t96.5 -384q0 -161 -56.5 -299.5t-154.5 -235.5t-233 -152t-289 -55zM862 168q222 0 372 154.5t150 394.5t-150 394.5t-372 154.5t-371 -154.5
t-149 -394.5t149 -394.5t371 -154.5z" />
    <glyph glyph-name="P" unicode="P" horiz-adv-x="1568" 
d="M995 520h-579v-520h-211v1434h790q138 0 246 -53.5t171 -158.5t63 -245q0 -212 -134.5 -334.5t-345.5 -122.5zM416 711h579q128 0 198.5 73.5t70.5 192.5q0 118 -70.5 191t-198.5 73h-579v-530z" />
    <glyph glyph-name="Q" unicode="Q" horiz-adv-x="1751" 
d="M1516 -72l-199 199q-195 -152 -455 -152q-154 0 -289 55t-233 152t-154.5 235.5t-56.5 299.5q0 214 96.5 384t264 263.5t372.5 93.5t372.5 -93.5t264 -263.5t96.5 -384q0 -263 -141 -453l199 -198zM862 168q175 0 305 102v9l-188 186l137 137l182 -182h9q77 132 77 297
q0 240 -150 394.5t-372 154.5t-371 -154.5t-149 -394.5t149 -394.5t371 -154.5z" />
    <glyph glyph-name="R" unicode="R" horiz-adv-x="1568" 
d="M1221 0l-332 557h-473v-557h-211v1434h790q212 0 346 -117t134 -322q0 -172 -96 -282t-257 -142l340 -571h-241zM416 750h579q128 0 198.5 67t70.5 178t-70.5 178.5t-198.5 67.5h-579v-491z" />
    <glyph glyph-name="S" unicode="S" horiz-adv-x="1490" 
d="M786 -25q-652 0 -696 482h219q43 -297 477 -297q381 0 381 227q0 67 -35 112.5t-94 69t-135.5 38.5t-161 26t-169 24t-161 40t-135.5 68.5t-94 114t-35 171.5q0 73 20.5 133t54.5 101t82.5 73t99 50.5t109.5 30t109 15.5t103 4q263 0 427 -107t191 -327h-219
q-21 119 -122 184.5t-277 65.5q-72 0 -134.5 -11.5t-116 -36t-84 -69.5t-30.5 -106q0 -62 35 -104.5t94 -64.5t135.5 -36t161 -25t169 -25t161 -42.5t135.5 -72t94 -118.5t35 -176q0 -412 -594 -412z" />
    <glyph glyph-name="T" unicode="T" horiz-adv-x="1548" 
d="M668 0v1241h-574v193h1360v-193h-573v-1241h-213z" />
    <glyph glyph-name="U" unicode="U" horiz-adv-x="1585" 
d="M793 -25q-181 0 -321 73.5t-222 222.5t-82 356v807h211v-807q0 -113 32 -201.5t88.5 -144t131 -84.5t162.5 -29q183 0 298 118t115 341v807h213v-807q0 -207 -82 -356t-222 -222.5t-322 -73.5z" />
    <glyph glyph-name="V" unicode="V" horiz-adv-x="1527" 
d="M653 0l-598 1434h226l479 -1160h8l481 1160h226l-601 -1434h-221z" />
    <glyph glyph-name="W" unicode="W" horiz-adv-x="2467" 
d="M2413 1434l-525 -1434h-237l-414 1143h-8l-414 -1143h-235l-525 1434h221l418 -1151h8l416 1151h232l415 -1151h9l417 1151h222z" />
    <glyph glyph-name="X" unicode="X" horiz-adv-x="1560" 
d="M74 0l575 725l-563 709h262l432 -543l432 543h265l-566 -709l578 -725h-264l-445 559l-444 -559h-262z" />
    <glyph glyph-name="Y" unicode="Y" horiz-adv-x="1523" 
d="M655 0v598l-622 836h254l475 -637l475 637h254l-623 -836v-598h-213z" />
    <glyph glyph-name="Z" unicode="Z" horiz-adv-x="1478" 
d="M115 0v147l911 1086v8h-899v193h1225v-148l-912 -1085v-8h924v-193h-1249z" />
    <glyph glyph-name="bracketleft" unicode="[" horiz-adv-x="712" 
d="M205 -328v1762h442v-181h-246v-1400h246v-181h-442z" />
    <glyph glyph-name="backslash" unicode="\" horiz-adv-x="770" 
d="M225 1434l512 -1844h-192l-512 1844h192z" />
    <glyph glyph-name="bracketright" unicode="]" horiz-adv-x="712" 
d="M508 1434v-1762h-442v181h245v1400h-245v181h442z" />
    <glyph glyph-name="asciicircum" unicode="^" horiz-adv-x="937" 
d="M57 819l322 615h180l322 -615h-193l-215 410h-8l-215 -410h-193z" />
    <glyph glyph-name="underscore" unicode="_" horiz-adv-x="1314" 
d="M94 -379v184h1127v-184h-1127z" />
    <glyph glyph-name="grave" unicode="`" horiz-adv-x="1024" 
d="M461 1434l164 -267h-215l-164 267h215z" />
    <glyph glyph-name="a" unicode="a" horiz-adv-x="1193" 
d="M418 -25q-46 0 -87 6t-87.5 24t-80 47t-55.5 80.5t-22 119.5q0 62 19 111t47.5 81t74.5 57.5t87.5 40t99.5 29.5l397 105v24q0 41 -13.5 74t-35.5 53t-51.5 33.5t-59 19t-61.5 5.5q-99 0 -172 -47t-86 -133h-205q18 168 144.5 258t318.5 90q58 0 110.5 -8.5t110 -33
t98.5 -64t68 -107t27 -156.5v-440q0 -34 13.5 -48t47.5 -14h55v-182h-149q-117 0 -144 100l-12 43h-8q-139 -168 -389 -168zM455 139q94 0 172.5 33t131 106.5t52.5 176.5v53l-379 -98q-78 -21 -113.5 -53t-35.5 -89q0 -129 172 -129z" />
    <glyph glyph-name="b" unicode="b" horiz-adv-x="1323" 
d="M737 -25q-230 0 -364 168h-8v-143h-199v1434h199v-549h8q137 168 364 168q218 0 356 -150t138 -389q0 -241 -137.5 -390t-356.5 -149zM698 154q147 0 240.5 100.5t93.5 259.5t-93.5 258.5t-240.5 99.5q-148 0 -244 -100t-96 -258q0 -159 96.5 -259.5t243.5 -100.5z" />
    <glyph glyph-name="c" unicode="c" horiz-adv-x="1210" 
d="M618 -25q-232 0 -380 149.5t-148 389.5t148 389.5t380 149.5q191 0 330.5 -106.5t181.5 -295.5h-202q-38 107 -118.5 164t-191.5 57q-149 0 -239 -98t-90 -260t90 -261t239 -99q110 0 191 58t119 165h202q-42 -190 -181.5 -296t-330.5 -106z" />
    <glyph glyph-name="d" unicode="d" horiz-adv-x="1323" 
d="M586 -25q-219 0 -356.5 149t-137.5 390q0 239 138 389t356 150q228 0 364 -168h8v549h199v-1434h-199v143h-8q-134 -168 -364 -168zM625 154q147 0 243.5 100.5t96.5 259.5q0 158 -96 258t-244 100q-147 0 -240.5 -99.5t-93.5 -258.5t93.5 -259.5t240.5 -100.5z" />
    <glyph glyph-name="e" unicode="e" horiz-adv-x="1230" 
d="M623 -25q-227 0 -380 151.5t-153 387.5q0 156 71 280t192.5 191.5t269.5 67.5q225 0 370.5 -146t145.5 -383l-4 -82h-842q19 -135 109.5 -217t220.5 -82q93 0 167.5 43t114.5 117h211q-58 -149 -189.5 -238.5t-303.5 -89.5zM297 606h639q-22 127 -105 203t-208 76
t-214 -76t-112 -203z" />
    <glyph glyph-name="f" unicode="f" horiz-adv-x="1146" 
d="M78 848v180h256v92q0 163 75 238.5t238 75.5h422v-181h-391q-82 0 -114 -31.5t-32 -113.5v-80h537v-180h-537v-848h-198v848h-256z" />
    <glyph glyph-name="g" unicode="g" horiz-adv-x="1323" 
d="M586 1053q228 0 364 -168h8v143h199v-960q0 -242 -138 -372t-382 -130q-203 0 -329 86.5t-171 234.5h209q39 -68 113.5 -108.5t177.5 -40.5q146 0 233.5 85t87.5 245v84h-8q-134 -168 -364 -168q-219 0 -357.5 149t-138.5 385t139 385.5t357 149.5zM625 872
q-147 0 -241.5 -99t-94.5 -255q0 -157 94.5 -256.5t241.5 -99.5t242.5 99.5t95.5 256.5q0 156 -95.5 255t-242.5 99z" />
    <glyph glyph-name="h" unicode="h" horiz-adv-x="1286" 
d="M166 0v1434h199v-549h8q131 168 348 168q176 0 292.5 -111.5t116.5 -316.5v-625h-196v602q0 71 -23.5 125t-62.5 84.5t-84 45.5t-94 15q-128 0 -216.5 -94t-88.5 -256v-522h-199z" />
    <glyph glyph-name="i" unicode="i" horiz-adv-x="593" 
d="M297 1214q-57 0 -94 33.5t-37 85.5t37 84.5t94 32.5t94 -32.5t37 -84.5t-37 -85.5t-94 -33.5zM199 0v1028h198v-1028h-198z" />
    <glyph glyph-name="j" unicode="j" horiz-adv-x="561" 
d="M264 1214q-57 0 -94 33.5t-37 85.5t37 84.5t94 32.5t94 -32.5t37 -84.5t-37 -85.5t-94 -33.5zM-68 -410v185h123q59 0 85 26t26 84v1143h199v-1159q0 -147 -66.5 -213t-214.5 -66h-152z" />
    <glyph glyph-name="k" unicode="k" horiz-adv-x="1179" 
d="M166 0v1434h199v-813h149l379 407h246l-457 -493l465 -535h-248l-383 442h-151v-442h-199z" />
    <glyph glyph-name="l" unicode="l" horiz-adv-x="634" 
d="M434 0q-148 0 -214 65.5t-66 213.5v1155h198v-1139q0 -59 26 -85t85 -26h98v-184h-127z" />
    <glyph glyph-name="m" unicode="m" horiz-adv-x="2007" 
d="M166 0v1028h199v-143h8q49 73 139.5 120.5t202.5 47.5t202 -52.5t140 -152.5h8q71 101 175.5 153t215.5 52q169 0 283 -112t114 -316v-625h-198v606q0 69 -22 122.5t-59 83.5t-80 45t-91 15q-121 0 -208 -94.5t-87 -255.5v-522h-199v606q0 69 -22 122.5t-59 83.5
t-79.5 45t-89.5 15q-122 0 -208 -94t-86 -256v-522h-199z" />
    <glyph glyph-name="n" unicode="n" horiz-adv-x="1286" 
d="M166 0v1028h199v-143h8q131 168 348 168q176 0 292.5 -111.5t116.5 -316.5v-625h-196v602q0 71 -23.5 125t-62.5 84.5t-84 45.5t-94 15q-128 0 -216.5 -94t-88.5 -256v-522h-199z" />
    <glyph glyph-name="o" unicode="o" horiz-adv-x="1257" 
d="M629 -25q-152 0 -274.5 67t-193.5 190.5t-71 281.5q0 156 71 280t194 191.5t274 67.5t273 -67.5t192.5 -191.5t70.5 -280q0 -238 -153 -388.5t-383 -150.5zM629 154q147 0 242.5 100t95.5 260t-95 259t-243 99t-244 -99t-96 -259t96 -260t244 -100z" />
    <glyph glyph-name="p" unicode="p" horiz-adv-x="1323" 
d="M737 1053q218 0 356 -150t138 -389q0 -241 -137.5 -390t-356.5 -149q-230 0 -364 168h-8v-553h-199v1438h199v-143h8q137 168 364 168zM698 154q147 0 240.5 100.5t93.5 259.5t-93.5 258.5t-240.5 99.5q-148 0 -244 -100t-96 -258q0 -159 96.5 -259.5t243.5 -100.5z" />
    <glyph glyph-name="q" unicode="q" horiz-adv-x="1323" 
d="M586 1053q228 0 364 -168h8v143h199v-1438h-199v553h-8q-134 -168 -364 -168q-219 0 -356.5 149t-137.5 390q0 239 138 389t356 150zM625 154q147 0 243.5 100.5t96.5 259.5q0 158 -96 258t-244 100q-147 0 -240.5 -99.5t-93.5 -258.5t93.5 -259.5t240.5 -100.5z" />
    <glyph glyph-name="r" unicode="r" horiz-adv-x="1040" 
d="M166 0v1028h199v-143h8q56 71 131 107t192 36h267v-184h-271q-154 0 -240.5 -77.5t-86.5 -225.5v-541h-199z" />
    <glyph glyph-name="s" unicode="s" horiz-adv-x="1107" 
d="M575 -25q-77 0 -144 10t-131.5 35t-112 64t-79 100.5t-38.5 141.5h204q8 -50 38 -87.5t74 -57.5t91 -29t98 -9q42 -1 82 5.5t78.5 22t62 46.5t23.5 74q0 47 -31 77.5t-81.5 43.5t-115 24t-132 18.5t-132 27.5t-115 49t-81.5 85.5t-31 135.5q0 69 27.5 123t70.5 87
t102.5 54t117.5 29t121 8q65 0 124 -8.5t119 -31.5t104 -58t74.5 -92.5t36.5 -131.5h-204q-7 44 -33.5 76t-65 48t-77 23t-80.5 7q-37 0 -73.5 -5.5t-77 -18.5t-65 -41t-24.5 -68q0 -38 24.5 -63.5t66.5 -38.5t96 -22t114 -17t119.5 -19t113.5 -32.5t96 -54t66.5 -87
t24.5 -127.5q0 -75 -27 -132.5t-69.5 -91.5t-103 -55.5t-119 -29t-126.5 -7.5z" />
    <glyph glyph-name="t" unicode="t" horiz-adv-x="1173" 
d="M647 0q-163 0 -238 75t-75 238v535h-256v180h256v340h198v-340h537v-180h-537v-520q0 -82 32 -114t114 -32h391v-182h-422z" />
    <glyph glyph-name="u" unicode="u" horiz-adv-x="1286" 
d="M1120 1028v-1028h-198v143h-9q-131 -168 -348 -168q-176 0 -292.5 111.5t-116.5 316.5v625h196v-602q0 -71 23.5 -125t62.5 -84.5t84 -45.5t94 -15q128 0 217 94t89 256v522h198z" />
    <glyph glyph-name="v" unicode="v" horiz-adv-x="1236" 
d="M492 0l-426 1028h208l340 -815h9l340 815h208l-426 -1028h-253z" />
    <glyph glyph-name="w" unicode="w" horiz-adv-x="1978" 
d="M459 0l-375 1028h207l287 -790h8l278 790h248l281 -790h8l287 790h206l-374 -1028h-248l-279 791h-8l-280 -791h-246z" />
    <glyph glyph-name="x" unicode="x" horiz-adv-x="1124" 
d="M33 0l407 516l-403 512h244l280 -356l283 356h243l-403 -512l408 -516h-244l-287 360l-285 -360h-243z" />
    <glyph glyph-name="y" unicode="y" horiz-adv-x="1230" 
d="M166 -410v183h160q59 0 93.5 26t61.5 88l51 123l-466 1018h215l346 -766h10l317 766h211l-503 -1208q-55 -130 -126 -180t-210 -50h-160z" />
    <glyph glyph-name="z" unicode="z" horiz-adv-x="1064" 
d="M94 0v137l582 705v8h-574v178h861v-137l-582 -705v-8h590v-178h-877z" />
    <glyph glyph-name="braceleft" unicode="{" horiz-adv-x="745" 
d="M90 461h-24v184h24q76 0 120 43.5t44 120.5v346q0 148 64.5 213.5t211.5 65.5h168v-181h-135q-60 0 -85 -25t-25 -85v-283q0 -247 -185 -303v-8q185 -56 185 -303v-283q0 -60 25 -85t85 -25h135v-181h-168q-147 0 -211.5 65.5t-64.5 213.5v346q0 77 -44 120.5t-120 43.5z
" />
    <glyph glyph-name="bar" unicode="|" horiz-adv-x="528" 
d="M166 -410v1844h199v-1844h-199z" />
    <glyph glyph-name="braceright" unicode="}" horiz-adv-x="745" 
d="M680 461h-25q-76 0 -119.5 -43.5t-43.5 -120.5v-346q0 -148 -65 -213.5t-212 -65.5h-168v181h135q60 0 85.5 25t25.5 85v283q0 248 184 303v8q-184 55 -184 303v283q0 60 -25.5 85t-85.5 25h-135v181h168q147 0 212 -65.5t65 -213.5v-346q0 -77 43.5 -120.5t119.5 -43.5
h25v-184z" />
    <glyph glyph-name="asciitilde" unicode="~" horiz-adv-x="1187" 
d="M385 782q59 0 110 -16.5t87 -40t69.5 -47.5t72.5 -40.5t81 -16.5q71 0 109.5 39t41.5 102h162q-7 -156 -93 -236t-222 -80q-59 0 -110 16.5t-87 40.5t-69.5 48t-72.5 40.5t-81 16.5q-69 0 -108 -39t-42 -102h-163q9 157 94.5 236t220.5 79z" />
    <glyph glyph-name="exclamdown" unicode="&#xa1;" horiz-adv-x="497" 
d="M250 1044q60 0 98.5 -36.5t38.5 -96.5t-38.5 -96.5t-98.5 -36.5q-62 0 -100.5 36.5t-38.5 96.5t38.5 96.5t100.5 36.5zM346 643l8 -1049h-211l9 1049h194z" />
    <glyph glyph-name="cent" unicode="&#xa2;" horiz-adv-x="1210" 
d="M512 -225v211q-190 34 -306 176t-116 352t116 352t306 176v207h209v-207q156 -25 264.5 -127t144.5 -264h-202q-38 107 -118.5 164t-191.5 57q-149 0 -239 -98t-90 -260t90 -261t239 -99q110 0 191 58t119 165h202q-36 -162 -144.5 -265t-264.5 -128v-209h-209z" />
    <glyph glyph-name="sterling" unicode="&#xa3;" horiz-adv-x="1415" 
d="M152 541v192h194q-8 32 -28.5 88.5t-32 107.5t-11.5 109q0 197 128.5 308.5t355.5 111.5q237 0 369 -120.5t157 -321.5h-217q-25 123 -96.5 186.5t-212.5 63.5q-271 0 -271 -228q0 -67 33.5 -164.5t42.5 -140.5h461v-192h-455q-14 -171 -143 -336v-8h858v-197h-1132v147
q180 201 204 394h-204z" />
    <glyph glyph-name="currency" unicode="&#xa4;" horiz-adv-x="1245" 
d="M623 164q-140 0 -244 63l-133 -133l-140 139l136 136q-62 103 -62 245q0 143 62 246l-136 135l140 140l133 -134q106 64 244 64q137 0 243 -64l133 134l140 -140l-135 -135q61 -101 61 -246q0 -144 -61 -245l135 -136l-140 -139l-133 133q-104 -63 -243 -63zM623 319
q136 0 207 80.5t71 214.5t-71 214.5t-207 80.5q-137 0 -208 -80.5t-71 -214.5t71 -214.5t208 -80.5z" />
    <glyph glyph-name="yen" unicode="&#xa5;" horiz-adv-x="1478" 
d="M1227 737v-172h-977v172h301v8l-445 689h240l389 -615h8l390 615h239l-446 -689v-8h301zM250 272v174h977v-174h-381v-272h-213v272h-383z" />
    <glyph glyph-name="brokenbar" unicode="&#xa6;" horiz-adv-x="528" 
d="M166 717v717h199v-717h-199zM166 -410v717h199v-717h-199z" />
    <glyph glyph-name="section" unicode="&#xa7;" horiz-adv-x="1355" 
d="M700 -434q-267 0 -425 119.5t-164 298.5h217q13 -100 109 -167t263 -67q141 0 224.5 47t83.5 131q0 71 -58.5 119t-140.5 70l-393 104q-163 45 -250.5 138t-87.5 229q0 101 44 167t111 97v10q-98 88 -98 234q0 97 43.5 169t118.5 113t164.5 60.5t193.5 19.5
q267 0 425.5 -119.5t164.5 -298.5h-217q-13 100 -109 167t-264 67q-141 0 -224 -47t-83 -131q0 -71 58.5 -119t140.5 -70l393 -104q163 -45 250.5 -138t87.5 -229q0 -101 -44 -167t-112 -97v-10q99 -89 99 -234q0 -97 -43.5 -169t-119 -113t-165 -60.5t-193.5 -19.5z
M416 760q-62 -18 -93.5 -63.5t-31.5 -108.5q0 -37 10.5 -70t47 -67.5t95.5 -49.5l375 -100q88 -25 121 -37q62 18 93.5 63.5t31.5 108.5q0 37 -11 70t-47.5 67.5t-95.5 49.5l-374 100q-88 25 -121 37z" />
    <glyph glyph-name="dieresis" unicode="&#xa8;" horiz-adv-x="1024" 
d="M313 1214q-57 0 -93 33t-36 86q0 52 36 84.5t93 32.5q56 0 92.5 -32.5t36.5 -84.5t-36.5 -85.5t-92.5 -33.5zM711 1214q-56 0 -92.5 33.5t-36.5 85.5t36.5 84.5t92.5 32.5q57 0 93 -32.5t36 -84.5q0 -53 -36 -86t-93 -33z" />
    <glyph glyph-name="copyright" unicode="&#xa9;" horiz-adv-x="1767" 
d="M885 -25q-161 0 -299.5 52t-240 146.5t-159 234.5t-57.5 309q0 224 99.5 394t270.5 258.5t386 88.5q161 0 299 -52t238.5 -146t158 -234t57.5 -309t-57.5 -309t-158 -234.5t-238.5 -146.5t-299 -52zM885 123q263 0 426.5 161t163.5 433t-163.5 433t-426.5 161
q-264 0 -427 -161t-163 -433t163 -433t427 -161zM885 305q-179 0 -289.5 111.5t-110.5 300.5q0 188 110.5 299.5t289.5 111.5q144 0 255 -78t146 -235h-174q-20 61 -61 99.5t-81 50.5t-85 12q-108 0 -169 -68.5t-61 -191.5t61 -191.5t169 -68.5q45 0 85 12t81 50t61 99h174
q-35 -157 -146 -235t-255 -78z" />
    <glyph glyph-name="ordfeminine" unicode="&#xaa;" horiz-adv-x="974" 
d="M328 553q-39 0 -73.5 5t-72.5 20t-65.5 39.5t-45.5 67t-18 99.5q0 61 20 106t60.5 75t86 48.5t112.5 35.5l327 88v20q0 42 -17 72.5t-46 46.5t-60.5 22.5t-66.5 6.5q-83 0 -141.5 -36.5t-71.5 -105.5h-168q17 141 119 215t262 74q49 0 93.5 -7t94 -27.5t85 -53t58.5 -89
t23 -130.5v-367q0 -27 12 -38t42 -11h43v-156h-129q-99 0 -119 86l-8 33h-9q-120 -139 -327 -139zM362 696q121 0 209 68.5t88 193.5v37l-313 -84q-66 -18 -97.5 -44t-31.5 -70q0 -32 14.5 -53.5t39.5 -31t46 -13t45 -3.5z" />
    <glyph glyph-name="guillemotleft" unicode="&#xab;" horiz-adv-x="1030" 
d="M336 160l-299 372l299 373h219l-299 -373l299 -372h-219zM737 160l-299 372l299 373h219l-299 -373l299 -372h-219z" />
    <glyph glyph-name="logicalnot" unicode="&#xac;" horiz-adv-x="1200" 
d="M922 86v438h-844v181h1024v-619h-180z" />
    <glyph glyph-name="registered" unicode="&#xae;" horiz-adv-x="1249" 
d="M625 389q-230 0 -382.5 151.5t-152.5 381.5t152 381t383 151q230 0 381 -151t151 -381t-151 -381.5t-381 -151.5zM625 504q183 0 294 116t111 302t-111 301.5t-294 115.5t-294.5 -115.5t-111.5 -301.5t111.5 -302t294.5 -116zM408 680v483h288q79 0 130 -43t51 -114
q0 -58 -33.5 -97t-89.5 -51l114 -178h-120l-107 170h-125v-170h-108zM516 946h180q72 0 72 60q0 59 -72 59h-180v-119z" />
    <glyph glyph-name="macron" unicode="&#xaf;" horiz-adv-x="1024" 
d="M164 1225v151h696v-151h-696z" />
    <glyph glyph-name="degree" unicode="&#xb0;" horiz-adv-x="831" 
d="M416 735q-161 0 -266 102t-105 259q0 156 104.5 257t266.5 101t267 -101t105 -257q0 -157 -105.5 -259t-266.5 -102zM623 1096q0 88 -57.5 145t-149.5 57t-149.5 -57t-57.5 -145t57.5 -145.5t149.5 -57.5t149.5 57.5t57.5 145.5z" />
    <glyph glyph-name="plusminus" unicode="&#xb1;" horiz-adv-x="1220" 
d="M98 705v180h422v411h180v-411h422v-180h-422v-410h-180v410h-422zM98 0v180h1024v-180h-1024z" />
    <glyph glyph-name="twosuperior" unicode="&#xb2;" horiz-adv-x="790" 
d="M59 737v123l414 369q72 67 72 135q0 102 -142 102q-75 0 -120 -34t-54 -101h-170q6 80 37.5 138t81 89.5t105 45.5t120.5 14q142 0 226 -64t84 -184q0 -43 -11 -80.5t-34.5 -69.5t-45 -54t-55.5 -52l-239 -215v-8h385v-154h-654z" />
    <glyph glyph-name="threesuperior" unicode="&#xb3;" horiz-adv-x="831" 
d="M428 717q-71 0 -132 15t-112 45.5t-82.5 83t-35.5 122.5h167q6 -58 62 -89.5t133 -31.5q71 0 122.5 30t51.5 91q0 55 -44 89t-136 34h-115v147h111q164 0 164 113q0 41 -27 66.5t-60 33t-75 7.5q-71 0 -121.5 -29t-56.5 -92h-168q6 74 36.5 127.5t80 83t106 42.5
t123.5 13q146 0 238 -59.5t92 -176.5q0 -127 -123 -182v-8q141 -60 141 -217q0 -126 -95.5 -192t-244.5 -66z" />
    <glyph glyph-name="acute" unicode="&#xb4;" horiz-adv-x="1024" 
d="M399 1167l164 267h215l-164 -267h-215z" />
    <glyph glyph-name="paragraph" unicode="&#xb6;" horiz-adv-x="1140" 
d="M508 0v696q-451 0 -451 369t451 369h467v-1434h-172v1241h-123v-1241h-172z" />
    <glyph glyph-name="periodcentered" unicode="&#xb7;" horiz-adv-x="473" 
d="M238 399q-62 0 -101 36.5t-39 96.5t39 97t101 37q60 0 98.5 -37t38.5 -97t-38.5 -96.5t-98.5 -36.5z" />
    <glyph glyph-name="cedilla" unicode="&#xb8;" horiz-adv-x="1024" 
d="M360 -410v152h72q96 0 96 65q0 33 -27 48.5t-69 15.5h-43l80 172h135l-55 -104q74 -15 117 -58.5t43 -107.5q0 -91 -77.5 -137t-197.5 -46h-74z" />
    <glyph glyph-name="onesuperior" unicode="&#xb9;" horiz-adv-x="598" 
d="M283 737v662l-193 -96l-57 143l311 151h107v-860h-168z" />
    <glyph glyph-name="ordmasculine" unicode="&#xba;" horiz-adv-x="974" 
d="M487 553q-197 0 -319.5 124.5t-122.5 326.5t122.5 326t319.5 124t320 -124t123 -326t-123 -326.5t-320 -124.5zM487 709q137 0 208 80.5t71 214.5t-71 214t-208 80t-207.5 -80t-70.5 -214t71 -214.5t207 -80.5z" />
    <glyph glyph-name="guillemotright" unicode="&#xbb;" horiz-adv-x="1030" 
d="M993 532l-299 -372h-219l299 372l-299 373h219zM592 532l-299 -372h-219l299 372l-299 373h219z" />
    <glyph glyph-name="onequarter" unicode="&#xbc;" horiz-adv-x="1624" 
d="M283 573v662l-193 -96l-57 143l311 152h107v-861h-168zM266 0l803 1434h172l-805 -1434h-170zM1284 0v190h-450v119l415 551h203v-520h102v-150h-102v-190h-168zM1034 340h250v324h-8l-242 -316v-8z" />
    <glyph glyph-name="onehalf" unicode="&#xbd;" horiz-adv-x="1673" 
d="M283 573v662l-193 -96l-57 143l311 152h107v-861h-168zM266 0l803 1434h172l-805 -1434h-170zM942 0v123l414 369q71 66 71 135q0 102 -141 102q-75 0 -120 -34t-54 -101h-170q6 80 37.5 138t81 89.5t105 45.5t120.5 14q142 0 225.5 -64t83.5 -184q0 -82 -37 -138.5
t-108 -117.5l-240 -215v-8h385v-154h-653z" />
    <glyph glyph-name="threequarters" unicode="&#xbe;" horiz-adv-x="1859" 
d="M428 553q-71 0 -132 15t-112 45.5t-82.5 83t-35.5 122.5h167q6 -58 62 -89.5t133 -31.5q71 0 122.5 30t51.5 91q0 55 -44 89t-136 34h-115v148h111q164 0 164 112q0 41 -27 66.5t-60 33t-75 7.5q-71 0 -121.5 -29t-56.5 -92h-168q6 74 36.5 127.5t80 83t106 42.5
t123.5 13q146 0 238 -59t92 -176q0 -128 -123 -183v-8q141 -60 141 -217q0 -126 -95.5 -192t-244.5 -66zM500 0l803 1434h172l-805 -1434h-170zM1520 0v190h-451v119l416 551h203v-520h102v-150h-102v-190h-168zM1270 340h250v324h-9l-241 -316v-8z" />
    <glyph glyph-name="questiondown" unicode="&#xbf;" horiz-adv-x="1169" 
d="M600 1044q62 0 100.5 -36.5t38.5 -96.5t-38.5 -96.5t-100.5 -36.5q-60 0 -98.5 36.5t-38.5 96.5t38.5 96.5t98.5 36.5zM715 643q0 -96 -24.5 -170.5t-64 -121t-87.5 -83.5t-95.5 -65.5t-87 -58t-64 -71.5t-24.5 -96q0 -57 25 -100.5t68 -68.5t93 -37.5t105 -12.5
q85 0 157 27t123.5 91.5t55.5 158.5h217q-6 -104 -41.5 -185.5t-89.5 -133t-125.5 -85.5t-144.5 -47.5t-152 -13.5q-224 0 -363 105t-139 302q0 78 24.5 138.5t64 98.5t86.5 69.5t94.5 63t87 68.5t64 95t24.5 133h213z" />
    <glyph glyph-name="Agrave" unicode="&#xc0;" horiz-adv-x="1533" 
d="M715 1839l164 -266h-215l-164 266h215zM1493 0h-221l-148 340h-714l-148 -340h-221l623 1434h206zM487 528h560l-277 631h-8z" />
    <glyph glyph-name="Aacute" unicode="&#xc1;" horiz-adv-x="1533" 
d="M653 1573l164 266h215l-164 -266h-215zM1493 0h-221l-148 340h-714l-148 -340h-221l623 1434h206zM487 528h560l-277 631h-8z" />
    <glyph glyph-name="Acircumflex" unicode="&#xc2;" horiz-adv-x="1533" 
d="M459 1573l225 295h164l225 -295h-188l-115 153h-8l-115 -153h-188zM1493 0h-221l-148 340h-714l-148 -340h-221l623 1434h206zM487 528h560l-277 631h-8z" />
    <glyph glyph-name="Atilde" unicode="&#xc3;" horiz-adv-x="1533" 
d="M625 1843q49 0 91 -18t66 -39t55 -39t60 -18q34 0 54 21t24 73h151q-9 -129 -66.5 -191.5t-152.5 -62.5q-49 0 -91 18t-66 39t-55 39t-60 18q-34 0 -54 -21t-24 -73h-151q9 129 66.5 191.5t152.5 62.5zM1493 0h-221l-148 340h-714l-148 -340h-221l623 1434h206zM487 528
h560l-277 631h-8z" />
    <glyph glyph-name="Adieresis" unicode="&#xc4;" horiz-adv-x="1533" 
d="M567 1620q-57 0 -93 33t-36 86q0 52 36 84t93 32q56 0 92.5 -32t36.5 -84t-36.5 -85.5t-92.5 -33.5zM965 1620q-56 0 -92.5 33.5t-36.5 85.5t36.5 84t92.5 32q57 0 93 -32t36 -84q0 -53 -36 -86t-93 -33zM1493 0h-221l-148 340h-714l-148 -340h-221l623 1434h206z
M487 528h560l-277 631h-8z" />
    <glyph glyph-name="Aring" unicode="&#xc5;" horiz-adv-x="1533" 
d="M766 1548q-96 0 -157.5 55.5t-61.5 149.5q0 95 61.5 151t157.5 56t157.5 -56t61.5 -151q0 -94 -61.5 -149.5t-157.5 -55.5zM750 1681q35 -7 58.5 9t29.5 49q8 33 -7.5 57t-48.5 31q-35 6 -58.5 -10.5t-29.5 -47.5q-8 -33 7.5 -57t48.5 -31zM1493 0h-221l-148 340h-714
l-148 -340h-221l623 1434h206zM487 528h560l-277 631h-8z" />
    <glyph glyph-name="AE" unicode="&#xc6;" horiz-adv-x="2361" 
d="M33 0l1036 1434h1141v-193h-828v-401h729v-191h-729v-456h828v-193h-1041v340h-653l-246 -340h-237zM651 528h518v709h-8z" />
    <glyph glyph-name="Ccedilla" unicode="&#xc7;" horiz-adv-x="1660" 
d="M690 -410v152h72q96 0 96 65q0 64 -96 64h-41l49 109q-285 28 -463 230.5t-178 506.5q0 161 54 299.5t149.5 235t229.5 151.5t290 55q262 0 446 -144.5t246 -389.5h-221q-57 160 -178.5 251t-292.5 91q-225 0 -367.5 -153t-142.5 -396t142.5 -396t367.5 -153
q171 0 292.5 91t178.5 251h221q-59 -232 -230 -377t-415 -158l-18 -36q74 -15 115.5 -58.5t41.5 -107.5q0 -90 -77 -136.5t-195 -46.5h-76z" />
    <glyph glyph-name="Egrave" unicode="&#xc8;" horiz-adv-x="1478" 
d="M725 1839l164 -266h-215l-164 266h215zM416 649v-456h911v-193h-1122v1434h1122v-193h-911v-401h813v-191h-813z" />
    <glyph glyph-name="Eacute" unicode="&#xc9;" horiz-adv-x="1478" 
d="M664 1573l163 266h215l-163 -266h-215zM416 649v-456h911v-193h-1122v1434h1122v-193h-911v-401h813v-191h-813z" />
    <glyph glyph-name="Ecircumflex" unicode="&#xca;" horiz-adv-x="1478" 
d="M469 1573l225 295h164l225 -295h-188l-115 153h-8l-115 -153h-188zM416 649v-456h911v-193h-1122v1434h1122v-193h-911v-401h813v-191h-813z" />
    <glyph glyph-name="Edieresis" unicode="&#xcb;" horiz-adv-x="1478" 
d="M578 1620q-57 0 -93 33t-36 86q0 52 36 84t93 32q56 0 92.5 -32t36.5 -84t-36.5 -85.5t-92.5 -33.5zM975 1620q-56 0 -92.5 33.5t-36.5 85.5t36.5 84t92.5 32q57 0 93 -32t36 -84q0 -53 -36 -86t-93 -33zM416 649v-456h911v-193h-1122v1434h1122v-193h-911v-401h813v-191
h-813z" />
    <glyph glyph-name="Igrave" unicode="&#xcc;" horiz-adv-x="620" 
d="M258 1839l164 -266h-215l-164 266h215zM205 0v1434h211v-1434h-211z" />
    <glyph glyph-name="Iacute" unicode="&#xcd;" horiz-adv-x="620" 
d="M197 1573l163 266h215l-163 -266h-215zM205 0v1434h211v-1434h-211z" />
    <glyph glyph-name="Icircumflex" unicode="&#xce;" horiz-adv-x="620" 
d="M2 1573l225 295h164l225 -295h-188l-115 153h-8l-115 -153h-188zM205 0v1434h211v-1434h-211z" />
    <glyph glyph-name="Idieresis" unicode="&#xcf;" horiz-adv-x="620" 
d="M111 1620q-57 0 -93 33t-36 86q0 52 36 84t93 32q56 0 92.5 -32t36.5 -84t-36.5 -85.5t-92.5 -33.5zM508 1620q-56 0 -92.5 33.5t-36.5 85.5t36.5 84t92.5 32q57 0 93 -32t36 -84q0 -53 -36 -86t-93 -33zM205 0v1434h211v-1434h-211z" />
    <glyph glyph-name="Eth" unicode="&#xd0;" horiz-adv-x="1660" 
d="M246 0v647h-209v195h209v592h561q207 0 371 -87.5t259 -251.5t95 -378t-95 -378t-259 -251.5t-371 -87.5h-561zM457 193h350q224 0 368 142t144 382t-144 382t-368 142h-350v-399h391v-195h-391v-454z" />
    <glyph glyph-name="Ntilde" unicode="&#xd1;" horiz-adv-x="1673" 
d="M698 1843q49 0 91 -18t66.5 -39t55.5 -39t60 -18q34 0 54 21t24 73h151q-9 -129 -66.5 -191.5t-152.5 -62.5q-49 0 -91 18t-66 39t-55 39t-60 18q-34 0 -54 -21t-24 -73h-152q9 129 66.5 191.5t152.5 62.5zM1470 1434v-1434h-268l-778 1130h-8v-1130h-211v1434h266
l778 -1131h8v1131h213z" />
    <glyph glyph-name="Ograve" unicode="&#xd2;" horiz-adv-x="1724" 
d="M811 1839l164 -266h-215l-164 266h215zM862 -25q-154 0 -289 55t-233 152t-154.5 235.5t-56.5 299.5q0 214 96.5 384t264 263.5t372.5 93.5t372.5 -93.5t264 -263.5t96.5 -384q0 -161 -56.5 -299.5t-154.5 -235.5t-233 -152t-289 -55zM862 168q222 0 372 154.5t150 394.5
t-150 394.5t-372 154.5t-371 -154.5t-149 -394.5t149 -394.5t371 -154.5z" />
    <glyph glyph-name="Oacute" unicode="&#xd3;" horiz-adv-x="1724" 
d="M750 1573l163 266h215l-163 -266h-215zM862 -25q-154 0 -289 55t-233 152t-154.5 235.5t-56.5 299.5q0 214 96.5 384t264 263.5t372.5 93.5t372.5 -93.5t264 -263.5t96.5 -384q0 -161 -56.5 -299.5t-154.5 -235.5t-233 -152t-289 -55zM862 168q222 0 372 154.5t150 394.5
t-150 394.5t-372 154.5t-371 -154.5t-149 -394.5t149 -394.5t371 -154.5z" />
    <glyph glyph-name="Ocircumflex" unicode="&#xd4;" horiz-adv-x="1724" 
d="M555 1573l225 295h164l225 -295h-188l-115 153h-8l-115 -153h-188zM862 -25q-154 0 -289 55t-233 152t-154.5 235.5t-56.5 299.5q0 214 96.5 384t264 263.5t372.5 93.5t372.5 -93.5t264 -263.5t96.5 -384q0 -161 -56.5 -299.5t-154.5 -235.5t-233 -152t-289 -55zM862 168
q222 0 372 154.5t150 394.5t-150 394.5t-372 154.5t-371 -154.5t-149 -394.5t149 -394.5t371 -154.5z" />
    <glyph glyph-name="Otilde" unicode="&#xd5;" horiz-adv-x="1724" 
d="M721 1843q49 0 91 -18t66 -39t55 -39t60 -18q34 0 54 21t24 73h152q-9 -129 -66.5 -191.5t-152.5 -62.5q-49 0 -91 18t-66.5 39t-55.5 39t-60 18q-34 0 -54 -21t-24 -73h-151q9 129 66.5 191.5t152.5 62.5zM862 -25q-154 0 -289 55t-233 152t-154.5 235.5t-56.5 299.5
q0 214 96.5 384t264 263.5t372.5 93.5t372.5 -93.5t264 -263.5t96.5 -384q0 -161 -56.5 -299.5t-154.5 -235.5t-233 -152t-289 -55zM862 168q222 0 372 154.5t150 394.5t-150 394.5t-372 154.5t-371 -154.5t-149 -394.5t149 -394.5t371 -154.5z" />
    <glyph glyph-name="Odieresis" unicode="&#xd6;" horiz-adv-x="1724" 
d="M664 1620q-57 0 -93 33t-36 86q0 52 36 84t93 32q56 0 92.5 -32t36.5 -84t-36.5 -85.5t-92.5 -33.5zM1061 1620q-56 0 -92.5 33.5t-36.5 85.5t36.5 84t92.5 32q57 0 93 -32t36 -84q0 -53 -36 -86t-93 -33zM862 -25q-154 0 -289 55t-233 152t-154.5 235.5t-56.5 299.5
q0 214 96.5 384t264 263.5t372.5 93.5t372.5 -93.5t264 -263.5t96.5 -384q0 -161 -56.5 -299.5t-154.5 -235.5t-233 -152t-289 -55zM862 168q222 0 372 154.5t150 394.5t-150 394.5t-372 154.5t-371 -154.5t-149 -394.5t149 -394.5t371 -154.5z" />
    <glyph glyph-name="multiply" unicode="&#xd7;" horiz-adv-x="1124" 
d="M215 143l-125 125l346 346l-346 347l127 124l346 -346l346 346l125 -124l-346 -347l346 -346l-125 -125l-346 346z" />
    <glyph glyph-name="Oslash" unicode="&#xd8;" horiz-adv-x="1724" 
d="M862 -25q-157 0 -287 56l-92 -158h-221l146 250q-131 100 -205 254t-74 340q0 214 96.5 384t264 263.5t372.5 93.5q158 0 289 -55l92 158h219l-145 -250q131 -100 204.5 -254t73.5 -340q0 -161 -56.5 -299.5t-154.5 -235.5t-233 -152t-289 -55zM512 305l539 924
q-84 37 -189 37q-222 0 -371 -154.5t-149 -394.5q0 -126 45 -232t125 -180zM862 168q222 0 372 154.5t150 394.5q0 126 -45.5 231.5t-126.5 179.5l-536 -923q84 -37 186 -37z" />
    <glyph glyph-name="Ugrave" unicode="&#xd9;" horiz-adv-x="1585" 
d="M741 1839l164 -266h-215l-164 266h215zM793 -25q-181 0 -321 73.5t-222 222.5t-82 356v807h211v-807q0 -113 32 -201.5t88.5 -144t131 -84.5t162.5 -29q183 0 298 118t115 341v807h213v-807q0 -207 -82 -356t-222 -222.5t-322 -73.5z" />
    <glyph glyph-name="Uacute" unicode="&#xda;" horiz-adv-x="1585" 
d="M680 1573l164 266h215l-164 -266h-215zM793 -25q-181 0 -321 73.5t-222 222.5t-82 356v807h211v-807q0 -113 32 -201.5t88.5 -144t131 -84.5t162.5 -29q183 0 298 118t115 341v807h213v-807q0 -207 -82 -356t-222 -222.5t-322 -73.5z" />
    <glyph glyph-name="Ucircumflex" unicode="&#xdb;" horiz-adv-x="1585" 
d="M485 1573l226 295h163l226 -295h-189l-114 153h-9l-114 -153h-189zM793 -25q-181 0 -321 73.5t-222 222.5t-82 356v807h211v-807q0 -113 32 -201.5t88.5 -144t131 -84.5t162.5 -29q183 0 298 118t115 341v807h213v-807q0 -207 -82 -356t-222 -222.5t-322 -73.5z" />
    <glyph glyph-name="Udieresis" unicode="&#xdc;" horiz-adv-x="1585" 
d="M594 1620q-57 0 -93 33t-36 86q0 52 36 84t93 32q56 0 92.5 -32t36.5 -84t-36.5 -85.5t-92.5 -33.5zM991 1620q-56 0 -92.5 33.5t-36.5 85.5t36.5 84t92.5 32q57 0 93 -32t36 -84q0 -53 -36 -86t-93 -33zM793 -25q-181 0 -321 73.5t-222 222.5t-82 356v807h211v-807
q0 -113 32 -201.5t88.5 -144t131 -84.5t162.5 -29q183 0 298 118t115 341v807h213v-807q0 -207 -82 -356t-222 -222.5t-322 -73.5z" />
    <glyph glyph-name="Yacute" unicode="&#xdd;" horiz-adv-x="1523" 
d="M649 1573l164 266h215l-164 -266h-215zM655 0v598l-622 836h254l475 -637l475 637h254l-623 -836v-598h-213z" />
    <glyph glyph-name="Thorn" unicode="&#xde;" horiz-adv-x="1568" 
d="M995 287h-579v-287h-211v1434h211v-232h579q138 0 246 -53.5t171 -158.5t63 -245q0 -212 -134.5 -335t-345.5 -123zM416 479h579q128 0 198.5 73.5t70.5 192.5q0 118 -70.5 191.5t-198.5 73.5h-579v-531z" />
    <glyph glyph-name="germandbls" unicode="&#xdf;" horiz-adv-x="1294" 
d="M166 0v1012q0 109 32 192t80 130t114 76t123.5 38.5t119.5 9.5q217 0 340 -106.5t123 -280.5q0 -171 -127 -274v-9q104 -40 166.5 -135t62.5 -231q0 -88 -28.5 -163t-85.5 -133.5t-153 -92t-222 -33.5h-170v180h168q295 0 295 244q0 246 -295 246h-168v178h94
q131 0 198.5 55t67.5 162q0 105 -68.5 160t-197.5 55q-136 0 -203 -65.5t-67 -202.5v-1012h-199z" />
    <glyph glyph-name="agrave" unicode="&#xe0;" horiz-adv-x="1193" 
d="M532 1434l164 -267h-215l-164 267h215zM418 -25q-46 0 -87 6t-87.5 24t-80 47t-55.5 80.5t-22 119.5q0 62 19 111t47.5 81t74.5 57.5t87.5 40t99.5 29.5l397 105v24q0 41 -13.5 74t-35.5 53t-51.5 33.5t-59 19t-61.5 5.5q-99 0 -172 -47t-86 -133h-205q18 168 144.5 258
t318.5 90q58 0 110.5 -8.5t110 -33t98.5 -64t68 -107t27 -156.5v-440q0 -34 13.5 -48t47.5 -14h55v-182h-149q-117 0 -144 100l-12 43h-8q-139 -168 -389 -168zM455 139q94 0 172.5 33t131 106.5t52.5 176.5v53l-379 -98q-78 -21 -113.5 -53t-35.5 -89q0 -129 172 -129z" />
    <glyph glyph-name="aacute" unicode="&#xe1;" horiz-adv-x="1193" 
d="M471 1167l164 267h215l-164 -267h-215zM418 -25q-46 0 -87 6t-87.5 24t-80 47t-55.5 80.5t-22 119.5q0 62 19 111t47.5 81t74.5 57.5t87.5 40t99.5 29.5l397 105v24q0 41 -13.5 74t-35.5 53t-51.5 33.5t-59 19t-61.5 5.5q-99 0 -172 -47t-86 -133h-205q18 168 144.5 258
t318.5 90q58 0 110.5 -8.5t110 -33t98.5 -64t68 -107t27 -156.5v-440q0 -34 13.5 -48t47.5 -14h55v-182h-149q-117 0 -144 100l-12 43h-8q-139 -168 -389 -168zM455 139q94 0 172.5 33t131 106.5t52.5 176.5v53l-379 -98q-78 -21 -113.5 -53t-35.5 -89q0 -129 172 -129z" />
    <glyph glyph-name="acircumflex" unicode="&#xe2;" horiz-adv-x="1193" 
d="M276 1167l226 295h164l225 -295h-189l-114 154h-8l-115 -154h-189zM418 -25q-46 0 -87 6t-87.5 24t-80 47t-55.5 80.5t-22 119.5q0 62 19 111t47.5 81t74.5 57.5t87.5 40t99.5 29.5l397 105v24q0 41 -13.5 74t-35.5 53t-51.5 33.5t-59 19t-61.5 5.5q-99 0 -172 -47
t-86 -133h-205q18 168 144.5 258t318.5 90q58 0 110.5 -8.5t110 -33t98.5 -64t68 -107t27 -156.5v-440q0 -34 13.5 -48t47.5 -14h55v-182h-149q-117 0 -144 100l-12 43h-8q-139 -168 -389 -168zM455 139q94 0 172.5 33t131 106.5t52.5 176.5v53l-379 -98q-78 -21 -113.5 -53
t-35.5 -89q0 -129 172 -129z" />
    <glyph glyph-name="atilde" unicode="&#xe3;" horiz-adv-x="1193" 
d="M442 1438q49 0 91 -18t66.5 -39.5t55.5 -39.5t60 -18q34 0 54 21t24 73h151q-9 -129 -66.5 -191.5t-152.5 -62.5q-49 0 -91 18t-66 39.5t-55 39.5t-60 18q-34 0 -54 -21t-24 -73h-152q9 129 66.5 191.5t152.5 62.5zM418 -25q-46 0 -87 6t-87.5 24t-80 47t-55.5 80.5
t-22 119.5q0 62 19 111t47.5 81t74.5 57.5t87.5 40t99.5 29.5l397 105v24q0 41 -13.5 74t-35.5 53t-51.5 33.5t-59 19t-61.5 5.5q-99 0 -172 -47t-86 -133h-205q18 168 144.5 258t318.5 90q58 0 110.5 -8.5t110 -33t98.5 -64t68 -107t27 -156.5v-440q0 -34 13.5 -48
t47.5 -14h55v-182h-149q-117 0 -144 100l-12 43h-8q-139 -168 -389 -168zM455 139q94 0 172.5 33t131 106.5t52.5 176.5v53l-379 -98q-78 -21 -113.5 -53t-35.5 -89q0 -129 172 -129z" />
    <glyph glyph-name="adieresis" unicode="&#xe4;" horiz-adv-x="1193" 
d="M385 1214q-57 0 -93 33t-36 86q0 52 36 84.5t93 32.5q56 0 92.5 -32.5t36.5 -84.5t-36.5 -85.5t-92.5 -33.5zM782 1214q-56 0 -92.5 33.5t-36.5 85.5t36.5 84.5t92.5 32.5q57 0 93 -32.5t36 -84.5q0 -53 -36 -86t-93 -33zM418 -25q-46 0 -87 6t-87.5 24t-80 47
t-55.5 80.5t-22 119.5q0 62 19 111t47.5 81t74.5 57.5t87.5 40t99.5 29.5l397 105v24q0 41 -13.5 74t-35.5 53t-51.5 33.5t-59 19t-61.5 5.5q-99 0 -172 -47t-86 -133h-205q18 168 144.5 258t318.5 90q58 0 110.5 -8.5t110 -33t98.5 -64t68 -107t27 -156.5v-440
q0 -34 13.5 -48t47.5 -14h55v-182h-149q-117 0 -144 100l-12 43h-8q-139 -168 -389 -168zM455 139q94 0 172.5 33t131 106.5t52.5 176.5v53l-379 -98q-78 -21 -113.5 -53t-35.5 -89q0 -129 172 -129z" />
    <glyph glyph-name="aring" unicode="&#xe5;" horiz-adv-x="1193" 
d="M584 1143q-96 0 -157.5 55.5t-61.5 149.5q0 95 61.5 150.5t157.5 55.5t157.5 -55.5t61.5 -150.5q0 -94 -61.5 -149.5t-157.5 -55.5zM567 1276q35 -7 58.5 8.5t29.5 48.5q8 33 -7 57t-48 31q-35 6 -58.5 -10t-29.5 -47q-8 -33 7 -57t48 -31zM418 -25q-46 0 -87 6t-87.5 24
t-80 47t-55.5 80.5t-22 119.5q0 62 19 111t47.5 81t74.5 57.5t87.5 40t99.5 29.5l397 105v24q0 41 -13.5 74t-35.5 53t-51.5 33.5t-59 19t-61.5 5.5q-99 0 -172 -47t-86 -133h-205q18 168 144.5 258t318.5 90q58 0 110.5 -8.5t110 -33t98.5 -64t68 -107t27 -156.5v-440
q0 -34 13.5 -48t47.5 -14h55v-182h-149q-117 0 -144 100l-12 43h-8q-139 -168 -389 -168zM455 139q94 0 172.5 33t131 106.5t52.5 176.5v53l-379 -98q-78 -21 -113.5 -53t-35.5 -89q0 -129 172 -129z" />
    <glyph glyph-name="ae" unicode="&#xe6;" horiz-adv-x="1945" 
d="M444 -25q-358 0 -358 277q0 62 19 111t47.5 81t74.5 57.5t87.5 40t99.5 29.5l397 105v24q0 51 -19.5 88.5t-53 58t-70.5 29.5t-78 9q-99 0 -172 -47t-86 -133h-205q18 168 144.5 258t318.5 90q253 0 354 -181h8q138 181 387 181q224 0 370 -146.5t146 -382.5l-4 -82h-841
q19 -135 109 -217t220 -82q93 0 168 43t115 117h209q-56 -149 -188 -238.5t-304 -89.5q-135 0 -247.5 56.5t-190.5 158.5h-8q-24 -35 -49.5 -63t-65.5 -57.5t-85.5 -49.5t-109.5 -32.5t-139 -12.5zM1012 606h641q-24 127 -106.5 203t-207.5 76q-126 0 -214 -75.5
t-113 -203.5zM455 139q94 0 172.5 33t131 106.5t52.5 176.5v53l-379 -98q-78 -21 -113.5 -53t-35.5 -89q0 -129 172 -129z" />
    <glyph glyph-name="ccedilla" unicode="&#xe7;" horiz-adv-x="1210" 
d="M467 -410v152h72q96 0 96 65q0 33 -27 48.5t-69 15.5h-43l51 109q-204 25 -330.5 169.5t-126.5 364.5q0 240 148 389.5t380 149.5q191 0 330.5 -106.5t181.5 -295.5h-202q-38 107 -118.5 164t-191.5 57q-149 0 -239 -98t-90 -260t90 -261t239 -99q110 0 191 58t119 165
h202q-38 -176 -160 -281t-292 -119l-23 -38q74 -15 117 -58.5t43 -107.5q0 -91 -77 -137t-197 -46h-74z" />
    <glyph glyph-name="egrave" unicode="&#xe8;" horiz-adv-x="1230" 
d="M571 1434l164 -267h-215l-164 267h215zM623 -25q-227 0 -380 151.5t-153 387.5q0 156 71 280t192.5 191.5t269.5 67.5q225 0 370.5 -146t145.5 -383l-4 -82h-842q19 -135 109.5 -217t220.5 -82q93 0 167.5 43t114.5 117h211q-58 -149 -189.5 -238.5t-303.5 -89.5z
M297 606h639q-22 127 -105 203t-208 76t-214 -76t-112 -203z" />
    <glyph glyph-name="eacute" unicode="&#xe9;" horiz-adv-x="1230" 
d="M510 1167l164 267h215l-164 -267h-215zM623 -25q-227 0 -380 151.5t-153 387.5q0 156 71 280t192.5 191.5t269.5 67.5q225 0 370.5 -146t145.5 -383l-4 -82h-842q19 -135 109.5 -217t220.5 -82q93 0 167.5 43t114.5 117h211q-58 -149 -189.5 -238.5t-303.5 -89.5z
M297 606h639q-22 127 -105 203t-208 76t-214 -76t-112 -203z" />
    <glyph glyph-name="ecircumflex" unicode="&#xea;" horiz-adv-x="1230" 
d="M315 1167l226 295h164l225 -295h-189l-114 154h-9l-114 -154h-189zM623 -25q-227 0 -380 151.5t-153 387.5q0 156 71 280t192.5 191.5t269.5 67.5q225 0 370.5 -146t145.5 -383l-4 -82h-842q19 -135 109.5 -217t220.5 -82q93 0 167.5 43t114.5 117h211
q-58 -149 -189.5 -238.5t-303.5 -89.5zM297 606h639q-22 127 -105 203t-208 76t-214 -76t-112 -203z" />
    <glyph glyph-name="edieresis" unicode="&#xeb;" horiz-adv-x="1230" 
d="M424 1214q-57 0 -93 33t-36 86q0 52 36 84.5t93 32.5q56 0 92.5 -32.5t36.5 -84.5t-36.5 -85.5t-92.5 -33.5zM821 1214q-56 0 -92.5 33.5t-36.5 85.5t36.5 84.5t92.5 32.5q57 0 93 -32.5t36 -84.5q0 -53 -36 -86t-93 -33zM623 -25q-227 0 -380 151.5t-153 387.5
q0 156 71 280t192.5 191.5t269.5 67.5q225 0 370.5 -146t145.5 -383l-4 -82h-842q19 -135 109.5 -217t220.5 -82q93 0 167.5 43t114.5 117h211q-58 -149 -189.5 -238.5t-303.5 -89.5zM297 606h639q-22 127 -105 203t-208 76t-214 -76t-112 -203z" />
    <glyph glyph-name="igrave" unicode="&#xec;" horiz-adv-x="528" 
d="M213 1434l164 -267h-215l-164 267h215zM166 0v1028h199v-1028h-199z" />
    <glyph glyph-name="iacute" unicode="&#xed;" horiz-adv-x="528" 
d="M152 1167l163 267h215l-163 -267h-215zM166 0v1028h199v-1028h-199z" />
    <glyph glyph-name="icircumflex" unicode="&#xee;" horiz-adv-x="528" 
d="M-43 1167l225 295h164l225 -295h-188l-115 154h-8l-115 -154h-188zM166 0v1028h199v-1028h-199z" />
    <glyph glyph-name="idieresis" unicode="&#xef;" horiz-adv-x="528" 
d="M66 1214q-57 0 -93 33t-36 86q0 52 36 84.5t93 32.5q56 0 92.5 -32.5t36.5 -84.5t-36.5 -85.5t-92.5 -33.5zM463 1214q-56 0 -92.5 33.5t-36.5 85.5t36.5 84.5t92.5 32.5q57 0 93 -32.5t36 -84.5q0 -53 -36 -86t-93 -33zM166 0v1028h199v-1028h-199z" />
    <glyph glyph-name="eth" unicode="&#xf0;" horiz-adv-x="1269" 
d="M274 1139l45 147q-21 5 -69 16.5t-74 16.5v174q24 -4 193 -43l41 139l145 -39l-41 -139q163 -54 281 -126.5t203 -173t127 -235t42 -305.5q0 -141 -41 -254.5t-113 -187.5t-170.5 -114t-213.5 -40q-152 0 -274.5 63.5t-193.5 181t-71 267.5q0 149 69.5 268t184 182.5
t248.5 63.5q225 0 360 -159h9q-65 152 -181 245t-317 160l-41 -145zM629 154q147 0 242.5 93t95.5 240q0 148 -95.5 242t-242.5 94t-243.5 -94t-96.5 -242q0 -147 96.5 -240t243.5 -93z" />
    <glyph glyph-name="ntilde" unicode="&#xf1;" horiz-adv-x="1286" 
d="M512 1438q49 0 91 -18t66 -39.5t55 -39.5t60 -18q34 0 54 21t24 73h152q-9 -129 -66.5 -191.5t-152.5 -62.5q-49 0 -91 18t-66.5 39.5t-55.5 39.5t-60 18q-34 0 -54 -21t-24 -73h-151q9 129 66.5 191.5t152.5 62.5zM166 0v1028h199v-143h8q131 168 348 168
q176 0 292.5 -111.5t116.5 -316.5v-625h-196v602q0 71 -23.5 125t-62.5 84.5t-84 45.5t-94 15q-128 0 -216.5 -94t-88.5 -256v-522h-199z" />
    <glyph glyph-name="ograve" unicode="&#xf2;" horiz-adv-x="1257" 
d="M578 1434l163 -267h-215l-164 267h216zM629 -25q-152 0 -274.5 67t-193.5 190.5t-71 281.5q0 156 71 280t194 191.5t274 67.5t273 -67.5t192.5 -191.5t70.5 -280q0 -238 -153 -388.5t-383 -150.5zM629 154q147 0 242.5 100t95.5 260t-95 259t-243 99t-244 -99t-96 -259
t96 -260t244 -100z" />
    <glyph glyph-name="oacute" unicode="&#xf3;" horiz-adv-x="1257" 
d="M516 1167l164 267h215l-164 -267h-215zM629 -25q-152 0 -274.5 67t-193.5 190.5t-71 281.5q0 156 71 280t194 191.5t274 67.5t273 -67.5t192.5 -191.5t70.5 -280q0 -238 -153 -388.5t-383 -150.5zM629 154q147 0 242.5 100t95.5 260t-95 259t-243 99t-244 -99t-96 -259
t96 -260t244 -100z" />
    <glyph glyph-name="ocircumflex" unicode="&#xf4;" horiz-adv-x="1257" 
d="M322 1167l225 295h164l225 -295h-188l-115 154h-8l-115 -154h-188zM629 -25q-152 0 -274.5 67t-193.5 190.5t-71 281.5q0 156 71 280t194 191.5t274 67.5t273 -67.5t192.5 -191.5t70.5 -280q0 -238 -153 -388.5t-383 -150.5zM629 154q147 0 242.5 100t95.5 260t-95 259
t-243 99t-244 -99t-96 -259t96 -260t244 -100z" />
    <glyph glyph-name="otilde" unicode="&#xf5;" horiz-adv-x="1257" 
d="M487 1438q49 0 91 -18t66.5 -39.5t55.5 -39.5t60 -18q34 0 54 21t24 73h151q-9 -129 -66.5 -191.5t-152.5 -62.5q-49 0 -91 18t-66 39.5t-55 39.5t-60 18q-34 0 -54 -21t-24 -73h-152q9 129 66.5 191.5t152.5 62.5zM629 -25q-152 0 -274.5 67t-193.5 190.5t-71 281.5
q0 156 71 280t194 191.5t274 67.5t273 -67.5t192.5 -191.5t70.5 -280q0 -238 -153 -388.5t-383 -150.5zM629 154q147 0 242.5 100t95.5 260t-95 259t-243 99t-244 -99t-96 -259t96 -260t244 -100z" />
    <glyph glyph-name="odieresis" unicode="&#xf6;" horiz-adv-x="1257" 
d="M430 1214q-57 0 -93 33t-36 86q0 52 36 84.5t93 32.5q56 0 92.5 -32.5t36.5 -84.5t-36.5 -85.5t-92.5 -33.5zM827 1214q-56 0 -92.5 33.5t-36.5 85.5t36.5 84.5t92.5 32.5q57 0 93 -32.5t36 -84.5q0 -53 -36 -86t-93 -33zM629 -25q-152 0 -274.5 67t-193.5 190.5
t-71 281.5q0 156 71 280t194 191.5t274 67.5t273 -67.5t192.5 -191.5t70.5 -280q0 -238 -153 -388.5t-383 -150.5zM629 154q147 0 242.5 100t95.5 260t-95 259t-243 99t-244 -99t-96 -259t96 -260t244 -100z" />
    <glyph glyph-name="divide" unicode="&#xf7;" horiz-adv-x="1179" 
d="M590 829q-62 0 -100.5 37t-38.5 97t38.5 96.5t100.5 36.5q60 0 98.5 -36.5t38.5 -96.5t-38.5 -97t-98.5 -37zM78 524v181h1024v-181h-1024zM590 133q-62 0 -100.5 36.5t-38.5 96.5t38.5 96.5t100.5 36.5q60 0 98.5 -36.5t38.5 -96.5t-38.5 -96.5t-98.5 -36.5z" />
    <glyph glyph-name="oslash" unicode="&#xf8;" horiz-adv-x="1257" 
d="M629 -25q-118 0 -201 35l-68 -116h-180l109 192q-94 72 -146.5 183t-52.5 245q0 156 71 280t194 191.5t274 67.5q109 0 194 -33l72 127h182l-114 -203q96 -71 149 -182t53 -248q0 -238 -153 -388.5t-383 -150.5zM387 256l344 600q-41 16 -102 16q-149 0 -244.5 -100
t-95.5 -258q0 -157 98 -258zM627 154q150 0 245 100.5t95 259.5q0 161 -101 262l-346 -604q50 -18 107 -18z" />
    <glyph glyph-name="ugrave" unicode="&#xf9;" horiz-adv-x="1286" 
d="M582 1434l163 -267h-215l-163 267h215zM1120 1028v-1028h-198v143h-9q-131 -168 -348 -168q-176 0 -292.5 111.5t-116.5 316.5v625h196v-602q0 -71 23.5 -125t62.5 -84.5t84 -45.5t94 -15q128 0 217 94t89 256v522h198z" />
    <glyph glyph-name="uacute" unicode="&#xfa;" horiz-adv-x="1286" 
d="M520 1167l164 267h215l-164 -267h-215zM1120 1028v-1028h-198v143h-9q-131 -168 -348 -168q-176 0 -292.5 111.5t-116.5 316.5v625h196v-602q0 -71 23.5 -125t62.5 -84.5t84 -45.5t94 -15q128 0 217 94t89 256v522h198z" />
    <glyph glyph-name="ucircumflex" unicode="&#xfb;" horiz-adv-x="1286" 
d="M326 1167l225 295h164l225 -295h-188l-115 154h-8l-115 -154h-188zM1120 1028v-1028h-198v143h-9q-131 -168 -348 -168q-176 0 -292.5 111.5t-116.5 316.5v625h196v-602q0 -71 23.5 -125t62.5 -84.5t84 -45.5t94 -15q128 0 217 94t89 256v522h198z" />
    <glyph glyph-name="udieresis" unicode="&#xfc;" horiz-adv-x="1286" 
d="M434 1214q-57 0 -93 33t-36 86q0 52 36 84.5t93 32.5q56 0 92.5 -32.5t36.5 -84.5t-36.5 -85.5t-92.5 -33.5zM831 1214q-56 0 -92.5 33.5t-36.5 85.5t36.5 84.5t92.5 32.5q57 0 93.5 -32.5t36.5 -84.5t-36.5 -85.5t-93.5 -33.5zM1120 1028v-1028h-198v143h-9
q-131 -168 -348 -168q-176 0 -292.5 111.5t-116.5 316.5v625h196v-602q0 -71 23.5 -125t62.5 -84.5t84 -45.5t94 -15q128 0 217 94t89 256v522h198z" />
    <glyph glyph-name="yacute" unicode="&#xfd;" horiz-adv-x="1230" 
d="M514 1167l164 267h215l-164 -267h-215zM166 -410v183h160q59 0 93.5 26t61.5 88l51 123l-466 1018h215l346 -766h10l317 766h211l-503 -1208q-55 -130 -126 -180t-210 -50h-160z" />
    <glyph glyph-name="thorn" unicode="&#xfe;" horiz-adv-x="1323" 
d="M737 1053q218 0 356 -150t138 -389q0 -241 -137.5 -390t-356.5 -149q-230 0 -364 168h-8v-553h-199v1844h199v-549h8q137 168 364 168zM698 154q147 0 240.5 100.5t93.5 259.5t-93.5 258.5t-240.5 99.5q-148 0 -244 -100t-96 -258q0 -159 96.5 -259.5t243.5 -100.5z" />
    <glyph glyph-name="ydieresis" unicode="&#xff;" horiz-adv-x="1230" 
d="M428 1214q-57 0 -93 33t-36 86q0 52 36 84.5t93 32.5q56 0 92.5 -32.5t36.5 -84.5t-36.5 -85.5t-92.5 -33.5zM825 1214q-56 0 -92.5 33.5t-36.5 85.5t36.5 84.5t92.5 32.5q57 0 93 -32.5t36 -84.5q0 -53 -36 -86t-93 -33zM166 -410v183h160q59 0 93.5 26t61.5 88l51 123
l-466 1018h215l346 -766h10l317 766h211l-503 -1208q-55 -130 -126 -180t-210 -50h-160z" />
    <glyph glyph-name="Amacron" unicode="&#x100;" horiz-adv-x="1533" 
d="M418 1630v152h696v-152h-696zM1493 0h-221l-148 340h-714l-148 -340h-221l623 1434h206zM487 528h560l-277 631h-8z" />
    <glyph glyph-name="amacron" unicode="&#x101;" horiz-adv-x="1193" 
d="M236 1225v151h696v-151h-696zM418 -25q-46 0 -87 6t-87.5 24t-80 47t-55.5 80.5t-22 119.5q0 62 19 111t47.5 81t74.5 57.5t87.5 40t99.5 29.5l397 105v24q0 41 -13.5 74t-35.5 53t-51.5 33.5t-59 19t-61.5 5.5q-99 0 -172 -47t-86 -133h-205q18 168 144.5 258t318.5 90
q58 0 110.5 -8.5t110 -33t98.5 -64t68 -107t27 -156.5v-440q0 -34 13.5 -48t47.5 -14h55v-182h-149q-117 0 -144 100l-12 43h-8q-139 -168 -389 -168zM455 139q94 0 172.5 33t131 106.5t52.5 176.5v53l-379 -98q-78 -21 -113.5 -53t-35.5 -89q0 -129 172 -129z" />
    <glyph glyph-name="Abreve" unicode="&#x102;" horiz-adv-x="1533" 
d="M768 1573q-133 0 -220.5 73.5t-94.5 221.5h155q7 -80 53 -115t107 -35t107 35t53 115h155q-7 -148 -94.5 -221.5t-220.5 -73.5zM1493 0h-221l-148 340h-714l-148 -340h-221l623 1434h206zM487 528h560l-277 631h-8z" />
    <glyph glyph-name="abreve" unicode="&#x103;" horiz-adv-x="1193" 
d="M584 1167q-133 0 -221 73.5t-95 221.5h156q7 -80 53 -114.5t107 -34.5t106.5 34.5t52.5 114.5h156q-7 -148 -94.5 -221.5t-220.5 -73.5zM418 -25q-46 0 -87 6t-87.5 24t-80 47t-55.5 80.5t-22 119.5q0 62 19 111t47.5 81t74.5 57.5t87.5 40t99.5 29.5l397 105v24
q0 41 -13.5 74t-35.5 53t-51.5 33.5t-59 19t-61.5 5.5q-99 0 -172 -47t-86 -133h-205q18 168 144.5 258t318.5 90q58 0 110.5 -8.5t110 -33t98.5 -64t68 -107t27 -156.5v-440q0 -34 13.5 -48t47.5 -14h55v-182h-149q-117 0 -144 100l-12 43h-8q-139 -168 -389 -168zM455 139
q94 0 172.5 33t131 106.5t52.5 176.5v53l-379 -98q-78 -21 -113.5 -53t-35.5 -89q0 -129 172 -129z" />
    <glyph glyph-name="Aogonek" unicode="&#x104;" horiz-adv-x="1533" 
d="M1493 0q-158 -56 -158 -152q0 -43 34 -68.5t101 -25.5h23v-164h-78q-122 0 -192 50t-70 149q0 136 139 211h-20l-148 340h-714l-148 -340h-221l623 1434h206zM487 528h560l-277 631h-8z" />
    <glyph glyph-name="aogonek" unicode="&#x105;" horiz-adv-x="1193" 
d="M418 -25q-46 0 -87 6t-87.5 24t-80 47t-55.5 80.5t-22 119.5q0 62 19 111t47.5 81t74.5 57.5t87.5 40t99.5 29.5l397 105v24q0 41 -13.5 74t-35.5 53t-51.5 33.5t-59 19t-61.5 5.5q-99 0 -172 -47t-86 -133h-205q18 168 144.5 258t318.5 90q58 0 110.5 -8.5t110 -33
t98.5 -64t68 -107t27 -156.5v-440q0 -34 13.5 -48t47.5 -14h55v-182q-157 -56 -157 -152q0 -43 34 -68.5t101 -25.5h22v-164h-78q-122 0 -192 50t-70 149q0 142 150 215q-84 18 -103 96l-12 43h-8q-139 -168 -389 -168zM455 139q94 0 172.5 33t131 106.5t52.5 176.5v53
l-379 -98q-78 -21 -113.5 -53t-35.5 -89q0 -129 172 -129z" />
    <glyph glyph-name="Cacute" unicode="&#x106;" horiz-adv-x="1660" 
d="M729 1573l164 266h215l-164 -266h-215zM852 -25q-156 0 -290 55t-229.5 152t-149.5 235.5t-54 299.5t54 299.5t149.5 235t229.5 151.5t290 55q262 0 446 -144.5t246 -389.5h-221q-57 160 -178.5 251t-292.5 91q-225 0 -367.5 -153t-142.5 -396t142.5 -396t367.5 -153
q171 0 292.5 91t178.5 251h221q-62 -245 -246 -390t-446 -145z" />
    <glyph glyph-name="cacute" unicode="&#x107;" horiz-adv-x="1210" 
d="M506 1167l164 267h215l-164 -267h-215zM618 -25q-232 0 -380 149.5t-148 389.5t148 389.5t380 149.5q191 0 330.5 -106.5t181.5 -295.5h-202q-38 107 -118.5 164t-191.5 57q-149 0 -239 -98t-90 -260t90 -261t239 -99q110 0 191 58t119 165h202q-42 -190 -181.5 -296
t-330.5 -106z" />
    <glyph glyph-name="Ccircumflex" unicode="&#x108;" horiz-adv-x="1660" 
d="M535 1573l225 295h164l225 -295h-188l-115 153h-8l-115 -153h-188zM852 -25q-156 0 -290 55t-229.5 152t-149.5 235.5t-54 299.5t54 299.5t149.5 235t229.5 151.5t290 55q262 0 446 -144.5t246 -389.5h-221q-57 160 -178.5 251t-292.5 91q-225 0 -367.5 -153t-142.5 -396
t142.5 -396t367.5 -153q171 0 292.5 91t178.5 251h221q-62 -245 -246 -390t-446 -145z" />
    <glyph glyph-name="ccircumflex" unicode="&#x109;" horiz-adv-x="1210" 
d="M311 1167l226 295h163l226 -295h-189l-114 154h-9l-114 -154h-189zM618 -25q-232 0 -380 149.5t-148 389.5t148 389.5t380 149.5q191 0 330.5 -106.5t181.5 -295.5h-202q-38 107 -118.5 164t-191.5 57q-149 0 -239 -98t-90 -260t90 -261t239 -99q110 0 191 58t119 165
h202q-42 -190 -181.5 -296t-330.5 -106z" />
    <glyph glyph-name="Cdotaccent" unicode="&#x10a;" horiz-adv-x="1660" 
d="M842 1620q-57 0 -94 33.5t-37 85.5t36.5 84t94.5 32t94.5 -32t36.5 -84t-37 -85.5t-94 -33.5zM852 -25q-156 0 -290 55t-229.5 152t-149.5 235.5t-54 299.5t54 299.5t149.5 235t229.5 151.5t290 55q262 0 446 -144.5t246 -389.5h-221q-57 160 -178.5 251t-292.5 91
q-225 0 -367.5 -153t-142.5 -396t142.5 -396t367.5 -153q171 0 292.5 91t178.5 251h221q-62 -245 -246 -390t-446 -145z" />
    <glyph glyph-name="cdotaccent" unicode="&#x10b;" horiz-adv-x="1210" 
d="M618 1214q-57 0 -94 33.5t-37 85.5t37 84.5t94 32.5q58 0 95 -32.5t37 -84.5t-37.5 -85.5t-94.5 -33.5zM618 -25q-232 0 -380 149.5t-148 389.5t148 389.5t380 149.5q191 0 330.5 -106.5t181.5 -295.5h-202q-38 107 -118.5 164t-191.5 57q-149 0 -239 -98t-90 -260
t90 -261t239 -99q110 0 191 58t119 165h202q-42 -190 -181.5 -296t-330.5 -106z" />
    <glyph glyph-name="Ccaron" unicode="&#x10c;" horiz-adv-x="1660" 
d="M760 1573l-225 295h188l115 -154h8l115 154h188l-225 -295h-164zM852 -25q-156 0 -290 55t-229.5 152t-149.5 235.5t-54 299.5t54 299.5t149.5 235t229.5 151.5t290 55q262 0 446 -144.5t246 -389.5h-221q-57 160 -178.5 251t-292.5 91q-225 0 -367.5 -153t-142.5 -396
t142.5 -396t367.5 -153q171 0 292.5 91t178.5 251h221q-62 -245 -246 -390t-446 -145z" />
    <glyph glyph-name="ccaron" unicode="&#x10d;" horiz-adv-x="1210" 
d="M537 1167l-226 295h189l114 -153h9l114 153h189l-226 -295h-163zM618 -25q-232 0 -380 149.5t-148 389.5t148 389.5t380 149.5q191 0 330.5 -106.5t181.5 -295.5h-202q-38 107 -118.5 164t-191.5 57q-149 0 -239 -98t-90 -260t90 -261t239 -99q110 0 191 58t119 165h202
q-42 -190 -181.5 -296t-330.5 -106z" />
    <glyph glyph-name="Dcaron" unicode="&#x10e;" horiz-adv-x="1619" 
d="M705 1573l-226 295h189l114 -154h9l114 154h189l-226 -295h-163zM205 0v1434h561q207 0 371 -87.5t259 -251.5t95 -378t-95 -378t-259 -251.5t-371 -87.5h-561zM416 193h350q224 0 368 142t144 382t-144 382t-368 142h-350v-1048z" />
    <glyph glyph-name="dcaron" unicode="&#x10f;" horiz-adv-x="1323" 
d="M586 -25q-219 0 -356.5 149t-137.5 390q0 239 138 389t356 150q228 0 364 -168h8v549h199v-1434h-199v143h-8q-134 -168 -364 -168zM1245 1106l98 328h168l-98 -328h-168zM625 154q147 0 243.5 100.5t96.5 259.5q0 158 -96 258t-244 100q-147 0 -240.5 -99.5
t-93.5 -258.5t93.5 -259.5t240.5 -100.5z" />
    <glyph glyph-name="Dcroat" unicode="&#x110;" horiz-adv-x="1660" 
d="M246 0v647h-209v195h209v592h561q207 0 371 -87.5t259 -251.5t95 -378t-95 -378t-259 -251.5t-371 -87.5h-561zM457 193h350q224 0 368 142t144 382t-144 382t-368 142h-350v-399h391v-195h-391v-454z" />
    <glyph glyph-name="dcroat" unicode="&#x111;" horiz-adv-x="1323" 
d="M586 -25q-219 0 -357.5 138t-138.5 360q0 221 138.5 359.5t357.5 138.5q228 0 364 -168h8v297h-292v174h292v160h199v-160h172v-174h-172v-1100h-199v143h-8q-134 -168 -364 -168zM289 473q0 -140 94.5 -229.5t241.5 -89.5t242.5 89.5t95.5 229.5t-95.5 229t-242.5 89
t-241.5 -89t-94.5 -229z" />
    <glyph glyph-name="Emacron" unicode="&#x112;" horiz-adv-x="1478" 
d="M428 1630v152h696v-152h-696zM416 649v-456h911v-193h-1122v1434h1122v-193h-911v-401h813v-191h-813z" />
    <glyph glyph-name="emacron" unicode="&#x113;" horiz-adv-x="1230" 
d="M274 1225v151h697v-151h-697zM623 -25q-227 0 -380 151.5t-153 387.5q0 156 71 280t192.5 191.5t269.5 67.5q225 0 370.5 -146t145.5 -383l-4 -82h-842q19 -135 109.5 -217t220.5 -82q93 0 167.5 43t114.5 117h211q-58 -149 -189.5 -238.5t-303.5 -89.5zM297 606h639
q-22 127 -105 203t-208 76t-214 -76t-112 -203z" />
    <glyph glyph-name="Ebreve" unicode="&#x114;" horiz-adv-x="1478" 
d="M776 1573q-133 0 -220.5 73.5t-94.5 221.5h155q7 -80 53 -115t107 -35t107 35t53 115h156q-7 -148 -95 -221.5t-221 -73.5zM416 649v-456h911v-193h-1122v1434h1122v-193h-911v-401h813v-191h-813z" />
    <glyph glyph-name="ebreve" unicode="&#x115;" horiz-adv-x="1230" 
d="M623 1167q-133 0 -221 73.5t-95 221.5h156q7 -80 53 -114.5t107 -34.5t106.5 34.5t52.5 114.5h156q-7 -148 -94.5 -221.5t-220.5 -73.5zM623 -25q-227 0 -380 151.5t-153 387.5q0 156 71 280t192.5 191.5t269.5 67.5q225 0 370.5 -146t145.5 -383l-4 -82h-842
q19 -135 109.5 -217t220.5 -82q93 0 167.5 43t114.5 117h211q-58 -149 -189.5 -238.5t-303.5 -89.5zM297 606h639q-22 127 -105 203t-208 76t-214 -76t-112 -203z" />
    <glyph glyph-name="Edotaccent" unicode="&#x116;" horiz-adv-x="1478" 
d="M776 1620q-57 0 -94 33.5t-37 85.5t36.5 84t94.5 32t94.5 -32t36.5 -84t-37 -85.5t-94 -33.5zM416 649v-456h911v-193h-1122v1434h1122v-193h-911v-401h813v-191h-813z" />
    <glyph glyph-name="edotaccent" unicode="&#x117;" horiz-adv-x="1230" 
d="M623 1214q-57 0 -94 33.5t-37 85.5t37 84.5t94 32.5t94 -32.5t37 -84.5t-37 -85.5t-94 -33.5zM623 -25q-227 0 -380 151.5t-153 387.5q0 156 71 280t192.5 191.5t269.5 67.5q225 0 370.5 -146t145.5 -383l-4 -82h-842q19 -135 109.5 -217t220.5 -82q93 0 167.5 43
t114.5 117h211q-58 -149 -189.5 -238.5t-303.5 -89.5zM297 606h639q-22 127 -105 203t-208 76t-214 -76t-112 -203z" />
    <glyph glyph-name="Eogonek" unicode="&#x118;" horiz-adv-x="1478" 
d="M416 649v-456h911v-193q-160 -55 -160 -152q0 -43 35 -68.5t103 -25.5h22v-164h-78q-122 0 -193 50.5t-71 148.5q0 137 141 211h-921v1434h1122v-193h-911v-401h813v-191h-813z" />
    <glyph glyph-name="eogonek" unicode="&#x119;" horiz-adv-x="1230" 
d="M713 -410q-122 0 -192 50t-70 149q0 120 104 191q-203 22 -334 169t-131 365q0 156 71 280t192.5 191.5t269.5 67.5q225 0 370.5 -146t145.5 -383l-4 -82h-842q19 -135 109.5 -217t220.5 -82q93 0 167.5 43t114.5 117h211q-43 -113 -131 -194.5t-207 -114.5
q-145 -50 -145 -146q0 -43 34 -68.5t101 -25.5h23v-164h-78zM297 606h639q-22 127 -105 203t-208 76t-214 -76t-112 -203z" />
    <glyph glyph-name="Ecaron" unicode="&#x11a;" horiz-adv-x="1478" 
d="M694 1573l-225 295h188l115 -154h8l115 154h188l-225 -295h-164zM416 649v-456h911v-193h-1122v1434h1122v-193h-911v-401h813v-191h-813z" />
    <glyph glyph-name="ecaron" unicode="&#x11b;" horiz-adv-x="1230" 
d="M541 1167l-226 295h189l114 -153h9l114 153h189l-225 -295h-164zM623 -25q-227 0 -380 151.5t-153 387.5q0 156 71 280t192.5 191.5t269.5 67.5q225 0 370.5 -146t145.5 -383l-4 -82h-842q19 -135 109.5 -217t220.5 -82q93 0 167.5 43t114.5 117h211
q-58 -149 -189.5 -238.5t-303.5 -89.5zM297 606h639q-22 127 -105 203t-208 76t-214 -76t-112 -203z" />
    <glyph glyph-name="Gcircumflex" unicode="&#x11c;" horiz-adv-x="1708" 
d="M539 1573l225 295h164l225 -295h-188l-115 153h-8l-115 -153h-188zM850 -25q-206 0 -370.5 94t-257.5 263.5t-93 384.5q0 161 54.5 299.5t150 235t230 151.5t290.5 55q251 0 430 -134.5t252 -365.5h-227q-61 146 -177.5 227t-277.5 81q-225 0 -368.5 -153.5
t-143.5 -395.5q0 -243 145 -396t377 -153q197 0 331.5 112.5t160.5 297.5h-531v186h723v-764h-184v225h-8q-76 -124 -208 -187t-298 -63z" />
    <glyph glyph-name="gcircumflex" unicode="&#x11d;" horiz-adv-x="1323" 
d="M324 1167l225 295h164l225 -295h-188l-115 154h-8l-115 -154h-188zM586 1053q228 0 364 -168h8v143h199v-960q0 -242 -138 -372t-382 -130q-203 0 -329 86.5t-171 234.5h209q39 -68 113.5 -108.5t177.5 -40.5q146 0 233.5 85t87.5 245v84h-8q-134 -168 -364 -168
q-219 0 -357.5 149t-138.5 385t139 385.5t357 149.5zM625 872q-147 0 -241.5 -99t-94.5 -255q0 -157 94.5 -256.5t241.5 -99.5t242.5 99.5t95.5 256.5q0 156 -95.5 255t-242.5 99z" />
    <glyph glyph-name="Gbreve" unicode="&#x11e;" horiz-adv-x="1708" 
d="M846 1573q-133 0 -221 73.5t-95 221.5h156q7 -80 53 -115t107 -35t107 35t53 115h155q-7 -148 -94.5 -221.5t-220.5 -73.5zM850 -25q-206 0 -370.5 94t-257.5 263.5t-93 384.5q0 161 54.5 299.5t150 235t230 151.5t290.5 55q251 0 430 -134.5t252 -365.5h-227
q-61 146 -177.5 227t-277.5 81q-225 0 -368.5 -153.5t-143.5 -395.5q0 -243 145 -396t377 -153q197 0 331.5 112.5t160.5 297.5h-531v186h723v-764h-184v225h-8q-76 -124 -208 -187t-298 -63z" />
    <glyph glyph-name="gbreve" unicode="&#x11f;" horiz-adv-x="1323" 
d="M631 1167q-133 0 -221 73.5t-95 221.5h156q7 -80 53 -114.5t107 -34.5t107 34.5t53 114.5h155q-7 -148 -94.5 -221.5t-220.5 -73.5zM586 1053q228 0 364 -168h8v143h199v-960q0 -242 -138 -372t-382 -130q-203 0 -329 86.5t-171 234.5h209q39 -68 113.5 -108.5
t177.5 -40.5q146 0 233.5 85t87.5 245v84h-8q-134 -168 -364 -168q-219 0 -357.5 149t-138.5 385t139 385.5t357 149.5zM625 872q-147 0 -241.5 -99t-94.5 -255q0 -157 94.5 -256.5t241.5 -99.5t242.5 99.5t95.5 256.5q0 156 -95.5 255t-242.5 99z" />
    <glyph glyph-name="Gdotaccent" unicode="&#x120;" horiz-adv-x="1708" 
d="M846 1620q-57 0 -94 33.5t-37 85.5t36.5 84t94.5 32t94.5 -32t36.5 -84t-37 -85.5t-94 -33.5zM850 -25q-206 0 -370.5 94t-257.5 263.5t-93 384.5q0 161 54.5 299.5t150 235t230 151.5t290.5 55q251 0 430 -134.5t252 -365.5h-227q-61 146 -177.5 227t-277.5 81
q-225 0 -368.5 -153.5t-143.5 -395.5q0 -243 145 -396t377 -153q197 0 331.5 112.5t160.5 297.5h-531v186h723v-764h-184v225h-8q-76 -124 -208 -187t-298 -63z" />
    <glyph glyph-name="gdotaccent" unicode="&#x121;" horiz-adv-x="1323" 
d="M631 1214q-57 0 -94 33.5t-37 85.5t37 84.5t94 32.5t94 -32.5t37 -84.5t-37 -85.5t-94 -33.5zM586 1053q228 0 364 -168h8v143h199v-960q0 -242 -138 -372t-382 -130q-203 0 -329 86.5t-171 234.5h209q39 -68 113.5 -108.5t177.5 -40.5q146 0 233.5 85t87.5 245v84h-8
q-134 -168 -364 -168q-219 0 -357.5 149t-138.5 385t139 385.5t357 149.5zM625 872q-147 0 -241.5 -99t-94.5 -255q0 -157 94.5 -256.5t241.5 -99.5t242.5 99.5t95.5 256.5q0 156 -95.5 255t-242.5 99z" />
    <glyph glyph-name="uni0122" unicode="&#x122;" horiz-adv-x="1708" 
d="M850 -25q-206 0 -370.5 94t-257.5 263.5t-93 384.5q0 161 54.5 299.5t150 235t230 151.5t290.5 55q251 0 430 -134.5t252 -365.5h-227q-61 146 -177.5 227t-277.5 81q-225 0 -368.5 -153.5t-143.5 -395.5q0 -243 145 -396t377 -153q197 0 331.5 112.5t160.5 297.5h-531
v186h723v-764h-184v225h-8q-76 -124 -208 -187t-298 -63zM748 -610l75 211q-52 6 -83 39.5t-31 85.5q0 59 36.5 93t100.5 34t100.5 -36.5t36.5 -101.5q0 -63 -22 -123l-74 -202h-139z" />
    <glyph glyph-name="uni0123" unicode="&#x123;" horiz-adv-x="1323" 
d="M729 1606l-76 -211q52 -6 83.5 -39.5t31.5 -85.5q0 -59 -36.5 -93t-100.5 -34q-65 0 -101 36.5t-36 100.5q0 62 22 123l74 203h139zM586 1053q228 0 364 -168h8v143h199v-960q0 -242 -138 -372t-382 -130q-203 0 -329 86.5t-171 234.5h209q39 -68 113.5 -108.5
t177.5 -40.5q146 0 233.5 85t87.5 245v84h-8q-134 -168 -364 -168q-219 0 -357.5 149t-138.5 385t139 385.5t357 149.5zM625 872q-147 0 -241.5 -99t-94.5 -255q0 -157 94.5 -256.5t241.5 -99.5t242.5 99.5t95.5 256.5q0 156 -95.5 255t-242.5 99z" />
    <glyph glyph-name="Hcircumflex" unicode="&#x124;" horiz-adv-x="1628" 
d="M506 1573l225 295h164l225 -295h-188l-115 153h-8l-115 -153h-188zM205 0v1434h211v-592h796v592h211v-1434h-211v647h-796v-647h-211z" />
    <glyph glyph-name="hcircumflex" unicode="&#x125;" horiz-adv-x="1286" 
d="M-43 1573l225 295h164l225 -295h-188l-115 153h-8l-115 -153h-188zM166 0v1434h199v-549h8q131 168 348 168q176 0 292.5 -111.5t116.5 -316.5v-625h-196v602q0 71 -23.5 125t-62.5 84.5t-84 45.5t-94 15q-128 0 -216.5 -94t-88.5 -256v-522h-199z" />
    <glyph glyph-name="Hbar" unicode="&#x126;" horiz-adv-x="1671" 
d="M53 1100v174h172v160h213v-160h795v160h213v-160h172v-174h-172v-1100h-213v647h-795v-647h-213v1100h-172zM438 842h795v258h-795v-258z" />
    <glyph glyph-name="hbar" unicode="&#x127;" horiz-adv-x="1286" 
d="M166 0v1100h-172v174h172v164h199v-164h290v-174h-290v-297h8q131 168 348 168q176 0 292.5 -111.5t116.5 -316.5v-543h-196v520q0 71 -23.5 125t-62 85t-84 46t-94.5 15q-128 0 -216.5 -94.5t-88.5 -256.5v-440h-199z" />
    <glyph glyph-name="Itilde" unicode="&#x128;" horiz-adv-x="620" 
d="M168 1843q49 0 91 -18t66 -39t55 -39t60 -18q34 0 54 21t24 73h152q-9 -129 -66.5 -191.5t-152.5 -62.5q-49 0 -91 18t-66.5 39t-55.5 39t-60 18q-34 0 -54 -21t-24 -73h-151q9 129 66.5 191.5t152.5 62.5zM205 0v1434h211v-1434h-211z" />
    <glyph glyph-name="itilde" unicode="&#x129;" horiz-adv-x="528" 
d="M123 1438q49 0 91 -18t66 -39.5t55 -39.5t60 -18q34 0 54 21t24 73h152q-9 -129 -66.5 -191.5t-152.5 -62.5q-49 0 -91 18t-66.5 39.5t-55.5 39.5t-60 18q-34 0 -54 -21t-24 -73h-151q9 129 66.5 191.5t152.5 62.5zM166 0v1028h199v-1028h-199z" />
    <glyph glyph-name="Imacron" unicode="&#x12a;" horiz-adv-x="620" 
d="M-39 1630v152h696v-152h-696zM205 0v1434h211v-1434h-211z" />
    <glyph glyph-name="imacron" unicode="&#x12b;" horiz-adv-x="528" 
d="M-84 1225v151h696v-151h-696zM166 0v1028h199v-1028h-199z" />
    <glyph glyph-name="Ibreve" unicode="&#x12c;" horiz-adv-x="620" 
d="M311 1573q-133 0 -220.5 73.5t-94.5 221.5h156q7 -80 53 -115t106 -35q61 0 107 35t53 115h156q-7 -148 -95 -221.5t-221 -73.5zM205 0v1434h211v-1434h-211z" />
    <glyph glyph-name="ibreve" unicode="&#x12d;" horiz-adv-x="528" 
d="M264 1167q-133 0 -220.5 73.5t-94.5 221.5h155q7 -80 53 -114.5t107 -34.5t107 34.5t53 114.5h156q-7 -148 -95 -221.5t-221 -73.5zM166 0v1028h199v-1028h-199z" />
    <glyph glyph-name="Iogonek" unicode="&#x12e;" horiz-adv-x="620" 
d="M205 2v1432h211v-1434q-158 -56 -158 -152q0 -43 34 -68.5t101 -25.5h23v-164h-78q-122 0 -192 50t-70 149q0 70 38 124.5t103 88.5h-12z" />
    <glyph glyph-name="iogonek" unicode="&#x12f;" horiz-adv-x="593" 
d="M297 1214q-57 0 -94 33.5t-37 85.5t37 84.5t94 32.5t94 -32.5t37 -84.5t-37 -85.5t-94 -33.5zM197 4v1024h198v-1028q-157 -56 -157 -152q0 -43 34 -68.5t101 -25.5h22v-164h-78q-122 0 -192 50t-70 149q0 73 41 127.5t111 87.5h-10z" />
    <glyph glyph-name="Idotaccent" unicode="&#x130;" horiz-adv-x="620" 
d="M309 1620q-57 0 -94 33.5t-37 85.5t36.5 84t94.5 32t94.5 -32t36.5 -84t-37 -85.5t-94 -33.5zM205 0v1434h211v-1434h-211z" />
    <glyph glyph-name="dotlessi" unicode="&#x131;" horiz-adv-x="528" 
d="M166 0v1028h199v-1028h-199z" />
    <glyph glyph-name="IJ" unicode="&#x132;" horiz-adv-x="2021" 
d="M205 0v1434h211v-1434h-211zM715 0v199h758q85 0 116 31t31 116v1088h213v-1121q0 -164 -74.5 -238.5t-238.5 -74.5h-805z" />
    <glyph glyph-name="ij" unicode="&#x133;" horiz-adv-x="1155" 
d="M297 1214q-57 0 -94 33.5t-37 85.5t37 84.5t94 32.5t94 -32.5t37 -84.5t-37 -85.5t-94 -33.5zM858 1214q-57 0 -94 33.5t-37 85.5t37 84.5t94 32.5t94 -32.5t37 -84.5t-37 -85.5t-94 -33.5zM199 0v1028h198v-1028h-198zM526 -410v185h123q59 0 85 26t26 84v1143h198
v-1159q0 -148 -66 -213.5t-214 -65.5h-152z" />
    <glyph glyph-name="Jcircumflex" unicode="&#x134;" horiz-adv-x="1400" 
d="M799 1573l225 295h164l225 -295h-188l-115 153h-8l-115 -153h-188zM94 0v199h758q85 0 116 31t31 116v1088h213v-1121q0 -164 -74.5 -238.5t-238.5 -74.5h-805z" />
    <glyph glyph-name="jcircumflex" unicode="&#x135;" horiz-adv-x="528" 
d="M-43 1167l225 295h164l225 -295h-188l-115 154h-8l-115 -154h-188zM-68 -410v185h123q59 0 85 26t26 84v1143h199v-1159q0 -147 -66.5 -213t-214.5 -66h-152z" />
    <glyph glyph-name="uni0136" unicode="&#x136;" horiz-adv-x="1523" 
d="M205 0v1434h211v-592h205l548 592h269l-643 -695l655 -739h-276l-572 647h-186v-647h-211zM659 -610l76 211q-52 6 -83 39.5t-31 85.5q0 59 36.5 93t100.5 34t100.5 -36.5t36.5 -101.5q0 -60 -23 -123l-73 -202h-140z" />
    <glyph glyph-name="uni0137" unicode="&#x137;" horiz-adv-x="1179" 
d="M166 0v1434h199v-813h149l379 407h246l-457 -493l465 -535h-248l-383 442h-151v-442h-199zM492 -610l75 211q-52 6 -83 39.5t-31 85.5q0 59 36.5 93t100.5 34t100.5 -36.5t36.5 -101.5q0 -63 -22 -123l-74 -202h-139z" />
    <glyph glyph-name="kgreenlandic" unicode="&#x138;" horiz-adv-x="1179" 
d="M166 0v1028h199v-407h149l379 407h246l-457 -493l465 -535h-248l-383 442h-151v-442h-199z" />
    <glyph glyph-name="Lacute" unicode="&#x139;" horiz-adv-x="1417" 
d="M197 1573l163 266h215l-163 -266h-215zM205 0v1434h211v-1235h907v-199h-1118z" />
    <glyph glyph-name="lacute" unicode="&#x13a;" horiz-adv-x="634" 
d="M141 1573l164 266h215l-164 -266h-215zM434 0q-148 0 -214 65.5t-66 213.5v1155h198v-1139q0 -59 26 -85t85 -26h98v-184h-127z" />
    <glyph glyph-name="uni013B" unicode="&#x13b;" horiz-adv-x="1417" 
d="M205 0v1434h211v-1235h907v-199h-1118zM690 -610l76 211q-52 6 -83.5 39.5t-31.5 85.5q0 59 36.5 93t100.5 34t101 -36.5t37 -101.5q0 -60 -23 -123l-74 -202h-139z" />
    <glyph glyph-name="uni013C" unicode="&#x13c;" horiz-adv-x="634" 
d="M434 0q-148 0 -214 65.5t-66 213.5v1155h198v-1139q0 -59 26 -85t85 -26h98v-184h-127zM264 -610l76 211q-52 6 -83.5 39.5t-31.5 85.5q0 59 36.5 93t100.5 34t101 -36.5t37 -101.5q0 -60 -23 -123l-74 -202h-139z" />
    <glyph glyph-name="Lcaron" unicode="&#x13d;" horiz-adv-x="1417" 
d="M205 0v1434h211v-1235h907v-199h-1118zM606 1106l99 328h167l-98 -328h-168z" />
    <glyph glyph-name="lcaron" unicode="&#x13e;" horiz-adv-x="737" 
d="M434 0q-148 0 -214 65.5t-66 213.5v1155h198v-1139q0 -59 26 -85t85 -26h98v-184h-127zM440 1106l99 328h168l-99 -328h-168z" />
    <glyph glyph-name="Ldot" unicode="&#x13f;" horiz-adv-x="1417" 
d="M205 0v1434h211v-1235h907v-199h-1118zM860 598q-62 0 -100.5 36.5t-38.5 96.5t38.5 96.5t100.5 36.5q60 0 98.5 -36.5t38.5 -96.5t-38.5 -96.5t-98.5 -36.5z" />
    <glyph glyph-name="ldot" unicode="&#x140;" horiz-adv-x="876" 
d="M434 0q-148 0 -214 65.5t-66 213.5v1155h198v-1139q0 -59 26 -85t85 -26h98v-184h-127zM657 532q-62 0 -100.5 37t-38.5 97t38.5 96.5t100.5 36.5q61 0 99.5 -37t38.5 -96q0 -60 -39 -97t-99 -37z" />
    <glyph glyph-name="Lslash" unicode="&#x141;" horiz-adv-x="1437" 
d="M20 545v188l205 76v625h213v-547l463 174v-189l-463 -174v-499h905v-199h-1118v621z" />
    <glyph glyph-name="lslash" unicode="&#x142;" horiz-adv-x="698" 
d="M475 0q-148 0 -213 65.5t-65 213.5v335l-164 -59v176l164 57v646h198v-574l209 74v-174l-209 -74v-391q0 -59 25.5 -85t85.5 -26h98v-184h-129z" />
    <glyph glyph-name="Nacute" unicode="&#x143;" horiz-adv-x="1673" 
d="M727 1573l164 266h215l-164 -266h-215zM1470 1434v-1434h-268l-778 1130h-8v-1130h-211v1434h266l778 -1131h8v1131h213z" />
    <glyph glyph-name="nacute" unicode="&#x144;" horiz-adv-x="1286" 
d="M541 1167l164 267h215l-164 -267h-215zM166 0v1028h199v-143h8q131 168 348 168q176 0 292.5 -111.5t116.5 -316.5v-625h-196v602q0 71 -23.5 125t-62.5 84.5t-84 45.5t-94 15q-128 0 -216.5 -94t-88.5 -256v-522h-199z" />
    <glyph glyph-name="uni0145" unicode="&#x145;" horiz-adv-x="1673" 
d="M1470 1434v-1434h-268l-778 1130h-8v-1130h-211v1434h266l778 -1131h8v1131h213zM735 -610l76 211q-52 6 -83.5 39.5t-31.5 85.5q0 59 37 93t101 34t100.5 -36.5t36.5 -101.5q0 -60 -23 -123l-74 -202h-139z" />
    <glyph glyph-name="uni0146" unicode="&#x146;" horiz-adv-x="1286" 
d="M166 0v1028h199v-143h8q131 168 348 168q176 0 292.5 -111.5t116.5 -316.5v-625h-196v602q0 71 -23.5 125t-62.5 84.5t-84 45.5t-94 15q-128 0 -216.5 -94t-88.5 -256v-522h-199zM555 -610l76 211q-52 6 -83.5 39.5t-31.5 85.5q0 59 36.5 93t100.5 34q65 0 101.5 -36.5
t36.5 -101.5q0 -60 -23 -123l-74 -202h-139z" />
    <glyph glyph-name="Ncaron" unicode="&#x147;" horiz-adv-x="1673" 
d="M758 1573l-226 295h189l115 -154h8l114 154h189l-225 -295h-164zM1470 1434v-1434h-268l-778 1130h-8v-1130h-211v1434h266l778 -1131h8v1131h213z" />
    <glyph glyph-name="ncaron" unicode="&#x148;" horiz-adv-x="1286" 
d="M571 1167l-225 295h189l114 -153h8l115 153h189l-226 -295h-164zM166 0v1028h199v-143h8q131 168 348 168q176 0 292.5 -111.5t116.5 -316.5v-625h-196v602q0 71 -23.5 125t-62.5 84.5t-84 45.5t-94 15q-128 0 -216.5 -94t-88.5 -256v-522h-199z" />
    <glyph glyph-name="napostrophe" unicode="&#x149;" horiz-adv-x="1648" 
d="M139 971l72 215q-52 8 -82.5 43t-30.5 88q0 61 37.5 97t102.5 36t101 -38t36 -107q0 -47 -23 -125l-69 -209h-144zM528 0v1028h199v-143h8q131 168 348 168q114 0 205.5 -46.5t148 -145t56.5 -236.5v-625h-197v602q0 71 -23.5 125t-62.5 84.5t-84 45.5t-94 15
q-128 0 -216.5 -94t-88.5 -256v-522h-199z" />
    <glyph glyph-name="Eng" unicode="&#x14a;" horiz-adv-x="1652" 
d="M416 1157v-1157h-211v1434h266l758 -981h8v981h213v-1565q0 -147 -66.5 -213t-214.5 -66h-165v185h122q59 0 85 26t26 84v221l-813 1051h-8z" />
    <glyph glyph-name="eng" unicode="&#x14b;" horiz-adv-x="1286" 
d="M700 -410v185h123q59 0 85 26t26 84v717q0 71 -23.5 125t-62.5 84.5t-84 45.5t-94 15q-128 0 -216.5 -94t-88.5 -256v-522h-199v1028h199v-143h8q131 168 348 168q176 0 292.5 -111.5t116.5 -316.5v-756q0 -148 -65 -213.5t-213 -65.5h-152z" />
    <glyph glyph-name="Omacron" unicode="&#x14c;" horiz-adv-x="1724" 
d="M514 1630v152h696v-152h-696zM862 -25q-154 0 -289 55t-233 152t-154.5 235.5t-56.5 299.5q0 214 96.5 384t264 263.5t372.5 93.5t372.5 -93.5t264 -263.5t96.5 -384q0 -161 -56.5 -299.5t-154.5 -235.5t-233 -152t-289 -55zM862 168q222 0 372 154.5t150 394.5
t-150 394.5t-372 154.5t-371 -154.5t-149 -394.5t149 -394.5t371 -154.5z" />
    <glyph glyph-name="omacron" unicode="&#x14d;" horiz-adv-x="1257" 
d="M281 1225v151h696v-151h-696zM629 -25q-152 0 -274.5 67t-193.5 190.5t-71 281.5q0 156 71 280t194 191.5t274 67.5t273 -67.5t192.5 -191.5t70.5 -280q0 -238 -153 -388.5t-383 -150.5zM629 154q147 0 242.5 100t95.5 260t-95 259t-243 99t-244 -99t-96 -259t96 -260
t244 -100z" />
    <glyph glyph-name="Obreve" unicode="&#x14e;" horiz-adv-x="1724" 
d="M862 1573q-133 0 -220.5 73.5t-94.5 221.5h155q7 -80 53 -115t107 -35t107 35t53 115h156q-7 -148 -95 -221.5t-221 -73.5zM862 -25q-154 0 -289 55t-233 152t-154.5 235.5t-56.5 299.5q0 214 96.5 384t264 263.5t372.5 93.5t372.5 -93.5t264 -263.5t96.5 -384
q0 -161 -56.5 -299.5t-154.5 -235.5t-233 -152t-289 -55zM862 168q222 0 372 154.5t150 394.5t-150 394.5t-372 154.5t-371 -154.5t-149 -394.5t149 -394.5t371 -154.5z" />
    <glyph glyph-name="obreve" unicode="&#x14f;" horiz-adv-x="1257" 
d="M629 1167q-133 0 -221 73.5t-95 221.5h156q7 -80 53 -114.5t107 -34.5t106.5 34.5t52.5 114.5h156q-7 -148 -94.5 -221.5t-220.5 -73.5zM629 -25q-152 0 -274.5 67t-193.5 190.5t-71 281.5q0 156 71 280t194 191.5t274 67.5t273 -67.5t192.5 -191.5t70.5 -280
q0 -238 -153 -388.5t-383 -150.5zM629 154q147 0 242.5 100t95.5 260t-95 259t-243 99t-244 -99t-96 -259t96 -260t244 -100z" />
    <glyph glyph-name="Ohungarumlaut" unicode="&#x150;" horiz-adv-x="1724" 
d="M920 1573l163 266h207l-164 -266h-206zM575 1573l164 266h205l-164 -266h-205zM862 -25q-154 0 -289 55t-233 152t-154.5 235.5t-56.5 299.5q0 214 96.5 384t264 263.5t372.5 93.5t372.5 -93.5t264 -263.5t96.5 -384q0 -161 -56.5 -299.5t-154.5 -235.5t-233 -152
t-289 -55zM862 168q222 0 372 154.5t150 394.5t-150 394.5t-372 154.5t-371 -154.5t-149 -394.5t149 -394.5t371 -154.5z" />
    <glyph glyph-name="ohungarumlaut" unicode="&#x151;" horiz-adv-x="1257" 
d="M686 1167l164 267h207l-164 -267h-207zM342 1167l164 267h205l-164 -267h-205zM629 -25q-152 0 -274.5 67t-193.5 190.5t-71 281.5q0 156 71 280t194 191.5t274 67.5t273 -67.5t192.5 -191.5t70.5 -280q0 -238 -153 -388.5t-383 -150.5zM629 154q147 0 242.5 100
t95.5 260t-95 259t-243 99t-244 -99t-96 -259t96 -260t244 -100z" />
    <glyph glyph-name="OE" unicode="&#x152;" horiz-adv-x="2658" 
d="M1595 649v-456h912v-193h-1123v209h-8q-100 -111 -231 -172.5t-283 -61.5q-154 0 -289 55t-233 152t-154.5 235.5t-56.5 299.5q0 214 96.5 384t264 263.5t372.5 93.5q153 0 283.5 -61t230.5 -172h8v209h1123v-193h-912v-401h813v-191h-813zM862 168q222 0 372 154.5
t150 394.5t-150 394.5t-372 154.5t-371 -154.5t-149 -394.5t149 -394.5t371 -154.5z" />
    <glyph glyph-name="oe" unicode="&#x153;" horiz-adv-x="2107" 
d="M629 -25q-152 0 -274.5 67t-193.5 190.5t-71 281.5q0 156 71 280t194 191.5t274 67.5q138 0 250.5 -59.5t183.5 -168.5h8q154 228 428 228q225 0 370.5 -146t145.5 -383l-4 -82h-842q19 -135 109.5 -217t220.5 -82q93 0 168 43t115 117h211q-58 -149 -190 -238.5
t-304 -89.5q-273 0 -428 226h-8q-74 -108 -185.5 -167t-248.5 -59zM1174 606h638q-22 127 -105 203t-208 76t-213.5 -76t-111.5 -203zM629 154q147 0 242.5 100t95.5 260t-95 259t-243 99t-244 -99t-96 -259t96 -260t244 -100z" />
    <glyph glyph-name="Racute" unicode="&#x154;" horiz-adv-x="1568" 
d="M682 1573l164 266h215l-164 -266h-215zM1221 0l-332 557h-473v-557h-211v1434h790q212 0 346 -117t134 -322q0 -172 -96 -282t-257 -142l340 -571h-241zM416 750h579q128 0 198.5 67t70.5 178t-70.5 178.5t-198.5 67.5h-579v-491z" />
    <glyph glyph-name="racute" unicode="&#x155;" horiz-adv-x="1040" 
d="M471 1167l164 267h215l-164 -267h-215zM166 0v1028h199v-143h8q56 71 131 107t192 36h267v-184h-271q-154 0 -240.5 -77.5t-86.5 -225.5v-541h-199z" />
    <glyph glyph-name="uni0156" unicode="&#x156;" horiz-adv-x="1568" 
d="M1221 0l-332 557h-473v-557h-211v1434h790q212 0 346 -117t134 -322q0 -172 -96 -282t-257 -142l340 -571h-241zM416 750h579q128 0 198.5 67t70.5 178t-70.5 178.5t-198.5 67.5h-579v-491zM696 -610l76 211q-52 6 -83.5 39.5t-31.5 85.5q0 59 37 93t101 34t100.5 -36.5
t36.5 -101.5q0 -60 -23 -123l-73 -202h-140z" />
    <glyph glyph-name="uni0157" unicode="&#x157;" horiz-adv-x="1040" 
d="M166 0v1028h199v-143h8q56 71 131 107t192 36h267v-184h-271q-154 0 -240.5 -77.5t-86.5 -225.5v-541h-199zM166 -610l76 211q-52 6 -83.5 39.5t-31.5 85.5q0 59 36.5 93t100.5 34t100.5 -36.5t36.5 -101.5q0 -63 -22 -123l-74 -202h-139z" />
    <glyph glyph-name="Rcaron" unicode="&#x158;" horiz-adv-x="1568" 
d="M713 1573l-226 295h189l115 -154h8l114 154h189l-225 -295h-164zM1221 0l-332 557h-473v-557h-211v1434h790q212 0 346 -117t134 -322q0 -172 -96 -282t-257 -142l340 -571h-241zM416 750h579q128 0 198.5 67t70.5 178t-70.5 178.5t-198.5 67.5h-579v-491z" />
    <glyph glyph-name="rcaron" unicode="&#x159;" horiz-adv-x="1040" 
d="M502 1167l-226 295h189l115 -153h8l114 153h189l-225 -295h-164zM166 0v1028h199v-143h8q56 71 131 107t192 36h267v-184h-271q-154 0 -240.5 -77.5t-86.5 -225.5v-541h-199z" />
    <glyph glyph-name="Sacute" unicode="&#x15a;" horiz-adv-x="1490" 
d="M598 1573l164 266h215l-164 -266h-215zM786 -25q-652 0 -696 482h219q43 -297 477 -297q381 0 381 227q0 67 -35 112.5t-94 69t-135.5 38.5t-161 26t-169 24t-161 40t-135.5 68.5t-94 114t-35 171.5q0 73 20.5 133t54.5 101t82.5 73t99 50.5t109.5 30t109 15.5t103 4
q263 0 427 -107t191 -327h-219q-21 119 -122 184.5t-277 65.5q-72 0 -134.5 -11.5t-116 -36t-84 -69.5t-30.5 -106q0 -62 35 -104.5t94 -64.5t135.5 -36t161 -25t169 -25t161 -42.5t135.5 -72t94 -118.5t35 -176q0 -412 -594 -412z" />
    <glyph glyph-name="sacute" unicode="&#x15b;" horiz-adv-x="1107" 
d="M432 1167l164 267h215l-164 -267h-215zM575 -25q-77 0 -144 10t-131.5 35t-112 64t-79 100.5t-38.5 141.5h204q8 -50 38 -87.5t74 -57.5t91 -29t98 -9q42 -1 82 5.5t78.5 22t62 46.5t23.5 74q0 47 -31 77.5t-81.5 43.5t-115 24t-132 18.5t-132 27.5t-115 49t-81.5 85.5
t-31 135.5q0 69 27.5 123t70.5 87t102.5 54t117.5 29t121 8q65 0 124 -8.5t119 -31.5t104 -58t74.5 -92.5t36.5 -131.5h-204q-7 44 -33.5 76t-65 48t-77 23t-80.5 7q-37 0 -73.5 -5.5t-77 -18.5t-65 -41t-24.5 -68q0 -38 24.5 -63.5t66.5 -38.5t96 -22t114 -17t119.5 -19
t113.5 -32.5t96 -54t66.5 -87t24.5 -127.5q0 -75 -27 -132.5t-69.5 -91.5t-103 -55.5t-119 -29t-126.5 -7.5z" />
    <glyph glyph-name="Scircumflex" unicode="&#x15c;" horiz-adv-x="1490" 
d="M403 1573l226 295h164l225 -295h-189l-114 153h-8l-115 -153h-189zM786 -25q-652 0 -696 482h219q43 -297 477 -297q381 0 381 227q0 67 -35 112.5t-94 69t-135.5 38.5t-161 26t-169 24t-161 40t-135.5 68.5t-94 114t-35 171.5q0 73 20.5 133t54.5 101t82.5 73t99 50.5
t109.5 30t109 15.5t103 4q263 0 427 -107t191 -327h-219q-21 119 -122 184.5t-277 65.5q-72 0 -134.5 -11.5t-116 -36t-84 -69.5t-30.5 -106q0 -62 35 -104.5t94 -64.5t135.5 -36t161 -25t169 -25t161 -42.5t135.5 -72t94 -118.5t35 -176q0 -412 -594 -412z" />
    <glyph glyph-name="scircumflex" unicode="&#x15d;" horiz-adv-x="1107" 
d="M238 1167l225 295h164l225 -295h-188l-115 154h-8l-115 -154h-188zM575 -25q-77 0 -144 10t-131.5 35t-112 64t-79 100.5t-38.5 141.5h204q8 -50 38 -87.5t74 -57.5t91 -29t98 -9q42 -1 82 5.5t78.5 22t62 46.5t23.5 74q0 47 -31 77.5t-81.5 43.5t-115 24t-132 18.5
t-132 27.5t-115 49t-81.5 85.5t-31 135.5q0 69 27.5 123t70.5 87t102.5 54t117.5 29t121 8q65 0 124 -8.5t119 -31.5t104 -58t74.5 -92.5t36.5 -131.5h-204q-7 44 -33.5 76t-65 48t-77 23t-80.5 7q-37 0 -73.5 -5.5t-77 -18.5t-65 -41t-24.5 -68q0 -38 24.5 -63.5
t66.5 -38.5t96 -22t114 -17t119.5 -19t113.5 -32.5t96 -54t66.5 -87t24.5 -127.5q0 -75 -27 -132.5t-69.5 -91.5t-103 -55.5t-119 -29t-126.5 -7.5z" />
    <glyph glyph-name="Scedilla" unicode="&#x15e;" horiz-adv-x="1490" 
d="M1380 387q0 -74 -19.5 -134.5t-51.5 -102.5t-80 -73.5t-99.5 -50.5t-115 -31t-121 -16t-123.5 -4l-18 -36q74 -15 115.5 -58.5t41.5 -107.5q0 -90 -77 -136.5t-195 -46.5h-76v152h72q96 0 96 65q0 64 -96 64h-41l51 111q-514 53 -553 475h219q43 -297 477 -297
q381 0 381 227q0 67 -35 112.5t-94 69t-135.5 38.5t-161 26t-169 24t-161 40t-135.5 68.5t-94 114t-35 171.5q0 73 20.5 133t54.5 101t82.5 73t99 50.5t109.5 30t109 15.5t103 4q263 0 427 -107t191 -327h-219q-21 119 -122 184.5t-277 65.5q-72 0 -134.5 -11.5t-116 -36
t-84 -69.5t-30.5 -106q0 -62 35 -104.5t94 -64.5t135.5 -36t161 -25t169 -25t161 -42.5t135.5 -72t94 -118.5t35 -176z" />
    <glyph glyph-name="scedilla" unicode="&#x15f;" horiz-adv-x="1107" 
d="M399 -410v152h72q98 0 98 65q0 64 -98 64h-41l51 109q-65 6 -120.5 20t-107.5 41t-89.5 65.5t-62.5 94.5t-31 125h204q8 -50 38 -87.5t74 -57.5t91 -29t98 -9q42 -1 82 5.5t78.5 22t62 46.5t23.5 74q0 47 -31 77.5t-81.5 43.5t-115 24t-132 18.5t-132 27.5t-115 49
t-81.5 85.5t-31 135.5q0 69 27.5 123t70.5 87t102.5 54t117.5 29t121 8q65 0 124 -8.5t119 -31.5t104 -58t74.5 -92.5t36.5 -131.5h-204q-7 44 -33.5 76t-65 48t-77 23t-80.5 7q-37 0 -73.5 -5.5t-77 -18.5t-65 -41t-24.5 -68q0 -38 24.5 -63.5t66.5 -38.5t96 -22t114 -17
t119.5 -19t113.5 -32.5t96 -54t66.5 -87t24.5 -127.5q0 -71 -24 -126.5t-63 -89.5t-94.5 -56.5t-111 -32t-119.5 -11.5l-18 -36q74 -15 116 -58.5t42 -107.5q0 -90 -77.5 -136.5t-195.5 -46.5h-76z" />
    <glyph glyph-name="Scaron" unicode="&#x160;" horiz-adv-x="1490" 
d="M629 1573l-226 295h189l115 -154h8l114 154h189l-225 -295h-164zM786 -25q-652 0 -696 482h219q43 -297 477 -297q381 0 381 227q0 67 -35 112.5t-94 69t-135.5 38.5t-161 26t-169 24t-161 40t-135.5 68.5t-94 114t-35 171.5q0 73 20.5 133t54.5 101t82.5 73t99 50.5
t109.5 30t109 15.5t103 4q263 0 427 -107t191 -327h-219q-21 119 -122 184.5t-277 65.5q-72 0 -134.5 -11.5t-116 -36t-84 -69.5t-30.5 -106q0 -62 35 -104.5t94 -64.5t135.5 -36t161 -25t169 -25t161 -42.5t135.5 -72t94 -118.5t35 -176q0 -412 -594 -412z" />
    <glyph glyph-name="scaron" unicode="&#x161;" horiz-adv-x="1107" 
d="M463 1167l-225 295h188l115 -153h8l115 153h188l-225 -295h-164zM575 -25q-77 0 -144 10t-131.5 35t-112 64t-79 100.5t-38.5 141.5h204q8 -50 38 -87.5t74 -57.5t91 -29t98 -9q42 -1 82 5.5t78.5 22t62 46.5t23.5 74q0 47 -31 77.5t-81.5 43.5t-115 24t-132 18.5
t-132 27.5t-115 49t-81.5 85.5t-31 135.5q0 69 27.5 123t70.5 87t102.5 54t117.5 29t121 8q65 0 124 -8.5t119 -31.5t104 -58t74.5 -92.5t36.5 -131.5h-204q-7 44 -33.5 76t-65 48t-77 23t-80.5 7q-37 0 -73.5 -5.5t-77 -18.5t-65 -41t-24.5 -68q0 -38 24.5 -63.5
t66.5 -38.5t96 -22t114 -17t119.5 -19t113.5 -32.5t96 -54t66.5 -87t24.5 -127.5q0 -75 -27 -132.5t-69.5 -91.5t-103 -55.5t-119 -29t-126.5 -7.5z" />
    <glyph glyph-name="uni0162" unicode="&#x162;" horiz-adv-x="1548" 
d="M668 0v1241h-574v193h1360v-193h-573v-1241h-37l-31 -61q74 -15 116 -58.5t42 -107.5q0 -90 -77.5 -136.5t-195.5 -46.5h-75v152h71q97 0 97 65q0 64 -97 64h-41l58 129h-43z" />
    <glyph glyph-name="uni0163" unicode="&#x163;" horiz-adv-x="1173" 
d="M463 -410v152h72q96 0 96 65q0 33 -27 48.5t-69 15.5h-43l63 135q-115 20 -168 95t-53 212v535h-256v180h256v340h198v-340h537v-180h-537v-520q0 -82 32 -114t114 -32h391v-182h-385l-33 -61q74 -15 117 -58.5t43 -107.5q0 -91 -77 -137t-197 -46h-74z" />
    <glyph glyph-name="Tcaron" unicode="&#x164;" horiz-adv-x="1548" 
d="M692 1573l-225 295h188l115 -154h8l115 154h188l-225 -295h-164zM668 0v1241h-574v193h1360v-193h-573v-1241h-213z" />
    <glyph glyph-name="tcaron" unicode="&#x165;" horiz-adv-x="1173" 
d="M782 1106l99 328h168l-99 -328h-168zM647 0q-163 0 -238 75t-75 238v535h-256v180h256v340h198v-340h537v-180h-537v-520q0 -82 32 -114t114 -32h391v-182h-422z" />
    <glyph glyph-name="Tbar" unicode="&#x166;" horiz-adv-x="1548" 
d="M252 639v176h416v426h-574v193h1360v-193h-573v-426h415v-176h-415v-639h-213v639h-416z" />
    <glyph glyph-name="tbar" unicode="&#x167;" horiz-adv-x="1212" 
d="M94 453v157h256v238h-256v180h256v340h199v-340h536v-180h-536v-238h536v-157h-536v-125q0 -82 31.5 -114t113.5 -32h391v-182h-421q-163 0 -238.5 75t-75.5 238v140h-256z" />
    <glyph glyph-name="Utilde" unicode="&#x168;" horiz-adv-x="1585" 
d="M651 1843q49 0 91 -18t66.5 -39t55.5 -39t60 -18q34 0 53.5 21t23.5 73h152q-9 -129 -66.5 -191.5t-152.5 -62.5q-49 0 -91 18t-66 39t-55 39t-60 18q-34 0 -54 -21t-24 -73h-152q9 129 66.5 191.5t152.5 62.5zM793 -25q-181 0 -321 73.5t-222 222.5t-82 356v807h211
v-807q0 -113 32 -201.5t88.5 -144t131 -84.5t162.5 -29q183 0 298 118t115 341v807h213v-807q0 -207 -82 -356t-222 -222.5t-322 -73.5z" />
    <glyph glyph-name="utilde" unicode="&#x169;" horiz-adv-x="1286" 
d="M492 1438q49 0 91 -18t66 -39.5t55 -39.5t60 -18q34 0 54 21t24 73h151q-9 -129 -66.5 -191.5t-152.5 -62.5q-49 0 -91 18t-66 39.5t-55 39.5t-60 18q-34 0 -54 -21t-24 -73h-152q9 129 67 191.5t153 62.5zM1120 1028v-1028h-198v143h-9q-131 -168 -348 -168
q-176 0 -292.5 111.5t-116.5 316.5v625h196v-602q0 -71 23.5 -125t62.5 -84.5t84 -45.5t94 -15q128 0 217 94t89 256v522h198z" />
    <glyph glyph-name="Umacron" unicode="&#x16a;" horiz-adv-x="1585" 
d="M444 1630v152h697v-152h-697zM793 -25q-181 0 -321 73.5t-222 222.5t-82 356v807h211v-807q0 -113 32 -201.5t88.5 -144t131 -84.5t162.5 -29q183 0 298 118t115 341v807h213v-807q0 -207 -82 -356t-222 -222.5t-322 -73.5z" />
    <glyph glyph-name="umacron" unicode="&#x16b;" horiz-adv-x="1286" 
d="M285 1225v151h696v-151h-696zM1120 1028v-1028h-198v143h-9q-131 -168 -348 -168q-176 0 -292.5 111.5t-116.5 316.5v625h196v-602q0 -71 23.5 -125t62.5 -84.5t84 -45.5t94 -15q128 0 217 94t89 256v522h198z" />
    <glyph glyph-name="Ubreve" unicode="&#x16c;" horiz-adv-x="1585" 
d="M793 1573q-133 0 -221 73.5t-95 221.5h156q7 -80 53 -115t107 -35q60 0 106 35t53 115h156q-7 -148 -94.5 -221.5t-220.5 -73.5zM793 -25q-181 0 -321 73.5t-222 222.5t-82 356v807h211v-807q0 -113 32 -201.5t88.5 -144t131 -84.5t162.5 -29q183 0 298 118t115 341v807
h213v-807q0 -207 -82 -356t-222 -222.5t-322 -73.5z" />
    <glyph glyph-name="ubreve" unicode="&#x16d;" horiz-adv-x="1286" 
d="M633 1167q-133 0 -221 73.5t-95 221.5h156q7 -80 53 -114.5t107 -34.5t107 34.5t53 114.5h155q-7 -148 -94.5 -221.5t-220.5 -73.5zM1120 1028v-1028h-198v143h-9q-131 -168 -348 -168q-176 0 -292.5 111.5t-116.5 316.5v625h196v-602q0 -71 23.5 -125t62.5 -84.5
t84 -45.5t94 -15q128 0 217 94t89 256v522h198z" />
    <glyph glyph-name="Uring" unicode="&#x16e;" horiz-adv-x="1585" 
d="M793 1548q-96 0 -158 56t-62 149q0 95 62 151t158 56t157.5 -56t61.5 -151q0 -94 -61.5 -149.5t-157.5 -55.5zM776 1681q35 -7 58.5 9t29.5 49q8 33 -7 57t-48 31q-35 6 -58.5 -10.5t-29.5 -47.5q-8 -33 7 -57t48 -31zM793 -25q-181 0 -321 73.5t-222 222.5t-82 356v807
h211v-807q0 -113 32 -201.5t88.5 -144t131 -84.5t162.5 -29q183 0 298 118t115 341v807h213v-807q0 -207 -82 -356t-222 -222.5t-322 -73.5z" />
    <glyph glyph-name="uring" unicode="&#x16f;" horiz-adv-x="1286" 
d="M633 1143q-96 0 -157.5 55.5t-61.5 149.5q0 95 61.5 150.5t157.5 55.5t157.5 -55.5t61.5 -150.5q0 -94 -61.5 -149.5t-157.5 -55.5zM616 1276q35 -7 59 8.5t30 48.5q8 33 -7.5 57t-48.5 31q-35 6 -58.5 -10t-29.5 -47q-8 -33 7 -57t48 -31zM1120 1028v-1028h-198v143h-9
q-131 -168 -348 -168q-176 0 -292.5 111.5t-116.5 316.5v625h196v-602q0 -71 23.5 -125t62.5 -84.5t84 -45.5t94 -15q128 0 217 94t89 256v522h198z" />
    <glyph glyph-name="Uhungarumlaut" unicode="&#x170;" horiz-adv-x="1585" 
d="M850 1573l164 266h207l-164 -266h-207zM506 1573l164 266h204l-163 -266h-205zM793 -25q-181 0 -321 73.5t-222 222.5t-82 356v807h211v-807q0 -113 32 -201.5t88.5 -144t131 -84.5t162.5 -29q183 0 298 118t115 341v807h213v-807q0 -207 -82 -356t-222 -222.5
t-322 -73.5z" />
    <glyph glyph-name="uhungarumlaut" unicode="&#x171;" horiz-adv-x="1286" 
d="M690 1167l164 267h207l-164 -267h-207zM346 1167l164 267h205l-164 -267h-205zM1120 1028v-1028h-198v143h-9q-131 -168 -348 -168q-176 0 -292.5 111.5t-116.5 316.5v625h196v-602q0 -71 23.5 -125t62.5 -84.5t84 -45.5t94 -15q128 0 217 94t89 256v522h198z" />
    <glyph glyph-name="Uogonek" unicode="&#x172;" horiz-adv-x="1585" 
d="M899 -410q-122 0 -193 50.5t-71 148.5q0 116 102 188q-125 8 -229 54t-180 127t-118 201t-42 268v807h211v-807q0 -113 32 -201.5t88.5 -144t131 -84.5t162.5 -29q183 0 298 118t115 341v807h213v-807q0 -262 -127.5 -426.5t-341.5 -210.5q-131 -53 -131 -142
q0 -43 33.5 -68.5t101.5 -25.5h23v-164h-78z" />
    <glyph glyph-name="uogonek" unicode="&#x173;" horiz-adv-x="1286" 
d="M1120 1028v-1028q-157 -54 -157 -152q0 -43 33.5 -68.5t101.5 -25.5h22v-164h-78q-122 0 -193 50.5t-71 148.5q0 73 42 127.5t112 87.5h-10v139h-9q-131 -168 -350 -168q-114 0 -205 46.5t-147.5 144.5t-56.5 235v627h198v-602q0 -71 23 -125t62 -84.5t83.5 -45.5
t93.5 -15q128 0 218 93t90 255v524h198z" />
    <glyph glyph-name="Wcircumflex" unicode="&#x174;" horiz-adv-x="2467" 
d="M926 1573l225 295h164l225 -295h-188l-115 153h-8l-115 -153h-188zM2413 1434l-525 -1434h-237l-414 1143h-8l-414 -1143h-235l-525 1434h221l418 -1151h8l416 1151h232l415 -1151h9l417 1151h222z" />
    <glyph glyph-name="wcircumflex" unicode="&#x175;" horiz-adv-x="1978" 
d="M682 1167l225 295h164l225 -295h-188l-115 154h-8l-115 -154h-188zM459 0l-375 1028h207l287 -790h8l278 790h248l281 -790h8l287 790h206l-374 -1028h-248l-279 791h-8l-280 -791h-246z" />
    <glyph glyph-name="Ycircumflex" unicode="&#x176;" horiz-adv-x="1523" 
d="M455 1573l225 295h164l225 -295h-188l-115 153h-8l-115 -153h-188zM655 0v598l-622 836h254l475 -637l475 637h254l-623 -836v-598h-213z" />
    <glyph glyph-name="ycircumflex" unicode="&#x177;" horiz-adv-x="1230" 
d="M319 1167l226 295h164l225 -295h-189l-114 154h-8l-115 -154h-189zM166 -410v183h160q59 0 93.5 26t61.5 88l51 123l-466 1018h215l346 -766h10l317 766h211l-503 -1208q-55 -130 -126 -180t-210 -50h-160z" />
    <glyph glyph-name="Ydieresis" unicode="&#x178;" horiz-adv-x="1523" 
d="M563 1620q-57 0 -93 33t-36 86q0 52 36 84t93 32q56 0 92.5 -32t36.5 -84t-36.5 -85.5t-92.5 -33.5zM961 1620q-56 0 -93 33.5t-37 85.5t37 84t93 32q57 0 93 -32t36 -84q0 -53 -36 -86t-93 -33zM655 0v598l-622 836h254l475 -637l475 637h254l-623 -836v-598h-213z" />
    <glyph glyph-name="Zacute" unicode="&#x179;" horiz-adv-x="1478" 
d="M625 1573l163 266h216l-164 -266h-215zM115 0v147l911 1086v8h-899v193h1225v-148l-912 -1085v-8h924v-193h-1249z" />
    <glyph glyph-name="zacute" unicode="&#x17a;" horiz-adv-x="1064" 
d="M420 1167l164 267h215l-164 -267h-215zM94 0v137l582 705v8h-574v178h861v-137l-582 -705v-8h590v-178h-877z" />
    <glyph glyph-name="Zdotaccent" unicode="&#x17b;" horiz-adv-x="1478" 
d="M737 1620q-57 0 -94 33.5t-37 85.5t36.5 84t94.5 32t94.5 -32t36.5 -84t-37 -85.5t-94 -33.5zM115 0v147l911 1086v8h-899v193h1225v-148l-912 -1085v-8h924v-193h-1249z" />
    <glyph glyph-name="zdotaccent" unicode="&#x17c;" horiz-adv-x="1064" 
d="M532 1214q-57 0 -94 33.5t-37 85.5t37 84.5t94 32.5q58 0 95 -32.5t37 -84.5t-37.5 -85.5t-94.5 -33.5zM94 0v137l582 705v8h-574v178h861v-137l-582 -705v-8h590v-178h-877z" />
    <glyph glyph-name="Zcaron" unicode="&#x17d;" horiz-adv-x="1478" 
d="M655 1573l-225 295h188l115 -154h8l115 154h188l-225 -295h-164zM115 0v147l911 1086v8h-899v193h1225v-148l-912 -1085v-8h924v-193h-1249z" />
    <glyph glyph-name="zcaron" unicode="&#x17e;" horiz-adv-x="1064" 
d="M451 1167l-226 295h189l114 -153h9l114 153h189l-226 -295h-163zM94 0v137l582 705v8h-574v178h861v-137l-582 -705v-8h590v-178h-877z" />
    <glyph glyph-name="longs" unicode="&#x17f;" horiz-adv-x="698" 
d="M647 1434h381v-181h-350q-82 0 -114 -31.5t-32 -113.5v-1108h-198v848h-256v180h256v92q0 163 75 238.5t238 75.5z" />
    <glyph glyph-name="florin" unicode="&#x192;" horiz-adv-x="1187" 
d="M98 848v180h256v92q0 163 75.5 238.5t238.5 75.5h422v-181h-392q-82 0 -113.5 -31.5t-31.5 -113.5v-80h537v-180h-537v-944q0 -163 -75 -238.5t-238 -75.5h-142v183h111q82 0 113.5 31.5t31.5 113.5v930h-256z" />
    <glyph glyph-name="uni01C4" unicode="&#x1c4;" horiz-adv-x="3098" 
d="M2277 1573l-225 295h189l114 -154h8l115 154h188l-225 -295h-164zM205 0v1434h561q207 0 371 -87.5t259 -251.5t95 -378t-95 -378t-259 -251.5t-371 -87.5h-561zM1735 0v147l911 1086v8h-899v193h1225v-148l-912 -1085v-8h924v-193h-1249zM416 193h350q224 0 368 142
t144 382t-144 382t-368 142h-350v-1048z" />
    <glyph glyph-name="uni01C5" unicode="&#x1c5;" horiz-adv-x="2684" 
d="M705 1573l-226 295h189l114 -154h9l114 154h189l-226 -295h-163zM205 0v1434h561q207 0 371 -87.5t259 -251.5t95 -378t-95 -378t-259 -251.5t-371 -87.5h-561zM416 193h350q224 0 368 142t144 382t-144 382t-368 142h-350v-1048zM1714 0v137l582 705v8h-574v178h861
v-137l-582 -705v-8h590v-178h-877z" />
    <glyph glyph-name="uni01C6" unicode="&#x1c6;" horiz-adv-x="2387" 
d="M1774 1167l-226 295h189l114 -153h9l114 153h189l-226 -295h-163zM586 -25q-219 0 -356.5 149t-137.5 390q0 239 138 389t356 150q228 0 364 -168h8v549h199v-1434h-199v143h-8q-134 -168 -364 -168zM1417 0v137l582 705v8h-574v178h861v-137l-582 -705v-8h590v-178h-877
zM625 154q147 0 243.5 100.5t96.5 259.5q0 158 -96 258t-244 100q-147 0 -240.5 -99.5t-93.5 -258.5t93.5 -259.5t240.5 -100.5z" />
    <glyph glyph-name="uni01C7" unicode="&#x1c7;" horiz-adv-x="2818" 
d="M205 0v1434h211v-1235h907v-199h-1118zM1511 0v199h758q85 0 116.5 31t31.5 116v1088h213v-1121q0 -164 -75 -238.5t-239 -74.5h-805z" />
    <glyph glyph-name="uni01C8" unicode="&#x1c8;" horiz-adv-x="1978" 
d="M1681 1214q-57 0 -94 33.5t-37 85.5t37 84.5t94 32.5t94 -32.5t37 -84.5t-37 -85.5t-94 -33.5zM205 0v1434h211v-1235h907v-199h-1118zM1350 -410v185h123q59 0 84.5 25.5t25.5 84.5v1143h199v-1159q0 -147 -66.5 -213t-214.5 -66h-151z" />
    <glyph glyph-name="uni01C9" unicode="&#x1c9;" horiz-adv-x="1200" 
d="M903 1214q-57 0 -94 33.5t-37 85.5t37 84.5t94 32.5t94 -32.5t37 -84.5t-37 -85.5t-94 -33.5zM434 0q-148 0 -214 65.5t-66 213.5v1155h198v-1139q0 -59 26 -85t85 -26h98v-184h-127zM571 -410v185h123q59 0 85 26t26 84v1143h199v-1159q0 -147 -66.5 -213t-214.5 -66
h-152z" />
    <glyph glyph-name="uni01CA" unicode="&#x1ca;" horiz-adv-x="3076" 
d="M1470 1434v-1434h-268l-778 1130h-8v-1130h-211v1434h266l778 -1131h8v1131h213zM1767 0v199h758q85 0 116.5 31t31.5 116v1088h213v-1121q0 -164 -75 -238.5t-239 -74.5h-805z" />
    <glyph glyph-name="uni01CB" unicode="&#x1cb;" horiz-adv-x="2234" 
d="M1937 1214q-57 0 -94 33.5t-37 85.5t37 84.5t94 32.5t94 -32.5t37 -84.5t-37 -85.5t-94 -33.5zM1470 1434v-1434h-268l-778 1130h-8v-1130h-211v1434h266l778 -1131h8v1131h213zM1606 -410v185h123q59 0 84.5 25.5t25.5 84.5v1143h199v-1159q0 -147 -66.5 -213
t-214.5 -66h-151z" />
    <glyph glyph-name="uni01CC" unicode="&#x1cc;" horiz-adv-x="1847" 
d="M1550 1214q-57 0 -94 33.5t-37 85.5t37 84.5t94 32.5t94 -32.5t37 -84.5t-37 -85.5t-94 -33.5zM166 0v1028h199v-143h8q131 168 348 168q176 0 292.5 -111.5t116.5 -316.5v-625h-196v602q0 71 -23.5 125t-62.5 84.5t-84 45.5t-94 15q-128 0 -216.5 -94t-88.5 -256v-522
h-199zM1219 -410v185h122q59 0 85 26t26 84v1143h199v-1159q0 -147 -66.5 -213t-214.5 -66h-151z" />
    <glyph glyph-name="uni01CD" unicode="&#x1cd;" horiz-adv-x="1533" 
d="M684 1573l-225 295h188l115 -154h8l115 154h188l-225 -295h-164zM1493 0h-221l-148 340h-714l-148 -340h-221l623 1434h206zM487 528h560l-277 631h-8z" />
    <glyph glyph-name="uni01CE" unicode="&#x1ce;" horiz-adv-x="1193" 
d="M502 1167l-226 295h189l115 -153h8l114 153h189l-225 -295h-164zM418 -25q-46 0 -87 6t-87.5 24t-80 47t-55.5 80.5t-22 119.5q0 62 19 111t47.5 81t74.5 57.5t87.5 40t99.5 29.5l397 105v24q0 41 -13.5 74t-35.5 53t-51.5 33.5t-59 19t-61.5 5.5q-99 0 -172 -47
t-86 -133h-205q18 168 144.5 258t318.5 90q58 0 110.5 -8.5t110 -33t98.5 -64t68 -107t27 -156.5v-440q0 -34 13.5 -48t47.5 -14h55v-182h-149q-117 0 -144 100l-12 43h-8q-139 -168 -389 -168zM455 139q94 0 172.5 33t131 106.5t52.5 176.5v53l-379 -98q-78 -21 -113.5 -53
t-35.5 -89q0 -129 172 -129z" />
    <glyph glyph-name="uni01CF" unicode="&#x1cf;" horiz-adv-x="620" 
d="M227 1573l-225 295h188l115 -154h8l115 154h188l-225 -295h-164zM205 0v1434h211v-1434h-211z" />
    <glyph glyph-name="uni01D0" unicode="&#x1d0;" horiz-adv-x="528" 
d="M182 1167l-225 295h188l115 -153h8l115 153h188l-225 -295h-164zM166 0v1028h199v-1028h-199z" />
    <glyph glyph-name="uni01D1" unicode="&#x1d1;" horiz-adv-x="1724" 
d="M780 1573l-225 295h188l115 -154h8l115 154h188l-225 -295h-164zM862 -25q-154 0 -289 55t-233 152t-154.5 235.5t-56.5 299.5q0 214 96.5 384t264 263.5t372.5 93.5t372.5 -93.5t264 -263.5t96.5 -384q0 -161 -56.5 -299.5t-154.5 -235.5t-233 -152t-289 -55zM862 168
q222 0 372 154.5t150 394.5t-150 394.5t-372 154.5t-371 -154.5t-149 -394.5t149 -394.5t371 -154.5z" />
    <glyph glyph-name="uni01D2" unicode="&#x1d2;" horiz-adv-x="1257" 
d="M547 1167l-225 295h188l115 -153h8l115 153h188l-225 -295h-164zM629 -25q-152 0 -274.5 67t-193.5 190.5t-71 281.5q0 156 71 280t194 191.5t274 67.5t273 -67.5t192.5 -191.5t70.5 -280q0 -238 -153 -388.5t-383 -150.5zM629 154q147 0 242.5 100t95.5 260t-95 259
t-243 99t-244 -99t-96 -259t96 -260t244 -100z" />
    <glyph glyph-name="uni01D3" unicode="&#x1d3;" horiz-adv-x="1585" 
d="M711 1573l-226 295h189l114 -154h9l114 154h189l-226 -295h-163zM793 -25q-181 0 -321 73.5t-222 222.5t-82 356v807h211v-807q0 -113 32 -201.5t88.5 -144t131 -84.5t162.5 -29q183 0 298 118t115 341v807h213v-807q0 -207 -82 -356t-222 -222.5t-322 -73.5z" />
    <glyph glyph-name="uni01D4" unicode="&#x1d4;" horiz-adv-x="1286" 
d="M551 1167l-225 295h188l115 -153h8l115 153h188l-225 -295h-164zM1120 1028v-1028h-198v143h-9q-131 -168 -348 -168q-176 0 -292.5 111.5t-116.5 316.5v625h196v-602q0 -71 23.5 -125t62.5 -84.5t84 -45.5t94 -15q128 0 217 94t89 256v522h198z" />
    <glyph glyph-name="uni01E2" unicode="&#x1e2;" horiz-adv-x="2361" 
d="M930 1630v152h696v-152h-696zM33 0l1036 1434h1141v-193h-828v-401h729v-191h-729v-456h828v-193h-1041v340h-653l-246 -340h-237zM651 528h518v709h-8z" />
    <glyph glyph-name="uni01E3" unicode="&#x1e3;" horiz-adv-x="1945" 
d="M623 1225v151h696v-151h-696zM444 -25q-358 0 -358 277q0 62 19 111t47.5 81t74.5 57.5t87.5 40t99.5 29.5l397 105v24q0 51 -19.5 88.5t-53 58t-70.5 29.5t-78 9q-99 0 -172 -47t-86 -133h-205q18 168 144.5 258t318.5 90q253 0 354 -181h8q138 181 387 181
q224 0 370 -146.5t146 -382.5l-4 -82h-841q19 -135 109 -217t220 -82q93 0 168 43t115 117h209q-56 -149 -188 -238.5t-304 -89.5q-135 0 -247.5 56.5t-190.5 158.5h-8q-24 -35 -49.5 -63t-65.5 -57.5t-85.5 -49.5t-109.5 -32.5t-139 -12.5zM1012 606h641
q-24 127 -106.5 203t-207.5 76q-126 0 -214 -75.5t-113 -203.5zM455 139q94 0 172.5 33t131 106.5t52.5 176.5v53l-379 -98q-78 -21 -113.5 -53t-35.5 -89q0 -129 172 -129z" />
    <glyph glyph-name="Gcaron" unicode="&#x1e6;" horiz-adv-x="1708" 
d="M764 1573l-225 295h188l115 -154h8l115 154h188l-225 -295h-164zM850 -25q-206 0 -370.5 94t-257.5 263.5t-93 384.5q0 161 54.5 299.5t150 235t230 151.5t290.5 55q251 0 430 -134.5t252 -365.5h-227q-61 146 -177.5 227t-277.5 81q-225 0 -368.5 -153.5t-143.5 -395.5
q0 -243 145 -396t377 -153q197 0 331.5 112.5t160.5 297.5h-531v186h723v-764h-184v225h-8q-76 -124 -208 -187t-298 -63z" />
    <glyph glyph-name="gcaron" unicode="&#x1e7;" horiz-adv-x="1323" 
d="M549 1167l-225 295h188l115 -153h8l115 153h188l-225 -295h-164zM586 1053q228 0 364 -168h8v143h199v-960q0 -242 -138 -372t-382 -130q-203 0 -329 86.5t-171 234.5h209q39 -68 113.5 -108.5t177.5 -40.5q146 0 233.5 85t87.5 245v84h-8q-134 -168 -364 -168
q-219 0 -357.5 149t-138.5 385t139 385.5t357 149.5zM625 872q-147 0 -241.5 -99t-94.5 -255q0 -157 94.5 -256.5t241.5 -99.5t242.5 99.5t95.5 256.5q0 156 -95.5 255t-242.5 99z" />
    <glyph glyph-name="uni01E8" unicode="&#x1e8;" horiz-adv-x="1523" 
d="M676 1573l-225 295h188l115 -154h8l115 154h188l-225 -295h-164zM205 0v1434h211v-592h205l548 592h269l-643 -695l655 -739h-276l-572 647h-186v-647h-211z" />
    <glyph glyph-name="uni01E9" unicode="&#x1e9;" horiz-adv-x="1179" 
d="M182 1573l-225 295h188l115 -154h8l115 154h188l-225 -295h-164zM166 0v1434h199v-813h149l379 407h246l-457 -493l465 -535h-248l-383 442h-151v-442h-199z" />
    <glyph glyph-name="uni01EA" unicode="&#x1ea;" horiz-adv-x="1724" 
d="M983 -410q-121 0 -191.5 50.5t-70.5 148.5q0 116 100 186q-195 9 -352.5 105.5t-248.5 263.5t-91 373q0 214 96.5 384t264 263.5t372.5 93.5t372.5 -93.5t264 -263.5t96.5 -384q0 -268 -149 -463t-387 -256q-69 -23 -112.5 -60.5t-43.5 -89.5q0 -43 34.5 -68.5
t102.5 -25.5h21v-164h-78zM862 168q222 0 372 154.5t150 394.5t-150 394.5t-372 154.5t-371 -154.5t-149 -394.5t149 -394.5t371 -154.5z" />
    <glyph glyph-name="uni01EB" unicode="&#x1eb;" horiz-adv-x="1257" 
d="M721 -410q-122 0 -193 50.5t-71 148.5q0 115 104 188q-206 24 -338.5 171t-132.5 366q0 156 71 280t194 191.5t274 67.5t273 -67.5t192.5 -191.5t70.5 -280q0 -195 -105.5 -334t-277.5 -186q-63 -22 -103 -59.5t-40 -86.5q0 -43 34.5 -68.5t102.5 -25.5h23v-164h-78z
M629 154q147 0 242.5 100t95.5 260t-95 259t-243 99t-244 -99t-96 -259t96 -260t244 -100z" />
    <glyph glyph-name="uni01EC" unicode="&#x1ec;" horiz-adv-x="1724" 
d="M514 1630v152h696v-152h-696zM983 -410q-121 0 -191.5 50.5t-70.5 148.5q0 116 100 186q-195 9 -352.5 105.5t-248.5 263.5t-91 373q0 214 96.5 384t264 263.5t372.5 93.5t372.5 -93.5t264 -263.5t96.5 -384q0 -268 -149 -463t-387 -256q-69 -23 -112.5 -60.5
t-43.5 -89.5q0 -43 34.5 -68.5t102.5 -25.5h21v-164h-78zM862 168q222 0 372 154.5t150 394.5t-150 394.5t-372 154.5t-371 -154.5t-149 -394.5t149 -394.5t371 -154.5z" />
    <glyph glyph-name="uni01ED" unicode="&#x1ed;" horiz-adv-x="1257" 
d="M281 1225v151h696v-151h-696zM721 -410q-122 0 -193 50.5t-71 148.5q0 115 104 188q-206 24 -338.5 171t-132.5 366q0 156 71 280t194 191.5t274 67.5t273 -67.5t192.5 -191.5t70.5 -280q0 -195 -105.5 -334t-277.5 -186q-63 -22 -103 -59.5t-40 -86.5q0 -43 34.5 -68.5
t102.5 -25.5h23v-164h-78zM629 154q147 0 242.5 100t95.5 260t-95 259t-243 99t-244 -99t-96 -259t96 -260t244 -100z" />
    <glyph glyph-name="uni01F0" unicode="&#x1f0;" horiz-adv-x="528" 
d="M182 1167l-225 295h188l115 -153h8l115 153h188l-225 -295h-164zM-68 -410v185h123q59 0 85 26t26 84v1143h199v-1159q0 -147 -66.5 -213t-214.5 -66h-152z" />
    <glyph glyph-name="uni01F1" unicode="&#x1f1;" horiz-adv-x="3098" 
d="M205 0v1434h561q207 0 371 -87.5t259 -251.5t95 -378t-95 -378t-259 -251.5t-371 -87.5h-561zM1735 0v147l911 1086v8h-899v193h1225v-148l-912 -1085v-8h924v-193h-1249zM416 193h350q224 0 368 142t144 382t-144 382t-368 142h-350v-1048z" />
    <glyph glyph-name="uni01F2" unicode="&#x1f2;" horiz-adv-x="2684" 
d="M205 0v1434h561q207 0 371 -87.5t259 -251.5t95 -378t-95 -378t-259 -251.5t-371 -87.5h-561zM416 193h350q224 0 368 142t144 382t-144 382t-368 142h-350v-1048zM1714 0v137l582 705v8h-574v178h861v-137l-582 -705v-8h590v-178h-877z" />
    <glyph glyph-name="uni01F3" unicode="&#x1f3;" horiz-adv-x="2387" 
d="M586 -25q-219 0 -356.5 149t-137.5 390q0 239 138 389t356 150q228 0 364 -168h8v549h199v-1434h-199v143h-8q-134 -168 -364 -168zM1417 0v137l582 705v8h-574v178h861v-137l-582 -705v-8h590v-178h-877zM625 154q147 0 243.5 100.5t96.5 259.5q0 158 -96 258t-244 100
q-147 0 -240.5 -99.5t-93.5 -258.5t93.5 -259.5t240.5 -100.5z" />
    <glyph glyph-name="uni01F4" unicode="&#x1f4;" horiz-adv-x="1708" 
d="M733 1573l164 266h215l-164 -266h-215zM850 -25q-206 0 -370.5 94t-257.5 263.5t-93 384.5q0 161 54.5 299.5t150 235t230 151.5t290.5 55q251 0 430 -134.5t252 -365.5h-227q-61 146 -177.5 227t-277.5 81q-225 0 -368.5 -153.5t-143.5 -395.5q0 -243 145 -396t377 -153
q197 0 331.5 112.5t160.5 297.5h-531v186h723v-764h-184v225h-8q-76 -124 -208 -187t-298 -63z" />
    <glyph glyph-name="uni01F5" unicode="&#x1f5;" horiz-adv-x="1323" 
d="M518 1167l164 267h215l-164 -267h-215zM586 1053q228 0 364 -168h8v143h199v-960q0 -242 -138 -372t-382 -130q-203 0 -329 86.5t-171 234.5h209q39 -68 113.5 -108.5t177.5 -40.5q146 0 233.5 85t87.5 245v84h-8q-134 -168 -364 -168q-219 0 -357.5 149t-138.5 385
t139 385.5t357 149.5zM625 872q-147 0 -241.5 -99t-94.5 -255q0 -157 94.5 -256.5t241.5 -99.5t242.5 99.5t95.5 256.5q0 156 -95.5 255t-242.5 99z" />
    <glyph glyph-name="uni01F8" unicode="&#x1f8;" horiz-adv-x="1673" 
d="M788 1839l164 -266h-215l-164 266h215zM1470 1434v-1434h-268l-778 1130h-8v-1130h-211v1434h266l778 -1131h8v1131h213z" />
    <glyph glyph-name="uni01F9" unicode="&#x1f9;" horiz-adv-x="1286" 
d="M602 1434l164 -267h-215l-164 267h215zM166 0v1028h199v-143h8q131 168 348 168q176 0 292.5 -111.5t116.5 -316.5v-625h-196v602q0 71 -23.5 125t-62.5 84.5t-84 45.5t-94 15q-128 0 -216.5 -94t-88.5 -256v-522h-199z" />
    <glyph glyph-name="Oslashacute" unicode="&#x1fe;" horiz-adv-x="1724" 
d="M750 1573l163 266h215l-163 -266h-215zM862 -25q-157 0 -287 56l-92 -158h-221l146 250q-131 100 -205 254t-74 340q0 214 96.5 384t264 263.5t372.5 93.5q158 0 289 -55l92 158h219l-145 -250q131 -100 204.5 -254t73.5 -340q0 -161 -56.5 -299.5t-154.5 -235.5
t-233 -152t-289 -55zM512 305l539 924q-84 37 -189 37q-222 0 -371 -154.5t-149 -394.5q0 -126 45 -232t125 -180zM862 168q222 0 372 154.5t150 394.5q0 126 -45.5 231.5t-126.5 179.5l-536 -923q84 -37 186 -37z" />
    <glyph glyph-name="oslashacute" unicode="&#x1ff;" horiz-adv-x="1257" 
d="M516 1167l164 267h215l-164 -267h-215zM629 -25q-118 0 -201 35l-68 -116h-180l109 192q-94 72 -146.5 183t-52.5 245q0 156 71 280t194 191.5t274 67.5q109 0 194 -33l72 127h182l-114 -203q96 -71 149 -182t53 -248q0 -238 -153 -388.5t-383 -150.5zM387 256l344 600
q-41 16 -102 16q-149 0 -244.5 -100t-95.5 -258q0 -157 98 -258zM627 154q150 0 245 100.5t95 259.5q0 161 -101 262l-346 -604q50 -18 107 -18z" />
    <glyph glyph-name="uni0218" unicode="&#x218;" horiz-adv-x="1490" 
d="M786 -25q-652 0 -696 482h219q43 -297 477 -297q381 0 381 227q0 67 -35 112.5t-94 69t-135.5 38.5t-161 26t-169 24t-161 40t-135.5 68.5t-94 114t-35 171.5q0 73 20.5 133t54.5 101t82.5 73t99 50.5t109.5 30t109 15.5t103 4q263 0 427 -107t191 -327h-219
q-21 119 -122 184.5t-277 65.5q-72 0 -134.5 -11.5t-116 -36t-84 -69.5t-30.5 -106q0 -62 35 -104.5t94 -64.5t135.5 -36t161 -25t169 -25t161 -42.5t135.5 -72t94 -118.5t35 -176q0 -412 -594 -412zM614 -610l76 211q-52 6 -83.5 39.5t-31.5 85.5q0 59 37 93t101 34
t100.5 -36.5t36.5 -101.5q0 -60 -23 -123l-73 -202h-140z" />
    <glyph glyph-name="uni0219" unicode="&#x219;" horiz-adv-x="1107" 
d="M575 -25q-77 0 -144 10t-131.5 35t-112 64t-79 100.5t-38.5 141.5h204q8 -50 38 -87.5t74 -57.5t91 -29t98 -9q42 -1 82 5.5t78.5 22t62 46.5t23.5 74q0 47 -31 77.5t-81.5 43.5t-115 24t-132 18.5t-132 27.5t-115 49t-81.5 85.5t-31 135.5q0 69 27.5 123t70.5 87
t102.5 54t117.5 29t121 8q65 0 124 -8.5t119 -31.5t104 -58t74.5 -92.5t36.5 -131.5h-204q-7 44 -33.5 76t-65 48t-77 23t-80.5 7q-37 0 -73.5 -5.5t-77 -18.5t-65 -41t-24.5 -68q0 -38 24.5 -63.5t66.5 -38.5t96 -22t114 -17t119.5 -19t113.5 -32.5t96 -54t66.5 -87
t24.5 -127.5q0 -75 -27 -132.5t-69.5 -91.5t-103 -55.5t-119 -29t-126.5 -7.5zM455 -610l75 211q-52 6 -83 39.5t-31 85.5q0 59 36.5 93t100.5 34t100.5 -36.5t36.5 -101.5q0 -63 -22 -123l-74 -202h-139z" />
    <glyph glyph-name="uni021A" unicode="&#x21a;" horiz-adv-x="1548" 
d="M668 0v1241h-574v193h1360v-193h-573v-1241h-213zM676 -610l76 211q-52 6 -83.5 39.5t-31.5 85.5q0 59 36.5 93t100.5 34t100.5 -36.5t36.5 -101.5q0 -63 -22 -123l-74 -202h-139z" />
    <glyph glyph-name="uni021B" unicode="&#x21b;" horiz-adv-x="1173" 
d="M647 0q-163 0 -238 75t-75 238v535h-256v180h256v340h198v-340h537v-180h-537v-520q0 -82 32 -114t114 -32h391v-182h-422zM516 -610l76 211q-52 6 -83.5 39.5t-31.5 85.5q0 59 36.5 93t100.5 34t101 -36.5t37 -101.5q0 -60 -23 -123l-74 -202h-139z" />
    <glyph glyph-name="uni021E" unicode="&#x21e;" horiz-adv-x="1628" 
d="M731 1573l-225 295h188l115 -154h8l115 154h188l-225 -295h-164zM205 0v1434h211v-592h796v592h211v-1434h-211v647h-796v-647h-211z" />
    <glyph glyph-name="uni021F" unicode="&#x21f;" horiz-adv-x="1286" 
d="M182 1573l-225 295h188l115 -154h8l115 154h188l-225 -295h-164zM166 0v1434h199v-549h8q131 168 348 168q176 0 292.5 -111.5t116.5 -316.5v-625h-196v602q0 71 -23.5 125t-62.5 84.5t-84 45.5t-94 15q-128 0 -216.5 -94t-88.5 -256v-522h-199z" />
    <glyph glyph-name="uni0226" unicode="&#x226;" horiz-adv-x="1533" 
d="M766 1620q-57 0 -94 33.5t-37 85.5t36.5 84t94.5 32t94.5 -32t36.5 -84t-37 -85.5t-94 -33.5zM1493 0h-221l-148 340h-714l-148 -340h-221l623 1434h206zM487 528h560l-277 631h-8z" />
    <glyph glyph-name="uni0227" unicode="&#x227;" horiz-adv-x="1193" 
d="M584 1214q-57 0 -94 33.5t-37 85.5t37 84.5t94 32.5t94 -32.5t37 -84.5t-37 -85.5t-94 -33.5zM418 -25q-46 0 -87 6t-87.5 24t-80 47t-55.5 80.5t-22 119.5q0 62 19 111t47.5 81t74.5 57.5t87.5 40t99.5 29.5l397 105v24q0 41 -13.5 74t-35.5 53t-51.5 33.5t-59 19
t-61.5 5.5q-99 0 -172 -47t-86 -133h-205q18 168 144.5 258t318.5 90q58 0 110.5 -8.5t110 -33t98.5 -64t68 -107t27 -156.5v-440q0 -34 13.5 -48t47.5 -14h55v-182h-149q-117 0 -144 100l-12 43h-8q-139 -168 -389 -168zM455 139q94 0 172.5 33t131 106.5t52.5 176.5v53
l-379 -98q-78 -21 -113.5 -53t-35.5 -89q0 -129 172 -129z" />
    <glyph glyph-name="uni0228" unicode="&#x228;" horiz-adv-x="1478" 
d="M416 649v-456h911v-193h-481l-31 -61q74 -15 116 -58.5t42 -107.5q0 -90 -77.5 -136.5t-195.5 -46.5h-75v152h71q97 0 97 65q0 64 -97 64h-41l58 129h-508v1434h1122v-193h-911v-401h813v-191h-813z" />
    <glyph glyph-name="uni0229" unicode="&#x229;" horiz-adv-x="1230" 
d="M463 -410v152h72q96 0 96 65q0 64 -96 64h-41l49 109q-198 27 -325.5 173t-127.5 361q0 156 71 280t192.5 191.5t269.5 67.5q225 0 370.5 -146t145.5 -383l-4 -82h-842q19 -135 109.5 -217t220.5 -82q93 0 167.5 43t114.5 117h211q-53 -138 -171 -225.5t-273 -100.5
l-19 -38q74 -15 116 -58.5t42 -107.5q0 -90 -77 -136.5t-195 -46.5h-76zM297 606h639q-22 127 -105 203t-208 76t-214 -76t-112 -203z" />
    <glyph glyph-name="uni0232" unicode="&#x232;" horiz-adv-x="1523" 
d="M414 1630v152h696v-152h-696zM655 0v598l-622 836h254l475 -637l475 637h254l-623 -836v-598h-213z" />
    <glyph glyph-name="uni0233" unicode="&#x233;" horiz-adv-x="1230" 
d="M279 1225v151h696v-151h-696zM166 -410v183h160q59 0 93.5 26t61.5 88l51 123l-466 1018h215l346 -766h10l317 766h211l-503 -1208q-55 -130 -126 -180t-210 -50h-160z" />
    <glyph glyph-name="uni0237" unicode="&#x237;" horiz-adv-x="528" 
d="M-68 -410v185h123q59 0 85 26t26 84v1143h199v-1159q0 -147 -66.5 -213t-214.5 -66h-152z" />
    <glyph glyph-name="circumflex" unicode="&#x2c6;" horiz-adv-x="1024" 
d="M205 1167l225 295h164l225 -295h-188l-115 154h-8l-115 -154h-188z" />
    <glyph glyph-name="caron" unicode="&#x2c7;" horiz-adv-x="1024" 
d="M430 1167l-225 295h188l115 -153h8l115 153h188l-225 -295h-164z" />
    <glyph glyph-name="breve" unicode="&#x2d8;" horiz-adv-x="1024" 
d="M512 1167q-133 0 -220.5 73.5t-94.5 221.5h155q7 -80 53 -114.5t107 -34.5t107 34.5t53 114.5h155q-7 -148 -94.5 -221.5t-220.5 -73.5z" />
    <glyph glyph-name="dotaccent" unicode="&#x2d9;" horiz-adv-x="1024" 
d="M512 1214q-57 0 -94 33.5t-37 85.5t37 84.5t94 32.5t94 -32.5t37 -84.5t-37 -85.5t-94 -33.5z" />
    <glyph glyph-name="ring" unicode="&#x2da;" horiz-adv-x="1024" 
d="M512 1143q-96 0 -157.5 55.5t-61.5 149.5q0 95 61.5 150.5t157.5 55.5t157.5 -55.5t61.5 -150.5q0 -94 -61.5 -149.5t-157.5 -55.5zM496 1276q35 -7 58.5 8.5t29.5 48.5q8 33 -7.5 57t-48.5 31q-35 6 -58.5 -10t-29.5 -47q-8 -33 7.5 -57t48.5 -31z" />
    <glyph glyph-name="ogonek" unicode="&#x2db;" horiz-adv-x="1024" 
d="M434 -410q-122 0 -192 50t-70 149q0 152 166 223l174 -12q-158 -56 -158 -152q0 -43 34 -68.5t101 -25.5h23v-164h-78z" />
    <glyph glyph-name="tilde" unicode="&#x2dc;" horiz-adv-x="1024" 
d="M371 1438q49 0 91 -18t66 -39.5t55 -39.5t60 -18q34 0 54 21t24 73h151q-9 -129 -66.5 -191.5t-152.5 -62.5q-49 0 -91 18t-66 39.5t-55 39.5t-60 18q-34 0 -54 -21t-24 -73h-151q9 129 66.5 191.5t152.5 62.5z" />
    <glyph glyph-name="hungarumlaut" unicode="&#x2dd;" horiz-adv-x="1024" 
d="M569 1167l164 267h207l-164 -267h-207zM225 1167l164 267h205l-164 -267h-205z" />
    <glyph glyph-name="uni0312" unicode="&#x312;" horiz-adv-x="0" 
d="M98 1606l-75 -211q52 -6 83 -39.5t31 -85.5q0 -59 -36.5 -93t-100.5 -34t-100.5 36.5t-36.5 100.5q0 62 22 123l74 203h139z" />
    <glyph glyph-name="uni0326" unicode="&#x326;" horiz-adv-x="0" 
d="M-98 -610l75 211q-52 6 -83 39.5t-31 85.5q0 59 36.5 93t100.5 34t100.5 -36.5t36.5 -101.5q0 -63 -22 -123l-74 -202h-139z" />
    <glyph glyph-name="uni0400" unicode="&#x400;" horiz-adv-x="1478" 
d="M725 1839l164 -266h-215l-164 266h215zM416 649v-456h911v-193h-1122v1434h1122v-193h-911v-401h813v-191h-813z" />
    <glyph glyph-name="uni0401" unicode="&#x401;" horiz-adv-x="1478" 
d="M578 1620q-57 0 -93 33t-36 86q0 52 36 84t93 32q56 0 92.5 -32t36.5 -84t-36.5 -85.5t-92.5 -33.5zM975 1620q-56 0 -92.5 33.5t-36.5 85.5t36.5 84t92.5 32q57 0 93 -32t36 -84q0 -53 -36 -86t-93 -33zM416 649v-456h911v-193h-1122v1434h1122v-193h-911v-401h813v-191
h-813z" />
    <glyph glyph-name="uni0402" unicode="&#x402;" horiz-adv-x="1822" 
d="M1065 -4v192h131q307 0 307 291q0 295 -307 295q-176 0 -274.5 -91t-98.5 -259v-424h-211v1241h-518v193h1247v-193h-518v-442h8q71 78 163.5 123t232.5 45q230 0 359.5 -128t129.5 -360q0 -230 -129.5 -356.5t-359.5 -126.5h-162z" />
    <glyph glyph-name="uni0403" unicode="&#x403;" horiz-adv-x="1394" 
d="M641 1573l164 266h215l-164 -266h-215zM205 0v1434h1095v-195h-884v-1239h-211z" />
    <glyph glyph-name="uni0404" unicode="&#x404;" horiz-adv-x="1646" 
d="M862 -25q-154 0 -289 55t-233 152t-154.5 235.5t-56.5 299.5q0 214 96.5 384t264 263.5t372.5 93.5q243 0 418 -131t252 -356h-223q-66 138 -184.5 216.5t-272.5 78.5q-193 0 -331 -121t-169 -318h697v-192h-703q25 -209 165.5 -338t340.5 -129q154 0 272.5 78.5
t184.5 216.5h223q-77 -225 -252 -356.5t-418 -131.5z" />
    <glyph glyph-name="uni0405" unicode="&#x405;" horiz-adv-x="1490" 
d="M786 -25q-652 0 -696 482h219q43 -297 477 -297q381 0 381 227q0 67 -35 112.5t-94 69t-135.5 38.5t-161 26t-169 24t-161 40t-135.5 68.5t-94 114t-35 171.5q0 73 20.5 133t54.5 101t82.5 73t99 50.5t109.5 30t109 15.5t103 4q263 0 427 -107t191 -327h-219
q-21 119 -122 184.5t-277 65.5q-72 0 -134.5 -11.5t-116 -36t-84 -69.5t-30.5 -106q0 -62 35 -104.5t94 -64.5t135.5 -36t161 -25t169 -25t161 -42.5t135.5 -72t94 -118.5t35 -176q0 -412 -594 -412z" />
    <glyph glyph-name="uni0406" unicode="&#x406;" horiz-adv-x="620" 
d="M205 0v1434h211v-1434h-211z" />
    <glyph glyph-name="uni0407" unicode="&#x407;" horiz-adv-x="620" 
d="M111 1620q-57 0 -93 33t-36 86q0 52 36 84t93 32q56 0 92.5 -32t36.5 -84t-36.5 -85.5t-92.5 -33.5zM508 1620q-56 0 -92.5 33.5t-36.5 85.5t36.5 84t92.5 32q57 0 93 -32t36 -84q0 -53 -36 -86t-93 -33zM205 0v1434h211v-1434h-211z" />
    <glyph glyph-name="uni0408" unicode="&#x408;" horiz-adv-x="1400" 
d="M94 0v199h758q85 0 116 31t31 116v1088h213v-1121q0 -164 -74.5 -238.5t-238.5 -74.5h-805z" />
    <glyph glyph-name="uni0409" unicode="&#x409;" horiz-adv-x="2449" 
d="M221 -4h-164v213h144q82 0 88 84l92 1141h981v-480h461q157 0 278.5 -62.5t187.5 -171t66 -243.5q0 -208 -147.5 -342.5t-384.5 -134.5h-672v1241h-578l-77 -1001q-9 -127 -76.5 -185.5t-198.5 -58.5zM1362 188h461q139 0 230 80.5t91 208.5t-91 207.5t-230 79.5h-461
v-576z" />
    <glyph glyph-name="uni040A" unicode="&#x40a;" horiz-adv-x="2469" 
d="M205 0v1434h211v-480h755v480h211v-480h461q237 0 385 -135.5t148 -341.5q0 -208 -148 -342.5t-385 -134.5h-672v760h-755v-760h-211zM1382 188h461q139 0 230.5 80.5t91.5 208.5t-91 207.5t-231 79.5h-461v-576z" />
    <glyph glyph-name="uni040B" unicode="&#x40b;" horiz-adv-x="1802" 
d="M1446 0v500q0 72 -25 126.5t-67 85.5t-91 46.5t-104 15.5q-142 0 -239 -92.5t-97 -253.5v-428h-211v1241h-518v193h1247v-193h-518v-442h8q153 168 383 168q93 0 173 -27.5t141 -80.5t96 -137.5t35 -191.5v-530h-213z" />
    <glyph glyph-name="uni040C" unicode="&#x40c;" horiz-adv-x="1523" 
d="M645 1573l164 266h215l-164 -266h-215zM205 0v1434h211v-592h205l548 592h269l-643 -695l655 -739h-276l-572 647h-186v-647h-211z" />
    <glyph glyph-name="uni040D" unicode="&#x40d;" horiz-adv-x="1673" 
d="M780 1839l164 -266h-215l-164 266h215zM1470 1434v-1434h-213v1165l-796 -1165h-256v1434h211v-1166l796 1166h258z" />
    <glyph glyph-name="uni040E" unicode="&#x40e;" horiz-adv-x="1449" 
d="M743 1573q-133 0 -220.5 73.5t-94.5 221.5h156q7 -80 53 -115t106 -35q61 0 107 35t53 115h156q-7 -148 -95 -221.5t-221 -73.5zM330 0v199h200q41 0 65 17t40 54l27 60l-607 1104h238l469 -865h10l393 865h230l-574 -1239q-50 -109 -107 -152t-173 -43h-211z" />
    <glyph glyph-name="uni040F" unicode="&#x40f;" horiz-adv-x="1628" 
d="M707 -369v369h-502v1434h211v-1241h796v1241h211v-1434h-501v-369h-215z" />
    <glyph glyph-name="uni0410" unicode="&#x410;" horiz-adv-x="1533" 
d="M1493 0h-221l-148 340h-714l-148 -340h-221l623 1434h206zM487 528h560l-277 631h-8z" />
    <glyph glyph-name="uni0411" unicode="&#x411;" horiz-adv-x="1554" 
d="M416 1243v-358h547q232 0 359.5 -123t127.5 -320q0 -198 -127 -320t-360 -122h-758v1434h1151v-191h-940zM416 190h547q134 0 205 68t71 184t-70.5 183t-205.5 67h-547v-502z" />
    <glyph glyph-name="uni0412" unicode="&#x412;" horiz-adv-x="1554" 
d="M205 0v1434h749q204 0 329.5 -100.5t125.5 -266.5q0 -200 -192 -313v-9q105 -43 169 -141.5t64 -218.5q0 -167 -121.5 -276t-327.5 -109h-796zM416 825h520q122 0 191 55.5t69 153.5t-69.5 154.5t-190.5 56.5h-520v-420zM416 188h553q130 0 200 62.5t70 161.5
q0 101 -72.5 162t-205.5 61h-545v-447z" />
    <glyph glyph-name="uni0413" unicode="&#x413;" horiz-adv-x="1394" 
d="M205 0v1434h1095v-195h-884v-1239h-211z" />
    <glyph glyph-name="uni0414" unicode="&#x414;" horiz-adv-x="1595" 
d="M1522 -307h-209v307h-1053v-307h-209v500h99q82 0 88 86l108 1155h1006v-1241h170v-500zM430 193h711v1048h-602l-93 -950q-4 -31 -8 -55.5t-6 -33.5z" />
    <glyph glyph-name="uni0415" unicode="&#x415;" horiz-adv-x="1478" 
d="M416 649v-456h911v-193h-1122v1434h1122v-193h-911v-401h813v-191h-813z" />
    <glyph glyph-name="uni0416" unicode="&#x416;" horiz-adv-x="2347" 
d="M1067 0v647h-147l-572 -647h-274l655 739l-643 695h266l549 -592h166v592h213v-592h166l549 592h266l-643 -695l655 -739h-274l-572 647h-147v-647h-213z" />
    <glyph glyph-name="uni0417" unicode="&#x417;" horiz-adv-x="1523" 
d="M786 -25q-317 0 -479.5 121.5t-191.5 337.5h223q29 -130 135 -199t313 -69q193 0 307.5 64t114.5 182q0 102 -85.5 166.5t-241.5 64.5h-295v188h282q137 0 217 53.5t80 155.5q0 116 -105 172t-290 56q-389 0 -432 -269h-223q14 211 188.5 335t466.5 124q175 0 311 -44.5
t216.5 -136t80.5 -218.5q0 -100 -48.5 -168.5t-145.5 -130.5v-8q108 -44 172.5 -135t64.5 -216q0 -198 -163.5 -312t-471.5 -114z" />
    <glyph glyph-name="uni0418" unicode="&#x418;" horiz-adv-x="1673" 
d="M1470 1434v-1434h-213v1165l-796 -1165h-256v1434h211v-1166l796 1166h258z" />
    <glyph glyph-name="uni0419" unicode="&#x419;" horiz-adv-x="1673" 
d="M834 1573q-133 0 -221 73.5t-95 221.5h156q7 -80 53 -115t107 -35q60 0 106 35t53 115h156q-7 -148 -94.5 -221.5t-220.5 -73.5zM1470 1434v-1434h-213v1165l-796 -1165h-256v1434h211v-1166l796 1166h258z" />
    <glyph glyph-name="uni041A" unicode="&#x41a;" horiz-adv-x="1523" 
d="M205 0v1434h211v-592h205l548 592h269l-643 -695l655 -739h-276l-572 647h-186v-647h-211z" />
    <glyph glyph-name="uni041B" unicode="&#x41b;" horiz-adv-x="1607" 
d="M1403 1434v-1434h-211v1241h-619l-77 -1001q-9 -127 -76.5 -185.5t-198.5 -58.5h-164v213h144q82 0 88 84l92 1141h1022z" />
    <glyph glyph-name="uni041C" unicode="&#x41c;" horiz-adv-x="2084" 
d="M1880 1434v-1434h-213v1137h-8l-529 -1137h-176l-530 1137h-8v-1137h-211v1434h307l526 -1125h9l524 1125h309z" />
    <glyph glyph-name="uni041D" unicode="&#x41d;" horiz-adv-x="1628" 
d="M205 0v1434h211v-592h796v592h211v-1434h-211v647h-796v-647h-211z" />
    <glyph glyph-name="uni041E" unicode="&#x41e;" horiz-adv-x="1724" 
d="M862 -25q-154 0 -289 55t-233 152t-154.5 235.5t-56.5 299.5q0 214 96.5 384t264 263.5t372.5 93.5t372.5 -93.5t264 -263.5t96.5 -384q0 -161 -56.5 -299.5t-154.5 -235.5t-233 -152t-289 -55zM862 168q222 0 372 154.5t150 394.5t-150 394.5t-372 154.5t-371 -154.5
t-149 -394.5t149 -394.5t371 -154.5z" />
    <glyph glyph-name="uni041F" unicode="&#x41f;" horiz-adv-x="1628" 
d="M205 0v1434h1218v-1434h-211v1241h-796v-1241h-211z" />
    <glyph glyph-name="uni0420" unicode="&#x420;" horiz-adv-x="1568" 
d="M995 520h-579v-520h-211v1434h790q138 0 246 -53.5t171 -158.5t63 -245q0 -212 -134.5 -334.5t-345.5 -122.5zM416 711h579q128 0 198.5 73.5t70.5 192.5q0 118 -70.5 191t-198.5 73h-579v-530z" />
    <glyph glyph-name="uni0421" unicode="&#x421;" horiz-adv-x="1660" 
d="M852 -25q-156 0 -290 55t-229.5 152t-149.5 235.5t-54 299.5t54 299.5t149.5 235t229.5 151.5t290 55q262 0 446 -144.5t246 -389.5h-221q-57 160 -178.5 251t-292.5 91q-225 0 -367.5 -153t-142.5 -396t142.5 -396t367.5 -153q171 0 292.5 91t178.5 251h221
q-62 -245 -246 -390t-446 -145z" />
    <glyph glyph-name="uni0422" unicode="&#x422;" horiz-adv-x="1548" 
d="M668 0v1241h-574v193h1360v-193h-573v-1241h-213z" />
    <glyph glyph-name="uni0423" unicode="&#x423;" horiz-adv-x="1449" 
d="M330 0v199h200q41 0 65 17t40 54l27 60l-607 1104h238l469 -865h10l393 865h230l-574 -1239q-50 -109 -107 -152t-173 -43h-211z" />
    <glyph glyph-name="uni0424" unicode="&#x424;" horiz-adv-x="2004" 
d="M897 -25v183h-162q-150 0 -273 45t-202.5 122t-122.5 177.5t-43 214.5t43 214.5t122.5 177.5t202.5 122t273 45h162v182h211v-182h162q150 0 273 -45t202.5 -122t122.5 -177.5t43 -214.5t-43 -214.5t-122.5 -177.5t-202.5 -122t-273 -45h-162v-183h-211zM897 352v729
h-162q-106 0 -189 -29t-134.5 -80t-78 -115.5t-26.5 -139.5t26.5 -139.5t78 -115.5t134.5 -80.5t189 -29.5h162zM1108 352h162q106 0 189 29.5t134.5 80.5t78 115.5t26.5 139.5t-26.5 139.5t-78 115.5t-134.5 80t-189 29h-162v-729z" />
    <glyph glyph-name="uni0425" unicode="&#x425;" horiz-adv-x="1560" 
d="M74 0l575 725l-563 709h262l432 -543l432 543h265l-566 -709l578 -725h-264l-445 559l-444 -559h-262z" />
    <glyph glyph-name="uni0426" unicode="&#x426;" horiz-adv-x="1667" 
d="M205 0v1434h211v-1241h796v1241h211v-1241h170v-500h-209v307h-1179z" />
    <glyph glyph-name="uni0427" unicode="&#x427;" horiz-adv-x="1492" 
d="M1290 1434v-1434h-213v586q-197 -37 -352 -37q-141 0 -248.5 28t-188 89t-122 164t-41.5 247v357h211v-357q0 -95 28 -161t82.5 -104t125 -54.5t165.5 -16.5q139 0 340 35v658h213z" />
    <glyph glyph-name="uni0428" unicode="&#x428;" horiz-adv-x="2537" 
d="M2333 1434v-1434h-2128v1434h211v-1241h747v1241h211v-1241h748v1241h211z" />
    <glyph glyph-name="uni0429" unicode="&#x429;" horiz-adv-x="2576" 
d="M2503 193v-500h-209v307h-2089v1434h211v-1241h747v1241h211v-1241h748v1241h211v-1241h170z" />
    <glyph glyph-name="uni042A" unicode="&#x42a;" horiz-adv-x="1878" 
d="M94 1241v193h656v-480h499q239 0 387 -135t148 -342q0 -208 -148 -342.5t-387 -134.5h-712v1241h-443zM750 188h499q139 0 230.5 80.5t91.5 208.5t-91 207.5t-231 79.5h-499v-576z" />
    <glyph glyph-name="uni042B" unicode="&#x42b;" horiz-adv-x="2050" 
d="M1845 1434v-1434h-211v1434h211zM856 0h-651v1434h211v-480h440q237 0 385 -135.5t148 -341.5q0 -208 -148 -342.5t-385 -134.5zM416 764v-576h440q139 0 230.5 80.5t91.5 208.5t-91 207.5t-231 79.5h-440z" />
    <glyph glyph-name="uni042C" unicode="&#x42c;" horiz-adv-x="1544" 
d="M205 0v1434h211v-480h502q157 0 278.5 -62.5t187.5 -171t66 -243.5q0 -208 -147.5 -342.5t-384.5 -134.5h-713zM416 188h502q139 0 230 80.5t91 208.5t-91 207.5t-230 79.5h-502v-576z" />
    <glyph glyph-name="uni042D" unicode="&#x42d;" horiz-adv-x="1646" 
d="M784 -25q-242 0 -417 131.5t-252 356.5h223q66 -138 184.5 -216.5t272.5 -78.5q200 0 340 129t165 338h-702v192h696q-31 197 -168.5 318t-330.5 121q-154 0 -272.5 -78.5t-184.5 -216.5h-223q77 225 251.5 356t417.5 131q205 0 372.5 -93.5t264.5 -263.5t97 -384
t-97 -384.5t-264.5 -264t-372.5 -93.5z" />
    <glyph glyph-name="uni042E" unicode="&#x42e;" horiz-adv-x="2252" 
d="M416 647v-647h-211v1434h211v-592h280q38 276 234.5 446t476.5 170q153 0 286 -55t228 -151.5t149 -235t54 -299.5q0 -215 -92.5 -384.5t-256 -263.5t-368.5 -94q-145 0 -272 49.5t-220.5 137.5t-152.5 213t-70 272h-276zM1407 168q221 0 363.5 153.5t142.5 395.5
t-142.5 395.5t-363.5 153.5t-363.5 -153.5t-142.5 -395.5t142.5 -395.5t363.5 -153.5z" />
    <glyph glyph-name="uni042F" unicode="&#x42f;" horiz-adv-x="1568" 
d="M680 557l-332 -557h-242l340 571q-160 32 -256 142t-96 282q0 206 134 322.5t345 116.5h791v-1434h-211v557h-473zM573 750h580v491h-580q-128 0 -198 -67.5t-70 -178.5t70 -178t198 -67z" />
    <glyph glyph-name="uni0430" unicode="&#x430;" horiz-adv-x="1193" 
d="M418 -25q-46 0 -87 6t-87.5 24t-80 47t-55.5 80.5t-22 119.5q0 62 19 111t47.5 81t74.5 57.5t87.5 40t99.5 29.5l397 105v24q0 41 -13.5 74t-35.5 53t-51.5 33.5t-59 19t-61.5 5.5q-99 0 -172 -47t-86 -133h-205q18 168 144.5 258t318.5 90q58 0 110.5 -8.5t110 -33
t98.5 -64t68 -107t27 -156.5v-440q0 -34 13.5 -48t47.5 -14h55v-182h-149q-117 0 -144 100l-12 43h-8q-139 -168 -389 -168zM455 139q94 0 172.5 33t131 106.5t52.5 176.5v53l-379 -98q-78 -21 -113.5 -53t-35.5 -89q0 -129 172 -129z" />
    <glyph glyph-name="uni0431" unicode="&#x431;" horiz-adv-x="1269" 
d="M641 -25q-116 0 -214 40t-170.5 114t-113.5 187.5t-41 254.5q0 136 16.5 247t57.5 214.5t106 179t167 130.5t237 79l408 72v-197l-373 -65q-177 -32 -274 -119t-140 -270h8q138 159 363 159q134 0 248.5 -63.5t184 -182.5t69.5 -268q0 -150 -71 -267.5t-193.5 -181
t-274.5 -63.5zM641 154q147 0 243.5 93t96.5 240q0 148 -96.5 242t-243.5 94t-242.5 -94t-95.5 -242q0 -147 95.5 -240t242.5 -93z" />
    <glyph glyph-name="uni0432" unicode="&#x432;" horiz-adv-x="1226" 
d="M166 0v1028h579q162 0 260.5 -74.5t98.5 -195.5q0 -142 -154 -219v-9q86 -32 134.5 -98.5t48.5 -152.5q0 -119 -94.5 -199t-256.5 -80h-616zM365 612h370q79 0 124.5 31.5t45.5 91.5t-46 92.5t-124 32.5h-370v-248zM365 168h395q81 0 127.5 38.5t46.5 100.5t-46.5 99.5
t-127.5 37.5h-395v-276z" />
    <glyph glyph-name="uni0433" unicode="&#x433;" horiz-adv-x="1007" 
d="M166 0v1028h764v-184h-565v-844h-199z" />
    <glyph glyph-name="uni0434" unicode="&#x434;" horiz-adv-x="1273" 
d="M111 180q46 0 64.5 17.5t21.5 64.5l57 766h819v-848h148v-405h-197v225h-793v-225h-194v405h74zM379 180h498v668h-441l-47 -592z" />
    <glyph glyph-name="uni0435" unicode="&#x435;" horiz-adv-x="1230" 
d="M623 -25q-227 0 -380 151.5t-153 387.5q0 156 71 280t192.5 191.5t269.5 67.5q225 0 370.5 -146t145.5 -383l-4 -82h-842q19 -135 109.5 -217t220.5 -82q93 0 167.5 43t114.5 117h211q-58 -149 -189.5 -238.5t-303.5 -89.5zM297 606h639q-22 127 -105 203t-208 76
t-214 -76t-112 -203z" />
    <glyph glyph-name="uni0436" unicode="&#x436;" horiz-adv-x="1740" 
d="M772 0v442h-106l-383 -442h-250l467 535l-459 493h246l379 -407h106v407h199v-407h104l379 407h246l-457 -493l465 -535h-248l-383 442h-106v-442h-199z" />
    <glyph glyph-name="uni0437" unicode="&#x437;" horiz-adv-x="1159" 
d="M586 -25q-235 0 -368.5 90.5t-139.5 247.5h205q9 -79 86.5 -122.5t216.5 -43.5q128 0 206 40.5t78 113.5q0 74 -78 111t-212 37h-154v167h154q122 0 190 33t68 99t-68 99.5t-190 33.5q-53 0 -99.5 -8t-89 -26t-71 -52t-37.5 -80h-205q13 162 151 250t351 88
q130 0 230.5 -30t163 -97t62.5 -164q0 -146 -164 -217v-8q90 -26 141.5 -87t51.5 -155q0 -151 -128 -235.5t-351 -84.5z" />
    <glyph glyph-name="uni0438" unicode="&#x438;" horiz-adv-x="1265" 
d="M1102 1028v-1028h-199v723h-8l-530 -723h-199v1028h199v-723h8l530 723h199z" />
    <glyph glyph-name="uni0439" unicode="&#x439;" horiz-adv-x="1265" 
d="M633 1167q-133 0 -221 73.5t-95 221.5h156q7 -80 53 -114.5t107 -34.5t107 34.5t53 114.5h155q-7 -148 -94.5 -221.5t-220.5 -73.5zM1102 1028v-1028h-199v723h-8l-530 -723h-199v1028h199v-723h8l530 723h199z" />
    <glyph glyph-name="uni043A" unicode="&#x43a;" horiz-adv-x="1179" 
d="M166 0v1028h199v-407h149l379 407h246l-457 -493l465 -535h-248l-383 442h-151v-442h-199z" />
    <glyph glyph-name="uni043B" unicode="&#x43b;" horiz-adv-x="1290" 
d="M1124 1028v-1028h-198v848h-451l-35 -586q-6 -128 -73.5 -197t-196.5 -69h-113v197h88q56 0 78 22t25 80l45 733h831z" />
    <glyph glyph-name="uni043C" unicode="&#x43c;" horiz-adv-x="1605" 
d="M1440 1028v-1028h-199v741h-8l-338 -741h-184l-338 741h-8v-741h-199v1028h270l363 -797h8l362 797h271z" />
    <glyph glyph-name="uni043D" unicode="&#x43d;" horiz-adv-x="1255" 
d="M365 442v-442h-199v1028h199v-405h528v405h197v-1028h-197v442h-528z" />
    <glyph glyph-name="uni043E" unicode="&#x43e;" horiz-adv-x="1257" 
d="M629 -25q-152 0 -274.5 67t-193.5 190.5t-71 281.5q0 156 71 280t194 191.5t274 67.5t273 -67.5t192.5 -191.5t70.5 -280q0 -238 -153 -388.5t-383 -150.5zM629 154q147 0 242.5 100t95.5 260t-95 259t-243 99t-244 -99t-96 -259t96 -260t244 -100z" />
    <glyph glyph-name="uni043F" unicode="&#x43f;" horiz-adv-x="1255" 
d="M365 848v-848h-199v1028h924v-1028h-197v848h-528z" />
    <glyph glyph-name="uni0440" unicode="&#x440;" horiz-adv-x="1323" 
d="M737 1053q218 0 356 -150t138 -389q0 -241 -137.5 -390t-356.5 -149q-230 0 -364 168h-8v-553h-199v1438h199v-143h8q137 168 364 168zM698 154q147 0 240.5 100.5t93.5 259.5t-93.5 258.5t-240.5 99.5q-148 0 -244 -100t-96 -258q0 -159 96.5 -259.5t243.5 -100.5z" />
    <glyph glyph-name="uni0441" unicode="&#x441;" horiz-adv-x="1210" 
d="M618 -25q-232 0 -380 149.5t-148 389.5t148 389.5t380 149.5q191 0 330.5 -106.5t181.5 -295.5h-202q-38 107 -118.5 164t-191.5 57q-149 0 -239 -98t-90 -260t90 -261t239 -99q110 0 191 58t119 165h202q-42 -190 -181.5 -296t-330.5 -106z" />
    <glyph glyph-name="uni0442" unicode="&#x442;" horiz-adv-x="1155" 
d="M78 848v180h999v-180h-401v-848h-199v848h-399z" />
    <glyph glyph-name="uni0443" unicode="&#x443;" horiz-adv-x="1230" 
d="M166 -410v183h160q59 0 93.5 26t61.5 88l51 123l-466 1018h215l346 -766h10l317 766h211l-503 -1208q-55 -130 -126 -180t-210 -50h-160z" />
    <glyph glyph-name="uni0444" unicode="&#x444;" horiz-adv-x="1617" 
d="M711 -12h-70q-152 0 -276 61.5t-199.5 183t-75.5 281.5t75.5 281.5t199.5 183t276 61.5h70v394h198v-394h68q152 0 276 -61.5t199.5 -183t75.5 -281.5t-75.5 -281.5t-199.5 -183t-276 -61.5h-68v-398h-198v398zM711 166v694h-70q-149 0 -250.5 -92.5t-101.5 -253.5
t101.5 -254.5t250.5 -93.5h70zM977 860h-68v-694h68q151 0 251.5 93t100.5 255t-100.5 254t-251.5 92z" />
    <glyph glyph-name="uni0445" unicode="&#x445;" horiz-adv-x="1124" 
d="M33 0l407 516l-403 512h244l280 -356l283 356h243l-403 -512l408 -516h-244l-287 360l-285 -360h-243z" />
    <glyph glyph-name="uni0446" unicode="&#x446;" horiz-adv-x="1290" 
d="M1237 180v-405h-197v225h-874v1028h199v-848h528v848h197v-848h147z" />
    <glyph glyph-name="uni0447" unicode="&#x447;" horiz-adv-x="1200" 
d="M1036 1028v-1028h-198v377q-155 -31 -279 -31q-234 0 -341 90.5t-107 308.5v283h198v-283q0 -126 59.5 -172.5t204.5 -46.5q114 0 265 29v473h198z" />
    <glyph glyph-name="uni0448" unicode="&#x448;" horiz-adv-x="1912" 
d="M1749 1028v-1028h-1583v1028h199v-848h493v848h199v-848h493v848h199z" />
    <glyph glyph-name="uni0449" unicode="&#x449;" horiz-adv-x="1947" 
d="M1894 180v-405h-194v225h-1534v1028h199v-848h493v848h199v-848h493v848h199v-848h145z" />
    <glyph glyph-name="uni044A" unicode="&#x44a;" horiz-adv-x="1454" 
d="M418 0v846h-340v182h538v-354h375q77 0 144 -20.5t119.5 -60.5t83 -106t30.5 -151q0 -86 -29.5 -151.5t-82 -105t-118.5 -59.5t-143 -20h-577zM616 168h367q90 0 139 45.5t49 122.5q0 76 -49.5 122t-140.5 46h-365v-336z" />
    <glyph glyph-name="uni044B" unicode="&#x44b;" horiz-adv-x="1615" 
d="M1450 1028v-1028h-199v1028h199zM700 0h-534v1028h199v-354h333q77 0 143.5 -20.5t119 -60.5t82.5 -106t30 -151q0 -86 -29.5 -151.5t-82 -105t-118.5 -59.5t-143 -20zM365 504v-336h325q89 0 138 45.5t49 122.5q0 76 -50 122t-141 46h-321z" />
    <glyph glyph-name="uni044C" unicode="&#x44c;" horiz-adv-x="1200" 
d="M166 0v1028h199v-354h374q77 0 143.5 -20.5t119 -60.5t82.5 -106t30 -151q0 -86 -29.5 -151.5t-82 -105t-118.5 -59.5t-143 -20h-575zM365 168h366q89 0 138 45.5t49 122.5q0 76 -50 122t-141 46h-362v-336z" />
    <glyph glyph-name="uni044D" unicode="&#x44d;" horiz-adv-x="1208" 
d="M449 428v178h458q-26 120 -114.5 192t-212.5 72q-99 0 -176.5 -46.5t-120.5 -131.5h-205q50 169 188 265t316 96q231 0 382.5 -151t151.5 -388q0 -239 -151.5 -389t-382.5 -150q-179 0 -316.5 95.5t-187.5 265.5h205q43 -86 120 -133t177 -47q126 0 215 74.5t114 197.5
h-460z" />
    <glyph glyph-name="uni044E" unicode="&#x44e;" horiz-adv-x="1685" 
d="M1077 -25q-203 0 -345 127.5t-167 333.5h-200v-436h-199v1028h199v-414h204q32 198 171.5 318.5t336.5 120.5q223 0 370.5 -151t147.5 -388q0 -239 -147 -389t-371 -150zM1077 154q142 0 231 99.5t89 260.5q0 159 -89.5 258.5t-230.5 99.5q-140 0 -228.5 -99.5
t-88.5 -258.5q0 -161 88.5 -260.5t228.5 -99.5z" />
    <glyph glyph-name="uni044F" unicode="&#x44f;" horiz-adv-x="1214" 
d="M328 0h-219l221 401q-111 33 -171.5 110t-60.5 194q0 155 106 239t292 84h553v-1028h-197v381h-317zM496 551h356v305h-356q-102 0 -150.5 -40t-48.5 -111q0 -72 48.5 -113t150.5 -41z" />
    <glyph glyph-name="uni0450" unicode="&#x450;" horiz-adv-x="1230" 
d="M571 1434l164 -267h-215l-164 267h215zM623 -25q-227 0 -380 151.5t-153 387.5q0 156 71 280t192.5 191.5t269.5 67.5q225 0 370.5 -146t145.5 -383l-4 -82h-842q19 -135 109.5 -217t220.5 -82q93 0 167.5 43t114.5 117h211q-58 -149 -189.5 -238.5t-303.5 -89.5z
M297 606h639q-22 127 -105 203t-208 76t-214 -76t-112 -203z" />
    <glyph glyph-name="uni0451" unicode="&#x451;" horiz-adv-x="1230" 
d="M424 1214q-57 0 -93 33t-36 86q0 52 36 84.5t93 32.5q56 0 92.5 -32.5t36.5 -84.5t-36.5 -85.5t-92.5 -33.5zM821 1214q-56 0 -92.5 33.5t-36.5 85.5t36.5 84.5t92.5 32.5q57 0 93 -32.5t36 -84.5q0 -53 -36 -86t-93 -33zM623 -25q-227 0 -380 151.5t-153 387.5
q0 156 71 280t192.5 191.5t269.5 67.5q225 0 370.5 -146t145.5 -383l-4 -82h-842q19 -135 109.5 -217t220.5 -82q93 0 167.5 43t114.5 117h211q-58 -149 -189.5 -238.5t-303.5 -89.5zM297 606h639q-22 127 -105 203t-208 76t-214 -76t-112 -203z" />
    <glyph glyph-name="uni0452" unicode="&#x452;" horiz-adv-x="1286" 
d="M-6 1100v174h172v164h199v-164h290v-174h-290v-297h8q131 168 348 168q176 0 292.5 -111.5t116.5 -316.5v-674q0 -148 -65 -213.5t-213 -65.5h-152v185h123q59 0 85 26t26 84v635q0 71 -23.5 125t-62 85t-84 46t-94.5 15q-128 0 -216.5 -94.5t-88.5 -256.5v-440h-199
v1100h-172z" />
    <glyph glyph-name="uni0453" unicode="&#x453;" horiz-adv-x="1007" 
d="M434 1165l164 267h215l-164 -267h-215zM166 0v1028h764v-184h-565v-844h-199z" />
    <glyph glyph-name="uni0454" unicode="&#x454;" horiz-adv-x="1208" 
d="M760 606v-178h-461q25 -123 114.5 -197.5t215.5 -74.5q100 0 177 47t120 133h204q-50 -170 -187 -265.5t-316 -95.5q-231 0 -383 150t-152 389q0 237 152 388t383 151q178 0 315.5 -96t187.5 -265h-204q-43 85 -120.5 131.5t-176.5 46.5q-124 0 -213 -72t-115 -192h459z
" />
    <glyph glyph-name="uni0455" unicode="&#x455;" horiz-adv-x="1107" 
d="M575 -25q-77 0 -144 10t-131.5 35t-112 64t-79 100.5t-38.5 141.5h204q8 -50 38 -87.5t74 -57.5t91 -29t98 -9q42 -1 82 5.5t78.5 22t62 46.5t23.5 74q0 47 -31 77.5t-81.5 43.5t-115 24t-132 18.5t-132 27.5t-115 49t-81.5 85.5t-31 135.5q0 69 27.5 123t70.5 87
t102.5 54t117.5 29t121 8q65 0 124 -8.5t119 -31.5t104 -58t74.5 -92.5t36.5 -131.5h-204q-7 44 -33.5 76t-65 48t-77 23t-80.5 7q-37 0 -73.5 -5.5t-77 -18.5t-65 -41t-24.5 -68q0 -38 24.5 -63.5t66.5 -38.5t96 -22t114 -17t119.5 -19t113.5 -32.5t96 -54t66.5 -87
t24.5 -127.5q0 -75 -27 -132.5t-69.5 -91.5t-103 -55.5t-119 -29t-126.5 -7.5z" />
    <glyph glyph-name="uni0456" unicode="&#x456;" horiz-adv-x="593" 
d="M297 1214q-57 0 -94 33.5t-37 85.5t37 84.5t94 32.5t94 -32.5t37 -84.5t-37 -85.5t-94 -33.5zM199 0v1028h198v-1028h-198z" />
    <glyph glyph-name="uni0457" unicode="&#x457;" horiz-adv-x="528" 
d="M66 1214q-57 0 -93 33t-36 86q0 52 36 84.5t93 32.5q56 0 92.5 -32.5t36.5 -84.5t-36.5 -85.5t-92.5 -33.5zM463 1214q-56 0 -92.5 33.5t-36.5 85.5t36.5 84.5t92.5 32.5q57 0 93 -32.5t36 -84.5q0 -53 -36 -86t-93 -33zM166 0v1028h199v-1028h-199z" />
    <glyph glyph-name="uni0458" unicode="&#x458;" horiz-adv-x="561" 
d="M264 1214q-57 0 -94 33.5t-37 85.5t37 84.5t94 32.5t94 -32.5t37 -84.5t-37 -85.5t-94 -33.5zM-68 -410v185h123q59 0 85 26t26 84v1143h199v-1159q0 -147 -66.5 -213t-214.5 -66h-152z" />
    <glyph glyph-name="uni0459" unicode="&#x459;" horiz-adv-x="1900" 
d="M57 -4v197h88q56 0 78 22t25 80l45 733h801v-354h346q77 0 143.5 -20.5t119 -60.5t82.5 -106t30 -151q0 -86 -29.5 -151.5t-81 -105t-117.5 -59.5t-143 -20h-547v848h-422l-35 -586q-6 -128 -73.5 -197t-196.5 -69h-113zM1094 168h338q90 0 138 45.5t48 122.5
q0 76 -48.5 122t-139.5 46h-336v-336z" />
    <glyph glyph-name="uni045A" unicode="&#x45a;" horiz-adv-x="1867" 
d="M862 494h-497v-494h-199v1028h199v-354h497v354h199v-354h346q77 0 143.5 -20.5t119 -60.5t82.5 -106t30 -151q0 -86 -29.5 -151.5t-82 -105t-118.5 -59.5t-143 -20h-547v494zM1061 504v-336h338q89 0 137.5 45.5t48.5 122.5q0 76 -49.5 122t-140.5 46h-334z" />
    <glyph glyph-name="uni045B" unicode="&#x45b;" horiz-adv-x="1458" 
d="M338 0v1100h-172v174h172v164h199v-164h290v-174h-290v-297h8q131 168 348 168q114 0 205.5 -46.5t148 -145t56.5 -236.5v-543h-197v520q0 71 -23.5 125t-62 85t-84 46t-94.5 15q-128 0 -216.5 -94.5t-88.5 -256.5v-440h-199z" />
    <glyph glyph-name="uni045C" unicode="&#x45c;" horiz-adv-x="1179" 
d="M485 1167l164 267h215l-164 -267h-215zM166 0v1028h199v-407h149l379 407h246l-457 -493l465 -535h-248l-383 442h-151v-442h-199z" />
    <glyph glyph-name="uni045D" unicode="&#x45d;" horiz-adv-x="1265" 
d="M582 1434l163 -267h-215l-163 267h215zM1102 1028v-1028h-199v723h-8l-530 -723h-199v1028h199v-723h8l530 723h199z" />
    <glyph glyph-name="uni045E" unicode="&#x45e;" horiz-adv-x="1230" 
d="M627 1167q-133 0 -221 73.5t-95 221.5h156q7 -80 53 -114.5t107 -34.5t106.5 34.5t52.5 114.5h156q-7 -148 -94.5 -221.5t-220.5 -73.5zM166 -410v183h160q59 0 93.5 26t61.5 88l51 123l-466 1018h215l346 -766h10l317 766h211l-503 -1208q-55 -130 -126 -180t-210 -50
h-160z" />
    <glyph glyph-name="uni045F" unicode="&#x45f;" horiz-adv-x="1255" 
d="M528 -266v266h-362v1028h199v-848h528v848h197v-1028h-363v-266h-199z" />
    <glyph glyph-name="uni0490" unicode="&#x490;" horiz-adv-x="1394" 
d="M1090 1434v303h210v-498h-884v-1239h-211v1434h885z" />
    <glyph glyph-name="uni0491" unicode="&#x491;" horiz-adv-x="1007" 
d="M731 1028v262h199v-446h-565v-844h-199v1028h565z" />
    <glyph glyph-name="uni04C0" unicode="&#x4c0;" horiz-adv-x="620" 
d="M205 0v1434h211v-1434h-211z" />
    <glyph glyph-name="uni04C1" unicode="&#x4c1;" horiz-adv-x="2347" 
d="M1174 1573q-133 0 -221 73.5t-95 221.5h156q7 -80 53 -115t107 -35q60 0 106 35t53 115h156q-7 -148 -94.5 -221.5t-220.5 -73.5zM1067 0v647h-147l-572 -647h-274l655 739l-643 695h266l549 -592h166v592h213v-592h166l549 592h266l-643 -695l655 -739h-274l-572 647
h-147v-647h-213z" />
    <glyph glyph-name="uni04C2" unicode="&#x4c2;" horiz-adv-x="1740" 
d="M870 1167q-133 0 -220.5 73.5t-94.5 221.5h156q7 -80 52.5 -114.5t106.5 -34.5t107 34.5t53 114.5h156q-7 -148 -95 -221.5t-221 -73.5zM772 0v442h-106l-383 -442h-250l467 535l-459 493h246l379 -407h106v407h199v-407h104l379 407h246l-457 -493l465 -535h-248
l-383 442h-106v-442h-199z" />
    <glyph glyph-name="uni04CF" unicode="&#x4cf;" horiz-adv-x="528" 
d="M166 0v1028h199v-1028h-199z" />
    <glyph glyph-name="uni04D0" unicode="&#x4d0;" horiz-adv-x="1533" 
d="M768 1573q-133 0 -220.5 73.5t-94.5 221.5h155q7 -80 53 -115t107 -35t107 35t53 115h155q-7 -148 -94.5 -221.5t-220.5 -73.5zM1493 0h-221l-148 340h-714l-148 -340h-221l623 1434h206zM487 528h560l-277 631h-8z" />
    <glyph glyph-name="uni04D1" unicode="&#x4d1;" horiz-adv-x="1193" 
d="M584 1167q-133 0 -221 73.5t-95 221.5h156q7 -80 53 -114.5t107 -34.5t106.5 34.5t52.5 114.5h156q-7 -148 -94.5 -221.5t-220.5 -73.5zM418 -25q-46 0 -87 6t-87.5 24t-80 47t-55.5 80.5t-22 119.5q0 62 19 111t47.5 81t74.5 57.5t87.5 40t99.5 29.5l397 105v24
q0 41 -13.5 74t-35.5 53t-51.5 33.5t-59 19t-61.5 5.5q-99 0 -172 -47t-86 -133h-205q18 168 144.5 258t318.5 90q58 0 110.5 -8.5t110 -33t98.5 -64t68 -107t27 -156.5v-440q0 -34 13.5 -48t47.5 -14h55v-182h-149q-117 0 -144 100l-12 43h-8q-139 -168 -389 -168zM455 139
q94 0 172.5 33t131 106.5t52.5 176.5v53l-379 -98q-78 -21 -113.5 -53t-35.5 -89q0 -129 172 -129z" />
    <glyph glyph-name="uni04D2" unicode="&#x4d2;" horiz-adv-x="1533" 
d="M567 1620q-57 0 -93 33t-36 86q0 52 36 84t93 32q56 0 92.5 -32t36.5 -84t-36.5 -85.5t-92.5 -33.5zM965 1620q-56 0 -92.5 33.5t-36.5 85.5t36.5 84t92.5 32q57 0 93 -32t36 -84q0 -53 -36 -86t-93 -33zM1493 0h-221l-148 340h-714l-148 -340h-221l623 1434h206z
M487 528h560l-277 631h-8z" />
    <glyph glyph-name="uni04D3" unicode="&#x4d3;" horiz-adv-x="1193" 
d="M385 1214q-57 0 -93 33t-36 86q0 52 36 84.5t93 32.5q56 0 92.5 -32.5t36.5 -84.5t-36.5 -85.5t-92.5 -33.5zM782 1214q-56 0 -92.5 33.5t-36.5 85.5t36.5 84.5t92.5 32.5q57 0 93 -32.5t36 -84.5q0 -53 -36 -86t-93 -33zM418 -25q-46 0 -87 6t-87.5 24t-80 47
t-55.5 80.5t-22 119.5q0 62 19 111t47.5 81t74.5 57.5t87.5 40t99.5 29.5l397 105v24q0 41 -13.5 74t-35.5 53t-51.5 33.5t-59 19t-61.5 5.5q-99 0 -172 -47t-86 -133h-205q18 168 144.5 258t318.5 90q58 0 110.5 -8.5t110 -33t98.5 -64t68 -107t27 -156.5v-440
q0 -34 13.5 -48t47.5 -14h55v-182h-149q-117 0 -144 100l-12 43h-8q-139 -168 -389 -168zM455 139q94 0 172.5 33t131 106.5t52.5 176.5v53l-379 -98q-78 -21 -113.5 -53t-35.5 -89q0 -129 172 -129z" />
    <glyph glyph-name="uni04D4" unicode="&#x4d4;" horiz-adv-x="2361" 
d="M33 0l1036 1434h1141v-193h-828v-401h729v-191h-729v-456h828v-193h-1041v340h-653l-246 -340h-237zM651 528h518v709h-8z" />
    <glyph glyph-name="uni04D5" unicode="&#x4d5;" horiz-adv-x="1945" 
d="M444 -25q-358 0 -358 277q0 62 19 111t47.5 81t74.5 57.5t87.5 40t99.5 29.5l397 105v24q0 51 -19.5 88.5t-53 58t-70.5 29.5t-78 9q-99 0 -172 -47t-86 -133h-205q18 168 144.5 258t318.5 90q253 0 354 -181h8q138 181 387 181q224 0 370 -146.5t146 -382.5l-4 -82h-841
q19 -135 109 -217t220 -82q93 0 168 43t115 117h209q-56 -149 -188 -238.5t-304 -89.5q-135 0 -247.5 56.5t-190.5 158.5h-8q-24 -35 -49.5 -63t-65.5 -57.5t-85.5 -49.5t-109.5 -32.5t-139 -12.5zM1012 606h641q-24 127 -106.5 203t-207.5 76q-126 0 -214 -75.5
t-113 -203.5zM455 139q94 0 172.5 33t131 106.5t52.5 176.5v53l-379 -98q-78 -21 -113.5 -53t-35.5 -89q0 -129 172 -129z" />
    <glyph glyph-name="uni04D6" unicode="&#x4d6;" horiz-adv-x="1478" 
d="M776 1573q-133 0 -220.5 73.5t-94.5 221.5h155q7 -80 53 -115t107 -35t107 35t53 115h156q-7 -148 -95 -221.5t-221 -73.5zM416 649v-456h911v-193h-1122v1434h1122v-193h-911v-401h813v-191h-813z" />
    <glyph glyph-name="uni04D7" unicode="&#x4d7;" horiz-adv-x="1230" 
d="M623 1167q-133 0 -221 73.5t-95 221.5h156q7 -80 53 -114.5t107 -34.5t106.5 34.5t52.5 114.5h156q-7 -148 -94.5 -221.5t-220.5 -73.5zM623 -25q-227 0 -380 151.5t-153 387.5q0 156 71 280t192.5 191.5t269.5 67.5q225 0 370.5 -146t145.5 -383l-4 -82h-842
q19 -135 109.5 -217t220.5 -82q93 0 167.5 43t114.5 117h211q-58 -149 -189.5 -238.5t-303.5 -89.5zM297 606h639q-22 127 -105 203t-208 76t-214 -76t-112 -203z" />
    <glyph glyph-name="uni04DC" unicode="&#x4dc;" horiz-adv-x="2347" 
d="M975 1620q-57 0 -93 33t-36 86q0 52 36 84t93 32q56 0 92.5 -32t36.5 -84t-36.5 -85.5t-92.5 -33.5zM1372 1620q-56 0 -92.5 33.5t-36.5 85.5t36.5 84t92.5 32q57 0 93 -32t36 -84q0 -53 -36 -86t-93 -33zM1067 0v647h-147l-572 -647h-274l655 739l-643 695h266l549 -592
h166v592h213v-592h166l549 592h266l-643 -695l655 -739h-274l-572 647h-147v-647h-213z" />
    <glyph glyph-name="uni04DD" unicode="&#x4dd;" horiz-adv-x="1740" 
d="M672 1214q-57 0 -93 33t-36 86q0 52 36 84.5t93 32.5q56 0 92.5 -32.5t36.5 -84.5t-36.5 -85.5t-92.5 -33.5zM1069 1214q-56 0 -92.5 33.5t-36.5 85.5t36.5 84.5t92.5 32.5q57 0 93 -32.5t36 -84.5q0 -53 -36 -86t-93 -33zM772 0v442h-106l-383 -442h-250l467 535
l-459 493h246l379 -407h106v407h199v-407h104l379 407h246l-457 -493l465 -535h-248l-383 442h-106v-442h-199z" />
    <glyph glyph-name="uni04DE" unicode="&#x4de;" horiz-adv-x="1523" 
d="M571 1620q-57 0 -93 33t-36 86q0 52 36 84t93 32q56 0 92.5 -32t36.5 -84t-36.5 -85.5t-92.5 -33.5zM969 1620q-56 0 -92.5 33.5t-36.5 85.5t36.5 84t92.5 32q57 0 93 -32t36 -84q0 -53 -36 -86t-93 -33zM786 -25q-317 0 -479.5 121.5t-191.5 337.5h223q29 -130 135 -199
t313 -69q193 0 307.5 64t114.5 182q0 102 -85.5 166.5t-241.5 64.5h-295v188h282q137 0 217 53.5t80 155.5q0 116 -105 172t-290 56q-389 0 -432 -269h-223q14 211 188.5 335t466.5 124q175 0 311 -44.5t216.5 -136t80.5 -218.5q0 -100 -48.5 -168.5t-145.5 -130.5v-8
q108 -44 172.5 -135t64.5 -216q0 -198 -163.5 -312t-471.5 -114z" />
    <glyph glyph-name="uni04DF" unicode="&#x4df;" horiz-adv-x="1159" 
d="M381 1214q-57 0 -93 33t-36 86q0 52 36 84.5t93 32.5q56 0 92.5 -32.5t36.5 -84.5t-36.5 -85.5t-92.5 -33.5zM778 1214q-56 0 -92.5 33.5t-36.5 85.5t36.5 84.5t92.5 32.5q57 0 93 -32.5t36 -84.5q0 -53 -36 -86t-93 -33zM586 -25q-235 0 -368.5 90.5t-139.5 247.5h205
q9 -79 86.5 -122.5t216.5 -43.5q128 0 206 40.5t78 113.5q0 74 -78 111t-212 37h-154v167h154q122 0 190 33t68 99t-68 99.5t-190 33.5q-53 0 -99.5 -8t-89 -26t-71 -52t-37.5 -80h-205q13 162 151 250t351 88q130 0 230.5 -30t163 -97t62.5 -164q0 -146 -164 -217v-8
q90 -26 141.5 -87t51.5 -155q0 -151 -128 -235.5t-351 -84.5z" />
    <glyph glyph-name="uni04E2" unicode="&#x4e2;" horiz-adv-x="1673" 
d="M483 1630v152h697v-152h-697zM1470 1434v-1434h-213v1165l-796 -1165h-256v1434h211v-1166l796 1166h258z" />
    <glyph glyph-name="uni04E3" unicode="&#x4e3;" horiz-adv-x="1265" 
d="M285 1225v151h696v-151h-696zM1102 1028v-1028h-199v723h-8l-530 -723h-199v1028h199v-723h8l530 723h199z" />
    <glyph glyph-name="uni04E4" unicode="&#x4e4;" horiz-adv-x="1673" 
d="M633 1620q-57 0 -93 33t-36 86q0 52 36 84t93 32q56 0 92.5 -32t36.5 -84t-36.5 -85.5t-92.5 -33.5zM1030 1620q-56 0 -92.5 33.5t-36.5 85.5t36.5 84t92.5 32q57 0 93 -32t36 -84q0 -53 -36 -86t-93 -33zM1470 1434v-1434h-213v1165l-796 -1165h-256v1434h211v-1166
l796 1166h258z" />
    <glyph glyph-name="uni04E5" unicode="&#x4e5;" horiz-adv-x="1265" 
d="M434 1214q-57 0 -93 33t-36 86q0 52 36 84.5t93 32.5q56 0 92.5 -32.5t36.5 -84.5t-36.5 -85.5t-92.5 -33.5zM831 1214q-56 0 -92.5 33.5t-36.5 85.5t36.5 84.5t92.5 32.5q57 0 93.5 -32.5t36.5 -84.5t-36.5 -85.5t-93.5 -33.5zM1102 1028v-1028h-199v723h-8l-530 -723
h-199v1028h199v-723h8l530 723h199z" />
    <glyph glyph-name="uni04E6" unicode="&#x4e6;" horiz-adv-x="1724" 
d="M664 1620q-57 0 -93 33t-36 86q0 52 36 84t93 32q56 0 92.5 -32t36.5 -84t-36.5 -85.5t-92.5 -33.5zM1061 1620q-56 0 -92.5 33.5t-36.5 85.5t36.5 84t92.5 32q57 0 93 -32t36 -84q0 -53 -36 -86t-93 -33zM862 -25q-154 0 -289 55t-233 152t-154.5 235.5t-56.5 299.5
q0 214 96.5 384t264 263.5t372.5 93.5t372.5 -93.5t264 -263.5t96.5 -384q0 -161 -56.5 -299.5t-154.5 -235.5t-233 -152t-289 -55zM862 168q222 0 372 154.5t150 394.5t-150 394.5t-372 154.5t-371 -154.5t-149 -394.5t149 -394.5t371 -154.5z" />
    <glyph glyph-name="uni04E7" unicode="&#x4e7;" horiz-adv-x="1257" 
d="M430 1214q-57 0 -93 33t-36 86q0 52 36 84.5t93 32.5q56 0 92.5 -32.5t36.5 -84.5t-36.5 -85.5t-92.5 -33.5zM827 1214q-56 0 -92.5 33.5t-36.5 85.5t36.5 84.5t92.5 32.5q57 0 93 -32.5t36 -84.5q0 -53 -36 -86t-93 -33zM629 -25q-152 0 -274.5 67t-193.5 190.5
t-71 281.5q0 156 71 280t194 191.5t274 67.5t273 -67.5t192.5 -191.5t70.5 -280q0 -238 -153 -388.5t-383 -150.5zM629 154q147 0 242.5 100t95.5 260t-95 259t-243 99t-244 -99t-96 -259t96 -260t244 -100z" />
    <glyph glyph-name="uni04EC" unicode="&#x4ec;" horiz-adv-x="1646" 
d="M586 1620q-57 0 -93 33t-36 86q0 52 36 84t93 32q56 0 92.5 -32t36.5 -84t-36.5 -85.5t-92.5 -33.5zM983 1620q-56 0 -92.5 33.5t-36.5 85.5t36.5 84t92.5 32q57 0 93 -32t36 -84q0 -53 -36 -86t-93 -33zM784 -25q-242 0 -417 131.5t-252 356.5h223q66 -138 184.5 -216.5
t272.5 -78.5q200 0 340 129t165 338h-702v192h696q-31 197 -168.5 318t-330.5 121q-154 0 -272.5 -78.5t-184.5 -216.5h-223q77 225 251.5 356t417.5 131q205 0 372.5 -93.5t264.5 -263.5t97 -384t-97 -384.5t-264.5 -264t-372.5 -93.5z" />
    <glyph glyph-name="uni04ED" unicode="&#x4ed;" horiz-adv-x="1208" 
d="M383 1214q-57 0 -93 33t-36 86q0 52 36 84.5t93 32.5q56 0 92.5 -32.5t36.5 -84.5t-36.5 -85.5t-92.5 -33.5zM780 1214q-56 0 -92.5 33.5t-36.5 85.5t36.5 84.5t92.5 32.5q57 0 93 -32.5t36 -84.5q0 -53 -36 -86t-93 -33zM449 428v178h458q-26 120 -114.5 192t-212.5 72
q-99 0 -176.5 -46.5t-120.5 -131.5h-205q50 169 188 265t316 96q231 0 382.5 -151t151.5 -388q0 -239 -151.5 -389t-382.5 -150q-179 0 -316.5 95.5t-187.5 265.5h205q43 -86 120 -133t177 -47q126 0 215 74.5t114 197.5h-460z" />
    <glyph glyph-name="uni04EE" unicode="&#x4ee;" horiz-adv-x="1449" 
d="M395 1630v152h697v-152h-697zM330 0v199h200q41 0 65 17t40 54l27 60l-607 1104h238l469 -865h10l393 865h230l-574 -1239q-50 -109 -107 -152t-173 -43h-211z" />
    <glyph glyph-name="uni04EF" unicode="&#x4ef;" horiz-adv-x="1230" 
d="M279 1225v151h696v-151h-696zM166 -410v183h160q59 0 93.5 26t61.5 88l51 123l-466 1018h215l346 -766h10l317 766h211l-503 -1208q-55 -130 -126 -180t-210 -50h-160z" />
    <glyph glyph-name="uni04F0" unicode="&#x4f0;" horiz-adv-x="1449" 
d="M545 1620q-57 0 -93 33t-36 86q0 52 36 84t93 32q56 0 92.5 -32t36.5 -84t-36.5 -85.5t-92.5 -33.5zM942 1620q-56 0 -92.5 33.5t-36.5 85.5t36.5 84t92.5 32q57 0 93 -32t36 -84q0 -53 -36 -86t-93 -33zM330 0v199h200q41 0 65 17t40 54l27 60l-607 1104h238l469 -865
h10l393 865h230l-574 -1239q-50 -109 -107 -152t-173 -43h-211z" />
    <glyph glyph-name="uni04F1" unicode="&#x4f1;" horiz-adv-x="1230" 
d="M428 1214q-57 0 -93 33t-36 86q0 52 36 84.5t93 32.5q56 0 92.5 -32.5t36.5 -84.5t-36.5 -85.5t-92.5 -33.5zM825 1214q-56 0 -92.5 33.5t-36.5 85.5t36.5 84.5t92.5 32.5q57 0 93 -32.5t36 -84.5q0 -53 -36 -86t-93 -33zM166 -410v183h160q59 0 93.5 26t61.5 88l51 123
l-466 1018h215l346 -766h10l317 766h211l-503 -1208q-55 -130 -126 -180t-210 -50h-160z" />
    <glyph glyph-name="uni04F2" unicode="&#x4f2;" horiz-adv-x="1449" 
d="M801 1573l164 266h206l-163 -266h-207zM457 1573l164 266h204l-163 -266h-205zM330 0v199h200q41 0 65 17t40 54l27 60l-607 1104h238l469 -865h10l393 865h230l-574 -1239q-50 -109 -107 -152t-173 -43h-211z" />
    <glyph glyph-name="uni04F3" unicode="&#x4f3;" horiz-adv-x="1230" 
d="M684 1167l164 267h207l-164 -267h-207zM340 1167l164 267h205l-164 -267h-205zM166 -410v183h160q59 0 93.5 26t61.5 88l51 123l-466 1018h215l346 -766h10l317 766h211l-503 -1208q-55 -130 -126 -180t-210 -50h-160z" />
    <glyph glyph-name="uni04F4" unicode="&#x4f4;" horiz-adv-x="1492" 
d="M506 1620q-57 0 -93 33t-36 86q0 52 36 84t93 32q56 0 92.5 -32t36.5 -84t-36.5 -85.5t-92.5 -33.5zM903 1620q-56 0 -92.5 33.5t-36.5 85.5t36.5 84t92.5 32q57 0 93 -32t36 -84q0 -53 -36 -86t-93 -33zM1290 1434v-1434h-213v586q-197 -37 -352 -37q-141 0 -248.5 28
t-188 89t-122 164t-41.5 247v357h211v-357q0 -95 28 -161t82.5 -104t125 -54.5t165.5 -16.5q139 0 340 35v658h213z" />
    <glyph glyph-name="uni04F5" unicode="&#x4f5;" horiz-adv-x="1200" 
d="M371 1214q-57 0 -93 33t-36 86q0 52 36 84.5t93 32.5q56 0 92.5 -32.5t36.5 -84.5t-36.5 -85.5t-92.5 -33.5zM768 1214q-56 0 -92.5 33.5t-36.5 85.5t36.5 84.5t92.5 32.5q57 0 93 -32.5t36 -84.5q0 -53 -36 -86t-93 -33zM1036 1028v-1028h-198v377q-155 -31 -279 -31
q-234 0 -341 90.5t-107 308.5v283h198v-283q0 -126 59.5 -172.5t204.5 -46.5q114 0 265 29v473h198z" />
    <glyph glyph-name="uni04F8" unicode="&#x4f8;" horiz-adv-x="2050" 
d="M825 1620q-57 0 -93 33t-36 86q0 52 36 84t93 32q56 0 92.5 -32t36.5 -84t-36.5 -85.5t-92.5 -33.5zM1223 1620q-56 0 -92.5 33.5t-36.5 85.5t36.5 84t92.5 32q57 0 93 -32t36 -84q0 -53 -36 -86t-93 -33zM1845 1434v-1434h-211v1434h211zM856 0h-651v1434h211v-480h440
q237 0 385 -135.5t148 -341.5q0 -208 -148 -342.5t-385 -134.5zM416 764v-576h440q139 0 230.5 80.5t91.5 208.5t-91 207.5t-231 79.5h-440z" />
    <glyph glyph-name="uni04F9" unicode="&#x4f9;" horiz-adv-x="1615" 
d="M608 1214q-57 0 -93 33t-36 86q0 52 36 84.5t93 32.5q56 0 92.5 -32.5t36.5 -84.5t-36.5 -85.5t-92.5 -33.5zM1006 1214q-56 0 -92.5 33.5t-36.5 85.5t36.5 84.5t92.5 32.5q57 0 93 -32.5t36 -84.5q0 -53 -36 -86t-93 -33zM1450 1028v-1028h-199v1028h199zM700 0h-534
v1028h199v-354h333q77 0 143.5 -20.5t119 -60.5t82.5 -106t30 -151q0 -86 -29.5 -151.5t-82 -105t-118.5 -59.5t-143 -20zM365 504v-336h325q89 0 138 45.5t49 122.5q0 76 -50 122t-141 46h-321z" />
    <glyph glyph-name="uni1EBC" unicode="&#x1ebc;" horiz-adv-x="1478" 
d="M635 1843q49 0 91 -18t66 -39t55 -39t60 -18q34 0 54 21t24 73h152q-9 -129 -66.5 -191.5t-152.5 -62.5q-49 0 -91 18t-66.5 39t-55.5 39t-60 18q-34 0 -54 -21t-24 -73h-151q9 129 66.5 191.5t152.5 62.5zM416 649v-456h911v-193h-1122v1434h1122v-193h-911v-401h813
v-191h-813z" />
    <glyph glyph-name="uni1EBD" unicode="&#x1ebd;" horiz-adv-x="1230" 
d="M481 1438q49 0 91 -18t66.5 -39.5t55.5 -39.5t60 -18q34 0 53.5 21t23.5 73h152q-9 -129 -66.5 -191.5t-152.5 -62.5q-49 0 -91 18t-66 39.5t-55 39.5t-60 18q-34 0 -54 -21t-24 -73h-152q9 129 66.5 191.5t152.5 62.5zM623 -25q-227 0 -380 151.5t-153 387.5
q0 156 71 280t192.5 191.5t269.5 67.5q225 0 370.5 -146t145.5 -383l-4 -82h-842q19 -135 109.5 -217t220.5 -82q93 0 167.5 43t114.5 117h211q-58 -149 -189.5 -238.5t-303.5 -89.5zM297 606h639q-22 127 -105 203t-208 76t-214 -76t-112 -203z" />
    <glyph glyph-name="uni2010" unicode="&#x2010;" horiz-adv-x="1011" 
d="M147 492v184h717v-184h-717z" />
    <glyph glyph-name="uni2011" unicode="&#x2011;" horiz-adv-x="1011" 
d="M147 492v184h717v-184h-717z" />
    <glyph glyph-name="figuredash" unicode="&#x2012;" horiz-adv-x="1421" 
d="M147 643v199h1127v-199h-1127z" />
    <glyph glyph-name="endash" unicode="&#x2013;" horiz-adv-x="1421" 
d="M147 492v184h1127v-184h-1127z" />
    <glyph glyph-name="emdash" unicode="&#x2014;" horiz-adv-x="1830" 
d="M147 492v184h1536v-184h-1536z" />
    <glyph glyph-name="uni2015" unicode="&#x2015;" horiz-adv-x="1933" 
d="M147 492v184h1639v-184h-1639z" />
    <glyph glyph-name="quoteleft" unicode="&#x2018;" horiz-adv-x="473" 
d="M334 1450l-72 -215q52 -8 82.5 -43t30.5 -88q0 -61 -37 -97t-102 -36t-101.5 38t-36.5 107q0 47 23 125l69 209h144z" />
    <glyph glyph-name="quoteright" unicode="&#x2019;" horiz-adv-x="473" 
d="M139 971l72 215q-52 8 -82.5 43t-30.5 88q0 61 37.5 97t102.5 36t101 -38t36 -107q0 -47 -23 -125l-69 -209h-144z" />
    <glyph glyph-name="quotesinglbase" unicode="&#x201a;" horiz-adv-x="473" 
d="M139 -229l72 215q-52 8 -82.5 43t-30.5 88q0 61 37.5 97t102.5 36t101 -38.5t36 -107.5q0 -46 -23 -124l-69 -209h-144z" />
    <glyph glyph-name="quotedblleft" unicode="&#x201c;" horiz-adv-x="829" 
d="M334 1450l-72 -215q52 -8 82.5 -43t30.5 -88q0 -61 -37 -97t-102 -36t-101.5 38t-36.5 107q0 47 23 125l69 209h144zM690 1450l-72 -215q52 -8 82.5 -43t30.5 -88q0 -61 -37 -97t-102 -36t-101 38t-36 107q0 51 22 125l70 209h143z" />
    <glyph glyph-name="quotedblright" unicode="&#x201d;" horiz-adv-x="829" 
d="M496 971l71 215q-51 8 -81.5 42.5t-30.5 88.5q0 61 37 97t102 36t101 -38t36 -107q0 -51 -22 -125l-70 -209h-143zM139 971l72 215q-52 8 -82.5 43t-30.5 88q0 61 37.5 97t102.5 36t101 -38t36 -107q0 -47 -23 -125l-69 -209h-144z" />
    <glyph glyph-name="quotedblbase" unicode="&#x201e;" horiz-adv-x="829" 
d="M496 -229l71 215q-51 8 -81.5 42.5t-30.5 88.5q0 61 37 97t102 36t101 -38.5t36 -107.5q0 -50 -22 -124l-70 -209h-143zM139 -229l72 215q-52 8 -82.5 43t-30.5 88q0 61 37.5 97t102.5 36t101 -38.5t36 -107.5q0 -46 -23 -124l-69 -209h-144z" />
    <glyph glyph-name="dagger" unicode="&#x2020;" horiz-adv-x="1048" 
d="M57 881v192h361v361h213v-361h360v-192h-360v-881h-213v881h-361z" />
    <glyph glyph-name="daggerdbl" unicode="&#x2021;" horiz-adv-x="1089" 
d="M78 891v192h360v351h213v-351h361v-192h-361v-348h361v-193h-361v-350h-213v350h-360v193h360v348h-360z" />
    <glyph glyph-name="bullet" unicode="&#x2022;" horiz-adv-x="651" 
d="M326 391q-104 0 -168 60t-64 163t64 163.5t168 60.5q105 0 168 -60.5t63 -163.5t-63 -163t-168 -60z" />
    <glyph glyph-name="ellipsis" unicode="&#x2026;" horiz-adv-x="1421" 
d="M238 -16q-62 0 -101 36.5t-39 96.5t39 96.5t101 36.5q60 0 98.5 -36.5t38.5 -96.5t-38.5 -96.5t-98.5 -36.5zM711 -16q-62 0 -101 36.5t-39 96.5t39 96.5t101 36.5q60 0 98.5 -36.5t38.5 -96.5t-38.5 -96.5t-98.5 -36.5zM1184 -16q-62 0 -101 36.5t-39 96.5t39 96.5
t101 36.5q60 0 98.5 -36.5t38.5 -96.5t-38.5 -96.5t-98.5 -36.5z" />
    <glyph glyph-name="perthousand" unicode="&#x2030;" horiz-adv-x="2977" 
d="M459 553q-173 0 -280 121.5t-107 329.5t107 329t280 121q174 0 281.5 -121t107.5 -329t-107.5 -329.5t-281.5 -121.5zM543 0l803 1434h172l-805 -1434h-170zM459 709q102 0 161.5 79t59.5 216t-59.5 215.5t-161.5 78.5q-100 0 -159.5 -78.5t-59.5 -215.5t59.5 -216
t159.5 -79zM1597 -20q-173 0 -280 121t-107 329t107 329.5t280 121.5q174 0 282 -121.5t108 -329.5t-108 -329t-282 -121zM2517 -20q-173 0 -280 121t-107 329t107 329.5t280 121.5q174 0 281.5 -121.5t107.5 -329.5t-107.5 -329t-281.5 -121zM1597 135q102 0 162 79t60 216
t-60 216t-162 79q-100 0 -159.5 -79t-59.5 -216t59.5 -216t159.5 -79zM2517 135q102 0 161.5 79t59.5 216t-59.5 216t-161.5 79q-100 0 -159.5 -79t-59.5 -216t59.5 -216t159.5 -79z" />
    <glyph glyph-name="guilsinglleft" unicode="&#x2039;" horiz-adv-x="628" 
d="M336 160l-299 372l299 373h219l-299 -373l299 -372h-219z" />
    <glyph glyph-name="guilsinglright" unicode="&#x203a;" horiz-adv-x="628" 
d="M592 532l-299 -372h-219l299 372l-299 373h219z" />
    <glyph glyph-name="fraction" unicode="&#x2044;" horiz-adv-x="221" 
d="M-377 0l803 1434h172l-805 -1434h-170z" />
    <glyph glyph-name="uni2070" unicode="&#x2070;" horiz-adv-x="919" 
d="M459 717q-173 0 -280 121t-107 329t107 329.5t280 121.5q174 0 281.5 -121.5t107.5 -329.5t-107.5 -329t-281.5 -121zM459 872q102 0 161.5 79t59.5 216t-59.5 216t-161.5 79q-100 0 -159.5 -79t-59.5 -216t59.5 -216t159.5 -79z" />
    <glyph glyph-name="uni2074" unicode="&#x2074;" horiz-adv-x="843" 
d="M504 737v191h-451v119l416 550h203v-520h102v-149h-102v-191h-168zM254 1077h250v324h-8l-242 -316v-8z" />
    <glyph glyph-name="uni2075" unicode="&#x2075;" horiz-adv-x="856" 
d="M432 717q-139 0 -233 69.5t-109 180.5h164q36 -105 178 -105q85 0 132.5 42.5t47.5 111.5q0 70 -47.5 112.5t-132.5 42.5q-106 0 -166 -69h-166l58 495h567v-149h-426l-20 -182h8q79 47 178 47q131 0 223 -82.5t92 -214.5q0 -133 -97.5 -216t-250.5 -83z" />
    <glyph glyph-name="uni2076" unicode="&#x2076;" horiz-adv-x="849" 
d="M449 717q-101 0 -176 38t-117.5 103.5t-63 142.5t-20.5 166q0 66 11 127.5t38.5 121.5t68 104t105 71t145.5 27q133 0 219 -65.5t105 -178.5h-168q-14 46 -53.5 72.5t-100.5 26.5q-203 0 -211 -295h9q81 120 233 120q138 0 228 -81.5t90 -208.5q0 -133 -95 -212t-247 -79
zM449 862q80 0 127 38t47 108t-47 107.5t-127 37.5t-126.5 -37.5t-46.5 -107.5q0 -71 46.5 -108.5t126.5 -37.5z" />
    <glyph glyph-name="uni2077" unicode="&#x2077;" horiz-adv-x="722" 
d="M141 737l330 695v8h-430v157h641v-102l-356 -758h-185z" />
    <glyph glyph-name="uni2078" unicode="&#x2078;" horiz-adv-x="864" 
d="M432 717q-77 0 -142 15.5t-116.5 46t-81 82t-29.5 118.5q0 155 168 209v8q-137 53 -137 184q0 77 47 132t122 80.5t169 25.5t168.5 -25.5t121 -80.5t46.5 -132q0 -132 -135 -184v-8q168 -55 168 -209q0 -67 -29.5 -118.5t-81 -82t-116.5 -46t-142 -15.5zM602 1368
q0 54 -46 81.5t-124 27.5t-124 -27.5t-46 -81.5t46.5 -81t123.5 -27t123.5 27t46.5 81zM633 987q0 131 -201 131t-201 -131q0 -70 51.5 -99.5t149.5 -29.5t149.5 29.5t51.5 99.5z" />
    <glyph glyph-name="uni2079" unicode="&#x2079;" horiz-adv-x="849" 
d="M401 1618q81 0 146 -25.5t107.5 -68t71 -101.5t40.5 -122.5t12 -133.5q0 -66 -11 -127.5t-38.5 -121t-68 -103.5t-105 -71t-145.5 -27q-133 0 -219 65.5t-105 178.5h168q14 -46 53.5 -72.5t100.5 -26.5q98 0 152 70t58 225h-8q-81 -121 -233 -121q-138 0 -228 82t-90 209
q0 133 95 212t247 79zM401 1473q-80 0 -127 -38t-47 -108t47 -107.5t127 -37.5t126 37t46 108t-46 108.5t-126 37.5z" />
    <glyph glyph-name="uni2080" unicode="&#x2080;" horiz-adv-x="919" 
d="M459 -184q-173 0 -280 121t-107 329t107 329.5t280 121.5q174 0 281.5 -121.5t107.5 -329.5t-107.5 -329t-281.5 -121zM459 -29q102 0 161.5 79t59.5 216t-59.5 216t-161.5 79q-100 0 -159.5 -79t-59.5 -216t59.5 -216t159.5 -79z" />
    <glyph glyph-name="uni2081" unicode="&#x2081;" horiz-adv-x="598" 
d="M283 -164v662l-193 -97l-57 144l311 151h107v-860h-168z" />
    <glyph glyph-name="uni2082" unicode="&#x2082;" horiz-adv-x="790" 
d="M59 -164v123l414 369q72 67 72 135q0 102 -142 102q-75 0 -120 -34t-54 -101h-170q6 80 37.5 138t81 89.5t105 45.5t120.5 14q142 0 226 -64t84 -184q0 -43 -11 -80.5t-34.5 -69.5t-45 -54t-55.5 -52l-239 -215v-8h385v-154h-654z" />
    <glyph glyph-name="uni2083" unicode="&#x2083;" horiz-adv-x="831" 
d="M428 -184q-71 0 -132 15t-112 45.5t-82.5 83t-35.5 122.5h167q6 -58 62 -89.5t133 -31.5q71 0 122.5 30t51.5 91q0 55 -44 89t-136 34h-115v147h111q164 0 164 113q0 106 -162 106q-71 0 -121.5 -28.5t-56.5 -91.5h-168q6 74 36.5 127.5t80 83t106 42.5t123.5 13
q146 0 238 -59.5t92 -176.5q0 -127 -123 -182v-8q141 -60 141 -217q0 -126 -95.5 -192t-244.5 -66z" />
    <glyph glyph-name="uni2084" unicode="&#x2084;" horiz-adv-x="843" 
d="M504 -164v191h-451v118l416 551h203v-520h102v-149h-102v-191h-168zM254 176h250v324h-8l-242 -316v-8z" />
    <glyph glyph-name="uni2085" unicode="&#x2085;" horiz-adv-x="856" 
d="M432 -184q-139 0 -233 69.5t-109 180.5h164q36 -105 178 -105q85 0 132.5 42.5t47.5 111.5q0 70 -47.5 112.5t-132.5 42.5q-106 0 -166 -69h-166l58 495h567v-149h-426l-20 -182h8q79 47 178 47q131 0 223 -82.5t92 -214.5q0 -133 -97.5 -216t-250.5 -83z" />
    <glyph glyph-name="uni2086" unicode="&#x2086;" horiz-adv-x="849" 
d="M449 -184q-101 0 -176 38t-117.5 103.5t-63 142.5t-20.5 166q0 66 11 127.5t38.5 121.5t68 104t105 71t145.5 27q133 0 219 -65.5t105 -178.5h-168q-14 46 -53.5 72t-100.5 26q-203 0 -211 -295h9q81 121 233 121q138 0 228 -82t90 -209q0 -133 -95 -211.5t-247 -78.5z
M449 -39q80 0 127 37.5t47 107.5t-47 108t-127 38t-126.5 -37.5t-46.5 -108.5q0 -70 46.5 -107.5t126.5 -37.5z" />
    <glyph glyph-name="uni2087" unicode="&#x2087;" horiz-adv-x="722" 
d="M141 -164l330 694v9h-430v157h641v-102l-356 -758h-185z" />
    <glyph glyph-name="uni2088" unicode="&#x2088;" horiz-adv-x="864" 
d="M432 -184q-77 0 -142 15.5t-116.5 46t-81 82t-29.5 118.5q0 155 168 209v8q-137 53 -137 184q0 77 47 132t122 80.5t169 25.5t168.5 -25.5t121 -80.5t46.5 -132q0 -132 -135 -184v-8q168 -55 168 -209q0 -67 -29.5 -118.5t-81 -82t-116.5 -46t-142 -15.5zM602 467
q0 54 -46 81t-124 27t-124 -27t-46 -81t47 -81.5t123 -27.5t123 27.5t47 81.5zM633 86q0 131 -201 131t-201 -131q0 -70 51.5 -99.5t149.5 -29.5t149.5 29.5t51.5 99.5z" />
    <glyph glyph-name="uni2089" unicode="&#x2089;" horiz-adv-x="849" 
d="M401 717q81 0 146 -25.5t107.5 -68t71 -101.5t40.5 -122.5t12 -133.5q0 -66 -11 -127.5t-38.5 -121t-68 -103.5t-105 -71t-145.5 -27q-133 0 -219 65t-105 178h168q14 -46 53.5 -72t100.5 -26q98 0 152 70t58 225h-8q-81 -121 -233 -121q-138 0 -228 82t-90 209
q0 133 95 212t247 79zM401 571q-80 0 -127 -37.5t-47 -107.5t47 -107.5t127 -37.5t126 37t46 108t-46 108t-126 37z" />
    <glyph glyph-name="lira" unicode="&#x20a4;" horiz-adv-x="1415" 
d="M152 848h153q-31 105 -31 190q0 197 128.5 308.5t355.5 111.5q237 0 369 -120.5t157 -321.5h-217q-25 122 -96 186t-213 64q-271 0 -271 -228q0 -80 35 -190h502v-164h-872v164zM152 401v164h872v-164h-485q-32 -91 -113 -196v-8h858v-197h-1132v147q111 119 167 254
h-167z" />
    <glyph glyph-name="Euro" unicode="&#x20ac;" horiz-adv-x="1484" 
d="M799 1458q225 0 368.5 -131.5t180.5 -376.5h-222q-58 316 -327 316q-270 0 -334 -318h416v-174h-799v174h168q44 240 182 375t367 135zM799 -25q-229 0 -367 135t-182 375h-168v174h799v-174h-416q64 -317 334 -317q269 0 327 315h222q-37 -245 -180.5 -376.5
t-368.5 -131.5z" />
    <glyph glyph-name="uni20B4" unicode="&#x20b4;" horiz-adv-x="1529" 
d="M131 946h848q72 61 72 148q0 176 -267 176q-98 0 -160.5 -25.5t-92.5 -68t-48 -111.5h-217q17 133 89.5 223t180 130t248.5 40q95 0 178.5 -19t152.5 -57t109 -101.5t40 -145.5q0 -101 -68 -181v-8h203v-162h-1268v162zM766 -25q-112 0 -209 21.5t-173 63.5t-119.5 108.5
t-43.5 150.5q0 105 66 181v8h-156v162h1268v-162h-907q-60 -64 -60 -137q0 -60 29.5 -102.5t80.5 -64.5t105.5 -31t118.5 -9q148 0 235 52.5t111 172.5h217q-25 -207 -174.5 -310.5t-388.5 -103.5z" />
    <glyph glyph-name="uni20B8" unicode="&#x20b8;" horiz-adv-x="1499" 
d="M152 1434h1196v-181h-1196v181zM643 0v952h-491v183h1196v-183h-492v-952h-213z" />
    <glyph glyph-name="uni20B9" unicode="&#x20b9;" horiz-adv-x="1388" 
d="M156 1434h1081v-172h-1081v172zM774 0l-332 557h-286v191h395q122 0 191 60.5t75 164.5h-661v174h1081v-174h-207q-6 -163 -102 -267.5t-252 -134.5l340 -571h-242z" />
    <glyph glyph-name="uni20BD" unicode="&#x20bd;" horiz-adv-x="1423" 
d="M821 586h-719v180h179v668h540q219 0 353.5 -114t134.5 -310t-134.5 -310t-353.5 -114zM494 1253v-487h327q133 0 204 69t71 175t-71 174.5t-204 68.5h-327zM102 289v182h881v-182h-489v-289h-213v289h-179z" />
    <glyph glyph-name="uni20BF" unicode="&#x20bf;" horiz-adv-x="1441" 
d="M225 0v1434h201v204h180v-204h180v204h181v-221q143 -31 226 -123.5t83 -226.5q0 -104 -50 -186t-141 -136v-8q105 -43 169.5 -141t64.5 -217q0 -145 -94 -247t-258 -126v-211h-181v205h-180v-205h-180v205h-201zM436 817h367q121 0 191.5 57.5t70.5 155.5
q0 99 -70.5 157t-191.5 58h-367v-428zM436 188h400q131 0 200.5 60.5t69.5 159.5q0 100 -72.5 159.5t-206.5 59.5h-391v-439z" />
    <glyph glyph-name="uni2103" unicode="&#x2103;" horiz-adv-x="2492" 
d="M1683 -25q-208 0 -372.5 94t-257 263.5t-92.5 384.5q0 161 54 299.5t149 235t229 151.5t290 55q262 0 446.5 -144.5t246.5 -389.5h-222q-57 160 -178.5 251t-292.5 91q-224 0 -366.5 -153t-142.5 -396t142.5 -396t366.5 -153q171 0 292.5 91t178.5 251h222
q-62 -245 -246.5 -390t-446.5 -145zM416 735q-161 0 -266 102t-105 259q0 156 104.5 257t266.5 101t267 -101t105 -257q0 -157 -105.5 -259t-266.5 -102zM623 1096q0 88 -57.5 145t-149.5 57t-149.5 -57t-57.5 -145t57.5 -145.5t149.5 -57.5t149.5 57.5t57.5 145.5z" />
    <glyph glyph-name="uni2109" unicode="&#x2109;" horiz-adv-x="2273" 
d="M416 735q-161 0 -266 102t-105 259q0 156 104.5 257t266.5 101t267 -101t105 -257q0 -157 -105.5 -259t-266.5 -102zM1247 608v-608h-211v1434h1123v-193h-912v-442h813v-191h-813zM623 1096q0 88 -57.5 145t-149.5 57t-149.5 -57t-57.5 -145t57.5 -145.5t149.5 -57.5
t149.5 57.5t57.5 145.5z" />
    <glyph glyph-name="uni2116" unicode="&#x2116;" horiz-adv-x="2562" 
d="M2075 735q-161 0 -266 102t-105 259q0 156 104.5 257t266.5 101t267 -101t105 -257q0 -157 -105.5 -259t-266.5 -102zM1470 1434v-1434h-268l-778 1130h-8v-1130h-211v1434h266l778 -1131h8v1131h213zM2281 1096q0 88 -57 145t-149 57t-149.5 -57t-57.5 -145t57.5 -145.5
t149.5 -57.5q91 0 148.5 57.5t57.5 145.5zM1726 451v157h699v-157h-699z" />
    <glyph glyph-name="trademark" unicode="&#x2122;" horiz-adv-x="1744" 
d="M-8 1307v127h659v-127h-260v-541h-139v541h-260zM1137 766l-219 473h-9v-473h-139v668h197l221 -480h8l221 480h197v-668h-139v473h-9l-217 -473h-112z" />
    <glyph glyph-name="uni2150" unicode="&#x2150;" horiz-adv-x="1699" 
d="M283 573v662l-193 -96l-57 143l311 152h107v-861h-168zM266 0l803 1434h172l-805 -1434h-170zM1118 0l330 694v8h-430v158h641v-102l-356 -758h-185z" />
    <glyph glyph-name="uni2151" unicode="&#x2151;" horiz-adv-x="1736" 
d="M283 573v662l-193 -96l-57 143l311 152h107v-861h-168zM266 0l803 1434h172l-805 -1434h-170zM1288 881q81 0 146 -25.5t107.5 -68t71 -101.5t40.5 -122.5t12 -133.5q0 -66 -11.5 -127.5t-38.5 -121t-68 -103.5t-105.5 -71t-145.5 -27q-133 0 -218.5 65t-104.5 178h168
q30 -98 153 -98q203 0 211 295h-8q-81 -121 -233 -121q-138 0 -228 82t-90 209q0 133 95 212t247 79zM1288 735q-80 0 -127 -37.5t-47 -107.5t47 -108t127 -38t126 37.5t46 108.5t-46 108t-126 37z" />
    <glyph glyph-name="uni2152" unicode="&#x2152;" horiz-adv-x="2420" 
d="M283 573v662l-193 -96l-57 143l311 152h107v-861h-168zM266 0l803 1434h172l-805 -1434h-170zM1960 -20q-173 0 -280 121t-107 329t107 329.5t280 121.5q174 0 281.5 -121.5t107.5 -329.5t-107.5 -329t-281.5 -121zM1186 0v662l-193 -97l-57 144l311 151h107v-860h-168z
M1960 135q102 0 161.5 79t59.5 216t-59.5 216t-161.5 79q-100 0 -159.5 -79t-59.5 -216t59.5 -216t159.5 -79z" />
    <glyph glyph-name="onethird" unicode="&#x2153;" horiz-adv-x="1722" 
d="M283 573v662l-193 -96l-57 143l311 152h107v-861h-168zM266 0l803 1434h172l-805 -1434h-170zM1319 -20q-71 0 -132.5 15t-112.5 45.5t-82.5 83t-35.5 122.5h168q6 -58 62 -89.5t133 -31.5q71 0 122.5 30t51.5 91q0 55 -44 89t-136 34h-115v147h111q164 0 164 113
q0 106 -162 106q-71 0 -121.5 -29t-56.5 -92h-168q6 74 36.5 127.5t80 83t106 43t123.5 13.5q145 0 237 -59.5t92 -176.5q0 -128 -122 -182v-8q141 -60 141 -217q0 -126 -95.5 -192t-244.5 -66z" />
    <glyph glyph-name="twothirds" unicode="&#x2154;" horiz-adv-x="1937" 
d="M59 573v123l414 369q72 67 72 135q0 56 -41 79.5t-101 23.5q-74 0 -119.5 -34.5t-54.5 -101.5h-170q6 80 37.5 138t81 89.5t105 45.5t120.5 14q142 0 226 -64t84 -184q0 -43 -11 -80.5t-34.5 -69.5t-45 -54t-55.5 -52l-239 -215v-8h385v-154h-654zM479 0l803 1434h172
l-805 -1434h-170zM1534 -20q-71 0 -132.5 15t-112.5 45.5t-82.5 83t-35.5 122.5h168q6 -58 62 -89.5t133 -31.5q71 0 122.5 30t51.5 91q0 55 -44 89t-136 34h-115v147h111q164 0 164 113q0 106 -162 106q-71 0 -121.5 -29t-56.5 -92h-168q6 74 36.5 127.5t80 83t106 43
t123.5 13.5q145 0 237 -59.5t92 -176.5q0 -128 -122 -182v-8q141 -60 141 -217q0 -126 -95.5 -192t-244.5 -66z" />
    <glyph glyph-name="uni2155" unicode="&#x2155;" horiz-adv-x="1720" 
d="M283 573v662l-193 -96l-57 143l311 152h107v-861h-168zM266 0l803 1434h172l-805 -1434h-170zM1294 -20q-139 0 -233 69t-109 180h164q35 -104 178 -104q85 0 133 42.5t48 111.5q0 70 -48 112.5t-133 42.5q-106 0 -166 -69h-165l57 495h567v-149h-426l-20 -183h8
q79 47 178 47q131 0 223 -82t92 -214q0 -133 -97.5 -216t-250.5 -83z" />
    <glyph glyph-name="uni2156" unicode="&#x2156;" horiz-adv-x="1933" 
d="M59 573v123l414 369q72 67 72 135q0 56 -41 79.5t-101 23.5q-74 0 -119.5 -34.5t-54.5 -101.5h-170q6 80 37.5 138t81 89.5t105 45.5t120.5 14q142 0 226 -64t84 -184q0 -43 -11 -80.5t-34.5 -69.5t-45 -54t-55.5 -52l-239 -215v-8h385v-154h-654zM479 0l803 1434h172
l-805 -1434h-170zM1509 -20q-139 0 -233 69t-109 180h164q35 -104 178 -104q85 0 133 42.5t48 111.5q0 70 -48 112.5t-133 42.5q-106 0 -166 -69h-165l57 495h567v-149h-426l-20 -183h8q79 47 178 47q131 0 223.5 -82.5t92.5 -213.5q0 -133 -98 -216t-251 -83z" />
    <glyph glyph-name="uni2157" unicode="&#x2157;" horiz-adv-x="1953" 
d="M428 553q-71 0 -132 15t-112 45.5t-82.5 83t-35.5 122.5h167q6 -58 62 -89.5t133 -31.5q71 0 122.5 30t51.5 91q0 55 -44 89t-136 34h-115v148h111q164 0 164 112q0 41 -27 66.5t-60 33t-75 7.5q-71 0 -121.5 -29t-56.5 -92h-168q6 74 36.5 127.5t80 83t106 42.5
t123.5 13q146 0 238 -59t92 -176q0 -128 -123 -183v-8q141 -60 141 -217q0 -126 -95.5 -192t-244.5 -66zM500 0l803 1434h172l-805 -1434h-170zM1530 -20q-139 0 -233 69t-109 180h164q35 -104 178 -104q85 0 132.5 42.5t47.5 111.5q0 70 -47.5 112.5t-132.5 42.5
q-106 0 -166 -69h-166l57 495h568v-149h-426l-21 -183h8q79 47 179 47q131 0 223 -82t92 -214q0 -133 -97.5 -216t-250.5 -83z" />
    <glyph glyph-name="uni2158" unicode="&#x2158;" horiz-adv-x="1961" 
d="M504 573v191h-451v119l416 551h203v-521h102v-149h-102v-191h-168zM508 0l803 1434h172l-805 -1434h-170zM254 913h250v324h-8l-242 -315v-9zM1538 -20q-139 0 -233 69t-109 180h164q35 -104 178 -104q85 0 132.5 42.5t47.5 111.5q0 70 -47.5 112.5t-132.5 42.5
q-106 0 -166 -69h-166l58 495h567v-149h-426l-21 -183h9q79 47 178 47q131 0 223 -82t92 -214q0 -133 -97.5 -216t-250.5 -83z" />
    <glyph glyph-name="uni2159" unicode="&#x2159;" horiz-adv-x="1712" 
d="M283 573v662l-193 -96l-57 143l311 152h107v-861h-168zM266 0l803 1434h172l-805 -1434h-170zM1311 -20q-101 0 -176 38t-117.5 103.5t-63 142.5t-20.5 166q0 66 11.5 127.5t38.5 121.5t68 104t105.5 71t145.5 27q133 0 218.5 -65.5t104.5 -178.5h-168q-30 98 -153 98
q-203 0 -211 -295h8q81 121 233 121q138 0 228 -82t90 -209q0 -133 -95 -211.5t-247 -78.5zM1311 125q80 0 127 37.5t47 107.5t-47 108t-127 38t-126 -37.5t-46 -108.5t46 -108t126 -37z" />
    <glyph glyph-name="uni215A" unicode="&#x215a;" horiz-adv-x="1951" 
d="M432 553q-139 0 -233 69.5t-109 180.5h164q36 -105 178 -105q85 0 132.5 42.5t47.5 111.5q0 70 -47.5 113t-132.5 43q-105 0 -166 -70h-166l58 496h567v-150h-426l-20 -182h8q79 47 178 47q131 0 223 -82.5t92 -214.5q0 -133 -97.5 -216t-250.5 -83zM504 0l803 1434h172
l-805 -1434h-170zM1550 -20q-81 0 -146 25.5t-107 68t-70.5 101t-40.5 122t-12 133.5q0 66 11 127.5t38.5 121.5t68 104t105 71t145.5 27q133 0 219 -65.5t105 -178.5h-168q-14 46 -53.5 72t-100.5 26q-203 0 -211 -295h8q81 121 234 121q138 0 227.5 -82t89.5 -209
q0 -133 -95 -211.5t-247 -78.5zM1550 125q80 0 127 37.5t47 107.5t-47 108t-127 38t-126 -37.5t-46 -108.5t46 -108t126 -37z" />
    <glyph glyph-name="oneeighth" unicode="&#x215b;" horiz-adv-x="1767" 
d="M283 573v662l-193 -96l-57 143l311 152h107v-861h-168zM266 0l803 1434h172l-805 -1434h-170zM1335 -20q-77 0 -142 15.5t-116.5 46t-80.5 82t-29 118.5q0 155 168 209v8q-138 53 -138 184q0 77 47 132t122 80.5t169 25.5t168.5 -25.5t121 -80.5t46.5 -132
q0 -132 -135 -184v-8q168 -55 168 -209q0 -67 -29.5 -118.5t-81 -82t-116.5 -46t-142 -15.5zM1505 631q0 54 -46 81t-124 27t-124 -27t-46 -81t47 -81.5t123 -27.5t123 27.5t47 81.5zM1536 250q0 131 -201 131q-200 0 -200 -131q0 -70 51 -99.5t149 -29.5t149.5 29.5
t51.5 99.5z" />
    <glyph glyph-name="threeeighths" unicode="&#x215c;" horiz-adv-x="2000" 
d="M428 553q-71 0 -132 15t-112 45.5t-82.5 83t-35.5 122.5h167q6 -58 62 -89.5t133 -31.5q71 0 122.5 30t51.5 91q0 55 -44 89t-136 34h-115v148h111q164 0 164 112q0 41 -27 66.5t-60 33t-75 7.5q-71 0 -121.5 -29t-56.5 -92h-168q6 74 36.5 127.5t80 83t106 42.5
t123.5 13q146 0 238 -59t92 -176q0 -128 -123 -183v-8q141 -60 141 -217q0 -126 -95.5 -192t-244.5 -66zM500 0l803 1434h172l-805 -1434h-170zM1571 -20q-77 0 -142 15.5t-116.5 46t-81 82t-29.5 118.5q0 155 168 209v8q-137 53 -137 184q0 77 47 132t122 80.5t169 25.5
t168.5 -25.5t121 -80.5t46.5 -132q0 -132 -135 -184v-8q167 -55 167 -209q0 -67 -29 -118.5t-80.5 -82t-116.5 -46t-142 -15.5zM1741 631q0 54 -46 81t-124 27t-124 -27t-46 -81t47 -81.5t123 -27.5t123 27.5t47 81.5zM1772 250q0 131 -201 131t-201 -131q0 -70 51.5 -99.5
t149.5 -29.5t149.5 29.5t51.5 99.5z" />
    <glyph glyph-name="fiveeighths" unicode="&#x215d;" horiz-adv-x="2007" 
d="M432 553q-139 0 -233 69.5t-109 180.5h164q36 -105 178 -105q85 0 132.5 42.5t47.5 111.5q0 70 -47.5 113t-132.5 43q-105 0 -166 -70h-166l58 496h567v-150h-426l-20 -182h8q79 47 178 47q131 0 223 -82.5t92 -214.5q0 -133 -97.5 -216t-250.5 -83zM504 0l803 1434h172
l-805 -1434h-170zM1575 -20q-77 0 -142 15.5t-116.5 46t-81 82t-29.5 118.5q0 155 168 209v8q-137 53 -137 184q0 77 47 132t122 80.5t169 25.5t168.5 -25.5t121 -80.5t46.5 -132q0 -132 -135 -184v-8q168 -55 168 -209q0 -67 -29.5 -118.5t-81 -82t-116.5 -46t-142 -15.5z
M1745 631q0 54 -46 81t-124 27t-124 -27t-46 -81t47 -81.5t123 -27.5t123 27.5t47 81.5zM1776 250q0 131 -201 131t-201 -131q0 -70 51.5 -99.5t149.5 -29.5t149.5 29.5t51.5 99.5z" />
    <glyph glyph-name="seveneighths" unicode="&#x215e;" horiz-adv-x="1765" 
d="M141 573l330 695v8h-430v158h641v-103l-356 -758h-185zM264 0l803 1434h172l-805 -1434h-170zM1333 -20q-77 0 -142 15.5t-116.5 46t-80.5 82t-29 118.5q0 155 168 209v8q-138 53 -138 184q0 77 47 132t122 80.5t169 25.5t168.5 -25.5t121 -80.5t46.5 -132
q0 -132 -135 -184v-8q168 -55 168 -209q0 -67 -29.5 -118.5t-81 -82t-116.5 -46t-142 -15.5zM1503 631q0 54 -46 81t-124 27t-124 -27t-46 -81t47 -81.5t123 -27.5t123 27.5t47 81.5zM1534 250q0 131 -201 131q-200 0 -200 -131q0 -70 51 -99.5t149 -29.5t149.5 29.5
t51.5 99.5z" />
    <glyph glyph-name="uni215F" unicode="&#x215f;" horiz-adv-x="862" 
d="M283 573v662l-193 -96l-57 143l311 152h107v-861h-168zM266 0l803 1434h172l-805 -1434h-170z" />
    <glyph glyph-name="uni2189" unicode="&#x2189;" horiz-adv-x="1998" 
d="M459 553q-173 0 -280 121.5t-107 329.5t107 329t280 121q174 0 281.5 -121t107.5 -329t-107.5 -329.5t-281.5 -121.5zM543 0l803 1434h172l-805 -1434h-170zM459 709q102 0 161.5 79t59.5 216t-59.5 215.5t-161.5 78.5q-100 0 -159.5 -78.5t-59.5 -215.5t59.5 -216
t159.5 -79zM1595 -20q-71 0 -132 15t-112 45.5t-82.5 83t-35.5 122.5h168q6 -58 61.5 -89.5t132.5 -31.5q71 0 122.5 30t51.5 91q0 55 -44 89t-136 34h-114v147h110q164 0 164 113q0 106 -162 106q-71 0 -121.5 -29t-56.5 -92h-168q6 74 36.5 127.5t80 83t106 43t123.5 13.5
q146 0 238 -59.5t92 -176.5q0 -127 -123 -182v-8q141 -60 141 -217q0 -126 -95.5 -192t-244.5 -66z" />
    <glyph glyph-name="arrowleft" unicode="&#x2190;" horiz-adv-x="1617" 
d="M1511 414h-1128v-8l346 -406h-242l-434 514l434 514h242l-346 -407v-9h1128v-198z" />
    <glyph glyph-name="arrowup" unicode="&#x2191;" horiz-adv-x="1150" 
d="M475 0v1128h-8l-406 -346v242l514 434l515 -434v-242l-408 346h-8v-1128h-199z" />
    <glyph glyph-name="arrowright" unicode="&#x2192;" horiz-adv-x="1617" 
d="M1235 414h-1129v198h1129v9l-346 407h241l435 -514l-435 -514h-241l346 406v8z" />
    <glyph glyph-name="arrowdown" unicode="&#x2193;" horiz-adv-x="1150" 
d="M475 305v1129h199v-1129h8l408 346v-241l-515 -435l-514 435v241l406 -346h8z" />
    <glyph glyph-name="arrowboth" unicode="&#x2194;" horiz-adv-x="2000" 
d="M731 0h-244l-434 514l434 514h244l-348 -407v-9h1235v9l-348 407h241l437 -514l-437 -514h-241l348 406v8h-1235v-8z" />
    <glyph glyph-name="arrowupdn" unicode="&#x2195;" horiz-adv-x="1224" 
d="M98 0v242l406 -346h8v1232h-8l-406 -346v242l514 434l514 -434v-242l-407 346h-8v-1232h8l407 346v-242l-514 -434z" />
    <glyph glyph-name="uni2196" unicode="&#x2196;" horiz-adv-x="1703" 
d="M1458 -25l-1143 1143l-4 -4v-557l-176 176v701h701l176 -177h-557l-4 -4l1142 -1142z" />
    <glyph glyph-name="uni2197" unicode="&#x2197;" horiz-adv-x="1703" 
d="M1389 1118l-1143 -1143l-135 136l1142 1142l-4 4h-557l176 177h701v-701l-176 -176v557z" />
    <glyph glyph-name="uni2198" unicode="&#x2198;" horiz-adv-x="1703" 
d="M246 1458l1143 -1143l4 4v558l176 -177v-700h-701l-176 176h557l4 4l-1142 1143z" />
    <glyph glyph-name="uni2199" unicode="&#x2199;" horiz-adv-x="1703" 
d="M307 315l1143 1143l135 -135l-1143 -1143l4 -4h558l-177 -176h-700v700l176 177v-558z" />
    <glyph glyph-name="uni21E4" unicode="&#x21e4;" horiz-adv-x="1705" 
d="M350 0h-184v1028h184v-1028zM1599 414h-837v-8l348 -406h-244l-434 514l434 514h244l-348 -407v-9h837v-198z" />
    <glyph glyph-name="uni21E5" unicode="&#x21e5;" horiz-adv-x="1705" 
d="M1356 1028h184v-1028h-184v1028zM106 614h838v9l-348 405h244l434 -514l-434 -514h-244l348 408v8h-838v198z" />
    <glyph glyph-name="minus" unicode="&#x2212;" horiz-adv-x="1179" 
d="M78 524v181h1024v-181h-1024z" />
    <glyph glyph-name="approxequal" unicode="&#x2248;" horiz-adv-x="1228" 
d="M406 975q72 0 134 -25.5t98.5 -55.5t86 -55.5t100.5 -25.5q71 0 110 39t42 102h162q-7 -156 -93.5 -235.5t-222.5 -79.5q-59 0 -110 16.5t-87 40.5t-69.5 48t-72.5 40.5t-81 16.5q-69 0 -107.5 -39.5t-41.5 -102.5h-164q9 157 95 236.5t221 79.5zM406 590q72 0 134 -25.5
t98.5 -55.5t86 -55.5t100.5 -25.5q71 0 110 39t42 102h162q-7 -156 -93.5 -235.5t-222.5 -79.5q-59 0 -110 16.5t-87 40.5t-69.5 48t-72.5 40.5t-81 16.5q-69 0 -107.5 -39.5t-41.5 -102.5h-164q9 157 95 236.5t221 79.5z" />
    <glyph glyph-name="notequal" unicode="&#x2260;" horiz-adv-x="1220" 
d="M98 887h574l151 243h211l-151 -243h239v-174h-342l-127 -205h469v-174h-571l-152 -244h-211l152 244h-242v174h344l127 205h-471v174z" />
    <glyph glyph-name="lessequal" unicode="&#x2264;" horiz-adv-x="1183" 
d="M98 643v148l967 348v-189l-666 -229v-8l666 -230v-188zM98 0v178h967v-178h-967z" />
    <glyph glyph-name="greaterequal" unicode="&#x2265;" horiz-adv-x="1183" 
d="M1085 791v-148l-966 -348v188l665 230v8l-665 229v189zM1085 178v-178h-966v178h966z" />
    <glyph glyph-name="circle" unicode="&#x25cb;" horiz-adv-x="2054" 
d="M1028 -168q-192 0 -358 64.5t-285.5 179t-187.5 280.5t-68 361t68 361t187.5 280.5t285.5 179t358 64.5t357.5 -64.5t284.5 -179t187 -280.5t68 -361t-68 -361t-187 -280.5t-284.5 -179t-357.5 -64.5zM1028 -20q214 0 381 93t259.5 261t92.5 383t-92.5 383t-259.5 261
t-381 93q-215 0 -382 -93t-259 -260.5t-92 -383.5t92 -383.5t259 -260.5t382 -93z" />
    <glyph glyph-name="uni25CF" unicode="&#x25cf;" horiz-adv-x="2054" 
d="M1028 -168q-192 0 -358 64.5t-285.5 179t-187.5 280.5t-68 361t68 361t187.5 280.5t285.5 179t358 64.5t357.5 -64.5t284.5 -179t187 -280.5t68 -361t-68 -361t-187 -280.5t-284.5 -179t-357.5 -64.5z" />
    <glyph glyph-name="uni262E" unicode="&#x262e;" horiz-adv-x="1767" 
d="M885 -25q-161 0 -299.5 52t-240 146.5t-159 234.5t-57.5 309q0 224 99.5 394t270.5 258.5t386 88.5q161 0 299 -52t238.5 -146t158 -234t57.5 -309t-57.5 -309t-158 -234.5t-238.5 -146.5t-299 -52zM379 387l422 424v494q-229 -25 -367.5 -181.5t-138.5 -406.5
q0 -193 84 -330zM967 1305v-494l424 -424q84 143 84 330q0 250 -138.5 406.5t-369.5 181.5zM801 129v471l-330 -330q128 -119 330 -141zM1296 270l-329 330v-471q197 21 329 141z" />
    <glyph glyph-name="uni2639" unicode="&#x2639;" horiz-adv-x="2054" 
d="M1028 -168q-192 0 -358 64.5t-285.5 179t-187.5 280.5t-68 361t68 361t187.5 280.5t285.5 179t358 64.5t357.5 -64.5t284.5 -179t187 -280.5t68 -361t-68 -361t-187 -280.5t-284.5 -179t-357.5 -64.5zM1028 -20q214 0 381 93t259.5 261t92.5 383t-92.5 383t-259.5 261
t-381 93q-215 0 -382 -93t-259 -260.5t-92 -383.5t92 -383.5t259 -260.5t382 -93zM1303 848q-59 0 -97.5 35.5t-38.5 91.5t38.5 91.5t97.5 35.5t97 -35t38 -92t-38 -92t-97 -35zM752 848q-59 0 -97.5 35.5t-38.5 91.5t38.5 91.5t97.5 35.5t97 -35t38 -92t-38 -92t-97 -35z
M1516 311h-166q-24 114 -103 186t-219 72q-141 0 -219 -72t-102 -186h-166q32 187 154.5 296.5t332.5 109.5q209 0 331.5 -109.5t156.5 -296.5z" />
    <glyph glyph-name="smileface" unicode="&#x263a;" horiz-adv-x="2054" 
d="M1028 -168q-192 0 -358 64.5t-285.5 179t-187.5 280.5t-68 361t68 361t187.5 280.5t285.5 179t358 64.5t357.5 -64.5t284.5 -179t187 -280.5t68 -361t-68 -361t-187 -280.5t-284.5 -179t-357.5 -64.5zM1028 -20q214 0 381 93t259.5 261t92.5 383t-92.5 383t-259.5 261
t-381 93q-215 0 -382 -93t-259 -260.5t-92 -383.5t92 -383.5t259 -260.5t382 -93zM1303 848q-59 0 -97.5 35.5t-38.5 91.5t38.5 91.5t97.5 35.5t97 -35t38 -92t-38 -92t-97 -35zM752 848q-59 0 -97.5 35.5t-38.5 91.5t38.5 91.5t97.5 35.5t97 -35t38 -92t-38 -92t-97 -35z
M1350 635h166q-34 -187 -156.5 -296.5t-331.5 -109.5q-210 0 -332.5 109.5t-154.5 296.5h164q26 -115 104.5 -186.5t218.5 -71.5t219 72t103 186z" />
    <glyph glyph-name="invsmileface" unicode="&#x263b;" horiz-adv-x="2054" 
d="M1028 -168q-192 0 -358 64.5t-285.5 179t-187.5 280.5t-68 361t68 361t187.5 280.5t285.5 179t358 64.5t357.5 -64.5t284.5 -179t187 -280.5t68 -361t-68 -361t-187 -280.5t-284.5 -179t-357.5 -64.5zM1303 848q59 0 97 35t38 92t-38 92t-97 35t-97.5 -35.5t-38.5 -91.5
t38.5 -91.5t97.5 -35.5zM752 848q59 0 97 35t38 92t-38 92t-97 35t-97.5 -35.5t-38.5 -91.5t38.5 -91.5t97.5 -35.5zM705 635h-164q32 -187 154.5 -296.5t332.5 -109.5q209 0 331.5 109.5t156.5 296.5h-166q-24 -114 -103 -186t-219 -72t-218.5 71.5t-104.5 186.5z" />
    <glyph glyph-name="uni2661" unicode="&#x2661;" horiz-adv-x="1900" 
d="M1528 508l-578 -533l-577 533q-258 236 -258 491q0 201 136.5 329t334.5 128q114 0 207 -44t157 -112q64 68 157.5 112t207.5 44q198 0 334.5 -128t136.5 -329q0 -255 -258 -491zM532 631l418 -391l418 391q205 186 205 358q0 113 -76.5 193t-200.5 80q-190 0 -346 -220
q-156 220 -346 220q-124 0 -200 -80t-76 -193q0 -173 204 -358z" />
    <glyph glyph-name="heart" unicode="&#x2665;" horiz-adv-x="1867" 
d="M1511 508l-577 -537l-578 537q-241 220 -241 487q0 204 129.5 335.5t324.5 131.5q100 0 195.5 -37t169.5 -104q74 67 169 104t195 37q195 0 325 -131.5t130 -335.5q0 -266 -242 -487z" />
    <glyph glyph-name="uni2713" unicode="&#x2713;" horiz-adv-x="1425" 
d="M424 0l-387 643h254l221 -369h8l619 1160h250l-771 -1434h-194z" />
    <glyph glyph-name="uni2912" unicode="&#x2912;" horiz-adv-x="1224" 
d="M98 1249v185h1028v-185h-1028zM512 0v838h-8l-406 -349v244l514 434l514 -434v-244l-407 349h-8v-838h-199z" />
    <glyph glyph-name="uni2913" unicode="&#x2913;" horiz-adv-x="1224" 
d="M512 596v838h199v-838h8l407 348v-244l-514 -434l-514 434v244l406 -348h8zM98 0v184h1028v-184h-1028z" />
    <glyph glyph-name="uni2E3A" unicode="&#x2e3a;" horiz-adv-x="3366" 
d="M147 492v184h3072v-184h-3072z" />
    <glyph glyph-name="uni2E3B" unicode="&#x2e3b;" horiz-adv-x="4902" 
d="M147 492v184h4608v-184h-4608z" />
    <glyph glyph-name="u1F6D2" unicode="&#x1f6d2;" horiz-adv-x="1867" 
d="M545 336l-144 930h-348v168h512l58 -373h1122l-111 -725h-1089zM709 504h761l58 389h-879zM758 -16q-62 0 -101 36.5t-39 96.5t39 96.5t101 36.5q60 0 98.5 -36.5t38.5 -96.5t-38.5 -96.5t-98.5 -36.5zM1423 -16q-62 0 -100.5 36.5t-38.5 96.5t38.5 96.5t100.5 36.5
q61 0 99.5 -37t38.5 -96t-38.5 -96t-99.5 -37z" />
    <glyph glyph-name="space.tf" 
 />
    <glyph glyph-name="space.tosf" 
 />
    <glyph glyph-name="I.ss02" horiz-adv-x="1447" 
d="M135 0v180h483v1073h-483v181h1178v-181h-484v-1073h484v-180h-1178z" />
    <glyph glyph-name="Iacute.ss02" horiz-adv-x="1447" 
d="M610 1573l164 266h215l-164 -266h-215zM135 0v180h483v1073h-483v181h1178v-181h-484v-1073h484v-180h-1178z" />
    <glyph glyph-name="Ibreve.ss02" horiz-adv-x="1447" 
d="M725 1573q-133 0 -220.5 73.5t-94.5 221.5h155q7 -80 53 -115t107 -35t107 35t53 115h155q-7 -148 -94.5 -221.5t-220.5 -73.5zM135 0v180h483v1073h-483v181h1178v-181h-484v-1073h484v-180h-1178z" />
    <glyph glyph-name="Icaron.ss02" horiz-adv-x="1447" 
d="M641 1573l-225 295h188l115 -154h8l115 154h188l-225 -295h-164zM135 0v180h483v1073h-483v181h1178v-181h-484v-1073h484v-180h-1178z" />
    <glyph glyph-name="Icircumflex.ss02" horiz-adv-x="1447" 
d="M416 1573l225 295h164l225 -295h-188l-115 153h-8l-115 -153h-188zM135 0v180h483v1073h-483v181h1178v-181h-484v-1073h484v-180h-1178z" />
    <glyph glyph-name="Idieresis.ss02" horiz-adv-x="1447" 
d="M524 1620q-57 0 -93 33t-36 86q0 52 36 84t93 32q56 0 92.5 -32t36.5 -84t-36.5 -85.5t-92.5 -33.5zM922 1620q-56 0 -92.5 33.5t-36.5 85.5t36.5 84t92.5 32q57 0 93 -32t36 -84q0 -53 -36 -86t-93 -33zM135 0v180h483v1073h-483v181h1178v-181h-484v-1073h484v-180
h-1178z" />
    <glyph glyph-name="Idotaccent.ss02" horiz-adv-x="1447" 
d="M723 1620q-57 0 -94 33.5t-37 85.5t36.5 84t94.5 32t94.5 -32t36.5 -84t-37 -85.5t-94 -33.5zM135 0v180h483v1073h-483v181h1178v-181h-484v-1073h484v-180h-1178z" />
    <glyph glyph-name="Igrave.ss02" horiz-adv-x="1447" 
d="M672 1839l164 -266h-215l-164 266h215zM135 0v180h483v1073h-483v181h1178v-181h-484v-1073h484v-180h-1178z" />
    <glyph glyph-name="Imacron.ss02" horiz-adv-x="1447" 
d="M375 1630v152h696v-152h-696zM135 0v180h483v1073h-483v181h1178v-181h-484v-1073h484v-180h-1178z" />
    <glyph glyph-name="Iogonek.ss02" horiz-adv-x="1447" 
d="M135 0v180h483v1073h-483v181h1178v-181h-484v-1073h484v-180q-158 -55 -158 -152q0 -43 33.5 -68.5t101.5 -25.5h23v-164h-78q-122 0 -193 50.5t-71 148.5q0 137 141 211h-977z" />
    <glyph glyph-name="Itilde.ss02" horiz-adv-x="1447" 
d="M582 1843q49 0 91 -18t66 -39t55 -39t60 -18q34 0 54 21t24 73h151q-9 -129 -66.5 -191.5t-152.5 -62.5q-49 0 -91 18t-66 39t-55 39t-60 18q-34 0 -54 -21t-24 -73h-152q9 129 67 191.5t153 62.5zM135 0v180h483v1073h-483v181h1178v-181h-484v-1073h484v-180h-1178z
" />
    <glyph glyph-name="J.ss02" horiz-adv-x="1400" 
d="M94 0v199h758q85 0 116 31t31 116v891h-561v197h774v-1121q0 -164 -74.5 -238.5t-238.5 -74.5h-805z" />
    <glyph glyph-name="Jcircumflex.ss02" horiz-adv-x="1400" 
d="M518 1573l225 295h164l226 -295h-189l-115 153h-8l-114 -153h-189zM94 0v199h758q85 0 116 31t31 116v891h-561v197h774v-1121q0 -164 -74.5 -238.5t-238.5 -74.5h-805z" />
    <glyph glyph-name="a.ss01" horiz-adv-x="1323" 
d="M586 -25q-219 0 -357.5 149.5t-138.5 389.5q0 239 138.5 389t357.5 150q228 0 364 -168h8v143h199v-1028h-199v143h-8q-134 -168 -364 -168zM625 154q147 0 242.5 100.5t95.5 259.5t-95.5 258.5t-242.5 99.5t-241.5 -99.5t-94.5 -258.5t94.5 -259.5t241.5 -100.5z" />
    <glyph glyph-name="aacute.ss01" horiz-adv-x="1323" 
d="M539 1167l163 267h216l-164 -267h-215zM586 -25q-219 0 -357.5 149.5t-138.5 389.5q0 239 138.5 389t357.5 150q228 0 364 -168h8v143h199v-1028h-199v143h-8q-134 -168 -364 -168zM625 154q147 0 242.5 100.5t95.5 259.5t-95.5 258.5t-242.5 99.5t-241.5 -99.5
t-94.5 -258.5t94.5 -259.5t241.5 -100.5z" />
    <glyph glyph-name="abreve.ss01" horiz-adv-x="1323" 
d="M651 1167q-133 0 -220.5 73.5t-94.5 221.5h156q7 -80 52.5 -114.5t106.5 -34.5t107 34.5t53 114.5h156q-7 -148 -95 -221.5t-221 -73.5zM586 -25q-219 0 -357.5 149.5t-138.5 389.5q0 239 138.5 389t357.5 150q228 0 364 -168h8v143h199v-1028h-199v143h-8
q-134 -168 -364 -168zM625 154q147 0 242.5 100.5t95.5 259.5t-95.5 258.5t-242.5 99.5t-241.5 -99.5t-94.5 -258.5t94.5 -259.5t241.5 -100.5z" />
    <glyph glyph-name="acaron.ss01" horiz-adv-x="1323" 
d="M569 1167l-225 295h188l115 -153h8l115 153h188l-225 -295h-164zM586 -25q-219 0 -357.5 149.5t-138.5 389.5q0 239 138.5 389t357.5 150q228 0 364 -168h8v143h199v-1028h-199v143h-8q-134 -168 -364 -168zM625 154q147 0 242.5 100.5t95.5 259.5t-95.5 258.5
t-242.5 99.5t-241.5 -99.5t-94.5 -258.5t94.5 -259.5t241.5 -100.5z" />
    <glyph glyph-name="acircumflex.ss01" horiz-adv-x="1323" 
d="M344 1167l225 295h164l225 -295h-188l-115 154h-8l-115 -154h-188zM586 -25q-219 0 -357.5 149.5t-138.5 389.5q0 239 138.5 389t357.5 150q228 0 364 -168h8v143h199v-1028h-199v143h-8q-134 -168 -364 -168zM625 154q147 0 242.5 100.5t95.5 259.5t-95.5 258.5
t-242.5 99.5t-241.5 -99.5t-94.5 -258.5t94.5 -259.5t241.5 -100.5z" />
    <glyph glyph-name="adieresis.ss01" horiz-adv-x="1323" 
d="M453 1214q-57 0 -93 33t-36 86q0 52 36 84.5t93 32.5q56 0 92.5 -32.5t36.5 -84.5t-36.5 -85.5t-92.5 -33.5zM850 1214q-56 0 -92.5 33.5t-36.5 85.5t36.5 84.5t92.5 32.5q57 0 93 -32.5t36 -84.5q0 -53 -36 -86t-93 -33zM586 -25q-219 0 -357.5 149.5t-138.5 389.5
q0 239 138.5 389t357.5 150q228 0 364 -168h8v143h199v-1028h-199v143h-8q-134 -168 -364 -168zM625 154q147 0 242.5 100.5t95.5 259.5t-95.5 258.5t-242.5 99.5t-241.5 -99.5t-94.5 -258.5t94.5 -259.5t241.5 -100.5z" />
    <glyph glyph-name="adotaccent.ss01" horiz-adv-x="1323" 
d="M651 1214q-57 0 -94 33.5t-37 85.5t37 84.5t94 32.5t94 -32.5t37 -84.5t-37 -85.5t-94 -33.5zM586 -25q-219 0 -357.5 149.5t-138.5 389.5q0 239 138.5 389t357.5 150q228 0 364 -168h8v143h199v-1028h-199v143h-8q-134 -168 -364 -168zM625 154q147 0 242.5 100.5
t95.5 259.5t-95.5 258.5t-242.5 99.5t-241.5 -99.5t-94.5 -258.5t94.5 -259.5t241.5 -100.5z" />
    <glyph glyph-name="agrave.ss01" horiz-adv-x="1323" 
d="M600 1434l164 -267h-215l-164 267h215zM586 -25q-219 0 -357.5 149.5t-138.5 389.5q0 239 138.5 389t357.5 150q228 0 364 -168h8v143h199v-1028h-199v143h-8q-134 -168 -364 -168zM625 154q147 0 242.5 100.5t95.5 259.5t-95.5 258.5t-242.5 99.5t-241.5 -99.5
t-94.5 -258.5t94.5 -259.5t241.5 -100.5z" />
    <glyph glyph-name="amacron.ss01" horiz-adv-x="1323" 
d="M303 1225v151h696v-151h-696zM586 -25q-219 0 -357.5 149.5t-138.5 389.5q0 239 138.5 389t357.5 150q228 0 364 -168h8v143h199v-1028h-199v143h-8q-134 -168 -364 -168zM625 154q147 0 242.5 100.5t95.5 259.5t-95.5 258.5t-242.5 99.5t-241.5 -99.5t-94.5 -258.5
t94.5 -259.5t241.5 -100.5z" />
    <glyph glyph-name="aogonek.ss01" horiz-adv-x="1323" 
d="M586 -25q-219 0 -357.5 149.5t-138.5 389.5q0 239 138.5 389t357.5 150q228 0 364 -168h8v143h199v-1028q-158 -55 -158 -152q0 -43 34 -68.5t102 -25.5h22v-164h-78q-122 0 -193 50.5t-71 148.5q0 73 42 127.5t112 87.5h-11v139h-8q-134 -168 -364 -168zM625 154
q147 0 242.5 100.5t95.5 259.5t-95.5 258.5t-242.5 99.5t-241.5 -99.5t-94.5 -258.5t94.5 -259.5t241.5 -100.5z" />
    <glyph glyph-name="aring.ss01" horiz-adv-x="1323" 
d="M651 1143q-96 0 -157.5 55.5t-61.5 149.5q0 95 61.5 150.5t157.5 55.5t157.5 -55.5t61.5 -150.5q0 -94 -61.5 -149.5t-157.5 -55.5zM635 1276q35 -7 58.5 8.5t29.5 48.5q8 33 -7 57t-48 31q-35 6 -58.5 -10t-29.5 -47q-8 -33 7 -57t48 -31zM586 -25q-219 0 -357.5 149.5
t-138.5 389.5q0 239 138.5 389t357.5 150q228 0 364 -168h8v143h199v-1028h-199v143h-8q-134 -168 -364 -168zM625 154q147 0 242.5 100.5t95.5 259.5t-95.5 258.5t-242.5 99.5t-241.5 -99.5t-94.5 -258.5t94.5 -259.5t241.5 -100.5z" />
    <glyph glyph-name="atilde.ss01" horiz-adv-x="1323" 
d="M510 1438q49 0 91 -18t66 -39.5t55 -39.5t60 -18q34 0 54 21t24 73h152q-9 -129 -66.5 -191.5t-152.5 -62.5q-49 0 -91 18t-66.5 39.5t-55.5 39.5t-60 18q-34 0 -54 -21t-24 -73h-151q9 129 66.5 191.5t152.5 62.5zM586 -25q-219 0 -357.5 149.5t-138.5 389.5
q0 239 138.5 389t357.5 150q228 0 364 -168h8v143h199v-1028h-199v143h-8q-134 -168 -364 -168zM625 154q147 0 242.5 100.5t95.5 259.5t-95.5 258.5t-242.5 99.5t-241.5 -99.5t-94.5 -258.5t94.5 -259.5t241.5 -100.5z" />
    </font>
</defs>
</svg>
