<?xml version="1.0" standalone="no"?>
<!DOCTYPE svg PUBLIC "-//W3C//DTD SVG 1.1//EN" "http://www.w3.org/Graphics/SVG/1.1/DTD/svg11.dtd" >
<svg xmlns="http://www.w3.org/2000/svg" xmlns:xlink="http://www.w3.org/1999/xlink" version="1.1">
<metadata>
Created by FontForge 20190801 at Wed Aug  3 17:24:07 2022
 By root
(c) Igor Stepanchenko, 2022
</metadata>
<defs>
<font id="Steppe-Bold" horiz-adv-x="1376" >
  <font-face 
    font-family="Steppe"
    font-weight="700"
    font-stretch="normal"
    units-per-em="2048"
    panose-1="2 0 0 0 0 0 0 0 0 0"
    ascent="1638"
    descent="-410"
    x-height="1034"
    cap-height="1434"
    bbox="-393 -653 4743 1968"
    underline-thickness="196"
    underline-position="-499"
    unicode-range="U+000D-1F6D2"
  />
<missing-glyph horiz-adv-x="2019" 
d="M1010 -170q-195 0 -361.5 63.5t-285 178t-185.5 281t-67 364.5t67 364.5t185.5 281t285 178t361.5 63.5t361.5 -63.5t285 -178t185.5 -281t67 -364.5t-67 -364.5t-185.5 -281t-285 -178t-361.5 -63.5zM1010 12q317 0 508.5 194t191.5 511t-191.5 510.5t-508.5 193.5
t-509 -193.5t-192 -510.5t192 -511t509 -194zM1278 813q-71 0 -115.5 39t-44.5 106t44.5 106.5t115.5 39.5t115.5 -39.5t44.5 -106.5t-44.5 -106t-115.5 -39zM741 813q-71 0 -115 39t-44 106t44 106.5t115 39.5t115.5 -39.5t44.5 -106.5t-44.5 -106t-115.5 -39zM1477 319
h-203q-19 98 -86.5 153.5t-177.5 55.5q-108 0 -177 -56t-88 -153h-202q29 186 150.5 289t316.5 103t316.5 -103t150.5 -289z" />
    <glyph glyph-name="f_f" unicode="ff" horiz-adv-x="2154" 
d="M70 791v243h237v64q0 336 334 336h436v-236h-393q-62 0 -86.5 -24t-24.5 -84v-56h742v64q0 336 334 336h436v-236h-393q-62 0 -86.5 -24t-24.5 -84v-56h504v-243h-504v-791h-266v791h-742v-791h-266v791h-237z" />
    <glyph glyph-name="fi" unicode="fi" horiz-adv-x="1716" 
d="M1417 1171q-73 0 -118.5 38t-45.5 102t45.5 102.5t118.5 38.5q72 0 118 -38.5t46 -102.5q0 -63 -46 -101.5t-118 -38.5zM70 791v243h237v64q0 336 334 336h436v-236h-393q-62 0 -86.5 -24t-24.5 -84v-56h977v-1034h-268v791h-709v-791h-266v791h-237z" />
    <glyph glyph-name="f_f_i" unicode="ffi" horiz-adv-x="2723" 
d="M2425 1171q-73 0 -118.5 38t-45.5 102t45.5 102.5t118.5 38.5q72 0 118 -38.5t46 -102.5q0 -63 -46 -101.5t-118 -38.5zM70 791v243h237v64q0 336 334 336h436v-236h-393q-62 0 -86.5 -24t-24.5 -84v-56h742v64q0 336 334 336h436v-236h-393q-62 0 -86.5 -24t-24.5 -84
v-56h977v-1034h-268v791h-709v-791h-266v791h-742v-791h-266v791h-237z" />
    <glyph glyph-name="f_f_t" unicode="fft" horiz-adv-x="3182" 
d="M70 791v243h237v64q0 336 334 336h436v-236h-393q-62 0 -86.5 -24t-24.5 -84v-56h742v64q0 336 334 336h436v-236h-393q-62 0 -86.5 -24t-24.5 -84v-56h741v326h267v-326h503v-243h-503v-437q0 -60 24.5 -84t85.5 -24h393v-246h-436q-334 0 -334 336v455h-741v-791h-266
v791h-742v-791h-266v791h-237z" />
    <glyph glyph-name="f_t" unicode="ft" horiz-adv-x="2174" 
d="M70 791v243h237v64q0 336 334 336h436v-236h-393q-62 0 -86.5 -24t-24.5 -84v-56h742v326h266v-326h504v-243h-504v-437q0 -60 24.5 -84t86.5 -24h393v-246h-436q-334 0 -334 336v455h-742v-791h-266v791h-237z" />
    <glyph glyph-name=".notdef" horiz-adv-x="2019" 
d="M1010 -170q-195 0 -361.5 63.5t-285 178t-185.5 281t-67 364.5t67 364.5t185.5 281t285 178t361.5 63.5t361.5 -63.5t285 -178t185.5 -281t67 -364.5t-67 -364.5t-185.5 -281t-285 -178t-361.5 -63.5zM1010 12q317 0 508.5 194t191.5 511t-191.5 510.5t-508.5 193.5
t-509 -193.5t-192 -510.5t192 -511t509 -194zM1278 813q-71 0 -115.5 39t-44.5 106t44.5 106.5t115.5 39.5t115.5 -39.5t44.5 -106.5t-44.5 -106t-115.5 -39zM741 813q-71 0 -115 39t-44 106t44 106.5t115 39.5t115.5 -39.5t44.5 -106.5t-44.5 -106t-115.5 -39zM1477 319
h-203q-19 98 -86.5 153.5t-177.5 55.5q-108 0 -177 -56t-88 -153h-202q29 186 150.5 289t316.5 103t316.5 -103t150.5 -289z" />
    <glyph glyph-name="uni0000" horiz-adv-x="0" 
 />
    <glyph glyph-name="uni000D" unicode="&#xd;" horiz-adv-x="512" 
 />
    <glyph glyph-name="space" unicode=" " horiz-adv-x="516" 
 />
    <glyph glyph-name="exclam" unicode="!" horiz-adv-x="512" 
d="M395 1434l-10 -1016h-260l-8 1016h278zM256 -18q-77 0 -123.5 43.5t-46.5 117.5q0 76 46.5 120t123.5 44q76 0 123 -44t47 -120q0 -74 -47 -117.5t-123 -43.5z" />
    <glyph glyph-name="quotedbl" unicode="&#x22;" horiz-adv-x="913" 
d="M389 1434l-8 -488h-260l-10 488h278zM803 1434l-8 -488h-260l-11 488h279z" />
    <glyph glyph-name="numbersign" unicode="#" horiz-adv-x="1490" 
d="M41 352l47 230h229l60 297h-227l45 229h229l68 326h258l-66 -326h277l67 326h258l-65 -326h229l-47 -229h-229l-60 -297h227l-45 -230h-229l-72 -352h-260l72 352h-277l-71 -352h-260l71 352h-229zM578 582h276l59 297h-276z" />
    <glyph glyph-name="dollar" unicode="$" horiz-adv-x="1361" 
d="M528 1452v207h279v-211q371 -64 412 -442h-297q-17 105 -88 156.5t-179 51.5q-100 0 -166.5 -42t-66.5 -132q0 -53 28.5 -88.5t76.5 -55t110.5 -32t132 -24.5t138.5 -27.5t131.5 -46t110.5 -75t76.5 -119.5t28.5 -175q0 -388 -448 -420v-202h-279v213q-400 68 -442 483
h295q18 -130 108 -191t228 -61q48 0 89.5 8t80.5 27t61.5 55.5t22.5 87.5q0 56 -28.5 94.5t-77 58.5t-111 33t-131.5 24t-138 25.5t-131.5 43.5t-111 72.5t-77 118t-28.5 173.5q0 85 23.5 153t60.5 112t90 75.5t105 47.5t112 24z" />
    <glyph glyph-name="percent" unicode="%" horiz-adv-x="2129" 
d="M469 551q-177 0 -288 122t-111 331q0 208 111 330t288 122q178 0 289.5 -121.5t111.5 -330.5t-111.5 -331t-289.5 -122zM545 0l821 1434h217l-821 -1434h-217zM469 758q87 0 135.5 65t48.5 181t-48 180.5t-136 64.5q-87 0 -134.5 -64.5t-47.5 -180.5t47.5 -181t134.5 -65
zM1659 -23q-177 0 -288 122t-111 331t111 331t288 122q178 0 289.5 -122t111.5 -331t-111.5 -331t-289.5 -122zM1659 184q87 0 135.5 65t48.5 181t-48.5 181t-135.5 65t-134.5 -65t-47.5 -181t47.5 -181t134.5 -65z" />
    <glyph glyph-name="ampersand" unicode="&#x26;" horiz-adv-x="1579" 
d="M567 -27q-91 0 -174 23.5t-153 70.5t-112 127.5t-42 184.5q0 65 17.5 121.5t45.5 98.5t70.5 79.5t85.5 64t98 52.5l-30 30q-131 128 -131 271q0 88 37 158.5t99.5 114.5t142 67.5t167.5 23.5q87 0 166 -23.5t142 -67.5t100 -114.5t37 -158.5q0 -73 -25 -132.5
t-73.5 -104.5t-100 -76.5t-123.5 -63.5l248 -242l266 225l143 -170l-245 -208l63 -64q35 -35 84 -35h156v-225h-176q-113 0 -191 72l-110 108l-41 -37q-93 -76 -198 -123t-243 -47zM635 887q117 47 177 93t60 116q0 63 -50.5 102t-133.5 39q-84 0 -134 -39t-50 -102
q0 -81 96 -174zM885 336l-299 289q-56 -25 -94.5 -47t-74 -52t-53.5 -66.5t-18 -80.5q0 -82 61.5 -132t159.5 -50q150 0 297 118z" />
    <glyph glyph-name="quotesingle" unicode="'" horiz-adv-x="499" 
d="M389 1434l-8 -488h-260l-10 488h278z" />
    <glyph glyph-name="parenleft" unicode="(" horiz-adv-x="638" 
d="M309 -328q-211 422 -211 881t211 881h279q-223 -420 -223 -881t223 -881h-279z" />
    <glyph glyph-name="parenright" unicode=")" horiz-adv-x="638" 
d="M330 -328h-279q223 420 223 881t-223 881h279q211 -422 211 -881t-211 -881z" />
    <glyph glyph-name="asterisk" unicode="*" horiz-adv-x="907" 
d="M303 674l-164 108l152 215v9l-230 75l60 183l227 -76h8l-8 246h211l-6 -246h8l225 76l60 -183l-230 -75v-9l152 -215l-162 -108l-147 211h-8z" />
    <glyph glyph-name="plus" unicode="+" horiz-adv-x="1163" 
d="M70 494v241h391v391h241v-391h392v-241h-392v-392h-241v392h-391z" />
    <glyph glyph-name="comma" unicode="," horiz-adv-x="520" 
d="M145 -248l76 232q-61 11 -96 52.5t-35 106.5q0 76 46 120t124 44q80 0 125 -47t45 -137q0 -56 -29 -152l-71 -219h-185z" />
    <glyph glyph-name="hyphen" unicode="-" horiz-adv-x="946" 
d="M115 451v249h716v-249h-716z" />
    <glyph glyph-name="period" unicode="." horiz-adv-x="520" 
d="M260 -18q-77 0 -123.5 43.5t-46.5 117.5q0 76 46.5 120t123.5 44q76 0 123 -44t47 -120q0 -74 -47 -117.5t-123 -43.5z" />
    <glyph glyph-name="slash" unicode="/" horiz-adv-x="800" 
d="M16 -410l512 1844h256l-512 -1844h-256z" />
    <glyph glyph-name="zero" unicode="0" horiz-adv-x="1454" 
d="M727 -27q-269 0 -436.5 201.5t-167.5 542.5t167.5 542t436.5 201t437.5 -201t168.5 -542t-168.5 -542.5t-437.5 -201.5zM727 233q144 0 233 129t89 355t-89 354.5t-233 128.5t-232.5 -128.5t-88.5 -354.5t88.5 -355t232.5 -129z" />
    <glyph glyph-name="one" unicode="1" horiz-adv-x="890" 
d="M418 0v1079l-275 -141l-110 236l499 260h170v-1434h-284z" />
    <glyph glyph-name="two" unicode="2" horiz-adv-x="1247" 
d="M90 0v229l635 572q69 64 106 120.5t37 118.5q0 59 -36 100t-86 57.5t-107 16.5q-48 0 -91 -13t-80.5 -39.5t-61 -73.5t-27.5 -109h-289q5 108 40.5 193.5t88.5 138.5t125 87.5t144 48t151 13.5q148 0 262 -45.5t183 -142t69 -232.5q0 -122 -56.5 -219t-166.5 -196
l-393 -357v-8h616v-260h-1063z" />
    <glyph glyph-name="three" unicode="3" horiz-adv-x="1308" 
d="M653 -27q-119 0 -217.5 26t-176.5 80t-124 144.5t-53 210.5h283q7 -102 87.5 -158.5t200.5 -56.5q70 0 128 18t99.5 65t41.5 118q0 88 -65 142t-200 54h-180v248h178q124 0 181 45.5t57 122.5q0 41 -15 73.5t-39.5 52.5t-57.5 33t-66.5 18t-69.5 5q-118 0 -189 -52
t-79 -142h-283q7 114 51.5 199.5t118.5 137.5t169.5 77.5t211.5 25.5q154 0 272 -42.5t189.5 -133t71.5 -219.5q0 -112 -51 -190.5t-138 -118.5v-8q215 -102 215 -353q0 -108 -43 -190.5t-119.5 -132.5t-174 -74.5t-214.5 -24.5z" />
    <glyph glyph-name="four" unicode="4" horiz-adv-x="1359" 
d="M807 0v326h-719v186l645 922h357v-861h190v-247h-190v-326h-283zM422 573h385v537h-8l-377 -528v-9z" />
    <glyph glyph-name="five" unicode="5" horiz-adv-x="1327" 
d="M672 -27q-226 0 -383 113.5t-178 304.5h288q26 -77 98 -125.5t175 -48.5q126 0 207.5 71t81.5 179t-79.5 179t-201.5 71q-171 0 -260 -139h-287l111 856h915v-248h-676l-39 -309h9q122 84 282 84q102 0 194.5 -35t162.5 -98t111.5 -156.5t41.5 -204.5q0 -148 -75 -261.5
t-204.5 -173t-293.5 -59.5z" />
    <glyph glyph-name="six" unicode="6" horiz-adv-x="1378" 
d="M717 -27q-146 0 -259 53.5t-186.5 151.5t-111 234.5t-37.5 304.5q0 119 17.5 222.5t60.5 201t109 167t170 111t237 41.5q228 0 364 -111.5t168 -301.5h-286q-23 77 -84 122t-162 45q-295 0 -303 -413h8q125 135 348 135q216 0 364 -134t148 -345q0 -216 -158.5 -350
t-406.5 -134zM717 219q121 0 200.5 63t79.5 175q0 111 -79.5 174t-200.5 63t-201 -63t-80 -174t80 -174.5t201 -63.5z" />
    <glyph glyph-name="seven" unicode="7" horiz-adv-x="1155" 
d="M221 0l545 1159v8h-717v267h1049v-215l-570 -1219h-307z" />
    <glyph glyph-name="eight" unicode="8" horiz-adv-x="1413" 
d="M707 -27q-99 0 -186.5 15t-164.5 47.5t-132.5 81.5t-87.5 121.5t-32 162.5q0 259 271 344v9q-107 39 -165 122t-58 189q0 125 77 216t201 135t277 44t277 -44t202 -135t78 -216q0 -106 -59 -189t-167 -122v-9q271 -85 271 -344q0 -111 -48 -195.5t-133 -134t-190.5 -74
t-230.5 -24.5zM430 1042q0 -82 78 -127t199 -45t199.5 45t78.5 127t-78.5 127t-199.5 45t-199 -45t-78 -127zM389 422q0 -104 87 -153.5t231 -49.5q93 0 162 19.5t112 66t43 117.5q0 106 -86.5 155.5t-230.5 49.5t-231 -49.5t-87 -155.5z" />
    <glyph glyph-name="nine" unicode="9" horiz-adv-x="1378" 
d="M662 1460q194 0 328.5 -93.5t199.5 -258.5t65 -391q0 -98 -12.5 -186.5t-39.5 -173.5t-73.5 -153.5t-110.5 -121t-155 -81t-202 -28.5q-228 0 -364.5 112t-168.5 302h287q23 -77 84 -122.5t162 -45.5q295 0 303 414h-9q-125 -135 -348 -135q-216 0 -364 134t-148 345
q0 216 159 349.5t407 133.5zM662 1214q-121 0 -201 -63t-80 -174t80 -174.5t201 -63.5t200.5 63t79.5 175q0 111 -79.5 174t-200.5 63z" />
    <glyph glyph-name="colon" unicode=":" horiz-adv-x="520" 
d="M260 727q-77 0 -123.5 43.5t-46.5 118.5q0 76 46.5 120t123.5 44q76 0 123 -44t47 -120q0 -74 -47 -118t-123 -44zM260 -18q-77 0 -123.5 43.5t-46.5 117.5q0 76 46.5 120t123.5 44q76 0 123 -44t47 -120q0 -74 -47 -117.5t-123 -43.5z" />
    <glyph glyph-name="semicolon" unicode=";" horiz-adv-x="532" 
d="M260 727q-77 0 -123.5 43.5t-46.5 118.5q0 76 46.5 120t123.5 44q76 0 123 -44t47 -120q0 -74 -47 -118t-123 -44zM158 -248l75 232q-61 11 -96 52.5t-35 106.5q0 76 46 120t124 44q80 0 125 -47t45 -137q0 -60 -28 -152l-72 -219h-184z" />
    <glyph glyph-name="less" unicode="&#x3c;" horiz-adv-x="1142" 
d="M70 510v209l966 350v-256l-590 -195v-8l590 -194v-256z" />
    <glyph glyph-name="equal" unicode="=" horiz-adv-x="1204" 
d="M90 926h1024v-232h-1024v232zM90 279v231h1024v-231h-1024z" />
    <glyph glyph-name="greater" unicode="&#x3e;" horiz-adv-x="1142" 
d="M1073 719v-209l-967 -350v256l590 194v8l-590 195v256z" />
    <glyph glyph-name="question" unicode="?" horiz-adv-x="1175" 
d="M424 418q0 89 23 159.5t60 114.5t81.5 79t89 62t81.5 54t60 64.5t23 84.5q0 89 -68.5 132.5t-163.5 43.5q-49 0 -94 -12.5t-84.5 -38t-64.5 -70.5t-29 -104h-289q5 106 41.5 189.5t91 136t128 86.5t147 47.5t153.5 13.5q111 0 204.5 -26.5t163.5 -78t109 -133.5t39 -186
q0 -78 -23 -138.5t-60 -99.5t-81 -71t-88.5 -61t-81.5 -61t-60 -79.5t-23 -107.5h-285zM575 -18q-77 0 -123 43.5t-46 117.5q0 76 46 120t123 44q76 0 123 -44t47 -120q0 -74 -47 -117.5t-123 -43.5z" />
    <glyph glyph-name="at" unicode="@" horiz-adv-x="1953" 
d="M922 59q-187 0 -305.5 126.5t-118.5 326.5t108 326.5t281 126.5q170 0 276 -117h8v94h215v-508q0 -80 30.5 -125t74.5 -45q65 0 115.5 89t50.5 220q0 165 -87.5 295t-243 202.5t-349.5 72.5q-196 0 -349.5 -74.5t-242 -219t-88.5 -337.5t88.5 -337.5t242 -219
t349.5 -74.5h409v-209h-409q-195 0 -362 61t-286 169.5t-186 266t-67 343.5t67 343.5t186 266t286 169.5t362 61q194 0 362 -60t286 -163.5t185.5 -247.5t67.5 -308q0 -228 -111.5 -371t-281.5 -143q-159 0 -252 136h-8q-48 -62 -125.5 -99t-177.5 -37zM944 264
q113 0 171.5 67.5t58.5 180.5t-58.5 180.5t-171.5 67.5t-172 -67.5t-59 -180.5t59 -180.5t172 -67.5z" />
    <glyph glyph-name="A" unicode="A" horiz-adv-x="1585" 
d="M1556 0h-303l-127 305h-665l-127 -305h-303l598 1434h329zM563 559h461l-227 541h-9z" />
    <glyph glyph-name="B" unicode="B" horiz-adv-x="1548" 
d="M170 0v1434h795q207 0 328.5 -98t121.5 -267q0 -201 -188 -315v-9q105 -45 169 -142t64 -216q0 -167 -122.5 -277t-333.5 -110h-834zM455 852h450q108 0 166.5 42t58.5 126q0 166 -225 166h-450v-334zM455 248h491q115 0 172.5 48.5t57.5 129.5q0 82 -59.5 130t-174.5 48
h-487v-356z" />
    <glyph glyph-name="C" unicode="C" horiz-adv-x="1638" 
d="M838 -27q-157 0 -292 54t-231 150.5t-150 235.5t-54 304q0 220 93 389.5t258.5 261.5t375.5 92q274 0 463 -150.5t245 -408.5h-299q-48 141 -152.5 220t-256.5 79q-200 0 -322.5 -132.5t-122.5 -350.5t122.5 -351t322.5 -133q152 0 256.5 79t152.5 220h299
q-56 -258 -245 -408.5t-463 -150.5z" />
    <glyph glyph-name="D" unicode="D" horiz-adv-x="1609" 
d="M170 0v1434h596q211 0 376.5 -85t261 -249.5t95.5 -382.5t-95.5 -382.5t-261 -249.5t-376.5 -85h-596zM455 256h311q201 0 324.5 122t123.5 339t-123.5 339t-324.5 122h-311v-922z" />
    <glyph glyph-name="E" unicode="E" horiz-adv-x="1468" 
d="M455 614v-358h886v-256h-1171v1434h1171v-256h-886v-316h796v-248h-796z" />
    <glyph glyph-name="F" unicode="F" horiz-adv-x="1439" 
d="M455 573v-573h-285v1434h1171v-256h-886v-357h796v-248h-796z" />
    <glyph glyph-name="G" unicode="G" horiz-adv-x="1685" 
d="M827 -27q-153 0 -285.5 54t-227.5 150.5t-149 236t-54 303.5q0 165 55 304t151.5 235t232.5 150t294 54q255 0 436 -133t254 -366h-309q-55 115 -151.5 177t-229.5 62q-201 0 -326 -133t-125 -350q0 -219 127.5 -351.5t337.5 -132.5q171 0 293 87.5t154 234.5h-494v236
h737v-791h-235v184h-8q-165 -211 -478 -211z" />
    <glyph glyph-name="H" unicode="H" horiz-adv-x="1613" 
d="M170 0v1434h285v-566h706v566h285v-1434h-285v608h-706v-608h-285z" />
    <glyph glyph-name="I" unicode="I" horiz-adv-x="622" 
d="M170 0v1434h285v-1434h-285z" />
    <glyph glyph-name="J" unicode="J" horiz-adv-x="1402" 
d="M78 0v266h768q69 0 92 23.5t23 91.5v1053h284v-1098q0 -186 -75 -261t-261 -75h-831z" />
    <glyph glyph-name="K" unicode="K" horiz-adv-x="1546" 
d="M170 0v1434h285v-566h184l500 566h348l-619 -697l631 -737h-356l-518 608h-170v-608h-285z" />
    <glyph glyph-name="L" unicode="L" horiz-adv-x="1415" 
d="M170 0v1434h285v-1168h882v-266h-1167z" />
    <glyph glyph-name="M" unicode="M" horiz-adv-x="2091" 
d="M1921 1434v-1434h-285v1057h-8l-481 -1057h-203l-481 1057h-8v-1057h-285v1434h418l452 -992h9l454 992h418z" />
    <glyph glyph-name="N" unicode="N" horiz-adv-x="1662" 
d="M1493 1434v-1434h-354l-676 1014h-8v-1014h-285v1434h352l678 -1014h8v1014h285z" />
    <glyph glyph-name="O" unicode="O" horiz-adv-x="1701" 
d="M852 -27q-157 0 -293.5 54t-235.5 150t-155.5 236t-56.5 304q0 219 97 389t265.5 262t378.5 92t378.5 -92t265.5 -262t97 -389q0 -164 -56.5 -304t-155.5 -236t-235.5 -150t-293.5 -54zM852 233q199 0 328 134t129 350t-129 349.5t-328 133.5q-200 0 -329.5 -133.5
t-129.5 -349.5t129.5 -350t329.5 -134z" />
    <glyph glyph-name="P" unicode="P" horiz-adv-x="1570" 
d="M989 477h-534v-477h-285v1434h819q220 0 362 -130t142 -350q0 -218 -142 -347.5t-362 -129.5zM455 733h534q102 0 160.5 61t58.5 160q0 100 -58.5 162t-160.5 62h-534v-445z" />
    <glyph glyph-name="Q" unicode="Q" horiz-adv-x="1732" 
d="M1468 -102l-196 198q-180 -123 -420 -123q-157 0 -293.5 54t-235.5 150t-155.5 236t-56.5 304q0 219 97 389t265.5 262t378.5 92t378.5 -92t265.5 -262t97 -389q0 -255 -133 -447l191 -190zM852 233q116 0 215 60v8l-178 178l180 180l178 -176h8q54 111 54 234
q0 216 -129 349.5t-328 133.5q-200 0 -329.5 -133.5t-129.5 -349.5t129.5 -350t329.5 -134z" />
    <glyph glyph-name="R" unicode="R" horiz-adv-x="1570" 
d="M1161 0l-297 508h-409v-508h-285v1434h819q145 0 258 -53.5t179.5 -159.5t66.5 -250q0 -167 -88.5 -280t-239.5 -156l314 -535h-318zM455 764h534q102 0 160.5 55.5t58.5 151.5t-58.5 151.5t-160.5 55.5h-534v-414z" />
    <glyph glyph-name="S" unicode="S" horiz-adv-x="1488" 
d="M786 -27q-119 0 -218 14.5t-189.5 50t-154.5 91.5t-106 142.5t-52 199.5h294q14 -72 51.5 -122t95.5 -78t125.5 -40t153.5 -12q332 0 332 178q0 50 -28 86t-76 55t-112 34t-136 22.5t-148.5 21t-148.5 29t-136 47.5t-112 75t-76 113t-28 160q0 88 28 158t77.5 114.5
t107.5 75t130 45.5t132 21t125 6q108 0 199.5 -15.5t170.5 -49.5t137 -86.5t95 -129t47 -173.5h-297q-16 105 -111.5 156.5t-240.5 51.5q-63 0 -117.5 -9.5t-100 -29t-72 -54t-26.5 -81.5q0 -52 34.5 -86.5t92.5 -53.5t133 -31.5t158 -24.5t166 -28t158 -47t133 -76
t92.5 -120.5t34.5 -175.5q0 -424 -617 -424z" />
    <glyph glyph-name="T" unicode="T" horiz-adv-x="1542" 
d="M629 0v1174h-551v260h1386v-260h-551v-1174h-284z" />
    <glyph glyph-name="U" unicode="U" horiz-adv-x="1579" 
d="M791 -27q-296 0 -473 178t-177 500v783h285v-783q0 -207 99.5 -312.5t265.5 -105.5q165 0 264.5 105.5t99.5 312.5v783h283v-783q0 -322 -176 -500t-471 -178z" />
    <glyph glyph-name="V" unicode="V" horiz-adv-x="1570" 
d="M635 0l-594 1434h299l442 -1076h9l440 1076h299l-592 -1434h-303z" />
    <glyph glyph-name="W" unicode="W" horiz-adv-x="2486" 
d="M2445 1434l-510 -1434h-331l-357 1047h-8l-356 -1047h-330l-512 1434h295l377 -1069h8l364 1069h316l364 -1069h9l376 1069h295z" />
    <glyph glyph-name="X" unicode="X" horiz-adv-x="1587" 
d="M47 0l574 725l-562 709h347l389 -490l387 490h346l-561 -709l573 -725h-346l-399 506l-402 -506h-346z" />
    <glyph glyph-name="Y" unicode="Y" horiz-adv-x="1572" 
d="M645 0v578l-618 856h333l426 -590l426 590h334l-618 -856v-578h-283z" />
    <glyph glyph-name="Z" unicode="Z" horiz-adv-x="1478" 
d="M98 0v199l832 970v9h-819v256h1257v-197l-836 -973v-8h848v-256h-1282z" />
    <glyph glyph-name="bracketleft" unicode="[" horiz-adv-x="739" 
d="M170 -328v1762h512v-244h-246v-1274h246v-244h-512z" />
    <glyph glyph-name="backslash" unicode="\" horiz-adv-x="800" 
d="M272 1434l512 -1844h-256l-512 1844h256z" />
    <glyph glyph-name="bracketright" unicode="]" horiz-adv-x="739" 
d="M569 1434v-1762h-512v244h246v1274h-246v244h512z" />
    <glyph glyph-name="asciicircum" unicode="^" horiz-adv-x="944" 
d="M49 819l316 615h213l317 -615h-250l-170 328h-8l-168 -328h-250z" />
    <glyph glyph-name="underscore" unicode="_" horiz-adv-x="1282" 
d="M78 -426v250h1126v-250h-1126z" />
    <glyph glyph-name="grave" unicode="`" horiz-adv-x="1024" 
d="M508 1434l164 -267h-293l-164 267h293z" />
    <glyph glyph-name="a" unicode="a" horiz-adv-x="1191" 
d="M403 -27q-46 0 -88 6.5t-88.5 25t-80.5 49t-56 83t-22 121.5q0 64 20.5 115t50 83.5t77.5 59.5t86.5 40.5t94.5 29.5l363 98v16q0 71 -50 107.5t-122 36.5q-77 0 -134 -39.5t-67 -106.5h-274q18 181 147 272t328 91q65 0 122 -9.5t115.5 -35t100 -65.5t68 -107t26.5 -154
v-395q0 -27 11.5 -38t39.5 -11h64v-246h-224q-109 0 -133 90l-10 35h-8q-135 -152 -357 -152zM473 182q124 0 205.5 71t81.5 193v31l-309 -84q-60 -15 -88.5 -41.5t-28.5 -68.5q0 -101 139 -101z" />
    <glyph glyph-name="b" unicode="b" horiz-adv-x="1296" 
d="M752 -27q-213 0 -340 152h-9v-125h-268v1434h268v-525h9q127 152 340 152q214 0 341.5 -148t127.5 -397q0 -247 -127.5 -395t-341.5 -148zM676 217q121 0 198.5 82.5t77.5 216.5t-77.5 217.5t-198.5 83.5q-120 0 -199.5 -84t-79.5 -217t79.5 -216t199.5 -83z" />
    <glyph glyph-name="c" unicode="c" horiz-adv-x="1204" 
d="M612 -27q-239 0 -387.5 148t-148.5 395q0 248 148.5 396.5t387.5 148.5q197 0 342.5 -106.5t186.5 -313.5h-277q-34 88 -99.5 132t-152.5 44q-122 0 -195 -81t-73 -220q0 -137 73 -218t195 -81q87 0 152.5 44t99.5 132h277q-41 -207 -186.5 -313.5t-342.5 -106.5z" />
    <glyph glyph-name="d" unicode="d" horiz-adv-x="1296" 
d="M545 -27q-214 0 -341.5 148t-127.5 395q0 249 127.5 397t341.5 148q213 0 340 -152h8v525h268v-1434h-268v125h-8q-127 -152 -340 -152zM621 217q120 0 199 83t79 216t-79 217t-199 84q-121 0 -199 -83.5t-78 -217.5t78 -216.5t199 -82.5z" />
    <glyph glyph-name="e" unicode="e" horiz-adv-x="1216" 
d="M614 -27q-150 0 -272.5 66.5t-194 191.5t-71.5 285t72 285.5t194.5 192.5t271.5 67q150 0 269 -64.5t188.5 -187.5t69.5 -283l-4 -98h-789q19 -109 90.5 -173.5t175.5 -64.5q73 0 132.5 32t93.5 89h278q-54 -147 -186.5 -242.5t-317.5 -95.5zM352 629h516
q-23 97 -87.5 156t-166.5 59q-98 0 -168.5 -57.5t-93.5 -157.5z" />
    <glyph glyph-name="f" unicode="f" horiz-adv-x="1146" 
d="M70 791v243h237v64q0 336 334 336h436v-236h-393q-62 0 -86.5 -24t-24.5 -84v-56h504v-243h-504v-791h-266v791h-237z" />
    <glyph glyph-name="g" unicode="g" horiz-adv-x="1296" 
d="M545 1061q213 0 340 -152h8v125h266v-956q0 -257 -140 -385.5t-384 -128.5q-215 0 -348 91.5t-168 242.5h287q71 -105 229 -105q122 0 190 70.5t68 214.5v72h-8q-127 -152 -340 -152t-341 146t-128 384t128.5 385.5t340.5 147.5zM618 817q-119 0 -196.5 -80.5
t-77.5 -208.5q0 -127 77.5 -206.5t196.5 -79.5q121 0 201 80t80 206q0 128 -80 208.5t-201 80.5z" />
    <glyph glyph-name="h" unicode="h" horiz-adv-x="1275" 
d="M135 0v1434h268v-525h9q137 152 336 152q83 0 155 -27.5t127.5 -80.5t87 -137.5t31.5 -192.5v-623h-266v578q0 52 -13.5 93.5t-35.5 68t-52 44t-60.5 24.5t-62.5 7q-108 0 -182 -76t-74 -219v-520h-268z" />
    <glyph glyph-name="i" unicode="i" horiz-adv-x="600" 
d="M299 1171q-72 0 -118 38.5t-46 101.5q0 64 46 102.5t118 38.5t118 -38.5t46 -102.5q0 -63 -46 -101.5t-118 -38.5zM166 0v1034h268v-1034h-268z" />
    <glyph glyph-name="j" unicode="j" horiz-adv-x="569" 
d="M270 1171q-72 0 -118 38.5t-46 101.5q0 64 46 102.5t118 38.5t118 -38.5t46 -102.5q0 -63 -46 -101.5t-118 -38.5zM-94 -410v250h143q49 0 67.5 19t18.5 67v1108h268v-1130q0 -166 -73.5 -240t-239.5 -74h-184z" />
    <glyph glyph-name="k" unicode="k" horiz-adv-x="1222" 
d="M135 0v1434h268v-783h134l323 383h322l-424 -502l440 -532h-330l-338 412h-127v-412h-268z" />
    <glyph glyph-name="l" unicode="l" horiz-adv-x="651" 
d="M440 0q-166 0 -239.5 73.5t-73.5 239.5v1121h266v-1098q0 -47 19.5 -66.5t66.5 -19.5h115v-250h-154z" />
    <glyph glyph-name="m" unicode="m" horiz-adv-x="1982" 
d="M135 0v1034h268v-125h9q54 65 140.5 108.5t188.5 43.5q108 0 193 -49.5t129 -139.5h8q75 95 180.5 142t210.5 47q169 0 281 -113.5t112 -324.5v-623h-266v580q0 64 -19.5 111.5t-51.5 73.5t-67.5 38t-74.5 12q-101 0 -173.5 -76.5t-72.5 -218.5v-520h-268v580
q0 64 -19.5 111.5t-51.5 73.5t-67.5 38t-74.5 12q-100 0 -173 -77t-73 -218v-520h-268z" />
    <glyph glyph-name="n" unicode="n" horiz-adv-x="1275" 
d="M135 0v1034h268v-125h9q137 152 336 152q83 0 155 -27.5t127.5 -80.5t87 -137.5t31.5 -192.5v-623h-266v578q0 52 -13.5 93.5t-35.5 68t-52 44t-60.5 24.5t-62.5 7q-108 0 -182 -76t-74 -219v-520h-268z" />
    <glyph glyph-name="o" unicode="o" horiz-adv-x="1247" 
d="M623 -27q-238 0 -392.5 149.5t-154.5 393.5q0 245 154.5 395t392.5 150q157 0 281 -66.5t195.5 -191t71.5 -287.5q0 -244 -154.5 -393.5t-393.5 -149.5zM623 217q122 0 201 81.5t79 217.5q0 137 -79 219t-201 82q-121 0 -200 -82t-79 -219q0 -135 79 -217t200 -82z" />
    <glyph glyph-name="p" unicode="p" horiz-adv-x="1296" 
d="M752 1061q214 0 341.5 -148t127.5 -397q0 -247 -127.5 -395t-341.5 -148q-213 0 -340 152h-9v-535h-268v1444h268v-125h9q127 152 340 152zM676 217q121 0 198.5 82.5t77.5 216.5t-77.5 217.5t-198.5 83.5q-120 0 -199.5 -84t-79.5 -217t79.5 -216t199.5 -83z" />
    <glyph glyph-name="q" unicode="q" horiz-adv-x="1296" 
d="M545 1061q213 0 340 -152h8v125h268v-1444h-268v535h-8q-127 -152 -340 -152q-214 0 -341.5 148t-127.5 395q0 249 127.5 397t341.5 148zM621 217q120 0 199 83t79 216t-79 217t-199 84q-121 0 -199 -83.5t-78 -217.5t78 -216.5t199 -82.5z" />
    <glyph glyph-name="r" unicode="r" horiz-adv-x="1046" 
d="M135 0v1034h268v-125h9q57 61 127.5 93t171.5 32h266v-250h-275q-146 0 -222.5 -71.5t-76.5 -214.5v-498h-268z" />
    <glyph glyph-name="s" unicode="s" horiz-adv-x="1114" 
d="M578 -27q-103 0 -188.5 17t-160 55.5t-120.5 110t-54 172.5h275q10 -39 36 -67t62 -43t73 -21.5t77 -6.5q82 -2 139 24t57 85q0 36 -29.5 59.5t-78 33.5t-110.5 21t-127 19.5t-127 31t-110.5 54t-78 90t-29.5 137.5q0 74 28.5 131t73.5 91t107 56t121.5 30t124.5 8
q70 0 133.5 -9.5t125 -34t107.5 -61.5t77.5 -96.5t39.5 -134.5h-274q-16 66 -76 92.5t-135 26.5q-30 0 -58.5 -4t-59.5 -13.5t-50 -30.5t-19 -51q0 -29 23.5 -48.5t63.5 -30t92 -18t109.5 -16.5t115 -21t109.5 -36t92 -58t63.5 -89.5t23.5 -128.5q0 -326 -464 -326z" />
    <glyph glyph-name="t" unicode="t" horiz-adv-x="1167" 
d="M641 0q-334 0 -334 336v455h-237v243h237v326h266v-326h504v-243h-504v-437q0 -60 24.5 -84t86.5 -24h393v-246h-436z" />
    <glyph glyph-name="u" unicode="u" horiz-adv-x="1275" 
d="M1141 1034v-1034h-269v125h-8q-137 -152 -336 -152q-83 0 -155 27.5t-127.5 80.5t-87 138t-31.5 193v622h266v-577q0 -64 20 -112.5t53.5 -74.5t71 -38.5t78.5 -12.5q108 0 182 76t74 219v520h269z" />
    <glyph glyph-name="v" unicode="v" horiz-adv-x="1236" 
d="M444 0l-397 1034h279l288 -749h9l288 749h279l-397 -1034h-349z" />
    <glyph glyph-name="w" unicode="w" horiz-adv-x="1968" 
d="M408 0l-347 1034h277l237 -725h9l225 725h350l225 -725h9l237 725h275l-344 -1034h-349l-225 717h-8l-223 -717h-348z" />
    <glyph glyph-name="x" unicode="x" horiz-adv-x="1175" 
d="M25 0l401 518l-397 516h323l236 -305l237 305h322l-397 -516l401 -518h-322l-241 309l-240 -309h-323z" />
    <glyph glyph-name="y" unicode="y" horiz-adv-x="1249" 
d="M172 -410v246h164q56 0 90.5 25.5t56.5 81.5l27 63l-463 1028h289l301 -682h10l275 682h282l-483 -1181q-41 -103 -87.5 -158.5t-116 -80t-181.5 -24.5h-164z" />
    <glyph glyph-name="z" unicode="z" horiz-adv-x="1081" 
d="M86 0v188l516 598v9h-508v239h893v-190l-516 -598v-8h524v-238h-909z" />
    <glyph glyph-name="braceleft" unicode="{" horiz-adv-x="802" 
d="M82 426h-25v254h25q76 0 120 44t44 120v276q0 167 69.5 240.5t233.5 73.5h209v-244h-160q-47 0 -66.5 -19.5t-19.5 -66.5v-244q0 -121 -51.5 -198t-145.5 -105v-8q94 -28 145.5 -105t51.5 -198v-244q0 -47 19.5 -66.5t66.5 -19.5h160v-244h-209q-164 0 -233.5 73.5
t-69.5 240.5v276q0 76 -44 120t-120 44z" />
    <glyph glyph-name="bar" unicode="|" horiz-adv-x="538" 
d="M135 -410v1844h268v-1844h-268z" />
    <glyph glyph-name="braceright" unicode="}" horiz-adv-x="802" 
d="M745 426h-24q-77 0 -120.5 -44t-43.5 -120v-276q0 -167 -69.5 -240.5t-233.5 -73.5h-209v244h160q47 0 66.5 19.5t19.5 66.5v244q0 121 51 198t145 105v8q-94 28 -145 105t-51 198v244q0 47 -19.5 66.5t-66.5 19.5h-160v244h209q164 0 233.5 -73.5t69.5 -240.5v-276
q0 -76 43.5 -120t120.5 -44h24v-254z" />
    <glyph glyph-name="asciitilde" unicode="~" horiz-adv-x="1181" 
d="M385 817q60 0 110 -16.5t84 -39.5t64 -46t64 -39.5t71 -16.5q58 0 89 35.5t34 100.5h236q-7 -192 -99.5 -287.5t-240.5 -95.5q-60 0 -109.5 16t-83.5 39t-64 46.5t-64 39.5t-70 16q-119 0 -125 -135h-236q7 192 99.5 287.5t240.5 95.5z" />
    <glyph glyph-name="exclamdown" unicode="&#xa1;" horiz-adv-x="512" 
d="M256 1053q76 0 123 -44t47 -118q0 -76 -47 -120t-123 -44q-77 0 -123.5 44t-46.5 120q0 75 46.5 118.5t123.5 43.5zM385 616l10 -1015h-278l8 1015h260z" />
    <glyph glyph-name="cent" unicode="&#xa2;" horiz-adv-x="1204" 
d="M477 -225v213q-184 40 -292.5 179.5t-108.5 348.5q0 210 108.5 349.5t292.5 178.5v205h279v-205q147 -32 249.5 -135t135.5 -268h-277q-34 88 -99.5 132t-152.5 44q-122 0 -195 -81t-73 -220q0 -137 73 -218t195 -81q87 0 152.5 44t99.5 132h277q-33 -166 -135.5 -268.5
t-249.5 -134.5v-215h-279z" />
    <glyph glyph-name="sterling" unicode="&#xa3;" horiz-adv-x="1384" 
d="M127 516v260h178l-18 54t-19 60.5t-12 59t-6 74.5q0 196 128.5 316t360.5 120q241 0 380.5 -125.5t158.5 -335.5h-291q-43 201 -248 201q-204 0 -204 -176q0 -38 9.5 -76t26.5 -86.5t25 -85.5h428v-260h-424q-24 -124 -125 -246v-8h803v-262h-1151v199q151 171 184 317
h-184z" />
    <glyph glyph-name="currency" unicode="&#xa4;" horiz-adv-x="1196" 
d="M598 162q-120 0 -217 51l-135 -135l-172 172l133 133q-53 95 -53 231q0 137 53 232l-133 133l172 172l135 -135q97 51 217 51t217 -51l135 135l172 -172l-133 -133q53 -95 53 -232q0 -136 -53 -231l133 -133l-172 -172l-135 135q-97 -51 -217 -51zM598 369
q113 0 171 65.5t58 179.5t-58.5 180t-170.5 66t-170.5 -66t-58.5 -180t58 -179.5t171 -65.5z" />
    <glyph glyph-name="yen" unicode="&#xa5;" horiz-adv-x="1484" 
d="M1241 754v-199h-997v199h256v8l-426 672h323l340 -549h8l340 549h326l-426 -672v-8h256zM244 246v198h997v-198h-356v-246h-285v246h-356z" />
    <glyph glyph-name="brokenbar" unicode="&#xa6;" horiz-adv-x="538" 
d="M135 717v717h268v-717h-268zM135 -410v717h268v-717h-268z" />
    <glyph glyph-name="section" unicode="&#xa7;" horiz-adv-x="1339" 
d="M694 -436q-139 0 -250.5 33t-184.5 91.5t-113.5 136t-45.5 167.5h295q12 -77 87 -129.5t212 -52.5q109 0 171.5 35t62.5 98q0 101 -174 155l-357 101q-327 93 -327 379q0 189 147 258v8q-90 97 -90 237q0 82 28 147.5t75.5 108.5t114.5 71t141 40t159 12q139 0 250.5 -33
t184.5 -91.5t113.5 -136t45.5 -167.5h-295q-12 77 -87 129.5t-212 52.5q-109 0 -171 -35t-62 -98q0 -101 174 -155l356 -101q328 -93 328 -379q0 -188 -148 -258v-8q90 -97 90 -237q0 -82 -28 -147.5t-75.5 -108.5t-114.5 -71t-141 -40t-159 -12zM467 713
q-113 -23 -113 -135q0 -118 129 -154l330 -94q27 -7 59 -19q113 23 113 135q0 118 -129 154l-330 94q-27 7 -59 19z" />
    <glyph glyph-name="dieresis" unicode="&#xa8;" horiz-adv-x="1024" 
d="M299 1171q-70 0 -113 38t-43 102t43 102.5t113 38.5q71 0 114.5 -38.5t43.5 -102.5t-43.5 -102t-114.5 -38zM725 1171q-71 0 -114.5 38t-43.5 102t43.5 102.5t114.5 38.5q70 0 113 -38.5t43 -102.5t-43 -102t-113 -38z" />
    <glyph glyph-name="copyright" unicode="&#xa9;" horiz-adv-x="1732" 
d="M866 -27q-161 0 -299.5 52.5t-239.5 147t-158.5 235t-57.5 309.5t57.5 309.5t158.5 235t239.5 146.5t299.5 52q215 0 386 -89t270.5 -259.5t99.5 -394.5q0 -169 -58 -309.5t-159 -235t-239.5 -147t-299.5 -52.5zM866 156q248 0 402.5 151.5t154.5 409.5t-154.5 409.5
t-402.5 151.5q-249 0 -403 -151.5t-154 -409.5t154 -409.5t403 -151.5zM866 307q-179 0 -289 111t-110 299t110 298.5t289 110.5q146 0 258.5 -79t147.5 -240h-215q-27 72 -79 101.5t-112 29.5q-90 0 -141 -58t-51 -163t51 -163t141 -58q60 0 112 29.5t79 101.5h215
q-23 -110 -87.5 -184t-144.5 -105t-174 -31z" />
    <glyph glyph-name="ordfeminine" unicode="&#xaa;" horiz-adv-x="968" 
d="M313 551q-49 0 -92.5 9.5t-87.5 33.5t-70 73t-26 119q0 52 16 94t40.5 69.5t63 49.5t73.5 34.5t83 25.5l305 84v12q0 59 -43 87t-108 28q-69 0 -116 -30.5t-56 -86.5h-221q17 151 122 226t271 75q54 0 101.5 -7t97 -28t85 -54t58 -89t22.5 -129v-326q0 -23 9.5 -32
t33.5 -9h52v-207h-187q-89 0 -110 76l-8 29h-9q-114 -127 -299 -127zM373 729q103 0 174 58.5t71 160.5v23l-262 -74q-54 -14 -79 -34.5t-25 -55.5q0 -78 121 -78z" />
    <glyph glyph-name="guillemotleft" unicode="&#xab;" horiz-adv-x="1138" 
d="M311 160l-282 372l282 373h303l-282 -373l282 -372h-303zM778 160l-282 372l282 373h303l-282 -373l282 -372h-303z" />
    <glyph glyph-name="logicalnot" unicode="&#xac;" horiz-adv-x="1183" 
d="M850 86v408h-780v241h1024v-649h-244z" />
    <glyph glyph-name="registered" unicode="&#xae;" horiz-adv-x="1222" 
d="M610 387q-230 0 -382 152.5t-152 382.5t152 382t382 152q152 0 274.5 -69t192.5 -191.5t70 -273.5q0 -230 -153.5 -382.5t-383.5 -152.5zM610 512q183 0 291.5 112t108.5 298q0 185 -108 297t-292 112q-183 0 -290 -111.5t-107 -297.5t107 -298t290 -112zM389 674v495
h293q81 0 134.5 -44t53.5 -121q0 -60 -32 -100.5t-86 -55.5l110 -174h-133l-102 162h-117v-162h-121zM510 948h172q68 0 68 56q0 53 -68 53h-172v-109z" />
    <glyph glyph-name="macron" unicode="&#xaf;" horiz-adv-x="1024" 
d="M164 1206v189h696v-189h-696z" />
    <glyph glyph-name="degree" unicode="&#xb0;" horiz-adv-x="841" 
d="M422 725q-167 0 -273 101.5t-106 263.5t106.5 264t272.5 102q165 0 271 -102t106 -264t-106 -263.5t-271 -101.5zM584 1090q0 72 -44.5 115.5t-117.5 43.5q-74 0 -119 -43.5t-45 -115.5q0 -71 45.5 -114.5t118.5 -43.5t117.5 43.5t44.5 114.5z" />
    <glyph glyph-name="plusminus" unicode="&#xb1;" horiz-adv-x="1204" 
d="M90 719v244h391v376h242v-376h391v-244h-391v-377h-242v377h-391zM90 0v242h1024v-242h-1024z" />
    <glyph glyph-name="twosuperior" unicode="&#xb2;" horiz-adv-x="798" 
d="M53 737v164l389 330q70 58 70 117q0 77 -106 77q-116 0 -134 -100h-219q8 86 42 146.5t86.5 91.5t106.5 44t118 13q153 0 238 -66t85 -190q0 -79 -36 -136.5t-103 -115.5l-195 -166v-8h334v-201h-676z" />
    <glyph glyph-name="threesuperior" unicode="&#xb3;" horiz-adv-x="823" 
d="M418 715q-73 0 -135.5 15t-114.5 45.5t-83.5 83.5t-35.5 124h217q7 -40 50 -61t102 -21q55 0 95 21t40 67q0 43 -36.5 67.5t-110.5 24.5h-105v187h102q64 0 96.5 23t32.5 61q0 43 -35.5 62.5t-86.5 19.5q-54 0 -92 -20t-44 -62h-217q5 74 35.5 128t81 83.5t108.5 43
t128 13.5q152 0 246 -61t94 -179q0 -130 -123 -186v-8q139 -61 139 -217q0 -125 -98.5 -189.5t-249.5 -64.5z" />
    <glyph glyph-name="acute" unicode="&#xb4;" horiz-adv-x="1024" 
d="M352 1167l164 267h293l-164 -267h-293z" />
    <glyph glyph-name="paragraph" unicode="&#xb6;" horiz-adv-x="1216" 
d="M500 0v696q-451 0 -451 369t451 369h581v-1434h-229v1174h-123v-1174h-229z" />
    <glyph glyph-name="periodcentered" unicode="&#xb7;" horiz-adv-x="520" 
d="M260 371q-77 0 -123.5 43.5t-46.5 117.5q0 76 46.5 120t123.5 44q76 0 123 -44t47 -120q0 -74 -47 -117.5t-123 -43.5z" />
    <glyph glyph-name="cedilla" unicode="&#xb8;" horiz-adv-x="1024" 
d="M350 -410v179h68q86 0 86 53q0 51 -86 51h-35l72 172h159l-47 -108q72 -14 118 -56.5t46 -109.5q0 -94 -85.5 -137.5t-217.5 -43.5h-78z" />
    <glyph glyph-name="onesuperior" unicode="&#xb9;" horiz-adv-x="636" 
d="M289 737v598l-180 -90l-82 187l331 165h148v-860h-217z" />
    <glyph glyph-name="ordmasculine" unicode="&#xba;" horiz-adv-x="974" 
d="M487 551q-194 0 -319 123.5t-125 329.5t125 329t319 123t319.5 -123t125.5 -329t-125.5 -329.5t-319.5 -123.5zM487 758q113 0 171.5 66t58.5 180q0 113 -58.5 179t-171.5 66t-171 -65.5t-58 -179.5t58.5 -180t170.5 -66z" />
    <glyph glyph-name="guillemotright" unicode="&#xbb;" horiz-adv-x="1138" 
d="M1110 532l-283 -372h-303l283 372l-283 373h303zM643 532l-283 -372h-303l283 372l-283 373h303z" />
    <glyph glyph-name="onequarter" unicode="&#xbc;" horiz-adv-x="1720" 
d="M289 573v598l-180 -90l-82 187l331 166h148v-861h-217zM297 0l821 1434h217l-821 -1434h-217zM1348 0v172h-435v139l353 549h299v-502h94v-186h-94v-172h-217zM1153 358h195v289h-9l-186 -280v-9z" />
    <glyph glyph-name="onehalf" unicode="&#xbd;" horiz-adv-x="1761" 
d="M289 573v598l-180 -90l-82 187l331 166h148v-861h-217zM297 0l821 1434h217l-821 -1434h-217zM1016 0v164l389 330q70 58 70 116q0 41 -30.5 59.5t-76.5 18.5q-115 0 -133 -100h-219q8 86 42 146.5t86 91.5t106.5 44t117.5 13q153 0 238.5 -66t85.5 -190q0 -79 -36 -136
t-104 -116l-194 -166v-8h334v-201h-676z" />
    <glyph glyph-name="threequarters" unicode="&#xbe;" horiz-adv-x="1906" 
d="M418 551q-73 0 -135.5 15t-114.5 45.5t-83.5 83.5t-35.5 124h217q7 -40 50 -61t102 -21q55 0 95 21t40 67q0 43 -36.5 68t-110.5 25h-105v186h102q64 0 96.5 23t32.5 61q0 43 -35.5 62.5t-86.5 19.5q-54 0 -92 -20t-44 -62h-217q5 74 35.5 128t81 83.5t108.5 43t128 13.5
q152 0 246 -60.5t94 -178.5q0 -131 -123 -187v-8q139 -61 139 -217q0 -125 -98.5 -189.5t-249.5 -64.5zM483 0l822 1434h217l-822 -1434h-217zM1534 0v172h-434v139l352 549h299v-502h94v-186h-94v-172h-217zM1339 358h195v289h-8l-187 -280v-9z" />
    <glyph glyph-name="questiondown" unicode="&#xbf;" horiz-adv-x="1175" 
d="M600 1053q77 0 123.5 -43.5t46.5 -118.5q0 -76 -46.5 -120t-123.5 -44q-76 0 -123 44t-47 120q0 74 47 118t123 44zM752 616q0 -89 -23 -159.5t-60 -114.5t-81.5 -79t-89 -62t-81.5 -54t-60 -64.5t-23 -84.5q0 -89 68 -132.5t163 -43.5q67 0 124.5 21t100.5 73.5
t48 130.5h288q-5 -106 -41.5 -189.5t-91 -136t-128 -86.5t-147 -47.5t-153.5 -13.5q-111 0 -204.5 26.5t-163.5 78t-109 133.5t-39 186q0 78 23 138.5t60 99.5t81.5 71t89 61t81.5 61t60 79.5t23 107.5h285z" />
    <glyph glyph-name="Agrave" unicode="&#xc0;" horiz-adv-x="1585" 
d="M788 1833l164 -266h-293l-163 266h292zM1556 0h-303l-127 305h-665l-127 -305h-303l598 1434h329zM563 559h461l-227 541h-9z" />
    <glyph glyph-name="Aacute" unicode="&#xc1;" horiz-adv-x="1585" 
d="M633 1567l164 266h293l-164 -266h-293zM1556 0h-303l-127 305h-665l-127 -305h-303l598 1434h329zM563 559h461l-227 541h-9z" />
    <glyph glyph-name="Acircumflex" unicode="&#xc2;" horiz-adv-x="1585" 
d="M444 1567l226 311h245l226 -311h-238l-106 147h-9l-106 -147h-238zM1556 0h-303l-127 305h-665l-127 -305h-303l598 1434h329zM563 559h461l-227 541h-9z" />
    <glyph glyph-name="Atilde" unicode="&#xc3;" horiz-adv-x="1585" 
d="M649 1847q46 0 86 -15.5t63.5 -34.5t53 -34.5t57.5 -15.5q32 0 49 18t21 60h188q-9 -139 -70 -206t-161 -67q-46 0 -86 16t-63 34.5t-53 34.5t-58 16q-32 0 -49 -18t-21 -60h-188q9 139 70 205.5t161 66.5zM1556 0h-303l-127 305h-665l-127 -305h-303l598 1434h329z
M563 559h461l-227 541h-9z" />
    <glyph glyph-name="Adieresis" unicode="&#xc4;" horiz-adv-x="1585" 
d="M580 1571q-70 0 -113 37.5t-43 101.5t43 102.5t113 38.5q71 0 114 -38.5t43 -102.5t-43 -101.5t-114 -37.5zM1006 1571q-71 0 -114.5 37.5t-43.5 101.5t43.5 102.5t114.5 38.5q69 0 112 -38.5t43 -102.5t-42.5 -101.5t-112.5 -37.5zM1556 0h-303l-127 305h-665l-127 -305
h-303l598 1434h329zM563 559h461l-227 541h-9z" />
    <glyph glyph-name="Aring" unicode="&#xc5;" horiz-adv-x="1585" 
d="M793 1532q-102 0 -170 58t-68 159q0 102 68 160.5t170 58.5t169.5 -58.5t67.5 -160.5q0 -101 -67.5 -159t-169.5 -58zM731 1749q0 -22 17.5 -40.5t39.5 -18.5q23 0 44.5 18.5t21.5 40.5q0 23 -17 41t-40 18q-24 0 -41 -14q-25 -19 -25 -45zM1556 0h-303l-127 305h-665
l-127 -305h-303l598 1434h329zM563 559h461l-227 541h-9z" />
    <glyph glyph-name="AE" unicode="&#xc6;" horiz-adv-x="2416" 
d="M27 0l1020 1434h1243v-256h-807v-316h717v-248h-717v-358h807v-256h-1090v309h-629l-221 -309h-323zM748 563h452v623h-8z" />
    <glyph glyph-name="Ccedilla" unicode="&#xc7;" horiz-adv-x="1638" 
d="M668 -410v179h69q86 0 86 53q0 51 -86 51h-35l46 104q-286 31 -461.5 232t-175.5 508q0 220 93 389.5t258.5 261.5t375.5 92q274 0 463 -150.5t245 -408.5h-299q-48 141 -152.5 220t-256.5 79q-200 0 -322.5 -132.5t-122.5 -350.5t122.5 -351t322.5 -133q152 0 256.5 79
t152.5 220h299q-53 -242 -223.5 -390t-419.5 -167l-16 -38q72 -14 117 -56.5t45 -109.5q0 -94 -84.5 -137.5t-216.5 -43.5h-80z" />
    <glyph glyph-name="Egrave" unicode="&#xc8;" horiz-adv-x="1468" 
d="M762 1833l164 -266h-293l-164 266h293zM455 614v-358h886v-256h-1171v1434h1171v-256h-886v-316h796v-248h-796z" />
    <glyph glyph-name="Eacute" unicode="&#xc9;" horiz-adv-x="1468" 
d="M606 1567l164 266h293l-164 -266h-293zM455 614v-358h886v-256h-1171v1434h1171v-256h-886v-316h796v-248h-796z" />
    <glyph glyph-name="Ecircumflex" unicode="&#xca;" horiz-adv-x="1468" 
d="M418 1567l225 311h246l225 -311h-237l-107 147h-8l-107 -147h-237zM455 614v-358h886v-256h-1171v1434h1171v-256h-886v-316h796v-248h-796z" />
    <glyph glyph-name="Edieresis" unicode="&#xcb;" horiz-adv-x="1468" 
d="M553 1571q-70 0 -113 37.5t-43 101.5t43 102.5t113 38.5q71 0 114.5 -38.5t43.5 -102.5t-43.5 -101.5t-114.5 -37.5zM979 1571q-71 0 -114.5 37.5t-43.5 101.5t43.5 102.5t114.5 38.5q70 0 113 -38.5t43 -102.5t-43 -101.5t-113 -37.5zM455 614v-358h886v-256h-1171v1434
h1171v-256h-886v-316h796v-248h-796z" />
    <glyph glyph-name="Igrave" unicode="&#xcc;" horiz-adv-x="622" 
d="M307 1833l164 -266h-293l-164 266h293zM170 0v1434h285v-1434h-285z" />
    <glyph glyph-name="Iacute" unicode="&#xcd;" horiz-adv-x="622" 
d="M152 1567l163 266h293l-164 -266h-292zM170 0v1434h285v-1434h-285z" />
    <glyph glyph-name="Icircumflex" unicode="&#xce;" horiz-adv-x="622" 
d="M-37 1567l225 311h246l225 -311h-237l-107 147h-8l-106 -147h-238zM170 0v1434h285v-1434h-285z" />
    <glyph glyph-name="Idieresis" unicode="&#xcf;" horiz-adv-x="622" 
d="M98 1571q-70 0 -112.5 37.5t-42.5 101.5t43 102.5t112 38.5q71 0 114.5 -38.5t43.5 -102.5t-43.5 -101.5t-114.5 -37.5zM524 1571q-71 0 -114 37.5t-43 101.5t43 102.5t114 38.5q70 0 113 -38.5t43 -102.5t-43 -101.5t-113 -37.5zM170 0v1434h285v-1434h-285z" />
    <glyph glyph-name="Eth" unicode="&#xd0;" horiz-adv-x="1650" 
d="M211 0v608h-182v260h182v566h596q211 0 376.5 -85t261 -249.5t95.5 -382.5t-95.5 -382.5t-261 -249.5t-376.5 -85h-596zM496 256h311q201 0 324.5 122t123.5 339t-123.5 339t-324.5 122h-311v-310h352v-260h-352v-352z" />
    <glyph glyph-name="Ntilde" unicode="&#xd1;" horiz-adv-x="1662" 
d="M690 1847q46 0 86 -15.5t63 -34.5t53 -34.5t58 -15.5q32 0 49 18t21 60h188q-9 -139 -70 -206t-161 -67q-46 0 -86 16t-63.5 34.5t-53 34.5t-57.5 16q-32 0 -49 -18t-21 -60h-188q9 139 70 205.5t161 66.5zM1493 1434v-1434h-354l-676 1014h-8v-1014h-285v1434h352
l678 -1014h8v1014h285z" />
    <glyph glyph-name="Ograve" unicode="&#xd2;" horiz-adv-x="1701" 
d="M848 1833l164 -266h-293l-164 266h293zM852 -27q-157 0 -293.5 54t-235.5 150t-155.5 236t-56.5 304q0 219 97 389t265.5 262t378.5 92t378.5 -92t265.5 -262t97 -389q0 -164 -56.5 -304t-155.5 -236t-235.5 -150t-293.5 -54zM852 233q199 0 328 134t129 350t-129 349.5
t-328 133.5q-200 0 -329.5 -133.5t-129.5 -349.5t129.5 -350t329.5 -134z" />
    <glyph glyph-name="Oacute" unicode="&#xd3;" horiz-adv-x="1701" 
d="M692 1567l164 266h293l-164 -266h-293zM852 -27q-157 0 -293.5 54t-235.5 150t-155.5 236t-56.5 304q0 219 97 389t265.5 262t378.5 92t378.5 -92t265.5 -262t97 -389q0 -164 -56.5 -304t-155.5 -236t-235.5 -150t-293.5 -54zM852 233q199 0 328 134t129 350t-129 349.5
t-328 133.5q-200 0 -329.5 -133.5t-129.5 -349.5t129.5 -350t329.5 -134z" />
    <glyph glyph-name="Ocircumflex" unicode="&#xd4;" horiz-adv-x="1701" 
d="M504 1567l225 311h246l225 -311h-237l-107 147h-8l-107 -147h-237zM852 -27q-157 0 -293.5 54t-235.5 150t-155.5 236t-56.5 304q0 219 97 389t265.5 262t378.5 92t378.5 -92t265.5 -262t97 -389q0 -164 -56.5 -304t-155.5 -236t-235.5 -150t-293.5 -54zM852 233
q199 0 328 134t129 350t-129 349.5t-328 133.5q-200 0 -329.5 -133.5t-129.5 -349.5t129.5 -350t329.5 -134z" />
    <glyph glyph-name="Otilde" unicode="&#xd5;" horiz-adv-x="1701" 
d="M709 1847q46 0 86 -15.5t63.5 -34.5t53 -34.5t57.5 -15.5q31 0 48 18t21 60h189q-9 -139 -70.5 -206t-161.5 -67q-46 0 -86 16t-63.5 34.5t-53 34.5t-57.5 16q-31 0 -48 -18t-21 -60h-189q9 139 70.5 205.5t161.5 66.5zM852 -27q-157 0 -293.5 54t-235.5 150t-155.5 236
t-56.5 304q0 219 97 389t265.5 262t378.5 92t378.5 -92t265.5 -262t97 -389q0 -164 -56.5 -304t-155.5 -236t-235.5 -150t-293.5 -54zM852 233q199 0 328 134t129 350t-129 349.5t-328 133.5q-200 0 -329.5 -133.5t-129.5 -349.5t129.5 -350t329.5 -134z" />
    <glyph glyph-name="Odieresis" unicode="&#xd6;" horiz-adv-x="1701" 
d="M639 1571q-70 0 -113 37.5t-43 101.5t43 102.5t113 38.5q71 0 114.5 -38.5t43.5 -102.5t-43.5 -101.5t-114.5 -37.5zM1065 1571q-71 0 -114.5 37.5t-43.5 101.5t43.5 102.5t114.5 38.5q70 0 113 -38.5t43 -102.5t-43 -101.5t-113 -37.5zM852 -27q-157 0 -293.5 54
t-235.5 150t-155.5 236t-56.5 304q0 219 97 389t265.5 262t378.5 92t378.5 -92t265.5 -262t97 -389q0 -164 -56.5 -304t-155.5 -236t-235.5 -150t-293.5 -54zM852 233q199 0 328 134t129 350t-129 349.5t-328 133.5q-200 0 -329.5 -133.5t-129.5 -349.5t129.5 -350
t329.5 -134z" />
    <glyph glyph-name="multiply" unicode="&#xd7;" horiz-adv-x="1097" 
d="M238 133l-172 170l311 313l-309 310l172 170l309 -310l309 310l170 -170l-309 -310l313 -313l-172 -170l-311 311z" />
    <glyph glyph-name="Oslash" unicode="&#xd8;" horiz-adv-x="1701" 
d="M852 -27q-136 0 -254 41l-84 -149h-283l148 262q-127 99 -197.5 251t-70.5 339q0 219 97 389t265.5 262t378.5 92q137 0 252 -41l84 150h282l-147 -262q128 -98 199 -250t71 -340q0 -164 -56.5 -304t-155.5 -236t-235.5 -150t-293.5 -54zM518 377l453 805q-55 18 -119 18
q-200 0 -329.5 -133.5t-129.5 -349.5q0 -205 125 -340zM852 233q199 0 328 134t129 350q0 204 -123 340l-455 -805q59 -19 121 -19z" />
    <glyph glyph-name="Ugrave" unicode="&#xd9;" horiz-adv-x="1579" 
d="M786 1833l164 -266h-293l-163 266h292zM791 -27q-296 0 -473 178t-177 500v783h285v-783q0 -207 99.5 -312.5t265.5 -105.5q165 0 264.5 105.5t99.5 312.5v783h283v-783q0 -322 -176 -500t-471 -178z" />
    <glyph glyph-name="Uacute" unicode="&#xda;" horiz-adv-x="1579" 
d="M631 1567l164 266h292l-163 -266h-293zM791 -27q-296 0 -473 178t-177 500v783h285v-783q0 -207 99.5 -312.5t265.5 -105.5q165 0 264.5 105.5t99.5 312.5v783h283v-783q0 -322 -176 -500t-471 -178z" />
    <glyph glyph-name="Ucircumflex" unicode="&#xdb;" horiz-adv-x="1579" 
d="M442 1567l226 311h245l226 -311h-238l-106 147h-9l-106 -147h-238zM791 -27q-296 0 -473 178t-177 500v783h285v-783q0 -207 99.5 -312.5t265.5 -105.5q165 0 264.5 105.5t99.5 312.5v783h283v-783q0 -322 -176 -500t-471 -178z" />
    <glyph glyph-name="Udieresis" unicode="&#xdc;" horiz-adv-x="1579" 
d="M578 1571q-70 0 -113 37.5t-43 101.5t43 102.5t113 38.5q71 0 114 -38.5t43 -102.5t-43 -101.5t-114 -37.5zM1004 1571q-71 0 -114.5 37.5t-43.5 101.5t43.5 102.5t114.5 38.5q69 0 112 -38.5t43 -102.5t-42.5 -101.5t-112.5 -37.5zM791 -27q-296 0 -473 178t-177 500
v783h285v-783q0 -207 99.5 -312.5t265.5 -105.5q165 0 264.5 105.5t99.5 312.5v783h283v-783q0 -322 -176 -500t-471 -178z" />
    <glyph glyph-name="Yacute" unicode="&#xdd;" horiz-adv-x="1572" 
d="M627 1567l164 266h292l-163 -266h-293zM645 0v578l-618 856h333l426 -590l426 590h334l-618 -856v-578h-283z" />
    <glyph glyph-name="Thorn" unicode="&#xde;" horiz-adv-x="1570" 
d="M989 260h-534v-260h-285v1434h285v-217h534q220 0 362 -130t142 -348q0 -145 -66.5 -255t-180 -167t-257.5 -57zM455 516h534q102 0 160.5 62t58.5 161t-58.5 161.5t-160.5 62.5h-534v-447z" />
    <glyph glyph-name="germandbls" unicode="&#xdf;" horiz-adv-x="1300" 
d="M135 0v987q0 112 33.5 198.5t84 137t120 83t132.5 43.5t130 11q216 0 352.5 -108.5t136.5 -286.5q0 -156 -114 -258v-8q99 -43 156 -135.5t57 -231.5q0 -95 -29.5 -172.5t-89.5 -136.5t-160.5 -91t-234.5 -32h-152v244h150q254 0 254 194q0 193 -254 193h-150v243h80
q107 0 166 44t59 129q0 83 -59.5 126.5t-167.5 43.5q-114 0 -173 -54t-59 -176v-987h-268z" />
    <glyph glyph-name="agrave" unicode="&#xe0;" horiz-adv-x="1191" 
d="M586 1434l164 -267h-293l-164 267h293zM403 -27q-46 0 -88 6.5t-88.5 25t-80.5 49t-56 83t-22 121.5q0 64 20.5 115t50 83.5t77.5 59.5t86.5 40.5t94.5 29.5l363 98v16q0 71 -50 107.5t-122 36.5q-77 0 -134 -39.5t-67 -106.5h-274q18 181 147 272t328 91q65 0 122 -9.5
t115.5 -35t100 -65.5t68 -107t26.5 -154v-395q0 -27 11.5 -38t39.5 -11h64v-246h-224q-109 0 -133 90l-10 35h-8q-135 -152 -357 -152zM473 182q124 0 205.5 71t81.5 193v31l-309 -84q-60 -15 -88.5 -41.5t-28.5 -68.5q0 -101 139 -101z" />
    <glyph glyph-name="aacute" unicode="&#xe1;" horiz-adv-x="1191" 
d="M430 1167l164 267h293l-164 -267h-293zM403 -27q-46 0 -88 6.5t-88.5 25t-80.5 49t-56 83t-22 121.5q0 64 20.5 115t50 83.5t77.5 59.5t86.5 40.5t94.5 29.5l363 98v16q0 71 -50 107.5t-122 36.5q-77 0 -134 -39.5t-67 -106.5h-274q18 181 147 272t328 91q65 0 122 -9.5
t115.5 -35t100 -65.5t68 -107t26.5 -154v-395q0 -27 11.5 -38t39.5 -11h64v-246h-224q-109 0 -133 90l-10 35h-8q-135 -152 -357 -152zM473 182q124 0 205.5 71t81.5 193v31l-309 -84q-60 -15 -88.5 -41.5t-28.5 -68.5q0 -101 139 -101z" />
    <glyph glyph-name="acircumflex" unicode="&#xe2;" horiz-adv-x="1191" 
d="M242 1167l225 312h246l225 -312h-238l-106 148h-8l-107 -148h-237zM403 -27q-46 0 -88 6.5t-88.5 25t-80.5 49t-56 83t-22 121.5q0 64 20.5 115t50 83.5t77.5 59.5t86.5 40.5t94.5 29.5l363 98v16q0 71 -50 107.5t-122 36.5q-77 0 -134 -39.5t-67 -106.5h-274
q18 181 147 272t328 91q65 0 122 -9.5t115.5 -35t100 -65.5t68 -107t26.5 -154v-395q0 -27 11.5 -38t39.5 -11h64v-246h-224q-109 0 -133 90l-10 35h-8q-135 -152 -357 -152zM473 182q124 0 205.5 71t81.5 193v31l-309 -84q-60 -15 -88.5 -41.5t-28.5 -68.5q0 -101 139 -101
z" />
    <glyph glyph-name="atilde" unicode="&#xe3;" horiz-adv-x="1191" 
d="M446 1448q46 0 86 -15.5t63.5 -34.5t53.5 -34.5t58 -15.5q32 0 48.5 17.5t20.5 59.5h189q-9 -139 -70.5 -205.5t-161.5 -66.5q-46 0 -86 15.5t-63 34.5t-53 34.5t-58 15.5q-32 0 -49 -17.5t-21 -59.5h-188q9 139 70 205.5t161 66.5zM403 -27q-46 0 -88 6.5t-88.5 25
t-80.5 49t-56 83t-22 121.5q0 64 20.5 115t50 83.5t77.5 59.5t86.5 40.5t94.5 29.5l363 98v16q0 71 -50 107.5t-122 36.5q-77 0 -134 -39.5t-67 -106.5h-274q18 181 147 272t328 91q65 0 122 -9.5t115.5 -35t100 -65.5t68 -107t26.5 -154v-395q0 -27 11.5 -38t39.5 -11h64
v-246h-224q-109 0 -133 90l-10 35h-8q-135 -152 -357 -152zM473 182q124 0 205.5 71t81.5 193v31l-309 -84q-60 -15 -88.5 -41.5t-28.5 -68.5q0 -101 139 -101z" />
    <glyph glyph-name="adieresis" unicode="&#xe4;" horiz-adv-x="1191" 
d="M377 1171q-70 0 -113 38t-43 102t43 102.5t113 38.5q71 0 114.5 -38.5t43.5 -102.5t-43.5 -102t-114.5 -38zM803 1171q-71 0 -114.5 38t-43.5 102t43.5 102.5t114.5 38.5q69 0 112 -38.5t43 -102.5t-42.5 -102t-112.5 -38zM403 -27q-46 0 -88 6.5t-88.5 25t-80.5 49
t-56 83t-22 121.5q0 64 20.5 115t50 83.5t77.5 59.5t86.5 40.5t94.5 29.5l363 98v16q0 71 -50 107.5t-122 36.5q-77 0 -134 -39.5t-67 -106.5h-274q18 181 147 272t328 91q65 0 122 -9.5t115.5 -35t100 -65.5t68 -107t26.5 -154v-395q0 -27 11.5 -38t39.5 -11h64v-246h-224
q-109 0 -133 90l-10 35h-8q-135 -152 -357 -152zM473 182q124 0 205.5 71t81.5 193v31l-309 -84q-60 -15 -88.5 -41.5t-28.5 -68.5q0 -101 139 -101z" />
    <glyph glyph-name="aring" unicode="&#xe5;" horiz-adv-x="1191" 
d="M590 1133q-102 0 -170 58t-68 159q0 102 68 160.5t170 58.5t169.5 -58.5t67.5 -160.5q0 -101 -67.5 -159t-169.5 -58zM528 1350q0 -22 18 -41t40 -19q23 0 44 18.5t21 41.5t-17 41t-40 18q-24 0 -41 -14q-25 -19 -25 -45zM403 -27q-46 0 -88 6.5t-88.5 25t-80.5 49
t-56 83t-22 121.5q0 64 20.5 115t50 83.5t77.5 59.5t86.5 40.5t94.5 29.5l363 98v16q0 71 -50 107.5t-122 36.5q-77 0 -134 -39.5t-67 -106.5h-274q18 181 147 272t328 91q65 0 122 -9.5t115.5 -35t100 -65.5t68 -107t26.5 -154v-395q0 -27 11.5 -38t39.5 -11h64v-246h-224
q-109 0 -133 90l-10 35h-8q-135 -152 -357 -152zM473 182q124 0 205.5 71t81.5 193v31l-309 -84q-60 -15 -88.5 -41.5t-28.5 -68.5q0 -101 139 -101z" />
    <glyph glyph-name="ae" unicode="&#xe6;" horiz-adv-x="1898" 
d="M442 -27q-374 0 -374 285q0 64 20.5 115t50 83.5t77.5 59.5t86.5 40.5t94.5 29.5l363 98v16q0 71 -47.5 107.5t-120.5 36.5q-80 0 -137.5 -39.5t-67.5 -106.5h-274q18 181 148 272t331 91q234 0 342 -154h4q133 154 358 154q150 0 269 -64.5t188.5 -187.5t69.5 -283
l-4 -98h-791q20 -109 92 -173.5t176 -64.5q72 0 132 32t94 89h278q-54 -147 -186.5 -242.5t-317.5 -95.5q-257 0 -409 191h-8q-70 -88 -172 -139.5t-265 -51.5zM1034 629h514q-21 96 -86 155.5t-166 59.5q-98 0 -168.5 -57.5t-93.5 -157.5zM473 182q124 0 205.5 71t81.5 193
v31l-309 -84q-60 -15 -88.5 -41.5t-28.5 -68.5q0 -101 139 -101z" />
    <glyph glyph-name="ccedilla" unicode="&#xe7;" horiz-adv-x="1204" 
d="M449 -410v179h67q86 0 86 53q0 51 -86 51h-35l45 104q-204 28 -327 172t-123 367q0 248 148.5 396.5t387.5 148.5q197 0 342.5 -106.5t186.5 -313.5h-277q-34 88 -99.5 132t-152.5 44q-122 0 -195 -81t-73 -220q0 -137 73 -218t195 -81q87 0 152.5 44t99.5 132h277
q-37 -187 -160.5 -293.5t-296.5 -124.5l-18 -38q72 -14 117.5 -56.5t45.5 -109.5q0 -94 -85.5 -137.5t-217.5 -43.5h-77z" />
    <glyph glyph-name="egrave" unicode="&#xe8;" horiz-adv-x="1216" 
d="M610 1434l164 -267h-293l-164 267h293zM614 -27q-150 0 -272.5 66.5t-194 191.5t-71.5 285t72 285.5t194.5 192.5t271.5 67q150 0 269 -64.5t188.5 -187.5t69.5 -283l-4 -98h-789q19 -109 90.5 -173.5t175.5 -64.5q73 0 132.5 32t93.5 89h278q-54 -147 -186.5 -242.5
t-317.5 -95.5zM352 629h516q-23 97 -87.5 156t-166.5 59q-98 0 -168.5 -57.5t-93.5 -157.5z" />
    <glyph glyph-name="eacute" unicode="&#xe9;" horiz-adv-x="1216" 
d="M455 1167l163 267h293l-163 -267h-293zM614 -27q-150 0 -272.5 66.5t-194 191.5t-71.5 285t72 285.5t194.5 192.5t271.5 67q150 0 269 -64.5t188.5 -187.5t69.5 -283l-4 -98h-789q19 -109 90.5 -173.5t175.5 -64.5q73 0 132.5 32t93.5 89h278q-54 -147 -186.5 -242.5
t-317.5 -95.5zM352 629h516q-23 97 -87.5 156t-166.5 59q-98 0 -168.5 -57.5t-93.5 -157.5z" />
    <glyph glyph-name="ecircumflex" unicode="&#xea;" horiz-adv-x="1216" 
d="M266 1167l226 312h245l226 -312h-238l-107 148h-8l-106 -148h-238zM614 -27q-150 0 -272.5 66.5t-194 191.5t-71.5 285t72 285.5t194.5 192.5t271.5 67q150 0 269 -64.5t188.5 -187.5t69.5 -283l-4 -98h-789q19 -109 90.5 -173.5t175.5 -64.5q73 0 132.5 32t93.5 89h278
q-54 -147 -186.5 -242.5t-317.5 -95.5zM352 629h516q-23 97 -87.5 156t-166.5 59q-98 0 -168.5 -57.5t-93.5 -157.5z" />
    <glyph glyph-name="edieresis" unicode="&#xeb;" horiz-adv-x="1216" 
d="M401 1171q-70 0 -112.5 38t-42.5 102t43 102.5t112 38.5q71 0 114.5 -38.5t43.5 -102.5t-43.5 -102t-114.5 -38zM827 1171q-71 0 -114 38t-43 102t43 102.5t114 38.5q70 0 113 -38.5t43 -102.5t-43 -102t-113 -38zM614 -27q-150 0 -272.5 66.5t-194 191.5t-71.5 285
t72 285.5t194.5 192.5t271.5 67q150 0 269 -64.5t188.5 -187.5t69.5 -283l-4 -98h-789q19 -109 90.5 -173.5t175.5 -64.5q73 0 132.5 32t93.5 89h278q-54 -147 -186.5 -242.5t-317.5 -95.5zM352 629h516q-23 97 -87.5 156t-166.5 59q-98 0 -168.5 -57.5t-93.5 -157.5z" />
    <glyph glyph-name="igrave" unicode="&#xec;" horiz-adv-x="538" 
d="M266 1434l164 -267h-293l-164 267h293zM135 0v1034h268v-1034h-268z" />
    <glyph glyph-name="iacute" unicode="&#xed;" horiz-adv-x="538" 
d="M111 1167l163 267h293l-164 -267h-292zM135 0v1034h268v-1034h-268z" />
    <glyph glyph-name="icircumflex" unicode="&#xee;" horiz-adv-x="538" 
d="M-78 1167l225 312h246l225 -312h-237l-107 148h-8l-106 -148h-238zM135 0v1034h268v-1034h-268z" />
    <glyph glyph-name="idieresis" unicode="&#xef;" horiz-adv-x="538" 
d="M57 1171q-70 0 -112.5 38t-42.5 102t43 102.5t112 38.5q71 0 114.5 -38.5t43.5 -102.5t-43.5 -102t-114.5 -38zM483 1171q-71 0 -114 38t-43 102t43 102.5t114 38.5q70 0 113 -38.5t43 -102.5t-43 -102t-113 -38zM135 0v1034h268v-1034h-268z" />
    <glyph glyph-name="eth" unicode="&#xf0;" horiz-adv-x="1261" 
d="M252 1108l41 131q-61 11 -127 21v231q30 -4 63 -9t71.5 -12t59.5 -10l41 135l193 -47l-41 -133q152 -48 264.5 -117.5t193.5 -169.5t122 -236.5t41 -309.5q0 -290 -150 -449.5t-401 -159.5q-156 0 -280 62t-195.5 178.5t-71.5 267.5q0 113 41.5 209.5t110 160.5
t157.5 100t184 36q201 0 316 -127h8q-46 123 -146.5 203t-261.5 133l-41 -135zM623 217q122 0 201 73t79 191q0 120 -79 193.5t-201 73.5q-121 0 -200 -73.5t-79 -193.5q0 -118 79.5 -191t199.5 -73z" />
    <glyph glyph-name="ntilde" unicode="&#xf1;" horiz-adv-x="1275" 
d="M504 1448q46 0 86 -15.5t63 -34.5t53 -34.5t58 -15.5q32 0 49 17.5t21 59.5h188q-9 -139 -70 -205.5t-161 -66.5q-46 0 -86 15.5t-63.5 34.5t-53.5 34.5t-58 15.5q-32 0 -48.5 -17.5t-20.5 -59.5h-189q9 139 70.5 205.5t161.5 66.5zM135 0v1034h268v-125h9
q137 152 336 152q83 0 155 -27.5t127.5 -80.5t87 -137.5t31.5 -192.5v-623h-266v578q0 52 -13.5 93.5t-35.5 68t-52 44t-60.5 24.5t-62.5 7q-108 0 -182 -76t-74 -219v-520h-268z" />
    <glyph glyph-name="ograve" unicode="&#xf2;" horiz-adv-x="1247" 
d="M618 1434l164 -267h-293l-163 267h292zM623 -27q-238 0 -392.5 149.5t-154.5 393.5q0 245 154.5 395t392.5 150q157 0 281 -66.5t195.5 -191t71.5 -287.5q0 -244 -154.5 -393.5t-393.5 -149.5zM623 217q122 0 201 81.5t79 217.5q0 137 -79 219t-201 82q-121 0 -200 -82
t-79 -219q0 -135 79 -217t200 -82z" />
    <glyph glyph-name="oacute" unicode="&#xf3;" horiz-adv-x="1247" 
d="M463 1167l164 267h293l-164 -267h-293zM623 -27q-238 0 -392.5 149.5t-154.5 393.5q0 245 154.5 395t392.5 150q157 0 281 -66.5t195.5 -191t71.5 -287.5q0 -244 -154.5 -393.5t-393.5 -149.5zM623 217q122 0 201 81.5t79 217.5q0 137 -79 219t-201 82q-121 0 -200 -82
t-79 -219q0 -135 79 -217t200 -82z" />
    <glyph glyph-name="ocircumflex" unicode="&#xf4;" horiz-adv-x="1247" 
d="M274 1167l226 312h245l226 -312h-238l-106 148h-9l-106 -148h-238zM623 -27q-238 0 -392.5 149.5t-154.5 393.5q0 245 154.5 395t392.5 150q157 0 281 -66.5t195.5 -191t71.5 -287.5q0 -244 -154.5 -393.5t-393.5 -149.5zM623 217q122 0 201 81.5t79 217.5q0 137 -79 219
t-201 82q-121 0 -200 -82t-79 -219q0 -135 79 -217t200 -82z" />
    <glyph glyph-name="otilde" unicode="&#xf5;" horiz-adv-x="1247" 
d="M479 1448q46 0 86 -15.5t63.5 -34.5t53 -34.5t57.5 -15.5q32 0 49 17.5t21 59.5h188q-9 -139 -70 -205.5t-161 -66.5q-46 0 -86 15.5t-63 34.5t-53 34.5t-58 15.5q-32 0 -49 -17.5t-21 -59.5h-188q9 139 70 205.5t161 66.5zM623 -27q-238 0 -392.5 149.5t-154.5 393.5
q0 245 154.5 395t392.5 150q157 0 281 -66.5t195.5 -191t71.5 -287.5q0 -244 -154.5 -393.5t-393.5 -149.5zM623 217q122 0 201 81.5t79 217.5q0 137 -79 219t-201 82q-121 0 -200 -82t-79 -219q0 -135 79 -217t200 -82z" />
    <glyph glyph-name="odieresis" unicode="&#xf6;" horiz-adv-x="1247" 
d="M410 1171q-70 0 -113 38t-43 102t43 102.5t113 38.5q71 0 114 -38.5t43 -102.5t-43 -102t-114 -38zM836 1171q-71 0 -114.5 38t-43.5 102t43.5 102.5t114.5 38.5q69 0 112 -38.5t43 -102.5t-42.5 -102t-112.5 -38zM623 -27q-238 0 -392.5 149.5t-154.5 393.5
q0 245 154.5 395t392.5 150q157 0 281 -66.5t195.5 -191t71.5 -287.5q0 -244 -154.5 -393.5t-393.5 -149.5zM623 217q122 0 201 81.5t79 217.5q0 137 -79 219t-201 82q-121 0 -200 -82t-79 -219q0 -135 79 -217t200 -82z" />
    <glyph glyph-name="divide" unicode="&#xf7;" horiz-adv-x="1163" 
d="M582 840q-77 0 -123.5 43.5t-46.5 117.5q0 76 46.5 120t123.5 44q76 0 123 -44t47 -120q0 -74 -47 -117.5t-123 -43.5zM70 494v241h1024v-241h-1024zM582 63q-77 0 -123.5 43.5t-46.5 118.5q0 76 46.5 120t123.5 44q76 0 123 -44t47 -120q0 -74 -47 -118t-123 -44z" />
    <glyph glyph-name="oslash" unicode="&#xf8;" horiz-adv-x="1247" 
d="M623 -27q-99 0 -181 27l-63 -115h-217l110 201q-93 72 -144.5 182.5t-51.5 247.5q0 245 154.5 395t392.5 150q95 0 178 -27l67 121h217l-112 -205q94 -72 146 -183.5t52 -250.5q0 -244 -154.5 -393.5t-393.5 -149.5zM406 326l270 483q-19 8 -49 8q-128 0 -205.5 -84
t-77.5 -217q0 -112 62 -190zM621 217q128 0 205 83.5t77 215.5q0 116 -63 195l-273 -486q21 -8 54 -8z" />
    <glyph glyph-name="ugrave" unicode="&#xf9;" horiz-adv-x="1275" 
d="M623 1434l163 -267h-292l-164 267h293zM1141 1034v-1034h-269v125h-8q-137 -152 -336 -152q-83 0 -155 27.5t-127.5 80.5t-87 138t-31.5 193v622h266v-577q0 -64 20 -112.5t53.5 -74.5t71 -38.5t78.5 -12.5q108 0 182 76t74 219v520h269z" />
    <glyph glyph-name="uacute" unicode="&#xfa;" horiz-adv-x="1275" 
d="M467 1167l164 267h293l-164 -267h-293zM1141 1034v-1034h-269v125h-8q-137 -152 -336 -152q-83 0 -155 27.5t-127.5 80.5t-87 138t-31.5 193v622h266v-577q0 -64 20 -112.5t53.5 -74.5t71 -38.5t78.5 -12.5q108 0 182 76t74 219v520h269z" />
    <glyph glyph-name="ucircumflex" unicode="&#xfb;" horiz-adv-x="1275" 
d="M279 1167l225 312h246l225 -312h-238l-106 148h-8l-107 -148h-237zM1141 1034v-1034h-269v125h-8q-137 -152 -336 -152q-83 0 -155 27.5t-127.5 80.5t-87 138t-31.5 193v622h266v-577q0 -64 20 -112.5t53.5 -74.5t71 -38.5t78.5 -12.5q108 0 182 76t74 219v520h269z" />
    <glyph glyph-name="udieresis" unicode="&#xfc;" horiz-adv-x="1275" 
d="M414 1171q-70 0 -113 38t-43 102t43 102.5t113 38.5q71 0 114 -38.5t43 -102.5t-43 -102t-114 -38zM840 1171q-71 0 -114.5 38t-43.5 102t43.5 102.5t114.5 38.5q69 0 112 -38.5t43 -102.5t-42.5 -102t-112.5 -38zM1141 1034v-1034h-269v125h-8q-137 -152 -336 -152
q-83 0 -155 27.5t-127.5 80.5t-87 138t-31.5 193v622h266v-577q0 -64 20 -112.5t53.5 -74.5t71 -38.5t78.5 -12.5q108 0 182 76t74 219v520h269z" />
    <glyph glyph-name="yacute" unicode="&#xfd;" horiz-adv-x="1249" 
d="M475 1167l164 267h293l-164 -267h-293zM172 -410v246h164q56 0 90.5 25.5t56.5 81.5l27 63l-463 1028h289l301 -682h10l275 682h282l-483 -1181q-41 -103 -87.5 -158.5t-116 -80t-181.5 -24.5h-164z" />
    <glyph glyph-name="thorn" unicode="&#xfe;" horiz-adv-x="1296" 
d="M752 1061q214 0 341.5 -148t127.5 -397q0 -247 -127.5 -395t-341.5 -148q-213 0 -340 152h-9v-535h-268v1844h268v-525h9q127 152 340 152zM676 217q121 0 198.5 82.5t77.5 216.5t-77.5 217.5t-198.5 83.5q-120 0 -199.5 -84t-79.5 -217t79.5 -216t199.5 -83z" />
    <glyph glyph-name="ydieresis" unicode="&#xff;" horiz-adv-x="1249" 
d="M422 1171q-70 0 -113 38t-43 102t43 102.5t113 38.5q71 0 114.5 -38.5t43.5 -102.5t-43.5 -102t-114.5 -38zM848 1171q-71 0 -114.5 38t-43.5 102t43.5 102.5t114.5 38.5q70 0 113 -38.5t43 -102.5t-43 -102t-113 -38zM172 -410v246h164q56 0 90.5 25.5t56.5 81.5l27 63
l-463 1028h289l301 -682h10l275 682h282l-483 -1181q-41 -103 -87.5 -158.5t-116 -80t-181.5 -24.5h-164z" />
    <glyph glyph-name="Amacron" unicode="&#x100;" horiz-adv-x="1585" 
d="M444 1606v188h697v-188h-697zM1556 0h-303l-127 305h-665l-127 -305h-303l598 1434h329zM563 559h461l-227 541h-9z" />
    <glyph glyph-name="amacron" unicode="&#x101;" horiz-adv-x="1191" 
d="M242 1206v189h696v-189h-696zM403 -27q-46 0 -88 6.5t-88.5 25t-80.5 49t-56 83t-22 121.5q0 64 20.5 115t50 83.5t77.5 59.5t86.5 40.5t94.5 29.5l363 98v16q0 71 -50 107.5t-122 36.5q-77 0 -134 -39.5t-67 -106.5h-274q18 181 147 272t328 91q65 0 122 -9.5t115.5 -35
t100 -65.5t68 -107t26.5 -154v-395q0 -27 11.5 -38t39.5 -11h64v-246h-224q-109 0 -133 90l-10 35h-8q-135 -152 -357 -152zM473 182q124 0 205.5 71t81.5 193v31l-309 -84q-60 -15 -88.5 -41.5t-28.5 -68.5q0 -101 139 -101z" />
    <glyph glyph-name="Abreve" unicode="&#x102;" horiz-adv-x="1585" 
d="M795 1565q-150 0 -240 80.5t-94 232.5h192q4 -71 45 -105t97 -34t96.5 34t44.5 105h192q-4 -152 -93.5 -232.5t-239.5 -80.5zM1556 0h-303l-127 305h-665l-127 -305h-303l598 1434h329zM563 559h461l-227 541h-9z" />
    <glyph glyph-name="abreve" unicode="&#x103;" horiz-adv-x="1191" 
d="M590 1165q-150 0 -240 81t-94 233h193q4 -71 44.5 -105.5t96.5 -34.5t96.5 34.5t44.5 105.5h193q-4 -152 -94 -233t-240 -81zM403 -27q-46 0 -88 6.5t-88.5 25t-80.5 49t-56 83t-22 121.5q0 64 20.5 115t50 83.5t77.5 59.5t86.5 40.5t94.5 29.5l363 98v16q0 71 -50 107.5
t-122 36.5q-77 0 -134 -39.5t-67 -106.5h-274q18 181 147 272t328 91q65 0 122 -9.5t115.5 -35t100 -65.5t68 -107t26.5 -154v-395q0 -27 11.5 -38t39.5 -11h64v-246h-224q-109 0 -133 90l-10 35h-8q-135 -152 -357 -152zM473 182q124 0 205.5 71t81.5 193v31l-309 -84
q-60 -15 -88.5 -41.5t-28.5 -68.5q0 -101 139 -101z" />
    <glyph glyph-name="Aogonek" unicode="&#x104;" horiz-adv-x="1585" 
d="M1556 0q-147 -46 -147 -127q0 -37 32 -57.5t89 -20.5h26v-205h-110q-125 0 -195.5 51t-70.5 150q0 135 131 209h-58l-127 305h-665l-127 -305h-303l598 1434h329zM563 559h461l-227 541h-9z" />
    <glyph glyph-name="aogonek" unicode="&#x105;" horiz-adv-x="1191" 
d="M403 -27q-46 0 -88 6.5t-88.5 25t-80.5 49t-56 83t-22 121.5q0 64 20.5 115t50 83.5t77.5 59.5t86.5 40.5t94.5 29.5l363 98v16q0 71 -50 107.5t-122 36.5q-77 0 -134 -39.5t-67 -106.5h-274q18 181 147 272t328 91q65 0 122 -9.5t115.5 -35t100 -65.5t68 -107t26.5 -154
v-395q0 -27 11.5 -38t39.5 -11h64v-246q-148 -46 -148 -127q0 -37 32 -57.5t89 -20.5h27v-205h-111q-125 0 -195.5 51t-70.5 150q0 137 137 211h-4q-92 9 -113 88l-10 35h-8q-135 -152 -357 -152zM473 182q124 0 205.5 71t81.5 193v31l-309 -84q-60 -15 -88.5 -41.5
t-28.5 -68.5q0 -101 139 -101z" />
    <glyph glyph-name="Cacute" unicode="&#x106;" horiz-adv-x="1638" 
d="M672 1567l164 266h292l-163 -266h-293zM838 -27q-157 0 -292 54t-231 150.5t-150 235.5t-54 304q0 220 93 389.5t258.5 261.5t375.5 92q274 0 463 -150.5t245 -408.5h-299q-48 141 -152.5 220t-256.5 79q-200 0 -322.5 -132.5t-122.5 -350.5t122.5 -351t322.5 -133
q152 0 256.5 79t152.5 220h299q-56 -258 -245 -408.5t-463 -150.5z" />
    <glyph glyph-name="cacute" unicode="&#x107;" horiz-adv-x="1204" 
d="M451 1167l163 267h293l-164 -267h-292zM612 -27q-239 0 -387.5 148t-148.5 395q0 248 148.5 396.5t387.5 148.5q197 0 342.5 -106.5t186.5 -313.5h-277q-34 88 -99.5 132t-152.5 44q-122 0 -195 -81t-73 -220q0 -137 73 -218t195 -81q87 0 152.5 44t99.5 132h277
q-41 -207 -186.5 -313.5t-342.5 -106.5z" />
    <glyph glyph-name="Ccircumflex" unicode="&#x108;" horiz-adv-x="1638" 
d="M483 1567l226 311h245l226 -311h-238l-106 147h-9l-106 -147h-238zM838 -27q-157 0 -292 54t-231 150.5t-150 235.5t-54 304q0 220 93 389.5t258.5 261.5t375.5 92q274 0 463 -150.5t245 -408.5h-299q-48 141 -152.5 220t-256.5 79q-200 0 -322.5 -132.5t-122.5 -350.5
t122.5 -351t322.5 -133q152 0 256.5 79t152.5 220h299q-56 -258 -245 -408.5t-463 -150.5z" />
    <glyph glyph-name="ccircumflex" unicode="&#x109;" horiz-adv-x="1204" 
d="M262 1167l225 312h246l225 -312h-237l-107 148h-8l-106 -148h-238zM612 -27q-239 0 -387.5 148t-148.5 395q0 248 148.5 396.5t387.5 148.5q197 0 342.5 -106.5t186.5 -313.5h-277q-34 88 -99.5 132t-152.5 44q-122 0 -195 -81t-73 -220q0 -137 73 -218t195 -81
q87 0 152.5 44t99.5 132h277q-41 -207 -186.5 -313.5t-342.5 -106.5z" />
    <glyph glyph-name="Cdotaccent" unicode="&#x10a;" horiz-adv-x="1638" 
d="M831 1571q-72 0 -117.5 38t-45.5 101q0 64 46 102.5t117 38.5q72 0 118 -38.5t46 -102.5q0 -63 -46 -101t-118 -38zM838 -27q-157 0 -292 54t-231 150.5t-150 235.5t-54 304q0 220 93 389.5t258.5 261.5t375.5 92q274 0 463 -150.5t245 -408.5h-299q-48 141 -152.5 220
t-256.5 79q-200 0 -322.5 -132.5t-122.5 -350.5t122.5 -351t322.5 -133q152 0 256.5 79t152.5 220h299q-56 -258 -245 -408.5t-463 -150.5z" />
    <glyph glyph-name="cdotaccent" unicode="&#x10b;" horiz-adv-x="1204" 
d="M610 1171q-72 0 -118 38.5t-46 101.5q0 64 46 102.5t118 38.5t118 -38.5t46 -102.5q0 -63 -46 -101.5t-118 -38.5zM612 -27q-239 0 -387.5 148t-148.5 395q0 248 148.5 396.5t387.5 148.5q197 0 342.5 -106.5t186.5 -313.5h-277q-34 88 -99.5 132t-152.5 44
q-122 0 -195 -81t-73 -220q0 -137 73 -218t195 -81q87 0 152.5 44t99.5 132h277q-41 -207 -186.5 -313.5t-342.5 -106.5z" />
    <glyph glyph-name="Ccaron" unicode="&#x10c;" horiz-adv-x="1638" 
d="M709 1567l-226 311h238l106 -147h9l106 147h238l-226 -311h-245zM838 -27q-157 0 -292 54t-231 150.5t-150 235.5t-54 304q0 220 93 389.5t258.5 261.5t375.5 92q274 0 463 -150.5t245 -408.5h-299q-48 141 -152.5 220t-256.5 79q-200 0 -322.5 -132.5t-122.5 -350.5
t122.5 -351t322.5 -133q152 0 256.5 79t152.5 220h299q-56 -258 -245 -408.5t-463 -150.5z" />
    <glyph glyph-name="ccaron" unicode="&#x10d;" horiz-adv-x="1204" 
d="M487 1167l-225 312h238l106 -148h8l107 148h237l-225 -312h-246zM612 -27q-239 0 -387.5 148t-148.5 395q0 248 148.5 396.5t387.5 148.5q197 0 342.5 -106.5t186.5 -313.5h-277q-34 88 -99.5 132t-152.5 44q-122 0 -195 -81t-73 -220q0 -137 73 -218t195 -81
q87 0 152.5 44t99.5 132h277q-41 -207 -186.5 -313.5t-342.5 -106.5z" />
    <glyph glyph-name="Dcaron" unicode="&#x10e;" horiz-adv-x="1609" 
d="M664 1567l-226 311h238l106 -147h9l106 147h238l-226 -311h-245zM170 0v1434h596q211 0 376.5 -85t261 -249.5t95.5 -382.5t-95.5 -382.5t-261 -249.5t-376.5 -85h-596zM455 256h311q201 0 324.5 122t123.5 339t-123.5 339t-324.5 122h-311v-922z" />
    <glyph glyph-name="dcaron" unicode="&#x10f;" horiz-adv-x="1296" 
d="M545 -27q-214 0 -341.5 148t-127.5 395q0 249 127.5 397t341.5 148q213 0 340 -152h8v525h268v-1434h-268v125h-8q-127 -152 -340 -152zM1237 1106l90 328h217l-90 -328h-217zM621 217q120 0 199 83t79 216t-79 217t-199 84q-121 0 -199 -83.5t-78 -217.5t78 -216.5
t199 -82.5z" />
    <glyph glyph-name="Dcroat" unicode="&#x110;" horiz-adv-x="1650" 
d="M211 0v608h-182v260h182v566h596q211 0 376.5 -85t261 -249.5t95.5 -382.5t-95.5 -382.5t-261 -249.5t-376.5 -85h-596zM496 256h311q201 0 324.5 122t123.5 339t-123.5 339t-324.5 122h-311v-310h352v-260h-352v-352z" />
    <glyph glyph-name="dcroat" unicode="&#x111;" horiz-adv-x="1296" 
d="M545 -27q-214 0 -341.5 136.5t-127.5 365.5q0 230 127.5 367t341.5 137q213 0 340 -152h8v242h-270v231h270v134h266v-134h156v-231h-156v-1069h-266v125h-8q-127 -152 -340 -152zM344 475q0 -116 77 -187t197 -71q122 0 201.5 71.5t79.5 186.5q0 116 -79.5 188
t-201.5 72q-120 0 -197 -72t-77 -188z" />
    <glyph glyph-name="Emacron" unicode="&#x112;" horiz-adv-x="1468" 
d="M418 1606v188h696v-188h-696zM455 614v-358h886v-256h-1171v1434h1171v-256h-886v-316h796v-248h-796z" />
    <glyph glyph-name="emacron" unicode="&#x113;" horiz-adv-x="1216" 
d="M266 1206v189h697v-189h-697zM614 -27q-150 0 -272.5 66.5t-194 191.5t-71.5 285t72 285.5t194.5 192.5t271.5 67q150 0 269 -64.5t188.5 -187.5t69.5 -283l-4 -98h-789q19 -109 90.5 -173.5t175.5 -64.5q73 0 132.5 32t93.5 89h278q-54 -147 -186.5 -242.5t-317.5 -95.5
zM352 629h516q-23 97 -87.5 156t-166.5 59q-98 0 -168.5 -57.5t-93.5 -157.5z" />
    <glyph glyph-name="Ebreve" unicode="&#x114;" horiz-adv-x="1468" 
d="M766 1565q-150 0 -240 80.5t-94 232.5h193q4 -71 44.5 -105t96.5 -34t96.5 34t44.5 105h193q-4 -152 -94 -232.5t-240 -80.5zM455 614v-358h886v-256h-1171v1434h1171v-256h-886v-316h796v-248h-796z" />
    <glyph glyph-name="ebreve" unicode="&#x115;" horiz-adv-x="1216" 
d="M616 1165q-150 0 -239.5 81t-93.5 233h192q4 -71 44.5 -105.5t96.5 -34.5t97 34.5t45 105.5h192q-4 -152 -94 -233t-240 -81zM614 -27q-150 0 -272.5 66.5t-194 191.5t-71.5 285t72 285.5t194.5 192.5t271.5 67q150 0 269 -64.5t188.5 -187.5t69.5 -283l-4 -98h-789
q19 -109 90.5 -173.5t175.5 -64.5q73 0 132.5 32t93.5 89h278q-54 -147 -186.5 -242.5t-317.5 -95.5zM352 629h516q-23 97 -87.5 156t-166.5 59q-98 0 -168.5 -57.5t-93.5 -157.5z" />
    <glyph glyph-name="Edotaccent" unicode="&#x116;" horiz-adv-x="1468" 
d="M766 1571q-72 0 -118 38t-46 101q0 64 46 102.5t118 38.5t118 -38.5t46 -102.5q0 -63 -46 -101t-118 -38zM455 614v-358h886v-256h-1171v1434h1171v-256h-886v-316h796v-248h-796z" />
    <glyph glyph-name="edotaccent" unicode="&#x117;" horiz-adv-x="1216" 
d="M614 1171q-72 0 -117.5 38t-45.5 102t46 102.5t117 38.5q72 0 118 -38.5t46 -102.5q0 -63 -46 -101.5t-118 -38.5zM614 -27q-150 0 -272.5 66.5t-194 191.5t-71.5 285t72 285.5t194.5 192.5t271.5 67q150 0 269 -64.5t188.5 -187.5t69.5 -283l-4 -98h-789
q19 -109 90.5 -173.5t175.5 -64.5q73 0 132.5 32t93.5 89h278q-54 -147 -186.5 -242.5t-317.5 -95.5zM352 629h516q-23 97 -87.5 156t-166.5 59q-98 0 -168.5 -57.5t-93.5 -157.5z" />
    <glyph glyph-name="Eogonek" unicode="&#x118;" horiz-adv-x="1468" 
d="M455 614v-358h886v-256q-147 -47 -147 -127q0 -37 32.5 -57.5t88.5 -20.5h26v-205h-110q-124 0 -194 51t-70 150q0 134 129 209h-926v1434h1171v-256h-886v-316h796v-248h-796z" />
    <glyph glyph-name="eogonek" unicode="&#x119;" horiz-adv-x="1216" 
d="M680 -410q-123 0 -193.5 51t-70.5 150q0 118 100 191q-195 31 -317.5 175.5t-122.5 358.5q0 160 72 285.5t194.5 192.5t271.5 67q150 0 269 -64.5t188.5 -187.5t69.5 -283l-4 -98h-789q19 -109 90.5 -173.5t175.5 -64.5q73 0 132.5 32t93.5 89h278q-42 -113 -132.5 -199
t-217.5 -120q-125 -43 -125 -119q0 -37 33 -57.5t90 -20.5h25v-205h-111zM352 629h516q-23 97 -87.5 156t-166.5 59q-98 0 -168.5 -57.5t-93.5 -157.5z" />
    <glyph glyph-name="Ecaron" unicode="&#x11a;" horiz-adv-x="1468" 
d="M643 1567l-225 311h237l107 -147h8l107 147h237l-225 -311h-246zM455 614v-358h886v-256h-1171v1434h1171v-256h-886v-316h796v-248h-796z" />
    <glyph glyph-name="ecaron" unicode="&#x11b;" horiz-adv-x="1216" 
d="M492 1167l-226 312h238l106 -148h8l107 148h238l-226 -312h-245zM614 -27q-150 0 -272.5 66.5t-194 191.5t-71.5 285t72 285.5t194.5 192.5t271.5 67q150 0 269 -64.5t188.5 -187.5t69.5 -283l-4 -98h-789q19 -109 90.5 -173.5t175.5 -64.5q73 0 132.5 32t93.5 89h278
q-54 -147 -186.5 -242.5t-317.5 -95.5zM352 629h516q-23 97 -87.5 156t-166.5 59q-98 0 -168.5 -57.5t-93.5 -157.5z" />
    <glyph glyph-name="Gcircumflex" unicode="&#x11c;" horiz-adv-x="1685" 
d="M483 1567l226 311h245l226 -311h-238l-106 147h-9l-106 -147h-238zM827 -27q-153 0 -285.5 54t-227.5 150.5t-149 236t-54 303.5q0 165 55 304t151.5 235t232.5 150t294 54q255 0 436 -133t254 -366h-309q-55 115 -151.5 177t-229.5 62q-201 0 -326 -133t-125 -350
q0 -219 127.5 -351.5t337.5 -132.5q171 0 293 87.5t154 234.5h-494v236h737v-791h-235v184h-8q-165 -211 -478 -211z" />
    <glyph glyph-name="gcircumflex" unicode="&#x11d;" horiz-adv-x="1296" 
d="M274 1167l226 312h245l226 -312h-238l-106 148h-9l-106 -148h-238zM545 1061q213 0 340 -152h8v125h266v-956q0 -257 -140 -385.5t-384 -128.5q-215 0 -348 91.5t-168 242.5h287q71 -105 229 -105q122 0 190 70.5t68 214.5v72h-8q-127 -152 -340 -152t-341 146t-128 384
t128.5 385.5t340.5 147.5zM618 817q-119 0 -196.5 -80.5t-77.5 -208.5q0 -127 77.5 -206.5t196.5 -79.5q121 0 201 80t80 206q0 128 -80 208.5t-201 80.5z" />
    <glyph glyph-name="Gbreve" unicode="&#x11e;" horiz-adv-x="1685" 
d="M834 1565q-150 0 -240 80.5t-94 232.5h192q4 -71 45 -105t97 -34t96.5 34t44.5 105h192q-4 -152 -93.5 -232.5t-239.5 -80.5zM827 -27q-153 0 -285.5 54t-227.5 150.5t-149 236t-54 303.5q0 165 55 304t151.5 235t232.5 150t294 54q255 0 436 -133t254 -366h-309
q-55 115 -151.5 177t-229.5 62q-201 0 -326 -133t-125 -350q0 -219 127.5 -351.5t337.5 -132.5q171 0 293 87.5t154 234.5h-494v236h737v-791h-235v184h-8q-165 -211 -478 -211z" />
    <glyph glyph-name="gbreve" unicode="&#x11f;" horiz-adv-x="1296" 
d="M625 1165q-150 0 -240 81t-94 233h192q4 -71 45 -105.5t97 -34.5t96.5 34.5t44.5 105.5h192q-4 -152 -93.5 -233t-239.5 -81zM545 1061q213 0 340 -152h8v125h266v-956q0 -257 -140 -385.5t-384 -128.5q-215 0 -348 91.5t-168 242.5h287q71 -105 229 -105q122 0 190 70.5
t68 214.5v72h-8q-127 -152 -340 -152t-341 146t-128 384t128.5 385.5t340.5 147.5zM618 817q-119 0 -196.5 -80.5t-77.5 -208.5q0 -127 77.5 -206.5t196.5 -79.5q121 0 201 80t80 206q0 128 -80 208.5t-201 80.5z" />
    <glyph glyph-name="Gdotaccent" unicode="&#x120;" horiz-adv-x="1685" 
d="M831 1571q-72 0 -117.5 38t-45.5 101q0 64 46 102.5t117 38.5q72 0 118 -38.5t46 -102.5q0 -63 -46 -101t-118 -38zM827 -27q-153 0 -285.5 54t-227.5 150.5t-149 236t-54 303.5q0 165 55 304t151.5 235t232.5 150t294 54q255 0 436 -133t254 -366h-309
q-55 115 -151.5 177t-229.5 62q-201 0 -326 -133t-125 -350q0 -219 127.5 -351.5t337.5 -132.5q171 0 293 87.5t154 234.5h-494v236h737v-791h-235v184h-8q-165 -211 -478 -211z" />
    <glyph glyph-name="gdotaccent" unicode="&#x121;" horiz-adv-x="1296" 
d="M623 1171q-72 0 -118 38.5t-46 101.5q0 64 46 102.5t118 38.5q71 0 117 -38.5t46 -102.5t-45.5 -102t-117.5 -38zM545 1061q213 0 340 -152h8v125h266v-956q0 -257 -140 -385.5t-384 -128.5q-215 0 -348 91.5t-168 242.5h287q71 -105 229 -105q122 0 190 70.5t68 214.5
v72h-8q-127 -152 -340 -152t-341 146t-128 384t128.5 385.5t340.5 147.5zM618 817q-119 0 -196.5 -80.5t-77.5 -208.5q0 -127 77.5 -206.5t196.5 -79.5q121 0 201 80t80 206q0 128 -80 208.5t-201 80.5z" />
    <glyph glyph-name="uni0122" unicode="&#x122;" horiz-adv-x="1685" 
d="M827 -27q-153 0 -285.5 54t-227.5 150.5t-149 236t-54 303.5q0 165 55 304t151.5 235t232.5 150t294 54q255 0 436 -133t254 -366h-309q-55 115 -151.5 177t-229.5 62q-201 0 -326 -133t-125 -350q0 -219 127.5 -351.5t337.5 -132.5q171 0 293 87.5t154 234.5h-494v236
h737v-791h-235v184h-8q-165 -211 -478 -211zM717 -653l86 219q-64 8 -101.5 46t-37.5 97q0 69 44.5 107.5t122.5 38.5q79 0 123.5 -42t44.5 -120q0 -75 -30 -148l-80 -198h-172z" />
    <glyph glyph-name="uni0123" unicode="&#x123;" horiz-adv-x="1296" 
d="M737 1642l-86 -219q64 -8 102 -46t38 -97q0 -69 -45 -107t-123 -38q-79 0 -123.5 41.5t-44.5 119.5q0 74 30 148l80 198h172zM545 1061q213 0 340 -152h8v125h266v-956q0 -257 -140 -385.5t-384 -128.5q-215 0 -348 91.5t-168 242.5h287q71 -105 229 -105q122 0 190 70.5
t68 214.5v72h-8q-127 -152 -340 -152t-341 146t-128 384t128.5 385.5t340.5 147.5zM618 817q-119 0 -196.5 -80.5t-77.5 -208.5q0 -127 77.5 -206.5t196.5 -79.5q121 0 201 80t80 206q0 128 -80 208.5t-201 80.5z" />
    <glyph glyph-name="Hcircumflex" unicode="&#x124;" horiz-adv-x="1613" 
d="M459 1567l225 311h246l225 -311h-237l-107 147h-8l-107 -147h-237zM170 0v1434h285v-566h706v566h285v-1434h-285v608h-706v-608h-285z" />
    <glyph glyph-name="hcircumflex" unicode="&#x125;" horiz-adv-x="1275" 
d="M-78 1567l225 311h246l225 -311h-237l-107 147h-8l-106 -147h-238zM135 0v1434h268v-525h9q137 152 336 152q83 0 155 -27.5t127.5 -80.5t87 -137.5t31.5 -192.5v-623h-266v578q0 52 -13.5 93.5t-35.5 68t-52 44t-60.5 24.5t-62.5 7q-108 0 -182 -76t-74 -219v-520h-268z
" />
    <glyph glyph-name="Hbar" unicode="&#x126;" horiz-adv-x="1644" 
d="M29 1069v231h155v134h285v-134h707v134h284v-134h156v-231h-156v-1069h-284v608h-707v-608h-285v1069h-155zM469 868h707v201h-707v-201z" />
    <glyph glyph-name="hbar" unicode="&#x127;" horiz-adv-x="1275" 
d="M135 0v1069h-155v231h155v144h268v-144h271v-231h-271v-242h9q137 152 336 152q83 0 155 -27.5t127.5 -80.5t87 -137.5t31.5 -192.5v-541h-266v496q0 52 -13.5 93.5t-35.5 68t-52 44t-60.5 24.5t-62.5 7q-108 0 -182 -76t-74 -219v-438h-268z" />
    <glyph glyph-name="Itilde" unicode="&#x128;" horiz-adv-x="622" 
d="M168 1847q46 0 86 -15.5t63 -34.5t53 -34.5t58 -15.5q32 0 49 18t21 60h188q-9 -139 -70 -206t-161 -67q-46 0 -86 16t-63 34.5t-53 34.5t-58 16q-32 0 -49 -18t-21 -60h-188q9 139 70 205.5t161 66.5zM170 0v1434h285v-1434h-285z" />
    <glyph glyph-name="itilde" unicode="&#x129;" horiz-adv-x="538" 
d="M127 1448q46 0 86 -15.5t63.5 -34.5t53 -34.5t57.5 -15.5q32 0 49 17.5t21 59.5h188q-9 -139 -70 -205.5t-161 -66.5q-46 0 -86 15.5t-63 34.5t-53 34.5t-58 15.5q-32 0 -49 -17.5t-21 -59.5h-188q9 139 70 205.5t161 66.5zM135 0v1034h268v-1034h-268z" />
    <glyph glyph-name="Imacron" unicode="&#x12a;" horiz-adv-x="622" 
d="M-37 1606v188h696v-188h-696zM170 0v1434h285v-1434h-285z" />
    <glyph glyph-name="imacron" unicode="&#x12b;" horiz-adv-x="538" 
d="M-78 1206v189h696v-189h-696zM135 0v1034h268v-1034h-268z" />
    <glyph glyph-name="Ibreve" unicode="&#x12c;" horiz-adv-x="622" 
d="M313 1565q-150 0 -239.5 80.5t-93.5 232.5h192q4 -71 44.5 -105t96.5 -34t97 34t45 105h192q-4 -152 -94 -232.5t-240 -80.5zM170 0v1434h285v-1434h-285z" />
    <glyph glyph-name="ibreve" unicode="&#x12d;" horiz-adv-x="538" 
d="M270 1165q-150 0 -239.5 81t-93.5 233h192q4 -71 44.5 -105.5t96.5 -34.5t97 34.5t45 105.5h192q-4 -152 -94 -233t-240 -81zM135 0v1034h268v-1034h-268z" />
    <glyph glyph-name="Iogonek" unicode="&#x12e;" horiz-adv-x="622" 
d="M170 0v1434h285v-1434q-148 -46 -148 -127q0 -37 32 -57.5t89 -20.5h27v-205h-111q-125 0 -195.5 51t-70.5 150q0 136 133 209h-41z" />
    <glyph glyph-name="iogonek" unicode="&#x12f;" horiz-adv-x="600" 
d="M299 1171q-72 0 -118 38.5t-46 101.5q0 64 46 102.5t118 38.5q73 0 118.5 -38.5t45.5 -102.5t-45.5 -102t-118.5 -38zM166 2v1032h268v-1034q-147 -46 -147 -127q0 -37 32 -57.5t89 -20.5h26v-205h-110q-125 0 -196 51t-71 150q0 70 38 124t100 87h-29z" />
    <glyph glyph-name="Idotaccent" unicode="&#x130;" horiz-adv-x="622" 
d="M311 1571q-72 0 -118 38t-46 101q0 64 46 102.5t118 38.5t118 -38.5t46 -102.5q0 -63 -46 -101t-118 -38zM170 0v1434h285v-1434h-285z" />
    <glyph glyph-name="dotlessi" unicode="&#x131;" horiz-adv-x="538" 
d="M135 0v1034h268v-1034h-268z" />
    <glyph glyph-name="IJ" unicode="&#x132;" horiz-adv-x="2027" 
d="M170 0v1434h285v-1434h-285zM700 0v266h768q69 0 92 23.5t23 91.5v1053h285v-1098q0 -186 -75 -261t-261 -75h-832z" />
    <glyph glyph-name="ij" unicode="&#x133;" horiz-adv-x="1169" 
d="M299 1171q-72 0 -118 38.5t-46 101.5q0 64 46 102.5t118 38.5t118 -38.5t46 -102.5q0 -63 -46 -101.5t-118 -38.5zM868 1171q-72 0 -117.5 38t-45.5 102t46 102.5t117 38.5q72 0 118 -38.5t46 -102.5q0 -63 -46 -101.5t-118 -38.5zM166 0v1034h268v-1034h-268zM506 -410
v250h143q49 0 67.5 19t18.5 67v1108h269v-1130q0 -166 -74 -240t-240 -74h-184z" />
    <glyph glyph-name="Jcircumflex" unicode="&#x134;" horiz-adv-x="1402" 
d="M756 1567l225 311h246l225 -311h-238l-106 147h-8l-107 -147h-237zM78 0v266h768q69 0 92 23.5t23 91.5v1053h284v-1098q0 -186 -75 -261t-261 -75h-831z" />
    <glyph glyph-name="jcircumflex" unicode="&#x135;" horiz-adv-x="538" 
d="M-78 1167l225 312h246l225 -312h-237l-107 148h-8l-106 -148h-238zM-94 -410v250h143q49 0 67.5 19t18.5 67v1108h268v-1130q0 -166 -73.5 -240t-239.5 -74h-184z" />
    <glyph glyph-name="uni0136" unicode="&#x136;" horiz-adv-x="1546" 
d="M170 0v1434h285v-566h184l500 566h348l-619 -697l631 -737h-356l-518 608h-170v-608h-285zM643 -653l86 219q-64 8 -101.5 46t-37.5 97q0 69 45 107.5t123 38.5q79 0 123.5 -42t44.5 -120q0 -72 -31 -148l-80 -198h-172z" />
    <glyph glyph-name="uni0137" unicode="&#x137;" horiz-adv-x="1222" 
d="M135 0v1434h268v-783h134l323 383h322l-424 -502l440 -532h-330l-338 412h-127v-412h-268zM498 -653l86 219q-64 8 -102 46t-38 97q0 69 45 107.5t123 38.5q79 0 123.5 -42t44.5 -120q0 -75 -30 -148l-80 -198h-172z" />
    <glyph glyph-name="kgreenlandic" unicode="&#x138;" horiz-adv-x="1222" 
d="M135 0v1034h268v-383h134l323 383h322l-424 -502l440 -532h-330l-338 412h-127v-412h-268z" />
    <glyph glyph-name="Lacute" unicode="&#x139;" horiz-adv-x="1415" 
d="M152 1567l163 266h293l-164 -266h-292zM170 0v1434h285v-1168h882v-266h-1167z" />
    <glyph glyph-name="lacute" unicode="&#x13a;" horiz-adv-x="651" 
d="M100 1567l164 266h293l-164 -266h-293zM440 0q-166 0 -239.5 73.5t-73.5 239.5v1121h266v-1098q0 -47 19.5 -66.5t66.5 -19.5h115v-250h-154z" />
    <glyph glyph-name="uni013B" unicode="&#x13b;" horiz-adv-x="1415" 
d="M170 0v1434h285v-1168h882v-266h-1167zM668 -653l86 219q-64 8 -102 46t-38 97q0 69 45 107.5t123 38.5q79 0 123.5 -42t44.5 -120q0 -75 -30 -148l-80 -198h-172z" />
    <glyph glyph-name="uni013C" unicode="&#x13c;" horiz-adv-x="651" 
d="M440 0q-166 0 -239.5 73.5t-73.5 239.5v1121h266v-1098q0 -47 19.5 -66.5t66.5 -19.5h115v-250h-154zM254 -653l86 219q-64 8 -101.5 46t-37.5 97q0 69 45 107.5t123 38.5q79 0 123.5 -42t44.5 -120q0 -72 -31 -148l-80 -198h-172z" />
    <glyph glyph-name="Lcaron" unicode="&#x13d;" horiz-adv-x="1415" 
d="M170 0v1434h285v-1168h882v-266h-1167zM633 1106l90 328h217l-90 -328h-217z" />
    <glyph glyph-name="lcaron" unicode="&#x13e;" horiz-adv-x="702" 
d="M440 0q-166 0 -239.5 73.5t-73.5 239.5v1121h266v-1098q0 -47 19.5 -66.5t66.5 -19.5h115v-250h-154zM471 1106l90 328h217l-90 -328h-217z" />
    <glyph glyph-name="Ldot" unicode="&#x13f;" horiz-adv-x="1415" 
d="M170 0v1434h285v-1168h882v-266h-1167zM899 596q-77 0 -123.5 44t-46.5 118q0 76 46.5 120t123.5 44q76 0 123 -44t47 -120q0 -74 -47 -118t-123 -44z" />
    <glyph glyph-name="ldot" unicode="&#x140;" horiz-adv-x="925" 
d="M440 0q-166 0 -239.5 73.5t-73.5 239.5v1121h266v-1098q0 -47 19.5 -66.5t66.5 -19.5h115v-250h-154zM707 522q-77 0 -123.5 44t-46.5 118q0 76 46.5 120t123.5 44q76 0 123 -44t47 -120q0 -74 -47 -118t-123 -44z" />
    <glyph glyph-name="Lslash" unicode="&#x141;" horiz-adv-x="1429" 
d="M14 518v248l170 63v605h285v-500l426 160v-248l-426 -160v-420h883v-266h-1168v582z" />
    <glyph glyph-name="lslash" unicode="&#x142;" horiz-adv-x="724" 
d="M494 0q-166 0 -240 73.5t-74 239.5v250l-164 -59v229l164 62v639h266v-539l201 74v-232l-201 -73v-328q0 -47 19.5 -66.5t66.5 -19.5h115v-250h-153z" />
    <glyph glyph-name="Nacute" unicode="&#x143;" horiz-adv-x="1662" 
d="M674 1567l164 266h292l-163 -266h-293zM1493 1434v-1434h-354l-676 1014h-8v-1014h-285v1434h352l678 -1014h8v1014h285z" />
    <glyph glyph-name="nacute" unicode="&#x144;" horiz-adv-x="1275" 
d="M487 1167l164 267h293l-164 -267h-293zM135 0v1034h268v-125h9q137 152 336 152q83 0 155 -27.5t127.5 -80.5t87 -137.5t31.5 -192.5v-623h-266v578q0 52 -13.5 93.5t-35.5 68t-52 44t-60.5 24.5t-62.5 7q-108 0 -182 -76t-74 -219v-520h-268z" />
    <glyph glyph-name="uni0145" unicode="&#x145;" horiz-adv-x="1662" 
d="M1493 1434v-1434h-354l-676 1014h-8v-1014h-285v1434h352l678 -1014h8v1014h285zM713 -653l86 219q-64 8 -102 46t-38 97q0 69 45 107.5t123 38.5q79 0 123.5 -42t44.5 -120q0 -75 -30 -148l-80 -198h-172z" />
    <glyph glyph-name="uni0146" unicode="&#x146;" horiz-adv-x="1275" 
d="M135 0v1034h268v-125h9q137 152 336 152q83 0 155 -27.5t127.5 -80.5t87 -137.5t31.5 -192.5v-623h-266v578q0 52 -13.5 93.5t-35.5 68t-52 44t-60.5 24.5t-62.5 7q-108 0 -182 -76t-74 -219v-520h-268zM532 -653l86 219q-64 8 -101.5 46t-37.5 97q0 69 45 107.5
t123 38.5q79 0 123.5 -42t44.5 -120q0 -72 -31 -148l-79 -198h-173z" />
    <glyph glyph-name="Ncaron" unicode="&#x147;" horiz-adv-x="1662" 
d="M711 1567l-226 311h238l106 -147h9l106 147h238l-226 -311h-245zM1493 1434v-1434h-354l-676 1014h-8v-1014h-285v1434h352l678 -1014h8v1014h285z" />
    <glyph glyph-name="ncaron" unicode="&#x148;" horiz-adv-x="1275" 
d="M524 1167l-225 312h238l106 -148h8l107 148h237l-225 -312h-246zM135 0v1034h268v-125h9q137 152 336 152q83 0 155 -27.5t127.5 -80.5t87 -137.5t31.5 -192.5v-623h-266v578q0 52 -13.5 93.5t-35.5 68t-52 44t-60.5 24.5t-62.5 7q-108 0 -182 -76t-74 -219v-520h-268z
" />
    <glyph glyph-name="napostrophe" unicode="&#x149;" horiz-adv-x="1708" 
d="M145 897l76 231q-61 11 -96 53t-35 107q0 76 46 120t124 44q80 0 125 -47t45 -137q0 -56 -29 -152l-71 -219h-185zM569 0v1034h269v-125h8q137 152 336 152q83 0 155 -27.5t127.5 -80.5t87 -137.5t31.5 -192.5v-623h-266v578q0 52 -13.5 93.5t-35.5 68t-51.5 44t-60 24.5
t-62.5 7q-108 0 -182 -76t-74 -219v-520h-269z" />
    <glyph glyph-name="Eng" unicode="&#x14a;" horiz-adv-x="1642" 
d="M455 1049v-1049h-285v1434h352l658 -861h8v861h285v-1530q0 -166 -74 -240t-240 -74h-203v250h146q47 0 66.5 19.5t19.5 66.5v172l-725 951h-8z" />
    <glyph glyph-name="eng" unicode="&#x14b;" horiz-adv-x="1275" 
d="M651 -410v250h146q47 0 66.5 19.5t19.5 66.5v652q0 52 -13.5 93.5t-35.5 68t-52 44t-60.5 24.5t-62.5 7q-108 0 -182 -76t-74 -219v-520h-268v1034h268v-125h9q137 152 336 152q83 0 155 -27.5t127.5 -80.5t87 -137.5t31.5 -192.5v-719q0 -166 -73.5 -240t-239.5 -74
h-185z" />
    <glyph glyph-name="Omacron" unicode="&#x14c;" horiz-adv-x="1701" 
d="M504 1606v188h696v-188h-696zM852 -27q-157 0 -293.5 54t-235.5 150t-155.5 236t-56.5 304q0 219 97 389t265.5 262t378.5 92t378.5 -92t265.5 -262t97 -389q0 -164 -56.5 -304t-155.5 -236t-235.5 -150t-293.5 -54zM852 233q199 0 328 134t129 350t-129 349.5
t-328 133.5q-200 0 -329.5 -133.5t-129.5 -349.5t129.5 -350t329.5 -134z" />
    <glyph glyph-name="omacron" unicode="&#x14d;" horiz-adv-x="1247" 
d="M274 1206v189h697v-189h-697zM623 -27q-238 0 -392.5 149.5t-154.5 393.5q0 245 154.5 395t392.5 150q157 0 281 -66.5t195.5 -191t71.5 -287.5q0 -244 -154.5 -393.5t-393.5 -149.5zM623 217q122 0 201 81.5t79 217.5q0 137 -79 219t-201 82q-121 0 -200 -82t-79 -219
q0 -135 79 -217t200 -82z" />
    <glyph glyph-name="Obreve" unicode="&#x14e;" horiz-adv-x="1701" 
d="M852 1565q-150 0 -240 80.5t-94 232.5h193q4 -71 44.5 -105t96.5 -34t96.5 34t44.5 105h193q-4 -152 -94 -232.5t-240 -80.5zM852 -27q-157 0 -293.5 54t-235.5 150t-155.5 236t-56.5 304q0 219 97 389t265.5 262t378.5 92t378.5 -92t265.5 -262t97 -389
q0 -164 -56.5 -304t-155.5 -236t-235.5 -150t-293.5 -54zM852 233q199 0 328 134t129 350t-129 349.5t-328 133.5q-200 0 -329.5 -133.5t-129.5 -349.5t129.5 -350t329.5 -134z" />
    <glyph glyph-name="obreve" unicode="&#x14f;" horiz-adv-x="1247" 
d="M625 1165q-150 0 -240 81t-94 233h192q4 -71 45 -105.5t97 -34.5t96.5 34.5t44.5 105.5h192q-4 -152 -93.5 -233t-239.5 -81zM623 -27q-238 0 -392.5 149.5t-154.5 393.5q0 245 154.5 395t392.5 150q157 0 281 -66.5t195.5 -191t71.5 -287.5q0 -244 -154.5 -393.5
t-393.5 -149.5zM623 217q122 0 201 81.5t79 217.5q0 137 -79 219t-201 82q-121 0 -200 -82t-79 -219q0 -135 79 -217t200 -82z" />
    <glyph glyph-name="Ohungarumlaut" unicode="&#x150;" horiz-adv-x="1701" 
d="M895 1567l164 266h268l-164 -266h-268zM498 1567l164 266h266l-164 -266h-266zM852 -27q-157 0 -293.5 54t-235.5 150t-155.5 236t-56.5 304q0 219 97 389t265.5 262t378.5 92t378.5 -92t265.5 -262t97 -389q0 -164 -56.5 -304t-155.5 -236t-235.5 -150t-293.5 -54z
M852 233q199 0 328 134t129 350t-129 349.5t-328 133.5q-200 0 -329.5 -133.5t-129.5 -349.5t129.5 -350t329.5 -134z" />
    <glyph glyph-name="ohungarumlaut" unicode="&#x151;" horiz-adv-x="1247" 
d="M666 1167l163 267h269l-164 -267h-268zM268 1167l164 267h266l-163 -267h-267zM623 -27q-238 0 -392.5 149.5t-154.5 393.5q0 245 154.5 395t392.5 150q157 0 281 -66.5t195.5 -191t71.5 -287.5q0 -244 -154.5 -393.5t-393.5 -149.5zM623 217q122 0 201 81.5t79 217.5
q0 137 -79 219t-201 82q-121 0 -200 -82t-79 -219q0 -135 79 -217t200 -82z" />
    <glyph glyph-name="OE" unicode="&#x152;" horiz-adv-x="2607" 
d="M1593 614v-358h887v-256h-1171v150h-9q-199 -177 -448 -177q-157 0 -293.5 54t-235.5 150t-155.5 236t-56.5 304q0 219 97 389t265.5 262t378.5 92q250 0 448 -176h9v150h1171v-256h-887v-316h797v-248h-797zM852 233q199 0 328 134t129 350t-129 349.5t-328 133.5
q-200 0 -329.5 -133.5t-129.5 -349.5t129.5 -350t329.5 -134z" />
    <glyph glyph-name="oe" unicode="&#x153;" horiz-adv-x="2043" 
d="M623 -27q-238 0 -392.5 149.5t-154.5 393.5q0 245 154.5 395t392.5 150q262 0 413 -189h4q157 189 402 189q228 0 377 -146.5t149 -388.5l-4 -98h-788q19 -109 90.5 -173.5t175.5 -64.5q73 0 132 32t93 89h279q-54 -147 -186.5 -242.5t-317.5 -95.5q-244 0 -402 187h-8
q-151 -187 -409 -187zM1180 629h516q-23 97 -87.5 156t-166.5 59q-98 0 -168.5 -57.5t-93.5 -157.5zM623 217q122 0 201 81.5t79 217.5q0 137 -79 219t-201 82q-121 0 -200 -82t-79 -219q0 -135 79 -217t200 -82z" />
    <glyph glyph-name="Racute" unicode="&#x154;" horiz-adv-x="1570" 
d="M627 1567l164 266h292l-163 -266h-293zM1161 0l-297 508h-409v-508h-285v1434h819q145 0 258 -53.5t179.5 -159.5t66.5 -250q0 -167 -88.5 -280t-239.5 -156l314 -535h-318zM455 764h534q102 0 160.5 55.5t58.5 151.5t-58.5 151.5t-160.5 55.5h-534v-414z" />
    <glyph glyph-name="racute" unicode="&#x155;" horiz-adv-x="1046" 
d="M418 1167l164 267h292l-163 -267h-293zM135 0v1034h268v-125h9q57 61 127.5 93t171.5 32h266v-250h-275q-146 0 -222.5 -71.5t-76.5 -214.5v-498h-268z" />
    <glyph glyph-name="uni0156" unicode="&#x156;" horiz-adv-x="1570" 
d="M1161 0l-297 508h-409v-508h-285v1434h819q145 0 258 -53.5t179.5 -159.5t66.5 -250q0 -167 -88.5 -280t-239.5 -156l314 -535h-318zM455 764h534q102 0 160.5 55.5t58.5 151.5t-58.5 151.5t-160.5 55.5h-534v-414zM672 -653l86 219q-64 8 -102 46t-38 97q0 69 45 107.5
t123 38.5q79 0 123.5 -42t44.5 -120q0 -75 -30 -148l-80 -198h-172z" />
    <glyph glyph-name="uni0157" unicode="&#x157;" horiz-adv-x="1046" 
d="M135 0v1034h268v-125h9q57 61 127.5 93t171.5 32h266v-250h-275q-146 0 -222.5 -71.5t-76.5 -214.5v-498h-268zM156 -653l86 219q-64 8 -102 46t-38 97q0 69 45 107.5t123 38.5q79 0 123.5 -42t44.5 -120q0 -75 -30 -148l-80 -198h-172z" />
    <glyph glyph-name="Rcaron" unicode="&#x158;" horiz-adv-x="1570" 
d="M664 1567l-226 311h238l106 -147h9l106 147h238l-226 -311h-245zM1161 0l-297 508h-409v-508h-285v1434h819q145 0 258 -53.5t179.5 -159.5t66.5 -250q0 -167 -88.5 -280t-239.5 -156l314 -535h-318zM455 764h534q102 0 160.5 55.5t58.5 151.5t-58.5 151.5t-160.5 55.5
h-534v-414z" />
    <glyph glyph-name="rcaron" unicode="&#x159;" horiz-adv-x="1046" 
d="M455 1167l-226 312h238l106 -148h9l106 148h238l-226 -312h-245zM135 0v1034h268v-125h9q57 61 127.5 93t171.5 32h266v-250h-275q-146 0 -222.5 -71.5t-76.5 -214.5v-498h-268z" />
    <glyph glyph-name="Sacute" unicode="&#x15a;" horiz-adv-x="1488" 
d="M537 1567l163 266h293l-164 -266h-292zM786 -27q-119 0 -218 14.5t-189.5 50t-154.5 91.5t-106 142.5t-52 199.5h294q14 -72 51.5 -122t95.5 -78t125.5 -40t153.5 -12q332 0 332 178q0 50 -28 86t-76 55t-112 34t-136 22.5t-148.5 21t-148.5 29t-136 47.5t-112 75
t-76 113t-28 160q0 88 28 158t77.5 114.5t107.5 75t130 45.5t132 21t125 6q108 0 199.5 -15.5t170.5 -49.5t137 -86.5t95 -129t47 -173.5h-297q-16 105 -111.5 156.5t-240.5 51.5q-63 0 -117.5 -9.5t-100 -29t-72 -54t-26.5 -81.5q0 -52 34.5 -86.5t92.5 -53.5t133 -31.5
t158 -24.5t166 -28t158 -47t133 -76t92.5 -120.5t34.5 -175.5q0 -424 -617 -424z" />
    <glyph glyph-name="sacute" unicode="&#x15b;" horiz-adv-x="1114" 
d="M385 1167l164 267h293l-164 -267h-293zM578 -27q-103 0 -188.5 17t-160 55.5t-120.5 110t-54 172.5h275q10 -39 36 -67t62 -43t73 -21.5t77 -6.5q82 -2 139 24t57 85q0 36 -29.5 59.5t-78 33.5t-110.5 21t-127 19.5t-127 31t-110.5 54t-78 90t-29.5 137.5q0 74 28.5 131
t73.5 91t107 56t121.5 30t124.5 8q70 0 133.5 -9.5t125 -34t107.5 -61.5t77.5 -96.5t39.5 -134.5h-274q-16 66 -76 92.5t-135 26.5q-30 0 -58.5 -4t-59.5 -13.5t-50 -30.5t-19 -51q0 -29 23.5 -48.5t63.5 -30t92 -18t109.5 -16.5t115 -21t109.5 -36t92 -58t63.5 -89.5
t23.5 -128.5q0 -326 -464 -326z" />
    <glyph glyph-name="Scircumflex" unicode="&#x15c;" horiz-adv-x="1488" 
d="M348 1567l225 311h246l225 -311h-237l-107 147h-8l-106 -147h-238zM786 -27q-119 0 -218 14.5t-189.5 50t-154.5 91.5t-106 142.5t-52 199.5h294q14 -72 51.5 -122t95.5 -78t125.5 -40t153.5 -12q332 0 332 178q0 50 -28 86t-76 55t-112 34t-136 22.5t-148.5 21
t-148.5 29t-136 47.5t-112 75t-76 113t-28 160q0 88 28 158t77.5 114.5t107.5 75t130 45.5t132 21t125 6q108 0 199.5 -15.5t170.5 -49.5t137 -86.5t95 -129t47 -173.5h-297q-16 105 -111.5 156.5t-240.5 51.5q-63 0 -117.5 -9.5t-100 -29t-72 -54t-26.5 -81.5
q0 -52 34.5 -86.5t92.5 -53.5t133 -31.5t158 -24.5t166 -28t158 -47t133 -76t92.5 -120.5t34.5 -175.5q0 -424 -617 -424z" />
    <glyph glyph-name="scircumflex" unicode="&#x15d;" horiz-adv-x="1114" 
d="M197 1167l225 312h246l225 -312h-238l-106 148h-8l-107 -148h-237zM578 -27q-103 0 -188.5 17t-160 55.5t-120.5 110t-54 172.5h275q10 -39 36 -67t62 -43t73 -21.5t77 -6.5q82 -2 139 24t57 85q0 36 -29.5 59.5t-78 33.5t-110.5 21t-127 19.5t-127 31t-110.5 54t-78 90
t-29.5 137.5q0 74 28.5 131t73.5 91t107 56t121.5 30t124.5 8q70 0 133.5 -9.5t125 -34t107.5 -61.5t77.5 -96.5t39.5 -134.5h-274q-16 66 -76 92.5t-135 26.5q-30 0 -58.5 -4t-59.5 -13.5t-50 -30.5t-19 -51q0 -29 23.5 -48.5t63.5 -30t92 -18t109.5 -16.5t115 -21
t109.5 -36t92 -58t63.5 -89.5t23.5 -128.5q0 -326 -464 -326z" />
    <glyph glyph-name="Scedilla" unicode="&#x15e;" horiz-adv-x="1488" 
d="M1403 397q0 -76 -20 -138.5t-53.5 -106t-83.5 -76.5t-103.5 -52t-119.5 -31t-125.5 -16t-127.5 -4l-16 -36q72 -14 118 -56.5t46 -109.5q0 -49 -24.5 -85t-68 -56.5t-96 -30t-115.5 -9.5h-77v179h69q84 0 84 53q0 51 -84 51h-37l47 109q-117 13 -208.5 45t-166 89
t-119.5 146.5t-56 208.5h294q14 -72 51.5 -122t95.5 -78t125.5 -40t153.5 -12q332 0 332 178q0 50 -28 86t-76 55t-112 34t-136 22.5t-148.5 21t-148.5 29t-136 47.5t-112 75t-76 113t-28 160q0 88 28 158t77.5 114.5t107.5 75t130 45.5t132 21t125 6q108 0 199.5 -15.5
t170.5 -49.5t137 -86.5t95 -129t47 -173.5h-297q-16 105 -111.5 156.5t-240.5 51.5q-63 0 -117.5 -9.5t-100 -29t-72 -54t-26.5 -81.5q0 -52 34.5 -86.5t92.5 -53.5t133 -31.5t158 -24.5t166 -28t158 -47t133 -76t92.5 -120.5t34.5 -175.5z" />
    <glyph glyph-name="scedilla" unicode="&#x15f;" horiz-adv-x="1114" 
d="M389 -410v179h68q86 0 86 53q0 51 -86 51h-35l45 104q-386 42 -412 351h275q10 -39 36 -67t62 -43t73 -21.5t77 -6.5q82 -2 139 24t57 85q0 36 -29.5 59.5t-78 33.5t-110.5 21t-127 19.5t-127 31t-110.5 54t-78 90t-29.5 137.5q0 74 28.5 131t73.5 91t107 56t121.5 30
t124.5 8q70 0 133.5 -9.5t125 -34t107.5 -61.5t77.5 -96.5t39.5 -134.5h-274q-16 66 -76 92.5t-135 26.5q-30 0 -58.5 -4t-59.5 -13.5t-50 -30.5t-19 -51q0 -29 23.5 -48.5t63.5 -30t92 -18t109.5 -16.5t115 -21t109.5 -36t92 -58t63.5 -89.5t23.5 -128.5q0 -309 -419 -326
l-17 -36q72 -14 118 -56.5t46 -109.5q0 -94 -85.5 -137.5t-217.5 -43.5h-78z" />
    <glyph glyph-name="Scaron" unicode="&#x160;" horiz-adv-x="1488" 
d="M573 1567l-225 311h238l106 -147h8l107 147h237l-225 -311h-246zM786 -27q-119 0 -218 14.5t-189.5 50t-154.5 91.5t-106 142.5t-52 199.5h294q14 -72 51.5 -122t95.5 -78t125.5 -40t153.5 -12q332 0 332 178q0 50 -28 86t-76 55t-112 34t-136 22.5t-148.5 21t-148.5 29
t-136 47.5t-112 75t-76 113t-28 160q0 88 28 158t77.5 114.5t107.5 75t130 45.5t132 21t125 6q108 0 199.5 -15.5t170.5 -49.5t137 -86.5t95 -129t47 -173.5h-297q-16 105 -111.5 156.5t-240.5 51.5q-63 0 -117.5 -9.5t-100 -29t-72 -54t-26.5 -81.5q0 -52 34.5 -86.5
t92.5 -53.5t133 -31.5t158 -24.5t166 -28t158 -47t133 -76t92.5 -120.5t34.5 -175.5q0 -424 -617 -424z" />
    <glyph glyph-name="scaron" unicode="&#x161;" horiz-adv-x="1114" 
d="M422 1167l-225 312h237l107 -148h8l106 148h238l-225 -312h-246zM578 -27q-103 0 -188.5 17t-160 55.5t-120.5 110t-54 172.5h275q10 -39 36 -67t62 -43t73 -21.5t77 -6.5q82 -2 139 24t57 85q0 36 -29.5 59.5t-78 33.5t-110.5 21t-127 19.5t-127 31t-110.5 54t-78 90
t-29.5 137.5q0 74 28.5 131t73.5 91t107 56t121.5 30t124.5 8q70 0 133.5 -9.5t125 -34t107.5 -61.5t77.5 -96.5t39.5 -134.5h-274q-16 66 -76 92.5t-135 26.5q-30 0 -58.5 -4t-59.5 -13.5t-50 -30.5t-19 -51q0 -29 23.5 -48.5t63.5 -30t92 -18t109.5 -16.5t115 -21
t109.5 -36t92 -58t63.5 -89.5t23.5 -128.5q0 -326 -464 -326z" />
    <glyph glyph-name="uni0162" unicode="&#x162;" horiz-adv-x="1542" 
d="M629 0v1174h-551v260h1386v-260h-551v-1174h-59l-27 -63q72 -14 117 -56.5t45 -109.5q0 -94 -84.5 -137.5t-216.5 -43.5h-80v179h70q86 0 86 53q0 51 -86 51h-35l53 127h-67z" />
    <glyph glyph-name="uni0163" unicode="&#x163;" horiz-adv-x="1167" 
d="M453 -410v179h67q86 0 86 53q0 51 -86 51h-35l58 135q-120 23 -178 104t-58 224v455h-237v243h237v326h266v-326h504v-243h-504v-437q0 -60 24.5 -84t86.5 -24h393v-246h-379l-28 -63q72 -14 118 -56.5t46 -109.5q0 -94 -86 -137.5t-218 -43.5h-77z" />
    <glyph glyph-name="Tcaron" unicode="&#x164;" horiz-adv-x="1542" 
d="M649 1567l-225 311h238l106 -147h8l107 147h237l-225 -311h-246zM629 0v1174h-551v260h1386v-260h-551v-1174h-284z" />
    <glyph glyph-name="tcaron" unicode="&#x165;" horiz-adv-x="1167" 
d="M750 1106l90 328h217l-90 -328h-217zM641 0q-334 0 -334 336v455h-237v243h237v326h266v-326h504v-243h-504v-437q0 -60 24.5 -84t86.5 -24h393v-246h-436z" />
    <glyph glyph-name="Tbar" unicode="&#x166;" horiz-adv-x="1542" 
d="M250 573v232h379v369h-551v260h1386v-260h-551v-369h381v-232h-381v-573h-284v573h-379z" />
    <glyph glyph-name="tbar" unicode="&#x167;" horiz-adv-x="1202" 
d="M78 438v183h237v170h-237v243h237v326h267v-326h503v-243h-503v-170h503v-183h-503v-84q0 -60 24.5 -84t85.5 -24h393v-246h-436q-334 0 -334 336v102h-237z" />
    <glyph glyph-name="Utilde" unicode="&#x168;" horiz-adv-x="1579" 
d="M647 1847q46 0 86 -15.5t63.5 -34.5t53 -34.5t57.5 -15.5q32 0 49 18t21 60h188q-9 -139 -70 -206t-161 -67q-46 0 -86 16t-63 34.5t-53 34.5t-58 16q-32 0 -49 -18t-21 -60h-188q9 139 70 205.5t161 66.5zM791 -27q-296 0 -473 178t-177 500v783h285v-783
q0 -207 99.5 -312.5t265.5 -105.5q165 0 264.5 105.5t99.5 312.5v783h283v-783q0 -322 -176 -500t-471 -178z" />
    <glyph glyph-name="utilde" unicode="&#x169;" horiz-adv-x="1275" 
d="M483 1448q46 0 86 -15.5t63.5 -34.5t53 -34.5t57.5 -15.5q32 0 49 17.5t21 59.5h188q-9 -139 -70 -205.5t-161 -66.5q-46 0 -86 15.5t-63 34.5t-53 34.5t-58 15.5q-32 0 -49 -17.5t-21 -59.5h-188q9 139 70 205.5t161 66.5zM1141 1034v-1034h-269v125h-8
q-137 -152 -336 -152q-83 0 -155 27.5t-127.5 80.5t-87 138t-31.5 193v622h266v-577q0 -64 20 -112.5t53.5 -74.5t71 -38.5t78.5 -12.5q108 0 182 76t74 219v520h269z" />
    <glyph glyph-name="Umacron" unicode="&#x16a;" horiz-adv-x="1579" 
d="M442 1606v188h697v-188h-697zM791 -27q-296 0 -473 178t-177 500v783h285v-783q0 -207 99.5 -312.5t265.5 -105.5q165 0 264.5 105.5t99.5 312.5v783h283v-783q0 -322 -176 -500t-471 -178z" />
    <glyph glyph-name="umacron" unicode="&#x16b;" horiz-adv-x="1275" 
d="M279 1206v189h696v-189h-696zM1141 1034v-1034h-269v125h-8q-137 -152 -336 -152q-83 0 -155 27.5t-127.5 80.5t-87 138t-31.5 193v622h266v-577q0 -64 20 -112.5t53.5 -74.5t71 -38.5t78.5 -12.5q108 0 182 76t74 219v520h269z" />
    <glyph glyph-name="Ubreve" unicode="&#x16c;" horiz-adv-x="1579" 
d="M791 1565q-150 0 -240 80.5t-94 232.5h192q4 -71 45 -105t97 -34t96.5 34t44.5 105h192q-4 -152 -93.5 -232.5t-239.5 -80.5zM791 -27q-296 0 -473 178t-177 500v783h285v-783q0 -207 99.5 -312.5t265.5 -105.5q165 0 264.5 105.5t99.5 312.5v783h283v-783
q0 -322 -176 -500t-471 -178z" />
    <glyph glyph-name="ubreve" unicode="&#x16d;" horiz-adv-x="1275" 
d="M629 1165q-150 0 -240 81t-94 233h192q4 -71 45 -105.5t97 -34.5t96.5 34.5t44.5 105.5h193q-4 -152 -94 -233t-240 -81zM1141 1034v-1034h-269v125h-8q-137 -152 -336 -152q-83 0 -155 27.5t-127.5 80.5t-87 138t-31.5 193v622h266v-577q0 -64 20 -112.5t53.5 -74.5
t71 -38.5t78.5 -12.5q108 0 182 76t74 219v520h269z" />
    <glyph glyph-name="Uring" unicode="&#x16e;" horiz-adv-x="1579" 
d="M791 1532q-102 0 -170 58t-68 159q0 102 68 160.5t170 58.5t169.5 -58.5t67.5 -160.5q0 -101 -67.5 -159t-169.5 -58zM729 1749q0 -22 17.5 -40.5t39.5 -18.5q23 0 44.5 18.5t21.5 40.5q0 23 -17 41t-40 18q-24 0 -41 -14q-25 -19 -25 -45zM791 -27q-296 0 -473 178
t-177 500v783h285v-783q0 -207 99.5 -312.5t265.5 -105.5q165 0 264.5 105.5t99.5 312.5v783h283v-783q0 -322 -176 -500t-471 -178z" />
    <glyph glyph-name="uring" unicode="&#x16f;" horiz-adv-x="1275" 
d="M627 1133q-102 0 -170 58t-68 159q0 102 68 160.5t170 58.5t169.5 -58.5t67.5 -160.5q0 -101 -67.5 -159t-169.5 -58zM565 1350q0 -22 18 -41t40 -19q23 0 44 18.5t21 41.5t-17 41t-40 18q-24 0 -41 -14q-25 -19 -25 -45zM1141 1034v-1034h-269v125h-8
q-137 -152 -336 -152q-83 0 -155 27.5t-127.5 80.5t-87 138t-31.5 193v622h266v-577q0 -64 20 -112.5t53.5 -74.5t71 -38.5t78.5 -12.5q108 0 182 76t74 219v520h269z" />
    <glyph glyph-name="Uhungarumlaut" unicode="&#x170;" horiz-adv-x="1579" 
d="M834 1567l163 266h269l-164 -266h-268zM436 1567l164 266h266l-164 -266h-266zM791 -27q-296 0 -473 178t-177 500v783h285v-783q0 -207 99.5 -312.5t265.5 -105.5q165 0 264.5 105.5t99.5 312.5v783h283v-783q0 -322 -176 -500t-471 -178z" />
    <glyph glyph-name="uhungarumlaut" unicode="&#x171;" horiz-adv-x="1275" 
d="M670 1167l164 267h268l-164 -267h-268zM272 1167l164 267h266l-163 -267h-267zM1141 1034v-1034h-269v125h-8q-137 -152 -336 -152q-83 0 -155 27.5t-127.5 80.5t-87 138t-31.5 193v622h266v-577q0 -64 20 -112.5t53.5 -74.5t71 -38.5t78.5 -12.5q108 0 182 76t74 219
v520h269z" />
    <glyph glyph-name="Uogonek" unicode="&#x172;" horiz-adv-x="1579" 
d="M877 -410q-123 0 -194 51t-71 150q0 114 95 186q-260 24 -413 199.5t-153 474.5v783h285v-783q0 -207 99.5 -312.5t265.5 -105.5q165 0 264.5 105.5t99.5 312.5v783h283v-783q0 -273 -128.5 -443.5t-353.5 -217.5q-114 -45 -114 -117q0 -37 32 -57.5t89 -20.5h24v-205
h-110z" />
    <glyph glyph-name="uogonek" unicode="&#x173;" horiz-adv-x="1275" 
d="M1139 1034v-1034q-146 -47 -146 -127q0 -37 32 -57.5t89 -20.5h25v-205h-111q-123 0 -193.5 51t-70.5 150q0 71 37 125t100 86h-29v123h-8q-137 -152 -336 -152q-83 0 -155 27.5t-127.5 80.5t-87 138t-31.5 193v622h266v-577q0 -64 20 -112.5t53.5 -74.5t71 -38.5
t78.5 -12.5q108 0 182 76t74 219v520h267z" />
    <glyph glyph-name="Wcircumflex" unicode="&#x174;" horiz-adv-x="2486" 
d="M895 1567l225 311h246l225 -311h-237l-107 147h-8l-106 -147h-238zM2445 1434l-510 -1434h-331l-357 1047h-8l-356 -1047h-330l-512 1434h295l377 -1069h8l364 1069h316l364 -1069h9l376 1069h295z" />
    <glyph glyph-name="wcircumflex" unicode="&#x175;" horiz-adv-x="1968" 
d="M635 1167l225 312h246l225 -312h-237l-107 148h-8l-107 -148h-237zM408 0l-347 1034h277l237 -725h9l225 725h350l225 -725h9l237 725h275l-344 -1034h-349l-225 717h-8l-223 -717h-348z" />
    <glyph glyph-name="Ycircumflex" unicode="&#x176;" horiz-adv-x="1572" 
d="M438 1567l226 311h245l226 -311h-238l-106 147h-9l-106 -147h-238zM645 0v578l-618 856h333l426 -590l426 590h334l-618 -856v-578h-283z" />
    <glyph glyph-name="ycircumflex" unicode="&#x177;" horiz-adv-x="1249" 
d="M287 1167l225 312h246l225 -312h-238l-106 148h-8l-107 -148h-237zM172 -410v246h164q56 0 90.5 25.5t56.5 81.5l27 63l-463 1028h289l301 -682h10l275 682h282l-483 -1181q-41 -103 -87.5 -158.5t-116 -80t-181.5 -24.5h-164z" />
    <glyph glyph-name="Ydieresis" unicode="&#x178;" horiz-adv-x="1572" 
d="M573 1571q-70 0 -112.5 37.5t-42.5 101.5t43 102.5t112 38.5q71 0 114.5 -38.5t43.5 -102.5t-43.5 -101.5t-114.5 -37.5zM999 1571q-71 0 -114 37.5t-43 101.5t43 102.5t114 38.5q70 0 113 -38.5t43 -102.5t-43 -101.5t-113 -37.5zM645 0v578l-618 856h333l426 -590
l426 590h334l-618 -856v-578h-283z" />
    <glyph glyph-name="Zacute" unicode="&#x179;" horiz-adv-x="1478" 
d="M580 1567l163 266h293l-164 -266h-292zM98 0v199l832 970v9h-819v256h1257v-197l-836 -973v-8h848v-256h-1282z" />
    <glyph glyph-name="zacute" unicode="&#x17a;" horiz-adv-x="1081" 
d="M381 1167l164 267h293l-164 -267h-293zM86 0v188l516 598v9h-508v239h893v-190l-516 -598v-8h524v-238h-909z" />
    <glyph glyph-name="Zdotaccent" unicode="&#x17b;" horiz-adv-x="1478" 
d="M739 1571q-72 0 -118 38t-46 101q0 64 46 102.5t118 38.5t118 -38.5t46 -102.5q0 -63 -46 -101t-118 -38zM98 0v199l832 970v9h-819v256h1257v-197l-836 -973v-8h848v-256h-1282z" />
    <glyph glyph-name="zdotaccent" unicode="&#x17c;" horiz-adv-x="1081" 
d="M541 1171q-72 0 -118 38.5t-46 101.5q0 64 46 102.5t118 38.5t118 -38.5t46 -102.5q0 -63 -46 -101.5t-118 -38.5zM86 0v188l516 598v9h-508v239h893v-190l-516 -598v-8h524v-238h-909z" />
    <glyph glyph-name="Zcaron" unicode="&#x17d;" horiz-adv-x="1478" 
d="M616 1567l-225 311h238l106 -147h8l107 147h237l-225 -311h-246zM98 0v199l832 970v9h-819v256h1257v-197l-836 -973v-8h848v-256h-1282z" />
    <glyph glyph-name="zcaron" unicode="&#x17e;" horiz-adv-x="1081" 
d="M418 1167l-225 312h237l107 -148h8l106 148h238l-225 -312h-246zM86 0v188l516 598v9h-508v239h893v-190l-516 -598v-8h524v-238h-909z" />
    <glyph glyph-name="longs" unicode="&#x17f;" horiz-adv-x="708" 
d="M641 1434h395v-236h-352q-62 0 -86.5 -24t-24.5 -84v-1090h-266v791h-237v243h237v64q0 336 334 336z" />
    <glyph glyph-name="florin" unicode="&#x192;" horiz-adv-x="1187" 
d="M90 791v243h238v64q0 336 334 336h436v-236h-393q-62 0 -86.5 -24t-24.5 -84v-56h504v-243h-504v-865q0 -336 -336 -336h-168v246h127q61 0 86 24.5t25 84.5v846h-238z" />
    <glyph glyph-name="uni01C4" unicode="&#x1c4;" horiz-adv-x="3088" 
d="M2226 1567l-225 311h237l107 -147h8l107 147h237l-225 -311h-246zM170 0v1434h596q211 0 376.5 -85t261 -249.5t95.5 -382.5t-95.5 -382.5t-261 -249.5t-376.5 -85h-596zM1708 0v199l832 970v9h-820v256h1258v-197l-836 -973v-8h848v-256h-1282zM455 256h311
q201 0 324.5 122t123.5 339t-123.5 339t-324.5 122h-311v-922z" />
    <glyph glyph-name="uni01C5" unicode="&#x1c5;" horiz-adv-x="2691" 
d="M664 1567l-226 311h238l106 -147h9l106 147h238l-226 -311h-245zM170 0v1434h596q211 0 376.5 -85t261 -249.5t95.5 -382.5t-95.5 -382.5t-261 -249.5t-376.5 -85h-596zM455 256h311q201 0 324.5 122t123.5 339t-123.5 339t-324.5 122h-311v-922zM1696 0v188l516 598v9
h-508v239h893v-190l-516 -598v-8h524v-238h-909z" />
    <glyph glyph-name="uni01C6" unicode="&#x1c6;" horiz-adv-x="2377" 
d="M1714 1167l-225 312h237l107 -148h8l107 148h237l-225 -312h-246zM545 -27q-214 0 -341.5 148t-127.5 395q0 249 127.5 397t341.5 148q213 0 340 -152h8v525h268v-1434h-268v125h-8q-127 -152 -340 -152zM1382 0v188l516 598v9h-507v239h893v-190l-517 -598v-8h525v-238
h-910zM621 217q120 0 199 83t79 216t-79 217t-199 84q-121 0 -199 -83.5t-78 -217.5t78 -216.5t199 -82.5z" />
    <glyph glyph-name="uni01C7" unicode="&#x1c7;" horiz-adv-x="2818" 
d="M170 0v1434h285v-1168h882v-266h-1167zM1493 0v266h768q69 0 92 23.5t23 91.5v1053h284v-1098q0 -186 -75 -261t-261 -75h-831z" />
    <glyph glyph-name="uni01C8" unicode="&#x1c8;" horiz-adv-x="1984" 
d="M1683 1171q-72 0 -117.5 38t-45.5 102t46 102.5t117 38.5q72 0 118 -38.5t46 -102.5q0 -63 -46 -101.5t-118 -38.5zM170 0v1434h285v-1168h882v-266h-1167zM1321 -410v250h143q49 0 67.5 19t18.5 67v1108h269v-1130q0 -166 -74 -240t-240 -74h-184z" />
    <glyph glyph-name="uni01C9" unicode="&#x1c9;" horiz-adv-x="1232" 
d="M934 1171q-72 0 -118 38.5t-46 101.5q0 64 46 102.5t118 38.5t118 -38.5t46 -102.5q0 -63 -46 -101.5t-118 -38.5zM440 0q-166 0 -239.5 73.5t-73.5 239.5v1121h266v-1098q0 -47 19.5 -66.5t66.5 -19.5h115v-250h-154zM569 -410v250h144q49 0 67.5 19t18.5 67v1108h268
v-1130q0 -166 -73.5 -240t-239.5 -74h-185z" />
    <glyph glyph-name="uni01CA" unicode="&#x1ca;" horiz-adv-x="3065" 
d="M1493 1434v-1434h-354l-676 1014h-8v-1014h-285v1434h352l678 -1014h8v1014h285zM1741 0v266h768q68 0 91 23.5t23 91.5v1053h285v-1098q0 -186 -75 -261t-261 -75h-831z" />
    <glyph glyph-name="uni01CB" unicode="&#x1cb;" horiz-adv-x="2232" 
d="M1931 1171q-72 0 -118 38.5t-46 101.5q0 64 46 102.5t118 38.5t118 -38.5t46 -102.5q0 -63 -46 -101.5t-118 -38.5zM1493 1434v-1434h-354l-676 1014h-8v-1014h-285v1434h352l678 -1014h8v1014h285zM1569 -410v250h143q49 0 67.5 19t18.5 67v1108h268v-1130
q0 -166 -73.5 -240t-239.5 -74h-184z" />
    <glyph glyph-name="uni01CC" unicode="&#x1cc;" horiz-adv-x="1845" 
d="M1544 1171q-72 0 -118 38.5t-46 101.5q0 64 46 102.5t118 38.5t118 -38.5t46 -102.5q0 -63 -46 -101.5t-118 -38.5zM135 0v1034h268v-125h9q137 152 336 152q83 0 155 -27.5t127.5 -80.5t87 -137.5t31.5 -192.5v-623h-266v578q0 52 -13.5 93.5t-35.5 68t-52 44
t-60.5 24.5t-62.5 7q-108 0 -182 -76t-74 -219v-520h-268zM1182 -410v250h143q49 0 67.5 19t18.5 67v1108h268v-1130q0 -166 -73.5 -240t-239.5 -74h-184z" />
    <glyph glyph-name="uni01CD" unicode="&#x1cd;" horiz-adv-x="1585" 
d="M670 1567l-226 311h238l106 -147h9l106 147h238l-226 -311h-245zM1556 0h-303l-127 305h-665l-127 -305h-303l598 1434h329zM563 559h461l-227 541h-9z" />
    <glyph glyph-name="uni01CE" unicode="&#x1ce;" horiz-adv-x="1191" 
d="M467 1167l-225 312h237l107 -148h8l106 148h238l-225 -312h-246zM403 -27q-46 0 -88 6.5t-88.5 25t-80.5 49t-56 83t-22 121.5q0 64 20.5 115t50 83.5t77.5 59.5t86.5 40.5t94.5 29.5l363 98v16q0 71 -50 107.5t-122 36.5q-77 0 -134 -39.5t-67 -106.5h-274
q18 181 147 272t328 91q65 0 122 -9.5t115.5 -35t100 -65.5t68 -107t26.5 -154v-395q0 -27 11.5 -38t39.5 -11h64v-246h-224q-109 0 -133 90l-10 35h-8q-135 -152 -357 -152zM473 182q124 0 205.5 71t81.5 193v31l-309 -84q-60 -15 -88.5 -41.5t-28.5 -68.5q0 -101 139 -101
z" />
    <glyph glyph-name="uni01CF" unicode="&#x1cf;" horiz-adv-x="622" 
d="M188 1567l-225 311h238l106 -147h8l107 147h237l-225 -311h-246zM170 0v1434h285v-1434h-285z" />
    <glyph glyph-name="uni01D0" unicode="&#x1d0;" horiz-adv-x="538" 
d="M147 1167l-225 312h238l106 -148h8l107 148h237l-225 -312h-246zM135 0v1034h268v-1034h-268z" />
    <glyph glyph-name="uni01D1" unicode="&#x1d1;" horiz-adv-x="1701" 
d="M729 1567l-225 311h237l107 -147h8l107 147h237l-225 -311h-246zM852 -27q-157 0 -293.5 54t-235.5 150t-155.5 236t-56.5 304q0 219 97 389t265.5 262t378.5 92t378.5 -92t265.5 -262t97 -389q0 -164 -56.5 -304t-155.5 -236t-235.5 -150t-293.5 -54zM852 233
q199 0 328 134t129 350t-129 349.5t-328 133.5q-200 0 -329.5 -133.5t-129.5 -349.5t129.5 -350t329.5 -134z" />
    <glyph glyph-name="uni01D2" unicode="&#x1d2;" horiz-adv-x="1247" 
d="M500 1167l-226 312h238l106 -148h9l106 148h238l-226 -312h-245zM623 -27q-238 0 -392.5 149.5t-154.5 393.5q0 245 154.5 395t392.5 150q157 0 281 -66.5t195.5 -191t71.5 -287.5q0 -244 -154.5 -393.5t-393.5 -149.5zM623 217q122 0 201 81.5t79 217.5q0 137 -79 219
t-201 82q-121 0 -200 -82t-79 -219q0 -135 79 -217t200 -82z" />
    <glyph glyph-name="uni01D3" unicode="&#x1d3;" horiz-adv-x="1579" 
d="M668 1567l-226 311h238l106 -147h9l106 147h238l-226 -311h-245zM791 -27q-296 0 -473 178t-177 500v783h285v-783q0 -207 99.5 -312.5t265.5 -105.5q165 0 264.5 105.5t99.5 312.5v783h283v-783q0 -322 -176 -500t-471 -178z" />
    <glyph glyph-name="uni01D4" unicode="&#x1d4;" horiz-adv-x="1275" 
d="M504 1167l-225 312h237l107 -148h8l106 148h238l-225 -312h-246zM1141 1034v-1034h-269v125h-8q-137 -152 -336 -152q-83 0 -155 27.5t-127.5 80.5t-87 138t-31.5 193v622h266v-577q0 -64 20 -112.5t53.5 -74.5t71 -38.5t78.5 -12.5q108 0 182 76t74 219v520h269z" />
    <glyph glyph-name="uni01E2" unicode="&#x1e2;" horiz-adv-x="2416" 
d="M993 1606v188h697v-188h-697zM27 0l1020 1434h1243v-256h-807v-316h717v-248h-717v-358h807v-256h-1090v309h-629l-221 -309h-323zM748 563h452v623h-8z" />
    <glyph glyph-name="uni01E3" unicode="&#x1e3;" horiz-adv-x="1898" 
d="M598 1206v189h696v-189h-696zM442 -27q-374 0 -374 285q0 64 20.5 115t50 83.5t77.5 59.5t86.5 40.5t94.5 29.5l363 98v16q0 71 -47.5 107.5t-120.5 36.5q-80 0 -137.5 -39.5t-67.5 -106.5h-274q18 181 148 272t331 91q234 0 342 -154h4q133 154 358 154q150 0 269 -64.5
t188.5 -187.5t69.5 -283l-4 -98h-791q20 -109 92 -173.5t176 -64.5q72 0 132 32t94 89h278q-54 -147 -186.5 -242.5t-317.5 -95.5q-257 0 -409 191h-8q-70 -88 -172 -139.5t-265 -51.5zM1034 629h514q-21 96 -86 155.5t-166 59.5q-98 0 -168.5 -57.5t-93.5 -157.5zM473 182
q124 0 205.5 71t81.5 193v31l-309 -84q-60 -15 -88.5 -41.5t-28.5 -68.5q0 -101 139 -101z" />
    <glyph glyph-name="Gcaron" unicode="&#x1e6;" horiz-adv-x="1685" 
d="M709 1567l-226 311h238l106 -147h9l106 147h238l-226 -311h-245zM827 -27q-153 0 -285.5 54t-227.5 150.5t-149 236t-54 303.5q0 165 55 304t151.5 235t232.5 150t294 54q255 0 436 -133t254 -366h-309q-55 115 -151.5 177t-229.5 62q-201 0 -326 -133t-125 -350
q0 -219 127.5 -351.5t337.5 -132.5q171 0 293 87.5t154 234.5h-494v236h737v-791h-235v184h-8q-165 -211 -478 -211z" />
    <glyph glyph-name="gcaron" unicode="&#x1e7;" horiz-adv-x="1296" 
d="M500 1167l-226 312h238l106 -148h9l106 148h238l-226 -312h-245zM545 1061q213 0 340 -152h8v125h266v-956q0 -257 -140 -385.5t-384 -128.5q-215 0 -348 91.5t-168 242.5h287q71 -105 229 -105q122 0 190 70.5t68 214.5v72h-8q-127 -152 -340 -152t-341 146t-128 384
t128.5 385.5t340.5 147.5zM618 817q-119 0 -196.5 -80.5t-77.5 -208.5q0 -127 77.5 -206.5t196.5 -79.5q121 0 201 80t80 206q0 128 -80 208.5t-201 80.5z" />
    <glyph glyph-name="uni01E8" unicode="&#x1e8;" horiz-adv-x="1546" 
d="M635 1567l-225 311h237l107 -147h8l106 147h238l-225 -311h-246zM170 0v1434h285v-566h184l500 566h348l-619 -697l631 -737h-356l-518 608h-170v-608h-285z" />
    <glyph glyph-name="uni01E9" unicode="&#x1e9;" horiz-adv-x="1222" 
d="M147 1567l-225 311h238l106 -147h8l107 147h237l-225 -311h-246zM135 0v1434h268v-783h134l323 383h322l-424 -502l440 -532h-330l-338 412h-127v-412h-268z" />
    <glyph glyph-name="uni01EA" unicode="&#x1ea;" horiz-adv-x="1701" 
d="M952 -410q-123 0 -193.5 51t-70.5 150q0 113 94 184q-144 11 -268 69.5t-213 154t-139.5 229t-50.5 289.5q0 219 97 389t265.5 262t378.5 92t378.5 -92t265.5 -262t97 -389q0 -272 -146.5 -464t-385.5 -253q-143 -47 -143 -127q0 -37 31.5 -57.5t88.5 -20.5h25v-205h-111
zM852 233q199 0 328 134t129 350t-129 349.5t-328 133.5q-200 0 -329.5 -133.5t-129.5 -349.5t129.5 -350t329.5 -134z" />
    <glyph glyph-name="uni01EB" unicode="&#x1eb;" horiz-adv-x="1247" 
d="M694 -410q-124 0 -194 51t-70 150q0 118 98 189q-202 30 -327 174t-125 362q0 245 154.5 395t392.5 150q157 0 281 -66.5t195.5 -191t71.5 -287.5q0 -200 -107 -338.5t-284 -185.5q-123 -43 -123 -119q0 -37 32.5 -57.5t88.5 -20.5h27v-205h-111zM623 217q122 0 201 81.5
t79 217.5q0 137 -79 219t-201 82q-121 0 -200 -82t-79 -219q0 -135 79 -217t200 -82z" />
    <glyph glyph-name="uni01EC" unicode="&#x1ec;" horiz-adv-x="1701" 
d="M504 1606v188h696v-188h-696zM952 -410q-123 0 -193.5 51t-70.5 150q0 113 94 184q-144 11 -268 69.5t-213 154t-139.5 229t-50.5 289.5q0 219 97 389t265.5 262t378.5 92t378.5 -92t265.5 -262t97 -389q0 -272 -146.5 -464t-385.5 -253q-143 -47 -143 -127
q0 -37 31.5 -57.5t88.5 -20.5h25v-205h-111zM852 233q199 0 328 134t129 350t-129 349.5t-328 133.5q-200 0 -329.5 -133.5t-129.5 -349.5t129.5 -350t329.5 -134z" />
    <glyph glyph-name="uni01ED" unicode="&#x1ed;" horiz-adv-x="1247" 
d="M274 1206v189h697v-189h-697zM694 -410q-124 0 -194 51t-70 150q0 118 98 189q-202 30 -327 174t-125 362q0 245 154.5 395t392.5 150q157 0 281 -66.5t195.5 -191t71.5 -287.5q0 -200 -107 -338.5t-284 -185.5q-123 -43 -123 -119q0 -37 32.5 -57.5t88.5 -20.5h27v-205
h-111zM623 217q122 0 201 81.5t79 217.5q0 137 -79 219t-201 82q-121 0 -200 -82t-79 -219q0 -135 79 -217t200 -82z" />
    <glyph glyph-name="uni01F0" unicode="&#x1f0;" horiz-adv-x="538" 
d="M147 1167l-225 312h238l106 -148h8l107 148h237l-225 -312h-246zM-94 -410v250h143q49 0 67.5 19t18.5 67v1108h268v-1130q0 -166 -73.5 -240t-239.5 -74h-184z" />
    <glyph glyph-name="uni01F1" unicode="&#x1f1;" horiz-adv-x="3088" 
d="M170 0v1434h596q211 0 376.5 -85t261 -249.5t95.5 -382.5t-95.5 -382.5t-261 -249.5t-376.5 -85h-596zM1708 0v199l832 970v9h-820v256h1258v-197l-836 -973v-8h848v-256h-1282zM455 256h311q201 0 324.5 122t123.5 339t-123.5 339t-324.5 122h-311v-922z" />
    <glyph glyph-name="uni01F2" unicode="&#x1f2;" horiz-adv-x="2691" 
d="M170 0v1434h596q211 0 376.5 -85t261 -249.5t95.5 -382.5t-95.5 -382.5t-261 -249.5t-376.5 -85h-596zM455 256h311q201 0 324.5 122t123.5 339t-123.5 339t-324.5 122h-311v-922zM1696 0v188l516 598v9h-508v239h893v-190l-516 -598v-8h524v-238h-909z" />
    <glyph glyph-name="uni01F3" unicode="&#x1f3;" horiz-adv-x="2377" 
d="M545 -27q-214 0 -341.5 148t-127.5 395q0 249 127.5 397t341.5 148q213 0 340 -152h8v525h268v-1434h-268v125h-8q-127 -152 -340 -152zM1382 0v188l516 598v9h-507v239h893v-190l-517 -598v-8h525v-238h-910zM621 217q120 0 199 83t79 216t-79 217t-199 84
q-121 0 -199 -83.5t-78 -217.5t78 -216.5t199 -82.5z" />
    <glyph glyph-name="uni01F4" unicode="&#x1f4;" horiz-adv-x="1685" 
d="M672 1567l164 266h292l-163 -266h-293zM827 -27q-153 0 -285.5 54t-227.5 150.5t-149 236t-54 303.5q0 165 55 304t151.5 235t232.5 150t294 54q255 0 436 -133t254 -366h-309q-55 115 -151.5 177t-229.5 62q-201 0 -326 -133t-125 -350q0 -219 127.5 -351.5
t337.5 -132.5q171 0 293 87.5t154 234.5h-494v236h737v-791h-235v184h-8q-165 -211 -478 -211z" />
    <glyph glyph-name="uni01F5" unicode="&#x1f5;" horiz-adv-x="1296" 
d="M463 1167l164 267h293l-164 -267h-293zM545 1061q213 0 340 -152h8v125h266v-956q0 -257 -140 -385.5t-384 -128.5q-215 0 -348 91.5t-168 242.5h287q71 -105 229 -105q122 0 190 70.5t68 214.5v72h-8q-127 -152 -340 -152t-341 146t-128 384t128.5 385.5t340.5 147.5z
M618 817q-119 0 -196.5 -80.5t-77.5 -208.5q0 -127 77.5 -206.5t196.5 -79.5q121 0 201 80t80 206q0 128 -80 208.5t-201 80.5z" />
    <glyph glyph-name="uni01F8" unicode="&#x1f8;" horiz-adv-x="1662" 
d="M829 1833l164 -266h-293l-163 266h292zM1493 1434v-1434h-354l-676 1014h-8v-1014h-285v1434h352l678 -1014h8v1014h285z" />
    <glyph glyph-name="uni01F9" unicode="&#x1f9;" horiz-adv-x="1275" 
d="M643 1434l164 -267h-293l-164 267h293zM135 0v1034h268v-125h9q137 152 336 152q83 0 155 -27.5t127.5 -80.5t87 -137.5t31.5 -192.5v-623h-266v578q0 52 -13.5 93.5t-35.5 68t-52 44t-60.5 24.5t-62.5 7q-108 0 -182 -76t-74 -219v-520h-268z" />
    <glyph glyph-name="Oslashacute" unicode="&#x1fe;" horiz-adv-x="1701" 
d="M692 1567l164 266h293l-164 -266h-293zM852 -27q-136 0 -254 41l-84 -149h-283l148 262q-127 99 -197.5 251t-70.5 339q0 219 97 389t265.5 262t378.5 92q137 0 252 -41l84 150h282l-147 -262q128 -98 199 -250t71 -340q0 -164 -56.5 -304t-155.5 -236t-235.5 -150
t-293.5 -54zM518 377l453 805q-55 18 -119 18q-200 0 -329.5 -133.5t-129.5 -349.5q0 -205 125 -340zM852 233q199 0 328 134t129 350q0 204 -123 340l-455 -805q59 -19 121 -19z" />
    <glyph glyph-name="oslashacute" unicode="&#x1ff;" horiz-adv-x="1247" 
d="M463 1167l164 267h293l-164 -267h-293zM623 -27q-99 0 -181 27l-63 -115h-217l110 201q-93 72 -144.5 182.5t-51.5 247.5q0 245 154.5 395t392.5 150q95 0 178 -27l67 121h217l-112 -205q94 -72 146 -183.5t52 -250.5q0 -244 -154.5 -393.5t-393.5 -149.5zM406 326
l270 483q-19 8 -49 8q-128 0 -205.5 -84t-77.5 -217q0 -112 62 -190zM621 217q128 0 205 83.5t77 215.5q0 116 -63 195l-273 -486q21 -8 54 -8z" />
    <glyph glyph-name="uni0218" unicode="&#x218;" horiz-adv-x="1488" 
d="M786 -27q-119 0 -218 14.5t-189.5 50t-154.5 91.5t-106 142.5t-52 199.5h294q14 -72 51.5 -122t95.5 -78t125.5 -40t153.5 -12q332 0 332 178q0 50 -28 86t-76 55t-112 34t-136 22.5t-148.5 21t-148.5 29t-136 47.5t-112 75t-76 113t-28 160q0 88 28 158t77.5 114.5
t107.5 75t130 45.5t132 21t125 6q108 0 199.5 -15.5t170.5 -49.5t137 -86.5t95 -129t47 -173.5h-297q-16 105 -111.5 156.5t-240.5 51.5q-63 0 -117.5 -9.5t-100 -29t-72 -54t-26.5 -81.5q0 -52 34.5 -86.5t92.5 -53.5t133 -31.5t158 -24.5t166 -28t158 -47t133 -76
t92.5 -120.5t34.5 -175.5q0 -424 -617 -424zM584 -653l86 219q-64 8 -102 46t-38 97q0 69 45 107.5t123 38.5q79 0 123.5 -42t44.5 -120q0 -75 -30 -148l-80 -198h-172z" />
    <glyph glyph-name="uni0219" unicode="&#x219;" horiz-adv-x="1114" 
d="M578 -27q-103 0 -188.5 17t-160 55.5t-120.5 110t-54 172.5h275q10 -39 36 -67t62 -43t73 -21.5t77 -6.5q82 -2 139 24t57 85q0 36 -29.5 59.5t-78 33.5t-110.5 21t-127 19.5t-127 31t-110.5 54t-78 90t-29.5 137.5q0 74 28.5 131t73.5 91t107 56t121.5 30t124.5 8
q70 0 133.5 -9.5t125 -34t107.5 -61.5t77.5 -96.5t39.5 -134.5h-274q-16 66 -76 92.5t-135 26.5q-30 0 -58.5 -4t-59.5 -13.5t-50 -30.5t-19 -51q0 -29 23.5 -48.5t63.5 -30t92 -18t109.5 -16.5t115 -21t109.5 -36t92 -58t63.5 -89.5t23.5 -128.5q0 -326 -464 -326z
M436 -653l86 219q-64 8 -101.5 46t-37.5 97q0 69 45 107.5t123 38.5q79 0 123.5 -42t44.5 -120q0 -72 -31 -148l-80 -198h-172z" />
    <glyph glyph-name="uni021A" unicode="&#x21a;" horiz-adv-x="1542" 
d="M629 0v1174h-551v260h1386v-260h-551v-1174h-284zM657 -653l86 219q-64 8 -101.5 46t-37.5 97q0 69 45 107.5t123 38.5q79 0 123.5 -42t44.5 -120q0 -72 -31 -148l-80 -198h-172z" />
    <glyph glyph-name="uni021B" unicode="&#x21b;" horiz-adv-x="1167" 
d="M641 0q-334 0 -334 336v455h-237v243h237v326h266v-326h504v-243h-504v-437q0 -60 24.5 -84t86.5 -24h393v-246h-436zM500 -653l86 219q-64 8 -102 46t-38 97q0 69 45 107.5t123 38.5q79 0 123.5 -42t44.5 -120q0 -75 -30 -148l-80 -198h-172z" />
    <glyph glyph-name="uni021E" unicode="&#x21e;" horiz-adv-x="1613" 
d="M684 1567l-225 311h237l107 -147h8l107 147h237l-225 -311h-246zM170 0v1434h285v-566h706v566h285v-1434h-285v608h-706v-608h-285z" />
    <glyph glyph-name="uni021F" unicode="&#x21f;" horiz-adv-x="1275" 
d="M147 1567l-225 311h238l106 -147h8l107 147h237l-225 -311h-246zM135 0v1434h268v-525h9q137 152 336 152q83 0 155 -27.5t127.5 -80.5t87 -137.5t31.5 -192.5v-623h-266v578q0 52 -13.5 93.5t-35.5 68t-52 44t-60.5 24.5t-62.5 7q-108 0 -182 -76t-74 -219v-520h-268z
" />
    <glyph glyph-name="uni0226" unicode="&#x226;" horiz-adv-x="1585" 
d="M793 1571q-72 0 -118 38t-46 101q0 64 46 102.5t118 38.5q71 0 117 -38.5t46 -102.5q0 -63 -45.5 -101t-117.5 -38zM1556 0h-303l-127 305h-665l-127 -305h-303l598 1434h329zM563 559h461l-227 541h-9z" />
    <glyph glyph-name="uni0227" unicode="&#x227;" horiz-adv-x="1191" 
d="M590 1171q-72 0 -118 38.5t-46 101.5q0 64 46 102.5t118 38.5t118 -38.5t46 -102.5q0 -63 -46 -101.5t-118 -38.5zM403 -27q-46 0 -88 6.5t-88.5 25t-80.5 49t-56 83t-22 121.5q0 64 20.5 115t50 83.5t77.5 59.5t86.5 40.5t94.5 29.5l363 98v16q0 71 -50 107.5t-122 36.5
q-77 0 -134 -39.5t-67 -106.5h-274q18 181 147 272t328 91q65 0 122 -9.5t115.5 -35t100 -65.5t68 -107t26.5 -154v-395q0 -27 11.5 -38t39.5 -11h64v-246h-224q-109 0 -133 90l-10 35h-8q-135 -152 -357 -152zM473 182q124 0 205.5 71t81.5 193v31l-309 -84
q-60 -15 -88.5 -41.5t-28.5 -68.5q0 -101 139 -101z" />
    <glyph glyph-name="uni0228" unicode="&#x228;" horiz-adv-x="1468" 
d="M455 614v-358h886v-256h-501l-27 -63q72 -14 117 -56.5t45 -109.5q0 -94 -84.5 -137.5t-216.5 -43.5h-80v179h70q86 0 86 53q0 51 -86 51h-35l53 127h-512v1434h1171v-256h-886v-316h796v-248h-796z" />
    <glyph glyph-name="uni0229" unicode="&#x229;" horiz-adv-x="1216" 
d="M446 -410v179h70q84 0 84 53q0 51 -84 51h-37l45 107q-196 28 -322 174t-126 362q0 160 72 285.5t194.5 192.5t271.5 67q150 0 269 -64.5t188.5 -187.5t69.5 -283l-4 -98h-789q19 -109 90.5 -173.5t175.5 -64.5q73 0 132.5 32t93.5 89h278q-48 -132 -162 -224t-274 -110
l-18 -40q72 -14 117.5 -56.5t45.5 -109.5q0 -49 -24.5 -85t-67.5 -56.5t-95.5 -30t-115.5 -9.5h-78zM352 629h516q-23 97 -87.5 156t-166.5 59q-98 0 -168.5 -57.5t-93.5 -157.5z" />
    <glyph glyph-name="uni0232" unicode="&#x232;" horiz-adv-x="1572" 
d="M438 1606v188h697v-188h-697zM645 0v578l-618 856h333l426 -590l426 590h334l-618 -856v-578h-283z" />
    <glyph glyph-name="uni0233" unicode="&#x233;" horiz-adv-x="1249" 
d="M287 1206v189h696v-189h-696zM172 -410v246h164q56 0 90.5 25.5t56.5 81.5l27 63l-463 1028h289l301 -682h10l275 682h282l-483 -1181q-41 -103 -87.5 -158.5t-116 -80t-181.5 -24.5h-164z" />
    <glyph glyph-name="uni0237" unicode="&#x237;" horiz-adv-x="538" 
d="M-94 -410v250h143q49 0 67.5 19t18.5 67v1108h268v-1130q0 -166 -73.5 -240t-239.5 -74h-184z" />
    <glyph glyph-name="circumflex" unicode="&#x2c6;" horiz-adv-x="1024" 
d="M164 1167l225 312h246l225 -312h-237l-107 148h-8l-107 -148h-237z" />
    <glyph glyph-name="caron" unicode="&#x2c7;" horiz-adv-x="1024" 
d="M389 1167l-225 312h237l107 -148h8l107 148h237l-225 -312h-246z" />
    <glyph glyph-name="breve" unicode="&#x2d8;" horiz-adv-x="1024" 
d="M512 1165q-150 0 -240 81t-94 233h193q4 -71 44.5 -105.5t96.5 -34.5t96.5 34.5t44.5 105.5h193q-4 -152 -94 -233t-240 -81z" />
    <glyph glyph-name="dotaccent" unicode="&#x2d9;" horiz-adv-x="1024" 
d="M512 1171q-72 0 -118 38.5t-46 101.5q0 64 46 102.5t118 38.5t118 -38.5t46 -102.5q0 -63 -46 -101.5t-118 -38.5z" />
    <glyph glyph-name="ring" unicode="&#x2da;" horiz-adv-x="1024" 
d="M512 1133q-102 0 -170 58t-68 159q0 102 68 160.5t170 58.5t170 -58.5t68 -160.5q0 -101 -68 -159t-170 -58zM451 1350q0 -22 17.5 -41t39.5 -19q23 0 44 18.5t21 41.5t-17 41t-40 18q-24 0 -41 -14q-24 -18 -24 -45z" />
    <glyph glyph-name="ogonek" unicode="&#x2db;" horiz-adv-x="1024" 
d="M401 -410q-123 0 -193.5 51t-70.5 150q0 76 42 132t112 89l221 -12q-147 -47 -147 -127q0 -37 32.5 -57.5t89.5 -20.5h25v-205h-111z" />
    <glyph glyph-name="tilde" unicode="&#x2dc;" horiz-adv-x="1024" 
d="M369 1448q46 0 86 -15.5t63.5 -34.5t53 -34.5t57.5 -15.5q32 0 48.5 17.5t20.5 59.5h189q-9 -139 -70.5 -205.5t-161.5 -66.5q-46 0 -86 15.5t-63.5 34.5t-53 34.5t-57.5 15.5q-32 0 -48.5 -17.5t-20.5 -59.5h-189q9 139 70.5 205.5t161.5 66.5z" />
    <glyph glyph-name="hungarumlaut" unicode="&#x2dd;" horiz-adv-x="1024" 
d="M555 1167l164 267h268l-164 -267h-268zM158 1167l164 267h266l-164 -267h-266z" />
    <glyph glyph-name="uni0312" unicode="&#x312;" horiz-adv-x="0" 
d="M115 1642l-86 -219q64 -8 101.5 -46t37.5 -97q0 -69 -45 -107t-123 -38q-79 0 -123.5 41.5t-44.5 119.5q0 72 31 148l80 198h172z" />
    <glyph glyph-name="uni0326" unicode="&#x326;" horiz-adv-x="0" 
d="M-115 -653l86 219q-64 8 -101.5 46t-37.5 97q0 69 45 107.5t123 38.5q79 0 123.5 -42t44.5 -120q0 -72 -31 -148l-80 -198h-172z" />
    <glyph glyph-name="uni0400" unicode="&#x400;" horiz-adv-x="1468" 
d="M762 1833l164 -266h-293l-164 266h293zM455 614v-358h886v-256h-1171v1434h1171v-256h-886v-316h796v-248h-796z" />
    <glyph glyph-name="uni0401" unicode="&#x401;" horiz-adv-x="1468" 
d="M553 1571q-70 0 -113 37.5t-43 101.5t43 102.5t113 38.5q71 0 114.5 -38.5t43.5 -102.5t-43.5 -101.5t-114.5 -37.5zM979 1571q-71 0 -114.5 37.5t-43.5 101.5t43.5 102.5t114.5 38.5q70 0 113 -38.5t43 -102.5t-43 -101.5t-113 -37.5zM455 614v-358h886v-256h-1171v1434
h1171v-256h-886v-316h796v-248h-796z" />
    <glyph glyph-name="uni0402" unicode="&#x402;" horiz-adv-x="1804" 
d="M1079 -4v260h103q264 0 264 225q0 121 -72 174.5t-192 53.5q-160 0 -246 -81.5t-86 -242.5v-385h-285v1174h-487v260h1261v-260h-489v-357h8q70 70 159.5 111t223.5 41q227 0 358.5 -127.5t131.5 -360.5q0 -232 -131.5 -358.5t-358.5 -126.5h-162z" />
    <glyph glyph-name="uni0403" unicode="&#x403;" horiz-adv-x="1384" 
d="M586 1567l164 266h292l-163 -266h-293zM170 0v1434h1137v-267h-852v-1167h-285z" />
    <glyph glyph-name="uni0404" unicode="&#x404;" horiz-adv-x="1632" 
d="M850 -27q-157 0 -293.5 54t-235.5 150t-155.5 236t-56.5 304q0 219 97 389t265.5 262t378.5 92q257 0 438.5 -137.5t251.5 -376.5h-301q-56 120 -159.5 187t-241.5 67q-160 0 -274.5 -91.5t-149.5 -246.5h612v-260h-620q29 -168 146.5 -268.5t285.5 -100.5
q138 0 241.5 67t159.5 187h301q-70 -239 -251.5 -376.5t-438.5 -137.5z" />
    <glyph glyph-name="uni0405" unicode="&#x405;" horiz-adv-x="1488" 
d="M786 -27q-119 0 -218 14.5t-189.5 50t-154.5 91.5t-106 142.5t-52 199.5h294q14 -72 51.5 -122t95.5 -78t125.5 -40t153.5 -12q332 0 332 178q0 50 -28 86t-76 55t-112 34t-136 22.5t-148.5 21t-148.5 29t-136 47.5t-112 75t-76 113t-28 160q0 88 28 158t77.5 114.5
t107.5 75t130 45.5t132 21t125 6q108 0 199.5 -15.5t170.5 -49.5t137 -86.5t95 -129t47 -173.5h-297q-16 105 -111.5 156.5t-240.5 51.5q-63 0 -117.5 -9.5t-100 -29t-72 -54t-26.5 -81.5q0 -52 34.5 -86.5t92.5 -53.5t133 -31.5t158 -24.5t166 -28t158 -47t133 -76
t92.5 -120.5t34.5 -175.5q0 -424 -617 -424z" />
    <glyph glyph-name="uni0406" unicode="&#x406;" horiz-adv-x="622" 
d="M170 0v1434h285v-1434h-285z" />
    <glyph glyph-name="uni0407" unicode="&#x407;" horiz-adv-x="622" 
d="M98 1571q-70 0 -112.5 37.5t-42.5 101.5t43 102.5t112 38.5q71 0 114.5 -38.5t43.5 -102.5t-43.5 -101.5t-114.5 -37.5zM524 1571q-71 0 -114 37.5t-43 101.5t43 102.5t114 38.5q70 0 113 -38.5t43 -102.5t-43 -101.5t-113 -37.5zM170 0v1434h285v-1434h-285z" />
    <glyph glyph-name="uni0408" unicode="&#x408;" horiz-adv-x="1402" 
d="M78 0v266h768q69 0 92 23.5t23 91.5v1053h284v-1098q0 -186 -75 -261t-261 -75h-831z" />
    <glyph glyph-name="uni0409" unicode="&#x409;" horiz-adv-x="2451" 
d="M254 -4h-205v285h150q39 0 62 20.5t26 58.5l88 1074h1034v-457h414q254 0 402.5 -137t148.5 -353q0 -214 -148.5 -350.5t-402.5 -136.5h-699v1174h-491l-72 -900q-21 -278 -307 -278zM1409 248h412q117 0 192.5 65t75.5 174t-76 175.5t-192 66.5h-412v-481z" />
    <glyph glyph-name="uni040A" unicode="&#x40a;" horiz-adv-x="2447" 
d="M170 0v1434h285v-457h665v457h285v-457h414q254 0 402.5 -137t148.5 -353q0 -214 -148.5 -350.5t-402.5 -136.5h-699v717h-665v-717h-285zM1405 248h412q117 0 192.5 65t75.5 174t-76 175.5t-192 66.5h-412v-481z" />
    <glyph glyph-name="uni040B" unicode="&#x40b;" horiz-adv-x="1767" 
d="M1380 0v444q0 71 -21.5 124.5t-58.5 82.5t-78.5 42.5t-88.5 13.5q-118 0 -200.5 -79.5t-82.5 -230.5v-397h-285v1174h-487v260h1261v-260h-489v-357h8q152 152 371 152q191 0 313.5 -119.5t122.5 -349.5v-500h-285z" />
    <glyph glyph-name="uni040C" unicode="&#x40c;" horiz-adv-x="1546" 
d="M598 1567l164 266h293l-164 -266h-293zM170 0v1434h285v-566h184l500 566h348l-619 -697l631 -737h-356l-518 608h-170v-608h-285z" />
    <glyph glyph-name="uni040D" unicode="&#x40d;" horiz-adv-x="1662" 
d="M821 1833l164 -266h-293l-164 266h293zM1493 1434v-1434h-285v1053l-692 -1053h-346v1434h285v-1053l692 1053h346z" />
    <glyph glyph-name="uni040E" unicode="&#x40e;" horiz-adv-x="1482" 
d="M758 1565q-150 0 -240 80.5t-94 232.5h192q4 -71 45 -105t97 -34t96.5 34t44.5 105h193q-4 -152 -94 -232.5t-240 -80.5zM319 0v266h222q32 0 49.5 13.5t30.5 42.5l16 34l-596 1078h315l416 -766h10l357 766h303l-557 -1176q-32 -67 -54.5 -105t-51.5 -72t-64 -49
t-82 -23.5t-115 -8.5h-199z" />
    <glyph glyph-name="uni040F" unicode="&#x40f;" horiz-adv-x="1613" 
d="M659 -369v369h-489v1434h285v-1174h706v1174h285v-1434h-492v-369h-295z" />
    <glyph glyph-name="uni0410" unicode="&#x410;" horiz-adv-x="1585" 
d="M1556 0h-303l-127 305h-665l-127 -305h-303l598 1434h329zM563 559h461l-227 541h-9z" />
    <glyph glyph-name="uni0411" unicode="&#x411;" horiz-adv-x="1548" 
d="M455 1180v-281h491q127 0 226 -34t161.5 -94.5t94.5 -142t32 -179.5q0 -203 -131.5 -326t-382.5 -123h-776v1434h1194v-254h-909zM455 254h491q113 0 171.5 51t58.5 144t-58.5 144.5t-171.5 51.5h-491v-391z" />
    <glyph glyph-name="uni0412" unicode="&#x412;" horiz-adv-x="1548" 
d="M170 0v1434h795q207 0 328.5 -98t121.5 -267q0 -201 -188 -315v-9q105 -45 169 -142t64 -216q0 -167 -122.5 -277t-333.5 -110h-834zM455 852h450q108 0 166.5 42t58.5 126q0 166 -225 166h-450v-334zM455 248h491q115 0 172.5 48.5t57.5 129.5q0 82 -59.5 130t-174.5 48
h-487v-356z" />
    <glyph glyph-name="uni0413" unicode="&#x413;" horiz-adv-x="1384" 
d="M170 0v1434h1137v-267h-852v-1167h-285z" />
    <glyph glyph-name="uni0414" unicode="&#x414;" horiz-adv-x="1634" 
d="M1577 -307h-283v307h-966v-307h-283v567h107q82 0 88 82l104 1092h1059v-1174h174v-567zM504 260h614v914h-516l-84 -824z" />
    <glyph glyph-name="uni0415" unicode="&#x415;" horiz-adv-x="1468" 
d="M455 614v-358h886v-256h-1171v1434h1171v-256h-886v-316h796v-248h-796z" />
    <glyph glyph-name="uni0416" unicode="&#x416;" horiz-adv-x="2396" 
d="M1057 0v608h-135l-519 -608h-356l631 737l-619 697h349l499 -566h150v566h282v-566h150l500 566h348l-619 -697l631 -737h-356l-518 608h-136v-608h-282z" />
    <glyph glyph-name="uni0417" unicode="&#x417;" horiz-adv-x="1515" 
d="M780 -27q-320 0 -493.5 125t-194.5 344h301q41 -213 387 -213q164 0 263.5 51t99.5 146q0 82 -77 132t-218 50h-252v248h231q129 0 200 41.5t71 124.5q0 65 -47 107t-119.5 58.5t-169.5 16.5q-166 0 -258.5 -55t-110.5 -158h-301q17 219 193.5 344t476.5 125
q129 0 239 -24.5t195.5 -72t134.5 -125t49 -177.5q0 -99 -47 -171t-141 -132v-8q107 -44 171 -136t64 -215q0 -199 -171 -312.5t-476 -113.5z" />
    <glyph glyph-name="uni0418" unicode="&#x418;" horiz-adv-x="1662" 
d="M1493 1434v-1434h-285v1053l-692 -1053h-346v1434h285v-1053l692 1053h346z" />
    <glyph glyph-name="uni0419" unicode="&#x419;" horiz-adv-x="1662" 
d="M827 1565q-150 0 -239.5 80.5t-93.5 232.5h192q4 -71 44.5 -105t96.5 -34t97 34t45 105h192q-4 -152 -94 -232.5t-240 -80.5zM1493 1434v-1434h-285v1053l-692 -1053h-346v1434h285v-1053l692 1053h346z" />
    <glyph glyph-name="uni041A" unicode="&#x41a;" horiz-adv-x="1546" 
d="M170 0v1434h285v-566h184l500 566h348l-619 -697l631 -737h-356l-518 608h-170v-608h-285z" />
    <glyph glyph-name="uni041B" unicode="&#x41b;" horiz-adv-x="1617" 
d="M1450 1434v-1434h-285v1174h-532l-72 -900q-21 -278 -307 -278h-205v285h150q39 0 62 20.5t26 58.5l88 1074h1075z" />
    <glyph glyph-name="uni041C" unicode="&#x41c;" horiz-adv-x="2091" 
d="M1921 1434v-1434h-285v1057h-8l-481 -1057h-203l-481 1057h-8v-1057h-285v1434h418l452 -992h9l454 992h418z" />
    <glyph glyph-name="uni041D" unicode="&#x41d;" horiz-adv-x="1613" 
d="M170 0v1434h285v-566h706v566h285v-1434h-285v608h-706v-608h-285z" />
    <glyph glyph-name="uni041E" unicode="&#x41e;" horiz-adv-x="1701" 
d="M852 -27q-157 0 -293.5 54t-235.5 150t-155.5 236t-56.5 304q0 219 97 389t265.5 262t378.5 92t378.5 -92t265.5 -262t97 -389q0 -164 -56.5 -304t-155.5 -236t-235.5 -150t-293.5 -54zM852 233q199 0 328 134t129 350t-129 349.5t-328 133.5q-200 0 -329.5 -133.5
t-129.5 -349.5t129.5 -350t329.5 -134z" />
    <glyph glyph-name="uni041F" unicode="&#x41f;" horiz-adv-x="1613" 
d="M170 0v1434h1276v-1434h-285v1174h-706v-1174h-285z" />
    <glyph glyph-name="uni0420" unicode="&#x420;" horiz-adv-x="1570" 
d="M989 477h-534v-477h-285v1434h819q220 0 362 -130t142 -350q0 -218 -142 -347.5t-362 -129.5zM455 733h534q102 0 160.5 61t58.5 160q0 100 -58.5 162t-160.5 62h-534v-445z" />
    <glyph glyph-name="uni0421" unicode="&#x421;" horiz-adv-x="1638" 
d="M838 -27q-157 0 -292 54t-231 150.5t-150 235.5t-54 304q0 220 93 389.5t258.5 261.5t375.5 92q274 0 463 -150.5t245 -408.5h-299q-48 141 -152.5 220t-256.5 79q-200 0 -322.5 -132.5t-122.5 -350.5t122.5 -351t322.5 -133q152 0 256.5 79t152.5 220h299
q-56 -258 -245 -408.5t-463 -150.5z" />
    <glyph glyph-name="uni0422" unicode="&#x422;" horiz-adv-x="1542" 
d="M629 0v1174h-551v260h1386v-260h-551v-1174h-284z" />
    <glyph glyph-name="uni0423" unicode="&#x423;" horiz-adv-x="1482" 
d="M319 0v266h222q32 0 49.5 13.5t30.5 42.5l16 34l-596 1078h315l416 -766h10l357 766h303l-557 -1176q-32 -67 -54.5 -105t-51.5 -72t-64 -49t-82 -23.5t-115 -8.5h-199z" />
    <glyph glyph-name="uni0424" unicode="&#x424;" horiz-adv-x="2007" 
d="M862 -27v174h-121q-299 0 -481 159t-182 411q0 251 182 410t481 159h121v174h285v-174h121q299 0 480 -158.5t181 -410.5t-181 -411t-480 -159h-121v-174h-285zM862 408v618h-121q-177 0 -278 -86.5t-101 -222.5t101 -222.5t278 -86.5h121zM1147 408h121q177 0 278 86.5
t101 222.5t-101 222.5t-278 86.5h-121v-618z" />
    <glyph glyph-name="uni0425" unicode="&#x425;" horiz-adv-x="1587" 
d="M47 0l574 725l-562 709h347l389 -490l387 490h346l-561 -709l573 -725h-346l-399 506l-402 -506h-346z" />
    <glyph glyph-name="uni0426" unicode="&#x426;" horiz-adv-x="1675" 
d="M170 0v1434h285v-1174h706v1174h285v-1174h172v-567h-283v307h-1165z" />
    <glyph glyph-name="uni0427" unicode="&#x427;" horiz-adv-x="1515" 
d="M1346 1434v-1434h-285v547q-165 -33 -328 -33q-148 0 -261 32t-197.5 100.5t-128.5 183t-44 272.5v332h285v-332q0 -95 26.5 -160.5t78.5 -101.5t119 -51t159 -15q113 0 291 29v631h285z" />
    <glyph glyph-name="uni0428" unicode="&#x428;" horiz-adv-x="2473" 
d="M2306 1434v-1434h-2136v1434h285v-1174h641v1174h284v-1174h641v1174h285z" />
    <glyph glyph-name="uni0429" unicode="&#x429;" horiz-adv-x="2535" 
d="M2478 260v-567h-283v307h-2025v1434h285v-1174h641v1174h284v-1174h641v1174h285v-1174h172z" />
    <glyph glyph-name="uni042A" unicode="&#x42a;" horiz-adv-x="1871" 
d="M78 1174v260h710v-457h455q254 0 402.5 -137t148.5 -353q0 -214 -148.5 -350.5t-402.5 -136.5h-739v1174h-426zM788 248h453q118 0 194 65.5t76 173.5q0 109 -76.5 175.5t-193.5 66.5h-453v-481z" />
    <glyph glyph-name="uni042B" unicode="&#x42b;" horiz-adv-x="2052" 
d="M1884 1434v-1434h-285v1434h285zM848 0h-678v1434h285v-457h393q254 0 402.5 -137t148.5 -353q0 -214 -148.5 -350.5t-402.5 -136.5zM455 729v-481h391q117 0 192.5 65t75.5 174t-76 175.5t-192 66.5h-391z" />
    <glyph glyph-name="uni042C" unicode="&#x42c;" horiz-adv-x="1538" 
d="M170 0v1434h285v-457h454q254 0 402.5 -137t148.5 -353q0 -214 -148.5 -350.5t-402.5 -136.5h-739zM455 248h452q118 0 193.5 65.5t75.5 173.5t-76.5 175t-192.5 67h-452v-481z" />
    <glyph glyph-name="uni042D" unicode="&#x42d;" horiz-adv-x="1632" 
d="M782 -27q-257 0 -438.5 137.5t-251.5 376.5h301q56 -120 160 -187t242 -67q168 0 285.5 100.5t146.5 268.5h-621v260h613q-35 155 -149.5 246.5t-274.5 91.5q-138 0 -242 -67t-160 -187h-301q70 239 251.5 376.5t438.5 137.5q210 0 378.5 -92t266 -262t97.5 -389
t-97.5 -389.5t-266 -262.5t-378.5 -92z" />
    <glyph glyph-name="uni042E" unicode="&#x42e;" horiz-adv-x="2254" 
d="M455 608v-608h-285v1434h285v-566h256q44 270 237.5 431t472.5 161q157 0 291 -54t230 -150t150 -235t54 -304t-54 -304t-150 -235.5t-230 -150.5t-291 -54q-290 0 -486 173.5t-228 461.5h-252zM1421 233q198 0 319.5 133t121.5 351t-121.5 350.5t-319.5 132.5
q-197 0 -317.5 -132.5t-120.5 -350.5t120.5 -351t317.5 -133z" />
    <glyph glyph-name="uni042F" unicode="&#x42f;" horiz-adv-x="1570" 
d="M707 508l-297 -508h-318l314 535q-151 43 -239.5 156t-88.5 280q0 144 66.5 250t179.5 159.5t258 53.5h819v-1434h-285v508h-409zM582 764h534v414h-534q-102 0 -161 -55.5t-59 -151.5t59 -151.5t161 -55.5z" />
    <glyph glyph-name="uni0430" unicode="&#x430;" horiz-adv-x="1191" 
d="M403 -27q-46 0 -88 6.5t-88.5 25t-80.5 49t-56 83t-22 121.5q0 64 20.5 115t50 83.5t77.5 59.5t86.5 40.5t94.5 29.5l363 98v16q0 71 -50 107.5t-122 36.5q-77 0 -134 -39.5t-67 -106.5h-274q18 181 147 272t328 91q65 0 122 -9.5t115.5 -35t100 -65.5t68 -107t26.5 -154
v-395q0 -27 11.5 -38t39.5 -11h64v-246h-224q-109 0 -133 90l-10 35h-8q-135 -152 -357 -152zM473 182q124 0 205.5 71t81.5 193v31l-309 -84q-60 -15 -88.5 -41.5t-28.5 -68.5q0 -101 139 -101z" />
    <glyph glyph-name="uni0431" unicode="&#x431;" horiz-adv-x="1261" 
d="M639 -27q-251 0 -401 159.5t-150 449.5q0 365 141.5 575.5t450.5 263.5l416 70v-266l-398 -66q-138 -23 -216.5 -95t-114.5 -204h8q118 127 317 127q129 0 240.5 -60.5t182.5 -178t71 -267.5q0 -151 -71.5 -267.5t-195.5 -178.5t-280 -62zM639 217q120 0 199.5 73
t79.5 191q0 120 -79 193.5t-200 73.5q-122 0 -201.5 -73.5t-79.5 -193.5q0 -118 79.5 -191t201.5 -73z" />
    <glyph glyph-name="uni0432" unicode="&#x432;" horiz-adv-x="1236" 
d="M135 0v1034h629q167 0 266.5 -73t99.5 -195q0 -145 -155 -221v-8q86 -33 135 -99.5t49 -156.5q0 -122 -99 -201.5t-269 -79.5h-656zM403 631h330q131 0 131 98t-131 98h-330v-196zM403 207h355q64 0 99.5 30t35.5 80t-35.5 79.5t-99.5 29.5h-355v-219z" />
    <glyph glyph-name="uni0433" unicode="&#x433;" horiz-adv-x="1021" 
d="M135 0v1034h817v-250h-549v-784h-268z" />
    <glyph glyph-name="uni0434" unicode="&#x434;" horiz-adv-x="1304" 
d="M117 244q43 0 60 16t20 59l59 715h852v-790h160v-469h-267v225h-706v-225h-266v469h88zM446 244h396v547h-342l-43 -476z" />
    <glyph glyph-name="uni0435" unicode="&#x435;" horiz-adv-x="1216" 
d="M614 -27q-150 0 -272.5 66.5t-194 191.5t-71.5 285t72 285.5t194.5 192.5t271.5 67q150 0 269 -64.5t188.5 -187.5t69.5 -283l-4 -98h-789q19 -109 90.5 -173.5t175.5 -64.5q73 0 132.5 32t93.5 89h278q-54 -147 -186.5 -242.5t-317.5 -95.5zM352 629h516
q-23 97 -87.5 156t-166.5 59q-98 0 -168.5 -57.5t-93.5 -157.5z" />
    <glyph glyph-name="uni0436" unicode="&#x436;" horiz-adv-x="1816" 
d="M774 0v412h-82l-338 -412h-329l440 532l-424 502h321l326 -383h86v383h268v-383h88l324 383h322l-424 -502l440 -532h-330l-338 412h-82v-412h-268z" />
    <glyph glyph-name="uni0437" unicode="&#x437;" horiz-adv-x="1165" 
d="M594 -27q-246 0 -386 93t-145 258h277q11 -61 75 -94t179 -33q105 0 171 31.5t66 86.5q0 54 -67 84.5t-174 30.5h-148v205h144q96 0 150.5 26.5t54.5 75.5t-54 75t-151 26q-62 0 -111 -11.5t-86.5 -41.5t-48.5 -76h-277q11 119 86 200t186 116.5t251 35.5
q132 0 236 -30.5t170.5 -100t66.5 -168.5q0 -77 -41.5 -128.5t-122.5 -86.5v-8q89 -27 140.5 -89.5t51.5 -156.5q0 -151 -132 -235.5t-361 -84.5z" />
    <glyph glyph-name="uni0438" unicode="&#x438;" horiz-adv-x="1259" 
d="M1124 1034v-1034h-268v627h-8l-445 -627h-268v1034h268v-628h9l444 628h268z" />
    <glyph glyph-name="uni0439" unicode="&#x439;" horiz-adv-x="1259" 
d="M629 1165q-150 0 -240 81t-94 233h192q4 -71 45 -105.5t97 -34.5t96.5 34.5t44.5 105.5h193q-4 -152 -94 -233t-240 -81zM1124 1034v-1034h-268v627h-8l-445 -627h-268v1034h268v-628h9l444 628h268z" />
    <glyph glyph-name="uni043A" unicode="&#x43a;" horiz-adv-x="1222" 
d="M135 0v1034h268v-383h134l323 383h322l-424 -502l440 -532h-330l-338 412h-127v-412h-268z" />
    <glyph glyph-name="uni043B" unicode="&#x43b;" horiz-adv-x="1280" 
d="M1143 1034v-1034h-266v791h-353l-28 -496q-9 -143 -89 -221t-223 -78h-133v262h96q49 0 68.5 18t22.5 68l41 690h864z" />
    <glyph glyph-name="uni043C" unicode="&#x43c;" horiz-adv-x="1605" 
d="M1470 1034v-1034h-268v645h-8l-285 -645h-213l-284 645h-9v-645h-268v1034h352l312 -698h8l311 698h352z" />
    <glyph glyph-name="uni043D" unicode="&#x43d;" horiz-adv-x="1245" 
d="M403 410v-410h-268v1034h268v-381h439v381h266v-1034h-266v410h-439z" />
    <glyph glyph-name="uni043E" unicode="&#x43e;" horiz-adv-x="1247" 
d="M623 -27q-238 0 -392.5 149.5t-154.5 393.5q0 245 154.5 395t392.5 150q157 0 281 -66.5t195.5 -191t71.5 -287.5q0 -244 -154.5 -393.5t-393.5 -149.5zM623 217q122 0 201 81.5t79 217.5q0 137 -79 219t-201 82q-121 0 -200 -82t-79 -219q0 -135 79 -217t200 -82z" />
    <glyph glyph-name="uni043F" unicode="&#x43f;" horiz-adv-x="1245" 
d="M403 791v-791h-268v1034h973v-1034h-266v791h-439z" />
    <glyph glyph-name="uni0440" unicode="&#x440;" horiz-adv-x="1296" 
d="M752 1061q214 0 341.5 -148t127.5 -397q0 -247 -127.5 -395t-341.5 -148q-213 0 -340 152h-9v-535h-268v1444h268v-125h9q127 152 340 152zM676 217q121 0 198.5 82.5t77.5 216.5t-77.5 217.5t-198.5 83.5q-120 0 -199.5 -84t-79.5 -217t79.5 -216t199.5 -83z" />
    <glyph glyph-name="uni0441" unicode="&#x441;" horiz-adv-x="1204" 
d="M612 -27q-239 0 -387.5 148t-148.5 395q0 248 148.5 396.5t387.5 148.5q197 0 342.5 -106.5t186.5 -313.5h-277q-34 88 -99.5 132t-152.5 44q-122 0 -195 -81t-73 -220q0 -137 73 -218t195 -81q87 0 152.5 44t99.5 132h277q-41 -207 -186.5 -313.5t-342.5 -106.5z" />
    <glyph glyph-name="uni0442" unicode="&#x442;" horiz-adv-x="1169" 
d="M70 791v243h1030v-243h-381v-791h-268v791h-381z" />
    <glyph glyph-name="uni0443" unicode="&#x443;" horiz-adv-x="1249" 
d="M172 -410v246h164q56 0 90.5 25.5t56.5 81.5l27 63l-463 1028h289l301 -682h10l275 682h282l-483 -1181q-41 -103 -87.5 -158.5t-116 -80t-181.5 -24.5h-164z" />
    <glyph glyph-name="uni0444" unicode="&#x444;" horiz-adv-x="1644" 
d="M688 -14h-57q-157 0 -282.5 62.5t-199 184t-73.5 283.5q0 163 74 285.5t199 185t282 62.5h57v385h268v-385h60q117 0 218 -37t175.5 -104t117 -168t42.5 -224q0 -162 -73.5 -283.5t-198.5 -184t-281 -62.5h-60v-396h-268v396zM688 229v576h-57q-123 0 -205 -77t-82 -212
q0 -134 82 -210.5t205 -76.5h57zM1016 805h-60v-576h60q122 0 204.5 77t82.5 210q0 135 -82.5 212t-204.5 77z" />
    <glyph glyph-name="uni0445" unicode="&#x445;" horiz-adv-x="1175" 
d="M25 0l401 518l-397 516h323l236 -305l237 305h322l-397 -516l401 -518h-322l-241 309l-240 -309h-323z" />
    <glyph glyph-name="uni0446" unicode="&#x446;" horiz-adv-x="1304" 
d="M1268 244v-469h-267v225h-866v1034h268v-790h439v790h266v-790h160z" />
    <glyph glyph-name="uni0447" unicode="&#x447;" horiz-adv-x="1193" 
d="M1059 1034v-1034h-268v344q-119 -25 -246 -25q-229 0 -344 105t-115 338v272h266v-272q0 -113 55.5 -157t180.5 -44q90 0 203 25v448h268z" />
    <glyph glyph-name="uni0448" unicode="&#x448;" horiz-adv-x="1873" 
d="M1739 1034v-1034h-1604v1034h268v-790h400v790h268v-790h399v790h269z" />
    <glyph glyph-name="uni0449" unicode="&#x449;" horiz-adv-x="1933" 
d="M1896 244v-469h-264v225h-1497v1034h268v-790h400v790h268v-790h399v790h269v-790h157z" />
    <glyph glyph-name="uni044A" unicode="&#x44a;" horiz-adv-x="1468" 
d="M395 0v786h-325v248h594v-334h354q181 0 285 -88.5t104 -261.5q0 -175 -103 -262.5t-284 -87.5h-625zM664 211h321q160 0 160 139t-162 139h-319v-278z" />
    <glyph glyph-name="uni044B" unicode="&#x44b;" horiz-adv-x="1650" 
d="M1516 1034v-1034h-267v1034h267zM719 0h-584v1034h268v-334h314q181 0 285 -88.5t104 -261.5q0 -175 -103 -262.5t-284 -87.5zM403 489v-278h281q160 0 160 139t-160 139h-281z" />
    <glyph glyph-name="uni044C" unicode="&#x44c;" horiz-adv-x="1208" 
d="M135 0v1034h268v-334h355q181 0 285 -88.5t104 -261.5q0 -175 -103 -262.5t-284 -87.5h-625zM403 211h322q160 0 160 139t-160 139h-322v-278z" />
    <glyph glyph-name="uni044D" unicode="&#x44d;" horiz-adv-x="1206" 
d="M475 410v221h369q-26 91 -96.5 143.5t-165.5 52.5q-78 0 -141 -37t-101 -108h-277q33 125 113 212t183.5 127t224.5 40q156 0 280 -66.5t195 -191t71 -287.5q0 -244 -154 -393.5t-392 -149.5q-121 0 -224.5 40t-183.5 127t-113 212h277q38 -71 101 -108t141 -37
q96 0 167 54.5t97 148.5h-371z" />
    <glyph glyph-name="uni044E" unicode="&#x44e;" horiz-adv-x="1708" 
d="M1104 -27q-201 0 -342.5 118t-173.5 315h-185v-406h-268v1034h268v-385h189q38 189 177.5 300.5t334.5 111.5q230 0 378 -149.5t148 -395.5q0 -244 -148 -393.5t-378 -149.5zM1104 217q115 0 187.5 82t72.5 217q0 137 -72.5 219t-187.5 82q-114 0 -187 -82.5t-73 -218.5
q0 -135 73 -217t187 -82z" />
    <glyph glyph-name="uni044F" unicode="&#x44f;" horiz-adv-x="1228" 
d="M367 0h-289l213 387q-104 37 -160.5 115t-56.5 192q0 162 112.5 251t307.5 89h598v-1034h-267v354h-268zM494 573h331v242h-331q-74 0 -114 -32t-40 -89t40 -89t114 -32z" />
    <glyph glyph-name="uni0450" unicode="&#x450;" horiz-adv-x="1216" 
d="M610 1434l164 -267h-293l-164 267h293zM614 -27q-150 0 -272.5 66.5t-194 191.5t-71.5 285t72 285.5t194.5 192.5t271.5 67q150 0 269 -64.5t188.5 -187.5t69.5 -283l-4 -98h-789q19 -109 90.5 -173.5t175.5 -64.5q73 0 132.5 32t93.5 89h278q-54 -147 -186.5 -242.5
t-317.5 -95.5zM352 629h516q-23 97 -87.5 156t-166.5 59q-98 0 -168.5 -57.5t-93.5 -157.5z" />
    <glyph glyph-name="uni0451" unicode="&#x451;" horiz-adv-x="1216" 
d="M401 1171q-70 0 -112.5 38t-42.5 102t43 102.5t112 38.5q71 0 114.5 -38.5t43.5 -102.5t-43.5 -102t-114.5 -38zM827 1171q-71 0 -114 38t-43 102t43 102.5t114 38.5q70 0 113 -38.5t43 -102.5t-43 -102t-113 -38zM614 -27q-150 0 -272.5 66.5t-194 191.5t-71.5 285
t72 285.5t194.5 192.5t271.5 67q150 0 269 -64.5t188.5 -187.5t69.5 -283l-4 -98h-789q19 -109 90.5 -173.5t175.5 -64.5q73 0 132.5 32t93.5 89h278q-54 -147 -186.5 -242.5t-317.5 -95.5zM352 629h516q-23 97 -87.5 156t-166.5 59q-98 0 -168.5 -57.5t-93.5 -157.5z" />
    <glyph glyph-name="uni0452" unicode="&#x452;" horiz-adv-x="1275" 
d="M-20 1069v231h155v144h268v-144h271v-231h-271v-242h9q137 152 336 152q83 0 155 -27.5t127.5 -80.5t87 -137.5t31.5 -192.5v-637q0 -166 -73.5 -240t-239.5 -74h-185v250h146q47 0 66.5 19.5t19.5 66.5v570q0 52 -13.5 93.5t-35.5 68t-52 44t-60.5 24.5t-62.5 7
q-108 0 -182 -76t-74 -219v-438h-268v1069h-155z" />
    <glyph glyph-name="uni0453" unicode="&#x453;" horiz-adv-x="1021" 
d="M385 1165l164 267h293l-164 -267h-293zM135 0v1034h817v-250h-549v-784h-268z" />
    <glyph glyph-name="uni0454" unicode="&#x454;" horiz-adv-x="1206" 
d="M731 631v-221h-371q26 -94 97 -148.5t168 -54.5q78 0 140.5 37t100.5 108h277q-33 -125 -112.5 -212t-183 -127t-224.5 -40q-238 0 -392.5 149.5t-154.5 393.5q0 245 154.5 395t392.5 150q121 0 224.5 -40t183 -127t112.5 -212h-277q-38 71 -100.5 108t-140.5 37
q-95 0 -166 -52.5t-97 -143.5h369z" />
    <glyph glyph-name="uni0455" unicode="&#x455;" horiz-adv-x="1114" 
d="M578 -27q-103 0 -188.5 17t-160 55.5t-120.5 110t-54 172.5h275q10 -39 36 -67t62 -43t73 -21.5t77 -6.5q82 -2 139 24t57 85q0 36 -29.5 59.5t-78 33.5t-110.5 21t-127 19.5t-127 31t-110.5 54t-78 90t-29.5 137.5q0 74 28.5 131t73.5 91t107 56t121.5 30t124.5 8
q70 0 133.5 -9.5t125 -34t107.5 -61.5t77.5 -96.5t39.5 -134.5h-274q-16 66 -76 92.5t-135 26.5q-30 0 -58.5 -4t-59.5 -13.5t-50 -30.5t-19 -51q0 -29 23.5 -48.5t63.5 -30t92 -18t109.5 -16.5t115 -21t109.5 -36t92 -58t63.5 -89.5t23.5 -128.5q0 -326 -464 -326z" />
    <glyph glyph-name="uni0456" unicode="&#x456;" horiz-adv-x="600" 
d="M299 1171q-72 0 -118 38.5t-46 101.5q0 64 46 102.5t118 38.5t118 -38.5t46 -102.5q0 -63 -46 -101.5t-118 -38.5zM166 0v1034h268v-1034h-268z" />
    <glyph glyph-name="uni0457" unicode="&#x457;" horiz-adv-x="538" 
d="M57 1171q-70 0 -112.5 38t-42.5 102t43 102.5t112 38.5q71 0 114.5 -38.5t43.5 -102.5t-43.5 -102t-114.5 -38zM483 1171q-71 0 -114 38t-43 102t43 102.5t114 38.5q70 0 113 -38.5t43 -102.5t-43 -102t-113 -38zM135 0v1034h268v-1034h-268z" />
    <glyph glyph-name="uni0458" unicode="&#x458;" horiz-adv-x="569" 
d="M270 1171q-72 0 -118 38.5t-46 101.5q0 64 46 102.5t118 38.5t118 -38.5t46 -102.5q0 -63 -46 -101.5t-118 -38.5zM-94 -410v250h143q49 0 67.5 19t18.5 67v1108h268v-1130q0 -166 -73.5 -240t-239.5 -74h-184z" />
    <glyph glyph-name="uni0459" unicode="&#x459;" horiz-adv-x="1886" 
d="M51 -4v262h96q49 0 68.5 18t22.5 68l41 690h833v-334h326q180 0 283.5 -88t103.5 -262q0 -175 -103 -262.5t-284 -87.5h-592v791h-322l-28 -496q-9 -143 -89 -221t-223 -78h-133zM1112 211h293q158 0 158 139t-160 139h-291v-278z" />
    <glyph glyph-name="uni045A" unicode="&#x45a;" horiz-adv-x="1851" 
d="M811 459h-408v-459h-268v1034h268v-334h408v334h266v-334h324q181 0 285 -88.5t104 -261.5q0 -175 -103 -262.5t-284 -87.5h-592v459zM1077 489v-278h291q160 0 160 139t-160 139h-291z" />
    <glyph glyph-name="uni045B" unicode="&#x45b;" horiz-adv-x="1431" 
d="M291 0v1069h-156v231h156v144h268v-144h270v-231h-270v-242h8q137 152 336 152q83 0 155 -27.5t127.5 -80.5t87.5 -138t32 -192v-541h-267v496q0 52 -13.5 93.5t-35.5 68t-51.5 44t-60 24.5t-62.5 7q-108 0 -182 -76t-74 -219v-438h-268z" />
    <glyph glyph-name="uni045C" unicode="&#x45c;" horiz-adv-x="1222" 
d="M446 1167l164 267h293l-164 -267h-293zM135 0v1034h268v-383h134l323 383h322l-424 -502l440 -532h-330l-338 412h-127v-412h-268z" />
    <glyph glyph-name="uni045D" unicode="&#x45d;" horiz-adv-x="1259" 
d="M623 1434l163 -267h-292l-164 267h293zM1124 1034v-1034h-268v627h-8l-445 -627h-268v1034h268v-628h9l444 628h268z" />
    <glyph glyph-name="uni045E" unicode="&#x45e;" horiz-adv-x="1249" 
d="M637 1165q-150 0 -240 81t-94 233h193q4 -71 44.5 -105.5t96.5 -34.5t96.5 34.5t44.5 105.5h193q-4 -152 -94 -233t-240 -81zM172 -410v246h164q56 0 90.5 25.5t56.5 81.5l27 63l-463 1028h289l301 -682h10l275 682h282l-483 -1181q-41 -103 -87.5 -158.5t-116 -80
t-181.5 -24.5h-164z" />
    <glyph glyph-name="uni045F" unicode="&#x45f;" horiz-adv-x="1245" 
d="M487 -266v266h-352v1034h268v-790h439v790h266v-1034h-350v-266h-271z" />
    <glyph glyph-name="uni0490" unicode="&#x490;" horiz-adv-x="1384" 
d="M1022 1434v284h285v-551h-852v-1167h-285v1434h852z" />
    <glyph glyph-name="uni0491" unicode="&#x491;" horiz-adv-x="1021" 
d="M684 1034v256h268v-506h-549v-784h-268v1034h549z" />
    <glyph glyph-name="uni04C0" unicode="&#x4c0;" horiz-adv-x="622" 
d="M170 0v1434h285v-1434h-285z" />
    <glyph glyph-name="uni04C1" unicode="&#x4c1;" horiz-adv-x="2396" 
d="M1200 1565q-150 0 -240 80.5t-94 232.5h193q4 -71 44.5 -105t96.5 -34t96.5 34t44.5 105h193q-4 -152 -94 -232.5t-240 -80.5zM1057 0v608h-135l-519 -608h-356l631 737l-619 697h349l499 -566h150v566h282v-566h150l500 566h348l-619 -697l631 -737h-356l-518 608h-136
v-608h-282z" />
    <glyph glyph-name="uni04C2" unicode="&#x4c2;" horiz-adv-x="1816" 
d="M909 1165q-150 0 -240 81t-94 233h193q4 -71 44.5 -105.5t96.5 -34.5t97 34.5t45 105.5h192q-4 -152 -94 -233t-240 -81zM774 0v412h-82l-338 -412h-329l440 532l-424 502h321l326 -383h86v383h268v-383h88l324 383h322l-424 -502l440 -532h-330l-338 412h-82v-412h-268z
" />
    <glyph glyph-name="uni04CF" unicode="&#x4cf;" horiz-adv-x="538" 
d="M135 0v1034h268v-1034h-268z" />
    <glyph glyph-name="uni04D0" unicode="&#x4d0;" horiz-adv-x="1585" 
d="M795 1565q-150 0 -240 80.5t-94 232.5h192q4 -71 45 -105t97 -34t96.5 34t44.5 105h192q-4 -152 -93.5 -232.5t-239.5 -80.5zM1556 0h-303l-127 305h-665l-127 -305h-303l598 1434h329zM563 559h461l-227 541h-9z" />
    <glyph glyph-name="uni04D1" unicode="&#x4d1;" horiz-adv-x="1191" 
d="M590 1165q-150 0 -240 81t-94 233h193q4 -71 44.5 -105.5t96.5 -34.5t96.5 34.5t44.5 105.5h193q-4 -152 -94 -233t-240 -81zM403 -27q-46 0 -88 6.5t-88.5 25t-80.5 49t-56 83t-22 121.5q0 64 20.5 115t50 83.5t77.5 59.5t86.5 40.5t94.5 29.5l363 98v16q0 71 -50 107.5
t-122 36.5q-77 0 -134 -39.5t-67 -106.5h-274q18 181 147 272t328 91q65 0 122 -9.5t115.5 -35t100 -65.5t68 -107t26.5 -154v-395q0 -27 11.5 -38t39.5 -11h64v-246h-224q-109 0 -133 90l-10 35h-8q-135 -152 -357 -152zM473 182q124 0 205.5 71t81.5 193v31l-309 -84
q-60 -15 -88.5 -41.5t-28.5 -68.5q0 -101 139 -101z" />
    <glyph glyph-name="uni04D2" unicode="&#x4d2;" horiz-adv-x="1585" 
d="M580 1571q-70 0 -113 37.5t-43 101.5t43 102.5t113 38.5q71 0 114 -38.5t43 -102.5t-43 -101.5t-114 -37.5zM1006 1571q-71 0 -114.5 37.5t-43.5 101.5t43.5 102.5t114.5 38.5q69 0 112 -38.5t43 -102.5t-42.5 -101.5t-112.5 -37.5zM1556 0h-303l-127 305h-665l-127 -305
h-303l598 1434h329zM563 559h461l-227 541h-9z" />
    <glyph glyph-name="uni04D3" unicode="&#x4d3;" horiz-adv-x="1191" 
d="M377 1171q-70 0 -113 38t-43 102t43 102.5t113 38.5q71 0 114.5 -38.5t43.5 -102.5t-43.5 -102t-114.5 -38zM803 1171q-71 0 -114.5 38t-43.5 102t43.5 102.5t114.5 38.5q69 0 112 -38.5t43 -102.5t-42.5 -102t-112.5 -38zM403 -27q-46 0 -88 6.5t-88.5 25t-80.5 49
t-56 83t-22 121.5q0 64 20.5 115t50 83.5t77.5 59.5t86.5 40.5t94.5 29.5l363 98v16q0 71 -50 107.5t-122 36.5q-77 0 -134 -39.5t-67 -106.5h-274q18 181 147 272t328 91q65 0 122 -9.5t115.5 -35t100 -65.5t68 -107t26.5 -154v-395q0 -27 11.5 -38t39.5 -11h64v-246h-224
q-109 0 -133 90l-10 35h-8q-135 -152 -357 -152zM473 182q124 0 205.5 71t81.5 193v31l-309 -84q-60 -15 -88.5 -41.5t-28.5 -68.5q0 -101 139 -101z" />
    <glyph glyph-name="uni04D4" unicode="&#x4d4;" horiz-adv-x="2416" 
d="M27 0l1020 1434h1243v-256h-807v-316h717v-248h-717v-358h807v-256h-1090v309h-629l-221 -309h-323zM748 563h452v623h-8z" />
    <glyph glyph-name="uni04D5" unicode="&#x4d5;" horiz-adv-x="1898" 
d="M442 -27q-374 0 -374 285q0 64 20.5 115t50 83.5t77.5 59.5t86.5 40.5t94.5 29.5l363 98v16q0 71 -47.5 107.5t-120.5 36.5q-80 0 -137.5 -39.5t-67.5 -106.5h-274q18 181 148 272t331 91q234 0 342 -154h4q133 154 358 154q150 0 269 -64.5t188.5 -187.5t69.5 -283
l-4 -98h-791q20 -109 92 -173.5t176 -64.5q72 0 132 32t94 89h278q-54 -147 -186.5 -242.5t-317.5 -95.5q-257 0 -409 191h-8q-70 -88 -172 -139.5t-265 -51.5zM1034 629h514q-21 96 -86 155.5t-166 59.5q-98 0 -168.5 -57.5t-93.5 -157.5zM473 182q124 0 205.5 71t81.5 193
v31l-309 -84q-60 -15 -88.5 -41.5t-28.5 -68.5q0 -101 139 -101z" />
    <glyph glyph-name="uni04D6" unicode="&#x4d6;" horiz-adv-x="1468" 
d="M766 1565q-150 0 -240 80.5t-94 232.5h193q4 -71 44.5 -105t96.5 -34t96.5 34t44.5 105h193q-4 -152 -94 -232.5t-240 -80.5zM455 614v-358h886v-256h-1171v1434h1171v-256h-886v-316h796v-248h-796z" />
    <glyph glyph-name="uni04D7" unicode="&#x4d7;" horiz-adv-x="1216" 
d="M616 1165q-150 0 -239.5 81t-93.5 233h192q4 -71 44.5 -105.5t96.5 -34.5t97 34.5t45 105.5h192q-4 -152 -94 -233t-240 -81zM614 -27q-150 0 -272.5 66.5t-194 191.5t-71.5 285t72 285.5t194.5 192.5t271.5 67q150 0 269 -64.5t188.5 -187.5t69.5 -283l-4 -98h-789
q19 -109 90.5 -173.5t175.5 -64.5q73 0 132.5 32t93.5 89h278q-54 -147 -186.5 -242.5t-317.5 -95.5zM352 629h516q-23 97 -87.5 156t-166.5 59q-98 0 -168.5 -57.5t-93.5 -157.5z" />
    <glyph glyph-name="uni04DC" unicode="&#x4dc;" horiz-adv-x="2396" 
d="M985 1571q-70 0 -113 37.5t-43 101.5t43 102.5t113 38.5q71 0 114.5 -38.5t43.5 -102.5t-43.5 -101.5t-114.5 -37.5zM1411 1571q-71 0 -114.5 37.5t-43.5 101.5t43.5 102.5t114.5 38.5q70 0 113 -38.5t43 -102.5t-43 -101.5t-113 -37.5zM1057 0v608h-135l-519 -608h-356
l631 737l-619 697h349l499 -566h150v566h282v-566h150l500 566h348l-619 -697l631 -737h-356l-518 608h-136v-608h-282z" />
    <glyph glyph-name="uni04DD" unicode="&#x4dd;" horiz-adv-x="1816" 
d="M696 1171q-70 0 -112.5 38t-42.5 102t43 102.5t112 38.5q71 0 114.5 -38.5t43.5 -102.5t-43.5 -102t-114.5 -38zM1122 1171q-71 0 -114 38t-43 102t43 102.5t114 38.5q70 0 113 -38.5t43 -102.5t-43 -102t-113 -38zM774 0v412h-82l-338 -412h-329l440 532l-424 502h321
l326 -383h86v383h268v-383h88l324 383h322l-424 -502l440 -532h-330l-338 412h-82v-412h-268z" />
    <glyph glyph-name="uni04DE" unicode="&#x4de;" horiz-adv-x="1515" 
d="M551 1571q-70 0 -113 37.5t-43 101.5t43 102.5t113 38.5q71 0 114.5 -38.5t43.5 -102.5t-43.5 -101.5t-114.5 -37.5zM977 1571q-71 0 -114.5 37.5t-43.5 101.5t43.5 102.5t114.5 38.5q70 0 113 -38.5t43 -102.5t-43 -101.5t-113 -37.5zM780 -27q-320 0 -493.5 125
t-194.5 344h301q41 -213 387 -213q164 0 263.5 51t99.5 146q0 82 -77 132t-218 50h-252v248h231q129 0 200 41.5t71 124.5q0 65 -47 107t-119.5 58.5t-169.5 16.5q-166 0 -258.5 -55t-110.5 -158h-301q17 219 193.5 344t476.5 125q129 0 239 -24.5t195.5 -72t134.5 -125
t49 -177.5q0 -99 -47 -171t-141 -132v-8q107 -44 171 -136t64 -215q0 -199 -171 -312.5t-476 -113.5z" />
    <glyph glyph-name="uni04DF" unicode="&#x4df;" horiz-adv-x="1165" 
d="M369 1171q-70 0 -113 38t-43 102t43 102.5t113 38.5q71 0 114 -38.5t43 -102.5t-43 -102t-114 -38zM795 1171q-71 0 -114.5 38t-43.5 102t43.5 102.5t114.5 38.5q69 0 112 -38.5t43 -102.5t-42.5 -102t-112.5 -38zM594 -27q-246 0 -386 93t-145 258h277q11 -61 75 -94
t179 -33q105 0 171 31.5t66 86.5q0 54 -67 84.5t-174 30.5h-148v205h144q96 0 150.5 26.5t54.5 75.5t-54 75t-151 26q-62 0 -111 -11.5t-86.5 -41.5t-48.5 -76h-277q11 119 86 200t186 116.5t251 35.5q132 0 236 -30.5t170.5 -100t66.5 -168.5q0 -77 -41.5 -128.5
t-122.5 -86.5v-8q89 -27 140.5 -89.5t51.5 -156.5q0 -151 -132 -235.5t-361 -84.5z" />
    <glyph glyph-name="uni04E2" unicode="&#x4e2;" horiz-adv-x="1662" 
d="M477 1606v188h697v-188h-697zM1493 1434v-1434h-285v1053l-692 -1053h-346v1434h285v-1053l692 1053h346z" />
    <glyph glyph-name="uni04E3" unicode="&#x4e3;" horiz-adv-x="1259" 
d="M279 1206v189h696v-189h-696zM1124 1034v-1034h-268v627h-8l-445 -627h-268v1034h268v-628h9l444 628h268z" />
    <glyph glyph-name="uni04E4" unicode="&#x4e4;" horiz-adv-x="1662" 
d="M612 1571q-70 0 -112.5 37.5t-42.5 101.5t43 102.5t112 38.5q71 0 114.5 -38.5t43.5 -102.5t-43.5 -101.5t-114.5 -37.5zM1038 1571q-71 0 -114 37.5t-43 101.5t43 102.5t114 38.5q70 0 113 -38.5t43 -102.5t-43 -101.5t-113 -37.5zM1493 1434v-1434h-285v1053
l-692 -1053h-346v1434h285v-1053l692 1053h346z" />
    <glyph glyph-name="uni04E5" unicode="&#x4e5;" horiz-adv-x="1259" 
d="M414 1171q-70 0 -113 38t-43 102t43 102.5t113 38.5q71 0 114 -38.5t43 -102.5t-43 -102t-114 -38zM840 1171q-71 0 -114.5 38t-43.5 102t43.5 102.5t114.5 38.5q69 0 112 -38.5t43 -102.5t-42.5 -102t-112.5 -38zM1124 1034v-1034h-268v627h-8l-445 -627h-268v1034h268
v-628h9l444 628h268z" />
    <glyph glyph-name="uni04E6" unicode="&#x4e6;" horiz-adv-x="1701" 
d="M639 1571q-70 0 -113 37.5t-43 101.5t43 102.5t113 38.5q71 0 114.5 -38.5t43.5 -102.5t-43.5 -101.5t-114.5 -37.5zM1065 1571q-71 0 -114.5 37.5t-43.5 101.5t43.5 102.5t114.5 38.5q70 0 113 -38.5t43 -102.5t-43 -101.5t-113 -37.5zM852 -27q-157 0 -293.5 54
t-235.5 150t-155.5 236t-56.5 304q0 219 97 389t265.5 262t378.5 92t378.5 -92t265.5 -262t97 -389q0 -164 -56.5 -304t-155.5 -236t-235.5 -150t-293.5 -54zM852 233q199 0 328 134t129 350t-129 349.5t-328 133.5q-200 0 -329.5 -133.5t-129.5 -349.5t129.5 -350
t329.5 -134z" />
    <glyph glyph-name="uni04E7" unicode="&#x4e7;" horiz-adv-x="1247" 
d="M410 1171q-70 0 -113 38t-43 102t43 102.5t113 38.5q71 0 114 -38.5t43 -102.5t-43 -102t-114 -38zM836 1171q-71 0 -114.5 38t-43.5 102t43.5 102.5t114.5 38.5q69 0 112 -38.5t43 -102.5t-42.5 -102t-112.5 -38zM623 -27q-238 0 -392.5 149.5t-154.5 393.5
q0 245 154.5 395t392.5 150q157 0 281 -66.5t195.5 -191t71.5 -287.5q0 -244 -154.5 -393.5t-393.5 -149.5zM623 217q122 0 201 81.5t79 217.5q0 137 -79 219t-201 82q-121 0 -200 -82t-79 -219q0 -135 79 -217t200 -82z" />
    <glyph glyph-name="uni04EC" unicode="&#x4ec;" horiz-adv-x="1632" 
d="M569 1571q-70 0 -112.5 37.5t-42.5 101.5t43 102.5t112 38.5q71 0 114.5 -38.5t43.5 -102.5t-43.5 -101.5t-114.5 -37.5zM995 1571q-71 0 -114 37.5t-43 101.5t43 102.5t114 38.5q70 0 113 -38.5t43 -102.5t-43 -101.5t-113 -37.5zM782 -27q-257 0 -438.5 137.5
t-251.5 376.5h301q56 -120 160 -187t242 -67q168 0 285.5 100.5t146.5 268.5h-621v260h613q-35 155 -149.5 246.5t-274.5 91.5q-138 0 -242 -67t-160 -187h-301q70 239 251.5 376.5t438.5 137.5q210 0 378.5 -92t266 -262t97.5 -389t-97.5 -389.5t-266 -262.5t-378.5 -92z
" />
    <glyph glyph-name="uni04ED" unicode="&#x4ed;" horiz-adv-x="1206" 
d="M371 1171q-70 0 -113 38t-43 102t43 102.5t113 38.5q71 0 114 -38.5t43 -102.5t-43 -102t-114 -38zM797 1171q-71 0 -114.5 38t-43.5 102t43.5 102.5t114.5 38.5q69 0 112 -38.5t43 -102.5t-42.5 -102t-112.5 -38zM475 410v221h369q-26 91 -96.5 143.5t-165.5 52.5
q-78 0 -141 -37t-101 -108h-277q33 125 113 212t183.5 127t224.5 40q156 0 280 -66.5t195 -191t71 -287.5q0 -244 -154 -393.5t-392 -149.5q-121 0 -224.5 40t-183.5 127t-113 212h277q38 -71 101 -108t141 -37q96 0 167 54.5t97 148.5h-371z" />
    <glyph glyph-name="uni04EE" unicode="&#x4ee;" horiz-adv-x="1482" 
d="M410 1606v188h696v-188h-696zM319 0v266h222q32 0 49.5 13.5t30.5 42.5l16 34l-596 1078h315l416 -766h10l357 766h303l-557 -1176q-32 -67 -54.5 -105t-51.5 -72t-64 -49t-82 -23.5t-115 -8.5h-199z" />
    <glyph glyph-name="uni04EF" unicode="&#x4ef;" horiz-adv-x="1249" 
d="M287 1206v189h696v-189h-696zM172 -410v246h164q56 0 90.5 25.5t56.5 81.5l27 63l-463 1028h289l301 -682h10l275 682h282l-483 -1181q-41 -103 -87.5 -158.5t-116 -80t-181.5 -24.5h-164z" />
    <glyph glyph-name="uni04F0" unicode="&#x4f0;" horiz-adv-x="1482" 
d="M545 1571q-70 0 -113 37.5t-43 101.5t43 102.5t113 38.5q71 0 114 -38.5t43 -102.5t-43 -101.5t-114 -37.5zM971 1571q-71 0 -114.5 37.5t-43.5 101.5t43.5 102.5t114.5 38.5q69 0 112 -38.5t43 -102.5t-42.5 -101.5t-112.5 -37.5zM319 0v266h222q32 0 49.5 13.5
t30.5 42.5l16 34l-596 1078h315l416 -766h10l357 766h303l-557 -1176q-32 -67 -54.5 -105t-51.5 -72t-64 -49t-82 -23.5t-115 -8.5h-199z" />
    <glyph glyph-name="uni04F1" unicode="&#x4f1;" horiz-adv-x="1249" 
d="M422 1171q-70 0 -113 38t-43 102t43 102.5t113 38.5q71 0 114.5 -38.5t43.5 -102.5t-43.5 -102t-114.5 -38zM848 1171q-71 0 -114.5 38t-43.5 102t43.5 102.5t114.5 38.5q70 0 113 -38.5t43 -102.5t-43 -102t-113 -38zM172 -410v246h164q56 0 90.5 25.5t56.5 81.5l27 63
l-463 1028h289l301 -682h10l275 682h282l-483 -1181q-41 -103 -87.5 -158.5t-116 -80t-181.5 -24.5h-164z" />
    <glyph glyph-name="uni04F2" unicode="&#x4f2;" horiz-adv-x="1482" 
d="M801 1567l164 266h268l-164 -266h-268zM403 1567l164 266h267l-164 -266h-267zM319 0v266h222q32 0 49.5 13.5t30.5 42.5l16 34l-596 1078h315l416 -766h10l357 766h303l-557 -1176q-32 -67 -54.5 -105t-51.5 -72t-64 -49t-82 -23.5t-115 -8.5h-199z" />
    <glyph glyph-name="uni04F3" unicode="&#x4f3;" horiz-adv-x="1249" 
d="M678 1167l164 267h268l-164 -267h-268zM281 1167l163 267h267l-164 -267h-266zM172 -410v246h164q56 0 90.5 25.5t56.5 81.5l27 63l-463 1028h289l301 -682h10l275 682h282l-483 -1181q-41 -103 -87.5 -158.5t-116 -80t-181.5 -24.5h-164z" />
    <glyph glyph-name="uni04F4" unicode="&#x4f4;" horiz-adv-x="1515" 
d="M508 1571q-70 0 -113 37.5t-43 101.5t43 102.5t113 38.5q71 0 114.5 -38.5t43.5 -102.5t-43.5 -101.5t-114.5 -37.5zM934 1571q-71 0 -114.5 37.5t-43.5 101.5t43.5 102.5t114.5 38.5q70 0 113 -38.5t43 -102.5t-43 -101.5t-113 -37.5zM1346 1434v-1434h-285v547
q-165 -33 -328 -33q-148 0 -261 32t-197.5 100.5t-128.5 183t-44 272.5v332h285v-332q0 -95 26.5 -160.5t78.5 -101.5t119 -51t159 -15q113 0 291 29v631h285z" />
    <glyph glyph-name="uni04F5" unicode="&#x4f5;" horiz-adv-x="1193" 
d="M354 1171q-70 0 -112.5 38t-42.5 102t43 102.5t112 38.5q71 0 114.5 -38.5t43.5 -102.5t-43.5 -102t-114.5 -38zM780 1171q-71 0 -114 38t-43 102t43 102.5t114 38.5q70 0 113 -38.5t43 -102.5t-43 -102t-113 -38zM1059 1034v-1034h-268v344q-119 -25 -246 -25
q-229 0 -344 105t-115 338v272h266v-272q0 -113 55.5 -157t180.5 -44q90 0 203 25v448h268z" />
    <glyph glyph-name="uni04F8" unicode="&#x4f8;" horiz-adv-x="2052" 
d="M813 1571q-70 0 -113 37.5t-43 101.5t43 102.5t113 38.5q71 0 114.5 -38.5t43.5 -102.5t-43.5 -101.5t-114.5 -37.5zM1239 1571q-71 0 -114.5 37.5t-43.5 101.5t43.5 102.5t114.5 38.5q70 0 113 -38.5t43 -102.5t-43 -101.5t-113 -37.5zM1884 1434v-1434h-285v1434h285z
M848 0h-678v1434h285v-457h393q254 0 402.5 -137t148.5 -353q0 -214 -148.5 -350.5t-402.5 -136.5zM455 729v-481h391q117 0 192.5 65t75.5 174t-76 175.5t-192 66.5h-391z" />
    <glyph glyph-name="uni04F9" unicode="&#x4f9;" horiz-adv-x="1650" 
d="M612 1171q-70 0 -112.5 38t-42.5 102t43 102.5t112 38.5q71 0 114.5 -38.5t43.5 -102.5t-43.5 -102t-114.5 -38zM1038 1171q-71 0 -114 38t-43 102t43 102.5t114 38.5q70 0 113 -38.5t43 -102.5t-43 -102t-113 -38zM1516 1034v-1034h-267v1034h267zM719 0h-584v1034h268
v-334h314q181 0 285 -88.5t104 -261.5q0 -175 -103 -262.5t-284 -87.5zM403 489v-278h281q160 0 160 139t-160 139h-281z" />
    <glyph glyph-name="uni1EBC" unicode="&#x1ebc;" horiz-adv-x="1468" 
d="M623 1847q46 0 86 -15.5t63.5 -34.5t53 -34.5t57.5 -15.5q31 0 48 18t21 60h189q-9 -139 -70.5 -206t-161.5 -67q-46 0 -86 16t-63.5 34.5t-53 34.5t-57.5 16q-31 0 -48 -18t-21 -60h-189q9 139 70.5 205.5t161.5 66.5zM455 614v-358h886v-256h-1171v1434h1171v-256h-886
v-316h796v-248h-796z" />
    <glyph glyph-name="uni1EBD" unicode="&#x1ebd;" horiz-adv-x="1216" 
d="M471 1448q46 0 86 -15.5t63.5 -34.5t53 -34.5t57.5 -15.5q32 0 49 17.5t21 59.5h188q-9 -139 -70 -205.5t-161 -66.5q-46 0 -86 15.5t-63 34.5t-53 34.5t-58 15.5q-32 0 -49 -17.5t-21 -59.5h-188q9 139 70 205.5t161 66.5zM614 -27q-150 0 -272.5 66.5t-194 191.5
t-71.5 285t72 285.5t194.5 192.5t271.5 67q150 0 269 -64.5t188.5 -187.5t69.5 -283l-4 -98h-789q19 -109 90.5 -173.5t175.5 -64.5q73 0 132.5 32t93.5 89h278q-54 -147 -186.5 -242.5t-317.5 -95.5zM352 629h516q-23 97 -87.5 156t-166.5 59q-98 0 -168.5 -57.5
t-93.5 -157.5z" />
    <glyph glyph-name="uni2010" unicode="&#x2010;" horiz-adv-x="946" 
d="M115 451v249h716v-249h-716z" />
    <glyph glyph-name="uni2011" unicode="&#x2011;" horiz-adv-x="946" 
d="M115 451v249h716v-249h-716z" />
    <glyph glyph-name="figuredash" unicode="&#x2012;" horiz-adv-x="1355" 
d="M115 604v268h1126v-268h-1126z" />
    <glyph glyph-name="endash" unicode="&#x2013;" horiz-adv-x="1355" 
d="M115 451v249h1126v-249h-1126z" />
    <glyph glyph-name="emdash" unicode="&#x2014;" horiz-adv-x="1765" 
d="M115 451v249h1536v-249h-1536z" />
    <glyph glyph-name="uni2015" unicode="&#x2015;" horiz-adv-x="1867" 
d="M115 451v249h1638v-249h-1638z" />
    <glyph glyph-name="quoteleft" unicode="&#x2018;" horiz-adv-x="520" 
d="M375 1452l-76 -231q61 -11 96 -53t35 -107q0 -76 -46 -120t-124 -44q-80 0 -125 47t-45 137q0 56 29 152l71 219h185z" />
    <glyph glyph-name="quoteright" unicode="&#x2019;" horiz-adv-x="520" 
d="M145 897l76 231q-61 11 -96 53t-35 107q0 76 46 120t124 44q80 0 125 -47t45 -137q0 -56 -29 -152l-71 -219h-185z" />
    <glyph glyph-name="quotesinglbase" unicode="&#x201a;" horiz-adv-x="520" 
d="M145 -248l76 232q-61 11 -96 52.5t-35 106.5q0 76 46 120t124 44q80 0 125 -47t45 -137q0 -56 -29 -152l-71 -219h-185z" />
    <glyph glyph-name="quotedblleft" unicode="&#x201c;" horiz-adv-x="933" 
d="M375 1452l-76 -231q61 -11 96 -53t35 -107q0 -76 -46 -120t-124 -44q-80 0 -125 47t-45 137q0 56 29 152l71 219h185zM788 1452l-75 -231q61 -11 96 -53t35 -107q0 -76 -46 -120t-124 -44q-80 0 -125 47t-45 137q0 60 28 152l72 219h184z" />
    <glyph glyph-name="quotedblright" unicode="&#x201d;" horiz-adv-x="933" 
d="M559 897l76 231q-61 11 -96 53t-35 107q0 76 46 120t124 44q80 0 125 -47t45 -137q0 -56 -29 -152l-72 -219h-184zM145 897l76 231q-61 11 -96 53t-35 107q0 76 46 120t124 44q80 0 125 -47t45 -137q0 -56 -29 -152l-71 -219h-185z" />
    <glyph glyph-name="quotedblbase" unicode="&#x201e;" horiz-adv-x="933" 
d="M559 -248l76 232q-61 11 -96 52.5t-35 106.5q0 76 46 120t124 44q80 0 125 -47t45 -137q0 -56 -29 -152l-72 -219h-184zM145 -248l76 232q-61 11 -96 52.5t-35 106.5q0 76 46 120t124 44q80 0 125 -47t45 -137q0 -56 -29 -152l-71 -219h-185z" />
    <glyph glyph-name="dagger" unicode="&#x2020;" horiz-adv-x="1071" 
d="M49 829v261h344v344h285v-344h344v-261h-344v-829h-285v829h-344z" />
    <glyph glyph-name="daggerdbl" unicode="&#x2021;" horiz-adv-x="1112" 
d="M70 860v262h344v312h284v-312h344v-262h-344v-287h344v-262h-344v-311h-284v311h-344v262h344v287h-344z" />
    <glyph glyph-name="bullet" unicode="&#x2022;" horiz-adv-x="694" 
d="M348 352q-122 0 -196 70.5t-74 191.5t74 192t196 71q121 0 194.5 -71t73.5 -192t-73.5 -191.5t-194.5 -70.5z" />
    <glyph glyph-name="ellipsis" unicode="&#x2026;" horiz-adv-x="1558" 
d="M260 -18q-77 0 -123.5 43.5t-46.5 117.5q0 76 46.5 120t123.5 44q76 0 123 -44t47 -120q0 -74 -47 -117.5t-123 -43.5zM780 -18q-77 0 -123.5 43.5t-46.5 117.5q0 76 46.5 120t123.5 44q76 0 123 -44t47 -120q0 -74 -47 -117.5t-123 -43.5zM1298 -18q-77 0 -123.5 43.5
t-46.5 117.5q0 76 46.5 120t123.5 44q76 0 123 -44t47 -120q0 -74 -47 -117.5t-123 -43.5z" />
    <glyph glyph-name="perthousand" unicode="&#x2030;" horiz-adv-x="3067" 
d="M469 551q-177 0 -288 122t-111 331q0 208 111 330t288 122q178 0 289.5 -121.5t111.5 -330.5t-111.5 -331t-289.5 -122zM545 0l821 1434h217l-821 -1434h-217zM469 758q87 0 135.5 65t48.5 181t-48 180.5t-136 64.5q-87 0 -134.5 -64.5t-47.5 -180.5t47.5 -181t134.5 -65
zM1659 -23q-177 0 -288 122t-111 331t111 331t288 122q178 0 289.5 -122t111.5 -331t-111.5 -331t-289.5 -122zM2599 -23q-177 0 -288 122t-111 331t111 331t288 122q178 0 289.5 -122t111.5 -331t-111.5 -331t-289.5 -122zM1659 184q87 0 135.5 65t48.5 181t-48.5 181
t-135.5 65t-134.5 -65t-47.5 -181t47.5 -181t134.5 -65zM2599 184q87 0 135.5 65t48.5 181t-48.5 181t-135.5 65t-134.5 -65t-47.5 -181t47.5 -181t134.5 -65z" />
    <glyph glyph-name="guilsinglleft" unicode="&#x2039;" horiz-adv-x="671" 
d="M311 160l-282 372l282 373h303l-282 -373l282 -372h-303z" />
    <glyph glyph-name="guilsinglright" unicode="&#x203a;" horiz-adv-x="671" 
d="M643 532l-283 -372h-303l283 372l-283 373h303z" />
    <glyph glyph-name="fraction" unicode="&#x2044;" horiz-adv-x="251" 
d="M-393 0l821 1434h217l-821 -1434h-217z" />
    <glyph glyph-name="uni2070" unicode="&#x2070;" horiz-adv-x="937" 
d="M469 715q-177 0 -288 121.5t-111 330.5t111 331t288 122q178 0 289.5 -122t111.5 -331t-111.5 -330.5t-289.5 -121.5zM469 922q88 0 136 64.5t48 180.5t-48.5 181t-135.5 65t-134.5 -65t-47.5 -181t47.5 -180.5t134.5 -64.5z" />
    <glyph glyph-name="uni2074" unicode="&#x2074;" horiz-adv-x="860" 
d="M487 737v172h-434v140l353 548h299v-501h94v-187h-94v-172h-218zM293 1096h194v288h-8l-186 -280v-8z" />
    <glyph glyph-name="uni2075" unicode="&#x2075;" horiz-adv-x="858" 
d="M434 715q-146 0 -240.5 70.5t-111.5 187.5h215q10 -34 47.5 -53t89.5 -19q67 0 105.5 32t38.5 85q0 54 -38.5 86.5t-105.5 32.5q-83 0 -129 -54h-215l53 514h592v-188h-401l-15 -137h9q68 35 155 35q129 0 220.5 -78t91.5 -211q0 -138 -100.5 -220.5t-260.5 -82.5z" />
    <glyph glyph-name="uni2076" unicode="&#x2076;" horiz-adv-x="872" 
d="M451 715q-84 0 -151 26t-109.5 68.5t-70 102t-39 122.5t-11.5 133q0 69 11 131.5t39 122.5t69.5 103t107.5 69.5t149 26.5q142 0 229.5 -69.5t110.5 -186.5h-217q-25 70 -120 70q-158 0 -166 -222h10q74 84 203 84q138 0 227.5 -81t89.5 -207q0 -133 -101 -213t-261 -80z
M451 901q70 0 107.5 27.5t37.5 79.5t-37.5 79t-107.5 27q-68 0 -106 -27t-38 -79t38 -79.5t106 -27.5z" />
    <glyph glyph-name="uni2077" unicode="&#x2077;" horiz-adv-x="741" 
d="M139 737l301 652v8h-399v200h659v-143l-327 -717h-234z" />
    <glyph glyph-name="uni2078" unicode="&#x2078;" horiz-adv-x="886" 
d="M442 715q-106 0 -190.5 26t-139.5 87t-55 149q0 155 168 211v8q-137 53 -137 184q0 115 102.5 177.5t251.5 62.5q151 0 254 -62.5t103 -177.5q0 -130 -140 -184v-8q168 -55 168 -211q0 -130 -109.5 -196t-275.5 -66zM584 1358q0 43 -39.5 65.5t-102.5 22.5
q-61 0 -100 -22.5t-39 -65.5q0 -42 39.5 -65t99.5 -23q62 0 102 23t40 65zM610 993q0 107 -168 107t-168 -107q0 -104 168 -104t168 104z" />
    <glyph glyph-name="uni2079" unicode="&#x2079;" horiz-adv-x="872" 
d="M422 1620q84 0 151 -26t109.5 -69t70 -102.5t39 -122.5t11.5 -133q0 -69 -11.5 -131.5t-39 -122t-69.5 -102.5t-108 -69.5t-149 -26.5q-142 0 -229.5 69.5t-110.5 186.5h217q25 -70 121 -70q158 0 166 221h-10q-74 -84 -203 -84q-138 0 -228 81.5t-90 207.5
q0 133 101.5 213t261.5 80zM422 1434q-70 0 -108 -27.5t-38 -79.5t38 -79t108 -27q68 0 105.5 27t37.5 79t-37.5 79.5t-105.5 27.5z" />
    <glyph glyph-name="uni2080" unicode="&#x2080;" horiz-adv-x="937" 
d="M469 -186q-177 0 -288 122t-111 330q0 209 111 331t288 122q178 0 289.5 -122t111.5 -331t-111.5 -330.5t-289.5 -121.5zM469 20q87 0 135.5 65t48.5 181t-48.5 181t-135.5 65t-134.5 -65t-47.5 -181t47.5 -181t134.5 -65z" />
    <glyph glyph-name="uni2081" unicode="&#x2081;" horiz-adv-x="636" 
d="M289 -164v598l-180 -90l-82 186l331 166h148v-860h-217z" />
    <glyph glyph-name="uni2082" unicode="&#x2082;" horiz-adv-x="798" 
d="M53 -164v164l389 330q70 58 70 116q0 41 -30 59.5t-76 18.5q-116 0 -134 -100h-219q8 86 42 146.5t86.5 91.5t106.5 44t118 13q153 0 238 -66t85 -190q0 -79 -36 -136.5t-103 -115.5l-195 -166v-8h334v-201h-676z" />
    <glyph glyph-name="uni2083" unicode="&#x2083;" horiz-adv-x="823" 
d="M418 -186q-73 0 -135.5 15t-114.5 45.5t-83.5 83.5t-35.5 124h217q7 -40 50 -61t102 -21q55 0 95 21t40 67q0 43 -36.5 67.5t-110.5 24.5h-105v187h102q64 0 96.5 23t32.5 61q0 43 -35 62t-87 19q-54 0 -92 -20t-44 -61h-217q5 74 35.5 128t81 83.5t108.5 43t128 13.5
q152 0 246 -61t94 -179q0 -130 -123 -186v-8q139 -61 139 -217q0 -125 -98.5 -189.5t-249.5 -64.5z" />
    <glyph glyph-name="uni2084" unicode="&#x2084;" horiz-adv-x="860" 
d="M487 -164v172h-434v139l353 549h299v-501h94v-187h-94v-172h-218zM293 195h194v288h-8l-186 -280v-8z" />
    <glyph glyph-name="uni2085" unicode="&#x2085;" horiz-adv-x="858" 
d="M434 -186q-146 0 -240.5 70.5t-111.5 187.5h215q10 -34 47.5 -53t89.5 -19q67 0 105.5 32t38.5 85q0 54 -38.5 86.5t-105.5 32.5q-83 0 -129 -54h-215l53 514h592v-188h-401l-15 -137h9q68 35 155 35q129 0 220.5 -78t91.5 -211q0 -138 -100.5 -220.5t-260.5 -82.5z" />
    <glyph glyph-name="uni2086" unicode="&#x2086;" horiz-adv-x="872" 
d="M451 -186q-84 0 -151 26t-109.5 68.5t-70 102t-39 122.5t-11.5 133q0 69 11 131.5t39 122.5t69.5 103t107.5 69.5t149 26.5q142 0 229.5 -69.5t110.5 -186.5h-217q-25 69 -120 69q-158 0 -166 -221h10q74 84 203 84q138 0 227.5 -81.5t89.5 -207.5q0 -133 -101 -212.5
t-261 -79.5zM451 0q70 0 107.5 27t37.5 79t-37.5 79.5t-107.5 27.5q-68 0 -106 -27.5t-38 -79.5t38 -79t106 -27z" />
    <glyph glyph-name="uni2087" unicode="&#x2087;" horiz-adv-x="741" 
d="M139 -164l301 651v9h-399v200h659v-143l-327 -717h-234z" />
    <glyph glyph-name="uni2088" unicode="&#x2088;" horiz-adv-x="886" 
d="M442 -186q-106 0 -190.5 26t-139.5 87t-55 149q0 155 168 211v8q-137 53 -137 184q0 115 102.5 177.5t251.5 62.5q151 0 254 -62.5t103 -177.5q0 -130 -140 -184v-8q168 -55 168 -211q0 -130 -109.5 -196t-275.5 -66zM584 457q0 43 -39.5 65.5t-102.5 22.5
q-61 0 -100 -22.5t-39 -65.5q0 -42 39.5 -65t99.5 -23q62 0 102 23t40 65zM610 92q0 107 -168 107t-168 -107q0 -104 168 -104t168 104z" />
    <glyph glyph-name="uni2089" unicode="&#x2089;" horiz-adv-x="872" 
d="M422 719q84 0 151 -26t109.5 -69t70 -102.5t39 -122.5t11.5 -133q0 -69 -11.5 -131.5t-39 -122t-69.5 -102.5t-108 -69.5t-149 -26.5q-142 0 -229.5 69.5t-110.5 186.5h217q25 -70 121 -70q158 0 166 221h-10q-74 -84 -203 -84q-138 0 -228 81.5t-90 207.5
q0 133 101.5 213t261.5 80zM422 532q-70 0 -108 -27t-38 -79t38 -79.5t108 -27.5q68 0 105.5 27.5t37.5 79.5t-37.5 79t-105.5 27z" />
    <glyph glyph-name="lira" unicode="&#x20a4;" horiz-adv-x="1384" 
d="M127 874h143q-20 82 -20 150q0 196 128.5 316t360.5 120q241 0 380.5 -125.5t158.5 -335.5h-291q-43 201 -248 201q-204 0 -204 -176q0 -71 26 -150h463v-174h-897v174zM127 416v174h897v-174h-457q-29 -70 -92 -146v-8h803v-262h-1151v199q102 111 149 217h-149z" />
    <glyph glyph-name="Euro" unicode="&#x20ac;" horiz-adv-x="1486" 
d="M799 1460q234 0 388 -140t187 -394h-299q-27 139 -92.5 206.5t-183.5 67.5q-208 0 -271 -225h338v-209h-784v209h158q51 231 193 358t366 127zM799 -27q-224 0 -366 127.5t-193 358.5h-158v209h784v-209h-338q63 -226 271 -226q118 0 183.5 68t92.5 207h299
q-33 -254 -187 -394.5t-388 -140.5z" />
    <glyph glyph-name="uni20B4" unicode="&#x20b4;" horiz-adv-x="1519" 
d="M106 944h834q59 55 59 125q0 71 -57.5 107t-163.5 36q-114 0 -171 -40t-77 -117h-290q17 198 165 301.5t373 103.5q75 0 145.5 -11t136.5 -37t114.5 -63.5t78 -94t29.5 -126.5q0 -106 -63 -176v-8h194v-174h-1307v174zM766 -27q-115 0 -216 21.5t-181.5 63t-127 111
t-46.5 157.5q0 96 57 166v8h-146v172h1307v-172h-889q-45 -49 -45 -107q0 -46 23.5 -80t65 -53.5t91 -29t107.5 -9.5q257 0 291 168h291q-13 -109 -62.5 -190.5t-128 -130t-176 -72t-215.5 -23.5z" />
    <glyph glyph-name="uni20B8" unicode="&#x20b8;" horiz-adv-x="1476" 
d="M127 1434h1223v-224h-1223v224zM596 0v877h-469v223h1223v-223h-469v-877h-285z" />
    <glyph glyph-name="uni20B9" unicode="&#x20b9;" horiz-adv-x="1380" 
d="M139 1434h1114v-199h-1114v199zM733 0l-297 508h-297v250h422q93 0 150.5 48t66.5 132h-639v199h1114v-199h-188q-9 -156 -96.5 -260t-231.5 -143l314 -535h-318z" />
    <glyph glyph-name="uni20BD" unicode="&#x20bd;" horiz-adv-x="1458" 
d="M848 592h-746v223h177v619h569q235 0 373.5 -111t138.5 -311q0 -198 -138.5 -309t-373.5 -111zM561 1210v-395h287q110 0 169.5 55t59.5 142q0 88 -59.5 143t-169.5 55h-287zM102 270v224h920v-224h-461v-270h-282v270h-177z" />
    <glyph glyph-name="uni20BF" unicode="&#x20bf;" horiz-adv-x="1441" 
d="M190 0v1434h205v204h217v-204h152v204h217v-219q144 -31 224.5 -122t80.5 -228q0 -211 -186 -324v-8q106 -45 169.5 -139.5t63.5 -212.5q0 -144 -94 -247.5t-258 -129.5v-213h-217v205h-152v-205h-217v205h-205zM475 844h305q108 0 167 43.5t59 128.5t-59 127.5
t-167 42.5h-305v-342zM475 248h344q114 0 172 47t58 127q0 81 -60 127.5t-176 46.5h-338v-348z" />
    <glyph glyph-name="uni2103" unicode="&#x2103;" horiz-adv-x="2482" 
d="M1679 -27q-157 0 -292 54t-231 150.5t-150 235.5t-54 304q0 220 93 389.5t258.5 261.5t375.5 92q274 0 463.5 -150.5t245.5 -408.5h-299q-48 141 -153 220t-257 79q-200 0 -322 -132.5t-122 -350.5t122 -351t322 -133q152 0 257 79t153 220h299q-56 -258 -245.5 -408.5
t-463.5 -150.5zM422 725q-167 0 -273 101.5t-106 263.5t106.5 264t272.5 102q165 0 271 -102t106 -264t-106 -263.5t-271 -101.5zM584 1090q0 72 -44.5 115.5t-117.5 43.5q-74 0 -119 -43.5t-45 -115.5q0 -71 45.5 -114.5t118.5 -43.5t117.5 43.5t44.5 114.5z" />
    <glyph glyph-name="uni2109" unicode="&#x2109;" horiz-adv-x="2281" 
d="M422 725q-167 0 -273 101.5t-106 263.5t106.5 264t272.5 102q165 0 271 -102t106 -264t-106 -263.5t-271 -101.5zM1296 573v-573h-284v1434h1171v-256h-887v-357h797v-248h-797zM584 1090q0 72 -44.5 115.5t-117.5 43.5q-74 0 -119 -43.5t-45 -115.5q0 -71 45.5 -114.5
t118.5 -43.5t117.5 43.5t44.5 114.5z" />
    <glyph glyph-name="uni2116" unicode="&#x2116;" horiz-adv-x="2555" 
d="M2081 725q-167 0 -273 101.5t-106 263.5t106.5 264t272.5 102q165 0 271 -102t106 -264t-106 -263.5t-271 -101.5zM1493 1434v-1434h-354l-676 1014h-8v-1014h-285v1434h352l678 -1014h8v1014h285zM2243 1090q0 72 -44.5 115.5t-117.5 43.5q-74 0 -119 -43.5t-45 -115.5
q0 -71 45.5 -114.5t118.5 -43.5t117.5 43.5t44.5 114.5zM1712 403v207h735v-207h-735z" />
    <glyph glyph-name="trademark" unicode="&#x2122;" horiz-adv-x="1730" 
d="M-25 1282v152h670v-152h-248v-516h-172v516h-250zM1114 766l-186 444h-8v-444h-172v668h245l189 -451h8l188 451h246v-668h-172v444h-8l-187 -444h-143z" />
    <glyph glyph-name="uni2150" unicode="&#x2150;" horiz-adv-x="1781" 
d="M289 573v598l-180 -90l-82 187l331 166h148v-861h-217zM297 0l821 1434h217l-821 -1434h-217zM1180 0l301 651v8h-400v201h660v-143l-328 -717h-233z" />
    <glyph glyph-name="uni2151" unicode="&#x2151;" horiz-adv-x="1845" 
d="M289 573v598l-180 -90l-82 187l331 166h148v-861h-217zM297 0l821 1434h217l-821 -1434h-217zM1395 883q84 0 151 -26t109.5 -69t70 -102.5t39 -122.5t11.5 -133q0 -69 -11.5 -131.5t-39 -122.5t-69.5 -103t-108 -69.5t-149 -26.5q-142 0 -229.5 69.5t-110.5 186.5h217
q25 -69 121 -69q158 0 166 221h-11q-74 -84 -202 -84q-138 0 -228 81.5t-90 207.5q0 133 101.5 213t261.5 80zM1395 696q-70 0 -108 -27t-38 -79t38 -79.5t108 -27.5q68 0 105.5 27.5t37.5 79.5t-37.5 79t-105.5 27z" />
    <glyph glyph-name="uni2152" unicode="&#x2152;" horiz-adv-x="2557" 
d="M289 573v598l-180 -90l-82 187l331 166h148v-861h-217zM297 0l821 1434h217l-821 -1434h-217zM2087 -23q-177 0 -288 122t-111 331t111 331t288 122q178 0 289.5 -122t111.5 -331t-111.5 -331t-289.5 -122zM1272 0v598l-180 -90l-82 186l331 166h148v-860h-217zM2087 184
q87 0 135.5 65t48.5 181t-48.5 181t-135.5 65t-134.5 -65t-47.5 -181t47.5 -181t134.5 -65z" />
    <glyph glyph-name="onethird" unicode="&#x2153;" horiz-adv-x="1810" 
d="M289 573v598l-180 -90l-82 187l331 166h148v-861h-217zM297 0l821 1434h217l-821 -1434h-217zM1405 -23q-72 0 -135 15t-115 46t-83.5 84t-35.5 124h217q7 -40 50 -61t102 -21q55 0 95 21t40 67q0 43 -36.5 67.5t-110.5 24.5h-105v186h103q64 0 96.5 23t32.5 61
q0 43 -36 62.5t-87 19.5q-54 0 -91.5 -20t-43.5 -62h-218q5 74 35.5 128t81 84t108.5 43.5t128 13.5q152 0 246 -61t94 -179q0 -130 -123 -186v-8q69 -30 104 -87t35 -131q0 -125 -98.5 -189.5t-249.5 -64.5z" />
    <glyph glyph-name="twothirds" unicode="&#x2154;" horiz-adv-x="1992" 
d="M53 573v164l389 330q70 58 70 117q0 41 -30 59.5t-76 18.5q-56 0 -90.5 -26t-43.5 -75h-219q8 86 42 146.5t86.5 91.5t106.5 44t118 13q153 0 238 -66t85 -190q0 -79 -36 -136.5t-103 -115.5l-195 -166v-8h334v-201h-676zM479 0l821 1434h218l-822 -1434h-217zM1587 -23
q-98 0 -176.5 25.5t-132.5 88t-59 155.5h217q7 -40 50 -61t101 -21q55 0 95 21t40 67q0 43 -36.5 67.5t-110.5 24.5h-105v186h103q64 0 96.5 23t32.5 61q0 43 -36 62.5t-87 19.5q-54 0 -91.5 -20t-43.5 -62h-217q5 74 35.5 128t80.5 84t108 43.5t128 13.5q152 0 246 -61
t94 -179q0 -130 -123 -186v-8q69 -30 104 -87t35 -131q0 -125 -98.5 -189.5t-249.5 -64.5z" />
    <glyph glyph-name="uni2155" unicode="&#x2155;" horiz-adv-x="1800" 
d="M289 573v598l-180 -90l-82 187l331 166h148v-861h-217zM297 0l821 1434h217l-821 -1434h-217zM1376 -23q-146 0 -240.5 71t-111.5 188h215q10 -34 47.5 -53t89.5 -19q67 0 105.5 32t38.5 85q0 54 -38.5 86t-105.5 32q-84 0 -129 -53h-215l53 514h592v-188h-401l-14 -137
h8q67 34 155 34q129 0 220.5 -77.5t91.5 -210.5q0 -138 -100.5 -221t-260.5 -83z" />
    <glyph glyph-name="uni2156" unicode="&#x2156;" horiz-adv-x="1982" 
d="M53 573v164l389 330q70 58 70 117q0 41 -30 59.5t-76 18.5q-56 0 -90.5 -26t-43.5 -75h-219q8 86 42 146.5t86.5 91.5t106.5 44t118 13q153 0 238 -66t85 -190q0 -79 -36 -136.5t-103 -115.5l-195 -166v-8h334v-201h-676zM479 0l821 1434h218l-822 -1434h-217zM1559 -23
q-146 0 -241 71t-112 188h215q10 -34 47.5 -53t90.5 -19q67 0 105 32t38 85q0 54 -38 86t-105 32q-84 0 -129 -53h-216l54 514h592v-188h-402l-14 -137h8q67 34 156 34q129 0 220 -77.5t91 -210.5q0 -138 -100 -221t-260 -83z" />
    <glyph glyph-name="uni2157" unicode="&#x2157;" horiz-adv-x="1986" 
d="M418 551q-73 0 -135.5 15t-114.5 45.5t-83.5 83.5t-35.5 124h217q7 -40 50 -61t102 -21q55 0 95 21t40 67q0 43 -36.5 68t-110.5 25h-105v186h102q64 0 96.5 23t32.5 61q0 43 -35.5 62.5t-86.5 19.5q-54 0 -92 -20t-44 -62h-217q5 74 35.5 128t81 83.5t108.5 43t128 13.5
q152 0 246 -60.5t94 -178.5q0 -131 -123 -187v-8q139 -61 139 -217q0 -125 -98.5 -189.5t-249.5 -64.5zM483 0l822 1434h217l-822 -1434h-217zM1563 -23q-146 0 -241 71t-112 188h215q10 -34 47.5 -53t90.5 -19q67 0 105 32t38 85q0 54 -38 86t-105 32q-84 0 -129 -53h-215
l53 514h592v-188h-402l-14 -137h8q67 34 156 34q129 0 220 -77.5t91 -210.5q0 -138 -100 -221t-260 -83z" />
    <glyph glyph-name="uni2158" unicode="&#x2158;" horiz-adv-x="2011" 
d="M487 573v172h-434v140l353 549h299v-502h94v-187h-94v-172h-218zM508 0l821 1434h217l-821 -1434h-217zM293 932h194v289h-8l-186 -281v-8zM1587 -23q-146 0 -240.5 71t-111.5 188h215q10 -34 47.5 -53t89.5 -19q67 0 105.5 32t38.5 85q0 54 -38.5 86t-105.5 32
q-84 0 -129 -53h-215l53 514h592v-188h-401l-14 -137h8q67 34 155 34q129 0 220.5 -77.5t91.5 -210.5q0 -138 -100.5 -221t-260.5 -83z" />
    <glyph glyph-name="uni2159" unicode="&#x2159;" horiz-adv-x="1812" 
d="M289 573v598l-180 -90l-82 187l331 166h148v-861h-217zM297 0l821 1434h217l-821 -1434h-217zM1393 -23q-84 0 -151 26t-109.5 69t-70 102.5t-39 122.5t-11.5 133q0 69 11.5 131.5t39 122.5t69.5 103t108 69.5t149 26.5q142 0 229.5 -69.5t110.5 -186.5h-218
q-25 69 -120 69q-158 0 -166 -221h10q74 84 203 84q138 0 227.5 -81.5t89.5 -207.5q0 -133 -101 -213t-261 -80zM1393 164q70 0 107.5 27t37.5 79t-37.5 79.5t-107.5 27.5q-68 0 -106 -27.5t-38 -79.5t38 -79t106 -27z" />
    <glyph glyph-name="uni215A" unicode="&#x215a;" horiz-adv-x="2015" 
d="M434 551q-146 0 -240.5 70.5t-111.5 187.5h215q10 -34 47.5 -53t89.5 -19q67 0 105.5 32t38.5 85q0 54 -38.5 86.5t-105.5 32.5q-84 0 -129 -53h-215l53 514h592v-189h-401l-15 -137h9q68 35 155 35q129 0 220.5 -78t91.5 -211q0 -138 -100.5 -220.5t-260.5 -82.5zM498 0
l821 1434h217l-821 -1434h-217zM1593 -23q-84 0 -151 26t-109.5 69t-70 102.5t-39 122.5t-11.5 133q0 69 11.5 131.5t39 122.5t69.5 103t108 69.5t149 26.5q142 0 229.5 -69.5t110.5 -186.5h-217q-25 69 -121 69q-158 0 -166 -221h11q74 84 202 84q138 0 228 -81.5
t90 -207.5q0 -133 -101.5 -213t-261.5 -80zM1593 164q70 0 108 27t38 79t-38 79.5t-108 27.5q-68 0 -105.5 -27.5t-37.5 -79.5t37.5 -79t105.5 -27z" />
    <glyph glyph-name="oneeighth" unicode="&#x215b;" horiz-adv-x="1867" 
d="M289 573v598l-180 -90l-82 187l331 166h148v-861h-217zM297 0l821 1434h217l-821 -1434h-217zM1425 -23q-106 0 -190.5 26.5t-139.5 87.5t-55 149q0 155 168 211v8q-137 53 -137 184q0 115 102.5 177.5t251.5 62.5q151 0 254 -62.5t103 -177.5q0 -130 -140 -184v-8
q168 -55 168 -211q0 -88 -54.5 -149t-139 -87.5t-191.5 -26.5zM1567 621q0 43 -39.5 65.5t-102.5 22.5q-61 0 -100 -22.5t-39 -65.5q0 -42 39.5 -65.5t99.5 -23.5q62 0 102 23t40 66zM1593 256q0 106 -168 106t-168 -106q0 -104 168 -104t168 104z" />
    <glyph glyph-name="threeeighths" unicode="&#x215c;" horiz-adv-x="2056" 
d="M418 551q-73 0 -135.5 15t-114.5 45.5t-83.5 83.5t-35.5 124h217q7 -40 50 -61t102 -21q55 0 95 21t40 67q0 43 -36.5 68t-110.5 25h-105v186h102q64 0 96.5 23t32.5 61q0 43 -35.5 62.5t-86.5 19.5q-54 0 -92 -20t-44 -62h-217q5 74 35.5 128t81 83.5t108.5 43t128 13.5
q152 0 246 -60.5t94 -178.5q0 -131 -123 -187v-8q139 -61 139 -217q0 -125 -98.5 -189.5t-249.5 -64.5zM483 0l822 1434h217l-822 -1434h-217zM1612 -23q-106 0 -190.5 26.5t-139.5 87.5t-55 149q0 155 168 211v8q-138 53 -138 184q0 115 102.5 177.5t252.5 62.5
q97 0 176 -25.5t129.5 -81t50.5 -133.5q0 -131 -139 -184v-8q168 -55 168 -211q0 -88 -54.5 -149t-139 -87.5t-191.5 -26.5zM1753 621q0 43 -39 65.5t-102 22.5q-61 0 -100 -22.5t-39 -65.5q0 -42 39.5 -65.5t99.5 -23.5q61 0 101 23t40 66zM1780 256q0 106 -168 106
t-168 -106q0 -104 168 -104t168 104z" />
    <glyph glyph-name="fiveeighths" unicode="&#x215d;" horiz-adv-x="2070" 
d="M434 551q-146 0 -240.5 70.5t-111.5 187.5h215q10 -34 47.5 -53t89.5 -19q67 0 105.5 32t38.5 85q0 54 -38.5 86.5t-105.5 32.5q-84 0 -129 -53h-215l53 514h592v-189h-401l-15 -137h9q68 35 155 35q129 0 220.5 -78t91.5 -211q0 -138 -100.5 -220.5t-260.5 -82.5zM498 0
l821 1434h217l-821 -1434h-217zM1626 -23q-106 0 -190.5 26.5t-139.5 87.5t-55 149q0 155 168 211v8q-137 53 -137 184q0 115 102.5 177.5t251.5 62.5q97 0 176 -25.5t129.5 -81t50.5 -133.5q0 -131 -139 -184v-8q168 -55 168 -211q0 -88 -54.5 -149t-139 -87.5
t-191.5 -26.5zM1767 621q0 43 -39 65.5t-102 22.5q-61 0 -100 -22.5t-39 -65.5q0 -42 39.5 -65.5t99.5 -23.5q61 0 101 23t40 66zM1794 256q0 106 -168 106t-168 -106q0 -104 168 -104t168 104z" />
    <glyph glyph-name="seveneighths" unicode="&#x215e;" horiz-adv-x="1839" 
d="M139 573l301 652v8h-399v201h659v-144l-327 -717h-234zM266 0l821 1434h218l-822 -1434h-217zM1395 -23q-106 0 -190.5 26.5t-139.5 87.5t-55 149q0 155 168 211v8q-138 53 -138 184q0 115 102.5 177.5t252.5 62.5q97 0 176 -25.5t129.5 -81t50.5 -133.5
q0 -131 -139 -184v-8q168 -55 168 -211q0 -88 -54.5 -149t-139 -87.5t-191.5 -26.5zM1536 621q0 43 -39 65.5t-102 22.5q-61 0 -100.5 -22.5t-39.5 -65.5q0 -42 40 -65.5t100 -23.5q61 0 101 23t40 66zM1563 256q0 106 -168 106t-168 -106q0 -104 168 -104t168 104z" />
    <glyph glyph-name="uni215F" unicode="&#x215f;" horiz-adv-x="942" 
d="M289 573v598l-180 -90l-82 187l331 166h148v-861h-217zM297 0l821 1434h217l-821 -1434h-217z" />
    <glyph glyph-name="uni2189" unicode="&#x2189;" horiz-adv-x="2058" 
d="M469 551q-177 0 -288 122t-111 331q0 208 111 330t288 122q178 0 289.5 -121.5t111.5 -330.5t-111.5 -331t-289.5 -122zM545 0l821 1434h217l-821 -1434h-217zM469 758q87 0 135.5 65t48.5 181t-48 180.5t-136 64.5q-87 0 -134.5 -64.5t-47.5 -180.5t47.5 -181t134.5 -65
zM1653 -23q-72 0 -135 15t-115 46t-83.5 84t-35.5 124h217q7 -40 50 -61t102 -21q55 0 95 21t40 67q0 43 -37 67.5t-111 24.5h-104v186h102q64 0 96.5 23t32.5 61q0 43 -35.5 62.5t-86.5 19.5q-54 0 -92 -20t-44 -62h-217q5 74 35.5 128t81 84t108.5 43.5t128 13.5
q152 0 246 -61t94 -179q0 -130 -123 -186v-8q69 -30 104 -87t35 -131q0 -125 -98.5 -189.5t-249.5 -64.5z" />
    <glyph glyph-name="arrowleft" unicode="&#x2190;" horiz-adv-x="1570" 
d="M1497 383h-1028v-8l313 -375h-317l-428 516l428 518h317l-313 -375v-8h1028v-268z" />
    <glyph glyph-name="arrowup" unicode="&#x2191;" horiz-adv-x="1157" 
d="M444 0v1028h-8l-375 -313v317l517 428l518 -428v-317l-375 313h-8v-1028h-269z" />
    <glyph glyph-name="arrowright" unicode="&#x2192;" horiz-adv-x="1570" 
d="M1102 383h-1028v268h1028v8l-314 375h318l428 -518l-428 -516h-318l314 375v8z" />
    <glyph glyph-name="arrowdown" unicode="&#x2193;" horiz-adv-x="1157" 
d="M444 406v1028h269v-1028h8l375 313v-318l-518 -428l-517 428v318l375 -313h8z" />
    <glyph glyph-name="arrowboth" unicode="&#x2194;" horiz-adv-x="1970" 
d="M782 0h-317l-428 516l428 518h317l-311 -375v-8h1030v8l-313 375h317l428 -518l-428 -516h-317l313 375v8h-1030v-8z" />
    <glyph glyph-name="arrowupdn" unicode="&#x2195;" horiz-adv-x="1214" 
d="M90 -8v317l375 -313h8v1032h-8l-375 -313v317l516 428l518 -428v-317l-374 313h-9v-1032h9l374 313v-317l-518 -428z" />
    <glyph glyph-name="uni2196" unicode="&#x2196;" horiz-adv-x="1665" 
d="M1384 -27l-1019 1020l-5 -4v-497l-241 241v701h700l242 -242h-498l-4 -4l1020 -1020z" />
    <glyph glyph-name="uni2197" unicode="&#x2197;" horiz-adv-x="1665" 
d="M1300 993l-1019 -1020l-195 195l1020 1020l-4 4h-498l242 242h700v-701l-241 -241v497z" />
    <glyph glyph-name="uni2198" unicode="&#x2198;" horiz-adv-x="1665" 
d="M281 1460l1019 -1020l5 4v498l241 -242v-700h-700l-242 242h498l4 4l-1020 1020z" />
    <glyph glyph-name="uni2199" unicode="&#x2199;" horiz-adv-x="1665" 
d="M340 440l1020 1020l194 -194l-1019 -1020l4 -4h497l-241 -242h-701v700l242 242v-498z" />
    <glyph glyph-name="uni21E4" unicode="&#x21e4;" horiz-adv-x="1642" 
d="M385 0h-250v1034h250v-1034zM1569 383h-668v-8l311 -375h-317l-428 516l428 518h317l-311 -375v-8h668v-268z" />
    <glyph glyph-name="uni21E5" unicode="&#x21e5;" horiz-adv-x="1642" 
d="M1257 1034h250v-1034h-250v1034zM74 651h667v8l-311 375h318l428 -516l-428 -518h-318l311 375v8h-667v268z" />
    <glyph glyph-name="minus" unicode="&#x2212;" horiz-adv-x="1163" 
d="M70 494v241h1024v-241h-1024z" />
    <glyph glyph-name="approxequal" unicode="&#x2248;" horiz-adv-x="1222" 
d="M406 1053q60 0 110 -16.5t84 -39.5t64 -46t64 -39.5t71 -16.5q58 0 89 35t34 100h235q-7 -192 -99.5 -287.5t-240.5 -95.5q-60 0 -109.5 16.5t-83.5 39.5t-64 46t-64 39.5t-70 16.5q-119 0 -125 -135h-235q7 192 99.5 287.5t240.5 95.5zM406 582q60 0 110 -16.5t84 -39.5
t64 -46t64 -39.5t71 -16.5q58 0 89 35t34 100h235q-7 -192 -99.5 -287.5t-240.5 -95.5q-60 0 -109.5 16.5t-83.5 39.5t-64 46t-64 39.5t-70 16.5q-119 0 -125 -135h-235q7 192 99.5 287.5t240.5 95.5z" />
    <glyph glyph-name="notequal" unicode="&#x2260;" horiz-adv-x="1204" 
d="M90 926h549l119 213h270l-119 -213h205v-232h-321l-103 -184h424v-231h-541l-118 -213h-273l119 213h-211v231h330l102 184h-432v232z" />
    <glyph glyph-name="lessequal" unicode="&#x2264;" horiz-adv-x="1167" 
d="M90 692v209l967 350v-256l-590 -194v-8l590 -195v-256zM90 0v244h967v-244h-967z" />
    <glyph glyph-name="greaterequal" unicode="&#x2265;" horiz-adv-x="1167" 
d="M1077 901v-209l-966 -350v256l589 195v8l-589 194v256zM1077 244v-244h-966v244h966z" />
    <glyph glyph-name="circle" unicode="&#x25cb;" horiz-adv-x="2019" 
d="M1010 -170q-195 0 -361.5 63.5t-285 178t-185.5 281t-67 364.5t67 364.5t185.5 281t285 178t361.5 63.5t361.5 -63.5t285 -178t185.5 -281t67 -364.5t-67 -364.5t-185.5 -281t-285 -178t-361.5 -63.5zM1010 12q317 0 508.5 194t191.5 511t-191.5 510.5t-508.5 193.5
t-509 -193.5t-192 -510.5t192 -511t509 -194z" />
    <glyph glyph-name="uni25CF" unicode="&#x25cf;" horiz-adv-x="2019" 
d="M1010 -170q-195 0 -361.5 63.5t-285 178t-185.5 281t-67 364.5t67 364.5t185.5 281t285 178t361.5 63.5t361.5 -63.5t285 -178t185.5 -281t67 -364.5t-67 -364.5t-185.5 -281t-285 -178t-361.5 -63.5z" />
    <glyph glyph-name="uni262E" unicode="&#x262e;" horiz-adv-x="1732" 
d="M866 -27q-161 0 -299.5 52.5t-239.5 147t-158.5 235t-57.5 309.5t57.5 309.5t158.5 235t239.5 146.5t299.5 52q215 0 386 -89t270.5 -259.5t99.5 -394.5q0 -169 -58 -309.5t-159 -235t-239.5 -147t-299.5 -52.5zM377 428l389 389v453q-208 -30 -332.5 -176.5
t-124.5 -376.5q0 -162 68 -289zM965 1270v-453l391 -391q67 128 67 291q0 230 -124.5 376.5t-333.5 176.5zM766 164v401l-281 -280q121 -100 281 -121zM1245 287l-280 278v-401q162 20 280 123z" />
    <glyph glyph-name="uni2639" unicode="&#x2639;" horiz-adv-x="2019" 
d="M1010 -170q-195 0 -361.5 63.5t-285 178t-185.5 281t-67 364.5t67 364.5t185.5 281t285 178t361.5 63.5t361.5 -63.5t285 -178t185.5 -281t67 -364.5t-67 -364.5t-185.5 -281t-285 -178t-361.5 -63.5zM1010 12q317 0 508.5 194t191.5 511t-191.5 510.5t-508.5 193.5
t-509 -193.5t-192 -510.5t192 -511t509 -194zM1278 813q-71 0 -115.5 39t-44.5 106t44.5 106.5t115.5 39.5t115.5 -39.5t44.5 -106.5t-44.5 -106t-115.5 -39zM741 813q-71 0 -115 39t-44 106t44 106.5t115 39.5t115.5 -39.5t44.5 -106.5t-44.5 -106t-115.5 -39zM1477 319
h-203q-19 98 -86.5 153.5t-177.5 55.5q-108 0 -177 -56t-88 -153h-202q29 186 150.5 289t316.5 103t316.5 -103t150.5 -289z" />
    <glyph glyph-name="smileface" unicode="&#x263a;" horiz-adv-x="2019" 
d="M1010 -170q-195 0 -361.5 63.5t-285 178t-185.5 281t-67 364.5t67 364.5t185.5 281t285 178t361.5 63.5t361.5 -63.5t285 -178t185.5 -281t67 -364.5t-67 -364.5t-185.5 -281t-285 -178t-361.5 -63.5zM1010 12q317 0 508.5 194t191.5 511t-191.5 510.5t-508.5 193.5
t-509 -193.5t-192 -510.5t192 -511t509 -194zM1278 813q-71 0 -115.5 39t-44.5 106t44.5 106.5t115.5 39.5t115.5 -39.5t44.5 -106.5t-44.5 -106t-115.5 -39zM741 813q-71 0 -115 39t-44 106t44 106.5t115 39.5t115.5 -39.5t44.5 -106.5t-44.5 -106t-115.5 -39zM1274 635
h203q-29 -185 -151 -288t-316 -103q-196 0 -317.5 103t-149.5 288h200q21 -98 89 -153.5t178 -55.5t177.5 55.5t86.5 153.5z" />
    <glyph glyph-name="invsmileface" unicode="&#x263b;" horiz-adv-x="2019" 
d="M1010 -170q-195 0 -361.5 63.5t-285 178t-185.5 281t-67 364.5t67 364.5t185.5 281t285 178t361.5 63.5t361.5 -63.5t285 -178t185.5 -281t67 -364.5t-67 -364.5t-185.5 -281t-285 -178t-361.5 -63.5zM1278 813q71 0 115.5 39t44.5 106t-44.5 106.5t-115.5 39.5
t-115.5 -39.5t-44.5 -106.5t44.5 -106t115.5 -39zM741 813q71 0 115.5 39t44.5 106t-44.5 106.5t-115.5 39.5t-115 -39.5t-44 -106.5t44 -106t115 -39zM743 635h-200q28 -185 149.5 -288t317.5 -103q194 0 316 103t151 288h-203q-19 -98 -86.5 -153.5t-177.5 -55.5
t-178 55.5t-89 153.5z" />
    <glyph glyph-name="uni2661" unicode="&#x2661;" horiz-adv-x="1851" 
d="M1503 508l-577 -535l-578 535q-250 229 -250 489q0 134 62 240t167.5 163.5t233.5 57.5q108 0 202.5 -40t162.5 -107q68 67 162 107t202 40q128 0 233.5 -57.5t167.5 -163.5t62 -240q0 -260 -250 -489zM555 670l371 -351l370 351q83 78 127.5 149.5t44.5 147.5
q0 97 -65 164t-166 67q-170 0 -311 -203q-141 203 -312 203q-101 0 -166 -67t-65 -164q0 -76 44.5 -147.5t127.5 -149.5z" />
    <glyph glyph-name="heart" unicode="&#x2665;" horiz-adv-x="1835" 
d="M1495 508l-577 -537l-578 537q-242 221 -242 487q0 204 130 335.5t325 131.5q100 0 195.5 -37t169.5 -104q74 67 169 104t195 37q195 0 325 -131.5t130 -335.5q0 -266 -242 -487z" />
    <glyph glyph-name="uni2713" unicode="&#x2713;" horiz-adv-x="1531" 
d="M412 0l-383 659h338l186 -327h8l602 1102h340l-794 -1434h-297z" />
    <glyph glyph-name="uni2912" unicode="&#x2912;" horiz-adv-x="1214" 
d="M90 1184v250h1034v-250h-1034zM473 0v668h-8l-375 -312v318l516 428l518 -428v-318l-374 312h-9v-668h-268z" />
    <glyph glyph-name="uni2913" unicode="&#x2913;" horiz-adv-x="1214" 
d="M473 766v668h268v-668h9l374 311v-317l-518 -428l-516 428v317l375 -311h8zM90 0v250h1034v-250h-1034z" />
    <glyph glyph-name="uni2E3A" unicode="&#x2e3a;" horiz-adv-x="3301" 
d="M115 451v249h3072v-249h-3072z" />
    <glyph glyph-name="uni2E3B" unicode="&#x2e3b;" horiz-adv-x="4837" 
d="M115 451v249h4608v-249h-4608z" />
    <glyph glyph-name="u1F6D2" unicode="&#x1f6d2;" horiz-adv-x="1835" 
d="M528 393l-143 824h-348v217h553l51 -299h1112l-127 -742h-1098zM733 610h688l49 308h-790zM756 -18q-77 0 -123.5 43.5t-46.5 117.5q0 76 46.5 120t123.5 44q76 0 123 -44t47 -120q0 -74 -47 -117.5t-123 -43.5zM1399 -18q-77 0 -123.5 43.5t-46.5 117.5q0 76 46.5 120
t123.5 44q76 0 123 -44t47 -120q0 -74 -47 -117.5t-123 -43.5z" />
    <glyph glyph-name="space.tf" 
 />
    <glyph glyph-name="space.tosf" 
 />
    <glyph glyph-name="I.ss02" horiz-adv-x="1441" 
d="M119 0v244h461v946h-461v244h1204v-244h-459v-946h459v-244h-1204z" />
    <glyph glyph-name="Iacute.ss02" horiz-adv-x="1441" 
d="M561 1567l164 266h293l-164 -266h-293zM119 0v244h461v946h-461v244h1204v-244h-459v-946h459v-244h-1204z" />
    <glyph glyph-name="Ibreve.ss02" horiz-adv-x="1441" 
d="M723 1565q-150 0 -240 80.5t-94 232.5h193q4 -71 44.5 -105t96.5 -34t96.5 34t44.5 105h193q-4 -152 -94 -232.5t-240 -80.5zM119 0v244h461v946h-461v244h1204v-244h-459v-946h459v-244h-1204z" />
    <glyph glyph-name="Icaron.ss02" horiz-adv-x="1441" 
d="M598 1567l-225 311h237l107 -147h8l106 147h238l-225 -311h-246zM119 0v244h461v946h-461v244h1204v-244h-459v-946h459v-244h-1204z" />
    <glyph glyph-name="Icircumflex.ss02" horiz-adv-x="1441" 
d="M373 1567l225 311h246l225 -311h-238l-106 147h-8l-107 -147h-237zM119 0v244h461v946h-461v244h1204v-244h-459v-946h459v-244h-1204z" />
    <glyph glyph-name="Idieresis.ss02" horiz-adv-x="1441" 
d="M508 1571q-70 0 -113 37.5t-43 101.5t43 102.5t113 38.5q71 0 114.5 -38.5t43.5 -102.5t-43.5 -101.5t-114.5 -37.5zM934 1571q-71 0 -114.5 37.5t-43.5 101.5t43.5 102.5t114.5 38.5q70 0 113 -38.5t43 -102.5t-43 -101.5t-113 -37.5zM119 0v244h461v946h-461v244h1204
v-244h-459v-946h459v-244h-1204z" />
    <glyph glyph-name="Idotaccent.ss02" horiz-adv-x="1441" 
d="M721 1571q-72 0 -118 38t-46 101q0 64 46 102.5t118 38.5t118 -38.5t46 -102.5q0 -63 -46 -101t-118 -38zM119 0v244h461v946h-461v244h1204v-244h-459v-946h459v-244h-1204z" />
    <glyph glyph-name="Igrave.ss02" horiz-adv-x="1441" 
d="M717 1833l164 -266h-293l-164 266h293zM119 0v244h461v946h-461v244h1204v-244h-459v-946h459v-244h-1204z" />
    <glyph glyph-name="Imacron.ss02" horiz-adv-x="1441" 
d="M373 1606v188h696v-188h-696zM119 0v244h461v946h-461v244h1204v-244h-459v-946h459v-244h-1204z" />
    <glyph glyph-name="Iogonek.ss02" horiz-adv-x="1441" 
d="M119 0v244h461v946h-461v244h1204v-244h-459v-946h459v-244q-145 -47 -145 -127q0 -37 31.5 -57.5t88.5 -20.5h25v-205h-111q-123 0 -193.5 51t-70.5 150q0 135 131 209h-960z" />
    <glyph glyph-name="Itilde.ss02" horiz-adv-x="1441" 
d="M578 1847q46 0 86 -15.5t63 -34.5t53 -34.5t58 -15.5q31 0 48 18t21 60h189q-9 -139 -70.5 -206t-161.5 -67q-46 0 -86 16t-63 34.5t-53 34.5t-58 16q-31 0 -48 -18t-21 -60h-189q9 139 70.5 205.5t161.5 66.5zM119 0v244h461v946h-461v244h1204v-244h-459v-946h459v-244
h-1204z" />
    <glyph glyph-name="J.ss02" horiz-adv-x="1402" 
d="M78 0v266h768q69 0 92 23.5t23 91.5v790h-537v263h821v-1098q0 -186 -75 -261t-261 -75h-831z" />
    <glyph glyph-name="Jcircumflex.ss02" horiz-adv-x="1402" 
d="M487 1567l226 311h245l226 -311h-238l-106 147h-9l-106 -147h-238zM78 0v266h768q69 0 92 23.5t23 91.5v790h-537v263h821v-1098q0 -186 -75 -261t-261 -75h-831z" />
    <glyph glyph-name="a.ss01" horiz-adv-x="1296" 
d="M545 -27q-214 0 -341.5 148t-127.5 395q0 249 127.5 397t341.5 148q213 0 340 -152h8v125h266v-1034h-266v125h-8q-127 -152 -340 -152zM618 217q122 0 201.5 83t79.5 216t-80 217t-201 84q-120 0 -197 -83.5t-77 -217.5t77 -216.5t197 -82.5z" />
    <glyph glyph-name="aacute.ss01" horiz-adv-x="1296" 
d="M483 1167l164 267h293l-164 -267h-293zM545 -27q-214 0 -341.5 148t-127.5 395q0 249 127.5 397t341.5 148q213 0 340 -152h8v125h266v-1034h-266v125h-8q-127 -152 -340 -152zM618 217q122 0 201.5 83t79.5 216t-80 217t-201 84q-120 0 -197 -83.5t-77 -217.5t77 -216.5
t197 -82.5z" />
    <glyph glyph-name="abreve.ss01" horiz-adv-x="1296" 
d="M645 1165q-150 0 -240 81t-94 233h193q4 -71 44.5 -105.5t96.5 -34.5t96.5 34.5t44.5 105.5h193q-4 -152 -94 -233t-240 -81zM545 -27q-214 0 -341.5 148t-127.5 395q0 249 127.5 397t341.5 148q213 0 340 -152h8v125h266v-1034h-266v125h-8q-127 -152 -340 -152z
M618 217q122 0 201.5 83t79.5 216t-80 217t-201 84q-120 0 -197 -83.5t-77 -217.5t77 -216.5t197 -82.5z" />
    <glyph glyph-name="acaron.ss01" horiz-adv-x="1296" 
d="M520 1167l-225 312h237l107 -148h8l107 148h237l-225 -312h-246zM545 -27q-214 0 -341.5 148t-127.5 395q0 249 127.5 397t341.5 148q213 0 340 -152h8v125h266v-1034h-266v125h-8q-127 -152 -340 -152zM618 217q122 0 201.5 83t79.5 216t-80 217t-201 84
q-120 0 -197 -83.5t-77 -217.5t77 -216.5t197 -82.5z" />
    <glyph glyph-name="acircumflex.ss01" horiz-adv-x="1296" 
d="M295 1167l225 312h246l225 -312h-237l-107 148h-8l-107 -148h-237zM545 -27q-214 0 -341.5 148t-127.5 395q0 249 127.5 397t341.5 148q213 0 340 -152h8v125h266v-1034h-266v125h-8q-127 -152 -340 -152zM618 217q122 0 201.5 83t79.5 216t-80 217t-201 84
q-120 0 -197 -83.5t-77 -217.5t77 -216.5t197 -82.5z" />
    <glyph glyph-name="adieresis.ss01" horiz-adv-x="1296" 
d="M430 1171q-70 0 -113 38t-43 102t43 102.5t113 38.5q71 0 114.5 -38.5t43.5 -102.5t-43.5 -102t-114.5 -38zM856 1171q-71 0 -114.5 38t-43.5 102t43.5 102.5t114.5 38.5q70 0 113 -38.5t43 -102.5t-43 -102t-113 -38zM545 -27q-214 0 -341.5 148t-127.5 395
q0 249 127.5 397t341.5 148q213 0 340 -152h8v125h266v-1034h-266v125h-8q-127 -152 -340 -152zM618 217q122 0 201.5 83t79.5 216t-80 217t-201 84q-120 0 -197 -83.5t-77 -217.5t77 -216.5t197 -82.5z" />
    <glyph glyph-name="adotaccent.ss01" horiz-adv-x="1296" 
d="M643 1171q-72 0 -118 38.5t-46 101.5q0 64 46 102.5t118 38.5t118 -38.5t46 -102.5q0 -63 -46 -101.5t-118 -38.5zM545 -27q-214 0 -341.5 148t-127.5 395q0 249 127.5 397t341.5 148q213 0 340 -152h8v125h266v-1034h-266v125h-8q-127 -152 -340 -152zM618 217
q122 0 201.5 83t79.5 216t-80 217t-201 84q-120 0 -197 -83.5t-77 -217.5t77 -216.5t197 -82.5z" />
    <glyph glyph-name="agrave.ss01" horiz-adv-x="1296" 
d="M639 1434l164 -267h-293l-164 267h293zM545 -27q-214 0 -341.5 148t-127.5 395q0 249 127.5 397t341.5 148q213 0 340 -152h8v125h266v-1034h-266v125h-8q-127 -152 -340 -152zM618 217q122 0 201.5 83t79.5 216t-80 217t-201 84q-120 0 -197 -83.5t-77 -217.5t77 -216.5
t197 -82.5z" />
    <glyph glyph-name="amacron.ss01" horiz-adv-x="1296" 
d="M295 1206v189h696v-189h-696zM545 -27q-214 0 -341.5 148t-127.5 395q0 249 127.5 397t341.5 148q213 0 340 -152h8v125h266v-1034h-266v125h-8q-127 -152 -340 -152zM618 217q122 0 201.5 83t79.5 216t-80 217t-201 84q-120 0 -197 -83.5t-77 -217.5t77 -216.5
t197 -82.5z" />
    <glyph glyph-name="aogonek.ss01" horiz-adv-x="1296" 
d="M545 -27q-214 0 -341.5 148t-127.5 395q0 249 127.5 397t341.5 148q213 0 340 -152h8v125h266v-1034q-145 -47 -145 -127q0 -37 32 -57.5t89 -20.5h24v-205h-110q-123 0 -194 51t-71 150q0 71 37.5 125t100.5 86h-29v123h-8q-127 -152 -340 -152zM618 217q122 0 201.5 83
t79.5 216t-80 217t-201 84q-120 0 -197 -83.5t-77 -217.5t77 -216.5t197 -82.5z" />
    <glyph glyph-name="aring.ss01" horiz-adv-x="1296" 
d="M643 1133q-102 0 -169.5 58t-67.5 159q0 102 67.5 160.5t169.5 58.5t170 -58.5t68 -160.5q0 -101 -68 -159t-170 -58zM639 1290q23 0 44.5 18.5t21.5 41.5t-17.5 41t-40.5 18q-24 0 -41 -14q-24 -18 -24 -45q0 -22 17.5 -41t39.5 -19zM545 -27q-214 0 -341.5 148
t-127.5 395q0 249 127.5 397t341.5 148q213 0 340 -152h8v125h266v-1034h-266v125h-8q-127 -152 -340 -152zM618 217q122 0 201.5 83t79.5 216t-80 217t-201 84q-120 0 -197 -83.5t-77 -217.5t77 -216.5t197 -82.5z" />
    </font>
</defs>
</svg>
