<?xml version="1.0" standalone="no"?>
<!DOCTYPE svg PUBLIC "-//W3C//DTD SVG 1.1//EN" "http://www.w3.org/Graphics/SVG/1.1/DTD/svg11.dtd" >
<svg xmlns="http://www.w3.org/2000/svg" xmlns:xlink="http://www.w3.org/1999/xlink" version="1.1">
<metadata>
Created by FontForge 20190801 at Wed Aug  3 17:24:09 2022
 By root
(c) Igor Stepanchenko, 2022
</metadata>
<defs>
<font id="Steppe-Light" horiz-adv-x="1376" >
  <font-face 
    font-family="Steppe Light"
    font-weight="300"
    font-stretch="normal"
    units-per-em="2048"
    panose-1="2 0 0 0 0 0 0 0 0 0"
    ascent="1638"
    descent="-410"
    x-height="1018"
    cap-height="1434"
    bbox="-342 -481 4807 1952"
    underline-thickness="81"
    underline-position="-326"
    unicode-range="U+000D-1F6D2"
  />
<missing-glyph horiz-adv-x="2111" 
d="M1055 -166q-250 0 -453.5 111t-321.5 313.5t-118 458.5t118 458.5t321.5 313t453.5 110.5t454 -110.5t322.5 -313t118.5 -458.5q0 -192 -69.5 -357.5t-189 -280.5t-284.5 -180t-352 -65zM1055 -78q170 0 318.5 60t253.5 164.5t165.5 252.5t60.5 318q0 227 -103 409
t-285 283.5t-410 101.5q-170 0 -318 -59.5t-254 -164t-166.5 -252.5t-60.5 -318q0 -227 103.5 -409t286 -284t409.5 -102zM1335 901q-37 0 -59.5 22.5t-22.5 59.5q0 35 22.5 57.5t59.5 22.5q35 0 58.5 -22.5t23.5 -57.5q0 -36 -23 -59t-59 -23zM778 901q-37 0 -59.5 22.5
t-22.5 59.5q0 35 22.5 57.5t59.5 22.5q35 0 58.5 -22.5t23.5 -57.5q0 -36 -23 -59t-59 -23zM1548 322h-94q-10 44 -27.5 85t-50 84.5t-75 75t-106.5 52t-140 20.5q-77 0 -140.5 -20.5t-106 -52t-75 -75t-50 -84.5t-26.5 -85h-96q15 80 51.5 150t95 128.5t148 92.5t199.5 34
q111 0 200.5 -34t147.5 -92.5t94 -128t51 -150.5z" />
    <glyph glyph-name="f_f" unicode="ff" horiz-adv-x="2119" 
d="M96 926v92h285v147q0 138 65 203.5t203 65.5h410v-95h-391q-103 0 -145 -41.5t-42 -144.5v-135h865v147q0 138 65 203.5t201 65.5h411v-95h-391q-103 0 -144.5 -41.5t-41.5 -144.5v-135h577v-92h-577v-926h-100v926h-865v-926h-100v926h-285z" />
    <glyph glyph-name="fi" unicode="fi" horiz-adv-x="1699" 
d="M1411 1294q-35 0 -57.5 21t-22.5 55t22.5 56t57.5 22q34 0 56 -22t22 -56t-22 -55t-56 -21zM96 926v92h285v147q0 138 65 203.5t203 65.5h410v-95h-391q-103 0 -145 -41.5t-42 -144.5v-135h979v-1018h-100v926h-879v-926h-100v926h-285z" />
    <glyph glyph-name="f_f_i" unicode="ffi" horiz-adv-x="2664" 
d="M2374 1294q-34 0 -56 21t-22 55t22 56t56 22q35 0 57.5 -22t22.5 -56t-22.5 -55t-57.5 -21zM96 926v92h285v147q0 138 65 203.5t203 65.5h410v-95h-391q-103 0 -145 -41.5t-42 -144.5v-135h865v147q0 138 65 203.5t201 65.5h411v-95h-391q-103 0 -144.5 -41.5
t-41.5 -144.5v-135h979v-1018h-101v926h-878v-926h-100v926h-865v-926h-100v926h-285z" />
    <glyph glyph-name="f_f_t" unicode="fft" horiz-adv-x="3119" 
d="M96 926v92h285v147q0 138 65 203.5t203 65.5h410v-95h-391q-103 0 -145 -41.5t-42 -144.5v-135h865v147q0 138 65 203.5t201 65.5h411v-95h-391q-103 0 -144.5 -41.5t-41.5 -144.5v-135h862v368h102v-368h578v-92h-578v-645q0 -103 42 -145t143 -42h393v-94h-412
q-137 0 -202.5 65t-65.5 203v658h-862v-926h-100v926h-865v-926h-100v926h-285z" />
    <glyph glyph-name="f_t" unicode="ft" horiz-adv-x="2156" 
d="M96 926v92h285v147q0 138 65 203.5t203 65.5h410v-95h-391q-103 0 -145 -41.5t-42 -144.5v-135h865v368h100v-368h577v-92h-577v-645q0 -103 41.5 -145t144.5 -42h391v-94h-411q-137 0 -201.5 65t-64.5 203v658h-865v-926h-100v926h-285z" />
    <glyph glyph-name=".notdef" horiz-adv-x="2111" 
d="M1055 -166q-250 0 -453.5 111t-321.5 313.5t-118 458.5t118 458.5t321.5 313t453.5 110.5t454 -110.5t322.5 -313t118.5 -458.5q0 -192 -69.5 -357.5t-189 -280.5t-284.5 -180t-352 -65zM1055 -78q170 0 318.5 60t253.5 164.5t165.5 252.5t60.5 318q0 227 -103 409
t-285 283.5t-410 101.5q-170 0 -318 -59.5t-254 -164t-166.5 -252.5t-60.5 -318q0 -227 103.5 -409t286 -284t409.5 -102zM1335 901q-37 0 -59.5 22.5t-22.5 59.5q0 35 22.5 57.5t59.5 22.5q35 0 58.5 -22.5t23.5 -57.5q0 -36 -23 -59t-59 -23zM778 901q-37 0 -59.5 22.5
t-22.5 59.5q0 35 22.5 57.5t59.5 22.5q35 0 58.5 -22.5t23.5 -57.5q0 -36 -23 -59t-59 -23zM1548 322h-94q-10 44 -27.5 85t-50 84.5t-75 75t-106.5 52t-140 20.5q-77 0 -140.5 -20.5t-106 -52t-75 -75t-50 -84.5t-26.5 -85h-96q15 80 51.5 150t95 128.5t148 92.5t199.5 34
q111 0 200.5 -34t147.5 -92.5t94 -128t51 -150.5z" />
    <glyph glyph-name="uni0000" horiz-adv-x="0" 
 />
    <glyph glyph-name="uni000D" unicode="&#xd;" horiz-adv-x="512" 
 />
    <glyph glyph-name="space" unicode=" " horiz-adv-x="669" 
 />
    <glyph glyph-name="exclam" unicode="!" horiz-adv-x="491" 
d="M299 1434l-4 -1098h-100l-5 1098h109zM246 -14q-37 0 -59.5 22.5t-22.5 59.5q0 35 22.5 57t59.5 22q36 0 59 -22t23 -57q0 -36 -23 -59t-59 -23z" />
    <glyph glyph-name="quotedbl" unicode="&#x22;" horiz-adv-x="653" 
d="M244 1434l-4 -428h-99l-4 428h107zM516 1434l-4 -428h-98l-4 428h106z" />
    <glyph glyph-name="numbersign" unicode="#" horiz-adv-x="1368" 
d="M76 424l16 90h273l86 414h-297l18 90h297l86 416h102l-88 -416h353l88 416h100l-86 -416h268l-16 -90h-270l-86 -414h294l-18 -90h-295l-88 -424h-102l90 424h-352l-91 -424h-100l88 424h-270zM465 514h352l86 414h-352z" />
    <glyph glyph-name="dollar" unicode="$" horiz-adv-x="1374" 
d="M633 1454v205h104v-207q82 -8 152.5 -33.5t130.5 -71.5t100.5 -119.5t53.5 -168.5h-111q-16 80 -55.5 140t-95.5 93.5t-117.5 49.5t-130.5 16q-70 0 -131.5 -15.5t-114.5 -48.5t-84 -91.5t-31 -137.5q0 -75 31.5 -127.5t84 -80t121 -44.5t144.5 -28.5t152 -24.5
t144.5 -39.5t121 -67.5t84 -113.5t31.5 -172.5q0 -88 -25.5 -156t-68 -111t-105.5 -71t-131 -39.5t-150 -12.5v-202h-104v207q-78 6 -145.5 23.5t-130.5 52.5t-108.5 84.5t-75.5 124t-36 167.5h111q7 -84 38.5 -148t77.5 -103t108.5 -64t124 -34t132.5 -9q379 0 379 291
q0 74 -25.5 128t-69.5 84.5t-102.5 52.5t-124 31.5t-135 22.5t-135 25t-124 39t-102.5 64t-69.5 101t-25.5 150q0 84 26 151t68.5 110t101 72t118 41.5t124.5 14.5z" />
    <glyph glyph-name="percent" unicode="%" horiz-adv-x="1988" 
d="M449 555q-167 0 -268 121.5t-101 327.5t101 327t268 121q168 0 269 -121t101 -327t-101 -327.5t-269 -121.5zM557 0l776 1434h99l-777 -1434h-98zM449 643q125 0 200.5 95.5t75.5 265.5t-75.5 265t-200.5 95q-124 0 -199.5 -95t-75.5 -265t75.5 -265.5t199.5 -95.5z
M1538 -18q-167 0 -268 121t-101 327t101 327.5t268 121.5q168 0 269.5 -121.5t101.5 -327.5t-101.5 -327t-269.5 -121zM1538 70q126 0 201.5 95t75.5 265t-76 265.5t-201 95.5q-124 0 -199 -95.5t-75 -265.5t75 -265t199 -95z" />
    <glyph glyph-name="ampersand" unicode="&#x26;" horiz-adv-x="1503" 
d="M573 -23q-191 0 -313.5 109t-122.5 274q0 65 22 122t55 98t87.5 82t101.5 68t115 61l-108 116q-105 110 -105 240q0 147 103 228t258 81q97 0 176.5 -31.5t130.5 -101.5t51 -168q0 -72 -27 -132t-80.5 -107.5t-106.5 -80.5t-132 -73l373 -395l245 249l70 -65l-250 -252
l152 -162q41 -41 100 -41h109v-96h-117q-92 0 -154 68l-155 163l-72 -73q-35 -35 -69.5 -62t-85 -56.5t-115 -46t-136.5 -16.5zM608 836q59 29 98 50.5t84.5 52.5t71.5 61t44 70t18 85q0 100 -75.5 154.5t-184.5 54.5t-183.5 -56.5t-74.5 -160.5q0 -101 81 -184zM985 299
l-395 420q-48 -24 -78 -39.5t-71.5 -39.5t-67 -44t-54.5 -48t-45 -55t-27 -61.5t-11 -71.5q0 -91 51.5 -158.5t126.5 -99.5t159 -32q95 0 182 42t156 111z" />
    <glyph glyph-name="quotesingle" unicode="'" horiz-adv-x="380" 
d="M244 1434l-4 -428h-99l-4 428h107z" />
    <glyph glyph-name="parenleft" unicode="(" horiz-adv-x="577" 
d="M358 -328q-217 441 -217 881t217 881h107q-221 -432 -221 -881t221 -881h-107z" />
    <glyph glyph-name="parenright" unicode=")" horiz-adv-x="577" 
d="M219 -328h-106q221 432 221 881t-221 881h106q217 -441 217 -881t-217 -881z" />
    <glyph glyph-name="asterisk" unicode="*" horiz-adv-x="722" 
d="M195 823l-66 47l170 224v8l-238 72l23 77l229 -73h9l-5 256h89l-5 -256h9l231 73l21 -77l-236 -72v-8l168 -224l-66 -47l-161 224h-9z" />
    <glyph glyph-name="plus" unicode="+" horiz-adv-x="1214" 
d="M96 567v95h465v466h92v-466h467v-95h-467v-463h-92v463h-465z" />
    <glyph glyph-name="comma" unicode="," horiz-adv-x="395" 
d="M127 -182l59 170q-32 3 -50.5 24.5t-18.5 55.5q0 36 22 57.5t60 21.5q37 0 59.5 -22.5t22.5 -61.5q0 -24 -17 -77l-57 -168h-80z" />
    <glyph glyph-name="hyphen" unicode="-" horiz-adv-x="1071" 
d="M176 539v98h717v-98h-717z" />
    <glyph glyph-name="period" unicode="." horiz-adv-x="395" 
d="M199 -14q-37 0 -59.5 22.5t-22.5 59.5q0 35 22.5 57t59.5 22q36 0 59 -22t23 -57q0 -36 -23 -59t-59 -23z" />
    <glyph glyph-name="slash" unicode="/" horiz-adv-x="745" 
d="M68 -410l512 1844h98l-512 -1844h-98z" />
    <glyph glyph-name="zero" unicode="0" horiz-adv-x="1492" 
d="M748 -23q-255 0 -414.5 198.5t-159.5 541.5t159.5 541t414.5 198q254 0 412.5 -197.5t158.5 -541.5t-158.5 -542t-412.5 -198zM748 78q206 0 334 169t128 470t-128 470t-334 169q-208 0 -336.5 -169t-128.5 -470t128.5 -470t336.5 -169z" />
    <glyph glyph-name="one" unicode="1" horiz-adv-x="821" 
d="M449 0v1286l-336 -162l-37 95l442 215h37v-1434h-106z" />
    <glyph glyph-name="two" unicode="2" horiz-adv-x="1275" 
d="M143 0v86l672 629q40 37 63 60t57.5 64t54 75t34 79t14.5 90q0 89 -53.5 153t-135 93t-179.5 29q-110 0 -199.5 -36t-149 -114.5t-65.5 -187.5h-113q7 96 41 172.5t85 125t119 80.5t137 45t145 13q209 0 342 -99t133 -274q0 -69 -20.5 -131.5t-63.5 -121t-80.5 -99
t-99.5 -98.5l-566 -524v-9h830v-100h-1002z" />
    <glyph glyph-name="three" unicode="3" horiz-adv-x="1335" 
d="M662 -23q-108 0 -202 25.5t-168.5 75t-121 130.5t-53.5 185h110q7 -80 45 -141.5t97.5 -99.5t133.5 -57t159 -19q80 0 149.5 17.5t127 53.5t91 98.5t33.5 145.5q0 154 -107.5 232.5t-285.5 78.5h-209v101h201q190 0 279 74.5t89 197.5q0 65 -24 116t-61.5 82t-89 50.5
t-100.5 27t-102 7.5q-185 0 -293.5 -83.5t-119.5 -213.5h-111q18 193 158 294t366 101q103 0 189 -22.5t153 -67t104.5 -117.5t37.5 -168q0 -120 -60.5 -199t-165.5 -118v-8q135 -47 197.5 -144t62.5 -223q0 -103 -39.5 -183t-109.5 -129.5t-161 -74.5t-199 -25z" />
    <glyph glyph-name="four" unicode="4" horiz-adv-x="1294" 
d="M895 0v391h-795v82l791 961h113v-942h196v-101h-196v-391h-109zM248 492h647v780h-8l-639 -772v-8z" />
    <glyph glyph-name="five" unicode="5" horiz-adv-x="1368" 
d="M698 -23q-202 0 -349 106.5t-173 285.5h113q28 -134 140 -213.5t269 -79.5q185 0 308.5 106t123.5 285q0 119 -58 209.5t-151.5 136t-205.5 45.5q-128 0 -237 -60t-165 -180h-112l100 816h858v-101h-764l-65 -547h8q135 170 385 170q142 0 259 -59.5t187 -172t70 -257.5
t-72.5 -258t-195.5 -172.5t-273 -59.5z" />
    <glyph glyph-name="six" unicode="6" horiz-adv-x="1394" 
d="M733 -23q-119 0 -217.5 38.5t-176.5 119t-121.5 218.5t-43.5 323q0 780 557 780q197 0 326 -96.5t162 -274.5h-113q-30 129 -125 201t-250 72q-228 0 -337.5 -165t-112.5 -517h8q133 256 450 256q233 0 374.5 -130t141.5 -347q0 -219 -144.5 -348.5t-377.5 -129.5z
M733 76q184 0 299 101.5t115 277.5t-115 277.5t-299 101.5t-299 -101.5t-115 -277.5t115 -277.5t299 -101.5z" />
    <glyph glyph-name="seven" unicode="7" horiz-adv-x="1118" 
d="M289 0l624 1325v8h-852v101h975v-91l-633 -1343h-114z" />
    <glyph glyph-name="eight" unicode="8" horiz-adv-x="1449" 
d="M725 -23q-118 0 -217.5 24.5t-177.5 73t-122 129.5t-44 187q0 269 297 361v8q-126 45 -190 128.5t-64 190.5q0 121 73 208.5t188 128t257 40.5t257 -40.5t188 -128t73 -208.5q0 -107 -64 -190.5t-190 -128.5v-8q297 -92 297 -361q0 -106 -44 -187t-122 -129.5t-177.5 -73
t-217.5 -24.5zM313 1079q0 -90 58 -153.5t149 -92t205 -28.5t205 28.5t149 92t58 153.5q0 69 -33 123.5t-90.5 88t-130.5 50.5t-158 17t-158 -17t-130.5 -50.5t-90.5 -88t-33 -123.5zM272 391q0 -85 36.5 -148t101 -98.5t143 -52t172.5 -16.5t172.5 16.5t143 52t101 98.5
t36.5 148q0 86 -36.5 149t-101 98.5t-142.5 52t-173 16.5t-173 -16.5t-142.5 -52t-101 -98.5t-36.5 -149z" />
    <glyph glyph-name="nine" unicode="9" horiz-adv-x="1394" 
d="M662 1456q95 0 176.5 -23t153 -76t121.5 -132.5t79 -198.5t29 -268q0 -781 -557 -781q-197 0 -326 96.5t-162 274.5h113q30 -128 124.5 -200t250.5 -72q228 0 337.5 165t112.5 517h-8q-133 -256 -451 -256q-233 0 -374.5 130t-141.5 347q0 219 145 348t378 129zM662 1358
q-184 0 -299 -101.5t-115 -277.5t115 -277.5t299 -101.5t298.5 101t114.5 278t-114.5 278t-298.5 101z" />
    <glyph glyph-name="colon" unicode=":" horiz-adv-x="395" 
d="M199 870q-37 0 -59.5 22.5t-22.5 59.5q0 35 22.5 57.5t59.5 22.5q35 0 58.5 -22.5t23.5 -57.5q0 -36 -23 -59t-59 -23zM199 -14q-37 0 -59.5 22.5t-22.5 59.5q0 35 22.5 57t59.5 22q36 0 59 -22t23 -57q0 -36 -23 -59t-59 -23z" />
    <glyph glyph-name="semicolon" unicode=";" horiz-adv-x="407" 
d="M211 870q-37 0 -59.5 22.5t-22.5 59.5q0 35 22.5 57.5t59.5 22.5q35 0 58.5 -22.5t23.5 -57.5q0 -36 -23 -59t-59 -23zM127 -182l59 170q-32 3 -50.5 24.5t-18.5 55.5q0 36 22 57.5t60 21.5q37 0 59.5 -22.5t22.5 -61.5q0 -24 -17 -77l-57 -168h-80z" />
    <glyph glyph-name="less" unicode="&#x3c;" horiz-adv-x="1232" 
d="M96 575v78l967 348v-98l-795 -285v-8l795 -284v-99z" />
    <glyph glyph-name="equal" unicode="=" horiz-adv-x="1255" 
d="M117 834h1024v-95h-1024v95zM117 416v92h1024v-92h-1024z" />
    <glyph glyph-name="greater" unicode="&#x3e;" horiz-adv-x="1232" 
d="M1137 653v-78l-967 -348v99l795 284v8l-795 285v98z" />
    <glyph glyph-name="question" unicode="?" horiz-adv-x="1167" 
d="M502 336q0 82 16.5 149.5t44.5 113.5t64 83.5t76.5 65t80.5 52.5t76 51t64 55.5t44.5 71t16.5 93.5q0 72 -30 128t-82.5 89.5t-118.5 50.5t-142 17q-85 0 -158.5 -21t-132 -62.5t-94.5 -108.5t-41 -154h-110q6 99 40.5 177.5t86.5 128t121 82t140 45.5t148 13
q213 0 346.5 -101t133.5 -284q0 -63 -16.5 -113.5t-44.5 -85t-64.5 -63t-76.5 -53.5t-80 -50.5t-76.5 -58.5t-64.5 -74t-44.5 -101.5t-16.5 -135.5h-106zM559 -14q-37 0 -59.5 22.5t-22.5 59.5q0 35 22.5 57t59.5 22q36 0 59 -22t23 -57q0 -36 -23 -59t-59 -23z" />
    <glyph glyph-name="at" unicode="@" horiz-adv-x="1867" 
d="M901 63q-193 0 -316.5 125t-123.5 324t122 324t312 125q114 0 203.5 -49t140.5 -138h8v168h94v-643q0 -82 32.5 -115.5t74.5 -33.5q89 0 149 115t60 280q0 196 -92.5 340.5t-255.5 218.5t-375 74q-216 0 -379 -78.5t-253.5 -230t-90.5 -357.5t92 -358t255 -230t376 -78
h407v-90h-407q-175 0 -324.5 51t-259.5 145.5t-172.5 238.5t-62.5 321q0 178 61 321.5t170 238t259 145.5t329 51q174 0 322.5 -48t259.5 -137.5t174 -228t63 -309.5q0 -209 -85.5 -345.5t-219.5 -136.5q-85 0 -134 55t-59 132h-8q-53 -89 -142.5 -138t-203.5 -49zM901 150
q162 0 254 103t92 259t-92 259t-254 103t-255 -103.5t-93 -258.5t93 -258.5t255 -103.5z" />
    <glyph glyph-name="A" unicode="A" horiz-adv-x="1480" 
d="M1419 0h-112l-172 391h-789l-172 -391h-113l635 1434h88zM391 489h699l-347 783h-8z" />
    <glyph glyph-name="B" unicode="B" horiz-adv-x="1574" 
d="M256 0v1434h702q204 0 320.5 -104t116.5 -259q0 -106 -55.5 -187t-153.5 -128v-8q118 -42 185 -140.5t67 -220.5q0 -169 -124 -278t-339 -109h-719zM365 788h593q156 0 242 76.5t86 198.5q0 121 -85.5 195.5t-242.5 74.5h-593v-545zM365 100h604q172 0 266 82t94 213
t-95.5 213t-268.5 82h-600v-590z" />
    <glyph glyph-name="C" unicode="C" horiz-adv-x="1695" 
d="M874 -23q-205 0 -368.5 97t-253.5 266t-90 377t90 376.5t253.5 265.5t368.5 97q246 0 424 -138t246 -362h-112q-66 183 -213 291.5t-345 108.5q-171 0 -309.5 -81.5t-217.5 -227.5t-79 -330t79 -330t217.5 -227.5t309.5 -81.5q198 0 345 108t213 291h112
q-68 -224 -246 -362t-424 -138z" />
    <glyph glyph-name="D" unicode="D" horiz-adv-x="1642" 
d="M256 0v1434h510q152 0 284.5 -54t227 -148t149 -227.5t54.5 -287.5t-54.5 -287.5t-149 -227.5t-227 -148t-284.5 -54h-510zM365 100h401q167 0 305 75.5t220.5 217.5t82.5 324q0 137 -48 253t-130.5 195t-193.5 123.5t-236 44.5h-401v-1233z" />
    <glyph glyph-name="E" unicode="E" horiz-adv-x="1490" 
d="M365 702v-602h948v-100h-1057v1434h1057v-101h-948v-530h833v-101h-833z" />
    <glyph glyph-name="F" unicode="F" horiz-adv-x="1449" 
d="M365 676v-676h-109v1434h1057v-101h-948v-557h833v-100h-833z" />
    <glyph glyph-name="G" unicode="G" horiz-adv-x="1767" 
d="M870 -23q-203 0 -365 97t-252.5 266t-90.5 377t90.5 377t252.5 265.5t365 96.5q244 0 421.5 -137t248.5 -363h-113q-71 190 -215.5 295t-341.5 105q-172 0 -309.5 -81.5t-215 -227.5t-77.5 -330q0 -279 171 -459t435 -180q239 0 397 151.5t173 391.5h-588v98h690v-719
h-100v313h-8q-85 -172 -236 -254t-332 -82z" />
    <glyph glyph-name="H" unicode="H" horiz-adv-x="1658" 
d="M256 0v1434h109v-631h929v631h109v-1434h-109v702h-929v-702h-109z" />
    <glyph glyph-name="I" unicode="I" horiz-adv-x="620" 
d="M256 0v1434h109v-1434h-109z" />
    <glyph glyph-name="J" unicode="J" horiz-adv-x="1384" 
d="M102 0v100h740q108 0 152 44.5t44 152.5v1137h109v-1153q0 -143 -69.5 -212t-211.5 -69h-764z" />
    <glyph glyph-name="K" unicode="K" horiz-adv-x="1484" 
d="M256 0v1434h109v-631h245l611 631h141l-662 -682l674 -752h-143l-631 707h-235v-707h-109z" />
    <glyph glyph-name="L" unicode="L" horiz-adv-x="1402" 
d="M256 0v1434h109v-1334h935v-100h-1044z" />
    <glyph glyph-name="M" unicode="M" horiz-adv-x="2074" 
d="M1819 1434v-1434h-109v1257h-8l-610 -1257h-109l-610 1257h-8v-1257h-109v1434h152l626 -1291h8l627 1291h150z" />
    <glyph glyph-name="N" unicode="N" horiz-adv-x="1689" 
d="M1434 1434v-1434h-146l-915 1292h-8v-1292h-109v1434h147l914 -1293h8v1293h109z" />
    <glyph glyph-name="O" unicode="O" horiz-adv-x="1742" 
d="M870 -23q-202 0 -364 96t-253 265.5t-91 378.5t91 378t253 265t364 96q151 0 283.5 -56t226 -154t147.5 -235t54 -294q0 -209 -91.5 -378.5t-254.5 -265.5t-365 -96zM870 78q126 0 237 46.5t191.5 129.5t127.5 203t47 260t-47 260t-127.5 203t-191.5 129.5t-237 46.5
q-167 0 -304 -79.5t-217.5 -226.5t-80.5 -333t80.5 -333t217.5 -226.5t304 -79.5z" />
    <glyph glyph-name="P" unicode="P" horiz-adv-x="1568" 
d="M993 584h-628v-584h-109v1434h737q203 0 329 -113t126 -311q0 -200 -126 -313t-329 -113zM365 684h628q168 0 257 90.5t89 235.5q0 143 -89 233t-257 90h-628v-649z" />
    <glyph glyph-name="Q" unicode="Q" horiz-adv-x="1775" 
d="M1581 -31l-211 213q-205 -205 -500 -205q-202 0 -364 96t-253 265.5t-91 378.5t91 378t253 265t364 96q151 0 283.5 -56t226 -154t147.5 -235t54 -294q0 -267 -143 -461l215 -215zM870 78q124 0 233 45t189 127v8l-243 244l71 71l236 -235h10q107 160 107 379
q0 140 -47 260t-127.5 203t-191.5 129.5t-237 46.5q-167 0 -304 -79.5t-217.5 -226.5t-80.5 -333t80.5 -333t217.5 -226.5t304 -79.5z" />
    <glyph glyph-name="R" unicode="R" horiz-adv-x="1583" 
d="M1305 0l-383 625h-557v-625h-109v1434h737q204 0 331.5 -107t127.5 -297q0 -178 -112 -283.5t-296 -117.5l386 -629h-125zM365 725h628q170 0 261.5 84t91.5 221q0 135 -92 219t-261 84h-628v-608z" />
    <glyph glyph-name="S" unicode="S" horiz-adv-x="1482" 
d="M793 -23q-103 0 -193 13t-177 45.5t-150.5 83t-105.5 131t-50 184.5h110q8 -84 44.5 -148t90 -103t127 -64t147 -34t157.5 -9q69 0 127 6t119.5 25t103.5 50t69 84.5t27 125.5q0 82 -36.5 139t-98 87.5t-141.5 49.5t-168.5 30.5t-176.5 24t-168 36.5t-141.5 62t-98 106
t-36.5 163q0 88 34 158t88 112.5t127.5 70.5t145.5 39t150 11q86 0 163 -13t149.5 -42.5t128 -74.5t94 -113.5t51.5 -153.5h-113q-16 80 -62 140t-112.5 93.5t-141 49.5t-157.5 16q-84 0 -158.5 -15.5t-138.5 -48.5t-101.5 -91.5t-37.5 -137.5q0 -75 36.5 -127.5t98 -79.5
t141 -44t167.5 -28.5t176.5 -25t168 -39.5t141 -67t98 -114t36.5 -173q0 -390 -553 -390z" />
    <glyph glyph-name="T" unicode="T" horiz-adv-x="1566" 
d="M729 0v1333h-604v101h1317v-101h-604v-1333h-109z" />
    <glyph glyph-name="U" unicode="U" horiz-adv-x="1599" 
d="M801 -23q-122 0 -229 40t-188.5 115t-129 193t-47.5 265v844h108v-844q0 -125 38.5 -224t105.5 -161t154.5 -94.5t187.5 -32.5t187 32.5t153.5 94.5t104.5 161t38 224v844h109v-844q0 -147 -47.5 -265t-129 -193t-188 -115t-227.5 -40z" />
    <glyph glyph-name="V" unicode="V" horiz-adv-x="1517" 
d="M702 0l-614 1434h115l553 -1293h8l551 1293h115l-613 -1434h-115z" />
    <glyph glyph-name="W" unicode="W" horiz-adv-x="2467" 
d="M2380 1434l-547 -1434h-92l-502 1282h-8l-504 -1282h-92l-547 1434h115l475 -1256h8l492 1256h112l492 -1256h8l477 1256h113z" />
    <glyph glyph-name="X" unicode="X" horiz-adv-x="1521" 
d="M111 0l583 725l-571 709h133l504 -625l504 625h135l-572 -709l584 -725h-135l-516 641l-516 -641h-133z" />
    <glyph glyph-name="Y" unicode="Y" horiz-adv-x="1472" 
d="M682 0v635l-629 799h131l551 -699l553 699h131l-628 -799v-635h-109z" />
    <glyph glyph-name="Z" unicode="Z" horiz-adv-x="1501" 
d="M150 0v80l1028 1245v8h-1016v101h1175v-80l-1026 -1245v-9h1039v-100h-1200z" />
    <glyph glyph-name="bracketleft" unicode="[" horiz-adv-x="681" 
d="M256 -328v1762h342v-93h-240v-1577h240v-92h-342z" />
    <glyph glyph-name="backslash" unicode="\" horiz-adv-x="745" 
d="M166 1434l512 -1844h-98l-512 1844h98z" />
    <glyph glyph-name="bracketright" unicode="]" horiz-adv-x="681" 
d="M426 1434v-1762h-342v92h240v1577h-240v93h342z" />
    <glyph glyph-name="asciicircum" unicode="^" horiz-adv-x="927" 
d="M70 819l342 615h104l342 -615h-102l-287 514h-8l-287 -514h-104z" />
    <glyph glyph-name="underscore" unicode="_" horiz-adv-x="1357" 
d="M117 -324v99h1126v-99h-1126z" />
    <glyph glyph-name="grave" unicode="`" horiz-adv-x="1024" 
d="M397 1434l164 -267h-108l-164 267h108z" />
    <glyph glyph-name="a" unicode="a" horiz-adv-x="1210" 
d="M440 -23q-44 0 -82.5 5t-85.5 22t-80.5 45t-56 79t-22.5 120q0 55 16.5 99.5t44 75t70 55.5t86.5 40.5t102 30.5l455 115v18q0 64 -19.5 113t-49.5 77.5t-71.5 46t-79 23.5t-77.5 6q-127 0 -219.5 -60t-110.5 -173h-106q19 150 137 237.5t299 87.5q51 0 97.5 -6.5
t104 -30t98.5 -62t69 -108.5t28 -163v-518q0 -31 12 -43.5t43 -12.5h66v-96h-90q-116 0 -125 109l-4 81h-8q-64 -100 -179.5 -156.5t-261.5 -56.5zM446 70q62 0 122.5 12.5t118.5 41t102 71t71 108t27 146.5v118l-443 -110q-128 -33 -178.5 -80t-50.5 -125q0 -182 231 -182z
" />
    <glyph glyph-name="b" unicode="b" horiz-adv-x="1359" 
d="M735 -23q-139 0 -247.5 62.5t-168.5 175.5h-8v-215h-100v1434h100v-629h8q60 111 169 173t247 62q223 0 366.5 -149t143.5 -381q0 -233 -143.5 -383t-366.5 -150zM727 72q185 0 301.5 122.5t116.5 315.5q0 192 -117 315t-301 123t-301 -123t-117 -315
q0 -193 116.5 -315.5t301.5 -122.5z" />
    <glyph glyph-name="c" unicode="c" horiz-adv-x="1220" 
d="M629 -23q-229 0 -371.5 150.5t-142.5 382.5q0 230 142.5 380t371.5 150q185 0 315.5 -101.5t173.5 -272.5h-104q-44 132 -143.5 207t-241.5 75q-186 0 -300 -123t-114 -315t114 -315t300 -123q142 0 241.5 74.5t143.5 205.5h104q-43 -171 -173.5 -273t-315.5 -102z" />
    <glyph glyph-name="d" unicode="d" horiz-adv-x="1359" 
d="M625 -23q-223 0 -366.5 150t-143.5 383q0 232 143.5 381t366.5 149q138 0 246 -62t169 -173h9v629h100v-1434h-100v215h-9q-60 -113 -168 -175.5t-247 -62.5zM633 72q185 0 301.5 122.5t116.5 315.5q0 192 -117 315t-301 123t-301 -123t-117 -315q0 -193 116.5 -315.5
t301.5 -122.5z" />
    <glyph glyph-name="e" unicode="e" horiz-adv-x="1247" 
d="M633 -23q-221 0 -369.5 152t-148.5 381q0 151 68.5 272.5t187 189.5t262.5 68q216 0 358 -145t142 -363l-5 -63h-911q12 -175 129 -287t287 -112q121 0 217.5 59.5t146.5 161.5h109q-62 -153 -190.5 -233.5t-282.5 -80.5zM219 561h811q-11 170 -122 278.5t-275 108.5
q-163 0 -280 -108.5t-134 -278.5z" />
    <glyph glyph-name="f" unicode="f" horiz-adv-x="1155" 
d="M96 926v92h285v147q0 138 65 203.5t203 65.5h410v-95h-391q-103 0 -145 -41.5t-42 -144.5v-135h578v-92h-578v-926h-100v926h-285z" />
    <glyph glyph-name="g" unicode="g" horiz-adv-x="1359" 
d="M625 1040q138 0 246 -62t169 -173h9v213h100v-971q0 -217 -129 -348t-371 -131q-189 0 -312.5 81.5t-172.5 221.5h104q47 -97 143 -154t238 -57q189 0 294.5 102.5t105.5 284.5v168h-9q-60 -113 -168 -175.5t-247 -62.5q-223 0 -366.5 150t-143.5 383q0 232 143.5 381
t366.5 149zM633 948q-184 0 -301 -123t-117 -315q0 -193 116.5 -315.5t301.5 -122.5t301.5 122.5t116.5 315.5q0 192 -117 315t-301 123z" />
    <glyph glyph-name="h" unicode="h" horiz-adv-x="1298" 
d="M211 0v1434h100v-605h8q49 95 143 153t224 58q86 0 161 -27.5t133 -79.5t92 -135.5t34 -187.5v-610h-100v592q0 75 -19 136.5t-51 101.5t-75.5 67t-90 39t-96.5 12q-54 0 -104 -14t-98 -46t-83 -79t-56.5 -119t-21.5 -160v-530h-100z" />
    <glyph glyph-name="i" unicode="i" horiz-adv-x="579" 
d="M289 1294q-35 0 -57.5 21t-22.5 55t22.5 56t57.5 22t57.5 -22t22.5 -56t-22.5 -55t-57.5 -21zM240 0v1018h100v-1018h-100z" />
    <glyph glyph-name="j" unicode="j" horiz-adv-x="550" 
d="M260 1294q-35 0 -57.5 21t-22.5 55t22.5 56t57.5 22t57.5 -22t22.5 -56t-22.5 -55t-57.5 -21zM-27 -410v97h90q77 0 112.5 35.5t35.5 111.5v1184h100v-1192q0 -120 -57.5 -178t-177.5 -58h-103z" />
    <glyph glyph-name="k" unicode="k" horiz-adv-x="1150" 
d="M211 0v1434h100v-859h195l430 443h131l-475 -488l479 -530h-131l-436 483h-193v-483h-100z" />
    <glyph glyph-name="l" unicode="l" horiz-adv-x="604" 
d="M428 0q-120 0 -177.5 58t-57.5 178v1198h100v-1190q0 -77 35.5 -112.5t111.5 -35.5h70v-96h-82z" />
    <glyph glyph-name="m" unicode="m" horiz-adv-x="2043" 
d="M211 0v1018h100v-189h8q47 95 139.5 153t219.5 58q130 0 229.5 -66t143.5 -194h8q40 121 148 190.5t241 69.5q171 0 287 -112.5t116 -317.5v-610h-100v594q0 93 -27.5 163.5t-74 111t-101.5 60t-116 19.5q-65 0 -125 -23t-112 -70.5t-83 -131.5t-31 -193v-530h-100v594
q0 93 -27.5 163.5t-74 111t-101.5 60t-116 19.5q-65 0 -125 -23t-112 -70.5t-83 -131.5t-31 -193v-530h-100z" />
    <glyph glyph-name="n" unicode="n" horiz-adv-x="1298" 
d="M211 0v1018h100v-189h8q49 95 143 153t224 58q86 0 161 -27.5t133 -79.5t92 -135.5t34 -187.5v-610h-100v592q0 75 -19 136.5t-51 101.5t-75.5 67t-90 39t-96.5 12q-54 0 -104 -14t-98 -46t-83 -79t-56.5 -119t-21.5 -160v-530h-100z" />
    <glyph glyph-name="o" unicode="o" horiz-adv-x="1267" 
d="M633 -23q-225 0 -371.5 150t-146.5 383q0 231 146.5 380.5t371.5 149.5t372.5 -149.5t147.5 -380.5q0 -232 -147.5 -382.5t-372.5 -150.5zM633 72q185 0 301.5 122.5t116.5 315.5q0 192 -117 315t-301 123t-301 -123t-117 -315q0 -193 116.5 -315.5t301.5 -122.5z" />
    <glyph glyph-name="p" unicode="p" horiz-adv-x="1359" 
d="M735 1040q223 0 366.5 -149t143.5 -381q0 -233 -143.5 -383t-366.5 -150q-139 0 -247.5 62.5t-168.5 175.5h-8v-625h-100v1428h100v-213h8q60 111 169 173t247 62zM727 72q185 0 301.5 122.5t116.5 315.5q0 192 -117 315t-301 123t-301 -123t-117 -315
q0 -193 116.5 -315.5t301.5 -122.5z" />
    <glyph glyph-name="q" unicode="q" horiz-adv-x="1359" 
d="M625 1040q138 0 246 -62t169 -173h9v213h100v-1428h-100v625h-9q-60 -113 -168 -175.5t-247 -62.5q-223 0 -366.5 150t-143.5 383q0 232 143.5 381t366.5 149zM633 72q185 0 301.5 122.5t116.5 315.5q0 192 -117 315t-301 123t-301 -123t-117 -315q0 -193 116.5 -315.5
t301.5 -122.5z" />
    <glyph glyph-name="r" unicode="r" horiz-adv-x="1034" 
d="M211 0v1018h100v-189h8q92 189 338 189h281v-96h-281q-56 0 -104 -11t-93.5 -38t-77.5 -69t-51.5 -108.5t-19.5 -152.5v-543h-100z" />
    <glyph glyph-name="s" unicode="s" horiz-adv-x="1107" 
d="M573 -23q-69 0 -131.5 9.5t-123.5 34t-106.5 62.5t-77 97.5t-38.5 136.5h107q7 -67 42.5 -117t89.5 -77.5t113 -40t125 -12.5q56 0 106.5 9t99.5 30t78.5 63t29.5 100q0 67 -41.5 109.5t-108 61t-147 30.5t-161 27.5t-147 41.5t-108 82t-41.5 140q0 65 26 115t66.5 79.5
t96 48.5t108 26t109.5 7q79 0 147 -14.5t130.5 -46t103 -92t49.5 -144.5h-107q-9 58 -40.5 100t-79 64t-97.5 31.5t-106 9.5q-40 0 -77.5 -4t-80.5 -16t-74.5 -31.5t-52.5 -53.5t-21 -79q0 -48 26 -82t69.5 -52.5t100.5 -31t119.5 -22t125 -20.5t119.5 -31.5t100.5 -50.5
t69.5 -81.5t26 -120.5q0 -68 -25 -121t-65 -85t-96 -52.5t-111.5 -28.5t-118.5 -8z" />
    <glyph glyph-name="t" unicode="t" horiz-adv-x="1191" 
d="M649 0q-138 0 -203 65t-65 203v658h-285v92h285v368h100v-368h578v-92h-578v-645q0 -103 42 -145t145 -42h391v-94h-410z" />
    <glyph glyph-name="u" unicode="u" horiz-adv-x="1298" 
d="M1087 1018v-1018h-100v188h-8q-49 -95 -143 -153t-224 -58q-86 0 -161 27.5t-133 80t-91.5 136t-33.5 187.5v610h100v-592q0 -75 19 -136.5t51 -101.5t75.5 -67t90 -39t96.5 -12q54 0 104 13.5t97.5 45.5t82.5 79t56.5 119t21.5 160v531h100z" />
    <glyph glyph-name="v" unicode="v" horiz-adv-x="1236" 
d="M559 0l-467 1018h109l413 -901h9l413 901h109l-467 -1018h-119z" />
    <glyph glyph-name="w" unicode="w" horiz-adv-x="1992" 
d="M532 0l-415 1018h106l361 -881h8l348 881h115l348 -881h8l361 881h106l-418 -1018h-108l-351 887h-8l-352 -887h-109z" />
    <glyph glyph-name="x" unicode="x" horiz-adv-x="1116" 
d="M80 0l416 512l-412 506h127l348 -428l348 428h125l-411 -506l415 -512h-125l-352 434l-352 -434h-127z" />
    <glyph glyph-name="y" unicode="y" horiz-adv-x="1206" 
d="M162 -410v97h147q70 0 108.5 27.5t63.5 86.5l88 205l-477 1012h113l411 -877h13l377 877h108l-539 -1254q-42 -97 -101.5 -135.5t-164.5 -38.5h-147z" />
    <glyph glyph-name="z" unicode="z" horiz-adv-x="1073" 
d="M123 0v70l672 848v8h-664v92h811v-70l-672 -848v-8h680v-92h-827z" />
    <glyph glyph-name="braceleft" unicode="{" horiz-adv-x="677" 
d="M102 504h-24v98h24q77 0 120.5 41t43.5 117v438q0 123 56.5 179.5t179.5 56.5h106v-93h-98q-74 0 -108.5 -34.5t-34.5 -108.5v-389q0 -209 -144 -252v-8q144 -43 144 -252v-389q0 -74 35 -109t108 -35h98v-92h-106q-123 0 -179.5 56.5t-56.5 179.5v438q0 76 -43.5 117
t-120.5 41z" />
    <glyph glyph-name="bar" unicode="|" horiz-adv-x="522" 
d="M211 -410v1844h100v-1844h-100z" />
    <glyph glyph-name="braceright" unicode="}" horiz-adv-x="677" 
d="M600 504h-25q-77 0 -120 -41t-43 -117v-438q0 -123 -56.5 -179.5t-179.5 -56.5h-106v92h98q73 0 108 35t35 109v389q0 209 144 252v8q-144 43 -144 252v389q0 74 -34.5 108.5t-108.5 34.5h-98v93h106q123 0 179.5 -56.5t56.5 -179.5v-438q0 -76 43 -117t120 -41h25v-98z
" />
    <glyph glyph-name="asciitilde" unicode="~" horiz-adv-x="1202" 
d="M362 748q70 0 139 -27t116 -59.5t108.5 -59.5t118.5 -27q75 0 117 39.5t47 98.5h86q-8 -107 -75.5 -169.5t-178.5 -62.5q-70 0 -139 27t-116 59t-108.5 59t-118.5 27q-75 0 -115.5 -39t-47.5 -98h-86q8 107 75 169.5t178 62.5z" />
    <glyph glyph-name="exclamdown" unicode="&#xa1;" horiz-adv-x="491" 
d="M246 1032q36 0 59 -23t23 -59q0 -35 -23.5 -57.5t-58.5 -22.5q-37 0 -59.5 22.5t-22.5 57.5q0 37 22.5 59.5t59.5 22.5zM295 682l4 -1098h-109l5 1098h100z" />
    <glyph glyph-name="cent" unicode="&#xa2;" horiz-adv-x="1220" 
d="M573 -225v207q-208 19 -333 165t-125 363q0 216 125.5 362.5t332.5 165.5v211h105v-211q167 -13 283.5 -112.5t156.5 -259.5h-104q-44 132 -143.5 207t-241.5 75q-186 0 -300 -123t-114 -315t114 -315t300 -123q142 0 241.5 74.5t143.5 205.5h104q-40 -159 -156.5 -259
t-283.5 -113v-205h-105z" />
    <glyph glyph-name="sterling" unicode="&#xa3;" horiz-adv-x="1437" 
d="M178 578v100h211q-9 52 -32.5 119.5t-39.5 130.5t-16 131q0 198 128 297.5t343 99.5q434 0 508 -416h-111q-33 154 -124 235t-273 81q-53 0 -99.5 -6.5t-97 -26.5t-86 -51.5t-58.5 -86t-23 -126.5q0 -80 40 -197t50 -184h516v-100h-510q-2 -138 -42.5 -248.5
t-131.5 -220.5v-9h950v-100h-1102v80q107 115 163 235t56 263h-219z" />
    <glyph glyph-name="currency" unicode="&#xa4;" horiz-adv-x="1318" 
d="M659 166q-165 0 -284 98l-137 -137l-80 80l139 139q-78 115 -78 268q0 154 78 269l-139 139l80 80l137 -137q119 98 284 98q166 0 285 -98l137 137l80 -80l-139 -139q78 -115 78 -269q0 -153 -78 -268l139 -139l-80 -80l-137 137q-119 -98 -285 -98zM659 254
q162 0 254.5 102.5t92.5 257.5t-92.5 258t-254.5 103t-254 -103t-92 -258t92 -257.5t254 -102.5z" />
    <glyph glyph-name="yen" unicode="&#xa5;" horiz-adv-x="1441" 
d="M1196 696v-100h-950v100h364v9l-473 729h117l463 -719h8l463 719h117l-474 -729v-9h365zM246 346v100h950v-100h-422v-346h-106v346h-422z" />
    <glyph glyph-name="brokenbar" unicode="&#xa6;" horiz-adv-x="522" 
d="M211 717v717h100v-717h-100zM211 -410v717h100v-717h-100z" />
    <glyph glyph-name="section" unicode="&#xa7;" horiz-adv-x="1386" 
d="M731 -432q-127 0 -235.5 32t-182.5 87.5t-119.5 126.5t-56.5 151h111q30 -131 154.5 -215t328.5 -84q175 0 279 64t104 174q0 83 -65 143.5t-170 89.5l-430 119q-353 96 -353 356q0 193 180 271v8q-112 91 -112 229q0 69 26 125.5t71.5 95t108 65t133.5 38.5t150 12
q253 0 412 -115t184 -282h-112q-28 131 -153 215t-331 84q-174 0 -277.5 -64t-103.5 -174q0 -83 65 -143.5t169 -89.5l432 -119q352 -97 352 -356q0 -193 -182 -271v-8q115 -90 115 -229q0 -86 -40 -152t-109.5 -105t-156 -59t-186.5 -20zM381 829q-88 -23 -133 -80
t-45 -137q0 -190 256 -258l415 -114q70 -18 132 -45q87 23 131.5 80t44.5 137q0 190 -254 258l-418 114q-68 18 -129 45z" />
    <glyph glyph-name="dieresis" unicode="&#xa8;" horiz-adv-x="1024" 
d="M334 1294q-35 0 -57.5 21t-22.5 55t22.5 56t57.5 22q34 0 56 -22t22 -56t-22 -55t-56 -21zM690 1294q-34 0 -56 21t-22 55t22 56t56 22q35 0 57.5 -22t22.5 -56t-22.5 -55t-57.5 -21z" />
    <glyph glyph-name="copyright" unicode="&#xa9;" horiz-adv-x="1824" 
d="M911 -23q-211 0 -380.5 90t-269 259.5t-99.5 390.5q0 220 99.5 390t269 259.5t380.5 89.5q158 0 295.5 -52.5t238.5 -147t159.5 -234t58.5 -305.5q0 -220 -100 -390t-270.5 -260t-381.5 -90zM911 66q188 0 336.5 79.5t234 228.5t85.5 343t-85.5 343t-234 228.5
t-336.5 79.5q-187 0 -335.5 -79.5t-234 -228.5t-85.5 -343t85.5 -343t234 -228.5t335.5 -79.5zM911 303q-176 0 -284.5 113t-108.5 301t108.5 300.5t284.5 112.5q141 0 249 -75t143 -221h-101q-19 58 -52 100.5t-73.5 65t-81 32.5t-84.5 10q-136 0 -216.5 -87.5
t-80.5 -237.5t80.5 -238t216.5 -88q44 0 84.5 10.5t81 33t73.5 65t52 100.5h101q-35 -146 -143 -221.5t-249 -75.5z" />
    <glyph glyph-name="ordfeminine" unicode="&#xaa;" horiz-adv-x="993" 
d="M346 555q-39 0 -74 5.5t-72 21t-63.5 41t-43.5 68.5t-17 100t18.5 99t57 70.5t82 46.5t108.5 35l381 95v14q0 65 -23.5 110t-63.5 66t-77.5 29t-81.5 8q-111 0 -183 -45.5t-89 -136.5h-96q19 128 116.5 198t251.5 70q43 0 83 -5.5t89 -25t84.5 -51.5t59.5 -90t24 -135
v-436q0 -25 10 -35t35 -10h56v-89h-78q-51 0 -80.5 25.5t-32.5 71.5l-2 63h-8q-58 -83 -154.5 -130.5t-216.5 -47.5zM354 641q65 0 128 19t118 56t89 101.5t34 147.5v84l-369 -93q-106 -27 -146 -63t-40 -100q0 -45 17 -77t46 -47t58.5 -21.5t64.5 -6.5z" />
    <glyph glyph-name="guillemotleft" unicode="&#xab;" horiz-adv-x="933" 
d="M379 160l-324 372l324 373h119l-324 -373l324 -372h-119zM733 160l-323 372l323 373h119l-324 -373l324 -372h-119z" />
    <glyph glyph-name="logicalnot" unicode="&#xac;" horiz-adv-x="1234" 
d="M1026 86v481h-930v95h1024v-576h-94z" />
    <glyph glyph-name="registered" unicode="&#xae;" horiz-adv-x="1288" 
d="M645 391q-230 0 -380 151t-150 380t150 379.5t380 150.5t379.5 -150.5t149.5 -379.5t-149.5 -380t-379.5 -151zM645 469q195 0 320 128.5t125 324.5t-125 324t-320 128q-196 0 -321 -128t-125 -324t125.5 -324.5t320.5 -128.5zM444 692v459h275q70 0 115 -39.5t45 -101.5
q0 -54 -35 -91.5t-94 -46.5l124 -180h-90l-120 178h-142v-178h-78zM522 940h197q39 0 60.5 21t21.5 49q0 29 -21.5 49t-60.5 20h-197v-139z" />
    <glyph glyph-name="macron" unicode="&#xaf;" horiz-adv-x="1024" 
d="M164 1257v86h696v-86h-696z" />
    <glyph glyph-name="degree" unicode="&#xb0;" horiz-adv-x="811" 
d="M406 756q-155 0 -257 98.5t-102 249.5q0 150 102 249t257 99t256.5 -99t101.5 -249q0 -151 -101.5 -249.5t-256.5 -98.5zM670 1104q0 112 -73.5 186t-190.5 74t-191 -74t-74 -186q0 -114 74 -188t191 -74t190.5 74t73.5 188z" />
    <glyph glyph-name="plusminus" unicode="&#xb1;" horiz-adv-x="1255" 
d="M117 680v92h465v459h92v-459h467v-92h-467v-457h-92v457h-465zM117 0v94h1024v-94h-1024z" />
    <glyph glyph-name="twosuperior" unicode="&#xb2;" horiz-adv-x="794" 
d="M78 737v62l420 403q64 61 87 103t23 84q0 41 -18.5 70.5t-49 43.5t-60.5 19.5t-64 5.5q-100 0 -165 -47.5t-75 -143.5h-98q6 73 36.5 128t78 87t104 48t119.5 16q57 0 107 -13t91 -39.5t64.5 -71t23.5 -103.5q0 -75 -38.5 -132.5t-122.5 -136.5l-301 -286v-9h462v-88
h-624z" />
    <glyph glyph-name="threesuperior" unicode="&#xb3;" horiz-adv-x="845" 
d="M442 719q-70 0 -130.5 15t-110.5 45.5t-80 82.5t-33 121h96q4 -85 77.5 -131.5t180.5 -46.5q96 0 165 41.5t69 126.5q0 73 -57 120.5t-179 47.5h-127v86h121q219 0 219 153q0 46 -21 77.5t-56.5 46.5t-69 20.5t-72.5 5.5q-99 0 -165 -41.5t-76 -136.5h-97
q5 59 26.5 105.5t54 76t76 48.5t88 26.5t93.5 7.5q136 0 225 -58t89 -174q0 -132 -125 -186v-8q147 -60 147 -217q0 -123 -90.5 -188.5t-237.5 -65.5z" />
    <glyph glyph-name="acute" unicode="&#xb4;" horiz-adv-x="1024" 
d="M463 1167l164 267h108l-164 -267h-108z" />
    <glyph glyph-name="paragraph" unicode="&#xb6;" horiz-adv-x="1038" 
d="M526 0v696q-450 0 -450 369t450 369h303v-1434h-94v1337h-114v-1337h-95z" />
    <glyph glyph-name="periodcentered" unicode="&#xb7;" horiz-adv-x="395" 
d="M199 442q-37 0 -59.5 22.5t-22.5 59.5q0 35 22.5 57.5t59.5 22.5q35 0 58.5 -22.5t23.5 -57.5q0 -36 -23 -59t-59 -23z" />
    <glyph glyph-name="cedilla" unicode="&#xb8;" horiz-adv-x="1024" 
d="M373 -410v84h80q54 0 91.5 26t37.5 75t-37.5 74.5t-91.5 25.5h-43l90 166h82l-64 -111q75 -13 115.5 -56.5t40.5 -106.5q0 -83 -61.5 -130t-159.5 -47h-80z" />
    <glyph glyph-name="onesuperior" unicode="&#xb9;" horiz-adv-x="536" 
d="M272 737v742l-206 -99l-23 88l279 129h45v-860h-95z" />
    <glyph glyph-name="ordmasculine" unicode="&#xba;" horiz-adv-x="974" 
d="M487 555q-194 0 -317 125t-123 324t123 323.5t317 124.5t317.5 -124.5t123.5 -323.5t-123.5 -324t-317.5 -125zM487 643q162 0 254.5 103t92.5 258t-92.5 257.5t-254.5 102.5t-254 -102.5t-92 -257.5t92 -258t254 -103z" />
    <glyph glyph-name="guillemotright" unicode="&#xbb;" horiz-adv-x="933" 
d="M879 532l-324 -372h-119l324 372l-324 373h119zM524 532l-323 -372h-119l324 372l-324 373h119z" />
    <glyph glyph-name="onequarter" unicode="&#xbc;" horiz-adv-x="1511" 
d="M272 573v742l-206 -98l-23 88l279 129h45v-861h-95zM221 0l776 1434h99l-777 -1434h-98zM1217 0v219h-476v72l492 569h78v-553h114v-88h-114v-219h-94zM872 307h345v395h-9l-336 -387v-8z" />
    <glyph glyph-name="onehalf" unicode="&#xbd;" horiz-adv-x="1570" 
d="M272 573v742l-206 -98l-23 88l279 129h45v-861h-95zM221 0l776 1434h99l-777 -1434h-98zM854 0v61l420 404q64 61 87 103t23 83t-18.5 70.5t-49 43.5t-61 20t-63.5 6q-100 0 -165 -47.5t-75 -143.5h-98q6 73 36.5 128t78 87t104 48t119.5 16q77 0 140 -22.5t105 -75.5
t42 -130q0 -75 -38.5 -131.5t-123.5 -136.5l-301 -287v-8h463v-88h-625z" />
    <glyph glyph-name="threequarters" unicode="&#xbe;" horiz-adv-x="1820" 
d="M442 555q-70 0 -130.5 15t-110.5 45.5t-80 82.5t-33 121h96q4 -85 77.5 -131.5t180.5 -46.5q96 0 165 41.5t69 126.5q0 73 -57 120.5t-179 47.5h-127v86h121q219 0 219 154q0 46 -21 77.5t-56.5 46t-69 20t-72.5 5.5q-99 0 -165 -41.5t-76 -136.5h-97q5 59 26.5 105.5
t54 76t76 48.5t88 26.5t93.5 7.5q137 0 225.5 -57.5t88.5 -173.5q0 -133 -125 -187v-8q147 -60 147 -217q0 -123 -90.5 -188.5t-237.5 -65.5zM532 0l777 1434h98l-776 -1434h-99zM1526 0v219h-475v72l491 569h78v-553h115v-88h-115v-219h-94zM1182 307h344v395h-8l-336 -387
v-8z" />
    <glyph glyph-name="questiondown" unicode="&#xbf;" horiz-adv-x="1167" 
d="M608 1032q37 0 59.5 -22.5t22.5 -59.5q0 -35 -22.5 -57.5t-59.5 -22.5q-35 0 -58.5 22.5t-23.5 57.5q0 36 23 59t59 23zM666 682q0 -82 -16.5 -149.5t-44.5 -113.5t-64.5 -83.5t-76.5 -65t-80 -52.5t-76.5 -51t-64.5 -55.5t-44.5 -71t-16.5 -93.5q0 -72 30 -128
t82.5 -89.5t118.5 -50.5t142 -17q85 0 158.5 21t132 62.5t94.5 108.5t41 154h111q-6 -99 -40.5 -177.5t-86.5 -128t-121.5 -82t-140.5 -45.5t-148 -13q-213 0 -346 101t-133 284q0 63 16.5 113.5t44.5 85t64 63t76.5 53.5t80.5 50.5t76 58.5t64 74t44.5 101.5t16.5 135.5
h107z" />
    <glyph glyph-name="Agrave" unicode="&#xc0;" horiz-adv-x="1480" 
d="M625 1849l163 -266h-108l-164 266h109zM1419 0h-112l-172 391h-789l-172 -391h-113l635 1434h88zM391 489h699l-347 783h-8z" />
    <glyph glyph-name="Aacute" unicode="&#xc1;" horiz-adv-x="1480" 
d="M690 1583l164 266h109l-164 -266h-109zM1419 0h-112l-172 391h-789l-172 -391h-113l635 1434h88zM391 489h699l-347 783h-8z" />
    <glyph glyph-name="Acircumflex" unicode="&#xc2;" horiz-adv-x="1480" 
d="M483 1583l217 272h78l217 -272h-102l-150 189h-8l-149 -189h-103zM1419 0h-112l-172 391h-789l-172 -391h-113l635 1434h88zM391 489h699l-347 783h-8z" />
    <glyph glyph-name="Atilde" unicode="&#xc3;" horiz-adv-x="1480" 
d="M592 1827q46 0 89.5 -21t72 -45.5t64.5 -45.5t69 -21q40 0 66 28.5t30 83.5h82q-4 -97 -52.5 -148.5t-125.5 -51.5q-46 0 -89.5 21t-72 45.5t-64.5 45.5t-69 21q-40 0 -66 -29t-30 -84h-82q4 97 52.5 149t125.5 52zM1419 0h-112l-172 391h-789l-172 -391h-113l635 1434
h88zM391 489h699l-347 783h-8z" />
    <glyph glyph-name="Adieresis" unicode="&#xc4;" horiz-adv-x="1480" 
d="M561 1710q-35 0 -57.5 21t-22.5 55t22.5 56t57.5 22q34 0 56 -22t22 -56t-22 -55t-56 -21zM918 1710q-34 0 -56 21t-22 55t22 56t56 22q35 0 57 -22t22 -56t-22 -55t-57 -21zM1419 0h-112l-172 391h-789l-172 -391h-113l635 1434h88zM391 489h699l-347 783h-8z" />
    <glyph glyph-name="Aring" unicode="&#xc5;" horiz-adv-x="1480" 
d="M739 1573q-87 0 -142.5 52.5t-55.5 135.5q0 84 55.5 137.5t142.5 53.5t143 -53.5t56 -137.5q0 -83 -56 -135.5t-143 -52.5zM651 1733q15 -37 49 -53t70 -3q37 14 53.5 46.5t3.5 68.5q-15 37 -48 52t-70 3q-37 -14 -54 -46t-4 -68zM1419 0h-112l-172 391h-789l-172 -391
h-113l635 1434h88zM391 489h699l-347 783h-8z" />
    <glyph glyph-name="AE" unicode="&#xc6;" horiz-adv-x="2301" 
d="M53 0l1051 1434h1020v-101h-881v-530h766v-101h-766v-602h881v-100h-987v391h-678l-287 -391h-119zM530 489h607v816h-9z" />
    <glyph glyph-name="Ccedilla" unicode="&#xc7;" horiz-adv-x="1695" 
d="M731 -410v84h78q55 0 93 25.5t38 75.5q0 49 -37.5 74.5t-93.5 25.5h-41l57 105q-193 12 -345 111.5t-235 263t-83 362.5q0 208 90 376.5t253.5 265.5t368.5 97q246 0 424 -138t246 -362h-112q-66 183 -213 291.5t-345 108.5q-171 0 -309.5 -81.5t-217.5 -227.5t-79 -330
t79 -330t217.5 -227.5t309.5 -81.5q198 0 345 108t213 291h112q-66 -218 -235.5 -354.5t-405.5 -145.5l-26 -47q75 -13 115 -56.5t40 -106.5q0 -83 -62.5 -130t-160.5 -47h-78z" />
    <glyph glyph-name="Egrave" unicode="&#xc8;" horiz-adv-x="1490" 
d="M678 1849l164 -266h-109l-164 266h109zM365 702v-602h948v-100h-1057v1434h1057v-101h-948v-530h833v-101h-833z" />
    <glyph glyph-name="Eacute" unicode="&#xc9;" horiz-adv-x="1490" 
d="M743 1583l164 266h109l-164 -266h-109zM365 702v-602h948v-100h-1057v1434h1057v-101h-948v-530h833v-101h-833z" />
    <glyph glyph-name="Ecircumflex" unicode="&#xca;" horiz-adv-x="1490" 
d="M537 1583l217 272h77l218 -272h-103l-149 189h-9l-149 -189h-102zM365 702v-602h948v-100h-1057v1434h1057v-101h-948v-530h833v-101h-833z" />
    <glyph glyph-name="Edieresis" unicode="&#xcb;" horiz-adv-x="1490" 
d="M614 1710q-35 0 -57 21t-22 55t22 56t57 22q34 0 56 -22t22 -56t-22 -55t-56 -21zM971 1710q-34 0 -56 21t-22 55t22 56t56 22q35 0 57.5 -22t22.5 -56t-22.5 -55t-57.5 -21zM365 702v-602h948v-100h-1057v1434h1057v-101h-948v-530h833v-101h-833z" />
    <glyph glyph-name="Igrave" unicode="&#xcc;" horiz-adv-x="620" 
d="M197 1849l163 -266h-108l-164 266h109zM256 0v1434h109v-1434h-109z" />
    <glyph glyph-name="Iacute" unicode="&#xcd;" horiz-adv-x="620" 
d="M262 1583l164 266h109l-164 -266h-109zM256 0v1434h109v-1434h-109z" />
    <glyph glyph-name="Icircumflex" unicode="&#xce;" horiz-adv-x="620" 
d="M55 1583l217 272h78l217 -272h-102l-150 189h-8l-149 -189h-103zM256 0v1434h109v-1434h-109z" />
    <glyph glyph-name="Idieresis" unicode="&#xcf;" horiz-adv-x="620" 
d="M133 1710q-35 0 -57.5 21t-22.5 55t22.5 56t57.5 22q34 0 56 -22t22 -56t-22 -55t-56 -21zM489 1710q-34 0 -55.5 21t-21.5 55t21.5 56t55.5 22q35 0 57.5 -22t22.5 -56t-22.5 -55t-57.5 -21zM256 0v1434h109v-1434h-109z" />
    <glyph glyph-name="Eth" unicode="&#xd0;" horiz-adv-x="1683" 
d="M297 0v702h-248v101h248v631h510q152 0 284.5 -54t227 -148t149 -227.5t54.5 -287.5t-54.5 -287.5t-149 -227.5t-227 -148t-284.5 -54h-510zM406 100h401q167 0 305 75.5t220.5 217.5t82.5 324q0 137 -48 253t-130.5 195t-193.5 123.5t-236 44.5h-401v-530h442v-101h-442
v-602z" />
    <glyph glyph-name="Ntilde" unicode="&#xd1;" horiz-adv-x="1689" 
d="M702 1827q46 0 89.5 -21t72 -45.5t64.5 -45.5t69 -21q40 0 66.5 28.5t30.5 83.5h82q-4 -97 -53 -148.5t-126 -51.5q-46 0 -89.5 21t-72 45.5t-64.5 45.5t-69 21q-40 0 -66 -29t-30 -84h-82q4 97 52.5 149t125.5 52zM1434 1434v-1434h-146l-915 1292h-8v-1292h-109v1434
h147l914 -1293h8v1293h109z" />
    <glyph glyph-name="Ograve" unicode="&#xd2;" horiz-adv-x="1742" 
d="M756 1849l164 -266h-109l-164 266h109zM870 -23q-202 0 -364 96t-253 265.5t-91 378.5t91 378t253 265t364 96q151 0 283.5 -56t226 -154t147.5 -235t54 -294q0 -209 -91.5 -378.5t-254.5 -265.5t-365 -96zM870 78q126 0 237 46.5t191.5 129.5t127.5 203t47 260t-47 260
t-127.5 203t-191.5 129.5t-237 46.5q-167 0 -304 -79.5t-217.5 -226.5t-80.5 -333t80.5 -333t217.5 -226.5t304 -79.5z" />
    <glyph glyph-name="Oacute" unicode="&#xd3;" horiz-adv-x="1742" 
d="M821 1583l164 266h109l-164 -266h-109zM870 -23q-202 0 -364 96t-253 265.5t-91 378.5t91 378t253 265t364 96q151 0 283.5 -56t226 -154t147.5 -235t54 -294q0 -209 -91.5 -378.5t-254.5 -265.5t-365 -96zM870 78q126 0 237 46.5t191.5 129.5t127.5 203t47 260t-47 260
t-127.5 203t-191.5 129.5t-237 46.5q-167 0 -304 -79.5t-217.5 -226.5t-80.5 -333t80.5 -333t217.5 -226.5t304 -79.5z" />
    <glyph glyph-name="Ocircumflex" unicode="&#xd4;" horiz-adv-x="1742" 
d="M614 1583l217 272h78l217 -272h-102l-150 189h-8l-149 -189h-103zM870 -23q-202 0 -364 96t-253 265.5t-91 378.5t91 378t253 265t364 96q151 0 283.5 -56t226 -154t147.5 -235t54 -294q0 -209 -91.5 -378.5t-254.5 -265.5t-365 -96zM870 78q126 0 237 46.5t191.5 129.5
t127.5 203t47 260t-47 260t-127.5 203t-191.5 129.5t-237 46.5q-167 0 -304 -79.5t-217.5 -226.5t-80.5 -333t80.5 -333t217.5 -226.5t304 -79.5z" />
    <glyph glyph-name="Otilde" unicode="&#xd5;" horiz-adv-x="1742" 
d="M723 1827q46 0 89.5 -21t72 -45.5t64.5 -45.5t69 -21q40 0 66 28.5t30 83.5h82q-4 -97 -52.5 -148.5t-125.5 -51.5q-46 0 -89.5 21t-72 45.5t-64.5 45.5t-69 21q-40 0 -66 -29t-30 -84h-82q4 97 52.5 149t125.5 52zM870 -23q-202 0 -364 96t-253 265.5t-91 378.5t91 378
t253 265t364 96q151 0 283.5 -56t226 -154t147.5 -235t54 -294q0 -209 -91.5 -378.5t-254.5 -265.5t-365 -96zM870 78q126 0 237 46.5t191.5 129.5t127.5 203t47 260t-47 260t-127.5 203t-191.5 129.5t-237 46.5q-167 0 -304 -79.5t-217.5 -226.5t-80.5 -333t80.5 -333
t217.5 -226.5t304 -79.5z" />
    <glyph glyph-name="Odieresis" unicode="&#xd6;" horiz-adv-x="1742" 
d="M692 1710q-35 0 -57.5 21t-22.5 55t22.5 56t57.5 22q34 0 56 -22t22 -56t-22 -55t-56 -21zM1049 1710q-34 0 -56 21t-22 55t22 56t56 22q35 0 57 -22t22 -56t-22 -55t-57 -21zM870 -23q-202 0 -364 96t-253 265.5t-91 378.5t91 378t253 265t364 96q151 0 283.5 -56
t226 -154t147.5 -235t54 -294q0 -209 -91.5 -378.5t-254.5 -265.5t-365 -96zM870 78q126 0 237 46.5t191.5 129.5t127.5 203t47 260t-47 260t-127.5 203t-191.5 129.5t-237 46.5q-167 0 -304 -79.5t-217.5 -226.5t-80.5 -333t80.5 -333t217.5 -226.5t304 -79.5z" />
    <glyph glyph-name="multiply" unicode="&#xd7;" horiz-adv-x="1185" 
d="M197 154l-64 65l395 393l-399 398l66 65l397 -397l399 397l64 -65l-398 -398l396 -393l-64 -65l-397 395z" />
    <glyph glyph-name="Oslash" unicode="&#xd8;" horiz-adv-x="1742" 
d="M870 -23q-186 0 -342 86l-104 -172h-119l139 224q-133 99 -207.5 256t-74.5 346q0 209 91 378t253 265t364 96q189 0 342 -86l107 172h117l-138 -223q133 -99 208 -256t75 -346q0 -209 -91.5 -378.5t-254.5 -265.5t-365 -96zM498 205l661 1079q-138 72 -289 72
q-167 0 -304 -79.5t-217.5 -226.5t-80.5 -333q0 -162 61 -293.5t169 -218.5zM870 78q126 0 237 46.5t191.5 129.5t127.5 203t47 260q0 162 -60.5 293.5t-167.5 218.5l-661 -1079q134 -72 286 -72z" />
    <glyph glyph-name="Ugrave" unicode="&#xd9;" horiz-adv-x="1599" 
d="M686 1849l164 -266h-109l-163 266h108zM801 -23q-122 0 -229 40t-188.5 115t-129 193t-47.5 265v844h108v-844q0 -125 38.5 -224t105.5 -161t154.5 -94.5t187.5 -32.5t187 32.5t153.5 94.5t104.5 161t38 224v844h109v-844q0 -147 -47.5 -265t-129 -193t-188 -115
t-227.5 -40z" />
    <glyph glyph-name="Uacute" unicode="&#xda;" horiz-adv-x="1599" 
d="M752 1583l163 266h109l-164 -266h-108zM801 -23q-122 0 -229 40t-188.5 115t-129 193t-47.5 265v844h108v-844q0 -125 38.5 -224t105.5 -161t154.5 -94.5t187.5 -32.5t187 32.5t153.5 94.5t104.5 161t38 224v844h109v-844q0 -147 -47.5 -265t-129 -193t-188 -115
t-227.5 -40z" />
    <glyph glyph-name="Ucircumflex" unicode="&#xdb;" horiz-adv-x="1599" 
d="M545 1583l217 272h78l217 -272h-103l-149 189h-8l-150 -189h-102zM801 -23q-122 0 -229 40t-188.5 115t-129 193t-47.5 265v844h108v-844q0 -125 38.5 -224t105.5 -161t154.5 -94.5t187.5 -32.5t187 32.5t153.5 94.5t104.5 161t38 224v844h109v-844q0 -147 -47.5 -265
t-129 -193t-188 -115t-227.5 -40z" />
    <glyph glyph-name="Udieresis" unicode="&#xdc;" horiz-adv-x="1599" 
d="M623 1710q-35 0 -57.5 21t-22.5 55t22.5 56t57.5 22q34 0 55.5 -22t21.5 -56t-21.5 -55t-55.5 -21zM979 1710q-34 0 -56 21t-22 55t22 56t56 22q35 0 57.5 -22t22.5 -56t-22.5 -55t-57.5 -21zM801 -23q-122 0 -229 40t-188.5 115t-129 193t-47.5 265v844h108v-844
q0 -125 38.5 -224t105.5 -161t154.5 -94.5t187.5 -32.5t187 32.5t153.5 94.5t104.5 161t38 224v844h109v-844q0 -147 -47.5 -265t-129 -193t-188 -115t-227.5 -40z" />
    <glyph glyph-name="Yacute" unicode="&#xdd;" horiz-adv-x="1472" 
d="M686 1583l164 266h108l-163 -266h-109zM682 0v635l-629 799h131l551 -699l553 699h131l-628 -799v-635h-109z" />
    <glyph glyph-name="Thorn" unicode="&#xde;" horiz-adv-x="1568" 
d="M993 328h-628v-328h-109v1434h109v-256h628q203 0 329 -113t126 -311q0 -200 -126 -313t-329 -113zM365 428h628q168 0 257 90.5t89 235.5q0 143 -89 233t-257 90h-628v-649z" />
    <glyph glyph-name="germandbls" unicode="&#xdf;" horiz-adv-x="1296" 
d="M211 0v1049q0 101 29 177t72 118.5t103.5 69t112 34.5t107.5 8q204 0 312 -102t108 -264q0 -200 -172 -299v-9q137 -36 209.5 -136t72.5 -238q0 -64 -15 -121.5t-50 -110.5t-88 -91.5t-134.5 -61.5t-183.5 -23h-176v92h168q196 0 287.5 85t91.5 231q0 144 -91.5 228.5
t-287.5 84.5h-168v92h117q151 0 235 71.5t84 205.5q0 133 -83.5 202.5t-235.5 69.5q-167 0 -245.5 -82t-78.5 -231v-1049h-100z" />
    <glyph glyph-name="agrave" unicode="&#xe0;" horiz-adv-x="1210" 
d="M473 1434l164 -267h-109l-163 267h108zM440 -23q-44 0 -82.5 5t-85.5 22t-80.5 45t-56 79t-22.5 120q0 55 16.5 99.5t44 75t70 55.5t86.5 40.5t102 30.5l455 115v18q0 64 -19.5 113t-49.5 77.5t-71.5 46t-79 23.5t-77.5 6q-127 0 -219.5 -60t-110.5 -173h-106
q19 150 137 237.5t299 87.5q51 0 97.5 -6.5t104 -30t98.5 -62t69 -108.5t28 -163v-518q0 -31 12 -43.5t43 -12.5h66v-96h-90q-116 0 -125 109l-4 81h-8q-64 -100 -179.5 -156.5t-261.5 -56.5zM446 70q62 0 122.5 12.5t118.5 41t102 71t71 108t27 146.5v118l-443 -110
q-128 -33 -178.5 -80t-50.5 -125q0 -182 231 -182z" />
    <glyph glyph-name="aacute" unicode="&#xe1;" horiz-adv-x="1210" 
d="M539 1167l163 267h109l-164 -267h-108zM440 -23q-44 0 -82.5 5t-85.5 22t-80.5 45t-56 79t-22.5 120q0 55 16.5 99.5t44 75t70 55.5t86.5 40.5t102 30.5l455 115v18q0 64 -19.5 113t-49.5 77.5t-71.5 46t-79 23.5t-77.5 6q-127 0 -219.5 -60t-110.5 -173h-106
q19 150 137 237.5t299 87.5q51 0 97.5 -6.5t104 -30t98.5 -62t69 -108.5t28 -163v-518q0 -31 12 -43.5t43 -12.5h66v-96h-90q-116 0 -125 109l-4 81h-8q-64 -100 -179.5 -156.5t-261.5 -56.5zM446 70q62 0 122.5 12.5t118.5 41t102 71t71 108t27 146.5v118l-443 -110
q-128 -33 -178.5 -80t-50.5 -125q0 -182 231 -182z" />
    <glyph glyph-name="acircumflex" unicode="&#xe2;" horiz-adv-x="1210" 
d="M332 1167l217 273h78l217 -273h-103l-149 189h-8l-150 -189h-102zM440 -23q-44 0 -82.5 5t-85.5 22t-80.5 45t-56 79t-22.5 120q0 55 16.5 99.5t44 75t70 55.5t86.5 40.5t102 30.5l455 115v18q0 64 -19.5 113t-49.5 77.5t-71.5 46t-79 23.5t-77.5 6q-127 0 -219.5 -60
t-110.5 -173h-106q19 150 137 237.5t299 87.5q51 0 97.5 -6.5t104 -30t98.5 -62t69 -108.5t28 -163v-518q0 -31 12 -43.5t43 -12.5h66v-96h-90q-116 0 -125 109l-4 81h-8q-64 -100 -179.5 -156.5t-261.5 -56.5zM446 70q62 0 122.5 12.5t118.5 41t102 71t71 108t27 146.5v118
l-443 -110q-128 -33 -178.5 -80t-50.5 -125q0 -182 231 -182z" />
    <glyph glyph-name="atilde" unicode="&#xe3;" horiz-adv-x="1210" 
d="M440 1411q46 0 89.5 -21t72 -45.5t64.5 -45.5t69 -21q40 0 66 29t30 84h82q-4 -97 -52.5 -149t-125.5 -52q-46 0 -89.5 21t-72 45.5t-64.5 45.5t-69 21q-40 0 -66 -29t-30 -84h-82q4 97 52.5 149t125.5 52zM440 -23q-44 0 -82.5 5t-85.5 22t-80.5 45t-56 79t-22.5 120
q0 55 16.5 99.5t44 75t70 55.5t86.5 40.5t102 30.5l455 115v18q0 64 -19.5 113t-49.5 77.5t-71.5 46t-79 23.5t-77.5 6q-127 0 -219.5 -60t-110.5 -173h-106q19 150 137 237.5t299 87.5q51 0 97.5 -6.5t104 -30t98.5 -62t69 -108.5t28 -163v-518q0 -31 12 -43.5t43 -12.5h66
v-96h-90q-116 0 -125 109l-4 81h-8q-64 -100 -179.5 -156.5t-261.5 -56.5zM446 70q62 0 122.5 12.5t118.5 41t102 71t71 108t27 146.5v118l-443 -110q-128 -33 -178.5 -80t-50.5 -125q0 -182 231 -182z" />
    <glyph glyph-name="adieresis" unicode="&#xe4;" horiz-adv-x="1210" 
d="M410 1294q-35 0 -57.5 21t-22.5 55t22.5 56t57.5 22q34 0 55.5 -22t21.5 -56t-21.5 -55t-55.5 -21zM766 1294q-34 0 -56 21t-22 55t22 56t56 22q35 0 57.5 -22t22.5 -56t-22.5 -55t-57.5 -21zM440 -23q-44 0 -82.5 5t-85.5 22t-80.5 45t-56 79t-22.5 120q0 55 16.5 99.5
t44 75t70 55.5t86.5 40.5t102 30.5l455 115v18q0 64 -19.5 113t-49.5 77.5t-71.5 46t-79 23.5t-77.5 6q-127 0 -219.5 -60t-110.5 -173h-106q19 150 137 237.5t299 87.5q51 0 97.5 -6.5t104 -30t98.5 -62t69 -108.5t28 -163v-518q0 -31 12 -43.5t43 -12.5h66v-96h-90
q-116 0 -125 109l-4 81h-8q-64 -100 -179.5 -156.5t-261.5 -56.5zM446 70q62 0 122.5 12.5t118.5 41t102 71t71 108t27 146.5v118l-443 -110q-128 -33 -178.5 -80t-50.5 -125q0 -182 231 -182z" />
    <glyph glyph-name="aring" unicode="&#xe5;" horiz-adv-x="1210" 
d="M588 1157q-87 0 -143 53t-56 136q0 84 56 137t143 53t142.5 -53t55.5 -137q0 -83 -56 -136t-142 -53zM500 1317q15 -37 48 -52.5t70 -2.5q37 14 54 46t4 68q-15 37 -48.5 52.5t-70.5 3.5q-37 -14 -53.5 -46.5t-3.5 -68.5zM440 -23q-44 0 -82.5 5t-85.5 22t-80.5 45
t-56 79t-22.5 120q0 55 16.5 99.5t44 75t70 55.5t86.5 40.5t102 30.5l455 115v18q0 64 -19.5 113t-49.5 77.5t-71.5 46t-79 23.5t-77.5 6q-127 0 -219.5 -60t-110.5 -173h-106q19 150 137 237.5t299 87.5q51 0 97.5 -6.5t104 -30t98.5 -62t69 -108.5t28 -163v-518
q0 -31 12 -43.5t43 -12.5h66v-96h-90q-116 0 -125 109l-4 81h-8q-64 -100 -179.5 -156.5t-261.5 -56.5zM446 70q62 0 122.5 12.5t118.5 41t102 71t71 108t27 146.5v118l-443 -110q-128 -33 -178.5 -80t-50.5 -125q0 -182 231 -182z" />
    <glyph glyph-name="ae" unicode="&#xe6;" horiz-adv-x="2019" 
d="M446 -23q-333 0 -333 271q0 55 16.5 99.5t44 75t70 55.5t86.5 40.5t102 30.5l455 115v18q0 64 -19.5 113t-49.5 77.5t-71.5 46t-79 23.5t-77.5 6q-127 0 -219.5 -60t-110.5 -173h-106q19 150 137 237.5t299 87.5q42 0 80.5 -5t86.5 -20.5t85.5 -41.5t71.5 -72t51 -108h8
q66 117 179 182t251 65q217 0 359.5 -145t142.5 -363l-4 -63h-912q12 -175 128.5 -287t285.5 -112q121 0 218.5 60t147.5 161h109q-42 -102 -117.5 -174t-166 -106t-191.5 -34q-152 0 -274.5 78t-184.5 209h-8q-45 -126 -174 -206.5t-316 -80.5zM991 561h811
q-12 171 -123 279t-276 108q-164 0 -280.5 -109t-131.5 -278zM446 70q62 0 122.5 12.5t118.5 41t102 71t71 108t27 146.5v118l-443 -110q-128 -33 -178.5 -80t-50.5 -125q0 -182 231 -182z" />
    <glyph glyph-name="ccedilla" unicode="&#xe7;" horiz-adv-x="1220" 
d="M489 -410v84h78q55 0 93 25.5t38 75.5q0 49 -37.5 74.5t-93.5 25.5h-41l58 105q-212 15 -340.5 163t-128.5 367q0 230 142.5 380t371.5 150q185 0 315.5 -101.5t173.5 -272.5h-104q-44 132 -143.5 207t-241.5 75q-186 0 -300 -123t-114 -315t114 -315t300 -123
q142 0 241.5 74.5t143.5 205.5h104q-42 -163 -162 -263t-292 -109l-29 -50q75 -13 115.5 -56.5t40.5 -106.5q0 -83 -63 -130t-161 -47h-78z" />
    <glyph glyph-name="egrave" unicode="&#xe8;" horiz-adv-x="1247" 
d="M518 1432l164 -267h-109l-163 267h108zM633 -23q-221 0 -369.5 152t-148.5 381q0 151 68.5 272.5t187 189.5t262.5 68q216 0 358 -145t142 -363l-5 -63h-911q12 -175 129 -287t287 -112q121 0 217.5 59.5t146.5 161.5h109q-62 -153 -190.5 -233.5t-282.5 -80.5zM219 561
h811q-11 170 -122 278.5t-275 108.5q-163 0 -280 -108.5t-134 -278.5z" />
    <glyph glyph-name="eacute" unicode="&#xe9;" horiz-adv-x="1247" 
d="M584 1165l164 267h108l-164 -267h-108zM633 -23q-221 0 -369.5 152t-148.5 381q0 151 68.5 272.5t187 189.5t262.5 68q216 0 358 -145t142 -363l-5 -63h-911q12 -175 129 -287t287 -112q121 0 217.5 59.5t146.5 161.5h109q-62 -153 -190.5 -233.5t-282.5 -80.5zM219 561
h811q-11 170 -122 278.5t-275 108.5q-163 0 -280 -108.5t-134 -278.5z" />
    <glyph glyph-name="ecircumflex" unicode="&#xea;" horiz-adv-x="1247" 
d="M377 1167l217 273h78l217 -273h-103l-149 189h-8l-150 -189h-102zM633 -23q-221 0 -369.5 152t-148.5 381q0 151 68.5 272.5t187 189.5t262.5 68q216 0 358 -145t142 -363l-5 -63h-911q12 -175 129 -287t287 -112q121 0 217.5 59.5t146.5 161.5h109
q-62 -153 -190.5 -233.5t-282.5 -80.5zM219 561h811q-11 170 -122 278.5t-275 108.5q-163 0 -280 -108.5t-134 -278.5z" />
    <glyph glyph-name="edieresis" unicode="&#xeb;" horiz-adv-x="1247" 
d="M455 1292q-35 0 -57.5 21t-22.5 55t22.5 56t57.5 22q34 0 55.5 -22t21.5 -56t-21.5 -55t-55.5 -21zM811 1292q-34 0 -56 21t-22 55t22 56t56 22q35 0 57.5 -22t22.5 -56t-22.5 -55t-57.5 -21zM633 -23q-221 0 -369.5 152t-148.5 381q0 151 68.5 272.5t187 189.5t262.5 68
q216 0 358 -145t142 -363l-5 -63h-911q12 -175 129 -287t287 -112q121 0 217.5 59.5t146.5 161.5h109q-62 -153 -190.5 -233.5t-282.5 -80.5zM219 561h811q-11 170 -122 278.5t-275 108.5q-163 0 -280 -108.5t-134 -278.5z" />
    <glyph glyph-name="igrave" unicode="&#xec;" horiz-adv-x="522" 
d="M145 1434l164 -267h-108l-164 267h108zM211 0v1018h100v-1018h-100z" />
    <glyph glyph-name="iacute" unicode="&#xed;" horiz-adv-x="522" 
d="M211 1167l164 267h108l-164 -267h-108zM211 0v1018h100v-1018h-100z" />
    <glyph glyph-name="icircumflex" unicode="&#xee;" horiz-adv-x="522" 
d="M4 1167l217 273h78l217 -273h-102l-150 189h-8l-150 -189h-102zM211 0v1018h100v-1018h-100z" />
    <glyph glyph-name="idieresis" unicode="&#xef;" horiz-adv-x="522" 
d="M82 1294q-35 0 -57.5 21t-22.5 55t22.5 56t57.5 22q34 0 56 -22t22 -56t-22 -55t-56 -21zM438 1294q-34 0 -56 21t-22 55t22 56t56 22q35 0 57.5 -22t22.5 -56t-22.5 -55t-57.5 -21zM211 0v1018h100v-1018h-100z" />
    <glyph glyph-name="eth" unicode="&#xf0;" horiz-adv-x="1284" 
d="M313 1194l45 162q-29 8 -176 47v92q87 -19 201 -53l41 149l78 -20l-43 -152q186 -60 312.5 -134t214 -179t127.5 -245.5t40 -330.5q0 -249 -146.5 -401t-373.5 -152q-225 0 -371.5 147t-146.5 374q0 225 143.5 371.5t357.5 146.5q276 0 418 -215h8q-57 214 -202 333
t-406 199l-43 -159zM633 72q184 0 301 119t117 307t-117 307t-301 119t-301 -119t-117 -307t117 -307t301 -119z" />
    <glyph glyph-name="ntilde" unicode="&#xf1;" horiz-adv-x="1298" 
d="M516 1411q46 0 89.5 -21t72 -45.5t64.5 -45.5t69 -21q40 0 66 29t30 84h82q-4 -97 -52.5 -149t-125.5 -52q-46 0 -89.5 21t-72 45.5t-64.5 45.5t-69 21q-40 0 -66 -29t-30 -84h-82q4 97 52.5 149t125.5 52zM211 0v1018h100v-189h8q49 95 143 153t224 58q86 0 161 -27.5
t133 -79.5t92 -135.5t34 -187.5v-610h-100v592q0 75 -19 136.5t-51 101.5t-75.5 67t-90 39t-96.5 12q-54 0 -104 -14t-98 -46t-83 -79t-56.5 -119t-21.5 -160v-530h-100z" />
    <glyph glyph-name="ograve" unicode="&#xf2;" horiz-adv-x="1267" 
d="M518 1434l164 -267h-109l-163 267h108zM633 -23q-225 0 -371.5 150t-146.5 383q0 231 146.5 380.5t371.5 149.5t372.5 -149.5t147.5 -380.5q0 -232 -147.5 -382.5t-372.5 -150.5zM633 72q185 0 301.5 122.5t116.5 315.5q0 192 -117 315t-301 123t-301 -123t-117 -315
q0 -193 116.5 -315.5t301.5 -122.5z" />
    <glyph glyph-name="oacute" unicode="&#xf3;" horiz-adv-x="1267" 
d="M584 1167l164 267h108l-164 -267h-108zM633 -23q-225 0 -371.5 150t-146.5 383q0 231 146.5 380.5t371.5 149.5t372.5 -149.5t147.5 -380.5q0 -232 -147.5 -382.5t-372.5 -150.5zM633 72q185 0 301.5 122.5t116.5 315.5q0 192 -117 315t-301 123t-301 -123t-117 -315
q0 -193 116.5 -315.5t301.5 -122.5z" />
    <glyph glyph-name="ocircumflex" unicode="&#xf4;" horiz-adv-x="1267" 
d="M377 1167l217 273h78l217 -273h-103l-149 189h-8l-150 -189h-102zM633 -23q-225 0 -371.5 150t-146.5 383q0 231 146.5 380.5t371.5 149.5t372.5 -149.5t147.5 -380.5q0 -232 -147.5 -382.5t-372.5 -150.5zM633 72q185 0 301.5 122.5t116.5 315.5q0 192 -117 315
t-301 123t-301 -123t-117 -315q0 -193 116.5 -315.5t301.5 -122.5z" />
    <glyph glyph-name="otilde" unicode="&#xf5;" horiz-adv-x="1267" 
d="M485 1411q46 0 89.5 -21t72 -45.5t64.5 -45.5t69 -21q40 0 66.5 29t30.5 84h81q-4 -97 -52.5 -149t-125.5 -52q-46 0 -89.5 21t-72 45.5t-64.5 45.5t-69 21q-40 0 -66 -29t-30 -84h-82q4 97 52.5 149t125.5 52zM633 -23q-225 0 -371.5 150t-146.5 383q0 231 146.5 380.5
t371.5 149.5t372.5 -149.5t147.5 -380.5q0 -232 -147.5 -382.5t-372.5 -150.5zM633 72q185 0 301.5 122.5t116.5 315.5q0 192 -117 315t-301 123t-301 -123t-117 -315q0 -193 116.5 -315.5t301.5 -122.5z" />
    <glyph glyph-name="odieresis" unicode="&#xf6;" horiz-adv-x="1267" 
d="M455 1294q-35 0 -57.5 21t-22.5 55t22.5 56t57.5 22q34 0 55.5 -22t21.5 -56t-21.5 -55t-55.5 -21zM811 1294q-34 0 -56 21t-22 55t22 56t56 22q35 0 57.5 -22t22.5 -56t-22.5 -55t-57.5 -21zM633 -23q-225 0 -371.5 150t-146.5 383q0 231 146.5 380.5t371.5 149.5
t372.5 -149.5t147.5 -380.5q0 -232 -147.5 -382.5t-372.5 -150.5zM633 72q185 0 301.5 122.5t116.5 315.5q0 192 -117 315t-301 123t-301 -123t-117 -315q0 -193 116.5 -315.5t301.5 -122.5z" />
    <glyph glyph-name="divide" unicode="&#xf7;" horiz-adv-x="1214" 
d="M608 827q-37 0 -59.5 22.5t-22.5 59.5q0 35 22.5 57.5t59.5 22.5q35 0 58.5 -22.5t23.5 -57.5q0 -36 -23 -59t-59 -23zM96 567v95h1024v-95h-1024zM608 238q-37 0 -59.5 22t-22.5 59q0 35 22.5 57.5t59.5 22.5q35 0 58.5 -22.5t23.5 -57.5q0 -36 -23 -58.5t-59 -22.5z
" />
    <glyph glyph-name="oslash" unicode="&#xf8;" horiz-adv-x="1267" 
d="M633 -23q-125 0 -240 56l-71 -121h-103l98 168q-95 70 -148.5 182t-53.5 248q0 231 146.5 380.5t371.5 149.5q128 0 229 -49l82 137h105l-109 -182q100 -70 156.5 -183.5t56.5 -252.5q0 -232 -147.5 -382.5t-372.5 -150.5zM367 162l446 747q-80 39 -180 39
q-184 0 -301 -123t-117 -315q0 -222 152 -348zM633 72q185 0 301.5 122.5t116.5 315.5q0 112 -42 203.5t-118 150.5l-449 -749q82 -43 191 -43z" />
    <glyph glyph-name="ugrave" unicode="&#xf9;" horiz-adv-x="1298" 
d="M522 1434l164 -267h-108l-164 267h108zM1087 1018v-1018h-100v188h-8q-49 -95 -143 -153t-224 -58q-86 0 -161 27.5t-133 80t-91.5 136t-33.5 187.5v610h100v-592q0 -75 19 -136.5t51 -101.5t75.5 -67t90 -39t96.5 -12q54 0 104 13.5t97.5 45.5t82.5 79t56.5 119
t21.5 160v531h100z" />
    <glyph glyph-name="uacute" unicode="&#xfa;" horiz-adv-x="1298" 
d="M588 1167l164 267h108l-164 -267h-108zM1087 1018v-1018h-100v188h-8q-49 -95 -143 -153t-224 -58q-86 0 -161 27.5t-133 80t-91.5 136t-33.5 187.5v610h100v-592q0 -75 19 -136.5t51 -101.5t75.5 -67t90 -39t96.5 -12q54 0 104 13.5t97.5 45.5t82.5 79t56.5 119
t21.5 160v531h100z" />
    <glyph glyph-name="ucircumflex" unicode="&#xfb;" horiz-adv-x="1298" 
d="M381 1167l217 273h78l217 -273h-102l-150 189h-8l-150 -189h-102zM1087 1018v-1018h-100v188h-8q-49 -95 -143 -153t-224 -58q-86 0 -161 27.5t-133 80t-91.5 136t-33.5 187.5v610h100v-592q0 -75 19 -136.5t51 -101.5t75.5 -67t90 -39t96.5 -12q54 0 104 13.5t97.5 45.5
t82.5 79t56.5 119t21.5 160v531h100z" />
    <glyph glyph-name="udieresis" unicode="&#xfc;" horiz-adv-x="1298" 
d="M459 1294q-35 0 -57.5 21t-22.5 55t22.5 56t57.5 22q34 0 56 -22t22 -56t-22 -55t-56 -21zM815 1294q-34 0 -56 21t-22 55t22 56t56 22q35 0 57.5 -22t22.5 -56t-22.5 -55t-57.5 -21zM1087 1018v-1018h-100v188h-8q-49 -95 -143 -153t-224 -58q-86 0 -161 27.5t-133 80
t-91.5 136t-33.5 187.5v610h100v-592q0 -75 19 -136.5t51 -101.5t75.5 -67t90 -39t96.5 -12q54 0 104 13.5t97.5 45.5t82.5 79t56.5 119t21.5 160v531h100z" />
    <glyph glyph-name="yacute" unicode="&#xfd;" horiz-adv-x="1206" 
d="M567 1167l164 267h109l-164 -267h-109zM162 -410v97h147q70 0 108.5 27.5t63.5 86.5l88 205l-477 1012h113l411 -877h13l377 877h108l-539 -1254q-42 -97 -101.5 -135.5t-164.5 -38.5h-147z" />
    <glyph glyph-name="thorn" unicode="&#xfe;" horiz-adv-x="1359" 
d="M735 1040q223 0 366.5 -149t143.5 -381q0 -233 -143.5 -383t-366.5 -150q-139 0 -247.5 62.5t-168.5 175.5h-8v-625h-100v1844h100v-629h8q60 111 169 173t247 62zM727 72q185 0 301.5 122.5t116.5 315.5q0 192 -117 315t-301 123t-301 -123t-117 -315
q0 -193 116.5 -315.5t301.5 -122.5z" />
    <glyph glyph-name="ydieresis" unicode="&#xff;" horiz-adv-x="1206" 
d="M438 1294q-35 0 -57.5 21t-22.5 55t22.5 56t57.5 22q34 0 56 -22t22 -56t-22 -55t-56 -21zM795 1294q-34 0 -56 21t-22 55t22 56t56 22q35 0 57 -22t22 -56t-22 -55t-57 -21zM162 -410v97h147q70 0 108.5 27.5t63.5 86.5l88 205l-477 1012h113l411 -877h13l377 877h108
l-539 -1254q-42 -97 -101.5 -135.5t-164.5 -38.5h-147z" />
    <glyph glyph-name="Amacron" unicode="&#x100;" horiz-adv-x="1480" 
d="M391 1673v86h696v-86h-696zM1419 0h-112l-172 391h-789l-172 -391h-113l635 1434h88zM391 489h699l-347 783h-8z" />
    <glyph glyph-name="amacron" unicode="&#x101;" horiz-adv-x="1210" 
d="M240 1257v86h696v-86h-696zM440 -23q-44 0 -82.5 5t-85.5 22t-80.5 45t-56 79t-22.5 120q0 55 16.5 99.5t44 75t70 55.5t86.5 40.5t102 30.5l455 115v18q0 64 -19.5 113t-49.5 77.5t-71.5 46t-79 23.5t-77.5 6q-127 0 -219.5 -60t-110.5 -173h-106q19 150 137 237.5
t299 87.5q51 0 97.5 -6.5t104 -30t98.5 -62t69 -108.5t28 -163v-518q0 -31 12 -43.5t43 -12.5h66v-96h-90q-116 0 -125 109l-4 81h-8q-64 -100 -179.5 -156.5t-261.5 -56.5zM446 70q62 0 122.5 12.5t118.5 41t102 71t71 108t27 146.5v118l-443 -110q-128 -33 -178.5 -80
t-50.5 -125q0 -182 231 -182z" />
    <glyph glyph-name="Abreve" unicode="&#x102;" horiz-adv-x="1480" 
d="M739 1585q-38 0 -73.5 7t-73 26t-66 48t-49.5 77.5t-26 111.5h88q5 -54 25.5 -93t51 -58.5t60.5 -28t63 -8.5t63 8.5t60.5 28t51.5 58.5t26 93h88q-6 -77 -35.5 -133t-73 -84t-88 -40.5t-92.5 -12.5zM1419 0h-112l-172 391h-789l-172 -391h-113l635 1434h88zM391 489h699
l-347 783h-8z" />
    <glyph glyph-name="abreve" unicode="&#x103;" horiz-adv-x="1210" 
d="M588 1169q-48 0 -92.5 12.5t-88 41t-73 84.5t-35.5 133h88q5 -54 26 -93t51.5 -59t61 -28.5t62.5 -8.5t62.5 8.5t61 28.5t51 59t25.5 93h89q-6 -77 -35.5 -133t-73 -84.5t-88 -41t-92.5 -12.5zM440 -23q-44 0 -82.5 5t-85.5 22t-80.5 45t-56 79t-22.5 120q0 55 16.5 99.5
t44 75t70 55.5t86.5 40.5t102 30.5l455 115v18q0 64 -19.5 113t-49.5 77.5t-71.5 46t-79 23.5t-77.5 6q-127 0 -219.5 -60t-110.5 -173h-106q19 150 137 237.5t299 87.5q51 0 97.5 -6.5t104 -30t98.5 -62t69 -108.5t28 -163v-518q0 -31 12 -43.5t43 -12.5h66v-96h-90
q-116 0 -125 109l-4 81h-8q-64 -100 -179.5 -156.5t-261.5 -56.5zM446 70q62 0 122.5 12.5t118.5 41t102 71t71 108t27 146.5v118l-443 -110q-128 -33 -178.5 -80t-50.5 -125q0 -182 231 -182z" />
    <glyph glyph-name="Aogonek" unicode="&#x104;" horiz-adv-x="1480" 
d="M1419 0q-50 -18 -90 -41.5t-71 -63t-31 -85.5q0 -57 44 -94.5t128 -37.5h20v-88h-35q-113 0 -183.5 53t-70.5 146q0 139 175 217l-170 385h-789l-172 -391h-113l635 1434h88zM391 489h699l-347 783h-8z" />
    <glyph glyph-name="aogonek" unicode="&#x105;" horiz-adv-x="1210" 
d="M440 -23q-44 0 -82.5 5t-85.5 22t-80.5 45t-56 79t-22.5 120q0 55 16.5 99.5t44 75t70 55.5t86.5 40.5t102 30.5l455 115v18q0 64 -19.5 113t-49.5 77.5t-71.5 46t-79 23.5t-77.5 6q-127 0 -219.5 -60t-110.5 -173h-106q19 150 137 237.5t299 87.5q51 0 97.5 -6.5
t104 -30t98.5 -62t69 -108.5t28 -163v-518q0 -31 12 -43.5t43 -12.5h66v-96q-49 -18 -88.5 -41t-70.5 -63t-31 -86q0 -57 43.5 -94.5t125.5 -37.5h21v-88h-33q-113 0 -183.5 53t-70.5 146q0 141 166 215q-43 6 -67 33.5t-27 71.5l-4 81h-8q-64 -100 -179.5 -156.5
t-261.5 -56.5zM446 70q62 0 122.5 12.5t118.5 41t102 71t71 108t27 146.5v118l-443 -110q-128 -33 -178.5 -80t-50.5 -125q0 -182 231 -182z" />
    <glyph glyph-name="Cacute" unicode="&#x106;" horiz-adv-x="1695" 
d="M821 1583l164 266h109l-164 -266h-109zM874 -23q-205 0 -368.5 97t-253.5 266t-90 377t90 376.5t253.5 265.5t368.5 97q246 0 424 -138t246 -362h-112q-66 183 -213 291.5t-345 108.5q-171 0 -309.5 -81.5t-217.5 -227.5t-79 -330t79 -330t217.5 -227.5t309.5 -81.5
q198 0 345 108t213 291h112q-68 -224 -246 -362t-424 -138z" />
    <glyph glyph-name="cacute" unicode="&#x107;" horiz-adv-x="1220" 
d="M580 1167l163 267h109l-164 -267h-108zM629 -23q-229 0 -371.5 150.5t-142.5 382.5q0 230 142.5 380t371.5 150q185 0 315.5 -101.5t173.5 -272.5h-104q-44 132 -143.5 207t-241.5 75q-186 0 -300 -123t-114 -315t114 -315t300 -123q142 0 241.5 74.5t143.5 205.5h104
q-43 -171 -173.5 -273t-315.5 -102z" />
    <glyph glyph-name="Ccircumflex" unicode="&#x108;" horiz-adv-x="1695" 
d="M614 1583l217 272h78l217 -272h-102l-150 189h-8l-149 -189h-103zM874 -23q-205 0 -368.5 97t-253.5 266t-90 377t90 376.5t253.5 265.5t368.5 97q246 0 424 -138t246 -362h-112q-66 183 -213 291.5t-345 108.5q-171 0 -309.5 -81.5t-217.5 -227.5t-79 -330t79 -330
t217.5 -227.5t309.5 -81.5q198 0 345 108t213 291h112q-68 -224 -246 -362t-424 -138z" />
    <glyph glyph-name="ccircumflex" unicode="&#x109;" horiz-adv-x="1220" 
d="M373 1167l217 273h78l217 -273h-103l-149 189h-8l-150 -189h-102zM629 -23q-229 0 -371.5 150.5t-142.5 382.5q0 230 142.5 380t371.5 150q185 0 315.5 -101.5t173.5 -272.5h-104q-44 132 -143.5 207t-241.5 75q-186 0 -300 -123t-114 -315t114 -315t300 -123
q142 0 241.5 74.5t143.5 205.5h104q-43 -171 -173.5 -273t-315.5 -102z" />
    <glyph glyph-name="Cdotaccent" unicode="&#x10a;" horiz-adv-x="1695" 
d="M870 1710q-35 0 -57 21t-22 55t22 56t57 22t57.5 -22t22.5 -56t-22.5 -55t-57.5 -21zM874 -23q-205 0 -368.5 97t-253.5 266t-90 377t90 376.5t253.5 265.5t368.5 97q246 0 424 -138t246 -362h-112q-66 183 -213 291.5t-345 108.5q-171 0 -309.5 -81.5t-217.5 -227.5
t-79 -330t79 -330t217.5 -227.5t309.5 -81.5q198 0 345 108t213 291h112q-68 -224 -246 -362t-424 -138z" />
    <glyph glyph-name="cdotaccent" unicode="&#x10b;" horiz-adv-x="1220" 
d="M629 1294q-35 0 -57.5 21t-22.5 55t22.5 56t57.5 22t57.5 -22t22.5 -56t-22.5 -55t-57.5 -21zM629 -23q-229 0 -371.5 150.5t-142.5 382.5q0 230 142.5 380t371.5 150q185 0 315.5 -101.5t173.5 -272.5h-104q-44 132 -143.5 207t-241.5 75q-186 0 -300 -123t-114 -315
t114 -315t300 -123q142 0 241.5 74.5t143.5 205.5h104q-43 -171 -173.5 -273t-315.5 -102z" />
    <glyph glyph-name="Ccaron" unicode="&#x10c;" horiz-adv-x="1695" 
d="M831 1583l-217 272h103l149 -188h8l150 188h102l-217 -272h-78zM874 -23q-205 0 -368.5 97t-253.5 266t-90 377t90 376.5t253.5 265.5t368.5 97q246 0 424 -138t246 -362h-112q-66 183 -213 291.5t-345 108.5q-171 0 -309.5 -81.5t-217.5 -227.5t-79 -330t79 -330
t217.5 -227.5t309.5 -81.5q198 0 345 108t213 291h112q-68 -224 -246 -362t-424 -138z" />
    <glyph glyph-name="ccaron" unicode="&#x10d;" horiz-adv-x="1220" 
d="M590 1167l-217 273h102l150 -189h8l149 189h103l-217 -273h-78zM629 -23q-229 0 -371.5 150.5t-142.5 382.5q0 230 142.5 380t371.5 150q185 0 315.5 -101.5t173.5 -272.5h-104q-44 132 -143.5 207t-241.5 75q-186 0 -300 -123t-114 -315t114 -315t300 -123
q142 0 241.5 74.5t143.5 205.5h104q-43 -171 -173.5 -273t-315.5 -102z" />
    <glyph glyph-name="Dcaron" unicode="&#x10e;" horiz-adv-x="1642" 
d="M748 1583l-218 272h103l149 -188h9l149 188h102l-217 -272h-77zM256 0v1434h510q152 0 284.5 -54t227 -148t149 -227.5t54.5 -287.5t-54.5 -287.5t-149 -227.5t-227 -148t-284.5 -54h-510zM365 100h401q167 0 305 75.5t220.5 217.5t82.5 324q0 137 -48 253t-130.5 195
t-193.5 123.5t-236 44.5h-401v-1233z" />
    <glyph glyph-name="dcaron" unicode="&#x10f;" horiz-adv-x="1359" 
d="M625 -23q-223 0 -366.5 150t-143.5 383q0 232 143.5 381t366.5 149q138 0 246 -62t169 -173h9v629h100v-1434h-100v215h-9q-60 -113 -168 -175.5t-247 -62.5zM1253 1106l111 328h92l-110 -328h-93zM633 72q185 0 301.5 122.5t116.5 315.5q0 192 -117 315t-301 123
t-301 -123t-117 -315q0 -193 116.5 -315.5t301.5 -122.5z" />
    <glyph glyph-name="Dcroat" unicode="&#x110;" horiz-adv-x="1683" 
d="M297 0v702h-248v101h248v631h510q152 0 284.5 -54t227 -148t149 -227.5t54.5 -287.5t-54.5 -287.5t-149 -227.5t-227 -148t-284.5 -54h-510zM406 100h401q167 0 305 75.5t220.5 217.5t82.5 324q0 137 -48 253t-130.5 195t-193.5 123.5t-236 44.5h-401v-530h442v-101h-442
v-602z" />
    <glyph glyph-name="dcroat" unicode="&#x111;" horiz-adv-x="1359" 
d="M625 -23q-223 0 -366.5 146.5t-143.5 372.5t143.5 372t366.5 146q139 0 247 -62.5t168 -175.5h9v369h-328v92h328v197h100v-197h188v-92h-188v-1145h-100v215h-9q-60 -113 -168 -175.5t-247 -62.5zM215 496q0 -186 117 -305t301 -119t301 119t117 305t-117 305t-301 119
t-301 -119t-117 -305z" />
    <glyph glyph-name="Emacron" unicode="&#x112;" horiz-adv-x="1490" 
d="M444 1673v86h697v-86h-697zM365 702v-602h948v-100h-1057v1434h1057v-101h-948v-530h833v-101h-833z" />
    <glyph glyph-name="emacron" unicode="&#x113;" horiz-adv-x="1247" 
d="M285 1255v86h696v-86h-696zM633 -23q-221 0 -369.5 152t-148.5 381q0 151 68.5 272.5t187 189.5t262.5 68q216 0 358 -145t142 -363l-5 -63h-911q12 -175 129 -287t287 -112q121 0 217.5 59.5t146.5 161.5h109q-62 -153 -190.5 -233.5t-282.5 -80.5zM219 561h811
q-11 170 -122 278.5t-275 108.5q-163 0 -280 -108.5t-134 -278.5z" />
    <glyph glyph-name="Ebreve" unicode="&#x114;" horiz-adv-x="1490" 
d="M793 1585q-48 0 -92.5 12.5t-88 40.5t-73 84t-35.5 133h88q5 -54 26 -93t51.5 -58.5t60.5 -28t63 -8.5t63 8.5t60.5 28t51 58.5t25.5 93h88q-5 -63 -26 -111.5t-49.5 -77.5t-66 -48t-73 -26t-73.5 -7zM365 702v-602h948v-100h-1057v1434h1057v-101h-948v-530h833v-101
h-833z" />
    <glyph glyph-name="ebreve" unicode="&#x115;" horiz-adv-x="1247" 
d="M633 1167q-48 0 -92.5 12.5t-88 41t-73 84.5t-35.5 133h88q5 -54 26 -93t51.5 -59t61 -28.5t62.5 -8.5t62.5 8.5t61 28.5t51.5 59t26 93h88q-6 -77 -35.5 -133t-73 -84.5t-88 -41t-92.5 -12.5zM633 -23q-221 0 -369.5 152t-148.5 381q0 151 68.5 272.5t187 189.5
t262.5 68q216 0 358 -145t142 -363l-5 -63h-911q12 -175 129 -287t287 -112q121 0 217.5 59.5t146.5 161.5h109q-62 -153 -190.5 -233.5t-282.5 -80.5zM219 561h811q-11 170 -122 278.5t-275 108.5q-163 0 -280 -108.5t-134 -278.5z" />
    <glyph glyph-name="Edotaccent" unicode="&#x116;" horiz-adv-x="1490" 
d="M793 1710q-35 0 -57.5 21t-22.5 55t22.5 56t57.5 22t57 -22t22 -56t-22 -55t-57 -21zM365 702v-602h948v-100h-1057v1434h1057v-101h-948v-530h833v-101h-833z" />
    <glyph glyph-name="edotaccent" unicode="&#x117;" horiz-adv-x="1247" 
d="M633 1292q-35 0 -57.5 21t-22.5 55t22.5 56t57.5 22t57.5 -22t22.5 -56t-22.5 -55t-57.5 -21zM633 -23q-221 0 -369.5 152t-148.5 381q0 151 68.5 272.5t187 189.5t262.5 68q216 0 358 -145t142 -363l-5 -63h-911q12 -175 129 -287t287 -112q121 0 217.5 59.5
t146.5 161.5h109q-62 -153 -190.5 -233.5t-282.5 -80.5zM219 561h811q-11 170 -122 278.5t-275 108.5q-163 0 -280 -108.5t-134 -278.5z" />
    <glyph glyph-name="Eogonek" unicode="&#x118;" horiz-adv-x="1490" 
d="M365 702v-602h948v-100q-79 -28 -135 -76t-56 -114q0 -57 44 -94.5t126 -37.5h21v-88h-33q-113 0 -183.5 53t-70.5 146q0 137 160 211h-930v1434h1057v-101h-948v-530h833v-101h-833z" />
    <glyph glyph-name="eogonek" unicode="&#x119;" horiz-adv-x="1247" 
d="M752 -410q-113 0 -183.5 53t-70.5 146q0 118 118 191q-218 6 -359.5 156.5t-141.5 373.5q0 151 68.5 272.5t187 189.5t262.5 68q216 0 358 -145t142 -363l-5 -63h-911q12 -175 129 -287t287 -112q121 0 217.5 59.5t146.5 161.5h109q-48 -115 -133 -189t-193 -104
q-186 -70 -186 -188q0 -57 44 -94.5t126 -37.5h20v-88h-32zM219 561h811q-11 170 -122 278.5t-275 108.5q-163 0 -280 -108.5t-134 -278.5z" />
    <glyph glyph-name="Ecaron" unicode="&#x11a;" horiz-adv-x="1490" 
d="M754 1583l-217 272h102l149 -188h9l149 188h103l-218 -272h-77zM365 702v-602h948v-100h-1057v1434h1057v-101h-948v-530h833v-101h-833z" />
    <glyph glyph-name="ecaron" unicode="&#x11b;" horiz-adv-x="1247" 
d="M594 1165l-217 273h102l150 -189h8l149 189h103l-217 -273h-78zM633 -23q-221 0 -369.5 152t-148.5 381q0 151 68.5 272.5t187 189.5t262.5 68q216 0 358 -145t142 -363l-5 -63h-911q12 -175 129 -287t287 -112q121 0 217.5 59.5t146.5 161.5h109q-62 -153 -190.5 -233.5
t-282.5 -80.5zM219 561h811q-11 170 -122 278.5t-275 108.5q-163 0 -280 -108.5t-134 -278.5z" />
    <glyph glyph-name="Gcircumflex" unicode="&#x11c;" horiz-adv-x="1767" 
d="M612 1583l217 272h78l217 -272h-102l-150 189h-8l-149 -189h-103zM870 -23q-203 0 -365 97t-252.5 266t-90.5 377t90.5 377t252.5 265.5t365 96.5q244 0 421.5 -137t248.5 -363h-113q-71 190 -215.5 295t-341.5 105q-172 0 -309.5 -81.5t-215 -227.5t-77.5 -330
q0 -279 171 -459t435 -180q239 0 397 151.5t173 391.5h-588v98h690v-719h-100v313h-8q-85 -172 -236 -254t-332 -82z" />
    <glyph glyph-name="gcircumflex" unicode="&#x11d;" horiz-adv-x="1359" 
d="M385 1167l217 273h78l217 -273h-102l-150 189h-8l-150 -189h-102zM625 1040q138 0 246 -62t169 -173h9v213h100v-971q0 -217 -129 -348t-371 -131q-189 0 -312.5 81.5t-172.5 221.5h104q47 -97 143 -154t238 -57q189 0 294.5 102.5t105.5 284.5v168h-9
q-60 -113 -168 -175.5t-247 -62.5q-223 0 -366.5 150t-143.5 383q0 232 143.5 381t366.5 149zM633 948q-184 0 -301 -123t-117 -315q0 -193 116.5 -315.5t301.5 -122.5t301.5 122.5t116.5 315.5q0 192 -117 315t-301 123z" />
    <glyph glyph-name="Gbreve" unicode="&#x11e;" horiz-adv-x="1767" 
d="M868 1585q-38 0 -73.5 7t-73 26t-66 48t-49.5 77.5t-26 111.5h88q5 -54 25.5 -93t51 -58.5t60.5 -28t63 -8.5t63 8.5t60.5 28t51.5 58.5t26 93h88q-6 -77 -35.5 -133t-73 -84t-88 -40.5t-92.5 -12.5zM870 -23q-203 0 -365 97t-252.5 266t-90.5 377t90.5 377t252.5 265.5
t365 96.5q244 0 421.5 -137t248.5 -363h-113q-71 190 -215.5 295t-341.5 105q-172 0 -309.5 -81.5t-215 -227.5t-77.5 -330q0 -279 171 -459t435 -180q239 0 397 151.5t173 391.5h-588v98h690v-719h-100v313h-8q-85 -172 -236 -254t-332 -82z" />
    <glyph glyph-name="gbreve" unicode="&#x11f;" horiz-adv-x="1359" 
d="M641 1169q-48 0 -92.5 12.5t-88 41t-73 84.5t-35.5 133h88q5 -54 26 -93t51.5 -59t61 -28.5t62.5 -8.5t62.5 8.5t61 28.5t51.5 59t26 93h88q-6 -77 -35.5 -133t-73 -84.5t-88 -41t-92.5 -12.5zM625 1040q138 0 246 -62t169 -173h9v213h100v-971q0 -217 -129 -348
t-371 -131q-189 0 -312.5 81.5t-172.5 221.5h104q47 -97 143 -154t238 -57q189 0 294.5 102.5t105.5 284.5v168h-9q-60 -113 -168 -175.5t-247 -62.5q-223 0 -366.5 150t-143.5 383q0 232 143.5 381t366.5 149zM633 948q-184 0 -301 -123t-117 -315q0 -193 116.5 -315.5
t301.5 -122.5t301.5 122.5t116.5 315.5q0 192 -117 315t-301 123z" />
    <glyph glyph-name="Gdotaccent" unicode="&#x120;" horiz-adv-x="1767" 
d="M868 1710q-35 0 -57.5 21t-22.5 55t22.5 56t57.5 22t57.5 -22t22.5 -56t-22.5 -55t-57.5 -21zM870 -23q-203 0 -365 97t-252.5 266t-90.5 377t90.5 377t252.5 265.5t365 96.5q244 0 421.5 -137t248.5 -363h-113q-71 190 -215.5 295t-341.5 105q-172 0 -309.5 -81.5
t-215 -227.5t-77.5 -330q0 -279 171 -459t435 -180q239 0 397 151.5t173 391.5h-588v98h690v-719h-100v313h-8q-85 -172 -236 -254t-332 -82z" />
    <glyph glyph-name="gdotaccent" unicode="&#x121;" horiz-adv-x="1359" 
d="M641 1294q-35 0 -57.5 21t-22.5 55t22.5 56t57.5 22t57.5 -22t22.5 -56t-22.5 -55t-57.5 -21zM625 1040q138 0 246 -62t169 -173h9v213h100v-971q0 -217 -129 -348t-371 -131q-189 0 -312.5 81.5t-172.5 221.5h104q47 -97 143 -154t238 -57q189 0 294.5 102.5
t105.5 284.5v168h-9q-60 -113 -168 -175.5t-247 -62.5q-223 0 -366.5 150t-143.5 383q0 232 143.5 381t366.5 149zM633 948q-184 0 -301 -123t-117 -315q0 -193 116.5 -315.5t301.5 -122.5t301.5 122.5t116.5 315.5q0 192 -117 315t-301 123z" />
    <glyph glyph-name="uni0122" unicode="&#x122;" horiz-adv-x="1767" 
d="M870 -23q-203 0 -365 97t-252.5 266t-90.5 377t90.5 377t252.5 265.5t365 96.5q244 0 421.5 -137t248.5 -363h-113q-71 190 -215.5 295t-341.5 105q-172 0 -309.5 -81.5t-215 -227.5t-77.5 -330q0 -279 171 -459t435 -180q239 0 397 151.5t173 391.5h-588v98h690v-719
h-100v313h-8q-85 -172 -236 -254t-332 -82zM797 -481l59 170q-31 5 -50.5 26.5t-19.5 53.5q0 37 22 59t60 22t60 -22t22 -61q0 -34 -14 -78l-59 -170h-80z" />
    <glyph glyph-name="uni0123" unicode="&#x123;" horiz-adv-x="1359" 
d="M713 1491l-60 -170q31 -5 50.5 -26.5t19.5 -53.5q0 -37 -22 -59.5t-60 -22.5t-60 22t-22 62q0 34 14 78l60 170h80zM625 1040q138 0 246 -62t169 -173h9v213h100v-971q0 -217 -129 -348t-371 -131q-189 0 -312.5 81.5t-172.5 221.5h104q47 -97 143 -154t238 -57
q189 0 294.5 102.5t105.5 284.5v168h-9q-60 -113 -168 -175.5t-247 -62.5q-223 0 -366.5 150t-143.5 383q0 232 143.5 381t366.5 149zM633 948q-184 0 -301 -123t-117 -315q0 -193 116.5 -315.5t301.5 -122.5t301.5 122.5t116.5 315.5q0 192 -117 315t-301 123z" />
    <glyph glyph-name="Hcircumflex" unicode="&#x124;" horiz-adv-x="1658" 
d="M573 1583l218 272h77l217 -272h-102l-149 189h-9l-149 -189h-103zM256 0v1434h109v-631h929v631h109v-1434h-109v702h-929v-702h-109z" />
    <glyph glyph-name="hcircumflex" unicode="&#x125;" horiz-adv-x="1298" 
d="M4 1583l217 272h78l217 -272h-102l-150 189h-8l-150 -189h-102zM211 0v1434h100v-605h8q49 95 143 153t224 58q86 0 161 -27.5t133 -79.5t92 -135.5t34 -187.5v-610h-100v592q0 75 -19 136.5t-51 101.5t-75.5 67t-90 39t-96.5 12q-54 0 -104 -14t-98 -46t-83 -79
t-56.5 -119t-21.5 -160v-530h-100z" />
    <glyph glyph-name="Hbar" unicode="&#x126;" horiz-adv-x="1691" 
d="M88 1137v94h184v203h109v-203h930v203h108v-203h185v-94h-185v-1137h-108v702h-930v-702h-109v1137h-184zM381 803h930v334h-930v-334z" />
    <glyph glyph-name="hbar" unicode="&#x127;" horiz-adv-x="1298" 
d="M211 0v1145h-188v92h188v197h100v-197h328v-92h-328v-397h8q49 95 143 152.5t224 57.5q86 0 161 -27.5t133 -79.5t92 -135.5t34 -187.5v-528h-100v510q0 75 -19 136.5t-51 101.5t-75.5 67t-90 39t-96.5 12q-54 0 -104 -13.5t-98 -45.5t-83 -79t-56.5 -119t-21.5 -160
v-449h-100z" />
    <glyph glyph-name="Itilde" unicode="&#x128;" horiz-adv-x="620" 
d="M164 1827q46 0 89.5 -21t72 -45.5t64.5 -45.5t69 -21q40 0 66 28.5t30 83.5h82q-4 -97 -52.5 -148.5t-125.5 -51.5q-46 0 -89.5 21t-72 45.5t-64.5 45.5t-69 21q-40 0 -66 -29t-30 -84h-82q4 97 52.5 149t125.5 52zM256 0v1434h109v-1434h-109z" />
    <glyph glyph-name="itilde" unicode="&#x129;" horiz-adv-x="522" 
d="M113 1411q46 0 89.5 -21t72 -45.5t64.5 -45.5t69 -21q40 0 66 29t30 84h82q-4 -97 -52.5 -149t-125.5 -52q-46 0 -89.5 21t-72 45.5t-64.5 45.5t-69 21q-40 0 -66.5 -29t-30.5 -84h-82q4 97 53 149t126 52zM211 0v1018h100v-1018h-100z" />
    <glyph glyph-name="Imacron" unicode="&#x12a;" horiz-adv-x="620" 
d="M-37 1673v86h696v-86h-696zM256 0v1434h109v-1434h-109z" />
    <glyph glyph-name="imacron" unicode="&#x12b;" horiz-adv-x="522" 
d="M-88 1257v86h696v-86h-696zM211 0v1018h100v-1018h-100z" />
    <glyph glyph-name="Ibreve" unicode="&#x12c;" horiz-adv-x="620" 
d="M311 1585q-38 0 -73.5 7t-73 26t-66 48t-49.5 77.5t-26 111.5h88q5 -54 25.5 -93t51 -58.5t60.5 -28t63 -8.5t63 8.5t60.5 28t51.5 58.5t26 93h88q-6 -77 -35.5 -133t-73 -84t-88 -40.5t-92.5 -12.5zM256 0v1434h109v-1434h-109z" />
    <glyph glyph-name="ibreve" unicode="&#x12d;" horiz-adv-x="522" 
d="M260 1169q-48 0 -92.5 12.5t-88 41t-73 84.5t-35.5 133h88q5 -54 26 -93t51.5 -59t61 -28.5t62.5 -8.5t62.5 8.5t61 28.5t51.5 59t26 93h88q-6 -77 -35.5 -133t-73 -84.5t-88 -41t-92.5 -12.5zM211 0v1018h100v-1018h-100z" />
    <glyph glyph-name="Iogonek" unicode="&#x12e;" horiz-adv-x="620" 
d="M256 8v1426h109v-1434q-79 -28 -135 -75.5t-56 -114.5q0 -58 43 -95t127 -37h21v-88h-35q-113 0 -183.5 53t-70.5 146q0 145 180 219z" />
    <glyph glyph-name="iogonek" unicode="&#x12f;" horiz-adv-x="579" 
d="M289 1294q-34 0 -56 21t-22 55t22 56t56 22q35 0 57.5 -22t22.5 -56t-22.5 -55t-57.5 -21zM240 10v1008h100v-1018q-79 -28 -134.5 -75.5t-55.5 -114.5q0 -58 43 -95t126 -37h21v-88h-35q-113 0 -183.5 53t-70.5 146q0 82 53.5 136t135.5 85z" />
    <glyph glyph-name="Idotaccent" unicode="&#x130;" horiz-adv-x="620" 
d="M311 1710q-35 0 -57.5 21t-22.5 55t22.5 56t57.5 22t57.5 -22t22.5 -56t-22.5 -55t-57.5 -21zM256 0v1434h109v-1434h-109z" />
    <glyph glyph-name="dotlessi" unicode="&#x131;" horiz-adv-x="522" 
d="M211 0v1018h100v-1018h-100z" />
    <glyph glyph-name="IJ" unicode="&#x132;" horiz-adv-x="2004" 
d="M256 0v1434h109v-1434h-109zM723 0v100h739q108 0 152.5 44.5t44.5 152.5v1137h108v-1153q0 -143 -69 -212t-211 -69h-764z" />
    <glyph glyph-name="ij" unicode="&#x133;" horiz-adv-x="1128" 
d="M289 1294q-35 0 -57.5 21t-22.5 55t22.5 56t57.5 22t57.5 -22t22.5 -56t-22.5 -55t-57.5 -21zM840 1294q-35 0 -57.5 21t-22.5 55t22.5 56t57.5 22t57.5 -22t22.5 -56t-22.5 -55t-57.5 -21zM240 0v1018h100v-1018h-100zM553 -410v97h90q77 0 112.5 35.5t35.5 111.5v1184
h100v-1192q0 -120 -58 -178t-178 -58h-102z" />
    <glyph glyph-name="Jcircumflex" unicode="&#x134;" horiz-adv-x="1384" 
d="M838 1583l217 272h78l217 -272h-103l-149 189h-8l-150 -189h-102zM102 0v100h740q108 0 152 44.5t44 152.5v1137h109v-1153q0 -143 -69.5 -212t-211.5 -69h-764z" />
    <glyph glyph-name="jcircumflex" unicode="&#x135;" horiz-adv-x="522" 
d="M4 1167l217 273h78l217 -273h-102l-150 189h-8l-150 -189h-102zM-27 -410v97h90q77 0 112.5 35.5t35.5 111.5v1184h100v-1192q0 -120 -57.5 -178t-177.5 -58h-103z" />
    <glyph glyph-name="uni0136" unicode="&#x136;" horiz-adv-x="1484" 
d="M256 0v1434h109v-631h245l611 631h141l-662 -682l674 -752h-143l-631 707h-235v-707h-109zM686 -481l59 170q-31 5 -50 26.5t-19 53.5q0 37 22 59t60 22t60 -22t22 -61q0 -31 -15 -78l-59 -170h-80z" />
    <glyph glyph-name="uni0137" unicode="&#x137;" horiz-adv-x="1150" 
d="M211 0v1434h100v-859h195l430 443h131l-475 -488l479 -530h-131l-436 483h-193v-483h-100zM504 -481l59 170q-31 5 -50 26.5t-19 53.5q0 37 21.5 59t59.5 22q39 0 60.5 -22t21.5 -61q0 -34 -14 -78l-59 -170h-80z" />
    <glyph glyph-name="kgreenlandic" unicode="&#x138;" horiz-adv-x="1150" 
d="M211 0v1018h100v-443h195l430 443h131l-475 -488l479 -530h-131l-436 483h-193v-483h-100z" />
    <glyph glyph-name="Lacute" unicode="&#x139;" horiz-adv-x="1402" 
d="M262 1583l164 266h109l-164 -266h-109zM256 0v1434h109v-1334h935v-100h-1044z" />
    <glyph glyph-name="lacute" unicode="&#x13a;" horiz-adv-x="604" 
d="M195 1583l163 266h109l-164 -266h-108zM428 0q-120 0 -177.5 58t-57.5 178v1198h100v-1190q0 -77 35.5 -112.5t111.5 -35.5h70v-96h-82z" />
    <glyph glyph-name="uni013B" unicode="&#x13b;" horiz-adv-x="1402" 
d="M256 0v1434h109v-1334h935v-100h-1044zM725 -481l59 170q-31 5 -50 26.5t-19 53.5q0 37 22 59t60 22q39 0 60.5 -22t21.5 -61q0 -31 -15 -78l-59 -170h-80z" />
    <glyph glyph-name="uni013C" unicode="&#x13c;" horiz-adv-x="604" 
d="M428 0q-120 0 -177.5 58t-57.5 178v1198h100v-1190q0 -77 35.5 -112.5t111.5 -35.5h70v-96h-82zM283 -481l59 170q-31 5 -50.5 26.5t-19.5 53.5q0 37 22 59t60 22t60 -22t22 -61q0 -34 -14 -78l-60 -170h-79z" />
    <glyph glyph-name="Lcaron" unicode="&#x13d;" horiz-adv-x="1402" 
d="M256 0v1434h109v-1334h935v-100h-1044zM565 1106l111 328h92l-111 -328h-92z" />
    <glyph glyph-name="lcaron" unicode="&#x13e;" horiz-adv-x="647" 
d="M428 0q-120 0 -177.5 58t-57.5 178v1198h100v-1190q0 -77 35.5 -112.5t111.5 -35.5h70v-96h-82zM397 1106l111 328h92l-111 -328h-92z" />
    <glyph glyph-name="Ldot" unicode="&#x13f;" horiz-adv-x="1402" 
d="M256 0v1434h109v-1334h935v-100h-1044zM805 600q-37 0 -59.5 22.5t-22.5 59.5q0 35 22.5 57.5t59.5 22.5q35 0 58.5 -22.5t23.5 -57.5q0 -36 -23 -59t-59 -23z" />
    <glyph glyph-name="ldot" unicode="&#x140;" horiz-adv-x="800" 
d="M428 0q-120 0 -177.5 58t-57.5 178v1198h100v-1190q0 -77 35.5 -112.5t111.5 -35.5h70v-96h-82zM580 547q-37 0 -59.5 22.5t-22.5 59.5q0 35 22.5 57.5t59.5 22.5q35 0 58.5 -22.5t23.5 -57.5q0 -36 -23 -59t-59 -23z" />
    <glyph glyph-name="Lslash" unicode="&#x141;" horiz-adv-x="1433" 
d="M31 582v100l256 94v658h108v-617l518 193v-101l-518 -192v-617h936v-100h-1044v678z" />
    <glyph glyph-name="lslash" unicode="&#x142;" horiz-adv-x="657" 
d="M457 0q-120 0 -178 58t-58 178v450l-164 -53v94l164 53v654h101v-621l217 72v-92l-217 -72v-477q0 -77 35.5 -112.5t111.5 -35.5h70v-96h-82z" />
    <glyph glyph-name="Nacute" unicode="&#x143;" horiz-adv-x="1689" 
d="M801 1583l164 266h108l-164 -266h-108zM1434 1434v-1434h-146l-915 1292h-8v-1292h-109v1434h147l914 -1293h8v1293h109z" />
    <glyph glyph-name="nacute" unicode="&#x144;" horiz-adv-x="1298" 
d="M614 1167l164 267h109l-164 -267h-109zM211 0v1018h100v-189h8q49 95 143 153t224 58q86 0 161 -27.5t133 -79.5t92 -135.5t34 -187.5v-610h-100v592q0 75 -19 136.5t-51 101.5t-75.5 67t-90 39t-96.5 12q-54 0 -104 -14t-98 -46t-83 -79t-56.5 -119t-21.5 -160v-530
h-100z" />
    <glyph glyph-name="uni0145" unicode="&#x145;" horiz-adv-x="1689" 
d="M1434 1434v-1434h-146l-915 1292h-8v-1292h-109v1434h147l914 -1293h8v1293h109zM772 -481l59 170q-31 5 -50 26.5t-19 53.5q0 37 22 59t60 22t60 -22t22 -61q0 -31 -15 -78l-59 -170h-80z" />
    <glyph glyph-name="uni0146" unicode="&#x146;" horiz-adv-x="1298" 
d="M211 0v1018h100v-189h8q49 95 143 153t224 58q86 0 161 -27.5t133 -79.5t92 -135.5t34 -187.5v-610h-100v592q0 75 -19 136.5t-51 101.5t-75.5 67t-90 39t-96.5 12q-54 0 -104 -14t-98 -46t-83 -79t-56.5 -119t-21.5 -160v-530h-100zM584 -481l59 170q-31 5 -50.5 26.5
t-19.5 53.5q0 37 22 59t60 22q39 0 60.5 -22t21.5 -61q0 -34 -14 -78l-59 -170h-80z" />
    <glyph glyph-name="Ncaron" unicode="&#x147;" horiz-adv-x="1689" 
d="M811 1583l-217 272h102l150 -188h8l150 188h102l-217 -272h-78zM1434 1434v-1434h-146l-915 1292h-8v-1292h-109v1434h147l914 -1293h8v1293h109z" />
    <glyph glyph-name="ncaron" unicode="&#x148;" horiz-adv-x="1298" 
d="M625 1167l-217 273h102l149 -189h9l149 189h103l-218 -273h-77zM211 0v1018h100v-189h8q49 95 143 153t224 58q86 0 161 -27.5t133 -79.5t92 -135.5t34 -187.5v-610h-100v592q0 75 -19 136.5t-51 101.5t-75.5 67t-90 39t-96.5 12q-54 0 -104 -14t-98 -46t-83 -79
t-56.5 -119t-21.5 -160v-530h-100z" />
    <glyph glyph-name="napostrophe" unicode="&#x149;" horiz-adv-x="1554" 
d="M127 1118l59 170q-32 3 -50.5 24.5t-18.5 55.5q0 36 22 58t60 22q37 0 59.5 -22.5t22.5 -61.5q0 -25 -17 -78l-57 -168h-80zM467 0v1018h100v-189h8q49 95 143 153t224 58q86 0 161 -27.5t133 -79.5t92 -135.5t34 -187.5v-610h-100v592q0 75 -19 136.5t-51 101.5
t-75.5 67t-90 39t-96.5 12q-54 0 -104 -14t-98 -46t-83 -79t-56.5 -119t-21.5 -160v-530h-100z" />
    <glyph glyph-name="Eng" unicode="&#x14a;" horiz-adv-x="1669" 
d="M365 1305v-1305h-109v1434h145l895 -1141h9v1141h108v-1608q0 -120 -57.5 -178t-177.5 -58h-107v97h86q77 0 112.5 35.5t35.5 111.5v285l-932 1186h-8z" />
    <glyph glyph-name="eng" unicode="&#x14b;" horiz-adv-x="1298" 
d="M768 -410v97h90q77 0 112.5 35.5t35.5 111.5v758q0 75 -19 136.5t-51 101.5t-75.5 67t-90 39t-96.5 12q-54 0 -104 -14t-98 -46t-83 -79t-56.5 -119t-21.5 -160v-530h-100v1018h100v-189h8q49 95 143 153t224 58q86 0 161 -27.5t133 -79.5t92 -135.5t34 -187.5v-784
q0 -120 -58 -178t-178 -58h-102z" />
    <glyph glyph-name="Omacron" unicode="&#x14c;" horiz-adv-x="1742" 
d="M522 1673v86h697v-86h-697zM870 -23q-202 0 -364 96t-253 265.5t-91 378.5t91 378t253 265t364 96q151 0 283.5 -56t226 -154t147.5 -235t54 -294q0 -209 -91.5 -378.5t-254.5 -265.5t-365 -96zM870 78q126 0 237 46.5t191.5 129.5t127.5 203t47 260t-47 260t-127.5 203
t-191.5 129.5t-237 46.5q-167 0 -304 -79.5t-217.5 -226.5t-80.5 -333t80.5 -333t217.5 -226.5t304 -79.5z" />
    <glyph glyph-name="omacron" unicode="&#x14d;" horiz-adv-x="1267" 
d="M285 1257v86h696v-86h-696zM633 -23q-225 0 -371.5 150t-146.5 383q0 231 146.5 380.5t371.5 149.5t372.5 -149.5t147.5 -380.5q0 -232 -147.5 -382.5t-372.5 -150.5zM633 72q185 0 301.5 122.5t116.5 315.5q0 192 -117 315t-301 123t-301 -123t-117 -315
q0 -193 116.5 -315.5t301.5 -122.5z" />
    <glyph glyph-name="Obreve" unicode="&#x14e;" horiz-adv-x="1742" 
d="M870 1585q-38 0 -73.5 7t-73 26t-66 48t-49.5 77.5t-26 111.5h88q5 -54 25.5 -93t51 -58.5t60.5 -28t63 -8.5t63 8.5t60.5 28t51.5 58.5t26 93h88q-6 -77 -35.5 -133t-73 -84t-88 -40.5t-92.5 -12.5zM870 -23q-202 0 -364 96t-253 265.5t-91 378.5t91 378t253 265t364 96
q151 0 283.5 -56t226 -154t147.5 -235t54 -294q0 -209 -91.5 -378.5t-254.5 -265.5t-365 -96zM870 78q126 0 237 46.5t191.5 129.5t127.5 203t47 260t-47 260t-127.5 203t-191.5 129.5t-237 46.5q-167 0 -304 -79.5t-217.5 -226.5t-80.5 -333t80.5 -333t217.5 -226.5
t304 -79.5z" />
    <glyph glyph-name="obreve" unicode="&#x14f;" horiz-adv-x="1267" 
d="M633 1169q-48 0 -92.5 12.5t-88 41t-73 84.5t-35.5 133h88q5 -54 26 -93t51.5 -59t61 -28.5t62.5 -8.5t62.5 8.5t61 28.5t51.5 59t26 93h88q-6 -77 -35.5 -133t-73 -84.5t-88 -41t-92.5 -12.5zM633 -23q-225 0 -371.5 150t-146.5 383q0 231 146.5 380.5t371.5 149.5
t372.5 -149.5t147.5 -380.5q0 -232 -147.5 -382.5t-372.5 -150.5zM633 72q185 0 301.5 122.5t116.5 315.5q0 192 -117 315t-301 123t-301 -123t-117 -315q0 -193 116.5 -315.5t301.5 -122.5z" />
    <glyph glyph-name="Ohungarumlaut" unicode="&#x150;" horiz-adv-x="1742" 
d="M942 1583l164 266h106l-163 -266h-107zM672 1583l164 266h106l-164 -266h-106zM870 -23q-202 0 -364 96t-253 265.5t-91 378.5t91 378t253 265t364 96q151 0 283.5 -56t226 -154t147.5 -235t54 -294q0 -209 -91.5 -378.5t-254.5 -265.5t-365 -96zM870 78q126 0 237 46.5
t191.5 129.5t127.5 203t47 260t-47 260t-127.5 203t-191.5 129.5t-237 46.5q-167 0 -304 -79.5t-217.5 -226.5t-80.5 -333t80.5 -333t217.5 -226.5t304 -79.5z" />
    <glyph glyph-name="ohungarumlaut" unicode="&#x151;" horiz-adv-x="1267" 
d="M705 1167l163 267h107l-164 -267h-106zM434 1167l164 267h107l-164 -267h-107zM633 -23q-225 0 -371.5 150t-146.5 383q0 231 146.5 380.5t371.5 149.5t372.5 -149.5t147.5 -380.5q0 -232 -147.5 -382.5t-372.5 -150.5zM633 72q185 0 301.5 122.5t116.5 315.5
q0 192 -117 315t-301 123t-301 -123t-117 -315q0 -193 116.5 -315.5t301.5 -122.5z" />
    <glyph glyph-name="OE" unicode="&#x152;" horiz-adv-x="2707" 
d="M1581 702v-602h948v-100h-1056v326h-9q-90 -163 -244 -256t-350 -93q-202 0 -364 96t-253 265.5t-91 378.5t91 378t253 265t364 96q196 0 350.5 -92.5t243.5 -255.5h9v326h1056v-101h-948v-530h834v-101h-834zM870 78q126 0 237 46.5t191.5 129.5t127.5 203t47 260
t-47 260t-127.5 203t-191.5 129.5t-237 46.5q-167 0 -304 -79.5t-217.5 -226.5t-80.5 -333t80.5 -333t217.5 -226.5t304 -79.5z" />
    <glyph glyph-name="oe" unicode="&#x153;" horiz-adv-x="2185" 
d="M633 -23q-225 0 -371.5 150t-146.5 383q0 231 146.5 380.5t371.5 149.5q161 0 284.5 -80.5t182.5 -220.5h8q62 140 183.5 220.5t277.5 80.5q216 0 359 -145.5t143 -362.5l-5 -63l-913 2q12 -175 129.5 -288t286.5 -113q121 0 218.5 60t147.5 161h107
q-62 -153 -190.5 -233.5t-282.5 -80.5q-156 0 -277 81.5t-184 220.5h-8q-61 -139 -184 -220.5t-283 -81.5zM1155 563l813 -2q-12 170 -123.5 278.5t-275.5 108.5q-163 0 -279 -108t-135 -277zM633 72q185 0 301.5 122.5t116.5 315.5q0 192 -117 315t-301 123t-301 -123
t-117 -315q0 -193 116.5 -315.5t301.5 -122.5z" />
    <glyph glyph-name="Racute" unicode="&#x154;" horiz-adv-x="1583" 
d="M758 1583l164 266h108l-164 -266h-108zM1305 0l-383 625h-557v-625h-109v1434h737q204 0 331.5 -107t127.5 -297q0 -178 -112 -283.5t-296 -117.5l386 -629h-125zM365 725h628q170 0 261.5 84t91.5 221q0 135 -92 219t-261 84h-628v-608z" />
    <glyph glyph-name="racute" unicode="&#x155;" horiz-adv-x="1034" 
d="M547 1167l164 267h108l-164 -267h-108zM211 0v1018h100v-189h8q92 189 338 189h281v-96h-281q-56 0 -104 -11t-93.5 -38t-77.5 -69t-51.5 -108.5t-19.5 -152.5v-543h-100z" />
    <glyph glyph-name="uni0156" unicode="&#x156;" horiz-adv-x="1583" 
d="M1305 0l-383 625h-557v-625h-109v1434h737q204 0 331.5 -107t127.5 -297q0 -178 -112 -283.5t-296 -117.5l386 -629h-125zM365 725h628q170 0 261.5 84t91.5 221q0 135 -92 219t-261 84h-628v-608zM735 -481l60 170q-31 5 -50.5 26.5t-19.5 53.5q0 37 22 59t60 22
q39 0 60.5 -22t21.5 -61q0 -31 -15 -78l-59 -170h-80z" />
    <glyph glyph-name="uni0157" unicode="&#x157;" horiz-adv-x="1034" 
d="M211 0v1018h100v-189h8q92 189 338 189h281v-96h-281q-56 0 -104 -11t-93.5 -38t-77.5 -69t-51.5 -108.5t-19.5 -152.5v-543h-100zM188 -481l60 170q-31 5 -50.5 26.5t-19.5 53.5q0 37 22 59t60 22t60 -22t22 -61q0 -34 -14 -78l-60 -170h-80z" />
    <glyph glyph-name="Rcaron" unicode="&#x158;" horiz-adv-x="1583" 
d="M768 1583l-217 272h102l150 -188h8l150 188h102l-217 -272h-78zM1305 0l-383 625h-557v-625h-109v1434h737q204 0 331.5 -107t127.5 -297q0 -178 -112 -283.5t-296 -117.5l386 -629h-125zM365 725h628q170 0 261.5 84t91.5 221q0 135 -92 219t-261 84h-628v-608z" />
    <glyph glyph-name="rcaron" unicode="&#x159;" horiz-adv-x="1034" 
d="M557 1167l-217 273h102l150 -189h8l150 189h102l-217 -273h-78zM211 0v1018h100v-189h8q92 189 338 189h281v-96h-281q-56 0 -104 -11t-93.5 -38t-77.5 -69t-51.5 -108.5t-19.5 -152.5v-543h-100z" />
    <glyph glyph-name="Sacute" unicode="&#x15a;" horiz-adv-x="1482" 
d="M657 1583l164 266h109l-164 -266h-109zM793 -23q-103 0 -193 13t-177 45.5t-150.5 83t-105.5 131t-50 184.5h110q8 -84 44.5 -148t90 -103t127 -64t147 -34t157.5 -9q69 0 127 6t119.5 25t103.5 50t69 84.5t27 125.5q0 82 -36.5 139t-98 87.5t-141.5 49.5t-168.5 30.5
t-176.5 24t-168 36.5t-141.5 62t-98 106t-36.5 163q0 88 34 158t88 112.5t127.5 70.5t145.5 39t150 11q86 0 163 -13t149.5 -42.5t128 -74.5t94 -113.5t51.5 -153.5h-113q-16 80 -62 140t-112.5 93.5t-141 49.5t-157.5 16q-84 0 -158.5 -15.5t-138.5 -48.5t-101.5 -91.5
t-37.5 -137.5q0 -75 36.5 -127.5t98 -79.5t141 -44t167.5 -28.5t176.5 -25t168 -39.5t141 -67t98 -114t36.5 -173q0 -390 -553 -390z" />
    <glyph glyph-name="sacute" unicode="&#x15b;" horiz-adv-x="1107" 
d="M489 1167l164 267h109l-164 -267h-109zM573 -23q-69 0 -131.5 9.5t-123.5 34t-106.5 62.5t-77 97.5t-38.5 136.5h107q7 -67 42.5 -117t89.5 -77.5t113 -40t125 -12.5q56 0 106.5 9t99.5 30t78.5 63t29.5 100q0 67 -41.5 109.5t-108 61t-147 30.5t-161 27.5t-147 41.5
t-108 82t-41.5 140q0 65 26 115t66.5 79.5t96 48.5t108 26t109.5 7q79 0 147 -14.5t130.5 -46t103 -92t49.5 -144.5h-107q-9 58 -40.5 100t-79 64t-97.5 31.5t-106 9.5q-40 0 -77.5 -4t-80.5 -16t-74.5 -31.5t-52.5 -53.5t-21 -79q0 -48 26 -82t69.5 -52.5t100.5 -31
t119.5 -22t125 -20.5t119.5 -31.5t100.5 -50.5t69.5 -81.5t26 -120.5q0 -68 -25 -121t-65 -85t-96 -52.5t-111.5 -28.5t-118.5 -8z" />
    <glyph glyph-name="Scircumflex" unicode="&#x15c;" horiz-adv-x="1482" 
d="M451 1583l217 272h77l218 -272h-103l-149 189h-9l-149 -189h-102zM793 -23q-103 0 -193 13t-177 45.5t-150.5 83t-105.5 131t-50 184.5h110q8 -84 44.5 -148t90 -103t127 -64t147 -34t157.5 -9q69 0 127 6t119.5 25t103.5 50t69 84.5t27 125.5q0 82 -36.5 139t-98 87.5
t-141.5 49.5t-168.5 30.5t-176.5 24t-168 36.5t-141.5 62t-98 106t-36.5 163q0 88 34 158t88 112.5t127.5 70.5t145.5 39t150 11q86 0 163 -13t149.5 -42.5t128 -74.5t94 -113.5t51.5 -153.5h-113q-16 80 -62 140t-112.5 93.5t-141 49.5t-157.5 16q-84 0 -158.5 -15.5
t-138.5 -48.5t-101.5 -91.5t-37.5 -137.5q0 -75 36.5 -127.5t98 -79.5t141 -44t167.5 -28.5t176.5 -25t168 -39.5t141 -67t98 -114t36.5 -173q0 -390 -553 -390z" />
    <glyph glyph-name="scircumflex" unicode="&#x15d;" horiz-adv-x="1107" 
d="M283 1167l217 273h78l217 -273h-103l-149 189h-8l-150 -189h-102zM573 -23q-69 0 -131.5 9.5t-123.5 34t-106.5 62.5t-77 97.5t-38.5 136.5h107q7 -67 42.5 -117t89.5 -77.5t113 -40t125 -12.5q56 0 106.5 9t99.5 30t78.5 63t29.5 100q0 67 -41.5 109.5t-108 61
t-147 30.5t-161 27.5t-147 41.5t-108 82t-41.5 140q0 65 26 115t66.5 79.5t96 48.5t108 26t109.5 7q79 0 147 -14.5t130.5 -46t103 -92t49.5 -144.5h-107q-9 58 -40.5 100t-79 64t-97.5 31.5t-106 9.5q-40 0 -77.5 -4t-80.5 -16t-74.5 -31.5t-52.5 -53.5t-21 -79
q0 -48 26 -82t69.5 -52.5t100.5 -31t119.5 -22t125 -20.5t119.5 -31.5t100.5 -50.5t69.5 -81.5t26 -120.5q0 -68 -25 -121t-65 -85t-96 -52.5t-111.5 -28.5t-118.5 -8z" />
    <glyph glyph-name="Scedilla" unicode="&#x15e;" horiz-adv-x="1482" 
d="M1346 367q0 -99 -36 -171.5t-91 -113.5t-137 -65.5t-156 -32t-166 -7.5l-27 -47q75 -13 115.5 -56.5t40.5 -106.5q0 -83 -62.5 -130t-160.5 -47h-78v84h78q55 0 93 25.5t38 75.5q0 49 -37.5 74.5t-93.5 25.5h-41l57 109q-113 8 -205.5 34.5t-172.5 77.5t-129 137t-58 201
h110q8 -84 44.5 -148t90 -103t127 -64t147 -34t157.5 -9q69 0 127 6t119.5 25t103.5 50t69 84.5t27 125.5q0 82 -36.5 139t-98 87.5t-141.5 49.5t-168.5 30.5t-176.5 24t-168 36.5t-141.5 62t-98 106t-36.5 163q0 88 34 158t88 112.5t127.5 70.5t145.5 39t150 11
q86 0 163 -13t149.5 -42.5t128 -74.5t94 -113.5t51.5 -153.5h-113q-16 80 -62 140t-112.5 93.5t-141 49.5t-157.5 16q-84 0 -158.5 -15.5t-138.5 -48.5t-101.5 -91.5t-37.5 -137.5q0 -75 36.5 -127.5t98 -79.5t141 -44t167.5 -28.5t176.5 -25t168 -39.5t141 -67t98 -114
t36.5 -173z" />
    <glyph glyph-name="scedilla" unicode="&#x15f;" horiz-adv-x="1107" 
d="M412 -410v84h80q55 0 92 25.5t37 75.5t-37 75t-92 25h-43l57 107q-79 6 -145 25.5t-124.5 57.5t-95.5 102t-45 150h107q7 -67 42.5 -117t89.5 -77.5t113 -40t125 -12.5q56 0 106.5 9t99.5 30t78.5 63t29.5 100q0 67 -41.5 109.5t-108 61t-147 30.5t-161 27.5t-147 41.5
t-108 82t-41.5 140q0 65 26 115t66.5 79.5t96 48.5t108 26t109.5 7q79 0 147 -14.5t130.5 -46t103 -92t49.5 -144.5h-107q-9 58 -40.5 100t-79 64t-97.5 31.5t-106 9.5q-40 0 -77.5 -4t-80.5 -16t-74.5 -31.5t-52.5 -53.5t-21 -79q0 -48 26 -82t69.5 -52.5t100.5 -31
t119.5 -22t125 -20.5t119.5 -31.5t100.5 -50.5t69.5 -81.5t26 -120.5q0 -67 -24 -119t-62.5 -84.5t-92.5 -53.5t-108.5 -29t-115.5 -9l-27 -47q75 -13 115.5 -56.5t40.5 -106.5q0 -83 -62.5 -130t-160.5 -47h-80z" />
    <glyph glyph-name="Scaron" unicode="&#x160;" horiz-adv-x="1482" 
d="M668 1583l-217 272h102l149 -188h9l149 188h103l-218 -272h-77zM793 -23q-103 0 -193 13t-177 45.5t-150.5 83t-105.5 131t-50 184.5h110q8 -84 44.5 -148t90 -103t127 -64t147 -34t157.5 -9q69 0 127 6t119.5 25t103.5 50t69 84.5t27 125.5q0 82 -36.5 139t-98 87.5
t-141.5 49.5t-168.5 30.5t-176.5 24t-168 36.5t-141.5 62t-98 106t-36.5 163q0 88 34 158t88 112.5t127.5 70.5t145.5 39t150 11q86 0 163 -13t149.5 -42.5t128 -74.5t94 -113.5t51.5 -153.5h-113q-16 80 -62 140t-112.5 93.5t-141 49.5t-157.5 16q-84 0 -158.5 -15.5
t-138.5 -48.5t-101.5 -91.5t-37.5 -137.5q0 -75 36.5 -127.5t98 -79.5t141 -44t167.5 -28.5t176.5 -25t168 -39.5t141 -67t98 -114t36.5 -173q0 -390 -553 -390z" />
    <glyph glyph-name="scaron" unicode="&#x161;" horiz-adv-x="1107" 
d="M500 1167l-217 273h102l150 -189h8l149 189h103l-217 -273h-78zM573 -23q-69 0 -131.5 9.5t-123.5 34t-106.5 62.5t-77 97.5t-38.5 136.5h107q7 -67 42.5 -117t89.5 -77.5t113 -40t125 -12.5q56 0 106.5 9t99.5 30t78.5 63t29.5 100q0 67 -41.5 109.5t-108 61t-147 30.5
t-161 27.5t-147 41.5t-108 82t-41.5 140q0 65 26 115t66.5 79.5t96 48.5t108 26t109.5 7q79 0 147 -14.5t130.5 -46t103 -92t49.5 -144.5h-107q-9 58 -40.5 100t-79 64t-97.5 31.5t-106 9.5q-40 0 -77.5 -4t-80.5 -16t-74.5 -31.5t-52.5 -53.5t-21 -79q0 -48 26 -82
t69.5 -52.5t100.5 -31t119.5 -22t125 -20.5t119.5 -31.5t100.5 -50.5t69.5 -81.5t26 -120.5q0 -68 -25 -121t-65 -85t-96 -52.5t-111.5 -28.5t-118.5 -8z" />
    <glyph glyph-name="uni0162" unicode="&#x162;" horiz-adv-x="1566" 
d="M729 14v1319h-604v101h1317v-101h-604v-1333h-25l-39 -70q75 -13 115.5 -56.5t40.5 -106.5q0 -83 -62.5 -130t-160.5 -47h-80v84h80q55 0 92 25.5t37 75.5t-37 75t-92 25h-43l75 139h-10z" />
    <glyph glyph-name="uni0163" unicode="&#x163;" horiz-adv-x="1191" 
d="M481 -410v84h78q55 0 93 25.5t38 75.5q0 49 -37.5 74.5t-93.5 25.5h-41l70 129q-207 23 -207 264v658h-285v92h285v368h100v-368h578v-92h-578v-645q0 -103 42 -145t145 -42h391v-94h-391l-41 -70q75 -13 115 -56.5t40 -106.5q0 -83 -62.5 -130t-160.5 -47h-78z" />
    <glyph glyph-name="Tcaron" unicode="&#x164;" horiz-adv-x="1566" 
d="M743 1583l-217 272h103l149 -188h8l150 188h102l-217 -272h-78zM729 0v1333h-604v101h1317v-101h-604v-1333h-109z" />
    <glyph glyph-name="tcaron" unicode="&#x165;" horiz-adv-x="1191" 
d="M836 1106l110 328h92l-110 -328h-92zM649 0q-138 0 -203 65t-65 203v658h-285v92h285v368h100v-368h578v-92h-578v-645q0 -103 42 -145t145 -42h391v-94h-410z" />
    <glyph glyph-name="Tbar" unicode="&#x166;" horiz-adv-x="1566" 
d="M262 735v94h467v504h-604v101h1317v-101h-604v-504h467v-94h-467v-735h-109v735h-467z" />
    <glyph glyph-name="tbar" unicode="&#x167;" horiz-adv-x="1226" 
d="M111 494v94h284v338h-284v92h284v368h103v-368h577v-92h-577v-338h579v-94h-579v-213q0 -103 41.5 -145t142.5 -42h393v-94h-411q-137 0 -203 65.5t-66 202.5v226h-284z" />
    <glyph glyph-name="Utilde" unicode="&#x168;" horiz-adv-x="1599" 
d="M653 1827q46 0 89.5 -21t72 -45.5t64.5 -45.5t69 -21q40 0 66 28.5t30 83.5h82q-4 -97 -52.5 -148.5t-125.5 -51.5q-46 0 -89.5 21t-72 45.5t-64.5 45.5t-69 21q-40 0 -66 -29t-30 -84h-82q4 97 52.5 149t125.5 52zM801 -23q-122 0 -229 40t-188.5 115t-129 193
t-47.5 265v844h108v-844q0 -125 38.5 -224t105.5 -161t154.5 -94.5t187.5 -32.5t187 32.5t153.5 94.5t104.5 161t38 224v844h109v-844q0 -147 -47.5 -265t-129 -193t-188 -115t-227.5 -40z" />
    <glyph glyph-name="utilde" unicode="&#x169;" horiz-adv-x="1298" 
d="M489 1411q46 0 89.5 -21t72 -45.5t64.5 -45.5t69 -21q40 0 66.5 29t30.5 84h82q-4 -97 -53 -149t-126 -52q-46 0 -89.5 21t-72 45.5t-64.5 45.5t-69 21q-40 0 -66 -29t-30 -84h-82q4 97 52.5 149t125.5 52zM1087 1018v-1018h-100v188h-8q-49 -95 -143 -153t-224 -58
q-86 0 -161 27.5t-133 80t-91.5 136t-33.5 187.5v610h100v-592q0 -75 19 -136.5t51 -101.5t75.5 -67t90 -39t96.5 -12q54 0 104 13.5t97.5 45.5t82.5 79t56.5 119t21.5 160v531h100z" />
    <glyph glyph-name="Umacron" unicode="&#x16a;" horiz-adv-x="1599" 
d="M453 1673v86h696v-86h-696zM801 -23q-122 0 -229 40t-188.5 115t-129 193t-47.5 265v844h108v-844q0 -125 38.5 -224t105.5 -161t154.5 -94.5t187.5 -32.5t187 32.5t153.5 94.5t104.5 161t38 224v844h109v-844q0 -147 -47.5 -265t-129 -193t-188 -115t-227.5 -40z" />
    <glyph glyph-name="umacron" unicode="&#x16b;" horiz-adv-x="1298" 
d="M289 1257v86h696v-86h-696zM1087 1018v-1018h-100v188h-8q-49 -95 -143 -153t-224 -58q-86 0 -161 27.5t-133 80t-91.5 136t-33.5 187.5v610h100v-592q0 -75 19 -136.5t51 -101.5t75.5 -67t90 -39t96.5 -12q54 0 104 13.5t97.5 45.5t82.5 79t56.5 119t21.5 160v531h100z
" />
    <glyph glyph-name="Ubreve" unicode="&#x16c;" horiz-adv-x="1599" 
d="M801 1585q-48 0 -92.5 12.5t-88 40.5t-73 84t-35.5 133h88q5 -54 26 -93t51.5 -58.5t60.5 -28t63 -8.5t63 8.5t60.5 28t51 58.5t25.5 93h89q-6 -77 -35.5 -133t-73 -84t-88 -40.5t-92.5 -12.5zM801 -23q-122 0 -229 40t-188.5 115t-129 193t-47.5 265v844h108v-844
q0 -125 38.5 -224t105.5 -161t154.5 -94.5t187.5 -32.5t187 32.5t153.5 94.5t104.5 161t38 224v844h109v-844q0 -147 -47.5 -265t-129 -193t-188 -115t-227.5 -40z" />
    <glyph glyph-name="ubreve" unicode="&#x16d;" horiz-adv-x="1298" 
d="M637 1169q-48 0 -92.5 12.5t-88 41t-73 84.5t-35.5 133h88q5 -54 26 -93t51.5 -59t61 -28.5t62.5 -8.5t62.5 8.5t61 28.5t51.5 59t26 93h88q-6 -77 -35.5 -133t-73 -84.5t-88 -41t-92.5 -12.5zM1087 1018v-1018h-100v188h-8q-49 -95 -143 -153t-224 -58q-86 0 -161 27.5
t-133 80t-91.5 136t-33.5 187.5v610h100v-592q0 -75 19 -136.5t51 -101.5t75.5 -67t90 -39t96.5 -12q54 0 104 13.5t97.5 45.5t82.5 79t56.5 119t21.5 160v531h100z" />
    <glyph glyph-name="Uring" unicode="&#x16e;" horiz-adv-x="1599" 
d="M801 1573q-87 0 -143 52.5t-56 135.5q0 84 56 137.5t143 53.5t142.5 -53.5t55.5 -137.5q0 -83 -55.5 -135.5t-142.5 -52.5zM713 1733q15 -37 48.5 -53t69.5 -3q37 14 54 46.5t4 68.5q-15 37 -48.5 52t-70.5 3q-37 -14 -53.5 -46t-3.5 -68zM801 -23q-122 0 -229 40
t-188.5 115t-129 193t-47.5 265v844h108v-844q0 -125 38.5 -224t105.5 -161t154.5 -94.5t187.5 -32.5t187 32.5t153.5 94.5t104.5 161t38 224v844h109v-844q0 -147 -47.5 -265t-129 -193t-188 -115t-227.5 -40z" />
    <glyph glyph-name="uring" unicode="&#x16f;" horiz-adv-x="1298" 
d="M637 1157q-87 0 -143 53t-56 136q0 84 56 137t143 53t143 -53t56 -137q0 -83 -56 -136t-143 -53zM549 1317q15 -37 48.5 -52.5t70.5 -2.5q37 14 53.5 46t3.5 68q-15 37 -48.5 52.5t-70.5 3.5q-37 -14 -53.5 -46.5t-3.5 -68.5zM1087 1018v-1018h-100v188h-8
q-49 -95 -143 -153t-224 -58q-86 0 -161 27.5t-133 80t-91.5 136t-33.5 187.5v610h100v-592q0 -75 19 -136.5t51 -101.5t75.5 -67t90 -39t96.5 -12q54 0 104 13.5t97.5 45.5t82.5 79t56.5 119t21.5 160v531h100z" />
    <glyph glyph-name="Uhungarumlaut" unicode="&#x170;" horiz-adv-x="1599" 
d="M872 1583l164 266h107l-164 -266h-107zM602 1583l164 266h106l-163 -266h-107zM801 -23q-122 0 -229 40t-188.5 115t-129 193t-47.5 265v844h108v-844q0 -125 38.5 -224t105.5 -161t154.5 -94.5t187.5 -32.5t187 32.5t153.5 94.5t104.5 161t38 224v844h109v-844
q0 -147 -47.5 -265t-129 -193t-188 -115t-227.5 -40z" />
    <glyph glyph-name="uhungarumlaut" unicode="&#x171;" horiz-adv-x="1298" 
d="M709 1167l163 267h107l-164 -267h-106zM438 1167l164 267h107l-164 -267h-107zM1087 1018v-1018h-100v188h-8q-49 -95 -143 -153t-224 -58q-86 0 -161 27.5t-133 80t-91.5 136t-33.5 187.5v610h100v-592q0 -75 19 -136.5t51 -101.5t75.5 -67t90 -39t96.5 -12
q54 0 104 13.5t97.5 45.5t82.5 79t56.5 119t21.5 160v531h100z" />
    <glyph glyph-name="Uogonek" unicode="&#x172;" horiz-adv-x="1599" 
d="M934 -410q-113 0 -183.5 53t-70.5 146q0 119 119 191q-271 0 -431.5 168.5t-160.5 441.5v844h108v-844q0 -125 38.5 -224t105.5 -161t154.5 -94.5t187.5 -32.5t187 32.5t153.5 94.5t104.5 161t38 224v844h109v-844q0 -242 -119.5 -394.5t-315.5 -199.5
q-75 -28 -128.5 -75t-53.5 -111q0 -57 44 -94.5t128 -37.5h21v-88h-35z" />
    <glyph glyph-name="uogonek" unicode="&#x173;" horiz-adv-x="1298" 
d="M1087 1018v-1018q-49 -18 -88.5 -41t-70.5 -63t-31 -86q0 -57 44 -94.5t126 -37.5h20v-88h-32q-113 0 -183.5 53t-70.5 146q0 82 52.5 136.5t133.5 84.5v180h-8q-49 -95 -143 -154t-224 -59q-86 0 -161 27.5t-133 80t-91.5 136t-33.5 187.5v610h100v-592
q0 -94 28.5 -164.5t77 -110.5t105.5 -59.5t121 -19.5q54 0 104 13.5t97.5 45t82.5 78.5t56.5 119t21.5 161v529h100z" />
    <glyph glyph-name="Wcircumflex" unicode="&#x174;" horiz-adv-x="2467" 
d="M979 1583l217 272h78l217 -272h-102l-150 189h-8l-150 -189h-102zM2380 1434l-547 -1434h-92l-502 1282h-8l-504 -1282h-92l-547 1434h115l475 -1256h8l492 1256h112l492 -1256h8l477 1256h113z" />
    <glyph glyph-name="wcircumflex" unicode="&#x175;" horiz-adv-x="1992" 
d="M741 1167l217 273h78l217 -273h-102l-150 189h-8l-149 -189h-103zM532 0l-415 1018h106l361 -881h8l348 881h115l348 -881h8l361 881h106l-418 -1018h-108l-351 887h-8l-352 -887h-109z" />
    <glyph glyph-name="Ycircumflex" unicode="&#x176;" horiz-adv-x="1472" 
d="M479 1583l217 272h78l217 -272h-102l-150 189h-8l-149 -189h-103zM682 0v635l-629 799h131l551 -699l553 699h131l-628 -799v-635h-109z" />
    <glyph glyph-name="ycircumflex" unicode="&#x177;" horiz-adv-x="1206" 
d="M360 1167l218 273h77l217 -273h-102l-149 189h-9l-149 -189h-103zM162 -410v97h147q70 0 108.5 27.5t63.5 86.5l88 205l-477 1012h113l411 -877h13l377 877h108l-539 -1254q-42 -97 -101.5 -135.5t-164.5 -38.5h-147z" />
    <glyph glyph-name="Ydieresis" unicode="&#x178;" horiz-adv-x="1472" 
d="M557 1710q-35 0 -57.5 21t-22.5 55t22.5 56t57.5 22q34 0 56 -22t22 -56t-22 -55t-56 -21zM913 1710q-34 0 -55.5 21t-21.5 55t21.5 56t55.5 22q35 0 57.5 -22t22.5 -56t-22.5 -55t-57.5 -21zM682 0v635l-629 799h131l551 -699l553 699h131l-628 -799v-635h-109z" />
    <glyph glyph-name="Zacute" unicode="&#x179;" horiz-adv-x="1501" 
d="M702 1583l164 266h109l-164 -266h-109zM150 0v80l1028 1245v8h-1016v101h1175v-80l-1026 -1245v-9h1039v-100h-1200z" />
    <glyph glyph-name="zacute" unicode="&#x17a;" horiz-adv-x="1073" 
d="M487 1167l164 267h109l-164 -267h-109zM123 0v70l672 848v8h-664v92h811v-70l-672 -848v-8h680v-92h-827z" />
    <glyph glyph-name="Zdotaccent" unicode="&#x17b;" horiz-adv-x="1501" 
d="M752 1710q-35 0 -57.5 21t-22.5 55t22.5 56t57.5 22t57 -22t22 -56t-22 -55t-57 -21zM150 0v80l1028 1245v8h-1016v101h1175v-80l-1026 -1245v-9h1039v-100h-1200z" />
    <glyph glyph-name="zdotaccent" unicode="&#x17c;" horiz-adv-x="1073" 
d="M537 1294q-35 0 -57.5 21t-22.5 55t22.5 56t57.5 22t57 -22t22 -56t-22 -55t-57 -21zM123 0v70l672 848v8h-664v92h811v-70l-672 -848v-8h680v-92h-827z" />
    <glyph glyph-name="Zcaron" unicode="&#x17d;" horiz-adv-x="1501" 
d="M713 1583l-217 272h102l150 -188h8l149 188h103l-217 -272h-78zM150 0v80l1028 1245v8h-1016v101h1175v-80l-1026 -1245v-9h1039v-100h-1200z" />
    <glyph glyph-name="zcaron" unicode="&#x17e;" horiz-adv-x="1073" 
d="M498 1167l-217 273h102l149 -189h9l149 189h103l-218 -273h-77zM123 0v70l672 848v8h-664v92h811v-70l-672 -848v-8h680v-92h-827z" />
    <glyph glyph-name="longs" unicode="&#x17f;" horiz-adv-x="692" 
d="M649 1434h369v-95h-350q-103 0 -145 -41.5t-42 -144.5v-1153h-100v926h-285v92h285v147q0 138 65 203.5t203 65.5z" />
    <glyph glyph-name="florin" unicode="&#x192;" horiz-adv-x="1196" 
d="M117 926v92h284v147q0 138 65.5 203.5t203.5 65.5h409v-95h-391q-103 0 -144.5 -41.5t-41.5 -144.5v-135h577v-92h-577v-1067q0 -138 -65 -203.5t-201 -65.5h-119v95h98q103 0 144.5 41.5t41.5 144.5v1055h-284z" />
    <glyph glyph-name="uni01C4" unicode="&#x1c4;" horiz-adv-x="3143" 
d="M2355 1583l-217 272h103l149 -188h8l150 188h102l-217 -272h-78zM256 0v1434h510q152 0 284.5 -54t227 -148t149 -227.5t54.5 -287.5t-54.5 -287.5t-149 -227.5t-227 -148t-284.5 -54h-510zM1792 0v80l1028 1245v8h-1016v101h1176v-80l-1026 -1245v-9h1038v-100h-1200z
M365 100h401q167 0 305 75.5t220.5 217.5t82.5 324q0 137 -48 253t-130.5 195t-193.5 123.5t-236 44.5h-401v-1233z" />
    <glyph glyph-name="uni01C5" unicode="&#x1c5;" horiz-adv-x="2715" 
d="M748 1583l-218 272h103l149 -188h9l149 188h102l-217 -272h-77zM256 0v1434h510q152 0 284.5 -54t227 -148t149 -227.5t54.5 -287.5t-54.5 -287.5t-149 -227.5t-227 -148t-284.5 -54h-510zM365 100h401q167 0 305 75.5t220.5 217.5t82.5 324q0 137 -48 253t-130.5 195
t-193.5 123.5t-236 44.5h-401v-1233zM1765 0v70l672 848v8h-663v92h811v-70l-672 -848v-8h680v-92h-828z" />
    <glyph glyph-name="uni01C6" unicode="&#x1c6;" horiz-adv-x="2433" 
d="M1858 1167l-218 273h103l149 -189h9l149 189h102l-217 -273h-77zM625 -23q-223 0 -366.5 150t-143.5 383q0 232 143.5 381t366.5 149q138 0 246 -62t169 -173h9v629h100v-1434h-100v215h-9q-60 -113 -168 -175.5t-247 -62.5zM1483 0v70l671 848v8h-663v92h811v-70
l-672 -848v-8h680v-92h-827zM633 72q185 0 301.5 122.5t116.5 315.5q0 192 -117 315t-301 123t-301 -123t-117 -315q0 -193 116.5 -315.5t301.5 -122.5z" />
    <glyph glyph-name="uni01C7" unicode="&#x1c7;" horiz-adv-x="2787" 
d="M256 0v1434h109v-1334h935v-100h-1044zM1505 0v100h740q108 0 152 44.5t44 152.5v1137h109v-1153q0 -143 -69 -212t-212 -69h-764z" />
    <glyph glyph-name="uni01C8" unicode="&#x1c8;" horiz-adv-x="1953" 
d="M1665 1294q-35 0 -57.5 21t-22.5 55t22.5 56t57.5 22t57.5 -22t22.5 -56t-22.5 -55t-57.5 -21zM256 0v1434h109v-1334h935v-100h-1044zM1376 -410v97h90q77 0 112.5 35.5t35.5 111.5v1184h100v-1192q0 -120 -57.5 -178t-177.5 -58h-103z" />
    <glyph glyph-name="uni01C9" unicode="&#x1c9;" horiz-adv-x="1155" 
d="M866 1294q-35 0 -57.5 21t-22.5 55t22.5 56t57.5 22t57.5 -22t22.5 -56t-22.5 -55t-57.5 -21zM428 0q-120 0 -177.5 58t-57.5 178v1198h100v-1190q0 -77 35.5 -112.5t111.5 -35.5h70v-96h-82zM578 -410v97h90q76 0 111.5 35.5t35.5 111.5v1184h100v-1192
q0 -120 -57.5 -178t-177.5 -58h-102z" />
    <glyph glyph-name="uni01CA" unicode="&#x1ca;" horiz-adv-x="3074" 
d="M1434 1434v-1434h-146l-915 1292h-8v-1292h-109v1434h147l914 -1293h8v1293h109zM1792 0v100h739q108 0 152.5 44.5t44.5 152.5v1137h108v-1153q0 -143 -69 -212t-211 -69h-764z" />
    <glyph glyph-name="uni01CB" unicode="&#x1cb;" horiz-adv-x="2240" 
d="M1952 1294q-35 0 -57.5 21t-22.5 55t22.5 56t57.5 22t57.5 -22t22.5 -56t-22.5 -55t-57.5 -21zM1434 1434v-1434h-146l-915 1292h-8v-1292h-109v1434h147l914 -1293h8v1293h109zM1663 -410v97h90q77 0 112.5 35.5t35.5 111.5v1184h100v-1192q0 -120 -58 -178t-178 -58
h-102z" />
    <glyph glyph-name="uni01CC" unicode="&#x1cc;" horiz-adv-x="1849" 
d="M1559 1294q-35 0 -57.5 21t-22.5 55t22.5 56t57.5 22t57 -22t22 -56t-22 -55t-57 -21zM211 0v1018h100v-189h8q49 95 143 153t224 58q86 0 161 -27.5t133 -79.5t92 -135.5t34 -187.5v-610h-100v592q0 75 -19 136.5t-51 101.5t-75.5 67t-90 39t-96.5 12q-54 0 -104 -14
t-98 -46t-83 -79t-56.5 -119t-21.5 -160v-530h-100zM1272 -410v97h90q76 0 111.5 35.5t35.5 111.5v1184h101v-1192q0 -120 -58 -178t-178 -58h-102z" />
    <glyph glyph-name="uni01CD" unicode="&#x1cd;" horiz-adv-x="1480" 
d="M700 1583l-217 272h103l149 -188h8l150 188h102l-217 -272h-78zM1419 0h-112l-172 391h-789l-172 -391h-113l635 1434h88zM391 489h699l-347 783h-8z" />
    <glyph glyph-name="uni01CE" unicode="&#x1ce;" horiz-adv-x="1210" 
d="M549 1167l-217 273h102l150 -189h8l149 189h103l-217 -273h-78zM440 -23q-44 0 -82.5 5t-85.5 22t-80.5 45t-56 79t-22.5 120q0 55 16.5 99.5t44 75t70 55.5t86.5 40.5t102 30.5l455 115v18q0 64 -19.5 113t-49.5 77.5t-71.5 46t-79 23.5t-77.5 6q-127 0 -219.5 -60
t-110.5 -173h-106q19 150 137 237.5t299 87.5q51 0 97.5 -6.5t104 -30t98.5 -62t69 -108.5t28 -163v-518q0 -31 12 -43.5t43 -12.5h66v-96h-90q-116 0 -125 109l-4 81h-8q-64 -100 -179.5 -156.5t-261.5 -56.5zM446 70q62 0 122.5 12.5t118.5 41t102 71t71 108t27 146.5v118
l-443 -110q-128 -33 -178.5 -80t-50.5 -125q0 -182 231 -182z" />
    <glyph glyph-name="uni01CF" unicode="&#x1cf;" horiz-adv-x="620" 
d="M272 1583l-217 272h103l149 -188h8l150 188h102l-217 -272h-78zM256 0v1434h109v-1434h-109z" />
    <glyph glyph-name="uni01D0" unicode="&#x1d0;" horiz-adv-x="522" 
d="M221 1167l-217 273h102l150 -189h8l150 189h102l-217 -273h-78zM211 0v1018h100v-1018h-100z" />
    <glyph glyph-name="uni01D1" unicode="&#x1d1;" horiz-adv-x="1742" 
d="M831 1583l-217 272h103l149 -188h8l150 188h102l-217 -272h-78zM870 -23q-202 0 -364 96t-253 265.5t-91 378.5t91 378t253 265t364 96q151 0 283.5 -56t226 -154t147.5 -235t54 -294q0 -209 -91.5 -378.5t-254.5 -265.5t-365 -96zM870 78q126 0 237 46.5t191.5 129.5
t127.5 203t47 260t-47 260t-127.5 203t-191.5 129.5t-237 46.5q-167 0 -304 -79.5t-217.5 -226.5t-80.5 -333t80.5 -333t217.5 -226.5t304 -79.5z" />
    <glyph glyph-name="uni01D2" unicode="&#x1d2;" horiz-adv-x="1267" 
d="M594 1167l-217 273h102l150 -189h8l149 189h103l-217 -273h-78zM633 -23q-225 0 -371.5 150t-146.5 383q0 231 146.5 380.5t371.5 149.5t372.5 -149.5t147.5 -380.5q0 -232 -147.5 -382.5t-372.5 -150.5zM633 72q185 0 301.5 122.5t116.5 315.5q0 192 -117 315t-301 123
t-301 -123t-117 -315q0 -193 116.5 -315.5t301.5 -122.5z" />
    <glyph glyph-name="uni01D3" unicode="&#x1d3;" horiz-adv-x="1599" 
d="M762 1583l-217 272h102l150 -188h8l149 188h103l-217 -272h-78zM801 -23q-122 0 -229 40t-188.5 115t-129 193t-47.5 265v844h108v-844q0 -125 38.5 -224t105.5 -161t154.5 -94.5t187.5 -32.5t187 32.5t153.5 94.5t104.5 161t38 224v844h109v-844q0 -147 -47.5 -265
t-129 -193t-188 -115t-227.5 -40z" />
    <glyph glyph-name="uni01D4" unicode="&#x1d4;" horiz-adv-x="1298" 
d="M598 1167l-217 273h102l150 -189h8l150 189h102l-217 -273h-78zM1087 1018v-1018h-100v188h-8q-49 -95 -143 -153t-224 -58q-86 0 -161 27.5t-133 80t-91.5 136t-33.5 187.5v610h100v-592q0 -75 19 -136.5t51 -101.5t75.5 -67t90 -39t96.5 -12q54 0 104 13.5t97.5 45.5
t82.5 79t56.5 119t21.5 160v531h100z" />
    <glyph glyph-name="uni01E2" unicode="&#x1e2;" horiz-adv-x="2301" 
d="M842 1673v86h696v-86h-696zM53 0l1051 1434h1020v-101h-881v-530h766v-101h-766v-602h881v-100h-987v391h-678l-287 -391h-119zM530 489h607v816h-9z" />
    <glyph glyph-name="uni01E3" unicode="&#x1e3;" horiz-adv-x="2019" 
d="M641 1257v86h696v-86h-696zM446 -23q-333 0 -333 271q0 55 16.5 99.5t44 75t70 55.5t86.5 40.5t102 30.5l455 115v18q0 64 -19.5 113t-49.5 77.5t-71.5 46t-79 23.5t-77.5 6q-127 0 -219.5 -60t-110.5 -173h-106q19 150 137 237.5t299 87.5q42 0 80.5 -5t86.5 -20.5
t85.5 -41.5t71.5 -72t51 -108h8q66 117 179 182t251 65q217 0 359.5 -145t142.5 -363l-4 -63h-912q12 -175 128.5 -287t285.5 -112q121 0 218.5 60t147.5 161h109q-42 -102 -117.5 -174t-166 -106t-191.5 -34q-152 0 -274.5 78t-184.5 209h-8q-45 -126 -174 -206.5
t-316 -80.5zM991 561h811q-12 171 -123 279t-276 108q-164 0 -280.5 -109t-131.5 -278zM446 70q62 0 122.5 12.5t118.5 41t102 71t71 108t27 146.5v118l-443 -110q-128 -33 -178.5 -80t-50.5 -125q0 -182 231 -182z" />
    <glyph glyph-name="Gcaron" unicode="&#x1e6;" horiz-adv-x="1767" 
d="M829 1583l-217 272h103l149 -188h8l150 188h102l-217 -272h-78zM870 -23q-203 0 -365 97t-252.5 266t-90.5 377t90.5 377t252.5 265.5t365 96.5q244 0 421.5 -137t248.5 -363h-113q-71 190 -215.5 295t-341.5 105q-172 0 -309.5 -81.5t-215 -227.5t-77.5 -330
q0 -279 171 -459t435 -180q239 0 397 151.5t173 391.5h-588v98h690v-719h-100v313h-8q-85 -172 -236 -254t-332 -82z" />
    <glyph glyph-name="gcaron" unicode="&#x1e7;" horiz-adv-x="1359" 
d="M602 1167l-217 273h102l150 -189h8l150 189h102l-217 -273h-78zM625 1040q138 0 246 -62t169 -173h9v213h100v-971q0 -217 -129 -348t-371 -131q-189 0 -312.5 81.5t-172.5 221.5h104q47 -97 143 -154t238 -57q189 0 294.5 102.5t105.5 284.5v168h-9
q-60 -113 -168 -175.5t-247 -62.5q-223 0 -366.5 150t-143.5 383q0 232 143.5 381t366.5 149zM633 948q-184 0 -301 -123t-117 -315q0 -193 116.5 -315.5t301.5 -122.5t301.5 122.5t116.5 315.5q0 192 -117 315t-301 123z" />
    <glyph glyph-name="uni01E8" unicode="&#x1e8;" horiz-adv-x="1484" 
d="M719 1583l-217 272h102l150 -188h8l149 188h103l-217 -272h-78zM256 0v1434h109v-631h245l611 631h141l-662 -682l674 -752h-143l-631 707h-235v-707h-109z" />
    <glyph glyph-name="uni01E9" unicode="&#x1e9;" horiz-adv-x="1150" 
d="M221 1583l-217 272h102l150 -188h8l150 188h102l-217 -272h-78zM211 0v1434h100v-859h195l430 443h131l-475 -488l479 -530h-131l-436 483h-193v-483h-100z" />
    <glyph glyph-name="uni01EA" unicode="&#x1ea;" horiz-adv-x="1742" 
d="M1016 -410q-113 0 -183.5 53t-70.5 146q0 120 119 188q-158 0 -292.5 56.5t-228 155t-146 235t-52.5 293.5q0 209 91 378t253 265t364 96q151 0 283.5 -56t226 -154t147.5 -235t54 -294q0 -269 -148.5 -465t-388.5 -254q-77 -28 -131.5 -75.5t-54.5 -112.5
q0 -57 44 -94.5t128 -37.5h21v-88h-35zM870 78q126 0 237 46.5t191.5 129.5t127.5 203t47 260t-47 260t-127.5 203t-191.5 129.5t-237 46.5q-167 0 -304 -79.5t-217.5 -226.5t-80.5 -333t80.5 -333t217.5 -226.5t304 -79.5z" />
    <glyph glyph-name="uni01EB" unicode="&#x1eb;" horiz-adv-x="1267" 
d="M752 -410q-113 0 -183.5 53t-70.5 146q0 116 120 191q-221 6 -362 155t-141 375q0 231 146.5 380.5t371.5 149.5t372.5 -149.5t147.5 -380.5q0 -192 -103.5 -330.5t-273.5 -183.5q-180 -69 -180 -186q0 -58 43 -95t127 -37h20v-88h-34zM633 72q185 0 301.5 122.5
t116.5 315.5q0 192 -117 315t-301 123t-301 -123t-117 -315q0 -193 116.5 -315.5t301.5 -122.5z" />
    <glyph glyph-name="uni01EC" unicode="&#x1ec;" horiz-adv-x="1742" 
d="M522 1673v86h697v-86h-697zM1016 -410q-113 0 -183.5 53t-70.5 146q0 120 119 188q-158 0 -292.5 56.5t-228 155t-146 235t-52.5 293.5q0 209 91 378t253 265t364 96q151 0 283.5 -56t226 -154t147.5 -235t54 -294q0 -269 -148.5 -465t-388.5 -254q-77 -28 -131.5 -75.5
t-54.5 -112.5q0 -57 44 -94.5t128 -37.5h21v-88h-35zM870 78q126 0 237 46.5t191.5 129.5t127.5 203t47 260t-47 260t-127.5 203t-191.5 129.5t-237 46.5q-167 0 -304 -79.5t-217.5 -226.5t-80.5 -333t80.5 -333t217.5 -226.5t304 -79.5z" />
    <glyph glyph-name="uni01ED" unicode="&#x1ed;" horiz-adv-x="1267" 
d="M285 1257v86h696v-86h-696zM752 -410q-113 0 -183.5 53t-70.5 146q0 116 120 191q-221 6 -362 155t-141 375q0 231 146.5 380.5t371.5 149.5t372.5 -149.5t147.5 -380.5q0 -192 -103.5 -330.5t-273.5 -183.5q-180 -69 -180 -186q0 -58 43 -95t127 -37h20v-88h-34zM633 72
q185 0 301.5 122.5t116.5 315.5q0 192 -117 315t-301 123t-301 -123t-117 -315q0 -193 116.5 -315.5t301.5 -122.5z" />
    <glyph glyph-name="uni01F0" unicode="&#x1f0;" horiz-adv-x="522" 
d="M221 1167l-217 273h102l150 -189h8l150 189h102l-217 -273h-78zM-27 -410v97h90q77 0 112.5 35.5t35.5 111.5v1184h100v-1192q0 -120 -57.5 -178t-177.5 -58h-103z" />
    <glyph glyph-name="uni01F1" unicode="&#x1f1;" horiz-adv-x="3143" 
d="M256 0v1434h510q152 0 284.5 -54t227 -148t149 -227.5t54.5 -287.5t-54.5 -287.5t-149 -227.5t-227 -148t-284.5 -54h-510zM1792 0v80l1028 1245v8h-1016v101h1176v-80l-1026 -1245v-9h1038v-100h-1200zM365 100h401q167 0 305 75.5t220.5 217.5t82.5 324q0 137 -48 253
t-130.5 195t-193.5 123.5t-236 44.5h-401v-1233z" />
    <glyph glyph-name="uni01F2" unicode="&#x1f2;" horiz-adv-x="2715" 
d="M256 0v1434h510q152 0 284.5 -54t227 -148t149 -227.5t54.5 -287.5t-54.5 -287.5t-149 -227.5t-227 -148t-284.5 -54h-510zM365 100h401q167 0 305 75.5t220.5 217.5t82.5 324q0 137 -48 253t-130.5 195t-193.5 123.5t-236 44.5h-401v-1233zM1765 0v70l672 848v8h-663v92
h811v-70l-672 -848v-8h680v-92h-828z" />
    <glyph glyph-name="uni01F3" unicode="&#x1f3;" horiz-adv-x="2433" 
d="M625 -23q-223 0 -366.5 150t-143.5 383q0 232 143.5 381t366.5 149q138 0 246 -62t169 -173h9v629h100v-1434h-100v215h-9q-60 -113 -168 -175.5t-247 -62.5zM1483 0v70l671 848v8h-663v92h811v-70l-672 -848v-8h680v-92h-827zM633 72q185 0 301.5 122.5t116.5 315.5
q0 192 -117 315t-301 123t-301 -123t-117 -315q0 -193 116.5 -315.5t301.5 -122.5z" />
    <glyph glyph-name="uni01F4" unicode="&#x1f4;" horiz-adv-x="1767" 
d="M819 1583l164 266h109l-164 -266h-109zM870 -23q-203 0 -365 97t-252.5 266t-90.5 377t90.5 377t252.5 265.5t365 96.5q244 0 421.5 -137t248.5 -363h-113q-71 190 -215.5 295t-341.5 105q-172 0 -309.5 -81.5t-215 -227.5t-77.5 -330q0 -279 171 -459t435 -180
q239 0 397 151.5t173 391.5h-588v98h690v-719h-100v313h-8q-85 -172 -236 -254t-332 -82z" />
    <glyph glyph-name="uni01F5" unicode="&#x1f5;" horiz-adv-x="1359" 
d="M592 1167l164 267h108l-164 -267h-108zM625 1040q138 0 246 -62t169 -173h9v213h100v-971q0 -217 -129 -348t-371 -131q-189 0 -312.5 81.5t-172.5 221.5h104q47 -97 143 -154t238 -57q189 0 294.5 102.5t105.5 284.5v168h-9q-60 -113 -168 -175.5t-247 -62.5
q-223 0 -366.5 150t-143.5 383q0 232 143.5 381t366.5 149zM633 948q-184 0 -301 -123t-117 -315q0 -193 116.5 -315.5t301.5 -122.5t301.5 122.5t116.5 315.5q0 192 -117 315t-301 123z" />
    <glyph glyph-name="uni01F8" unicode="&#x1f8;" horiz-adv-x="1689" 
d="M735 1849l164 -266h-108l-164 266h108zM1434 1434v-1434h-146l-915 1292h-8v-1292h-109v1434h147l914 -1293h8v1293h109z" />
    <glyph glyph-name="uni01F9" unicode="&#x1f9;" horiz-adv-x="1298" 
d="M549 1434l164 -267h-109l-164 267h109zM211 0v1018h100v-189h8q49 95 143 153t224 58q86 0 161 -27.5t133 -79.5t92 -135.5t34 -187.5v-610h-100v592q0 75 -19 136.5t-51 101.5t-75.5 67t-90 39t-96.5 12q-54 0 -104 -14t-98 -46t-83 -79t-56.5 -119t-21.5 -160v-530
h-100z" />
    <glyph glyph-name="Oslashacute" unicode="&#x1fe;" horiz-adv-x="1742" 
d="M821 1583l164 266h109l-164 -266h-109zM870 -23q-186 0 -342 86l-104 -172h-119l139 224q-133 99 -207.5 256t-74.5 346q0 209 91 378t253 265t364 96q189 0 342 -86l107 172h117l-138 -223q133 -99 208 -256t75 -346q0 -209 -91.5 -378.5t-254.5 -265.5t-365 -96z
M498 205l661 1079q-138 72 -289 72q-167 0 -304 -79.5t-217.5 -226.5t-80.5 -333q0 -162 61 -293.5t169 -218.5zM870 78q126 0 237 46.5t191.5 129.5t127.5 203t47 260q0 162 -60.5 293.5t-167.5 218.5l-661 -1079q134 -72 286 -72z" />
    <glyph glyph-name="oslashacute" unicode="&#x1ff;" horiz-adv-x="1267" 
d="M584 1167l164 267h108l-164 -267h-108zM633 -23q-125 0 -240 56l-71 -121h-103l98 168q-95 70 -148.5 182t-53.5 248q0 231 146.5 380.5t371.5 149.5q128 0 229 -49l82 137h105l-109 -182q100 -70 156.5 -183.5t56.5 -252.5q0 -232 -147.5 -382.5t-372.5 -150.5zM367 162
l446 747q-80 39 -180 39q-184 0 -301 -123t-117 -315q0 -222 152 -348zM633 72q185 0 301.5 122.5t116.5 315.5q0 112 -42 203.5t-118 150.5l-449 -749q82 -43 191 -43z" />
    <glyph glyph-name="uni0218" unicode="&#x218;" horiz-adv-x="1482" 
d="M793 -23q-103 0 -193 13t-177 45.5t-150.5 83t-105.5 131t-50 184.5h110q8 -84 44.5 -148t90 -103t127 -64t147 -34t157.5 -9q69 0 127 6t119.5 25t103.5 50t69 84.5t27 125.5q0 82 -36.5 139t-98 87.5t-141.5 49.5t-168.5 30.5t-176.5 24t-168 36.5t-141.5 62t-98 106
t-36.5 163q0 88 34 158t88 112.5t127.5 70.5t145.5 39t150 11q86 0 163 -13t149.5 -42.5t128 -74.5t94 -113.5t51.5 -153.5h-113q-16 80 -62 140t-112.5 93.5t-141 49.5t-157.5 16q-84 0 -158.5 -15.5t-138.5 -48.5t-101.5 -91.5t-37.5 -137.5q0 -75 36.5 -127.5t98 -79.5
t141 -44t167.5 -28.5t176.5 -25t168 -39.5t141 -67t98 -114t36.5 -173q0 -390 -553 -390zM655 -481l60 170q-31 5 -50.5 26.5t-19.5 53.5q0 37 22 59t60 22q39 0 60.5 -22t21.5 -61q0 -34 -14 -78l-60 -170h-80z" />
    <glyph glyph-name="uni0219" unicode="&#x219;" horiz-adv-x="1107" 
d="M573 -23q-69 0 -131.5 9.5t-123.5 34t-106.5 62.5t-77 97.5t-38.5 136.5h107q7 -67 42.5 -117t89.5 -77.5t113 -40t125 -12.5q56 0 106.5 9t99.5 30t78.5 63t29.5 100q0 67 -41.5 109.5t-108 61t-147 30.5t-161 27.5t-147 41.5t-108 82t-41.5 140q0 65 26 115t66.5 79.5
t96 48.5t108 26t109.5 7q79 0 147 -14.5t130.5 -46t103 -92t49.5 -144.5h-107q-9 58 -40.5 100t-79 64t-97.5 31.5t-106 9.5q-40 0 -77.5 -4t-80.5 -16t-74.5 -31.5t-52.5 -53.5t-21 -79q0 -48 26 -82t69.5 -52.5t100.5 -31t119.5 -22t125 -20.5t119.5 -31.5t100.5 -50.5
t69.5 -81.5t26 -120.5q0 -68 -25 -121t-65 -85t-96 -52.5t-111.5 -28.5t-118.5 -8zM479 -481l60 170q-31 5 -50.5 26.5t-19.5 53.5q0 37 22 59t60 22q39 0 60.5 -22t21.5 -61q0 -31 -15 -78l-59 -170h-80z" />
    <glyph glyph-name="uni021A" unicode="&#x21a;" horiz-adv-x="1566" 
d="M729 0v1333h-604v101h1317v-101h-604v-1333h-109zM694 -481l60 170q-31 5 -50.5 26.5t-19.5 53.5q0 37 22 59t60 22t60 -22t22 -61q0 -34 -14 -78l-60 -170h-80z" />
    <glyph glyph-name="uni021B" unicode="&#x21b;" horiz-adv-x="1191" 
d="M649 0q-138 0 -203 65t-65 203v658h-285v92h285v368h100v-368h578v-92h-578v-645q0 -103 42 -145t145 -42h391v-94h-410zM549 -481l59 170q-31 5 -50 26.5t-19 53.5q0 37 22 59t60 22t59.5 -21.5t21.5 -61.5q0 -34 -14 -78l-59 -170h-80z" />
    <glyph glyph-name="uni021E" unicode="&#x21e;" horiz-adv-x="1658" 
d="M791 1583l-218 272h103l149 -188h9l149 188h102l-217 -272h-77zM256 0v1434h109v-631h929v631h109v-1434h-109v702h-929v-702h-109z" />
    <glyph glyph-name="uni021F" unicode="&#x21f;" horiz-adv-x="1298" 
d="M221 1583l-217 272h102l150 -188h8l150 188h102l-217 -272h-78zM211 0v1434h100v-605h8q49 95 143 153t224 58q86 0 161 -27.5t133 -79.5t92 -135.5t34 -187.5v-610h-100v592q0 75 -19 136.5t-51 101.5t-75.5 67t-90 39t-96.5 12q-54 0 -104 -14t-98 -46t-83 -79
t-56.5 -119t-21.5 -160v-530h-100z" />
    <glyph glyph-name="uni0226" unicode="&#x226;" horiz-adv-x="1480" 
d="M739 1710q-35 0 -57.5 21t-22.5 55t22.5 56t57.5 22t57.5 -22t22.5 -56t-22.5 -55t-57.5 -21zM1419 0h-112l-172 391h-789l-172 -391h-113l635 1434h88zM391 489h699l-347 783h-8z" />
    <glyph glyph-name="uni0227" unicode="&#x227;" horiz-adv-x="1210" 
d="M588 1294q-35 0 -57.5 21t-22.5 55t22.5 56t57.5 22t57.5 -22t22.5 -56t-22.5 -55t-57.5 -21zM440 -23q-44 0 -82.5 5t-85.5 22t-80.5 45t-56 79t-22.5 120q0 55 16.5 99.5t44 75t70 55.5t86.5 40.5t102 30.5l455 115v18q0 64 -19.5 113t-49.5 77.5t-71.5 46t-79 23.5
t-77.5 6q-127 0 -219.5 -60t-110.5 -173h-106q19 150 137 237.5t299 87.5q51 0 97.5 -6.5t104 -30t98.5 -62t69 -108.5t28 -163v-518q0 -31 12 -43.5t43 -12.5h66v-96h-90q-116 0 -125 109l-4 81h-8q-64 -100 -179.5 -156.5t-261.5 -56.5zM446 70q62 0 122.5 12.5t118.5 41
t102 71t71 108t27 146.5v118l-443 -110q-128 -33 -178.5 -80t-50.5 -125q0 -182 231 -182z" />
    <glyph glyph-name="uni0228" unicode="&#x228;" horiz-adv-x="1490" 
d="M365 702v-602h948v-100h-471l-41 -70q75 -13 115 -56.5t40 -106.5q0 -83 -61.5 -130t-159.5 -47h-80v84h80q54 0 91.5 26t37.5 75t-37.5 74.5t-91.5 25.5h-43l68 125h-504v1434h1057v-101h-948v-530h833v-101h-833z" />
    <glyph glyph-name="uni0229" unicode="&#x229;" horiz-adv-x="1247" 
d="M489 -410v84h80q55 0 92 25.5t37 75.5t-37 75t-92 25h-43l58 107q-203 15 -336 163t-133 365q0 151 68.5 272.5t187 189.5t262.5 68q216 0 358 -145t142 -363l-5 -63h-911q12 -175 129 -287t287 -112q121 0 217.5 59.5t146.5 161.5h109q-59 -145 -178 -224t-264 -87
l-27 -50q75 -13 115.5 -56.5t40.5 -106.5q0 -83 -63 -130t-161 -47h-80zM219 561h811q-11 170 -122 278.5t-275 108.5q-163 0 -280 -108.5t-134 -278.5z" />
    <glyph glyph-name="uni0232" unicode="&#x232;" horiz-adv-x="1472" 
d="M387 1673v86h696v-86h-696zM682 0v635l-629 799h131l551 -699l553 699h131l-628 -799v-635h-109z" />
    <glyph glyph-name="uni0233" unicode="&#x233;" horiz-adv-x="1206" 
d="M268 1257v86h697v-86h-697zM162 -410v97h147q70 0 108.5 27.5t63.5 86.5l88 205l-477 1012h113l411 -877h13l377 877h108l-539 -1254q-42 -97 -101.5 -135.5t-164.5 -38.5h-147z" />
    <glyph glyph-name="uni0237" unicode="&#x237;" horiz-adv-x="522" 
d="M-27 -410v97h90q77 0 112.5 35.5t35.5 111.5v1184h100v-1192q0 -120 -57.5 -178t-177.5 -58h-103z" />
    <glyph glyph-name="circumflex" unicode="&#x2c6;" horiz-adv-x="1024" 
d="M256 1167l217 273h78l217 -273h-102l-150 189h-8l-150 -189h-102z" />
    <glyph glyph-name="caron" unicode="&#x2c7;" horiz-adv-x="1024" 
d="M473 1167l-217 273h102l150 -189h8l150 189h102l-217 -273h-78z" />
    <glyph glyph-name="breve" unicode="&#x2d8;" horiz-adv-x="1024" 
d="M512 1169q-48 0 -92.5 12.5t-88 41t-73 84.5t-35.5 133h88q5 -54 26 -93t51.5 -59t61 -28.5t62.5 -8.5t62.5 8.5t61 28.5t51.5 59t26 93h88q-6 -77 -35.5 -133t-73 -84.5t-88 -41t-92.5 -12.5z" />
    <glyph glyph-name="dotaccent" unicode="&#x2d9;" horiz-adv-x="1024" 
d="M512 1294q-35 0 -57.5 21t-22.5 55t22.5 56t57.5 22t57.5 -22t22.5 -56t-22.5 -55t-57.5 -21z" />
    <glyph glyph-name="ring" unicode="&#x2da;" horiz-adv-x="1024" 
d="M512 1157q-87 0 -143 53t-56 136q0 84 56 137t143 53t143 -53t56 -137q0 -83 -56 -136t-143 -53zM424 1317q15 -37 48.5 -52.5t70.5 -2.5q37 14 53.5 46t3.5 68q-15 37 -48.5 52.5t-70.5 3.5q-37 -14 -53.5 -46.5t-3.5 -68.5z" />
    <glyph glyph-name="ogonek" unicode="&#x2db;" horiz-adv-x="1024" 
d="M477 -410q-113 0 -183.5 53t-70.5 146q0 82 55 137.5t138 85.5l96 -12q-79 -28 -134.5 -75.5t-55.5 -114.5q0 -58 43 -95t127 -37h20v-88h-35z" />
    <glyph glyph-name="tilde" unicode="&#x2dc;" horiz-adv-x="1024" 
d="M365 1411q46 0 89.5 -21t71.5 -45.5t64 -45.5t69 -21q40 0 66.5 29t30.5 84h82q-4 -97 -53 -149t-126 -52q-46 0 -89.5 21t-71.5 45.5t-64 45.5t-69 21q-40 0 -66.5 -29t-30.5 -84h-82q4 97 53 149t126 52z" />
    <glyph glyph-name="hungarumlaut" unicode="&#x2dd;" horiz-adv-x="1024" 
d="M584 1167l164 267h106l-164 -267h-106zM313 1167l164 267h107l-164 -267h-107z" />
    <glyph glyph-name="uni0312" unicode="&#x312;" horiz-adv-x="0" 
d="M72 1491l-60 -170q31 -5 50.5 -26.5t19.5 -53.5q0 -37 -22 -59.5t-60 -22.5t-60 22t-22 62q0 34 14 78l60 170h80z" />
    <glyph glyph-name="uni0326" unicode="&#x326;" horiz-adv-x="0" 
d="M-72 -481l60 170q-31 5 -50.5 26.5t-19.5 53.5q0 37 22 59t60 22t60 -22t22 -61q0 -34 -14 -78l-60 -170h-80z" />
    <glyph glyph-name="uni0400" unicode="&#x400;" horiz-adv-x="1490" 
d="M678 1849l164 -266h-109l-164 266h109zM365 702v-602h948v-100h-1057v1434h1057v-101h-948v-530h833v-101h-833z" />
    <glyph glyph-name="uni0401" unicode="&#x401;" horiz-adv-x="1490" 
d="M614 1710q-35 0 -57 21t-22 55t22 56t57 22q34 0 56 -22t22 -56t-22 -55t-56 -21zM971 1710q-34 0 -56 21t-22 55t22 56t56 22q35 0 57.5 -22t22.5 -56t-22.5 -55t-57.5 -21zM365 702v-602h948v-100h-1057v1434h1057v-101h-948v-530h833v-101h-833z" />
    <glyph glyph-name="uni0402" unicode="&#x402;" horiz-adv-x="1847" 
d="M1049 -4v100h172q63 0 116.5 11t104 38.5t85.5 70t56 109t21 152.5t-21 152.5t-56 109t-85.5 70t-104 38.5t-116.5 11q-196 0 -312 -104t-116 -273v-481h-109v1333h-559v101h1227v-101h-559v-585h8q131 210 428 210q229 0 355 -127t126 -354q0 -228 -125.5 -354.5
t-355.5 -126.5h-180z" />
    <glyph glyph-name="uni0403" unicode="&#x403;" horiz-adv-x="1417" 
d="M719 1583l164 266h108l-164 -266h-108zM256 0v1434h1036v-101h-932v-1333h-104z" />
    <glyph glyph-name="uni0404" unicode="&#x404;" horiz-adv-x="1673" 
d="M877 -23q-150 0 -283 57.5t-228 156t-150.5 235.5t-55.5 291q0 205 94 374.5t258.5 267t364.5 97.5q227 0 400 -124t245 -324h-113q-70 162 -214.5 255t-322.5 93q-237 0 -407.5 -161t-192.5 -411h813v-100h-817q8 -175 90.5 -314t217.5 -215.5t296 -76.5q178 0 322.5 93
t214.5 255h113q-72 -200 -245 -324.5t-400 -124.5z" />
    <glyph glyph-name="uni0405" unicode="&#x405;" horiz-adv-x="1482" 
d="M793 -23q-103 0 -193 13t-177 45.5t-150.5 83t-105.5 131t-50 184.5h110q8 -84 44.5 -148t90 -103t127 -64t147 -34t157.5 -9q69 0 127 6t119.5 25t103.5 50t69 84.5t27 125.5q0 82 -36.5 139t-98 87.5t-141.5 49.5t-168.5 30.5t-176.5 24t-168 36.5t-141.5 62t-98 106
t-36.5 163q0 88 34 158t88 112.5t127.5 70.5t145.5 39t150 11q86 0 163 -13t149.5 -42.5t128 -74.5t94 -113.5t51.5 -153.5h-113q-16 80 -62 140t-112.5 93.5t-141 49.5t-157.5 16q-84 0 -158.5 -15.5t-138.5 -48.5t-101.5 -91.5t-37.5 -137.5q0 -75 36.5 -127.5t98 -79.5
t141 -44t167.5 -28.5t176.5 -25t168 -39.5t141 -67t98 -114t36.5 -173q0 -390 -553 -390z" />
    <glyph glyph-name="uni0406" unicode="&#x406;" horiz-adv-x="620" 
d="M256 0v1434h109v-1434h-109z" />
    <glyph glyph-name="uni0407" unicode="&#x407;" horiz-adv-x="620" 
d="M133 1710q-35 0 -57.5 21t-22.5 55t22.5 56t57.5 22q34 0 56 -22t22 -56t-22 -55t-56 -21zM489 1710q-34 0 -55.5 21t-21.5 55t21.5 56t55.5 22q35 0 57.5 -22t22.5 -56t-22.5 -55t-57.5 -21zM256 0v1434h109v-1434h-109z" />
    <glyph glyph-name="uni0408" unicode="&#x408;" horiz-adv-x="1384" 
d="M102 0v100h740q108 0 152 44.5t44 152.5v1137h109v-1153q0 -143 -69.5 -212t-211.5 -69h-764z" />
    <glyph glyph-name="uni0409" unicode="&#x409;" horiz-adv-x="2441" 
d="M190 -4h-129v108h129q50 0 73 22.5t26 68.5l96 1239h903v-525h524q221 0 364.5 -127t143.5 -327t-143.5 -327.5t-364.5 -127.5h-632v1333h-699l-86 -1151q-8 -96 -56.5 -141t-148.5 -45zM1288 100h524q173 0 286.5 99t113.5 256t-113.5 255.5t-286.5 98.5h-524v-709z" />
    <glyph glyph-name="uni040A" unicode="&#x40a;" horiz-adv-x="2514" 
d="M256 0v1434h109v-525h888v525h109v-525h524q221 0 364.5 -127t143.5 -327t-143.5 -327.5t-364.5 -127.5h-633v809h-888v-809h-109zM1362 100h524q173 0 286.5 99t113.5 256t-113.5 255.5t-286.5 98.5h-524v-709z" />
    <glyph glyph-name="uni040B" unicode="&#x40b;" horiz-adv-x="1843" 
d="M1544 0v537q0 88 -30.5 152.5t-82 100t-110.5 52t-125 16.5q-177 0 -290 -105t-113 -272v-481h-109v1333h-559v101h1227v-101h-559v-585h8q131 210 409 210q128 0 226 -44t157.5 -137.5t59.5 -225.5v-551h-109z" />
    <glyph glyph-name="uni040C" unicode="&#x40c;" horiz-adv-x="1484" 
d="M709 1583l163 266h109l-164 -266h-108zM256 0v1434h109v-631h245l611 631h141l-662 -682l674 -752h-143l-631 707h-235v-707h-109z" />
    <glyph glyph-name="uni040D" unicode="&#x40d;" horiz-adv-x="1689" 
d="M729 1849l164 -266h-109l-163 266h108zM1434 1434v-1434h-109v1303l-934 -1303h-135v1434h109v-1303l935 1303h134z" />
    <glyph glyph-name="uni040E" unicode="&#x40e;" horiz-adv-x="1415" 
d="M723 1585q-48 0 -92.5 12.5t-88 40.5t-73 84t-35.5 133h88q5 -54 26 -93t51.5 -58.5t60.5 -28t63 -8.5t63 8.5t60.5 28t51.5 58.5t26 93h88q-6 -77 -35.5 -133t-73 -84t-88 -40.5t-92.5 -12.5zM358 0v104h158q54 0 86.5 23.5t56.5 75.5l50 110l-621 1121h123l547 -994h8
l444 994h115l-575 -1284q-36 -79 -87 -114.5t-137 -35.5h-168z" />
    <glyph glyph-name="uni040F" unicode="&#x40f;" horiz-adv-x="1658" 
d="M776 -369v369h-520v1434h109v-1334h929v1334h109v-1434h-520v-369h-107z" />
    <glyph glyph-name="uni0410" unicode="&#x410;" horiz-adv-x="1480" 
d="M1419 0h-112l-172 391h-789l-172 -391h-113l635 1434h88zM391 489h699l-347 783h-8z" />
    <glyph glyph-name="uni0411" unicode="&#x411;" horiz-adv-x="1579" 
d="M365 1333v-473h591q231 0 357.5 -115.5t126.5 -314.5t-126.5 -314.5t-357.5 -115.5h-700v1434h1087v-101h-978zM365 100h591q190 0 283.5 90t93.5 240t-93.5 240t-283.5 90h-591v-660z" />
    <glyph glyph-name="uni0412" unicode="&#x412;" horiz-adv-x="1574" 
d="M256 0v1434h702q204 0 320.5 -104t116.5 -259q0 -106 -55.5 -187t-153.5 -128v-8q118 -42 185 -140.5t67 -220.5q0 -169 -124 -278t-339 -109h-719zM365 788h593q156 0 242 76.5t86 198.5q0 121 -85.5 195.5t-242.5 74.5h-593v-545zM365 100h604q172 0 266 82t94 213
t-95.5 213t-268.5 82h-600v-590z" />
    <glyph glyph-name="uni0413" unicode="&#x413;" horiz-adv-x="1417" 
d="M256 0v1434h1036v-101h-932v-1333h-104z" />
    <glyph glyph-name="uni0414" unicode="&#x414;" horiz-adv-x="1558" 
d="M1448 -307h-107v307h-1171v-307h-107v407h91q86 0 94 95l110 1239h930v-1334h160v-407zM332 100h850v1233h-725l-103 -1134q-4 -36 -9.5 -60.5t-8.5 -31.5z" />
    <glyph glyph-name="uni0415" unicode="&#x415;" horiz-adv-x="1490" 
d="M365 702v-602h948v-100h-1057v1434h1057v-101h-948v-530h833v-101h-833z" />
    <glyph glyph-name="uni0416" unicode="&#x416;" horiz-adv-x="2275" 
d="M1083 0v707h-198l-631 -707h-143l673 752l-661 682h139l612 -631h209v631h109v-631h209l612 631h139l-659 -682l672 -752h-142l-630 707h-201v-707h-109z" />
    <glyph glyph-name="uni0417" unicode="&#x417;" horiz-adv-x="1552" 
d="M799 -23q-133 0 -237.5 22t-176 60.5t-121 95.5t-75.5 122t-37 145h112q29 -169 153.5 -256.5t381.5 -87.5q238 0 373 79t135 234q0 134 -98 216.5t-279 82.5h-357v98h334q155 0 258 73.5t103 201.5q0 143 -132 218t-354 75q-235 0 -366 -89.5t-152 -254.5h-112
q24 210 186 327t444 117q273 0 433.5 -104.5t160.5 -286.5q0 -203 -221 -309v-8q123 -40 191.5 -133t68.5 -224q0 -194 -154 -304t-462 -110z" />
    <glyph glyph-name="uni0418" unicode="&#x418;" horiz-adv-x="1689" 
d="M1434 1434v-1434h-109v1303l-934 -1303h-135v1434h109v-1303l935 1303h134z" />
    <glyph glyph-name="uni0419" unicode="&#x419;" horiz-adv-x="1689" 
d="M844 1585q-48 0 -92.5 12.5t-88 40.5t-73 84t-35.5 133h88q5 -54 26 -93t51.5 -58.5t60.5 -28t63 -8.5t63 8.5t60.5 28t51 58.5t25.5 93h89q-6 -77 -35.5 -133t-73 -84t-88 -40.5t-92.5 -12.5zM1434 1434v-1434h-109v1303l-934 -1303h-135v1434h109v-1303l935 1303h134z
" />
    <glyph glyph-name="uni041A" unicode="&#x41a;" horiz-adv-x="1484" 
d="M256 0v1434h109v-631h245l611 631h141l-662 -682l674 -752h-143l-631 707h-235v-707h-109z" />
    <glyph glyph-name="uni041B" unicode="&#x41b;" horiz-adv-x="1585" 
d="M1329 1434v-1434h-108v1333h-740l-86 -1151q-8 -96 -56.5 -141t-148.5 -45h-129v108h129q50 0 73 22.5t26 68.5l96 1239h944z" />
    <glyph glyph-name="uni041C" unicode="&#x41c;" horiz-adv-x="2074" 
d="M1819 1434v-1434h-109v1257h-8l-610 -1257h-109l-610 1257h-8v-1257h-109v1434h152l626 -1291h8l627 1291h150z" />
    <glyph glyph-name="uni041D" unicode="&#x41d;" horiz-adv-x="1658" 
d="M256 0v1434h109v-631h929v631h109v-1434h-109v702h-929v-702h-109z" />
    <glyph glyph-name="uni041E" unicode="&#x41e;" horiz-adv-x="1742" 
d="M870 -23q-202 0 -364 96t-253 265.5t-91 378.5t91 378t253 265t364 96q151 0 283.5 -56t226 -154t147.5 -235t54 -294q0 -209 -91.5 -378.5t-254.5 -265.5t-365 -96zM870 78q126 0 237 46.5t191.5 129.5t127.5 203t47 260t-47 260t-127.5 203t-191.5 129.5t-237 46.5
q-167 0 -304 -79.5t-217.5 -226.5t-80.5 -333t80.5 -333t217.5 -226.5t304 -79.5z" />
    <glyph glyph-name="uni041F" unicode="&#x41f;" horiz-adv-x="1658" 
d="M256 0v1434h1147v-1434h-109v1333h-929v-1333h-109z" />
    <glyph glyph-name="uni0420" unicode="&#x420;" horiz-adv-x="1568" 
d="M993 584h-628v-584h-109v1434h737q203 0 329 -113t126 -311q0 -200 -126 -313t-329 -113zM365 684h628q168 0 257 90.5t89 235.5q0 143 -89 233t-257 90h-628v-649z" />
    <glyph glyph-name="uni0421" unicode="&#x421;" horiz-adv-x="1695" 
d="M874 -23q-205 0 -368.5 97t-253.5 266t-90 377t90 376.5t253.5 265.5t368.5 97q246 0 424 -138t246 -362h-112q-66 183 -213 291.5t-345 108.5q-171 0 -309.5 -81.5t-217.5 -227.5t-79 -330t79 -330t217.5 -227.5t309.5 -81.5q198 0 345 108t213 291h112
q-68 -224 -246 -362t-424 -138z" />
    <glyph glyph-name="uni0422" unicode="&#x422;" horiz-adv-x="1566" 
d="M729 0v1333h-604v101h1317v-101h-604v-1333h-109z" />
    <glyph glyph-name="uni0423" unicode="&#x423;" horiz-adv-x="1415" 
d="M358 0v104h158q54 0 86.5 23.5t56.5 75.5l50 110l-621 1121h123l547 -994h8l444 994h115l-575 -1284q-36 -79 -87 -114.5t-137 -35.5h-168z" />
    <glyph glyph-name="uni0424" unicode="&#x424;" horiz-adv-x="2009" 
d="M950 -23v197h-219q-124 0 -227.5 32t-173 85.5t-117.5 124t-70 146.5t-22 155t22 155t70 146.5t117.5 124t173 85.5t227.5 32h219v196h109v-196h217q125 0 228.5 -32t172.5 -85.5t117.5 -124t70 -146.5t21.5 -155t-21.5 -155t-70 -146.5t-117.5 -124t-172.5 -85.5
t-228.5 -32h-217v-197h-109zM950 274v885h-217q-126 0 -225.5 -37.5t-158.5 -101t-89.5 -141t-30.5 -162.5q0 -68 18.5 -131t58.5 -120t98 -99.5t142.5 -67.5t186.5 -25h217zM1059 274h217q102 0 186.5 25t142.5 67.5t98 99.5t58.5 120t18.5 131q0 85 -30.5 162.5t-89.5 141
t-158.5 101t-225.5 37.5h-217v-885z" />
    <glyph glyph-name="uni0425" unicode="&#x425;" horiz-adv-x="1521" 
d="M111 0l583 725l-571 709h133l504 -625l504 625h135l-572 -709l584 -725h-135l-516 641l-516 -641h-133z" />
    <glyph glyph-name="uni0426" unicode="&#x426;" horiz-adv-x="1671" 
d="M256 0v1434h109v-1334h929v1334h109v-1334h160v-407h-107v307h-1200z" />
    <glyph glyph-name="uni0427" unicode="&#x427;" horiz-adv-x="1468" 
d="M1212 1434v-1434h-108v645q-209 -47 -391 -47q-559 0 -559 442v394h108v-394q0 -342 451 -342q157 0 391 41v695h108z" />
    <glyph glyph-name="uni0428" unicode="&#x428;" horiz-adv-x="2625" 
d="M2370 1434v-1434h-2114v1434h109v-1334h895v1334h106v-1334h895v1334h109z" />
    <glyph glyph-name="uni0429" unicode="&#x429;" horiz-adv-x="2637" 
d="M2529 100v-407h-106v307h-2167v1434h109v-1334h895v1334h106v-1334h895v1334h109v-1334h159z" />
    <glyph glyph-name="uni042A" unicode="&#x42a;" horiz-adv-x="1894" 
d="M125 1333v101h573v-525h566q222 0 365 -127t143 -327t-143 -327.5t-365 -127.5h-672v1333h-467zM698 100h566q175 0 288 99t113 256t-113 255.5t-288 98.5h-566v-709z" />
    <glyph glyph-name="uni042B" unicode="&#x42b;" horiz-adv-x="2045" 
d="M1788 1434v-1434h-107v1434h107zM868 0h-612v1434h109v-525h503q221 0 364.5 -127t143.5 -327t-143.5 -327.5t-364.5 -127.5zM365 809v-709h503q174 0 287 99t113 256t-112.5 255.5t-287.5 98.5h-503z" />
    <glyph glyph-name="uni042C" unicode="&#x42c;" horiz-adv-x="1558" 
d="M256 0v1434h109v-525h565q221 0 364.5 -127t143.5 -327t-143.5 -327.5t-364.5 -127.5h-674zM365 100h565q174 0 286.5 99t112.5 256t-112.5 255.5t-286.5 98.5h-565v-709z" />
    <glyph glyph-name="uni042D" unicode="&#x42d;" horiz-adv-x="1673" 
d="M797 -23q-227 0 -400 124.5t-245 324.5h112q70 -162 214.5 -255t322.5 -93q161 0 296 76.5t217.5 215.5t90.5 314h-817v100h813q-22 250 -192.5 411t-407.5 161q-178 0 -322.5 -93t-214.5 -255h-112q72 200 245 324t400 124q200 0 364.5 -97.5t258 -267t93.5 -374.5
q0 -154 -55 -291t-150 -235.5t-228 -156t-283 -57.5z" />
    <glyph glyph-name="uni042E" unicode="&#x42e;" horiz-adv-x="2254" 
d="M365 690v-690h-109v1434h109v-646h311q25 292 224.5 480t483.5 188q148 0 280 -56.5t226.5 -154t149.5 -235t55 -293.5q0 -209 -93.5 -378.5t-256.5 -265.5t-361 -96q-145 0 -274.5 54t-223.5 147.5t-151 226.5t-61 285h-309zM1384 78q125 0 236 48t192 132t128 203.5
t47 255.5t-47 255.5t-128 203.5t-192 132t-236 48t-236.5 -48t-192.5 -132t-128 -203t-47 -256t47 -256t128 -203t192.5 -132t236.5 -48z" />
    <glyph glyph-name="uni042F" unicode="&#x42f;" horiz-adv-x="1583" 
d="M662 625l-383 -625h-125l385 629q-184 12 -296 117.5t-112 283.5q0 190 127.5 297t331.5 107h737v-1434h-108v625h-557zM590 725h629v608h-629q-169 0 -260.5 -84t-91.5 -219q0 -137 91 -221t261 -84z" />
    <glyph glyph-name="uni0430" unicode="&#x430;" horiz-adv-x="1210" 
d="M440 -23q-44 0 -82.5 5t-85.5 22t-80.5 45t-56 79t-22.5 120q0 55 16.5 99.5t44 75t70 55.5t86.5 40.5t102 30.5l455 115v18q0 64 -19.5 113t-49.5 77.5t-71.5 46t-79 23.5t-77.5 6q-127 0 -219.5 -60t-110.5 -173h-106q19 150 137 237.5t299 87.5q51 0 97.5 -6.5
t104 -30t98.5 -62t69 -108.5t28 -163v-518q0 -31 12 -43.5t43 -12.5h66v-96h-90q-116 0 -125 109l-4 81h-8q-64 -100 -179.5 -156.5t-261.5 -56.5zM446 70q62 0 122.5 12.5t118.5 41t102 71t71 108t27 146.5v118l-443 -110q-128 -33 -178.5 -80t-50.5 -125q0 -182 231 -182z
" />
    <glyph glyph-name="uni0431" unicode="&#x431;" horiz-adv-x="1284" 
d="M651 -23q-227 0 -372.5 152t-145.5 401q0 139 14 252t51.5 223t98.5 190t160 139.5t231 84.5l399 76v-100l-370 -72q-207 -40 -323 -159.5t-154 -362.5h8q67 102 174.5 158.5t243.5 56.5q217 0 360 -146t143 -372q0 -227 -146.5 -374t-371.5 -147zM651 72q184 0 301 119
t117 307t-117 307t-301 119t-301 -119t-117 -307t117 -307t301 -119z" />
    <glyph glyph-name="uni0432" unicode="&#x432;" horiz-adv-x="1212" 
d="M211 0v1018h520q151 0 243.5 -67.5t92.5 -190.5q0 -154 -154 -221v-9q88 -30 135.5 -98.5t47.5 -155.5q0 -122 -88.5 -199t-245.5 -77h-551zM311 578h420q115 0 175.5 46.5t60.5 127.5t-60.5 127.5t-175.5 46.5h-420v-348zM311 92h445q111 0 175 54t64 143t-64 142.5
t-175 53.5h-445v-393z" />
    <glyph glyph-name="uni0433" unicode="&#x433;" horiz-adv-x="993" 
d="M211 0v1018h688v-96h-588v-922h-100z" />
    <glyph glyph-name="uni0434" unicode="&#x434;" horiz-adv-x="1247" 
d="M121 92q45 0 66 20t24 62l61 844h758v-926h127v-317h-98v225h-905v-225h-99v317h66zM291 92h637v834h-561l-58 -758q-2 -23 -6.5 -42t-8.5 -26z" />
    <glyph glyph-name="uni0435" unicode="&#x435;" horiz-adv-x="1247" 
d="M633 -23q-221 0 -369.5 152t-148.5 381q0 151 68.5 272.5t187 189.5t262.5 68q216 0 358 -145t142 -363l-5 -63h-911q12 -175 129 -287t287 -112q121 0 217.5 59.5t146.5 161.5h109q-62 -153 -190.5 -233.5t-282.5 -80.5zM219 561h811q-11 170 -122 278.5t-275 108.5
q-163 0 -280 -108.5t-134 -278.5z" />
    <glyph glyph-name="uni0436" unicode="&#x436;" horiz-adv-x="1695" 
d="M797 0v483h-150l-436 -483h-131l479 530l-475 488h131l430 -443h152v443h102v-443h152l430 443h131l-475 -488l479 -530h-131l-436 483h-150v-483h-102z" />
    <glyph glyph-name="uni0437" unicode="&#x437;" horiz-adv-x="1146" 
d="M580 -23q-222 0 -346 87t-132 233h105q9 -105 104 -165t269 -60q158 0 254 52.5t96 154.5q0 68 -47.5 115t-126 68t-183.5 21h-170v92h172q148 0 237 47.5t89 139.5t-88.5 139t-237.5 47q-53 0 -99.5 -6t-94 -21.5t-82.5 -40t-60 -65t-32 -92.5h-105q12 151 136.5 234
t336.5 83q193 0 309.5 -70t116.5 -206q0 -162 -184 -225v-9q101 -27 157 -91t56 -160q0 -141 -119 -221.5t-331 -80.5z" />
    <glyph glyph-name="uni0438" unicode="&#x438;" horiz-adv-x="1277" 
d="M1067 1018v-1018h-100v854h-9l-647 -854h-100v1018h100v-854h8l648 854h100z" />
    <glyph glyph-name="uni0439" unicode="&#x439;" horiz-adv-x="1277" 
d="M641 1169q-48 0 -92.5 12.5t-88 41t-73 84.5t-35.5 133h88q5 -54 26 -93t51.5 -59t61 -28.5t62.5 -8.5t62.5 8.5t61 28.5t51.5 59t26 93h88q-6 -77 -35.5 -133t-73 -84.5t-88 -41t-92.5 -12.5zM1067 1018v-1018h-100v854h-9l-647 -854h-100v1018h100v-854h8l648 854h100z
" />
    <glyph glyph-name="uni043A" unicode="&#x43a;" horiz-adv-x="1150" 
d="M211 0v1018h100v-443h195l430 443h131l-475 -488l479 -530h-131l-436 483h-193v-483h-100z" />
    <glyph glyph-name="uni043B" unicode="&#x43b;" horiz-adv-x="1288" 
d="M1079 1018v-1018h-102v926h-578l-39 -711q-6 -110 -57.5 -164.5t-161.5 -54.5h-73v100h67q69 0 96.5 29.5t30.5 97.5l45 795h772z" />
    <glyph glyph-name="uni043C" unicode="&#x43c;" horiz-adv-x="1605" 
d="M1395 1018v-1018h-101v864h-8l-432 -864h-102l-433 864h-8v-864h-100v1018h139l449 -897h8l448 897h140z" />
    <glyph glyph-name="uni043D" unicode="&#x43d;" horiz-adv-x="1271" 
d="M311 483v-483h-100v1018h100v-443h650v443h102v-1018h-102v483h-650z" />
    <glyph glyph-name="uni043E" unicode="&#x43e;" horiz-adv-x="1267" 
d="M633 -23q-225 0 -371.5 150t-146.5 383q0 231 146.5 380.5t371.5 149.5t372.5 -149.5t147.5 -380.5q0 -232 -147.5 -382.5t-372.5 -150.5zM633 72q185 0 301.5 122.5t116.5 315.5q0 192 -117 315t-301 123t-301 -123t-117 -315q0 -193 116.5 -315.5t301.5 -122.5z" />
    <glyph glyph-name="uni043F" unicode="&#x43f;" horiz-adv-x="1271" 
d="M311 926v-926h-100v1018h852v-1018h-102v926h-650z" />
    <glyph glyph-name="uni0440" unicode="&#x440;" horiz-adv-x="1359" 
d="M735 1040q223 0 366.5 -149t143.5 -381q0 -233 -143.5 -383t-366.5 -150q-139 0 -247.5 62.5t-168.5 175.5h-8v-625h-100v1428h100v-213h8q60 111 169 173t247 62zM727 72q185 0 301.5 122.5t116.5 315.5q0 192 -117 315t-301 123t-301 -123t-117 -315
q0 -193 116.5 -315.5t301.5 -122.5z" />
    <glyph glyph-name="uni0441" unicode="&#x441;" horiz-adv-x="1220" 
d="M629 -23q-229 0 -371.5 150.5t-142.5 382.5q0 230 142.5 380t371.5 150q185 0 315.5 -101.5t173.5 -272.5h-104q-44 132 -143.5 207t-241.5 75q-186 0 -300 -123t-114 -315t114 -315t300 -123q142 0 241.5 74.5t143.5 205.5h104q-43 -171 -173.5 -273t-315.5 -102z" />
    <glyph glyph-name="uni0442" unicode="&#x442;" horiz-adv-x="1144" 
d="M96 926v92h953v-92h-426v-926h-101v926h-426z" />
    <glyph glyph-name="uni0443" unicode="&#x443;" horiz-adv-x="1206" 
d="M162 -410v97h147q70 0 108.5 27.5t63.5 86.5l88 205l-477 1012h113l411 -877h13l377 877h108l-539 -1254q-42 -97 -101.5 -135.5t-164.5 -38.5h-147z" />
    <glyph glyph-name="uni0444" unicode="&#x444;" horiz-adv-x="1587" 
d="M743 -10h-84q-147 0 -269 60.5t-198.5 180.5t-76.5 279q0 120 44.5 219t119.5 163.5t173 100t207 35.5h84v406h101v-406h84q147 0 269.5 -60t199 -180t76.5 -278t-76.5 -278.5t-199 -181t-269.5 -60.5h-84v-400h-101v400zM743 84v852h-81q-88 0 -168.5 -29t-142.5 -82
t-99 -135t-37 -180q0 -131 64 -230t164 -147.5t219 -48.5h81zM926 936h-82v-852h82q88 0 168 29t141.5 81.5t98 134.5t36.5 181q0 130 -63 229t-163 148t-218 49z" />
    <glyph glyph-name="uni0445" unicode="&#x445;" horiz-adv-x="1116" 
d="M80 0l416 512l-412 506h127l348 -428l348 428h125l-411 -506l415 -512h-125l-352 434l-352 -434h-127z" />
    <glyph glyph-name="uni0446" unicode="&#x446;" horiz-adv-x="1280" 
d="M1190 92v-317h-98v225h-881v1018h100v-926h650v926h102v-926h127z" />
    <glyph glyph-name="uni0447" unicode="&#x447;" horiz-adv-x="1202" 
d="M991 1018v-1018h-100v424q-180 -37 -324 -37q-108 0 -183.5 15.5t-133 52.5t-85.5 103t-28 163v297h101v-297q0 -137 77.5 -188.5t251.5 -51.5q138 0 324 33v504h100z" />
    <glyph glyph-name="uni0448" unicode="&#x448;" horiz-adv-x="1968" 
d="M1759 1018v-1018h-1548v1018h100v-926h623v926h100v-926h623v926h102z" />
    <glyph glyph-name="uni0449" unicode="&#x449;" horiz-adv-x="1976" 
d="M1886 92v-317h-98v225h-1577v1018h100v-926h623v926h100v-926h623v926h102v-926h127z" />
    <glyph glyph-name="uni044A" unicode="&#x44a;" horiz-adv-x="1429" 
d="M457 0v926h-361v92h463v-389h395q72 0 134.5 -17.5t114.5 -54t82 -99t30 -145.5q0 -82 -29.5 -144t-81 -98t-114 -53.5t-134.5 -17.5h-499zM559 92h397q128 0 193 61t65 160q0 101 -65.5 162.5t-194.5 61.5h-395v-445z" />
    <glyph glyph-name="uni044B" unicode="&#x44b;" horiz-adv-x="1562" 
d="M1352 1018v-1018h-101v1018h101zM668 0h-457v1018h100v-389h355q72 0 134.5 -17.5t114 -54t81.5 -99t30 -145.5q0 -82 -29.5 -144t-81 -98t-113.5 -53.5t-134 -17.5zM311 537v-445h357q128 0 193 61t65 160q0 101 -65.5 162.5t-194.5 61.5h-355z" />
    <glyph glyph-name="uni044C" unicode="&#x44c;" horiz-adv-x="1181" 
d="M211 0v1018h100v-389h396q72 0 134.5 -17.5t114 -54t81.5 -99t30 -145.5q0 -82 -29.5 -144t-81 -98t-113.5 -53.5t-134 -17.5h-498zM311 92h398q128 0 193 61t65 160q0 101 -65.5 162.5t-194.5 61.5h-396v-445z" />
    <glyph glyph-name="uni044D" unicode="&#x44d;" horiz-adv-x="1216" 
d="M432 465v96h565q-17 170 -131 276.5t-286 106.5q-132 0 -228.5 -64.5t-144.5 -172.5h-105q46 147 174 240t306 93q228 0 374 -149t146 -381q0 -234 -146 -383.5t-374 -149.5q-178 0 -306 93.5t-174 240.5h105q48 -108 144.5 -172.5t228.5 -64.5q174 0 289.5 109
t129.5 282h-567z" />
    <glyph glyph-name="uni044E" unicode="&#x44e;" horiz-adv-x="1665" 
d="M1040 -23q-208 0 -352 138t-156 354h-221v-469h-100v1018h100v-455h224q17 210 159.5 343.5t345.5 133.5q218 0 364 -150t146 -380q0 -232 -146 -382.5t-364 -150.5zM1040 72q174 0 291 124.5t117 313.5t-117 313.5t-291 124.5t-290.5 -124t-116.5 -314t116.5 -314
t290.5 -124z" />
    <glyph glyph-name="uni044F" unicode="&#x44f;" horiz-adv-x="1193" 
d="M258 0h-113l236 426q-118 25 -182 99.5t-64 191.5q0 145 96 223t267 78h487v-1018h-102v416h-396zM498 508h385v418h-385q-138 0 -200 -57.5t-62 -151.5t62 -151.5t200 -57.5z" />
    <glyph glyph-name="uni0450" unicode="&#x450;" horiz-adv-x="1247" 
d="M518 1432l164 -267h-109l-163 267h108zM633 -23q-221 0 -369.5 152t-148.5 381q0 151 68.5 272.5t187 189.5t262.5 68q216 0 358 -145t142 -363l-5 -63h-911q12 -175 129 -287t287 -112q121 0 217.5 59.5t146.5 161.5h109q-62 -153 -190.5 -233.5t-282.5 -80.5zM219 561
h811q-11 170 -122 278.5t-275 108.5q-163 0 -280 -108.5t-134 -278.5z" />
    <glyph glyph-name="uni0451" unicode="&#x451;" horiz-adv-x="1247" 
d="M455 1292q-35 0 -57.5 21t-22.5 55t22.5 56t57.5 22q34 0 55.5 -22t21.5 -56t-21.5 -55t-55.5 -21zM811 1292q-34 0 -56 21t-22 55t22 56t56 22q35 0 57.5 -22t22.5 -56t-22.5 -55t-57.5 -21zM633 -23q-221 0 -369.5 152t-148.5 381q0 151 68.5 272.5t187 189.5t262.5 68
q216 0 358 -145t142 -363l-5 -63h-911q12 -175 129 -287t287 -112q121 0 217.5 59.5t146.5 161.5h109q-62 -153 -190.5 -233.5t-282.5 -80.5zM219 561h811q-11 170 -122 278.5t-275 108.5q-163 0 -280 -108.5t-134 -278.5z" />
    <glyph glyph-name="uni0452" unicode="&#x452;" horiz-adv-x="1304" 
d="M23 1145v92h194v197h100v-197h322v-92h-322v-397h9q49 95 142.5 152.5t225.5 57.5q86 0 160.5 -27.5t132.5 -79.5t91.5 -135.5t33.5 -187.5v-702q0 -120 -56.5 -178t-176.5 -58h-103v97h88q77 0 112.5 35.5t35.5 111.5v676q0 75 -19 136.5t-51 101.5t-75.5 67t-90 39
t-96.5 12q-53 0 -103 -13.5t-98 -45.5t-83.5 -79t-57 -119t-21.5 -160v-449h-100v1145h-194z" />
    <glyph glyph-name="uni0453" unicode="&#x453;" horiz-adv-x="993" 
d="M494 1167l163 267h109l-164 -267h-108zM211 0v1018h688v-96h-588v-922h-100z" />
    <glyph glyph-name="uni0454" unicode="&#x454;" horiz-adv-x="1216" 
d="M784 561v-96h-567q14 -173 130 -282t290 -109q132 0 228.5 64.5t144.5 172.5h104q-46 -148 -173.5 -241t-305.5 -93q-228 0 -374 149.5t-146 383.5q0 232 146 381t374 149q178 0 305.5 -93t173.5 -240h-104q-48 108 -144.5 172.5t-228.5 64.5q-172 0 -286.5 -106.5
t-131.5 -276.5h565z" />
    <glyph glyph-name="uni0455" unicode="&#x455;" horiz-adv-x="1107" 
d="M573 -23q-69 0 -131.5 9.5t-123.5 34t-106.5 62.5t-77 97.5t-38.5 136.5h107q7 -67 42.5 -117t89.5 -77.5t113 -40t125 -12.5q56 0 106.5 9t99.5 30t78.5 63t29.5 100q0 67 -41.5 109.5t-108 61t-147 30.5t-161 27.5t-147 41.5t-108 82t-41.5 140q0 65 26 115t66.5 79.5
t96 48.5t108 26t109.5 7q79 0 147 -14.5t130.5 -46t103 -92t49.5 -144.5h-107q-9 58 -40.5 100t-79 64t-97.5 31.5t-106 9.5q-40 0 -77.5 -4t-80.5 -16t-74.5 -31.5t-52.5 -53.5t-21 -79q0 -48 26 -82t69.5 -52.5t100.5 -31t119.5 -22t125 -20.5t119.5 -31.5t100.5 -50.5
t69.5 -81.5t26 -120.5q0 -68 -25 -121t-65 -85t-96 -52.5t-111.5 -28.5t-118.5 -8z" />
    <glyph glyph-name="uni0456" unicode="&#x456;" horiz-adv-x="579" 
d="M289 1294q-35 0 -57.5 21t-22.5 55t22.5 56t57.5 22t57.5 -22t22.5 -56t-22.5 -55t-57.5 -21zM240 0v1018h100v-1018h-100z" />
    <glyph glyph-name="uni0457" unicode="&#x457;" horiz-adv-x="522" 
d="M82 1294q-35 0 -57.5 21t-22.5 55t22.5 56t57.5 22q34 0 56 -22t22 -56t-22 -55t-56 -21zM438 1294q-34 0 -56 21t-22 55t22 56t56 22q35 0 57.5 -22t22.5 -56t-22.5 -55t-57.5 -21zM211 0v1018h100v-1018h-100z" />
    <glyph glyph-name="uni0458" unicode="&#x458;" horiz-adv-x="550" 
d="M260 1294q-35 0 -57.5 21t-22.5 55t22.5 56t57.5 22t57.5 -22t22.5 -56t-22.5 -55t-57.5 -21zM-27 -410v97h90q77 0 112.5 35.5t35.5 111.5v1184h100v-1192q0 -120 -57.5 -178t-177.5 -58h-103z" />
    <glyph glyph-name="uni0459" unicode="&#x459;" horiz-adv-x="1898" 
d="M68 -4v100h67q69 0 96.5 29.5t30.5 97.5l45 795h746v-389h370q72 0 134.5 -17.5t114.5 -54t82 -99t30 -145.5q0 -82 -30 -144t-82 -98t-114.5 -53.5t-134.5 -17.5h-471v926h-553l-39 -711q-6 -110 -57.5 -164.5t-161.5 -54.5h-73zM1053 92h370q129 0 193.5 61t64.5 160
q0 101 -64.5 162.5t-193.5 61.5h-370v-445z" />
    <glyph glyph-name="uni045A" unicode="&#x45a;" horiz-adv-x="1882" 
d="M936 539h-625v-539h-100v1018h100v-385h625v385h100v-389h371q72 0 134.5 -17.5t114 -54t81.5 -99t30 -145.5q0 -82 -30 -144t-81.5 -98t-114 -53.5t-134.5 -17.5h-471v539zM1036 537v-445h371q129 0 193.5 61t64.5 160q0 101 -64.5 162.5t-193.5 61.5h-371z" />
    <glyph glyph-name="uni045B" unicode="&#x45b;" horiz-adv-x="1486" 
d="M399 0v1145h-188v92h188v197h101v-197h327v-92h-327v-397h8q49 95 142.5 152.5t223.5 57.5q86 0 161 -27.5t133 -79.5t92 -135.5t34 -187.5v-528h-100v510q0 75 -19 136.5t-51 101.5t-75.5 67t-90 39t-96.5 12q-54 0 -104 -13.5t-97.5 -45.5t-82.5 -79t-56.5 -119
t-21.5 -160v-449h-101z" />
    <glyph glyph-name="uni045C" unicode="&#x45c;" horiz-adv-x="1150" 
d="M537 1167l163 267h109l-164 -267h-108zM211 0v1018h100v-443h195l430 443h131l-475 -488l479 -530h-131l-436 483h-193v-483h-100z" />
    <glyph glyph-name="uni045D" unicode="&#x45d;" horiz-adv-x="1277" 
d="M526 1434l164 -267h-108l-164 267h108zM1067 1018v-1018h-100v854h-9l-647 -854h-100v1018h100v-854h8l648 854h100z" />
    <glyph glyph-name="uni045E" unicode="&#x45e;" horiz-adv-x="1202" 
d="M612 1169q-38 0 -73.5 7t-73 26t-66 48.5t-49.5 78t-26 111.5h88q5 -54 25.5 -93t51 -59t61 -28.5t62.5 -8.5t62.5 8.5t61 28.5t51.5 59t26 93h88q-6 -77 -35.5 -133t-73 -84.5t-88 -41t-92.5 -12.5zM162 -410v97h147q70 0 108.5 27.5t63.5 86.5l88 205l-477 1012h113
l411 -877h13l377 877h108l-539 -1254q-42 -97 -101.5 -135.5t-164.5 -38.5h-147z" />
    <glyph glyph-name="uni045F" unicode="&#x45f;" horiz-adv-x="1271" 
d="M586 -266v266h-375v1018h100v-926h650v926h102v-1018h-377v-266h-100z" />
    <glyph glyph-name="uni0490" unicode="&#x490;" horiz-adv-x="1417" 
d="M1186 1434v321h106v-422h-932v-1333h-104v1434h930z" />
    <glyph glyph-name="uni0491" unicode="&#x491;" horiz-adv-x="993" 
d="M797 1018v272h102v-368h-588v-922h-100v1018h586z" />
    <glyph glyph-name="uni04C0" unicode="&#x4c0;" horiz-adv-x="620" 
d="M256 0v1434h109v-1434h-109z" />
    <glyph glyph-name="uni04C1" unicode="&#x4c1;" horiz-adv-x="2275" 
d="M1139 1585q-48 0 -92.5 12.5t-88 40.5t-73 84t-35.5 133h88q5 -54 26 -93t51.5 -58.5t60.5 -28t63 -8.5t63 8.5t60.5 28t51 58.5t25.5 93h88q-5 -63 -26 -111.5t-49.5 -77.5t-66 -48t-73 -26t-73.5 -7zM1083 0v707h-198l-631 -707h-143l673 752l-661 682h139l612 -631
h209v631h109v-631h209l612 631h139l-659 -682l672 -752h-142l-630 707h-201v-707h-109z" />
    <glyph glyph-name="uni04C2" unicode="&#x4c2;" horiz-adv-x="1695" 
d="M848 1169q-48 0 -92.5 12.5t-88 41t-73 84.5t-35.5 133h88q5 -54 26 -93t51.5 -59t61 -28.5t62.5 -8.5t62.5 8.5t61 28.5t51.5 59t26 93h88q-6 -77 -35.5 -133t-73 -84.5t-88 -41t-92.5 -12.5zM797 0v483h-150l-436 -483h-131l479 530l-475 488h131l430 -443h152v443h102
v-443h152l430 443h131l-475 -488l479 -530h-131l-436 483h-150v-483h-102z" />
    <glyph glyph-name="uni04CF" unicode="&#x4cf;" horiz-adv-x="522" 
d="M211 0v1018h100v-1018h-100z" />
    <glyph glyph-name="uni04D0" unicode="&#x4d0;" horiz-adv-x="1480" 
d="M739 1585q-38 0 -73.5 7t-73 26t-66 48t-49.5 77.5t-26 111.5h88q5 -54 25.5 -93t51 -58.5t60.5 -28t63 -8.5t63 8.5t60.5 28t51.5 58.5t26 93h88q-6 -77 -35.5 -133t-73 -84t-88 -40.5t-92.5 -12.5zM1419 0h-112l-172 391h-789l-172 -391h-113l635 1434h88zM391 489h699
l-347 783h-8z" />
    <glyph glyph-name="uni04D1" unicode="&#x4d1;" horiz-adv-x="1210" 
d="M588 1169q-48 0 -92.5 12.5t-88 41t-73 84.5t-35.5 133h88q5 -54 26 -93t51.5 -59t61 -28.5t62.5 -8.5t62.5 8.5t61 28.5t51 59t25.5 93h89q-6 -77 -35.5 -133t-73 -84.5t-88 -41t-92.5 -12.5zM440 -23q-44 0 -82.5 5t-85.5 22t-80.5 45t-56 79t-22.5 120q0 55 16.5 99.5
t44 75t70 55.5t86.5 40.5t102 30.5l455 115v18q0 64 -19.5 113t-49.5 77.5t-71.5 46t-79 23.5t-77.5 6q-127 0 -219.5 -60t-110.5 -173h-106q19 150 137 237.5t299 87.5q51 0 97.5 -6.5t104 -30t98.5 -62t69 -108.5t28 -163v-518q0 -31 12 -43.5t43 -12.5h66v-96h-90
q-116 0 -125 109l-4 81h-8q-64 -100 -179.5 -156.5t-261.5 -56.5zM446 70q62 0 122.5 12.5t118.5 41t102 71t71 108t27 146.5v118l-443 -110q-128 -33 -178.5 -80t-50.5 -125q0 -182 231 -182z" />
    <glyph glyph-name="uni04D2" unicode="&#x4d2;" horiz-adv-x="1480" 
d="M561 1710q-35 0 -57.5 21t-22.5 55t22.5 56t57.5 22q34 0 56 -22t22 -56t-22 -55t-56 -21zM918 1710q-34 0 -56 21t-22 55t22 56t56 22q35 0 57 -22t22 -56t-22 -55t-57 -21zM1419 0h-112l-172 391h-789l-172 -391h-113l635 1434h88zM391 489h699l-347 783h-8z" />
    <glyph glyph-name="uni04D3" unicode="&#x4d3;" horiz-adv-x="1210" 
d="M410 1294q-35 0 -57.5 21t-22.5 55t22.5 56t57.5 22q34 0 55.5 -22t21.5 -56t-21.5 -55t-55.5 -21zM766 1294q-34 0 -56 21t-22 55t22 56t56 22q35 0 57.5 -22t22.5 -56t-22.5 -55t-57.5 -21zM440 -23q-44 0 -82.5 5t-85.5 22t-80.5 45t-56 79t-22.5 120q0 55 16.5 99.5
t44 75t70 55.5t86.5 40.5t102 30.5l455 115v18q0 64 -19.5 113t-49.5 77.5t-71.5 46t-79 23.5t-77.5 6q-127 0 -219.5 -60t-110.5 -173h-106q19 150 137 237.5t299 87.5q51 0 97.5 -6.5t104 -30t98.5 -62t69 -108.5t28 -163v-518q0 -31 12 -43.5t43 -12.5h66v-96h-90
q-116 0 -125 109l-4 81h-8q-64 -100 -179.5 -156.5t-261.5 -56.5zM446 70q62 0 122.5 12.5t118.5 41t102 71t71 108t27 146.5v118l-443 -110q-128 -33 -178.5 -80t-50.5 -125q0 -182 231 -182z" />
    <glyph glyph-name="uni04D4" unicode="&#x4d4;" horiz-adv-x="2301" 
d="M53 0l1051 1434h1020v-101h-881v-530h766v-101h-766v-602h881v-100h-987v391h-678l-287 -391h-119zM530 489h607v816h-9z" />
    <glyph glyph-name="uni04D5" unicode="&#x4d5;" horiz-adv-x="2019" 
d="M446 -23q-333 0 -333 271q0 55 16.5 99.5t44 75t70 55.5t86.5 40.5t102 30.5l455 115v18q0 64 -19.5 113t-49.5 77.5t-71.5 46t-79 23.5t-77.5 6q-127 0 -219.5 -60t-110.5 -173h-106q19 150 137 237.5t299 87.5q42 0 80.5 -5t86.5 -20.5t85.5 -41.5t71.5 -72t51 -108h8
q66 117 179 182t251 65q217 0 359.5 -145t142.5 -363l-4 -63h-912q12 -175 128.5 -287t285.5 -112q121 0 218.5 60t147.5 161h109q-42 -102 -117.5 -174t-166 -106t-191.5 -34q-152 0 -274.5 78t-184.5 209h-8q-45 -126 -174 -206.5t-316 -80.5zM991 561h811
q-12 171 -123 279t-276 108q-164 0 -280.5 -109t-131.5 -278zM446 70q62 0 122.5 12.5t118.5 41t102 71t71 108t27 146.5v118l-443 -110q-128 -33 -178.5 -80t-50.5 -125q0 -182 231 -182z" />
    <glyph glyph-name="uni04D6" unicode="&#x4d6;" horiz-adv-x="1490" 
d="M793 1585q-48 0 -92.5 12.5t-88 40.5t-73 84t-35.5 133h88q5 -54 26 -93t51.5 -58.5t60.5 -28t63 -8.5t63 8.5t60.5 28t51 58.5t25.5 93h88q-5 -63 -26 -111.5t-49.5 -77.5t-66 -48t-73 -26t-73.5 -7zM365 702v-602h948v-100h-1057v1434h1057v-101h-948v-530h833v-101
h-833z" />
    <glyph glyph-name="uni04D7" unicode="&#x4d7;" horiz-adv-x="1247" 
d="M633 1167q-48 0 -92.5 12.5t-88 41t-73 84.5t-35.5 133h88q5 -54 26 -93t51.5 -59t61 -28.5t62.5 -8.5t62.5 8.5t61 28.5t51.5 59t26 93h88q-6 -77 -35.5 -133t-73 -84.5t-88 -41t-92.5 -12.5zM633 -23q-221 0 -369.5 152t-148.5 381q0 151 68.5 272.5t187 189.5
t262.5 68q216 0 358 -145t142 -363l-5 -63h-911q12 -175 129 -287t287 -112q121 0 217.5 59.5t146.5 161.5h109q-62 -153 -190.5 -233.5t-282.5 -80.5zM219 561h811q-11 170 -122 278.5t-275 108.5q-163 0 -280 -108.5t-134 -278.5z" />
    <glyph glyph-name="uni04DC" unicode="&#x4dc;" horiz-adv-x="2275" 
d="M961 1710q-35 0 -57.5 21t-22.5 55t22.5 56t57.5 22q34 0 55.5 -22t21.5 -56t-21.5 -55t-55.5 -21zM1317 1710q-34 0 -56 21t-22 55t22 56t56 22q35 0 57.5 -22t22.5 -56t-22.5 -55t-57.5 -21zM1083 0v707h-198l-631 -707h-143l673 752l-661 682h139l612 -631h209v631
h109v-631h209l612 631h139l-659 -682l672 -752h-142l-630 707h-201v-707h-109z" />
    <glyph glyph-name="uni04DD" unicode="&#x4dd;" horiz-adv-x="1695" 
d="M670 1294q-35 0 -57.5 21t-22.5 55t22.5 56t57.5 22q34 0 56 -22t22 -56t-22 -55t-56 -21zM1026 1294q-34 0 -56 21t-22 55t22 56t56 22q35 0 57.5 -22t22.5 -56t-22.5 -55t-57.5 -21zM797 0v483h-150l-436 -483h-131l479 530l-475 488h131l430 -443h152v443h102v-443
h152l430 443h131l-475 -488l479 -530h-131l-436 483h-150v-483h-102z" />
    <glyph glyph-name="uni04DE" unicode="&#x4de;" horiz-adv-x="1552" 
d="M604 1710q-35 0 -57.5 21t-22.5 55t22.5 56t57.5 22q34 0 56 -22t22 -56t-22 -55t-56 -21zM961 1710q-34 0 -56 21t-22 55t22 56t56 22q35 0 57 -22t22 -56t-22 -55t-57 -21zM799 -23q-133 0 -237.5 22t-176 60.5t-121 95.5t-75.5 122t-37 145h112q29 -169 153.5 -256.5
t381.5 -87.5q238 0 373 79t135 234q0 134 -98 216.5t-279 82.5h-357v98h334q155 0 258 73.5t103 201.5q0 143 -132 218t-354 75q-235 0 -366 -89.5t-152 -254.5h-112q24 210 186 327t444 117q273 0 433.5 -104.5t160.5 -286.5q0 -203 -221 -309v-8q123 -40 191.5 -133
t68.5 -224q0 -194 -154 -304t-462 -110z" />
    <glyph glyph-name="uni04DF" unicode="&#x4df;" horiz-adv-x="1146" 
d="M399 1294q-35 0 -57.5 21t-22.5 55t22.5 56t57.5 22q34 0 56 -22t22 -56t-22 -55t-56 -21zM756 1294q-34 0 -56 21t-22 55t22 56t56 22q35 0 57.5 -22t22.5 -56t-22.5 -55t-57.5 -21zM580 -23q-222 0 -346 87t-132 233h105q9 -105 104 -165t269 -60q158 0 254 52.5
t96 154.5q0 68 -47.5 115t-126 68t-183.5 21h-170v92h172q148 0 237 47.5t89 139.5t-88.5 139t-237.5 47q-53 0 -99.5 -6t-94 -21.5t-82.5 -40t-60 -65t-32 -92.5h-105q12 151 136.5 234t336.5 83q193 0 309.5 -70t116.5 -206q0 -162 -184 -225v-9q101 -27 157 -91t56 -160
q0 -141 -119 -221.5t-331 -80.5z" />
    <glyph glyph-name="uni04E2" unicode="&#x4e2;" horiz-adv-x="1689" 
d="M496 1673v86h696v-86h-696zM1434 1434v-1434h-109v1303l-934 -1303h-135v1434h109v-1303l935 1303h134z" />
    <glyph glyph-name="uni04E3" unicode="&#x4e3;" horiz-adv-x="1277" 
d="M293 1257v86h696v-86h-696zM1067 1018v-1018h-100v854h-9l-647 -854h-100v1018h100v-854h8l648 854h100z" />
    <glyph glyph-name="uni04E4" unicode="&#x4e4;" horiz-adv-x="1689" 
d="M666 1710q-35 0 -57.5 21t-22.5 55t22.5 56t57.5 22q34 0 55.5 -22t21.5 -56t-21.5 -55t-55.5 -21zM1022 1710q-34 0 -56 21t-22 55t22 56t56 22q35 0 57.5 -22t22.5 -56t-22.5 -55t-57.5 -21zM1434 1434v-1434h-109v1303l-934 -1303h-135v1434h109v-1303l935 1303h134z
" />
    <glyph glyph-name="uni04E5" unicode="&#x4e5;" horiz-adv-x="1277" 
d="M463 1294q-35 0 -57.5 21t-22.5 55t22.5 56t57.5 22q34 0 56 -22t22 -56t-22 -55t-56 -21zM819 1294q-34 0 -56 21t-22 55t22 56t56 22q35 0 57.5 -22t22.5 -56t-22.5 -55t-57.5 -21zM1067 1018v-1018h-100v854h-9l-647 -854h-100v1018h100v-854h8l648 854h100z" />
    <glyph glyph-name="uni04E6" unicode="&#x4e6;" horiz-adv-x="1742" 
d="M692 1710q-35 0 -57.5 21t-22.5 55t22.5 56t57.5 22q34 0 56 -22t22 -56t-22 -55t-56 -21zM1049 1710q-34 0 -56 21t-22 55t22 56t56 22q35 0 57 -22t22 -56t-22 -55t-57 -21zM870 -23q-202 0 -364 96t-253 265.5t-91 378.5t91 378t253 265t364 96q151 0 283.5 -56
t226 -154t147.5 -235t54 -294q0 -209 -91.5 -378.5t-254.5 -265.5t-365 -96zM870 78q126 0 237 46.5t191.5 129.5t127.5 203t47 260t-47 260t-127.5 203t-191.5 129.5t-237 46.5q-167 0 -304 -79.5t-217.5 -226.5t-80.5 -333t80.5 -333t217.5 -226.5t304 -79.5z" />
    <glyph glyph-name="uni04E7" unicode="&#x4e7;" horiz-adv-x="1267" 
d="M455 1294q-35 0 -57.5 21t-22.5 55t22.5 56t57.5 22q34 0 55.5 -22t21.5 -56t-21.5 -55t-55.5 -21zM811 1294q-34 0 -56 21t-22 55t22 56t56 22q35 0 57.5 -22t22.5 -56t-22.5 -55t-57.5 -21zM633 -23q-225 0 -371.5 150t-146.5 383q0 231 146.5 380.5t371.5 149.5
t372.5 -149.5t147.5 -380.5q0 -232 -147.5 -382.5t-372.5 -150.5zM633 72q185 0 301.5 122.5t116.5 315.5q0 192 -117 315t-301 123t-301 -123t-117 -315q0 -193 116.5 -315.5t301.5 -122.5z" />
    <glyph glyph-name="uni04EC" unicode="&#x4ec;" horiz-adv-x="1673" 
d="M616 1710q-35 0 -57 21t-22 55t22 56t57 22q34 0 56 -22t22 -56t-22 -55t-56 -21zM973 1710q-34 0 -56 21t-22 55t22 56t56 22q35 0 57.5 -22t22.5 -56t-22.5 -55t-57.5 -21zM797 -23q-227 0 -400 124.5t-245 324.5h112q70 -162 214.5 -255t322.5 -93q161 0 296 76.5
t217.5 215.5t90.5 314h-817v100h813q-22 250 -192.5 411t-407.5 161q-178 0 -322.5 -93t-214.5 -255h-112q72 200 245 324t400 124q200 0 364.5 -97.5t258 -267t93.5 -374.5q0 -154 -55 -291t-150 -235.5t-228 -156t-283 -57.5z" />
    <glyph glyph-name="uni04ED" unicode="&#x4ed;" horiz-adv-x="1216" 
d="M401 1294q-35 0 -57 21t-22 55t22 56t57 22q34 0 56 -22t22 -56t-22 -55t-56 -21zM758 1294q-34 0 -56 21t-22 55t22 56t56 22q35 0 57.5 -22t22.5 -56t-22.5 -55t-57.5 -21zM432 465v96h565q-17 170 -131 276.5t-286 106.5q-132 0 -228.5 -64.5t-144.5 -172.5h-105
q46 147 174 240t306 93q228 0 374 -149t146 -381q0 -234 -146 -383.5t-374 -149.5q-178 0 -306 93.5t-174 240.5h105q48 -108 144.5 -172.5t228.5 -64.5q174 0 289.5 109t129.5 282h-567z" />
    <glyph glyph-name="uni04EE" unicode="&#x4ee;" horiz-adv-x="1415" 
d="M375 1673v86h696v-86h-696zM358 0v104h158q54 0 86.5 23.5t56.5 75.5l50 110l-621 1121h123l547 -994h8l444 994h115l-575 -1284q-36 -79 -87 -114.5t-137 -35.5h-168z" />
    <glyph glyph-name="uni04EF" unicode="&#x4ef;" horiz-adv-x="1206" 
d="M268 1257v86h697v-86h-697zM162 -410v97h147q70 0 108.5 27.5t63.5 86.5l88 205l-477 1012h113l411 -877h13l377 877h108l-539 -1254q-42 -97 -101.5 -135.5t-164.5 -38.5h-147z" />
    <glyph glyph-name="uni04F0" unicode="&#x4f0;" horiz-adv-x="1415" 
d="M545 1710q-35 0 -57.5 21t-22.5 55t22.5 56t57.5 22q34 0 56 -22t22 -56t-22 -55t-56 -21zM901 1710q-34 0 -56 21t-22 55t22 56t56 22q35 0 57.5 -22t22.5 -56t-22.5 -55t-57.5 -21zM358 0v104h158q54 0 86.5 23.5t56.5 75.5l50 110l-621 1121h123l547 -994h8l444 994
h115l-575 -1284q-36 -79 -87 -114.5t-137 -35.5h-168z" />
    <glyph glyph-name="uni04F1" unicode="&#x4f1;" horiz-adv-x="1206" 
d="M438 1294q-35 0 -57.5 21t-22.5 55t22.5 56t57.5 22q34 0 56 -22t22 -56t-22 -55t-56 -21zM795 1294q-34 0 -56 21t-22 55t22 56t56 22q35 0 57 -22t22 -56t-22 -55t-57 -21zM162 -410v97h147q70 0 108.5 27.5t63.5 86.5l88 205l-477 1012h113l411 -877h13l377 877h108
l-539 -1254q-42 -97 -101.5 -135.5t-164.5 -38.5h-147z" />
    <glyph glyph-name="uni04F2" unicode="&#x4f2;" horiz-adv-x="1415" 
d="M795 1583l163 266h107l-164 -266h-106zM524 1583l164 266h107l-164 -266h-107zM358 0v104h158q54 0 86.5 23.5t56.5 75.5l50 110l-621 1121h123l547 -994h8l444 994h115l-575 -1284q-36 -79 -87 -114.5t-137 -35.5h-168z" />
    <glyph glyph-name="uni04F3" unicode="&#x4f3;" horiz-adv-x="1206" 
d="M688 1167l164 267h106l-163 -267h-107zM418 1167l164 267h106l-164 -267h-106zM162 -410v97h147q70 0 108.5 27.5t63.5 86.5l88 205l-477 1012h113l411 -877h13l377 877h108l-539 -1254q-42 -97 -101.5 -135.5t-164.5 -38.5h-147z" />
    <glyph glyph-name="uni04F4" unicode="&#x4f4;" horiz-adv-x="1468" 
d="M504 1710q-35 0 -57.5 21t-22.5 55t22.5 56t57.5 22q34 0 56 -22t22 -56t-22 -55t-56 -21zM860 1710q-34 0 -56 21t-22 55t22 56t56 22q35 0 57.5 -22t22.5 -56t-22.5 -55t-57.5 -21zM1212 1434v-1434h-108v645q-209 -47 -391 -47q-559 0 -559 442v394h108v-394
q0 -342 451 -342q157 0 391 41v695h108z" />
    <glyph glyph-name="uni04F5" unicode="&#x4f5;" horiz-adv-x="1202" 
d="M381 1294q-35 0 -57.5 21t-22.5 55t22.5 56t57.5 22q34 0 56 -22t22 -56t-22 -55t-56 -21zM737 1294q-34 0 -56 21t-22 55t22 56t56 22q35 0 57.5 -22t22.5 -56t-22.5 -55t-57.5 -21zM991 1018v-1018h-100v424q-180 -37 -324 -37q-108 0 -183.5 15.5t-133 52.5t-85.5 103
t-28 163v297h101v-297q0 -137 77.5 -188.5t251.5 -51.5q138 0 324 33v504h100z" />
    <glyph glyph-name="uni04F8" unicode="&#x4f8;" horiz-adv-x="2045" 
d="M846 1710q-35 0 -57.5 21t-22.5 55t22.5 56t57.5 22q34 0 56 -22t22 -56t-22 -55t-56 -21zM1202 1710q-34 0 -56 21t-22 55t22 56t56 22q35 0 57.5 -22t22.5 -56t-22.5 -55t-57.5 -21zM1788 1434v-1434h-107v1434h107zM868 0h-612v1434h109v-525h503q221 0 364.5 -127
t143.5 -327t-143.5 -327.5t-364.5 -127.5zM365 809v-709h503q174 0 287 99t113 256t-112.5 255.5t-287.5 98.5h-503z" />
    <glyph glyph-name="uni04F9" unicode="&#x4f9;" horiz-adv-x="1562" 
d="M604 1294q-35 0 -57.5 21t-22.5 55t22.5 56t57.5 22q34 0 56 -22t22 -56t-22 -55t-56 -21zM961 1294q-34 0 -56 21t-22 55t22 56t56 22q35 0 57 -22t22 -56t-22 -55t-57 -21zM1352 1018v-1018h-101v1018h101zM668 0h-457v1018h100v-389h355q72 0 134.5 -17.5t114 -54
t81.5 -99t30 -145.5q0 -82 -29.5 -144t-81 -98t-113.5 -53.5t-134 -17.5zM311 537v-445h357q128 0 193 61t65 160q0 101 -65.5 162.5t-194.5 61.5h-355z" />
    <glyph glyph-name="uni1EBC" unicode="&#x1ebc;" horiz-adv-x="1490" 
d="M645 1827q46 0 89.5 -21t72 -45.5t64.5 -45.5t69 -21q40 0 66 28.5t30 83.5h82q-4 -97 -52.5 -148.5t-125.5 -51.5q-46 0 -89.5 21t-72 45.5t-64.5 45.5t-69 21q-40 0 -66 -29t-30 -84h-82q4 97 52.5 149t125.5 52zM365 702v-602h948v-100h-1057v1434h1057v-101h-948
v-530h833v-101h-833z" />
    <glyph glyph-name="uni1EBD" unicode="&#x1ebd;" horiz-adv-x="1247" 
d="M485 1409q46 0 89.5 -21t72 -45.5t64.5 -45.5t69 -21q40 0 66.5 29t30.5 84h81q-4 -97 -52.5 -149t-125.5 -52q-46 0 -89.5 21t-72 45.5t-64.5 45.5t-69 21q-40 0 -66 -29t-30 -84h-82q4 97 52.5 149t125.5 52zM633 -23q-221 0 -369.5 152t-148.5 381q0 151 68.5 272.5
t187 189.5t262.5 68q216 0 358 -145t142 -363l-5 -63h-911q12 -175 129 -287t287 -112q121 0 217.5 59.5t146.5 161.5h109q-62 -153 -190.5 -233.5t-282.5 -80.5zM219 561h811q-11 170 -122 278.5t-275 108.5q-163 0 -280 -108.5t-134 -278.5z" />
    <glyph glyph-name="uni2010" unicode="&#x2010;" horiz-adv-x="1071" 
d="M176 539v98h717v-98h-717z" />
    <glyph glyph-name="uni2011" unicode="&#x2011;" horiz-adv-x="1071" 
d="M176 539v98h717v-98h-717z" />
    <glyph glyph-name="figuredash" unicode="&#x2012;" horiz-adv-x="1480" 
d="M178 698v105h1127v-105h-1127z" />
    <glyph glyph-name="endash" unicode="&#x2013;" horiz-adv-x="1480" 
d="M178 539v98h1127v-98h-1127z" />
    <glyph glyph-name="emdash" unicode="&#x2014;" horiz-adv-x="1890" 
d="M178 539v98h1536v-98h-1536z" />
    <glyph glyph-name="uni2015" unicode="&#x2015;" horiz-adv-x="1992" 
d="M178 539v98h1639v-98h-1639z" />
    <glyph glyph-name="quoteleft" unicode="&#x2018;" horiz-adv-x="395" 
d="M268 1446l-59 -170q32 -3 51 -24.5t19 -55.5q0 -36 -22 -58t-60 -22q-37 0 -59.5 22.5t-22.5 61.5q0 28 16 78l57 168h80z" />
    <glyph glyph-name="quoteright" unicode="&#x2019;" horiz-adv-x="395" 
d="M127 1118l59 170q-32 3 -50.5 24.5t-18.5 55.5q0 36 22 58t60 22q37 0 59.5 -22.5t22.5 -61.5q0 -25 -17 -78l-57 -168h-80z" />
    <glyph glyph-name="quotesinglbase" unicode="&#x201a;" horiz-adv-x="395" 
d="M127 -182l59 170q-32 3 -50.5 24.5t-18.5 55.5q0 36 22 57.5t60 21.5q37 0 59.5 -22.5t22.5 -61.5q0 -24 -17 -77l-57 -168h-80z" />
    <glyph glyph-name="quotedblleft" unicode="&#x201c;" horiz-adv-x="641" 
d="M268 1446l-59 -170q32 -3 51 -24.5t19 -55.5q0 -36 -22 -58t-60 -22q-37 0 -59.5 22.5t-22.5 61.5q0 28 16 78l57 168h80zM514 1446l-59 -170q32 -3 50.5 -24.5t18.5 -55.5q0 -36 -22 -58t-60 -22q-37 0 -59.5 22.5t-22.5 61.5q0 25 17 78l57 168h80z" />
    <glyph glyph-name="quotedblright" unicode="&#x201d;" horiz-adv-x="641" 
d="M373 1118l59 170q-32 3 -51 24.5t-19 55.5q0 36 22 58t60 22q37 0 59.5 -22.5t22.5 -61.5q0 -28 -16 -78l-57 -168h-80zM127 1118l59 170q-32 3 -50.5 24.5t-18.5 55.5q0 36 22 58t60 22q37 0 59.5 -22.5t22.5 -61.5q0 -25 -17 -78l-57 -168h-80z" />
    <glyph glyph-name="quotedblbase" unicode="&#x201e;" horiz-adv-x="641" 
d="M373 -182l59 170q-32 3 -51 24.5t-19 55.5q0 36 22 57.5t60 21.5q37 0 59.5 -22.5t22.5 -61.5q0 -27 -16 -77l-57 -168h-80zM127 -182l59 170q-32 3 -50.5 24.5t-18.5 55.5q0 36 22 57.5t60 21.5q37 0 59.5 -22.5t22.5 -61.5q0 -24 -17 -77l-57 -168h-80z" />
    <glyph glyph-name="dagger" unicode="&#x2020;" horiz-adv-x="1026" 
d="M76 948v101h383v385h108v-385h383v-101h-383v-948h-108v948h-383z" />
    <glyph glyph-name="daggerdbl" unicode="&#x2021;" horiz-adv-x="1067" 
d="M96 932v100h383v402h109v-402h383v-100h-383v-430h383v-101h-383v-401h-109v401h-383v101h383v430h-383z" />
    <glyph glyph-name="bullet" unicode="&#x2022;" horiz-adv-x="575" 
d="M289 449q-77 0 -124.5 44.5t-47.5 120.5t47.5 121t124.5 45t124.5 -45t47.5 -121t-47.5 -120.5t-124.5 -44.5z" />
    <glyph glyph-name="ellipsis" unicode="&#x2026;" horiz-adv-x="1187" 
d="M199 -14q-37 0 -59.5 22.5t-22.5 59.5q0 35 22.5 57t59.5 22q36 0 59 -22t23 -57q0 -36 -23 -59t-59 -23zM594 -14q-37 0 -59.5 22.5t-22.5 59.5q0 35 22.5 57t59.5 22q36 0 59 -22t23 -57q0 -36 -23 -59t-59 -23zM991 -14q-37 0 -59.5 22.5t-22.5 59.5q0 35 22.5 57
t59.5 22q36 0 59 -22t23 -57q0 -36 -23 -59t-59 -23z" />
    <glyph glyph-name="perthousand" unicode="&#x2030;" horiz-adv-x="2885" 
d="M449 555q-167 0 -268 121.5t-101 327.5t101 327t268 121q168 0 269 -121t101 -327t-101 -327.5t-269 -121.5zM557 0l776 1434h99l-777 -1434h-98zM449 643q125 0 200.5 95.5t75.5 265.5t-75.5 265t-200.5 95q-124 0 -199.5 -95t-75.5 -265t75.5 -265.5t199.5 -95.5z
M1538 -18q-167 0 -268 121t-101 327t101 327.5t268 121.5q168 0 269.5 -121.5t101.5 -327.5t-101.5 -327t-269.5 -121zM2437 -18q-167 0 -268 121t-101 327t101 327.5t268 121.5q168 0 269.5 -121.5t101.5 -327.5t-101.5 -327t-269.5 -121zM1538 70q126 0 201.5 95t75.5 265
t-76 265.5t-201 95.5q-124 0 -199 -95.5t-75 -265.5t75 -265t199 -95zM2437 70q126 0 201.5 95t75.5 265t-76 265.5t-201 95.5q-124 0 -199 -95.5t-75 -265.5t75 -265t199 -95z" />
    <glyph glyph-name="guilsinglleft" unicode="&#x2039;" horiz-adv-x="579" 
d="M379 160l-324 372l324 373h119l-324 -373l324 -372h-119z" />
    <glyph glyph-name="guilsinglright" unicode="&#x203a;" horiz-adv-x="579" 
d="M524 532l-323 -372h-119l324 372l-324 373h119z" />
    <glyph glyph-name="fraction" unicode="&#x2044;" horiz-adv-x="190" 
d="M-342 0l776 1434h98l-776 -1434h-98z" />
    <glyph glyph-name="uni2070" unicode="&#x2070;" horiz-adv-x="899" 
d="M449 719q-167 0 -268 121t-101 327t101 327.5t268 121.5q168 0 269 -121.5t101 -327.5t-101 -327t-269 -121zM449 807q125 0 200.5 95t75.5 265t-75.5 265.5t-200.5 95.5q-124 0 -199.5 -95.5t-75.5 -265.5t75.5 -265t199.5 -95z" />
    <glyph glyph-name="uni2074" unicode="&#x2074;" horiz-adv-x="837" 
d="M543 737v219h-475v72l491 569h78v-553h115v-88h-115v-219h-94zM199 1044h344v396h-8l-336 -387v-9z" />
    <glyph glyph-name="uni2075" unicode="&#x2075;" horiz-adv-x="833" 
d="M420 719q-128 0 -218.5 66.5t-107.5 170.5h96q22 -73 82.5 -112t147.5 -39q110 0 173.5 62.5t63.5 154.5t-64.5 152.5t-172.5 60.5q-135 0 -215 -107h-96l61 469h532v-84h-452l-35 -268h8q88 76 213 76q139 0 227.5 -85.5t88.5 -213.5q0 -132 -93 -217.5t-239 -85.5z" />
    <glyph glyph-name="uni2076" unicode="&#x2076;" horiz-adv-x="821" 
d="M440 719q-92 0 -163 37.5t-113 102t-63 142.5t-21 166q0 63 10 122.5t35 120t63.5 105.5t100 73t139.5 28q118 0 200.5 -59t100.5 -166h-96q-18 68 -72.5 103.5t-132.5 35.5q-264 0 -258 -410h8q30 88 100 133t168 45q137 0 221.5 -79t84.5 -209q0 -132 -86.5 -211.5
t-225.5 -79.5zM440 805q98 0 157.5 52t59.5 153q0 99 -59.5 150.5t-157.5 51.5q-96 0 -154.5 -52.5t-58.5 -151.5t58.5 -151t154.5 -52z" />
    <glyph glyph-name="uni2077" unicode="&#x2077;" horiz-adv-x="690" 
d="M152 737l374 764v8h-485v88h608v-55l-393 -805h-104z" />
    <glyph glyph-name="uni2078" unicode="&#x2078;" horiz-adv-x="841" 
d="M420 719q-157 0 -250.5 63t-93.5 195q0 80 40.5 133.5t127.5 83.5v8q-133 51 -133 184q0 107 86.5 168.5t222.5 61.5q137 0 224 -61t87 -169q0 -132 -135 -184v-8q88 -30 128 -83t40 -134q0 -132 -93.5 -195t-250.5 -63zM635 1382q0 71 -57.5 109.5t-157.5 38.5
q-98 0 -155.5 -38.5t-57.5 -109.5q0 -69 58 -107t155 -38q99 0 157 38t58 107zM670 977q0 174 -250 174t-250 -174q0 -172 250 -172t250 172z" />
    <glyph glyph-name="uni2079" unicode="&#x2079;" horiz-adv-x="821" 
d="M381 1616q74 0 135 -25t102 -67.5t69 -100.5t41 -122t13 -134q0 -63 -10 -122.5t-35 -120t-63.5 -105t-100 -72.5t-139.5 -28q-118 0 -200.5 59t-100.5 166h96q18 -68 72.5 -103.5t132.5 -35.5q264 0 258 409h-8q-30 -88 -100 -133t-168 -45q-137 0 -221 79.5t-84 209.5
q0 132 86 211.5t225 79.5zM381 1530q-98 0 -157.5 -52t-59.5 -153q0 -99 59.5 -151t157.5 -52q96 0 154.5 53t58.5 152t-58.5 151t-154.5 52z" />
    <glyph glyph-name="uni2080" unicode="&#x2080;" horiz-adv-x="899" 
d="M449 -182q-167 0 -268 121t-101 327t101 327.5t268 121.5q168 0 269 -121.5t101 -327.5t-101 -327t-269 -121zM449 -94q125 0 200.5 95t75.5 265t-75.5 265.5t-200.5 95.5q-124 0 -199.5 -95.5t-75.5 -265.5t75.5 -265t199.5 -95z" />
    <glyph glyph-name="uni2081" unicode="&#x2081;" horiz-adv-x="536" 
d="M272 -164v742l-206 -99l-23 88l279 129h45v-860h-95z" />
    <glyph glyph-name="uni2082" unicode="&#x2082;" horiz-adv-x="794" 
d="M78 -164v62l420 403q64 61 87 103t23 83t-18.5 70.5t-49 43.5t-61 20t-63.5 6q-100 0 -165 -47.5t-75 -143.5h-98q6 73 36.5 128t78 87t104 48t119.5 16q121 0 203.5 -57t82.5 -171q0 -75 -38 -132t-123 -136l-301 -287v-8h462v-88h-624z" />
    <glyph glyph-name="uni2083" unicode="&#x2083;" horiz-adv-x="845" 
d="M442 -182q-70 0 -130.5 15t-110.5 45.5t-80 82.5t-33 121h96q4 -85 77.5 -131.5t180.5 -46.5q96 0 165 41.5t69 126.5q0 73 -57 120.5t-179 47.5h-127v86h121q219 0 219 153q0 46 -21 77.5t-56.5 46.5t-69 20.5t-72.5 5.5q-99 0 -165 -41.5t-76 -136.5h-97
q5 59 26.5 105.5t54 76t76 48.5t88 26.5t93.5 7.5q136 0 225 -58t89 -174q0 -132 -125 -186v-8q147 -60 147 -217q0 -123 -90.5 -188.5t-237.5 -65.5z" />
    <glyph glyph-name="uni2084" unicode="&#x2084;" horiz-adv-x="837" 
d="M543 -164v219h-475v72l491 569h78v-553h115v-88h-115v-219h-94zM199 143h344v396h-8l-336 -387v-9z" />
    <glyph glyph-name="uni2085" unicode="&#x2085;" horiz-adv-x="833" 
d="M420 -182q-128 0 -218.5 66.5t-107.5 170.5h96q22 -73 82.5 -112t147.5 -39q110 0 173.5 62.5t63.5 154.5t-64.5 152.5t-172.5 60.5q-135 0 -215 -107h-96l61 469h532v-84h-452l-35 -268h8q88 76 213 76q139 0 227.5 -85.5t88.5 -213.5q0 -132 -93 -217.5t-239 -85.5z
" />
    <glyph glyph-name="uni2086" unicode="&#x2086;" horiz-adv-x="821" 
d="M440 -182q-92 0 -163 37.5t-113 102t-63 142.5t-21 166q0 63 10 122.5t35 120t63.5 105.5t100 73t139.5 28q117 0 200 -59.5t101 -166.5h-96q-18 68 -72.5 104t-132.5 36q-264 0 -258 -410h8q30 88 100 133t168 45q137 0 221.5 -79t84.5 -209q0 -132 -86.5 -211.5
t-225.5 -79.5zM440 -96q98 0 157.5 52t59.5 153q0 99 -59.5 150.5t-157.5 51.5q-96 0 -154.5 -53t-58.5 -152t58.5 -150.5t154.5 -51.5z" />
    <glyph glyph-name="uni2087" unicode="&#x2087;" horiz-adv-x="690" 
d="M152 -164l374 764v8h-485v88h608v-55l-393 -805h-104z" />
    <glyph glyph-name="uni2088" unicode="&#x2088;" horiz-adv-x="841" 
d="M420 -182q-157 0 -250.5 63t-93.5 195q0 80 40.5 133.5t127.5 83.5v8q-133 51 -133 184q0 107 86.5 168.5t222.5 61.5q137 0 224 -61t87 -169q0 -132 -135 -184v-8q88 -30 128 -83t40 -134q0 -132 -93.5 -195t-250.5 -63zM635 481q0 71 -57.5 109.5t-157.5 38.5
q-98 0 -155.5 -38.5t-57.5 -109.5q0 -69 58 -107t155 -38q99 0 157 38t58 107zM670 76q0 174 -250 174t-250 -174q0 -172 250 -172t250 172z" />
    <glyph glyph-name="uni2089" unicode="&#x2089;" horiz-adv-x="821" 
d="M381 715q74 0 135 -25t102 -67.5t69 -100.5t41 -122t13 -134q0 -63 -10 -122.5t-35 -120t-63.5 -105t-100 -72.5t-139.5 -28q-118 0 -200.5 59t-100.5 166h96q18 -68 72.5 -103.5t132.5 -35.5q264 0 258 409h-8q-30 -88 -100 -133t-168 -45q-137 0 -221 79.5t-84 209.5
q0 132 86 211.5t225 79.5zM381 629q-98 0 -157.5 -52t-59.5 -153q0 -99 59.5 -151t157.5 -52q96 0 154.5 53t58.5 152t-58.5 151t-154.5 52z" />
    <glyph glyph-name="lira" unicode="&#x20a4;" horiz-adv-x="1437" 
d="M178 784h178q-55 143 -55 275q0 198 128 297.5t343 99.5q434 0 508 -416h-111q-16 74 -43.5 129t-73 98.5t-116 66t-164.5 22.5q-53 0 -99.5 -6.5t-97 -26.5t-86 -51.5t-58.5 -86t-23 -126.5q0 -115 61 -275h545v-100h-836v100zM178 436v101h836v-101h-525
q-31 -170 -159 -327v-9h950v-100h-1102v80q151 158 197 356h-197z" />
    <glyph glyph-name="Euro" unicode="&#x20ac;" horiz-adv-x="1482" 
d="M799 1456q421 0 512 -469h-113q-41 192 -139.5 280.5t-259.5 88.5q-364 0 -422 -465h520v-98h-815v98h184q15 127 53 228t101.5 177.5t159.5 118t219 41.5zM799 -23q-123 0 -219 41.5t-159.5 118.5t-101.5 178t-53 228h-184v98h815v-98h-520q58 -465 422 -465
q161 0 259.5 88t139.5 280h113q-91 -469 -512 -469z" />
    <glyph glyph-name="uni20B4" unicode="&#x20b4;" horiz-adv-x="1552" 
d="M170 907h868q105 82 105 209q0 240 -332 240q-173 0 -270 -66t-129 -211h-111q13 88 51 156t88 109t115.5 67t127 35.5t128.5 9.5t127 -9.5t118.5 -33t100.5 -59.5t68 -94t26 -132q0 -128 -82 -213v-8h213v-98h-1212v98zM772 -23q-245 0 -382.5 96.5t-137.5 264.5
q0 135 90 215v8h-172v98h1212v-98h-921q-101 -80 -101 -209q0 -64 24.5 -113t64 -79t95 -49t110.5 -26t118 -7q90 0 159 16t126 52.5t93.5 102t51.5 159.5h111q-50 -431 -541 -431z" />
    <glyph glyph-name="uni20B8" unicode="&#x20b8;" horiz-adv-x="1486" 
d="M164 1434h1159v-101h-1159v101zM690 0v1083h-526v101h1159v-101h-526v-1083h-107z" />
    <glyph glyph-name="uni20B9" unicode="&#x20b9;" horiz-adv-x="1374" 
d="M178 1434h1032v-101h-1032v101zM856 0l-395 645h-283v98h352q176 0 264.5 86.5t90.5 253.5h-707v101h1032v-101h-217q-1 -203 -110 -312.5t-297 -123.5l395 -647h-125z" />
    <glyph glyph-name="uni20BD" unicode="&#x20bd;" horiz-adv-x="1372" 
d="M780 608h-678v101h181v725h497q204 0 327.5 -111t123.5 -301q0 -192 -123 -303t-328 -111zM391 1333v-624h389q171 0 256.5 89t85.5 224q0 63 -20 118t-60 99t-107 69t-155 25h-389zM102 358v101h820v-101h-531v-358h-108v358h-181z" />
    <glyph glyph-name="uni20BF" unicode="&#x20bf;" horiz-adv-x="1441" 
d="M276 0v1434h201v204h98v-204h224h8l12 -2h8v206h101v-217q148 -30 229.5 -128.5t81.5 -227.5q0 -106 -55.5 -191t-153.5 -131v-8q120 -42 187 -138t67 -218q0 -147 -94 -247t-262 -124v-213h-101v207h-8l-12 -2h-8h-224v-205h-98v205h-201zM385 776h420q156 0 242 79.5
t86 201.5t-86 199t-242 77h-420v-557zM385 100h428q174 0 268.5 79t94.5 208t-96 209t-269 80h-426v-576z" />
    <glyph glyph-name="uni2103" unicode="&#x2103;" horiz-adv-x="2506" 
d="M1686 -23q-205 0 -368.5 97t-254 266t-90.5 377t90.5 376.5t254 265.5t368.5 97q246 0 423.5 -138t245.5 -362h-112q-66 183 -212.5 291.5t-344.5 108.5q-171 0 -310 -81.5t-218 -228t-79 -329.5t79 -329.5t218 -228t310 -81.5q198 0 344.5 108t212.5 291h112
q-68 -224 -245.5 -362t-423.5 -138zM406 756q-155 0 -257 98.5t-102 249.5q0 150 102 249t257 99t256.5 -99t101.5 -249q0 -151 -101.5 -249.5t-256.5 -98.5zM670 1104q0 112 -73.5 186t-190.5 74t-191 -74t-74 -186q0 -114 74 -188t191 -74t190.5 74t73.5 188z" />
    <glyph glyph-name="uni2109" unicode="&#x2109;" horiz-adv-x="2260" 
d="M406 756q-155 0 -257 98.5t-102 249.5q0 150 102 249t257 99t256.5 -99t101.5 -249q0 -151 -101.5 -249.5t-256.5 -98.5zM1176 676v-676h-109v1434h1057v-101h-948v-557h833v-100h-833zM670 1104q0 112 -73.5 186t-190.5 74t-191 -74t-74 -186q0 -114 74 -188t191 -74
t190.5 74t73.5 188z" />
    <glyph glyph-name="uni2116" unicode="&#x2116;" horiz-adv-x="2557" 
d="M2064 756q-155 0 -256.5 98.5t-101.5 249.5q0 150 101.5 249t256.5 99t257 -99t102 -249q0 -151 -102 -249.5t-257 -98.5zM1434 1434v-1434h-146l-915 1292h-8v-1292h-109v1434h147l914 -1293h8v1293h109zM2329 1104q0 112 -74 186t-191 74t-190.5 -74t-73.5 -186
q0 -114 73.5 -188t190.5 -74t191 74t74 188zM1741 518v88h647v-88h-647z" />
    <glyph glyph-name="trademark" unicode="&#x2122;" horiz-adv-x="1714" 
d="M-14 1352v82h630v-82h-270v-586h-88v586h-272zM1128 766l-264 537h-8v-537h-88v668h123l268 -545h8l269 545h123v-668h-89v537h-8l-264 -537h-70z" />
    <glyph glyph-name="uni2150" unicode="&#x2150;" horiz-adv-x="1486" 
d="M272 573v742l-206 -98l-23 88l279 129h45v-861h-95zM221 0l776 1434h99l-777 -1434h-98zM948 0l375 764v8h-485v88h608v-55l-393 -805h-105z" />
    <glyph glyph-name="uni2151" unicode="&#x2151;" horiz-adv-x="1595" 
d="M272 573v742l-206 -98l-23 88l279 129h45v-861h-95zM221 0l776 1434h99l-777 -1434h-98zM1155 879q92 0 163 -38t113 -102t63.5 -142.5t21.5 -166.5q0 -63 -10 -122.5t-35.5 -120t-64 -105t-100 -72.5t-139.5 -28q-118 0 -200.5 59t-100.5 166h97q18 -68 72 -103.5
t132 -35.5q264 0 258 409h-8q-30 -88 -100 -133t-168 -45q-137 0 -221 79.5t-84 209.5q0 132 86 211.5t225 79.5zM1155 793q-98 0 -157.5 -52t-59.5 -153q0 -99 59.5 -151t157.5 -52q96 0 154.5 53t58.5 152t-58.5 151t-154.5 52z" />
    <glyph glyph-name="uni2152" unicode="&#x2152;" horiz-adv-x="2230" 
d="M272 573v742l-206 -98l-23 88l279 129h45v-861h-95zM221 0l776 1434h99l-777 -1434h-98zM1782 -18q-167 0 -268 121t-101 327t101 327.5t268 121.5q168 0 269 -121.5t101 -327.5t-101 -327t-269 -121zM1069 0v741l-207 -98l-22 88l278 129h45v-860h-94zM1782 70
q125 0 200.5 95t75.5 265t-75.5 265.5t-200.5 95.5q-124 0 -199.5 -95.5t-75.5 -265.5t75.5 -265t199.5 -95z" />
    <glyph glyph-name="onethird" unicode="&#x2153;" horiz-adv-x="1607" 
d="M272 573v742l-206 -98l-23 88l279 129h45v-861h-95zM221 0l776 1434h99l-777 -1434h-98zM1204 -18q-70 0 -130.5 15t-110.5 45.5t-80 82.5t-33 121h96q4 -85 77.5 -131.5t180.5 -46.5q96 0 165 41.5t69 126.5q0 73 -57 120t-179 47h-127v86h121q219 0 219 154
q0 46 -21 77.5t-56.5 46.5t-69 20.5t-72.5 5.5q-99 0 -165.5 -42t-76.5 -137h-96q6 74 37 127.5t80 82.5t103.5 42t117.5 13q136 0 224.5 -58t88.5 -174q0 -132 -125 -186v-8q148 -61 148 -217q0 -123 -90.5 -188.5t-237.5 -65.5z" />
    <glyph glyph-name="twothirds" unicode="&#x2154;" horiz-adv-x="1886" 
d="M78 573v62l420 403q64 61 87 103t23 84q0 41 -18.5 70.5t-49 43.5t-60.5 19.5t-64 5.5q-100 0 -165 -47t-75 -143h-98q6 73 36.5 128t78.5 87t104 47.5t119 15.5q57 0 107 -13t91 -39.5t64.5 -71t23.5 -103.5q0 -75 -38.5 -132.5t-122.5 -136.5l-301 -286v-8h462v-89
h-624zM500 0l776 1434h98l-776 -1434h-98zM1483 -18q-95 0 -171 25.5t-128 86.5t-56 152h97q4 -85 77.5 -131.5t180.5 -46.5q96 0 164.5 41.5t68.5 126.5q0 73 -56.5 120t-178.5 47h-127v86h121q219 0 219 154q0 46 -21 77.5t-56.5 46.5t-69 20.5t-72.5 5.5
q-99 0 -165.5 -42t-76.5 -137h-96q6 74 37 127.5t80 82.5t103.5 42t117.5 13q136 0 224.5 -58t88.5 -174q0 -132 -125 -186v-8q147 -60 147 -217q0 -123 -90 -188.5t-237 -65.5z" />
    <glyph glyph-name="uni2155" unicode="&#x2155;" horiz-adv-x="1589" 
d="M272 573v742l-206 -98l-23 88l279 129h45v-861h-95zM221 0l776 1434h99l-777 -1434h-98zM1176 -18q-128 0 -218.5 66.5t-107.5 170.5h96q22 -73 82.5 -112t147.5 -39q110 0 173.5 62.5t63.5 154.5t-64.5 152.5t-172.5 60.5q-135 0 -215 -107h-97l62 469h532v-84h-452
l-35 -268h8q88 76 213 76q139 0 227 -85.5t88 -213.5q0 -132 -92.5 -217.5t-238.5 -85.5z" />
    <glyph glyph-name="uni2156" unicode="&#x2156;" horiz-adv-x="1867" 
d="M78 573v62l420 403q64 61 87 103t23 84q0 41 -18.5 70.5t-49 43.5t-60.5 19.5t-64 5.5q-100 0 -165 -47t-75 -143h-98q6 73 36.5 128t78.5 87t104 47.5t119 15.5q57 0 107 -13t91 -39.5t64.5 -71t23.5 -103.5q0 -75 -38.5 -132.5t-122.5 -136.5l-301 -286v-8h462v-89
h-624zM500 0l776 1434h98l-776 -1434h-98zM1454 -18q-128 0 -218.5 66.5t-107.5 170.5h97q22 -73 82 -112t147 -39q110 0 174 62.5t64 154.5t-65 152.5t-173 60.5q-135 0 -215 -107h-96l61 469h533v-84h-453l-35 -268h8q88 76 213 76q139 0 227.5 -85.5t88.5 -213.5
q0 -132 -93 -217.5t-239 -85.5z" />
    <glyph glyph-name="uni2157" unicode="&#x2157;" horiz-adv-x="1898" 
d="M442 555q-70 0 -130.5 15t-110.5 45.5t-80 82.5t-33 121h96q4 -85 77.5 -131.5t180.5 -46.5q96 0 165 41.5t69 126.5q0 73 -57 120.5t-179 47.5h-127v86h121q219 0 219 154q0 46 -21 77.5t-56.5 46t-69 20t-72.5 5.5q-99 0 -165 -41.5t-76 -136.5h-97q5 59 26.5 105.5
t54 76t76 48.5t88 26.5t93.5 7.5q137 0 225.5 -57.5t88.5 -173.5q0 -133 -125 -187v-8q147 -60 147 -217q0 -123 -90.5 -188.5t-237.5 -65.5zM532 0l777 1434h98l-776 -1434h-99zM1485 -18q-128 0 -218.5 66.5t-107.5 170.5h96q22 -73 82.5 -112t147.5 -39q110 0 173.5 62.5
t63.5 154.5t-64.5 152.5t-172.5 60.5q-135 0 -215 -107h-96l61 469h532v-84h-452l-35 -268h8q88 76 213 76q139 0 227.5 -85.5t88.5 -213.5q0 -132 -93 -217.5t-239 -85.5z" />
    <glyph glyph-name="uni2158" unicode="&#x2158;" horiz-adv-x="1890" 
d="M543 573v220h-475v71l491 570h78v-553h115v-88h-115v-220h-94zM524 0l776 1434h99l-776 -1434h-99zM199 881h344v395h-8l-336 -387v-8zM1477 -18q-128 0 -218.5 66.5t-107.5 170.5h96q22 -73 82.5 -112t147.5 -39q110 0 173.5 62.5t63.5 154.5t-64.5 152.5t-172.5 60.5
q-135 0 -215 -107h-97l62 469h532v-84h-452l-35 -268h8q88 76 213 76q139 0 227 -85.5t88 -213.5q0 -132 -92.5 -217.5t-238.5 -85.5z" />
    <glyph glyph-name="uni2159" unicode="&#x2159;" horiz-adv-x="1574" 
d="M272 573v742l-206 -98l-23 88l279 129h45v-861h-95zM221 0l776 1434h99l-777 -1434h-98zM1196 -18q-92 0 -163 37.5t-113 102t-63 142.5t-21 166q0 63 10 122.5t35 120t63.5 105.5t100 73t139.5 28q117 0 200 -59.5t101 -166.5h-96q-18 68 -72.5 104t-132.5 36
q-264 0 -258 -410h8q30 88 100 133t168 45q137 0 221 -79.5t84 -209.5q0 -132 -86 -211t-225 -79zM1196 68q98 0 157.5 52t59.5 152q0 99 -59.5 151t-157.5 52q-96 0 -154.5 -53t-58.5 -152t58.5 -150.5t154.5 -51.5z" />
    <glyph glyph-name="uni215A" unicode="&#x215a;" horiz-adv-x="1865" 
d="M420 555q-128 0 -218.5 67t-107.5 171h96q22 -73 82.5 -112.5t147.5 -39.5q110 0 173.5 62.5t63.5 154.5t-64.5 152.5t-172.5 60.5q-136 0 -215 -106h-96l61 469h532v-84h-452l-35 -269h8q88 76 213 76q139 0 227.5 -85.5t88.5 -213.5q0 -132 -93 -217.5t-239 -85.5z
M512 0l776 1434h98l-776 -1434h-98zM1487 -18q-92 0 -163 37.5t-113 101.5t-63.5 142.5t-21.5 166.5q0 63 10 122.5t35.5 120t64 105.5t100 73t139.5 28q117 0 200 -59.5t101 -166.5h-97q-18 68 -72 104t-132 36q-264 0 -258 -410h8q30 88 100 133t168 45q137 0 221 -79.5
t84 -209.5q0 -132 -86 -211t-225 -79zM1487 68q98 0 157.5 52t59.5 152q0 99 -59.5 151t-157.5 52q-96 0 -154.5 -53t-58.5 -152t58.5 -150.5t154.5 -51.5z" />
    <glyph glyph-name="oneeighth" unicode="&#x215b;" horiz-adv-x="1624" 
d="M272 573v742l-206 -98l-23 88l279 129h45v-861h-95zM221 0l776 1434h99l-777 -1434h-98zM1202 -18q-157 0 -250.5 63t-93.5 195q0 80 40.5 133.5t127.5 83.5v8q-133 51 -133 184q0 107 86.5 168.5t222.5 61.5q137 0 224 -61t87 -169q0 -132 -135 -184v-8q88 -30 128 -83
t40 -134q0 -132 -93.5 -195t-250.5 -63zM1417 645q0 71 -57.5 109.5t-157.5 38.5q-98 0 -155.5 -38.5t-57.5 -109.5q0 -69 58 -107t155 -38q99 0 157 38t58 107zM1452 240q0 174 -250 174t-250 -174q0 -172 250 -172t250 172z" />
    <glyph glyph-name="threeeighths" unicode="&#x215c;" horiz-adv-x="1933" 
d="M442 555q-70 0 -130.5 15t-110.5 45.5t-80 82.5t-33 121h96q4 -85 77.5 -131.5t180.5 -46.5q96 0 165 41.5t69 126.5q0 73 -57 120.5t-179 47.5h-127v86h121q219 0 219 154q0 46 -21 77.5t-56.5 46t-69 20t-72.5 5.5q-99 0 -165 -41.5t-76 -136.5h-97q5 59 26.5 105.5
t54 76t76 48.5t88 26.5t93.5 7.5q137 0 225.5 -57.5t88.5 -173.5q0 -133 -125 -187v-8q147 -60 147 -217q0 -123 -90.5 -188.5t-237.5 -65.5zM532 0l777 1434h98l-776 -1434h-99zM1511 -18q-157 0 -250.5 63t-93.5 195q0 80 40.5 133.5t127.5 83.5v8q-133 51 -133 184
q0 107 86.5 168.5t222.5 61.5q137 0 224.5 -61.5t87.5 -168.5q0 -132 -135 -184v-8q88 -30 127.5 -83t39.5 -134q0 -132 -93.5 -195t-250.5 -63zM1726 645q0 71 -57.5 109.5t-157.5 38.5q-98 0 -155.5 -38.5t-57.5 -109.5q0 -69 58 -107t155 -38q99 0 157 38t58 107z
M1761 240q0 174 -250 174q-249 0 -249 -174q0 -172 249 -172q250 0 250 172z" />
    <glyph glyph-name="fiveeighths" unicode="&#x215d;" horiz-adv-x="1914" 
d="M420 555q-128 0 -218.5 67t-107.5 171h96q22 -73 82.5 -112.5t147.5 -39.5q110 0 173.5 62.5t63.5 154.5t-64.5 152.5t-172.5 60.5q-136 0 -215 -106h-96l61 469h532v-84h-452l-35 -269h8q88 76 213 76q139 0 227.5 -85.5t88.5 -213.5q0 -132 -93 -217.5t-239 -85.5z
M512 0l776 1434h98l-776 -1434h-98zM1493 -18q-157 0 -250.5 63t-93.5 195q0 80 40.5 133.5t127.5 83.5v8q-133 51 -133 184q0 107 86.5 168.5t222.5 61.5q137 0 224 -61t87 -169q0 -132 -135 -184v-8q88 -30 128 -83t40 -134q0 -132 -93.5 -195t-250.5 -63zM1708 645
q0 71 -57.5 109.5t-157.5 38.5q-98 0 -155.5 -38.5t-57.5 -109.5q0 -69 58 -107t155 -38q99 0 157 38t58 107zM1743 240q0 174 -250 174t-250 -174q0 -172 250 -172t250 172z" />
    <glyph glyph-name="seveneighths" unicode="&#x215e;" horiz-adv-x="1669" 
d="M152 573l374 764v9h-485v88h608v-56l-393 -805h-104zM266 0l776 1434h99l-776 -1434h-99zM1247 -18q-157 0 -250.5 63t-93.5 195q0 80 40.5 133.5t127.5 83.5v8q-133 51 -133 184q0 107 86.5 168.5t222.5 61.5q137 0 224.5 -61.5t87.5 -168.5q0 -132 -136 -184v-8
q88 -30 128 -83t40 -134q0 -132 -93.5 -195t-250.5 -63zM1462 645q0 71 -57.5 109.5t-157.5 38.5q-98 0 -155.5 -38.5t-57.5 -109.5q0 -69 58 -107t155 -38q99 0 157 38t58 107zM1497 240q0 174 -250 174t-250 -174q0 -172 250 -172t250 172z" />
    <glyph glyph-name="uni215F" unicode="&#x215f;" horiz-adv-x="755" 
d="M272 573v742l-206 -98l-23 88l279 129h45v-861h-95zM221 0l776 1434h99l-777 -1434h-98z" />
    <glyph glyph-name="uni2189" unicode="&#x2189;" horiz-adv-x="1943" 
d="M449 555q-167 0 -268 121.5t-101 327.5t101 327t268 121q168 0 269 -121t101 -327t-101 -327.5t-269 -121.5zM557 0l776 1434h99l-777 -1434h-98zM449 643q125 0 200.5 95.5t75.5 265.5t-75.5 265t-200.5 95q-124 0 -199.5 -95t-75.5 -265t75.5 -265.5t199.5 -95.5z
M1538 -18q-70 0 -130.5 15t-110.5 45.5t-80 82.5t-33 121h96q4 -85 77.5 -131.5t180.5 -46.5q96 0 165 41.5t69 126.5q0 73 -57 120t-179 47h-127v86h121q219 0 219 154q0 46 -21 77.5t-56.5 46.5t-69 20.5t-72.5 5.5q-99 0 -165.5 -42t-76.5 -137h-96q6 74 37 127.5
t80 82.5t103.5 42t117.5 13q136 0 224.5 -58t88.5 -174q0 -132 -125 -186v-8q148 -61 148 -217q0 -123 -90.5 -188.5t-237.5 -65.5z" />
    <glyph glyph-name="arrowleft" unicode="&#x2190;" horiz-adv-x="1693" 
d="M1544 459h-1278v-8l396 -451h-130l-444 510l444 508h130l-396 -451v-8h1278v-100z" />
    <glyph glyph-name="arrowup" unicode="&#x2191;" horiz-adv-x="1140" 
d="M520 0v1278h-8l-451 -395v129l510 444l508 -444v-129l-450 395h-8v-1278h-101z" />
    <glyph glyph-name="arrowright" unicode="&#x2192;" horiz-adv-x="1693" 
d="M1427 459h-1277v100h1277v8l-395 451h129l445 -508l-445 -510h-129l395 451v8z" />
    <glyph glyph-name="arrowdown" unicode="&#x2193;" horiz-adv-x="1140" 
d="M520 156v1278h101v-1278h8l450 395v-129l-508 -445l-510 445v129l451 -395h8z" />
    <glyph glyph-name="arrowboth" unicode="&#x2194;" horiz-adv-x="2064" 
d="M662 0h-130l-444 510l444 508h130l-396 -451v-8h1532v8l-395 451h129l444 -508l-444 -510h-129l395 451v8h-1532v-8z" />
    <glyph glyph-name="arrowupdn" unicode="&#x2195;" horiz-adv-x="1251" 
d="M117 12v129l450 -395h8v1532h-8l-450 -395v129l508 444l510 -444v-129l-451 395h-8v-1532h8l451 395v-129l-510 -444z" />
    <glyph glyph-name="uni2196" unicode="&#x2196;" horiz-adv-x="1748" 
d="M1544 -23l-1292 1293l-4 -4v-625l-90 92v701h700l90 -93h-622l-4 -4l1290 -1290z" />
    <glyph glyph-name="uni2197" unicode="&#x2197;" horiz-adv-x="1748" 
d="M1497 1270l-1292 -1293l-68 70l1290 1290l-4 4h-622l90 93h700v-701l-90 -92v625z" />
    <glyph glyph-name="uni2198" unicode="&#x2198;" horiz-adv-x="1748" 
d="M205 1456l1292 -1292l4 4v625l90 -93v-700h-700l-90 92h622l4 4l-1290 1290z" />
    <glyph glyph-name="uni2199" unicode="&#x2199;" horiz-adv-x="1748" 
d="M252 164l1292 1292l68 -70l-1290 -1290l4 -4h622l-90 -92h-700v700l90 93v-625z" />
    <glyph glyph-name="uni21E4" unicode="&#x21e4;" horiz-adv-x="1794" 
d="M305 0h-94v1018h94v-1018zM1645 459h-1088v-8l395 -451h-129l-442 508l442 510h129l-395 -451v-8h1088v-100z" />
    <glyph glyph-name="uni21E5" unicode="&#x21e5;" horiz-adv-x="1794" 
d="M1489 1018h94v-1018h-94v1018zM150 559h1087v8l-395 451h129l442 -508l-442 -510h-129l395 451v8h-1087v100z" />
    <glyph glyph-name="minus" unicode="&#x2212;" horiz-adv-x="1214" 
d="M96 567v95h1024v-95h-1024z" />
    <glyph glyph-name="approxequal" unicode="&#x2248;" horiz-adv-x="1243" 
d="M383 897q70 0 139 -27t115.5 -59t108 -59t118.5 -27q75 0 117 39.5t47 97.5h86q-8 -107 -75 -169t-179 -62q-70 0 -139 27t-115.5 59t-108 59t-118.5 27q-75 0 -116 -39t-48 -98h-86q8 107 75 169t179 62zM383 598q70 0 139 -27t115.5 -59t108 -59t118.5 -27
q75 0 117 39.5t47 97.5h86q-8 -107 -75 -169t-179 -62q-70 0 -139 27t-115.5 59t-108 59t-118.5 27q-75 0 -116 -39t-48 -98h-86q8 107 75 169t179 62z" />
    <glyph glyph-name="notequal" unicode="&#x2260;" horiz-adv-x="1255" 
d="M117 834h606l213 284h115l-213 -284h303v-95h-369l-172 -231h541v-92h-606l-213 -289h-115l213 289h-303v92h368l172 231h-540v95z" />
    <glyph glyph-name="lessequal" unicode="&#x2264;" horiz-adv-x="1218" 
d="M117 596v78l966 348v-98l-794 -285v-8l794 -285v-98zM115 0v92h966v-92h-966z" />
    <glyph glyph-name="greaterequal" unicode="&#x2265;" horiz-adv-x="1218" 
d="M1102 674v-78l-967 -348v98l795 285v8l-795 285v98zM1104 92v-92h-967v92h967z" />
    <glyph glyph-name="circle" unicode="&#x25cb;" horiz-adv-x="2111" 
d="M1055 -166q-250 0 -453.5 111t-321.5 313.5t-118 458.5t118 458.5t321.5 313t453.5 110.5t454 -110.5t322.5 -313t118.5 -458.5q0 -192 -69.5 -357.5t-189 -280.5t-284.5 -180t-352 -65zM1055 -78q170 0 318.5 60t253.5 164.5t165.5 252.5t60.5 318q0 227 -103 409
t-285 283.5t-410 101.5q-170 0 -318 -59.5t-254 -164t-166.5 -252.5t-60.5 -318q0 -227 103.5 -409t286 -284t409.5 -102z" />
    <glyph glyph-name="uni25CF" unicode="&#x25cf;" horiz-adv-x="2111" 
d="M1055 -166q-250 0 -453.5 111t-321.5 313.5t-118 458.5t118 458.5t321.5 313t453.5 110.5t454 -110.5t322.5 -313t118.5 -458.5q0 -192 -69.5 -357.5t-189 -280.5t-284.5 -180t-352 -65z" />
    <glyph glyph-name="uni262E" unicode="&#x262e;" horiz-adv-x="1824" 
d="M911 -23q-211 0 -380.5 90t-269 259.5t-99.5 390.5q0 220 99.5 390t269 259.5t380.5 89.5q158 0 295.5 -52.5t238.5 -147t159.5 -234t58.5 -305.5q0 -220 -100 -390t-270.5 -260t-381.5 -90zM373 324l491 471v571q-268 -15 -438 -192t-170 -457q0 -225 117 -393z
M961 1366v-573l489 -469q117 164 117 393q0 140 -45.5 258.5t-126 201.5t-192 132.5t-242.5 56.5zM864 68v604l-434 -416q167 -173 434 -188zM1393 254l-432 416v-602q264 15 432 186z" />
    <glyph glyph-name="uni2639" unicode="&#x2639;" horiz-adv-x="2111" 
d="M1055 -166q-250 0 -453.5 111t-321.5 313.5t-118 458.5t118 458.5t321.5 313t453.5 110.5t454 -110.5t322.5 -313t118.5 -458.5q0 -192 -69.5 -357.5t-189 -280.5t-284.5 -180t-352 -65zM1055 -78q170 0 318.5 60t253.5 164.5t165.5 252.5t60.5 318q0 227 -103 409
t-285 283.5t-410 101.5q-170 0 -318 -59.5t-254 -164t-166.5 -252.5t-60.5 -318q0 -227 103.5 -409t286 -284t409.5 -102zM1335 901q-37 0 -59.5 22.5t-22.5 59.5q0 35 22.5 57.5t59.5 22.5q35 0 58.5 -22.5t23.5 -57.5q0 -36 -23 -59t-59 -23zM778 901q-37 0 -59.5 22.5
t-22.5 59.5q0 35 22.5 57.5t59.5 22.5q35 0 58.5 -22.5t23.5 -57.5q0 -36 -23 -59t-59 -23zM1548 322h-94q-10 44 -27.5 85t-50 84.5t-75 75t-106.5 52t-140 20.5q-77 0 -140.5 -20.5t-106 -52t-75 -75t-50 -84.5t-26.5 -85h-96q15 80 51.5 150t95 128.5t148 92.5t199.5 34
q111 0 200.5 -34t147.5 -92.5t94 -128t51 -150.5z" />
    <glyph glyph-name="smileface" unicode="&#x263a;" horiz-adv-x="2111" 
d="M1055 -166q-250 0 -453.5 111t-321.5 313.5t-118 458.5t118 458.5t321.5 313t453.5 110.5t454 -110.5t322.5 -313t118.5 -458.5q0 -192 -69.5 -357.5t-189 -280.5t-284.5 -180t-352 -65zM1055 -78q170 0 318.5 60t253.5 164.5t165.5 252.5t60.5 318q0 227 -103 409
t-285 283.5t-410 101.5q-170 0 -318 -59.5t-254 -164t-166.5 -252.5t-60.5 -318q0 -227 103.5 -409t286 -284t409.5 -102zM1335 901q-37 0 -59.5 22.5t-22.5 59.5q0 35 22.5 57.5t59.5 22.5q35 0 58.5 -22.5t23.5 -57.5q0 -36 -23 -59t-59 -23zM778 901q-37 0 -59.5 22.5
t-22.5 59.5q0 35 22.5 57.5t59.5 22.5q35 0 58.5 -22.5t23.5 -57.5q0 -36 -23 -59t-59 -23zM1454 643h94q-15 -81 -51 -151t-94 -128.5t-147.5 -92t-200.5 -33.5q-110 0 -199.5 33.5t-148 92t-95 128.5t-51.5 151h96q9 -44 26.5 -85t50 -84.5t75 -75t106 -52t140.5 -20.5
q76 0 140 20.5t106.5 52t75 75t50 84.5t27.5 85z" />
    <glyph glyph-name="invsmileface" unicode="&#x263b;" horiz-adv-x="2111" 
d="M1055 -166q-250 0 -453.5 111t-321.5 313.5t-118 458.5t118 458.5t321.5 313t453.5 110.5t454 -110.5t322.5 -313t118.5 -458.5q0 -192 -69.5 -357.5t-189 -280.5t-284.5 -180t-352 -65zM1333 903q37 0 59.5 22.5t22.5 57.5t-22.5 57.5t-59.5 22.5q-35 0 -58.5 -22.5
t-23.5 -57.5t23.5 -57.5t58.5 -22.5zM776 903q37 0 59.5 22.5t22.5 57.5t-22.5 57.5t-59.5 22.5q-35 0 -58.5 -22.5t-23.5 -57.5t23.5 -57.5t58.5 -22.5zM657 643h-96q15 -81 51.5 -151t95 -128.5t148 -92t199.5 -33.5q111 0 200.5 33.5t147.5 92t94 128.5t51 151h-94
q-10 -44 -27.5 -85t-50 -84.5t-75 -75t-106.5 -52t-140 -20.5q-77 0 -140.5 20.5t-106 52t-75 75t-50 84.5t-26.5 85z" />
    <glyph glyph-name="uni2661" unicode="&#x2661;" horiz-adv-x="1974" 
d="M1565 508l-578 -531l-577 531q-64 58 -108 107t-84.5 111t-60.5 132t-20 148q0 200 127.5 324t323.5 124q131 0 232 -55.5t167 -138.5q66 83 167 138.5t232 55.5q196 0 323.5 -124t127.5 -324q0 -149 -69.5 -263t-202.5 -235zM485 578l502 -461l502 461
q115 104 178.5 204t63.5 224q0 145 -90.5 246.5t-254.5 101.5q-233 0 -399 -242q-166 242 -399 242q-164 0 -254 -101.5t-90 -246.5q0 -66 18.5 -126t54.5 -113.5t75 -96.5t93 -92z" />
    <glyph glyph-name="heart" unicode="&#x2665;" horiz-adv-x="1910" 
d="M1534 508l-578 -537l-577 537q-242 221 -242 487q0 204 130 335.5t325 131.5q100 0 195 -37t169 -104q74 67 169.5 104t195.5 37q195 0 325 -131.5t130 -335.5q0 -266 -242 -487z" />
    <glyph glyph-name="uni2713" unicode="&#x2713;" horiz-adv-x="1290" 
d="M430 0l-379 618h127l283 -464h8l647 1280h119l-725 -1434h-80z" />
    </font>
</defs>
</svg>
