<?xml version="1.0" standalone="no"?>
<!DOCTYPE svg PUBLIC "-//W3C//DTD SVG 1.1//EN" "http://www.w3.org/Graphics/SVG/1.1/DTD/svg11.dtd" >
<svg xmlns="http://www.w3.org/2000/svg" xmlns:xlink="http://www.w3.org/1999/xlink" version="1.1">
<metadata>
Created by FontForge 20190801 at Wed Aug  3 17:24:06 2022
 By root
(c) Igor Stepanchenko, 2022
</metadata>
<defs>
<font id="Steppe-Black" horiz-adv-x="1269" >
  <font-face 
    font-family="Steppe Black"
    font-weight="900"
    font-stretch="normal"
    units-per-em="2048"
    panose-1="2 0 0 0 0 0 0 0 0 0"
    ascent="1638"
    descent="-410"
    x-height="1040"
    cap-height="1434"
    bbox="-410 -696 4710 1974"
    underline-thickness="245"
    underline-position="-572"
    unicode-range="U+000D-1F6D2"
  />
<missing-glyph horiz-adv-x="1982" 
d="M991 -172q-264 0 -468.5 108.5t-318.5 311t-114 469.5t114 469.5t318.5 311t468.5 108.5t468.5 -108.5t318.5 -311t114 -469.5t-114 -469.5t-318.5 -311t-468.5 -108.5zM991 45q309 0 488.5 181.5t179.5 490.5t-179.5 490.5t-488.5 181.5t-488 -181.5t-179 -490.5
t179 -490.5t488 -181.5zM1253 778q-84 0 -134 44t-50 120t50 120t134 44t134.5 -44t50.5 -120t-50.5 -120t-134.5 -44zM729 778q-84 0 -134 44t-50 120t50 120t134 44t134 -44t50 -120t-50 -120t-134 -44zM1438 328h-238q-16 82 -72 120.5t-135 38.5t-136 -38.5t-73 -120.5
h-237q26 185 144.5 281t301.5 96q181 0 300 -96t145 -281z" />
    <glyph glyph-name="f_f" unicode="ff" horiz-adv-x="2170" 
d="M61 733v307h218v37q0 175 90.5 266t265.5 91h450v-291h-397q-40 0 -57 -17t-17 -57v-29h689v37q0 175 90.5 266t265.5 91h450v-291h-397q-40 0 -57 -17t-17 -57v-29h471v-307h-471v-733h-335v733h-689v-733h-335v733h-218z" />
    <glyph glyph-name="fi" unicode="fi" horiz-adv-x="1724" 
d="M1421 1126q-88 0 -142 44.5t-54 119.5t54 119.5t142 44.5t142.5 -44.5t54.5 -119.5t-54.5 -119.5t-142.5 -44.5zM61 733v307h218v37q0 175 90.5 266t265.5 91h450v-291h-397q-40 0 -57 -17t-17 -57v-29h975v-1040h-336v733h-639v-733h-335v733h-218z" />
    <glyph glyph-name="f_f_i" unicode="ffi" horiz-adv-x="2748" 
d="M2445 1126q-88 0 -142 44.5t-54 119.5t54 119.5t142 44.5t142.5 -44.5t54.5 -119.5t-54.5 -119.5t-142.5 -44.5zM61 733v307h218v37q0 175 90.5 266t265.5 91h450v-291h-397q-40 0 -57 -17t-17 -57v-29h689v37q0 175 90.5 266t265.5 91h450v-291h-397q-40 0 -57 -17
t-17 -57v-29h975v-1040h-336v733h-639v-733h-335v733h-689v-733h-335v733h-218z" />
    <glyph glyph-name="f_f_t" unicode="fft" horiz-adv-x="3211" 
d="M61 733v307h218v37q0 175 90.5 266t265.5 91h450v-291h-397q-40 0 -57 -17t-17 -57v-29h689v37q0 175 90.5 266t265.5 91h450v-291h-397q-40 0 -57 -17t-17 -57v-29h689v312h335v-312h471v-307h-471v-352q0 -40 17 -57t57 -17h397v-307h-450q-175 0 -265.5 90.5
t-90.5 265.5v377h-689v-733h-335v733h-689v-733h-335v733h-218z" />
    <glyph glyph-name="f_t" unicode="ft" horiz-adv-x="2187" 
d="M61 733v307h218v37q0 175 90.5 266t265.5 91h450v-291h-397q-40 0 -57 -17t-17 -57v-29h689v312h335v-312h471v-307h-471v-352q0 -40 17 -57t57 -17h397v-307h-450q-175 0 -265.5 90.5t-90.5 265.5v377h-689v-733h-335v733h-218z" />
    <glyph glyph-name=".notdef" horiz-adv-x="1982" 
d="M991 -172q-264 0 -468.5 108.5t-318.5 311t-114 469.5t114 469.5t318.5 311t468.5 108.5t468.5 -108.5t318.5 -311t114 -469.5t-114 -469.5t-318.5 -311t-468.5 -108.5zM991 45q309 0 488.5 181.5t179.5 490.5t-179.5 490.5t-488.5 181.5t-488 -181.5t-179 -490.5
t179 -490.5t488 -181.5zM1253 778q-84 0 -134 44t-50 120t50 120t134 44t134.5 -44t50.5 -120t-50.5 -120t-134.5 -44zM729 778q-84 0 -134 44t-50 120t50 120t134 44t134 -44t50 -120t-50 -120t-134 -44zM1438 328h-238q-16 82 -72 120.5t-135 38.5t-136 -38.5t-73 -120.5
h-237q26 185 144.5 281t301.5 96q181 0 300 -96t145 -281z" />
    <glyph glyph-name="uni0000" horiz-adv-x="0" 
 />
    <glyph glyph-name="uni000D" unicode="&#xd;" horiz-adv-x="512" 
 />
    <glyph glyph-name="space" unicode=" " horiz-adv-x="450" 
 />
    <glyph glyph-name="exclam" unicode="!" horiz-adv-x="524" 
d="M436 1434l-10 -983h-328l-10 983h348zM262 -20q-93 0 -147 50.5t-54 141.5t54 142t147 51t147 -51t54 -142t-54 -141.5t-147 -50.5z" />
    <glyph glyph-name="quotedbl" unicode="&#x22;" horiz-adv-x="1024" 
d="M451 1434l-11 -512h-327l-11 512h349zM922 1434l-11 -512h-327l-11 512h349z" />
    <glyph glyph-name="numbersign" unicode="#" horiz-adv-x="1540" 
d="M29 299l57 287h213l59 291h-211l58 286h211l55 271h324l-56 -271h238l55 271h324l-56 -271h211l-57 -286h-211l-59 -291h209l-58 -287h-209l-61 -299h-324l62 299h-238l-61 -299h-324l62 299h-213zM623 586h237l60 291h-238z" />
    <glyph glyph-name="dollar" unicode="$" horiz-adv-x="1351" 
d="M483 1450v209h348v-213q365 -74 402 -459h-373q-7 48 -29.5 82.5t-54.5 52.5t-64.5 25.5t-68.5 7.5q-77 0 -128.5 -32t-51.5 -95q0 -42 27.5 -70.5t74.5 -44t107.5 -27t127.5 -24t133.5 -29.5t127 -49.5t107.5 -78.5t74.5 -121.5t27.5 -173.5q0 -391 -439 -433v-202h-348
v217q-87 18 -155.5 53t-125 92.5t-92.5 144.5t-49 201h373q18 -107 94 -155.5t185 -48.5q35 0 66.5 5t63.5 18.5t51 41t19 66.5q0 46 -27.5 76t-74.5 46t-107.5 27t-127.5 22t-133.5 27t-127 47t-107.5 76.5t-74.5 121t-27.5 175.5q0 85 22 153.5t57.5 113t86.5 77.5
t101.5 50.5t109.5 27.5z" />
    <glyph glyph-name="percent" unicode="%" horiz-adv-x="2199" 
d="M479 549q-183 0 -298 122t-115 333t115 332.5t298 121.5t298.5 -121.5t115.5 -332.5t-115.5 -333t-298.5 -122zM549 0l840 1434h262l-840 -1434h-262zM479 807q72 0 110 51.5t38 145.5t-37.5 145t-110.5 51q-72 0 -109.5 -51t-37.5 -145t37.5 -145.5t109.5 -51.5z
M1720 -25q-183 0 -298 122t-115 333t115 333t298 122t298.5 -122t115.5 -333t-115.5 -333t-298.5 -122zM1720 233q72 0 110 51.5t38 145.5t-38 145.5t-110 51.5t-109.5 -51.5t-37.5 -145.5t37.5 -145.5t109.5 -51.5z" />
    <glyph glyph-name="ampersand" unicode="&#x26;" horiz-adv-x="1601" 
d="M557 -29q-70 0 -136.5 12.5t-133 43t-116 76.5t-80 118.5t-30.5 163.5q0 80 22.5 146t65.5 114.5t92 83.5t113 66q-76 73 -108.5 137.5t-32.5 140.5q0 122 69.5 212.5t176.5 133.5t233 43t233 -43t176.5 -133.5t69.5 -212.5q0 -72 -24 -131.5t-70.5 -103.5t-97 -75
t-119.5 -61l197 -180l274 215l172 -217l-241 -188l28 -25q28 -28 70 -28h180v-279h-197q-124 0 -204 74l-97 88l-38 -31q-207 -160 -447 -160zM643 905q100 37 150.5 74.5t50.5 93.5q0 48 -39.5 79.5t-112.5 31.5t-112 -31.5t-39 -79.5q0 -74 102 -168zM838 352l-260 240
q-91 -41 -140 -89.5t-49 -117.5q0 -60 40.5 -97.5t127.5 -37.5q140 0 281 102z" />
    <glyph glyph-name="quotesingle" unicode="'" horiz-adv-x="552" 
d="M451 1434l-11 -512h-327l-11 512h349z" />
    <glyph glyph-name="parenleft" unicode="(" horiz-adv-x="663" 
d="M291 -328q-209 412 -209 881t209 881h348q-221 -410 -221 -881t221 -881h-348z" />
    <glyph glyph-name="parenright" unicode=")" horiz-adv-x="663" 
d="M373 -328h-348q221 410 221 881t-221 881h348q209 -412 209 -881t-209 -881z" />
    <glyph glyph-name="asterisk" unicode="*" horiz-adv-x="983" 
d="M348 618l-205 132l144 208v9l-226 77l78 226l221 -78h9l-9 242h263l-9 -242h9l221 78l78 -226l-226 -77v-9l144 -208l-205 -132l-139 205h-9z" />
    <glyph glyph-name="plus" unicode="+" horiz-adv-x="1146" 
d="M61 461v307h359v358h307v-358h358v-307h-358v-359h-307v359h-359z" />
    <glyph glyph-name="comma" unicode="," horiz-adv-x="565" 
d="M152 -266l79 250q-71 12 -110 61t-39 127q0 91 54 142t147 51q95 0 147.5 -55.5t52.5 -166.5q0 -81 -32 -180l-74 -229h-225z" />
    <glyph glyph-name="hyphen" unicode="-" horiz-adv-x="880" 
d="M82 410v315h717v-315h-717z" />
    <glyph glyph-name="period" unicode="." horiz-adv-x="565" 
d="M283 -20q-93 0 -147 50.5t-54 141.5t54 142t147 51t146.5 -51t53.5 -142t-53.5 -141.5t-146.5 -50.5z" />
    <glyph glyph-name="slash" unicode="/" horiz-adv-x="831" 
d="M0 -410l512 1844h319l-512 -1844h-319z" />
    <glyph glyph-name="zero" unicode="0" horiz-adv-x="1458" 
d="M729 -29q-277 0 -447.5 201.5t-170.5 544.5t170.5 544t447.5 201t448 -201t171 -544t-171 -544.5t-448 -201.5zM729 299q119 0 190.5 111t71.5 307t-71.5 307t-190.5 111t-190.5 -111t-71.5 -307t71.5 -307t190.5 -111z" />
    <glyph glyph-name="one" unicode="1" horiz-adv-x="933" 
d="M414 0v995l-250 -135l-144 295l517 279h233v-1434h-356z" />
    <glyph glyph-name="two" unicode="2" horiz-adv-x="1265" 
d="M82 0v287l627 544q110 98 110 189q0 70 -51.5 102.5t-120.5 32.5q-36 0 -68 -9t-62.5 -29.5t-50.5 -60t-24 -93.5h-360q5 113 41.5 202t92 144t130 90.5t148 49t153.5 13.5q112 0 207 -27.5t167.5 -81t113.5 -139t41 -194.5q0 -223 -193 -389l-336 -295v-8h529v-328
h-1094z" />
    <glyph glyph-name="three" unicode="3" horiz-adv-x="1302" 
d="M651 -29q-97 0 -180 16.5t-155.5 52.5t-125 91t-84 136.5t-36.5 183.5h352q6 -82 67.5 -127t161.5 -45q41 0 77.5 7.5t69 24.5t51.5 47.5t19 71.5q0 69 -55.5 110.5t-169.5 41.5h-160v307h160q197 0 197 127q0 38 -17 66t-46.5 43.5t-62.5 22.5t-71 7q-91 0 -147 -39.5
t-62 -111.5h-352q7 121 52 211t121.5 143t172.5 78.5t215 25.5q160 0 283 -44t196.5 -136t73.5 -221q0 -114 -51.5 -193.5t-140.5 -117.5v-9q217 -106 217 -348q0 -107 -45 -189.5t-124 -132.5t-180 -75t-221 -25z" />
    <glyph glyph-name="four" unicode="4" horiz-adv-x="1392" 
d="M770 0v299h-688v225l598 910h446v-828h185v-307h-185v-299h-356zM483 606h287v430h-8l-279 -422v-8z" />
    <glyph glyph-name="five" unicode="5" horiz-adv-x="1323" 
d="M668 -29q-154 0 -280 51.5t-206 150t-92 228.5h361q23 -54 79 -88t138 -34q99 0 164 55t65 133t-63 133t-162 55q-123 0 -205 -94h-356l114 873h938v-308h-643l-28 -221h8q110 58 245 58q136 0 251 -59t186 -173.5t71 -263.5q0 -226 -164 -361t-421 -135z" />
    <glyph glyph-name="six" unicode="6" horiz-adv-x="1380" 
d="M717 -29q-132 0 -237 41.5t-173 111t-113 166.5t-64 202.5t-19 224.5q0 115 17.5 218t61.5 201.5t111.5 169t174 113.5t241.5 43q236 0 376.5 -118t176.5 -312h-361q-20 53 -70 88t-122 35q-100 0 -164 -73.5t-70 -229.5h9q116 86 299 86q134 0 249 -58t186.5 -169
t71.5 -252q0 -217 -162.5 -352.5t-418.5 -135.5zM717 279q95 0 160 47.5t65 132.5t-65 132.5t-160 47.5t-160 -47.5t-65 -132.5t65 -132.5t160 -47.5z" />
    <glyph glyph-name="seven" unicode="7" horiz-adv-x="1163" 
d="M193 0l512 1090v8h-664v336h1081v-267l-549 -1167h-380z" />
    <glyph glyph-name="eight" unicode="8" horiz-adv-x="1400" 
d="M700 -29q-102 0 -192 14.5t-169 47t-135.5 81.5t-89 121t-32.5 162q0 262 270 344v9q-106 39 -163.5 122t-57.5 189q0 97 46.5 174.5t126 126t181 74.5t215.5 26q154 0 280.5 -43.5t208 -136.5t81.5 -221q0 -106 -57.5 -189t-163.5 -122v-9q270 -82 270 -344
q0 -111 -49.5 -195.5t-136.5 -133.5t-195.5 -73t-237.5 -24zM483 1024q0 -60 62.5 -95.5t154.5 -35.5t155 35.5t63 95.5t-63 95.5t-155 35.5t-154.5 -35.5t-62.5 -95.5zM438 434q0 -81 71 -118t191 -37t191.5 37t71.5 118t-71.5 118.5t-191.5 37.5q-119 0 -190.5 -37.5
t-71.5 -118.5z" />
    <glyph glyph-name="nine" unicode="9" horiz-adv-x="1380" 
d="M664 1462q132 0 237 -41.5t173 -111t113 -166.5t64 -202t19 -224q0 -115 -17.5 -218t-61.5 -201.5t-111.5 -169.5t-174 -114t-241.5 -43q-236 0 -376.5 118t-176.5 312h360q20 -53 70 -87.5t123 -34.5q100 0 163.5 73t69.5 230h-8q-116 -86 -299 -86q-134 0 -249 58
t-187 169t-72 252q0 217 163 352t419 135zM664 1155q-95 0 -160.5 -47.5t-65.5 -132.5t65.5 -132.5t160.5 -47.5t160 47.5t65 132.5t-65 132.5t-160 47.5z" />
    <glyph glyph-name="colon" unicode=":" horiz-adv-x="565" 
d="M283 676q-93 0 -147 50.5t-54 141.5t54 142t147 51t146.5 -51t53.5 -142t-53.5 -141.5t-146.5 -50.5zM283 -20q-93 0 -147 50.5t-54 141.5t54 142t147 51t146.5 -51t53.5 -142t-53.5 -141.5t-146.5 -50.5z" />
    <glyph glyph-name="semicolon" unicode=";" horiz-adv-x="585" 
d="M283 676q-93 0 -147 50.5t-54 141.5t54 142t147 51t146.5 -51t53.5 -142t-53.5 -141.5t-146.5 -50.5zM172 -266l80 250q-71 12 -110.5 61t-39.5 127q0 91 54 142t147 51q95 0 148 -55.5t53 -166.5q0 -78 -33 -180l-74 -229h-225z" />
    <glyph glyph-name="less" unicode="&#x3c;" horiz-adv-x="1110" 
d="M61 479v271l967 352v-324l-512 -160v-8l512 -159v-324z" />
    <glyph glyph-name="equal" unicode="=" horiz-adv-x="1187" 
d="M82 963h1024v-287h-1024v287zM82 225v287h1024v-287h-1024z" />
    <glyph glyph-name="greater" unicode="&#x3e;" horiz-adv-x="1110" 
d="M1049 750v-271l-967 -352v324l512 159v8l-512 160v324z" />
    <glyph glyph-name="question" unicode="?" horiz-adv-x="1179" 
d="M393 451q0 73 16.5 133.5t44 100t62.5 73.5t71.5 56.5t71.5 46.5t62.5 45t44 51.5t16.5 66.5q0 68 -50.5 99.5t-121.5 31.5q-80 0 -140.5 -41t-68.5 -131h-360q5 108 41.5 192.5t92 137.5t130.5 87.5t149.5 48t155.5 13.5q114 0 209 -27.5t167 -80.5t112.5 -137.5
t40.5 -192.5q0 -77 -21.5 -139t-56 -102t-76 -73t-82.5 -59.5t-75.5 -53.5t-56 -64t-21.5 -82h-357zM582 -20q-93 0 -147 50.5t-54 141.5t54 142t147 51t146.5 -51t53.5 -142t-53.5 -141.5t-146.5 -50.5z" />
    <glyph glyph-name="at" unicode="@" horiz-adv-x="1990" 
d="M930 57q-185 0 -299.5 127t-114.5 328t100.5 328t264.5 127q142 0 249 -99h9v74h266v-450q0 -76 30 -126.5t76 -50.5q56 0 102 77t46 194q0 153 -86 277t-238 193.5t-340 69.5q-191 0 -340.5 -72.5t-236 -213t-86.5 -328.5t86.5 -328.5t236 -213t340.5 -72.5h410v-258
h-410q-271 0 -484 110.5t-331.5 309.5t-118.5 452t118.5 452t331.5 309.5t484 110.5q201 0 376.5 -63.5t297 -171t191 -254t69.5 -309.5q0 -236 -120.5 -382.5t-305.5 -146.5q-170 0 -276 127h-8q-46 -58 -120.5 -92.5t-168.5 -34.5zM963 315q90 0 135 52.5t45 144.5
t-45 144.5t-135 52.5t-135.5 -52.5t-45.5 -144.5t45.5 -144.5t135.5 -52.5z" />
    <glyph glyph-name="A" unicode="A" horiz-adv-x="1638" 
d="M1618 0h-385l-107 270h-614l-106 -270h-386l574 1434h450zM637 590h364l-178 450h-8z" />
    <glyph glyph-name="B" unicode="B" horiz-adv-x="1544" 
d="M135 0v1434h840q210 0 328 -95t118 -266q0 -205 -184 -319v-9q106 -46 169.5 -142t63.5 -214q0 -166 -124 -277.5t-338 -111.5h-873zM492 881h385q96 0 142 26.5t46 96.5t-46 96t-142 26h-385v-245zM492 307h434q97 0 142.5 35.5t45.5 97.5q0 133 -192 133h-430v-266z
" />
    <glyph glyph-name="C" unicode="C" horiz-adv-x="1617" 
d="M823 -29q-214 0 -380 90t-259.5 260t-93.5 396t93.5 396t259.5 259.5t380 89.5q284 0 480 -156t245 -425h-377q-41 123 -128.5 188.5t-219.5 65.5q-175 0 -276 -112t-101 -306t101 -306t276 -112q132 0 219.5 65.5t128.5 188.5h377q-49 -269 -245 -425.5t-480 -156.5z
" />
    <glyph glyph-name="D" unicode="D" horiz-adv-x="1597" 
d="M135 0v1434h631q216 0 382.5 -82.5t262.5 -246.5t96 -388t-96 -388t-262.5 -246.5t-382.5 -82.5h-631zM492 319h274q179 0 282 101.5t103 296.5t-103 296t-282 101h-274v-795z" />
    <glyph glyph-name="E" unicode="E" horiz-adv-x="1458" 
d="M492 578v-259h864v-319h-1221v1434h1221v-320h-864v-229h782v-307h-782z" />
    <glyph glyph-name="F" unicode="F" horiz-adv-x="1437" 
d="M492 537v-537h-357v1434h1221v-320h-864v-270h782v-307h-782z" />
    <glyph glyph-name="G" unicode="G" horiz-adv-x="1662" 
d="M807 -29q-152 0 -284 52.5t-227.5 147.5t-150.5 236t-55 310t55.5 309.5t153.5 235.5t235 147.5t297 52.5q262 0 445 -132t256 -367h-393q-95 172 -308 172q-176 0 -280.5 -112.5t-104.5 -305.5q0 -194 108 -306t298 -112q143 0 252.5 62t148.5 171h-454v287h749v-819
h-286v143h-9q-172 -172 -446 -172z" />
    <glyph glyph-name="H" unicode="H" horiz-adv-x="1601" 
d="M135 0v1434h357v-537h618v537h356v-1434h-356v569h-618v-569h-357z" />
    <glyph glyph-name="I" unicode="I" horiz-adv-x="626" 
d="M135 0v1434h357v-1434h-357z" />
    <glyph glyph-name="J" unicode="J" horiz-adv-x="1404" 
d="M61 0v336h779q52 0 67 15t15 67v1016h356v-1078q0 -206 -75 -281t-281 -75h-861z" />
    <glyph glyph-name="K" unicode="K" horiz-adv-x="1568" 
d="M135 0v1434h357v-537h165l451 537h428l-594 -701l606 -733h-436l-467 569h-153v-569h-357z" />
    <glyph glyph-name="L" unicode="L" horiz-adv-x="1413" 
d="M135 0v1434h357v-1098h860v-336h-1217z" />
    <glyph glyph-name="M" unicode="M" horiz-adv-x="2097" 
d="M1962 1434v-1434h-356v977h-9l-434 -977h-229l-434 977h-8v-977h-357v1434h529l380 -856h9l381 856h528z" />
    <glyph glyph-name="N" unicode="N" horiz-adv-x="1650" 
d="M1516 1434v-1434h-439l-577 897h-8v-897h-357v1434h438l578 -897h8v897h357z" />
    <glyph glyph-name="O" unicode="O" horiz-adv-x="1679" 
d="M840 -29q-161 0 -298.5 52.5t-237.5 148t-157 236t-57 309.5q0 225 98 395.5t267.5 260t384.5 89.5q161 0 298.5 -52.5t237.5 -147.5t156.5 -235.5t56.5 -309.5t-56.5 -309.5t-156.5 -236t-238 -148t-298 -52.5zM840 299q176 0 284.5 113t108.5 305t-108.5 305
t-284.5 113q-177 0 -285.5 -113t-108.5 -305t108.5 -305t285.5 -113z" />
    <glyph glyph-name="P" unicode="P" horiz-adv-x="1572" 
d="M983 434h-491v-434h-357v1434h848q112 0 208.5 -35.5t167.5 -99t111.5 -158t40.5 -207.5t-40.5 -207.5t-111.5 -158t-167.5 -99t-208.5 -35.5zM492 754h491q76 0 124 50t48 130t-48 130t-124 50h-491v-360z" />
    <glyph glyph-name="Q" unicode="Q" horiz-adv-x="1712" 
d="M1421 -131l-194 194q-173 -92 -387 -92q-161 0 -298.5 52.5t-237.5 148t-157 236t-57 309.5q0 225 98 395.5t267.5 260t384.5 89.5q161 0 298.5 -52.5t237.5 -147.5t156.5 -235.5t56.5 -309.5q0 -255 -125 -441l183 -182zM840 299q68 0 127 18v7l-168 168l225 225
l172 -172h8q29 82 29 172q0 192 -108.5 305t-284.5 113q-177 0 -285.5 -113t-108.5 -305t108.5 -305t285.5 -113z" />
    <glyph glyph-name="R" unicode="R" horiz-adv-x="1572" 
d="M1102 0l-262 459h-348v-459h-357v1434h848q150 0 269 -57t189 -169t70 -262q0 -163 -81.5 -279.5t-221.5 -168.5l287 -498h-393zM492 778h491q75 0 123.5 45t48.5 123t-48.5 123t-123.5 45h-491v-336z" />
    <glyph glyph-name="S" unicode="S" horiz-adv-x="1486" 
d="M786 -29q-122 0 -222.5 13.5t-195 49t-161 92t-111 147t-55.5 210.5h373q16 -63 52.5 -105.5t90 -63t107 -28t122.5 -7.5q283 0 283 131q0 43 -33.5 72.5t-90.5 45t-131 26t-155 22t-162.5 28t-155.5 48.5t-131 78t-90.5 122t-33.5 176q0 80 23 145t59.5 109.5t90 78
t107 52.5t118.5 30.5t117 15t108 3.5q635 0 680 -475h-373q-7 50 -37.5 84.5t-77 52t-93 24.5t-99.5 7q-114 0 -190.5 -32t-76.5 -95q0 -40 33.5 -67.5t90.5 -42.5t131 -26.5t155.5 -24t162.5 -30.5t155 -51t131 -79.5t90.5 -122.5t33.5 -174q0 -439 -639 -439z" />
    <glyph glyph-name="T" unicode="T" horiz-adv-x="1536" 
d="M590 0v1106h-529v328h1414v-328h-529v-1106h-356z" />
    <glyph glyph-name="U" unicode="U" horiz-adv-x="1572" 
d="M786 -29q-313 0 -492 185t-179 520v758h356v-758q0 -192 83.5 -284.5t231.5 -92.5t232 92.5t84 284.5v758h356v-758q0 -335 -179.5 -520t-492.5 -185z" />
    <glyph glyph-name="V" unicode="V" horiz-adv-x="1613" 
d="M614 0l-585 1434h372l402 -992h8l401 992h373l-586 -1434h-385z" />
    <glyph glyph-name="W" unicode="W" horiz-adv-x="2506" 
d="M2478 1434l-496 -1434h-426l-299 950h-8l-299 -950h-426l-495 1434h368l336 -988h8l312 988h401l311 -988h9l335 988h369z" />
    <glyph glyph-name="X" unicode="X" horiz-adv-x="1613" 
d="M20 0l572 725l-559 709h430l344 -437l344 437h430l-559 -709l571 -725h-430l-356 453l-356 -453h-431z" />
    <glyph glyph-name="Y" unicode="Y" horiz-adv-x="1622" 
d="M633 0v557l-613 877h414l377 -545l377 545h414l-613 -877v-557h-356z" />
    <glyph glyph-name="Z" unicode="Z" horiz-adv-x="1478" 
d="M82 0v250l754 856v8h-742v320h1290v-246l-757 -860v-9h770v-319h-1315z" />
    <glyph glyph-name="bracketleft" unicode="[" horiz-adv-x="765" 
d="M135 -328v1762h582v-308h-246v-1146h246v-308h-582z" />
    <glyph glyph-name="backslash" unicode="\" horiz-adv-x="831" 
d="M319 1434l512 -1844h-319l-512 1844h319z" />
    <glyph glyph-name="bracketright" unicode="]" horiz-adv-x="765" 
d="M631 1434v-1762h-582v308h246v1146h-246v308h582z" />
    <glyph glyph-name="asciicircum" unicode="^" horiz-adv-x="950" 
d="M41 819l311 615h246l311 -615h-307l-123 246h-8l-123 -246h-307z" />
    <glyph glyph-name="underscore" unicode="_" horiz-adv-x="1249" 
d="M61 -471v315h1127v-315h-1127z" />
    <glyph glyph-name="grave" unicode="`" horiz-adv-x="1024" 
d="M553 1434l164 -267h-369l-164 267h369z" />
    <glyph glyph-name="a" unicode="a" horiz-adv-x="1187" 
d="M389 -29q-46 0 -89 7t-90 26.5t-81.5 51t-57 84.5t-22.5 122q0 48 12 89.5t29 71.5t46.5 56t55 42.5t64 32.5t63 24.5t62.5 19.5l328 94v8q0 44 -33 73.5t-90 29.5q-58 0 -96.5 -30.5t-47.5 -80.5h-344q18 192 151 284.5t337 92.5q70 0 132 -10.5t121.5 -37t102 -67.5
t68.5 -107t26 -151v-348q0 -22 9.5 -31.5t31.5 -9.5h70v-307h-295q-101 0 -123 78l-8 28h-8q-128 -135 -324 -135zM492 225q102 0 159.5 59t57.5 154v8l-238 -69q-86 -24 -86 -82q0 -70 107 -70z" />
    <glyph glyph-name="b" unicode="b" 
d="M766 -29q-195 0 -315 135h-9v-106h-336v1434h336v-500h9q120 135 315 135q208 0 325 -146.5t117 -402.5t-117 -402.5t-325 -146.5zM655 279q94 0 155.5 66.5t61.5 174.5q0 109 -61.5 175.5t-155.5 66.5t-157.5 -67t-63.5 -175t63.5 -174.5t157.5 -66.5z" />
    <glyph glyph-name="c" unicode="c" horiz-adv-x="1200" 
d="M606 -29q-246 0 -395.5 147t-149.5 402t149.5 402t395.5 147q96 0 181.5 -24.5t161 -74.5t128.5 -136.5t74 -202.5h-348q-60 131 -197 131q-97 0 -153 -63.5t-56 -178.5t56 -178t153 -63q137 0 197 131h348q-21 -116 -74 -202.5t-128.5 -137t-161 -75t-181.5 -24.5z" />
    <glyph glyph-name="d" unicode="d" 
d="M504 -29q-208 0 -325.5 146.5t-117.5 402.5t117.5 402.5t325.5 146.5q195 0 315 -135h8v500h336v-1434h-336v106h-8q-120 -135 -315 -135zM614 279q94 0 158 66.5t64 174.5t-64 175t-158 67t-155.5 -66.5t-61.5 -175.5q0 -108 61.5 -174.5t155.5 -66.5z" />
    <glyph glyph-name="e" unicode="e" horiz-adv-x="1204" 
d="M606 -29q-113 0 -213 39t-173.5 109t-116 174t-42.5 227t42.5 227t116 174t173.5 109t213 39q152 0 273 -64.5t192.5 -188.5t71.5 -288l-4 -114h-738q20 -84 73.5 -130t131.5 -46q111 0 168 81h348q-24 -67 -67.5 -127.5t-106.5 -111t-151.5 -80t-190.5 -29.5zM408 651
h391q-49 152 -193 152q-72 0 -123.5 -40t-74.5 -112z" />
    <glyph glyph-name="f" unicode="f" horiz-adv-x="1146" 
d="M61 733v307h218v37q0 175 90.5 266t265.5 91h450v-291h-397q-40 0 -57 -17t-17 -57v-29h471v-307h-471v-733h-335v733h-218z" />
    <glyph glyph-name="g" unicode="g" 
d="M504 1069q195 0 315 -135h8v106h336v-950q0 -141 -39.5 -244.5t-112 -164.5t-167 -90t-213.5 -29q-226 0 -365 96t-168 252h369q55 -62 164 -62q97 0 146.5 56t49.5 186v57h-8q-120 -135 -315 -135q-207 0 -325 144.5t-118 384.5q0 239 118 383.5t325 144.5zM614 762
q-93 0 -155 -62t-62 -159t62 -159.5t155 -62.5q94 0 158 62.5t64 159.5t-64 159t-158 62z" />
    <glyph glyph-name="h" unicode="h" horiz-adv-x="1265" 
d="M106 0v1434h336v-500h9q143 135 323 135q81 0 151.5 -28t125 -82t85.5 -141.5t31 -199.5v-618h-336v553q0 58 -16.5 100.5t-45 64t-58.5 31t-64 9.5q-86 0 -145.5 -59.5t-59.5 -182.5v-516h-336z" />
    <glyph glyph-name="i" unicode="i" horiz-adv-x="606" 
d="M303 1126q-88 0 -142.5 44.5t-54.5 119.5t54.5 119.5t142.5 44.5t142.5 -44.5t54.5 -119.5t-54.5 -119.5t-142.5 -44.5zM135 0v1040h336v-1040h-336z" />
    <glyph glyph-name="j" unicode="j" horiz-adv-x="577" 
d="M274 1126q-88 0 -142 44.5t-54 119.5t54 119.5t142 44.5t142.5 -44.5t54.5 -119.5t-54.5 -119.5t-142.5 -44.5zM-123 -410v316h168q37 0 49 12t12 49v1073h336v-1101q0 -185 -82 -267t-266 -82h-217z" />
    <glyph glyph-name="k" unicode="k" horiz-adv-x="1265" 
d="M106 0v1434h336v-754h115l270 360h398l-389 -512l413 -528h-409l-295 381h-103v-381h-336z" />
    <glyph glyph-name="l" unicode="l" horiz-adv-x="667" 
d="M446 0q-184 0 -266 82t-82 266v1086h336v-1057q0 -37 12.5 -49.5t49.5 -12.5h131v-315h-181z" />
    <glyph glyph-name="m" unicode="m" horiz-adv-x="1957" 
d="M106 0v1040h336v-106h9q58 58 141 96.5t178 38.5q101 0 180 -46t119 -126h8q79 90 184 131t205 41q170 0 282 -116t112 -335v-618h-336v553q0 58 -16.5 100.5t-44 64t-56 31t-59.5 9.5q-78 0 -137.5 -60.5t-59.5 -181.5v-516h-336v553q0 58 -16.5 100.5t-44 64t-56 31
t-59.5 9.5q-78 0 -137.5 -60.5t-59.5 -181.5v-516h-336z" />
    <glyph glyph-name="n" unicode="n" horiz-adv-x="1265" 
d="M106 0v1040h336v-106h9q143 135 323 135q81 0 151.5 -28t125 -82t85.5 -141.5t31 -199.5v-618h-336v553q0 58 -16.5 100.5t-45 64t-58.5 31t-64 9.5q-86 0 -145.5 -59.5t-59.5 -182.5v-516h-336z" />
    <glyph glyph-name="o" unicode="o" horiz-adv-x="1236" 
d="M618 -29q-247 0 -402 149t-155 400t155 400t402 149t402.5 -149t155.5 -400t-155.5 -400t-402.5 -149zM618 279q96 0 159 64t63 177t-63 177.5t-159 64.5t-158.5 -64.5t-62.5 -177.5t62.5 -177t158.5 -64z" />
    <glyph glyph-name="p" unicode="p" 
d="M766 1069q208 0 325 -146.5t117 -402.5t-117 -402.5t-325 -146.5q-195 0 -315 135h-9v-516h-336v1450h336v-106h9q120 135 315 135zM655 279q94 0 155.5 66.5t61.5 174.5q0 109 -61.5 175.5t-155.5 66.5t-157.5 -67t-63.5 -175t63.5 -174.5t157.5 -66.5z" />
    <glyph glyph-name="q" unicode="q" 
d="M504 1069q195 0 315 -135h8v106h336v-1450h-336v516h-8q-120 -135 -315 -135q-208 0 -325.5 146.5t-117.5 402.5t117.5 402.5t325.5 146.5zM614 279q94 0 158 66.5t64 174.5t-64 175t-158 67t-155.5 -66.5t-61.5 -175.5q0 -108 61.5 -174.5t155.5 -66.5z" />
    <glyph glyph-name="r" unicode="r" horiz-adv-x="1052" 
d="M106 0v1040h336v-106h9q122 106 274 106h266v-315h-278q-138 0 -204.5 -66t-66.5 -204v-455h-336z" />
    <glyph glyph-name="s" unicode="s" horiz-adv-x="1118" 
d="M582 -29q-510 0 -541 361h344q40 -94 197 -94q67 -2 107 15.5t40 53.5q0 25 -28.5 41.5t-75 24t-106 17.5t-122 20.5t-122 35t-106 59.5t-75 95.5t-28.5 140.5q0 78 30.5 137.5t77 95t111.5 57.5t125.5 30t126.5 8q77 0 144.5 -11t130.5 -36.5t110.5 -64.5t79.5 -99.5
t42 -136.5h-344q-29 82 -168 82q-131 0 -131 -62q0 -24 28.5 -39t75 -22t106.5 -17t122 -20.5t122 -36t106.5 -60.5t75 -96.5t28.5 -142.5q0 -84 -30.5 -146.5t-76.5 -98t-113 -57t-128.5 -28t-134.5 -6.5z" />
    <glyph glyph-name="t" unicode="t" horiz-adv-x="1163" 
d="M635 0q-175 0 -265.5 90.5t-90.5 265.5v377h-218v307h218v312h335v-312h471v-307h-471v-352q0 -40 17 -57t57 -17h397v-307h-450z" />
    <glyph glyph-name="u" unicode="u" horiz-adv-x="1265" 
d="M1159 1040v-1040h-336v106h-8q-143 -135 -323 -135q-170 0 -282 116t-112 335v618h336v-553q0 -58 16.5 -100.5t45 -63.5t58.5 -30.5t64 -9.5q86 0 145.5 59t59.5 182v516h336z" />
    <glyph glyph-name="v" unicode="v" horiz-adv-x="1236" 
d="M397 0l-368 1040h348l237 -684h9l237 684h348l-368 -1040h-443z" />
    <glyph glyph-name="w" unicode="w" horiz-adv-x="1957" 
d="M356 0l-315 1040h344l188 -659h9l172 659h450l172 -659h8l189 659h344l-315 -1040h-451l-168 643h-8l-168 -643h-451z" />
    <glyph glyph-name="x" unicode="x" horiz-adv-x="1228" 
d="M16 0l398 522l-394 518h402l192 -254l193 254h401l-393 -518l397 -522h-401l-197 258l-196 -258h-402z" />
    <glyph glyph-name="y" unicode="y" 
d="M176 -410v308h172q102 0 139 98l2 6l-460 1038h360l258 -598h12l230 598h352l-459 -1155q-46 -118 -97.5 -179.5t-129.5 -88.5t-207 -27h-172z" />
    <glyph glyph-name="z" unicode="z" horiz-adv-x="1097" 
d="M78 0v242l450 491v8h-442v299h926v-241l-451 -492v-8h459v-299h-942z" />
    <glyph glyph-name="braceleft" unicode="{" horiz-adv-x="860" 
d="M74 389h-25v328h25q76 0 120 43.5t44 120.5v204q0 187 74.5 268t256.5 81h250v-308h-184q-37 0 -49.5 -12t-12.5 -49v-205q0 -119 -56 -196.5t-152 -106.5v-8q96 -29 152 -106.5t56 -196.5v-205q0 -37 12.5 -49t49.5 -12h184v-308h-250q-182 0 -256.5 80.5t-74.5 267.5
v205q0 77 -44 120.5t-120 43.5z" />
    <glyph glyph-name="bar" unicode="|" horiz-adv-x="548" 
d="M106 -410v1844h336v-1844h-336z" />
    <glyph glyph-name="braceright" unicode="}" horiz-adv-x="860" 
d="M811 389h-25q-76 0 -119.5 -43.5t-43.5 -120.5v-205q0 -187 -75 -267.5t-257 -80.5h-250v308h184q37 0 49.5 12t12.5 49v205q0 119 56.5 196.5t152.5 106.5v8q-96 29 -152.5 106.5t-56.5 196.5v205q0 37 -12.5 49t-49.5 12h-184v308h250q182 0 257 -81t75 -268v-204
q0 -77 43.5 -120.5t119.5 -43.5h25v-328z" />
    <glyph glyph-name="asciitilde" unicode="~" horiz-adv-x="1175" 
d="M385 852q60 0 109.5 -16t81 -39t58 -46t56 -39t60.5 -16q92 0 98 131h307q-6 -227 -104 -338.5t-260 -111.5q-60 0 -109.5 16t-81 38.5t-58 45.5t-56 39t-60.5 16q-92 0 -98 -131h-308q6 227 104.5 339t260.5 112z" />
    <glyph glyph-name="exclamdown" unicode="&#xa1;" horiz-adv-x="524" 
d="M262 1061q93 0 147 -51t54 -142t-54 -141.5t-147 -50.5t-147 50.5t-54 141.5t54 142t147 51zM426 590l10 -983h-348l10 983h328z" />
    <glyph glyph-name="cent" unicode="&#xa2;" horiz-adv-x="1200" 
d="M442 -225v217q-177 45 -279 182.5t-102 345.5t102 346t279 183v200h349v-205q138 -39 233.5 -141t126.5 -272h-348q-60 131 -197 131q-97 0 -153 -63.5t-56 -178.5t56 -178t153 -63q137 0 197 131h348q-31 -170 -126.5 -272.5t-233.5 -141.5v-221h-349z" />
    <glyph glyph-name="sterling" unicode="&#xa3;" horiz-adv-x="1355" 
d="M102 492v327h162q-14 41 -19 58t-12.5 56.5t-7.5 78.5q0 94 31.5 174.5t91.5 142.5t156 97.5t217 35.5q244 0 391 -129.5t162 -349.5h-365q-39 152 -188 152q-139 0 -139 -123q0 -26 6.5 -54.5t20.5 -73t20 -65.5h395v-327h-395q-31 -76 -105 -156v-8h750v-328h-1172v250
q118 133 164 242h-164z" />
    <glyph glyph-name="currency" unicode="&#xa4;" horiz-adv-x="1146" 
d="M573 160q-101 0 -190 39l-137 -138l-205 205l131 131q-45 95 -45 217t45 217l-131 132l205 204l137 -137q89 39 190 39q102 0 191 -39l137 137l205 -204l-131 -132q45 -95 45 -217t-45 -217l131 -131l-205 -205l-137 138q-89 -39 -191 -39zM573 418q88 0 134.5 51.5
t46.5 144.5t-46.5 145t-134.5 52t-134 -51.5t-46 -145.5q0 -93 46 -144.5t134 -51.5z" />
    <glyph glyph-name="yen" unicode="&#xa5;" horiz-adv-x="1490" 
d="M1253 770v-225h-1015v225h208v8l-405 656h410l290 -484h9l290 484h410l-406 -656v-8h209zM238 217v225h1015v-225h-329v-217h-357v217h-329z" />
    <glyph glyph-name="brokenbar" unicode="&#xa6;" horiz-adv-x="548" 
d="M106 717v717h336v-717h-336zM106 -410v717h336v-717h-336z" />
    <glyph glyph-name="section" unicode="&#xa7;" horiz-adv-x="1323" 
d="M688 -438q-142 0 -254.5 33.5t-185 93.5t-112.5 138.5t-46 172.5h373q11 -54 66 -92.5t159 -38.5q78 0 119 23t41 63q0 37 -39 69t-109 54l-323 98q-316 95 -316 389q0 188 140 254v8q-82 95 -82 242q0 107 40 185t112.5 122.5t162.5 65t201 20.5q142 0 254.5 -33.5
t185 -93.5t112.5 -138.5t46 -172.5h-373q-11 54 -66 92.5t-159 38.5q-78 0 -119 -23t-41 -63q0 -37 39 -69t109 -54l323 -98q316 -95 316 -389q0 -188 -140 -254v-8q82 -95 82 -242q0 -107 -40 -185t-112.5 -122.5t-162.5 -65t-201 -20.5zM516 666q-98 -11 -98 -101
q0 -88 102 -119l287 -88q98 11 98 101q0 88 -102 119z" />
    <glyph glyph-name="dieresis" unicode="&#xa8;" horiz-adv-x="1024" 
d="M287 1126q-84 0 -134.5 44t-50.5 120t50.5 120t134.5 44t134 -44t50 -120t-50 -120t-134 -44zM737 1126q-84 0 -134 44t-50 120t50 120t134 44t134.5 -44t50.5 -120t-50.5 -120t-134.5 -44z" />
    <glyph glyph-name="copyright" unicode="&#xa9;" horiz-adv-x="1695" 
d="M848 -29q-161 0 -300 52.5t-240.5 147.5t-159.5 236t-58 310q0 224 100 395t271.5 260.5t386.5 89.5t386.5 -89.5t271.5 -260.5t100 -395q0 -169 -58 -310t-159.5 -236t-240.5 -147.5t-300 -52.5zM848 188q233 0 378.5 143t145.5 386t-145 385.5t-379 142.5t-379 -142.5
t-145 -385.5t145.5 -386t378.5 -143zM848 311q-181 0 -291.5 109t-110.5 297t110.5 296.5t291.5 108.5q96 0 176 -30t145 -104.5t88 -188.5h-253q-46 102 -156 102q-72 0 -114 -48t-42 -136t42 -136.5t114 -48.5q110 0 156 103h253q-18 -86 -59 -150.5t-97 -101.5
t-119.5 -54.5t-133.5 -17.5z" />
    <glyph glyph-name="ordfeminine" unicode="&#xaa;" horiz-adv-x="962" 
d="M299 549q-38 0 -73.5 6t-74 22.5t-66.5 42.5t-46.5 70t-18.5 101q0 54 18 98t43.5 71.5t66 50.5t72.5 34.5t75 23.5l283 78v6q0 37 -31 58.5t-84 21.5q-56 0 -90.5 -23.5t-40.5 -66.5h-271q7 82 40.5 143.5t88.5 98.5t123 55t150 18q58 0 109 -8t101.5 -29.5t86 -55
t58 -88.5t22.5 -126v-287q0 -19 6.5 -26t25.5 -7h58v-258h-242q-81 0 -102 66l-8 25h-9q-107 -115 -270 -115zM385 762q86 0 139.5 49.5t53.5 126.5v8l-209 -61q-42 -13 -62 -27.5t-20 -38.5q0 -29 27.5 -43t70.5 -14z" />
    <glyph glyph-name="guillemotleft" unicode="&#xab;" horiz-adv-x="1249" 
d="M287 160l-267 372l267 373h389l-266 -373l266 -372h-389zM819 160l-266 372l266 373h389l-266 -373l266 -372h-389z" />
    <glyph glyph-name="logicalnot" unicode="&#xac;" horiz-adv-x="1167" 
d="M778 86v375h-717v307h1024v-682h-307z" />
    <glyph glyph-name="registered" unicode="&#xae;" horiz-adv-x="1196" 
d="M598 385q-230 0 -383.5 153.5t-153.5 383.5t153.5 383t383.5 153t383.5 -153t153.5 -383t-153.5 -383.5t-383.5 -153.5zM598 520q183 0 287 108t104 294t-104 293.5t-287 107.5t-287 -107.5t-104 -293.5t104 -294t287 -108zM369 668v508h299q82 0 139 -46t57 -131
q0 -119 -112 -161l104 -170h-147l-95 155h-110v-155h-135zM504 950h164q33 0 47 12t14 37q0 26 -14 38t-47 12h-164v-99z" />
    <glyph glyph-name="macron" unicode="&#xaf;" horiz-adv-x="1024" 
d="M164 1188v225h696v-225h-696z" />
    <glyph glyph-name="degree" unicode="&#xb0;" horiz-adv-x="851" 
d="M426 713q-170 0 -277.5 102.5t-107.5 269.5q0 168 107.5 270.5t277.5 102.5t277.5 -102.5t107.5 -270.5q0 -167 -107.5 -269.5t-277.5 -102.5zM545 1085q0 55 -31.5 85t-87.5 30t-87.5 -30t-31.5 -85t31.5 -84.5t87.5 -29.5t87.5 29.5t31.5 84.5z" />
    <glyph glyph-name="plusminus" unicode="&#xb1;" horiz-adv-x="1187" 
d="M82 733v307h358v344h308v-344h358v-307h-358v-344h-308v344h-358zM82 0v307h1024v-307h-1024z" />
    <glyph glyph-name="twosuperior" unicode="&#xb2;" horiz-adv-x="806" 
d="M49 737v205l365 289q65 53 65 100q0 53 -69 53q-76 0 -95 -65h-266q29 303 361 303q162 0 248.5 -68t86.5 -194q0 -78 -34.5 -137t-100.5 -113l-147 -119v-8h282v-246h-696z" />
    <glyph glyph-name="threesuperior" unicode="&#xb3;" horiz-adv-x="815" 
d="M406 713q-73 0 -136.5 15t-116.5 46t-85 84.5t-35 124.5h266q16 -45 107 -45q98 0 98 59q0 60 -115 60h-94v225h94q45 0 69.5 16t24.5 41q0 27 -24 42.5t-62 15.5q-35 0 -59.5 -12t-30.5 -33h-266q4 74 34 128t80 84t109.5 44t132.5 14q159 0 256 -63.5t97 -182.5
q0 -130 -123 -188v-8q66 -30 100.5 -87.5t34.5 -129.5q0 -64 -29 -113t-79 -78.5t-112.5 -44t-135.5 -14.5z" />
    <glyph glyph-name="acute" unicode="&#xb4;" horiz-adv-x="1024" 
d="M307 1167l164 267h369l-164 -267h-369z" />
    <glyph glyph-name="paragraph" unicode="&#xb6;" horiz-adv-x="1294" 
d="M492 0v696q-451 0 -451 369t451 369h696v-1434h-287v1106h-123v-1106h-286z" />
    <glyph glyph-name="periodcentered" unicode="&#xb7;" horiz-adv-x="565" 
d="M283 340q-93 0 -147 50.5t-54 141.5t54 142t147 51t146.5 -51t53.5 -142t-53.5 -141.5t-146.5 -50.5z" />
    <glyph glyph-name="cedilla" unicode="&#xb8;" horiz-adv-x="1024" 
d="M340 -410v205h66q73 0 73 41t-73 41h-29l65 172h185l-41 -115q71 -14 119.5 -55.5t48.5 -111.5q0 -177 -332 -177h-82z" />
    <glyph glyph-name="onesuperior" unicode="&#xb9;" horiz-adv-x="675" 
d="M295 737v537l-168 -86l-107 229l353 180h188v-860h-266z" />
    <glyph glyph-name="ordmasculine" unicode="&#xba;" horiz-adv-x="974" 
d="M487 549q-191 0 -318.5 123t-127.5 332t127.5 331.5t318.5 122.5q124 0 224.5 -52.5t161.5 -157.5t61 -244q0 -209 -128 -332t-319 -123zM487 807q88 0 134.5 52t46.5 145t-46.5 144.5t-134.5 51.5t-134 -51.5t-46 -144.5q0 -94 46 -145.5t134 -51.5z" />
    <glyph glyph-name="guillemotright" unicode="&#xbb;" horiz-adv-x="1249" 
d="M1229 532l-266 -372h-390l267 372l-267 373h390zM696 532l-266 -372h-389l266 372l-266 373h389z" />
    <glyph glyph-name="onequarter" unicode="&#xbc;" horiz-adv-x="1814" 
d="M295 573v537l-168 -86l-107 229l353 181h188v-861h-266zM328 0l839 1434h263l-840 -1434h-262zM1409 0v152h-418v163l291 545h393v-483h86v-225h-86v-152h-266zM1270 377h139v254h-8l-131 -246v-8z" />
    <glyph glyph-name="onehalf" unicode="&#xbd;" horiz-adv-x="1847" 
d="M295 573v537l-168 -86l-107 229l353 181h188v-861h-266zM328 0l839 1434h263l-840 -1434h-262zM1090 0v205l364 289q66 54 66 100q0 53 -70 53q-75 0 -94 -65h-266q29 303 360 303q162 0 249 -68t87 -194q0 -78 -34.5 -137t-100.5 -113l-148 -119v-8h283v-246h-696z" />
    <glyph glyph-name="threequarters" unicode="&#xbe;" horiz-adv-x="1953" 
d="M406 549q-73 0 -136.5 15t-116.5 46t-85 84.5t-35 124.5h266q16 -45 107 -45q39 0 68.5 13.5t29.5 46.5q0 59 -115 59h-94v225h94q44 0 69 16t25 42q0 27 -24 42t-62 15q-35 0 -59.5 -12t-30.5 -33h-266q4 74 34 128t80 84t109.5 44t132.5 14q159 0 256 -63.5t97 -182.5
q0 -130 -123 -188v-8q66 -30 100.5 -87.5t34.5 -129.5q0 -64 -29 -113t-79 -78.5t-112.5 -44t-135.5 -14.5zM467 0l840 1434h262l-840 -1434h-262zM1548 0v152h-418v163l291 545h394v-483h86v-225h-86v-152h-267zM1409 377h139v254h-8l-131 -246v-8z" />
    <glyph glyph-name="questiondown" unicode="&#xbf;" horiz-adv-x="1179" 
d="M598 1061q93 0 147 -51t54 -142t-54 -141.5t-147 -50.5t-147 50.5t-54 141.5t54 142t147 51zM786 590q0 -83 -21.5 -149.5t-56 -108.5t-76 -75t-82.5 -58.5t-75.5 -50.5t-56 -58t-21.5 -74q0 -68 50.5 -99.5t121.5 -31.5q80 0 140.5 41t68.5 131h361
q-5 -108 -41.5 -192.5t-92.5 -137.5t-131 -87.5t-149.5 -48t-155.5 -13.5q-153 0 -270 47t-187.5 147.5t-70.5 243.5q0 77 21.5 139t56 102.5t76 73t82.5 59.5t75.5 54t56 64t21.5 82h356z" />
    <glyph glyph-name="Agrave" unicode="&#xc0;" horiz-adv-x="1638" 
d="M860 1827l164 -266h-369l-163 266h368zM1618 0h-385l-107 270h-614l-106 -270h-386l574 1434h450zM637 590h364l-178 450h-8z" />
    <glyph glyph-name="Aacute" unicode="&#xc1;" horiz-adv-x="1638" 
d="M614 1561l164 266h369l-164 -266h-369zM1618 0h-385l-107 270h-614l-106 -270h-386l574 1434h450zM637 590h364l-178 450h-8z" />
    <glyph glyph-name="Acircumflex" unicode="&#xc2;" horiz-adv-x="1638" 
d="M430 1561l225 327h328l225 -327h-286l-99 143h-8l-98 -143h-287zM1618 0h-385l-107 270h-614l-106 -270h-386l574 1434h450zM637 590h364l-178 450h-8z" />
    <glyph glyph-name="Atilde" unicode="&#xc3;" horiz-adv-x="1638" 
d="M672 1851q56 0 101 -21.5t80.5 -43t68.5 -21.5q30 0 44 15t17 47h225q-9 -148 -73.5 -219.5t-167.5 -71.5q-56 0 -101 21.5t-80.5 43t-68.5 21.5q-30 0 -44.5 -15t-17.5 -46h-225q9 147 73.5 218.5t168.5 71.5zM1618 0h-385l-107 270h-614l-106 -270h-386l574 1434h450z
M637 590h364l-178 450h-8z" />
    <glyph glyph-name="Adieresis" unicode="&#xc4;" horiz-adv-x="1638" 
d="M594 1520q-84 0 -134 43.5t-50 119.5t50 120t134 44t134 -44t50 -120t-50 -119.5t-134 -43.5zM1044 1520q-84 0 -134 43.5t-50 119.5t50 120t134 44t134.5 -44t50.5 -120t-50.5 -119.5t-134.5 -43.5zM1618 0h-385l-107 270h-614l-106 -270h-386l574 1434h450zM637 590
h364l-178 450h-8z" />
    <glyph glyph-name="Aring" unicode="&#xc5;" horiz-adv-x="1638" 
d="M819 1516q-108 0 -183 60t-75 169t75 169t183 60t183 -60t75 -169t-75 -169t-183 -60zM741 1745q0 -36 21.5 -55t56.5 -19t56.5 19t21.5 55t-21.5 55t-56.5 19t-56.5 -19t-21.5 -55zM1618 0h-385l-107 270h-614l-106 -270h-386l574 1434h450zM637 590h364l-178 450h-8z
" />
    <glyph glyph-name="AE" unicode="&#xc6;" horiz-adv-x="2469" 
d="M20 0l1004 1434h1343v-320h-782v-229h701v-307h-701v-259h782v-319h-1138v279h-604l-195 -279h-410zM846 598h383v537h-8z" />
    <glyph glyph-name="Ccedilla" unicode="&#xc7;" horiz-adv-x="1617" 
d="M647 -410v205h66q73 0 73 41t-73 41h-29l39 100q-285 31 -459 229.5t-174 510.5q0 226 93.5 396t259.5 259.5t380 89.5q284 0 480 -156t245 -425h-377q-41 123 -128.5 188.5t-219.5 65.5q-175 0 -276 -112t-101 -306t101 -306t276 -112q132 0 219.5 65.5t128.5 188.5h377
q-45 -249 -217 -402t-424 -176l-14 -41q71 -14 119.5 -55.5t48.5 -111.5q0 -177 -332 -177h-82z" />
    <glyph glyph-name="Egrave" unicode="&#xc8;" horiz-adv-x="1458" 
d="M795 1827l163 -266h-368l-164 266h369zM492 578v-259h864v-319h-1221v1434h1221v-320h-864v-229h782v-307h-782z" />
    <glyph glyph-name="Eacute" unicode="&#xc9;" horiz-adv-x="1458" 
d="M549 1561l164 266h368l-163 -266h-369zM492 578v-259h864v-319h-1221v1434h1221v-320h-864v-229h782v-307h-782z" />
    <glyph glyph-name="Ecircumflex" unicode="&#xca;" horiz-adv-x="1458" 
d="M365 1561l225 327h328l225 -327h-287l-98 143h-8l-99 -143h-286zM492 578v-259h864v-319h-1221v1434h1221v-320h-864v-229h782v-307h-782z" />
    <glyph glyph-name="Edieresis" unicode="&#xcb;" horiz-adv-x="1458" 
d="M528 1520q-84 0 -134 43.5t-50 119.5t50 120t134 44t134.5 -44t50.5 -120t-50.5 -119.5t-134.5 -43.5zM979 1520q-84 0 -134 43.5t-50 119.5t50 120t134 44t134 -44t50 -120t-50 -119.5t-134 -43.5zM492 578v-259h864v-319h-1221v1434h1221v-320h-864v-229h782v-307h-782
z" />
    <glyph glyph-name="Igrave" unicode="&#xcc;" horiz-adv-x="626" 
d="M354 1827l164 -266h-368l-164 266h368zM135 0v1434h357v-1434h-357z" />
    <glyph glyph-name="Iacute" unicode="&#xcd;" horiz-adv-x="626" 
d="M109 1561l163 266h369l-164 -266h-368zM135 0v1434h357v-1434h-357z" />
    <glyph glyph-name="Icircumflex" unicode="&#xce;" horiz-adv-x="626" 
d="M-76 1561l226 327h327l225 -327h-286l-99 143h-8l-98 -143h-287zM135 0v1434h357v-1434h-357z" />
    <glyph glyph-name="Idieresis" unicode="&#xcf;" horiz-adv-x="626" 
d="M88 1520q-84 0 -134 43.5t-50 119.5t50 120t134 44t134 -44t50 -120t-50 -119.5t-134 -43.5zM539 1520q-84 0 -134.5 43.5t-50.5 119.5t50.5 120t134.5 44t134 -44t50 -120t-50 -119.5t-134 -43.5zM135 0v1434h357v-1434h-357z" />
    <glyph glyph-name="Eth" unicode="&#xd0;" horiz-adv-x="1638" 
d="M176 0v569h-156v328h156v537h631q216 0 382.5 -82.5t262.5 -246.5t96 -388t-96 -388t-262.5 -246.5t-382.5 -82.5h-631zM532 319h275q179 0 282 101.5t103 296.5t-103 296t-282 101h-275v-217h316v-328h-316v-250z" />
    <glyph glyph-name="Ntilde" unicode="&#xd1;" horiz-adv-x="1650" 
d="M680 1851q56 0 101 -21.5t80.5 -43t68.5 -21.5q30 0 44 15t17 47h226q-9 -147 -73.5 -219t-168.5 -72q-56 0 -101 21.5t-80.5 43t-68.5 21.5q-30 0 -44 -14.5t-17 -46.5h-226q9 147 73.5 218.5t168.5 71.5zM1516 1434v-1434h-439l-577 897h-8v-897h-357v1434h438
l578 -897h8v897h357z" />
    <glyph glyph-name="Ograve" unicode="&#xd2;" horiz-adv-x="1679" 
d="M881 1827l163 -266h-368l-164 266h369zM840 -29q-161 0 -298.5 52.5t-237.5 148t-157 236t-57 309.5q0 225 98 395.5t267.5 260t384.5 89.5q161 0 298.5 -52.5t237.5 -147.5t156.5 -235.5t56.5 -309.5t-56.5 -309.5t-156.5 -236t-238 -148t-298 -52.5zM840 299
q176 0 284.5 113t108.5 305t-108.5 305t-284.5 113q-177 0 -285.5 -113t-108.5 -305t108.5 -305t285.5 -113z" />
    <glyph glyph-name="Oacute" unicode="&#xd3;" horiz-adv-x="1679" 
d="M635 1561l164 266h368l-163 -266h-369zM840 -29q-161 0 -298.5 52.5t-237.5 148t-157 236t-57 309.5q0 225 98 395.5t267.5 260t384.5 89.5q161 0 298.5 -52.5t237.5 -147.5t156.5 -235.5t56.5 -309.5t-56.5 -309.5t-156.5 -236t-238 -148t-298 -52.5zM840 299
q176 0 284.5 113t108.5 305t-108.5 305t-284.5 113q-177 0 -285.5 -113t-108.5 -305t108.5 -305t285.5 -113z" />
    <glyph glyph-name="Ocircumflex" unicode="&#xd4;" horiz-adv-x="1679" 
d="M451 1561l225 327h328l225 -327h-287l-98 143h-8l-99 -143h-286zM840 -29q-161 0 -298.5 52.5t-237.5 148t-157 236t-57 309.5q0 225 98 395.5t267.5 260t384.5 89.5q161 0 298.5 -52.5t237.5 -147.5t156.5 -235.5t56.5 -309.5t-56.5 -309.5t-156.5 -236t-238 -148
t-298 -52.5zM840 299q176 0 284.5 113t108.5 305t-108.5 305t-284.5 113q-177 0 -285.5 -113t-108.5 -305t108.5 -305t285.5 -113z" />
    <glyph glyph-name="Otilde" unicode="&#xd5;" horiz-adv-x="1679" 
d="M692 1851q56 0 101 -21.5t80.5 -43t68.5 -21.5q56 0 62 62h225q-9 -147 -73.5 -219t-168.5 -72q-56 0 -101 21.5t-80.5 43t-68.5 21.5q-30 0 -44 -14.5t-17 -46.5h-225q9 147 73 218.5t168 71.5zM840 -29q-161 0 -298.5 52.5t-237.5 148t-157 236t-57 309.5
q0 225 98 395.5t267.5 260t384.5 89.5q161 0 298.5 -52.5t237.5 -147.5t156.5 -235.5t56.5 -309.5t-56.5 -309.5t-156.5 -236t-238 -148t-298 -52.5zM840 299q176 0 284.5 113t108.5 305t-108.5 305t-284.5 113q-177 0 -285.5 -113t-108.5 -305t108.5 -305t285.5 -113z" />
    <glyph glyph-name="Odieresis" unicode="&#xd6;" horiz-adv-x="1679" 
d="M614 1520q-84 0 -134 43.5t-50 119.5t50 120t134 44t134.5 -44t50.5 -120t-50.5 -119.5t-134.5 -43.5zM1065 1520q-84 0 -134 43.5t-50 119.5t50 120t134 44t134 -44t50 -120t-50 -119.5t-134 -43.5zM840 -29q-161 0 -298.5 52.5t-237.5 148t-157 236t-57 309.5
q0 225 98 395.5t267.5 260t384.5 89.5q161 0 298.5 -52.5t237.5 -147.5t156.5 -235.5t56.5 -309.5t-56.5 -309.5t-156.5 -236t-238 -148t-298 -52.5zM840 299q176 0 284.5 113t108.5 305t-108.5 305t-284.5 113q-177 0 -285.5 -113t-108.5 -305t108.5 -305t285.5 -113z" />
    <glyph glyph-name="multiply" unicode="&#xd7;" horiz-adv-x="1069" 
d="M258 123l-217 217l276 276l-272 273l217 217l273 -272l272 272l217 -217l-272 -273l276 -276l-217 -217l-276 276z" />
    <glyph glyph-name="Oslash" unicode="&#xd8;" horiz-adv-x="1679" 
d="M840 -29q-117 0 -219 27l-76 -141h-344l149 274q-124 99 -192 249t-68 337q0 225 98 395.5t267.5 260t384.5 89.5q121 0 219 -26l76 141h344l-150 -274q124 -99 192 -249t68 -337q0 -169 -56.5 -309.5t-156.5 -236t-238 -148t-298 -52.5zM522 451l371 682q-16 2 -53 2
q-177 0 -285.5 -113t-108.5 -305q0 -157 76 -266zM840 299q176 0 284.5 113t108.5 305q0 157 -76 266l-371 -682q16 -2 54 -2z" />
    <glyph glyph-name="Ugrave" unicode="&#xd9;" horiz-adv-x="1572" 
d="M827 1827l164 -266h-368l-164 266h368zM786 -29q-313 0 -492 185t-179 520v758h356v-758q0 -192 83.5 -284.5t231.5 -92.5t232 92.5t84 284.5v758h356v-758q0 -335 -179.5 -520t-492.5 -185z" />
    <glyph glyph-name="Uacute" unicode="&#xda;" horiz-adv-x="1572" 
d="M582 1561l163 266h369l-164 -266h-368zM786 -29q-313 0 -492 185t-179 520v758h356v-758q0 -192 83.5 -284.5t231.5 -92.5t232 92.5t84 284.5v758h356v-758q0 -335 -179.5 -520t-492.5 -185z" />
    <glyph glyph-name="Ucircumflex" unicode="&#xdb;" horiz-adv-x="1572" 
d="M397 1561l226 327h327l226 -327h-287l-98 143h-9l-98 -143h-287zM786 -29q-313 0 -492 185t-179 520v758h356v-758q0 -192 83.5 -284.5t231.5 -92.5t232 92.5t84 284.5v758h356v-758q0 -335 -179.5 -520t-492.5 -185z" />
    <glyph glyph-name="Udieresis" unicode="&#xdc;" horiz-adv-x="1572" 
d="M561 1520q-84 0 -134 43.5t-50 119.5t50 120t134 44t134 -44t50 -120t-50 -119.5t-134 -43.5zM1012 1520q-84 0 -134.5 43.5t-50.5 119.5t50.5 120t134.5 44t134 -44t50 -120t-50 -119.5t-134 -43.5zM786 -29q-313 0 -492 185t-179 520v758h356v-758q0 -192 83.5 -284.5
t231.5 -92.5t232 92.5t84 284.5v758h356v-758q0 -335 -179.5 -520t-492.5 -185z" />
    <glyph glyph-name="Yacute" unicode="&#xdd;" horiz-adv-x="1622" 
d="M606 1561l164 266h369l-164 -266h-369zM633 0v557l-613 877h414l377 -545l377 545h414l-613 -877v-557h-356z" />
    <glyph glyph-name="Thorn" unicode="&#xde;" horiz-adv-x="1572" 
d="M983 233h-491v-233h-357v1434h357v-201h491q112 0 208.5 -35.5t167.5 -99t111.5 -158t40.5 -207.5t-40.5 -207.5t-111.5 -158t-167.5 -99t-208.5 -35.5zM492 553h491q76 0 124 50t48 130t-48 130t-124 50h-491v-360z" />
    <glyph glyph-name="germandbls" unicode="&#xdf;" horiz-adv-x="1306" 
d="M106 0v963q0 115 34.5 205t87.5 144t125.5 89t141 48t140.5 13q139 0 255 -47t188.5 -140t72.5 -214q0 -147 -102 -242v-8q196 -104 196 -369q0 -210 -130 -326t-410 -116h-132v307h132q213 0 213 144q0 143 -213 143h-132v307h66q86 0 135 32t49 95t-51 95t-137 32
q-92 0 -142.5 -42.5t-50.5 -149.5v-963h-336z" />
    <glyph glyph-name="agrave" unicode="&#xe0;" horiz-adv-x="1187" 
d="M635 1434l164 -267h-369l-164 267h369zM389 -29q-46 0 -89 7t-90 26.5t-81.5 51t-57 84.5t-22.5 122q0 48 12 89.5t29 71.5t46.5 56t55 42.5t64 32.5t63 24.5t62.5 19.5l328 94v8q0 44 -33 73.5t-90 29.5q-58 0 -96.5 -30.5t-47.5 -80.5h-344q18 192 151 284.5t337 92.5
q70 0 132 -10.5t121.5 -37t102 -67.5t68.5 -107t26 -151v-348q0 -22 9.5 -31.5t31.5 -9.5h70v-307h-295q-101 0 -123 78l-8 28h-8q-128 -135 -324 -135zM492 225q102 0 159.5 59t57.5 154v8l-238 -69q-86 -24 -86 -82q0 -70 107 -70z" />
    <glyph glyph-name="aacute" unicode="&#xe1;" horiz-adv-x="1187" 
d="M389 1167l164 267h369l-164 -267h-369zM389 -29q-46 0 -89 7t-90 26.5t-81.5 51t-57 84.5t-22.5 122q0 48 12 89.5t29 71.5t46.5 56t55 42.5t64 32.5t63 24.5t62.5 19.5l328 94v8q0 44 -33 73.5t-90 29.5q-58 0 -96.5 -30.5t-47.5 -80.5h-344q18 192 151 284.5t337 92.5
q70 0 132 -10.5t121.5 -37t102 -67.5t68.5 -107t26 -151v-348q0 -22 9.5 -31.5t31.5 -9.5h70v-307h-295q-101 0 -123 78l-8 28h-8q-128 -135 -324 -135zM492 225q102 0 159.5 59t57.5 154v8l-238 -69q-86 -24 -86 -82q0 -70 107 -70z" />
    <glyph glyph-name="acircumflex" unicode="&#xe2;" horiz-adv-x="1187" 
d="M205 1167l225 328h328l225 -328h-287l-98 144h-8l-98 -144h-287zM389 -29q-46 0 -89 7t-90 26.5t-81.5 51t-57 84.5t-22.5 122q0 48 12 89.5t29 71.5t46.5 56t55 42.5t64 32.5t63 24.5t62.5 19.5l328 94v8q0 44 -33 73.5t-90 29.5q-58 0 -96.5 -30.5t-47.5 -80.5h-344
q18 192 151 284.5t337 92.5q70 0 132 -10.5t121.5 -37t102 -67.5t68.5 -107t26 -151v-348q0 -22 9.5 -31.5t31.5 -9.5h70v-307h-295q-101 0 -123 78l-8 28h-8q-128 -135 -324 -135zM492 225q102 0 159.5 59t57.5 154v8l-238 -69q-86 -24 -86 -82q0 -70 107 -70z" />
    <glyph glyph-name="atilde" unicode="&#xe3;" horiz-adv-x="1187" 
d="M446 1458q56 0 101 -21.5t80.5 -43t68.5 -21.5q56 0 62 62h225q-9 -147 -73.5 -219t-168.5 -72q-44 0 -82.5 13.5t-60.5 29.5t-50.5 29.5t-55.5 13.5q-56 0 -62 -62h-225q9 148 73.5 219.5t167.5 71.5zM389 -29q-46 0 -89 7t-90 26.5t-81.5 51t-57 84.5t-22.5 122
q0 48 12 89.5t29 71.5t46.5 56t55 42.5t64 32.5t63 24.5t62.5 19.5l328 94v8q0 44 -33 73.5t-90 29.5q-58 0 -96.5 -30.5t-47.5 -80.5h-344q18 192 151 284.5t337 92.5q70 0 132 -10.5t121.5 -37t102 -67.5t68.5 -107t26 -151v-348q0 -22 9.5 -31.5t31.5 -9.5h70v-307h-295
q-101 0 -123 78l-8 28h-8q-128 -135 -324 -135zM492 225q102 0 159.5 59t57.5 154v8l-238 -69q-86 -24 -86 -82q0 -70 107 -70z" />
    <glyph glyph-name="adieresis" unicode="&#xe4;" horiz-adv-x="1187" 
d="M369 1126q-84 0 -134.5 44t-50.5 120t50.5 120t134.5 44t134 -44t50 -120t-50 -120t-134 -44zM819 1126q-84 0 -134 44t-50 120t50 120t134 44t134.5 -44t50.5 -120t-50.5 -120t-134.5 -44zM389 -29q-46 0 -89 7t-90 26.5t-81.5 51t-57 84.5t-22.5 122q0 48 12 89.5
t29 71.5t46.5 56t55 42.5t64 32.5t63 24.5t62.5 19.5l328 94v8q0 44 -33 73.5t-90 29.5q-58 0 -96.5 -30.5t-47.5 -80.5h-344q18 192 151 284.5t337 92.5q70 0 132 -10.5t121.5 -37t102 -67.5t68.5 -107t26 -151v-348q0 -22 9.5 -31.5t31.5 -9.5h70v-307h-295
q-101 0 -123 78l-8 28h-8q-128 -135 -324 -135zM492 225q102 0 159.5 59t57.5 154v8l-238 -69q-86 -24 -86 -82q0 -70 107 -70z" />
    <glyph glyph-name="aring" unicode="&#xe5;" horiz-adv-x="1187" 
d="M594 1122q-108 0 -183 60.5t-75 169.5t75 169t183 60t183 -60t75 -169t-75 -169.5t-183 -60.5zM516 1352q0 -36 21.5 -55t56.5 -19t56.5 19t21.5 55t-21.5 54.5t-56.5 18.5t-56.5 -18.5t-21.5 -54.5zM389 -29q-46 0 -89 7t-90 26.5t-81.5 51t-57 84.5t-22.5 122
q0 48 12 89.5t29 71.5t46.5 56t55 42.5t64 32.5t63 24.5t62.5 19.5l328 94v8q0 44 -33 73.5t-90 29.5q-58 0 -96.5 -30.5t-47.5 -80.5h-344q18 192 151 284.5t337 92.5q70 0 132 -10.5t121.5 -37t102 -67.5t68.5 -107t26 -151v-348q0 -22 9.5 -31.5t31.5 -9.5h70v-307h-295
q-101 0 -123 78l-8 28h-8q-128 -135 -324 -135zM492 225q102 0 159.5 59t57.5 154v8l-238 -69q-86 -24 -86 -82q0 -70 107 -70z" />
    <glyph glyph-name="ae" unicode="&#xe6;" horiz-adv-x="1851" 
d="M438 -29q-389 0 -389 291q0 48 12 89.5t29 71.5t46.5 56t55 42.5t64 32.5t63 24.5t62.5 19.5l328 94v8q0 46 -29 74.5t-88 28.5q-61 0 -101 -30.5t-49 -80.5h-344q18 192 152.5 284.5t341.5 92.5q218 0 330 -127h4q121 127 327 127q152 0 273 -64.5t192.5 -188.5
t71.5 -288l-4 -114h-737q20 -84 73 -130t131 -46q111 0 168 81h348q-24 -67 -67.5 -127.5t-106.5 -111t-151.5 -80t-190.5 -29.5q-239 0 -381 164h-8q-72 -78 -171.5 -121t-254.5 -43zM1055 651h391q-49 152 -193 152q-72 0 -123.5 -40t-74.5 -112zM492 225q102 0 159.5 59
t57.5 154v8l-238 -69q-86 -24 -86 -82q0 -70 107 -70z" />
    <glyph glyph-name="ccedilla" unicode="&#xe7;" horiz-adv-x="1200" 
d="M430 -410v205h66q73 0 73 41t-73 41h-29l39 100q-204 30 -324.5 173t-120.5 370q0 255 149.5 402t395.5 147q96 0 181.5 -24.5t161 -74.5t128.5 -136.5t74 -202.5h-348q-60 131 -197 131q-97 0 -153 -63.5t-56 -178.5t56 -178t153 -63q137 0 197 131h348
q-19 -103 -63 -183.5t-106.5 -131.5t-135.5 -80.5t-156 -39.5l-14 -41q71 -14 119.5 -55.5t48.5 -111.5q0 -177 -332 -177h-82z" />
    <glyph glyph-name="egrave" unicode="&#xe8;" horiz-adv-x="1204" 
d="M647 1434l164 -267h-369l-163 267h368zM606 -29q-113 0 -213 39t-173.5 109t-116 174t-42.5 227t42.5 227t116 174t173.5 109t213 39q152 0 273 -64.5t192.5 -188.5t71.5 -288l-4 -114h-738q20 -84 73.5 -130t131.5 -46q111 0 168 81h348q-24 -67 -67.5 -127.5
t-106.5 -111t-151.5 -80t-190.5 -29.5zM408 651h391q-49 152 -193 152q-72 0 -123.5 -40t-74.5 -112z" />
    <glyph glyph-name="eacute" unicode="&#xe9;" horiz-adv-x="1204" 
d="M401 1167l164 267h369l-164 -267h-369zM606 -29q-113 0 -213 39t-173.5 109t-116 174t-42.5 227t42.5 227t116 174t173.5 109t213 39q152 0 273 -64.5t192.5 -188.5t71.5 -288l-4 -114h-738q20 -84 73.5 -130t131.5 -46q111 0 168 81h348q-24 -67 -67.5 -127.5
t-106.5 -111t-151.5 -80t-190.5 -29.5zM408 651h391q-49 152 -193 152q-72 0 -123.5 -40t-74.5 -112z" />
    <glyph glyph-name="ecircumflex" unicode="&#xea;" horiz-adv-x="1204" 
d="M217 1167l225 328h328l225 -328h-286l-99 144h-8l-98 -144h-287zM606 -29q-113 0 -213 39t-173.5 109t-116 174t-42.5 227t42.5 227t116 174t173.5 109t213 39q152 0 273 -64.5t192.5 -188.5t71.5 -288l-4 -114h-738q20 -84 73.5 -130t131.5 -46q111 0 168 81h348
q-24 -67 -67.5 -127.5t-106.5 -111t-151.5 -80t-190.5 -29.5zM408 651h391q-49 152 -193 152q-72 0 -123.5 -40t-74.5 -112z" />
    <glyph glyph-name="edieresis" unicode="&#xeb;" horiz-adv-x="1204" 
d="M381 1126q-84 0 -134 44t-50 120t50 120t134 44t134 -44t50 -120t-50 -120t-134 -44zM831 1126q-84 0 -134 44t-50 120t50 120t134 44t134.5 -44t50.5 -120t-50.5 -120t-134.5 -44zM606 -29q-113 0 -213 39t-173.5 109t-116 174t-42.5 227t42.5 227t116 174t173.5 109
t213 39q152 0 273 -64.5t192.5 -188.5t71.5 -288l-4 -114h-738q20 -84 73.5 -130t131.5 -46q111 0 168 81h348q-24 -67 -67.5 -127.5t-106.5 -111t-151.5 -80t-190.5 -29.5zM408 651h391q-49 152 -193 152q-72 0 -123.5 -40t-74.5 -112z" />
    <glyph glyph-name="igrave" unicode="&#xec;" horiz-adv-x="548" 
d="M315 1434l164 -267h-368l-164 267h368zM106 0v1040h336v-1040h-336z" />
    <glyph glyph-name="iacute" unicode="&#xed;" horiz-adv-x="548" 
d="M70 1167l163 267h369l-164 -267h-368zM106 0v1040h336v-1040h-336z" />
    <glyph glyph-name="icircumflex" unicode="&#xee;" horiz-adv-x="548" 
d="M-115 1167l226 328h327l226 -328h-287l-98 144h-9l-98 -144h-287zM106 0v1040h336v-1040h-336z" />
    <glyph glyph-name="idieresis" unicode="&#xef;" horiz-adv-x="548" 
d="M49 1126q-84 0 -134 44t-50 120t50 120t134 44t134 -44t50 -120t-50 -120t-134 -44zM500 1126q-84 0 -134.5 44t-50.5 120t50.5 120t134.5 44t134 -44t50 -120t-50 -120t-134 -44zM106 0v1040h336v-1040h-336z" />
    <glyph glyph-name="eth" unicode="&#xf0;" horiz-adv-x="1253" 
d="M229 1077l37 117q-59 6 -110 6v287q86 -5 196 -19l41 134l238 -58l-39 -125q289 -85 438.5 -283t149.5 -542q0 -302 -149.5 -462.5t-412.5 -160.5q-247 0 -402 136t-155 368q0 114 42 210.5t111.5 158.5t156 96.5t178.5 34.5q172 0 266 -94h8q-53 179 -317 264l-39 -125z
M618 279q95 0 158.5 53t63.5 143t-63.5 143.5t-158.5 53.5t-158 -53.5t-63 -143.5t63 -143t158 -53z" />
    <glyph glyph-name="ntilde" unicode="&#xf1;" horiz-adv-x="1265" 
d="M496 1458q44 0 82.5 -13.5t60.5 -29.5t50.5 -29.5t55.5 -13.5q56 0 62 62h225q-9 -148 -73.5 -219.5t-167.5 -71.5q-56 0 -101 21.5t-80.5 43t-68.5 21.5q-56 0 -62 -62h-225q9 147 73.5 219t168.5 72zM106 0v1040h336v-106h9q143 135 323 135q81 0 151.5 -28t125 -82
t85.5 -141.5t31 -199.5v-618h-336v553q0 58 -16.5 100.5t-45 64t-58.5 31t-64 9.5q-86 0 -145.5 -59.5t-59.5 -182.5v-516h-336z" />
    <glyph glyph-name="ograve" unicode="&#xf2;" horiz-adv-x="1236" 
d="M659 1434l164 -267h-368l-164 267h368zM618 -29q-247 0 -402 149t-155 400t155 400t402 149t402.5 -149t155.5 -400t-155.5 -400t-402.5 -149zM618 279q96 0 159 64t63 177t-63 177.5t-159 64.5t-158.5 -64.5t-62.5 -177.5t62.5 -177t158.5 -64z" />
    <glyph glyph-name="oacute" unicode="&#xf3;" horiz-adv-x="1236" 
d="M414 1167l164 267h368l-164 -267h-368zM618 -29q-247 0 -402 149t-155 400t155 400t402 149t402.5 -149t155.5 -400t-155.5 -400t-402.5 -149zM618 279q96 0 159 64t63 177t-63 177.5t-159 64.5t-158.5 -64.5t-62.5 -177.5t62.5 -177t158.5 -64z" />
    <glyph glyph-name="ocircumflex" unicode="&#xf4;" horiz-adv-x="1236" 
d="M229 1167l226 328h327l226 -328h-287l-98 144h-9l-98 -144h-287zM618 -29q-247 0 -402 149t-155 400t155 400t402 149t402.5 -149t155.5 -400t-155.5 -400t-402.5 -149zM618 279q96 0 159 64t63 177t-63 177.5t-159 64.5t-158.5 -64.5t-62.5 -177.5t62.5 -177t158.5 -64z
" />
    <glyph glyph-name="otilde" unicode="&#xf5;" horiz-adv-x="1236" 
d="M471 1458q56 0 101 -21.5t80.5 -43t68.5 -21.5q30 0 44 15t17 47h226q-9 -147 -73.5 -219t-168.5 -72q-56 0 -101 21.5t-80.5 43t-68.5 21.5q-30 0 -44 -15t-17 -47h-226q9 147 73.5 219t168.5 72zM618 -29q-247 0 -402 149t-155 400t155 400t402 149t402.5 -149
t155.5 -400t-155.5 -400t-402.5 -149zM618 279q96 0 159 64t63 177t-63 177.5t-159 64.5t-158.5 -64.5t-62.5 -177.5t62.5 -177t158.5 -64z" />
    <glyph glyph-name="odieresis" unicode="&#xf6;" horiz-adv-x="1236" 
d="M393 1126q-84 0 -134 44t-50 120t50 120t134 44t134.5 -44t50.5 -120t-50.5 -120t-134.5 -44zM844 1126q-84 0 -134.5 44t-50.5 120t50.5 120t134.5 44t134 -44t50 -120t-50 -120t-134 -44zM618 -29q-247 0 -402 149t-155 400t155 400t402 149t402.5 -149t155.5 -400
t-155.5 -400t-402.5 -149zM618 279q96 0 159 64t63 177t-63 177.5t-159 64.5t-158.5 -64.5t-62.5 -177.5t62.5 -177t158.5 -64z" />
    <glyph glyph-name="divide" unicode="&#xf7;" horiz-adv-x="1146" 
d="M573 850q-93 0 -146.5 50.5t-53.5 141.5t53.5 142t146.5 51t147 -51t54 -142t-54 -141.5t-147 -50.5zM61 461v307h1024v-307h-1024zM573 -6q-93 0 -146.5 50.5t-53.5 141.5t53.5 142t146.5 51t147 -51t54 -142t-54 -141.5t-147 -50.5z" />
    <glyph glyph-name="oslash" unicode="&#xf8;" horiz-adv-x="1236" 
d="M618 -29q-81 0 -159 19l-62 -113h-254l113 209q-93 72 -144 183t-51 251q0 251 155 400t402 149q86 0 160 -18l62 112h254l-113 -209q93 -72 144 -183t51 -251q0 -251 -155.5 -400t-402.5 -149zM424 395l199 367q-105 0 -165.5 -67.5t-60.5 -174.5q0 -66 27 -125z
M614 279q105 0 165.5 67t60.5 174q0 66 -27 125z" />
    <glyph glyph-name="ugrave" unicode="&#xf9;" horiz-adv-x="1265" 
d="M664 1434l163 -267h-368l-164 267h369zM1159 1040v-1040h-336v106h-8q-143 -135 -323 -135q-170 0 -282 116t-112 335v618h336v-553q0 -58 16.5 -100.5t45 -63.5t58.5 -30.5t64 -9.5q86 0 145.5 59t59.5 182v516h336z" />
    <glyph glyph-name="uacute" unicode="&#xfa;" horiz-adv-x="1265" 
d="M418 1167l164 267h368l-164 -267h-368zM1159 1040v-1040h-336v106h-8q-143 -135 -323 -135q-170 0 -282 116t-112 335v618h336v-553q0 -58 16.5 -100.5t45 -63.5t58.5 -30.5t64 -9.5q86 0 145.5 59t59.5 182v516h336z" />
    <glyph glyph-name="ucircumflex" unicode="&#xfb;" horiz-adv-x="1265" 
d="M233 1167l226 328h327l226 -328h-287l-98 144h-9l-98 -144h-287zM1159 1040v-1040h-336v106h-8q-143 -135 -323 -135q-170 0 -282 116t-112 335v618h336v-553q0 -58 16.5 -100.5t45 -63.5t58.5 -30.5t64 -9.5q86 0 145.5 59t59.5 182v516h336z" />
    <glyph glyph-name="udieresis" unicode="&#xfc;" horiz-adv-x="1265" 
d="M397 1126q-84 0 -134 44t-50 120t50 120t134 44t134.5 -44t50.5 -120t-50.5 -120t-134.5 -44zM848 1126q-84 0 -134 44t-50 120t50 120t134 44t134 -44t50 -120t-50 -120t-134 -44zM1159 1040v-1040h-336v106h-8q-143 -135 -323 -135q-170 0 -282 116t-112 335v618h336
v-553q0 -58 16.5 -100.5t45 -63.5t58.5 -30.5t64 -9.5q86 0 145.5 59t59.5 182v516h336z" />
    <glyph glyph-name="yacute" unicode="&#xfd;" 
d="M438 1167l164 267h369l-164 -267h-369zM176 -410v308h172q102 0 139 98l2 6l-460 1038h360l258 -598h12l230 598h352l-459 -1155q-46 -118 -97.5 -179.5t-129.5 -88.5t-207 -27h-172z" />
    <glyph glyph-name="thorn" unicode="&#xfe;" 
d="M766 1069q208 0 325 -146.5t117 -402.5t-117 -402.5t-325 -146.5q-195 0 -315 135h-9v-516h-336v1844h336v-500h9q120 135 315 135zM655 279q94 0 155.5 66.5t61.5 174.5q0 109 -61.5 175.5t-155.5 66.5t-157.5 -67t-63.5 -175t63.5 -174.5t157.5 -66.5z" />
    <glyph glyph-name="ydieresis" unicode="&#xff;" 
d="M418 1126q-84 0 -134.5 44t-50.5 120t50.5 120t134.5 44t134 -44t50 -120t-50 -120t-134 -44zM868 1126q-84 0 -134 44t-50 120t50 120t134 44t134.5 -44t50.5 -120t-50.5 -120t-134.5 -44zM176 -410v308h172q102 0 139 98l2 6l-460 1038h360l258 -598h12l230 598h352
l-459 -1155q-46 -118 -97.5 -179.5t-129.5 -88.5t-207 -27h-172z" />
    <glyph glyph-name="Amacron" unicode="&#x100;" horiz-adv-x="1638" 
d="M471 1581v225h696v-225h-696zM1618 0h-385l-107 270h-614l-106 -270h-386l574 1434h450zM637 590h364l-178 450h-8z" />
    <glyph glyph-name="amacron" unicode="&#x101;" horiz-adv-x="1187" 
d="M246 1188v225h696v-225h-696zM389 -29q-46 0 -89 7t-90 26.5t-81.5 51t-57 84.5t-22.5 122q0 48 12 89.5t29 71.5t46.5 56t55 42.5t64 32.5t63 24.5t62.5 19.5l328 94v8q0 44 -33 73.5t-90 29.5q-58 0 -96.5 -30.5t-47.5 -80.5h-344q18 192 151 284.5t337 92.5
q70 0 132 -10.5t121.5 -37t102 -67.5t68.5 -107t26 -151v-348q0 -22 9.5 -31.5t31.5 -9.5h70v-307h-295q-101 0 -123 78l-8 28h-8q-128 -135 -324 -135zM492 225q102 0 159.5 59t57.5 154v8l-238 -69q-86 -24 -86 -82q0 -70 107 -70z" />
    <glyph glyph-name="Abreve" unicode="&#x102;" horiz-adv-x="1638" 
d="M821 1556q-168 0 -258.5 88t-93.5 244h229q0 -63 36 -95t87 -32t87 32t36 95h230q-3 -156 -94 -244t-259 -88zM1618 0h-385l-107 270h-614l-106 -270h-386l574 1434h450zM637 590h364l-178 450h-8z" />
    <glyph glyph-name="abreve" unicode="&#x103;" horiz-adv-x="1187" 
d="M596 1163q-168 0 -258.5 88t-93.5 244h229q0 -63 36 -95t87 -32t87 32t36 95h229q-3 -156 -93.5 -244t-258.5 -88zM389 -29q-46 0 -89 7t-90 26.5t-81.5 51t-57 84.5t-22.5 122q0 48 12 89.5t29 71.5t46.5 56t55 42.5t64 32.5t63 24.5t62.5 19.5l328 94v8q0 44 -33 73.5
t-90 29.5q-58 0 -96.5 -30.5t-47.5 -80.5h-344q18 192 151 284.5t337 92.5q70 0 132 -10.5t121.5 -37t102 -67.5t68.5 -107t26 -151v-348q0 -22 9.5 -31.5t31.5 -9.5h70v-307h-295q-101 0 -123 78l-8 28h-8q-128 -135 -324 -135zM492 225q102 0 159.5 59t57.5 154v8
l-238 -69q-86 -24 -86 -82q0 -70 107 -70z" />
    <glyph glyph-name="Aogonek" unicode="&#x104;" horiz-adv-x="1638" 
d="M1618 0q-135 -39 -135 -102q0 -32 29.5 -47t76.5 -15h29v-246h-143q-125 0 -196 52.5t-71 152.5q0 66 33 118.5t88 86.5h-96l-107 270h-614l-106 -270h-386l574 1434h450zM637 590h364l-178 450h-8z" />
    <glyph glyph-name="aogonek" unicode="&#x105;" horiz-adv-x="1187" 
d="M389 -29q-46 0 -89 7t-90 26.5t-81.5 51t-57 84.5t-22.5 122q0 48 12 89.5t29 71.5t46.5 56t55 42.5t64 32.5t63 24.5t62.5 19.5l328 94v8q0 44 -33 73.5t-90 29.5q-58 0 -96.5 -30.5t-47.5 -80.5h-344q18 192 151 284.5t337 92.5q70 0 132 -10.5t121.5 -37t102 -67.5
t68.5 -107t26 -151v-348q0 -22 9.5 -31.5t31.5 -9.5h70v-307q-135 -39 -135 -102q0 -32 29.5 -47t76.5 -15h29v-246h-143q-125 0 -196 52.5t-71 152.5q0 66 33 118.5t88 86.5h-6q-101 0 -123 78l-8 28h-8q-128 -135 -324 -135zM492 225q102 0 159.5 59t57.5 154v8l-238 -69
q-86 -24 -86 -82q0 -70 107 -70z" />
    <glyph glyph-name="Cacute" unicode="&#x106;" horiz-adv-x="1617" 
d="M614 1561l164 266h369l-164 -266h-369zM823 -29q-214 0 -380 90t-259.5 260t-93.5 396t93.5 396t259.5 259.5t380 89.5q284 0 480 -156t245 -425h-377q-41 123 -128.5 188.5t-219.5 65.5q-175 0 -276 -112t-101 -306t101 -306t276 -112q132 0 219.5 65.5t128.5 188.5h377
q-49 -269 -245 -425.5t-480 -156.5z" />
    <glyph glyph-name="cacute" unicode="&#x107;" horiz-adv-x="1200" 
d="M397 1167l164 267h369l-164 -267h-369zM606 -29q-246 0 -395.5 147t-149.5 402t149.5 402t395.5 147q96 0 181.5 -24.5t161 -74.5t128.5 -136.5t74 -202.5h-348q-60 131 -197 131q-97 0 -153 -63.5t-56 -178.5t56 -178t153 -63q137 0 197 131h348q-21 -116 -74 -202.5
t-128.5 -137t-161 -75t-181.5 -24.5z" />
    <glyph glyph-name="Ccircumflex" unicode="&#x108;" horiz-adv-x="1617" 
d="M430 1561l225 327h328l225 -327h-286l-99 143h-8l-98 -143h-287zM823 -29q-214 0 -380 90t-259.5 260t-93.5 396t93.5 396t259.5 259.5t380 89.5q284 0 480 -156t245 -425h-377q-41 123 -128.5 188.5t-219.5 65.5q-175 0 -276 -112t-101 -306t101 -306t276 -112
q132 0 219.5 65.5t128.5 188.5h377q-49 -269 -245 -425.5t-480 -156.5z" />
    <glyph glyph-name="ccircumflex" unicode="&#x109;" horiz-adv-x="1200" 
d="M213 1167l225 328h328l225 -328h-286l-99 144h-8l-98 -144h-287zM606 -29q-246 0 -395.5 147t-149.5 402t149.5 402t395.5 147q96 0 181.5 -24.5t161 -74.5t128.5 -136.5t74 -202.5h-348q-60 131 -197 131q-97 0 -153 -63.5t-56 -178.5t56 -178t153 -63q137 0 197 131
h348q-21 -116 -74 -202.5t-128.5 -137t-161 -75t-181.5 -24.5z" />
    <glyph glyph-name="Cdotaccent" unicode="&#x10a;" horiz-adv-x="1617" 
d="M819 1520q-88 0 -142 44t-54 119t54 119.5t142 44.5t142.5 -44.5t54.5 -119.5t-54.5 -119t-142.5 -44zM823 -29q-214 0 -380 90t-259.5 260t-93.5 396t93.5 396t259.5 259.5t380 89.5q284 0 480 -156t245 -425h-377q-41 123 -128.5 188.5t-219.5 65.5q-175 0 -276 -112
t-101 -306t101 -306t276 -112q132 0 219.5 65.5t128.5 188.5h377q-49 -269 -245 -425.5t-480 -156.5z" />
    <glyph glyph-name="cdotaccent" unicode="&#x10b;" horiz-adv-x="1200" 
d="M602 1126q-88 0 -142 44.5t-54 119.5t54 119.5t142 44.5t142.5 -44.5t54.5 -119.5t-54.5 -119.5t-142.5 -44.5zM606 -29q-246 0 -395.5 147t-149.5 402t149.5 402t395.5 147q96 0 181.5 -24.5t161 -74.5t128.5 -136.5t74 -202.5h-348q-60 131 -197 131q-97 0 -153 -63.5
t-56 -178.5t56 -178t153 -63q137 0 197 131h348q-21 -116 -74 -202.5t-128.5 -137t-161 -75t-181.5 -24.5z" />
    <glyph glyph-name="Ccaron" unicode="&#x10c;" horiz-adv-x="1617" 
d="M655 1561l-225 327h287l98 -143h8l99 143h286l-225 -327h-328zM823 -29q-214 0 -380 90t-259.5 260t-93.5 396t93.5 396t259.5 259.5t380 89.5q284 0 480 -156t245 -425h-377q-41 123 -128.5 188.5t-219.5 65.5q-175 0 -276 -112t-101 -306t101 -306t276 -112
q132 0 219.5 65.5t128.5 188.5h377q-49 -269 -245 -425.5t-480 -156.5z" />
    <glyph glyph-name="ccaron" unicode="&#x10d;" horiz-adv-x="1200" 
d="M438 1167l-225 328h287l98 -143h8l99 143h286l-225 -328h-328zM606 -29q-246 0 -395.5 147t-149.5 402t149.5 402t395.5 147q96 0 181.5 -24.5t161 -74.5t128.5 -136.5t74 -202.5h-348q-60 131 -197 131q-97 0 -153 -63.5t-56 -178.5t56 -178t153 -63q137 0 197 131h348
q-21 -116 -74 -202.5t-128.5 -137t-161 -75t-181.5 -24.5z" />
    <glyph glyph-name="Dcaron" unicode="&#x10e;" horiz-adv-x="1597" 
d="M623 1561l-226 327h287l98 -143h9l98 143h287l-226 -327h-327zM135 0v1434h631q216 0 382.5 -82.5t262.5 -246.5t96 -388t-96 -388t-262.5 -246.5t-382.5 -82.5h-631zM492 319h274q179 0 282 101.5t103 296.5t-103 296t-282 101h-274v-795z" />
    <glyph glyph-name="dcaron" unicode="&#x10f;" 
d="M504 -29q-208 0 -325.5 146.5t-117.5 402.5t117.5 402.5t325.5 146.5q195 0 315 -135h8v500h336v-1434h-336v106h-8q-120 -135 -315 -135zM1229 1106l82 328h266l-82 -328h-266zM614 279q94 0 158 66.5t64 174.5t-64 175t-158 67t-155.5 -66.5t-61.5 -175.5
q0 -108 61.5 -174.5t155.5 -66.5z" />
    <glyph glyph-name="Dcroat" unicode="&#x110;" horiz-adv-x="1638" 
d="M176 0v569h-156v328h156v537h631q216 0 382.5 -82.5t262.5 -246.5t96 -388t-96 -388t-262.5 -246.5t-382.5 -82.5h-631zM532 319h275q179 0 282 101.5t103 296.5t-103 296t-282 101h-275v-217h316v-328h-316v-250z" />
    <glyph glyph-name="dcroat" unicode="&#x111;" 
d="M504 -29q-208 0 -325.5 135.5t-117.5 372.5t117.5 372.5t325.5 135.5q195 0 315 -135h8v188h-249v287h249v107h336v-107h140v-287h-140v-1040h-336v106h-8q-120 -135 -315 -135zM397 479q0 -91 61.5 -145.5t155.5 -54.5q95 0 158.5 55t63.5 145t-63.5 145.5t-158.5 55.5
q-94 0 -155.5 -55t-61.5 -146z" />
    <glyph glyph-name="Emacron" unicode="&#x112;" horiz-adv-x="1458" 
d="M406 1581v225h696v-225h-696zM492 578v-259h864v-319h-1221v1434h1221v-320h-864v-229h782v-307h-782z" />
    <glyph glyph-name="emacron" unicode="&#x113;" horiz-adv-x="1204" 
d="M258 1188v225h696v-225h-696zM606 -29q-113 0 -213 39t-173.5 109t-116 174t-42.5 227t42.5 227t116 174t173.5 109t213 39q152 0 273 -64.5t192.5 -188.5t71.5 -288l-4 -114h-738q20 -84 73.5 -130t131.5 -46q111 0 168 81h348q-24 -67 -67.5 -127.5t-106.5 -111
t-151.5 -80t-190.5 -29.5zM408 651h391q-49 152 -193 152q-72 0 -123.5 -40t-74.5 -112z" />
    <glyph glyph-name="Ebreve" unicode="&#x114;" horiz-adv-x="1458" 
d="M756 1556q-168 0 -259 88t-94 244h230q0 -63 36 -95t87 -32t87 32t36 95h229q-3 -156 -93.5 -244t-258.5 -88zM492 578v-259h864v-319h-1221v1434h1221v-320h-864v-229h782v-307h-782z" />
    <glyph glyph-name="ebreve" unicode="&#x115;" horiz-adv-x="1204" 
d="M608 1163q-168 0 -258.5 88t-93.5 244h229q0 -63 36 -95t87 -32t87 32t36 95h230q-3 -156 -94 -244t-259 -88zM606 -29q-113 0 -213 39t-173.5 109t-116 174t-42.5 227t42.5 227t116 174t173.5 109t213 39q152 0 273 -64.5t192.5 -188.5t71.5 -288l-4 -114h-738
q20 -84 73.5 -130t131.5 -46q111 0 168 81h348q-24 -67 -67.5 -127.5t-106.5 -111t-151.5 -80t-190.5 -29.5zM408 651h391q-49 152 -193 152q-72 0 -123.5 -40t-74.5 -112z" />
    <glyph glyph-name="Edotaccent" unicode="&#x116;" horiz-adv-x="1458" 
d="M754 1520q-88 0 -142.5 44t-54.5 119t54.5 119.5t142.5 44.5t142 -44.5t54 -119.5t-54 -119t-142 -44zM492 578v-259h864v-319h-1221v1434h1221v-320h-864v-229h782v-307h-782z" />
    <glyph glyph-name="edotaccent" unicode="&#x117;" horiz-adv-x="1204" 
d="M606 1126q-88 0 -142 44.5t-54 119.5t54 119.5t142 44.5t142.5 -44.5t54.5 -119.5t-54.5 -119.5t-142.5 -44.5zM606 -29q-113 0 -213 39t-173.5 109t-116 174t-42.5 227t42.5 227t116 174t173.5 109t213 39q152 0 273 -64.5t192.5 -188.5t71.5 -288l-4 -114h-738
q20 -84 73.5 -130t131.5 -46q111 0 168 81h348q-24 -67 -67.5 -127.5t-106.5 -111t-151.5 -80t-190.5 -29.5zM408 651h391q-49 152 -193 152q-72 0 -123.5 -40t-74.5 -112z" />
    <glyph glyph-name="Eogonek" unicode="&#x118;" horiz-adv-x="1458" 
d="M492 578v-259h864v-319q-135 -39 -135 -102q0 -32 29.5 -47t76.5 -15h29v-246h-144q-125 0 -195.5 52.5t-70.5 152.5q0 66 33 118.5t88 86.5h-932v1434h1221v-320h-864v-229h782v-307h-782z" />
    <glyph glyph-name="eogonek" unicode="&#x119;" horiz-adv-x="1204" 
d="M647 -410q-125 0 -195.5 52.5t-70.5 152.5q0 115 98 189q-186 39 -302 182.5t-116 353.5q0 123 42.5 227t116 174t173.5 109t213 39q152 0 273 -64.5t192.5 -188.5t71.5 -288l-4 -114h-738q20 -84 73.5 -130t131.5 -46q111 0 168 81h348q-40 -113 -133 -203.5
t-229 -125.5q-105 -36 -105 -92q0 -32 30 -47t77 -15h29v-246h-144zM408 651h391q-49 152 -193 152q-72 0 -123.5 -40t-74.5 -112z" />
    <glyph glyph-name="Ecaron" unicode="&#x11a;" horiz-adv-x="1458" 
d="M590 1561l-225 327h286l99 -143h8l98 143h287l-225 -327h-328zM492 578v-259h864v-319h-1221v1434h1221v-320h-864v-229h782v-307h-782z" />
    <glyph glyph-name="ecaron" unicode="&#x11b;" horiz-adv-x="1204" 
d="M442 1167l-225 328h287l98 -143h8l99 143h286l-225 -328h-328zM606 -29q-113 0 -213 39t-173.5 109t-116 174t-42.5 227t42.5 227t116 174t173.5 109t213 39q152 0 273 -64.5t192.5 -188.5t71.5 -288l-4 -114h-738q20 -84 73.5 -130t131.5 -46q111 0 168 81h348
q-24 -67 -67.5 -127.5t-106.5 -111t-151.5 -80t-190.5 -29.5zM408 651h391q-49 152 -193 152q-72 0 -123.5 -40t-74.5 -112z" />
    <glyph glyph-name="Gcircumflex" unicode="&#x11c;" horiz-adv-x="1662" 
d="M430 1561l225 327h328l225 -327h-286l-99 143h-8l-98 -143h-287zM807 -29q-152 0 -284 52.5t-227.5 147.5t-150.5 236t-55 310t55.5 309.5t153.5 235.5t235 147.5t297 52.5q262 0 445 -132t256 -367h-393q-95 172 -308 172q-176 0 -280.5 -112.5t-104.5 -305.5
q0 -194 108 -306t298 -112q143 0 252.5 62t148.5 171h-454v287h749v-819h-286v143h-9q-172 -172 -446 -172z" />
    <glyph glyph-name="gcircumflex" unicode="&#x11d;" 
d="M225 1167l226 328h327l226 -328h-287l-99 144h-8l-98 -144h-287zM504 1069q195 0 315 -135h8v106h336v-950q0 -141 -39.5 -244.5t-112 -164.5t-167 -90t-213.5 -29q-226 0 -365 96t-168 252h369q55 -62 164 -62q97 0 146.5 56t49.5 186v57h-8q-120 -135 -315 -135
q-207 0 -325 144.5t-118 384.5q0 239 118 383.5t325 144.5zM614 762q-93 0 -155 -62t-62 -159t62 -159.5t155 -62.5q94 0 158 62.5t64 159.5t-64 159t-158 62z" />
    <glyph glyph-name="Gbreve" unicode="&#x11e;" horiz-adv-x="1662" 
d="M821 1556q-168 0 -258.5 88t-93.5 244h229q0 -63 36 -95t87 -32t87 32t36 95h230q-3 -156 -94 -244t-259 -88zM807 -29q-152 0 -284 52.5t-227.5 147.5t-150.5 236t-55 310t55.5 309.5t153.5 235.5t235 147.5t297 52.5q262 0 445 -132t256 -367h-393q-95 172 -308 172
q-176 0 -280.5 -112.5t-104.5 -305.5q0 -194 108 -306t298 -112q143 0 252.5 62t148.5 171h-454v287h749v-819h-286v143h-9q-172 -172 -446 -172z" />
    <glyph glyph-name="gbreve" unicode="&#x11f;" 
d="M616 1163q-168 0 -258.5 88t-93.5 244h230q0 -63 35.5 -95t86.5 -32t87 32t36 95h230q-3 -156 -94 -244t-259 -88zM504 1069q195 0 315 -135h8v106h336v-950q0 -141 -39.5 -244.5t-112 -164.5t-167 -90t-213.5 -29q-226 0 -365 96t-168 252h369q55 -62 164 -62
q97 0 146.5 56t49.5 186v57h-8q-120 -135 -315 -135q-207 0 -325 144.5t-118 384.5q0 239 118 383.5t325 144.5zM614 762q-93 0 -155 -62t-62 -159t62 -159.5t155 -62.5q94 0 158 62.5t64 159.5t-64 159t-158 62z" />
    <glyph glyph-name="Gdotaccent" unicode="&#x120;" horiz-adv-x="1662" 
d="M819 1520q-88 0 -142 44t-54 119t54 119.5t142 44.5t142.5 -44.5t54.5 -119.5t-54.5 -119t-142.5 -44zM807 -29q-152 0 -284 52.5t-227.5 147.5t-150.5 236t-55 310t55.5 309.5t153.5 235.5t235 147.5t297 52.5q262 0 445 -132t256 -367h-393q-95 172 -308 172
q-176 0 -280.5 -112.5t-104.5 -305.5q0 -194 108 -306t298 -112q143 0 252.5 62t148.5 171h-454v287h749v-819h-286v143h-9q-172 -172 -446 -172z" />
    <glyph glyph-name="gdotaccent" unicode="&#x121;" 
d="M614 1126q-88 0 -142 44.5t-54 119.5t54 119.5t142 44.5t142.5 -44.5t54.5 -119.5t-54.5 -119.5t-142.5 -44.5zM504 1069q195 0 315 -135h8v106h336v-950q0 -141 -39.5 -244.5t-112 -164.5t-167 -90t-213.5 -29q-226 0 -365 96t-168 252h369q55 -62 164 -62
q97 0 146.5 56t49.5 186v57h-8q-120 -135 -315 -135q-207 0 -325 144.5t-118 384.5q0 239 118 383.5t325 144.5zM614 762q-93 0 -155 -62t-62 -159t62 -159.5t155 -62.5q94 0 158 62.5t64 159.5t-64 159t-158 62z" />
    <glyph glyph-name="uni0122" unicode="&#x122;" horiz-adv-x="1662" 
d="M807 -29q-152 0 -284 52.5t-227.5 147.5t-150.5 236t-55 310t55.5 309.5t153.5 235.5t235 147.5t297 52.5q262 0 445 -132t256 -367h-393q-95 172 -308 172q-176 0 -280.5 -112.5t-104.5 -305.5q0 -194 108 -306t298 -112q143 0 252.5 62t148.5 171h-454v287h749v-819
h-286v143h-9q-172 -172 -446 -172zM688 -696l94 227q-73 9 -116 51.5t-43 110.5q0 79 51.5 121.5t144.5 42.5q94 0 145.5 -47t51.5 -138q0 -88 -37 -172l-86 -196h-205z" />
    <glyph glyph-name="uni0123" unicode="&#x123;" 
d="M745 1679l-94 -227q73 -9 116.5 -51.5t43.5 -110.5q0 -79 -52 -121.5t-145 -42.5q-94 0 -145 47t-51 138q0 88 37 172l86 196h204zM504 1069q195 0 315 -135h8v106h336v-950q0 -141 -39.5 -244.5t-112 -164.5t-167 -90t-213.5 -29q-226 0 -365 96t-168 252h369
q55 -62 164 -62q97 0 146.5 56t49.5 186v57h-8q-120 -135 -315 -135q-207 0 -325 144.5t-118 384.5q0 239 118 383.5t325 144.5zM614 762q-93 0 -155 -62t-62 -159t62 -159.5t155 -62.5q94 0 158 62.5t64 159.5t-64 159t-158 62z" />
    <glyph glyph-name="Hcircumflex" unicode="&#x124;" horiz-adv-x="1601" 
d="M412 1561l225 327h328l225 -327h-287l-98 143h-8l-99 -143h-286zM135 0v1434h357v-537h618v537h356v-1434h-356v569h-618v-569h-357z" />
    <glyph glyph-name="hcircumflex" unicode="&#x125;" horiz-adv-x="1265" 
d="M-115 1561l226 327h327l226 -327h-287l-98 143h-9l-98 -143h-287zM106 0v1434h336v-500h9q143 135 323 135q81 0 151.5 -28t125 -82t85.5 -141.5t31 -199.5v-618h-336v553q0 58 -16.5 100.5t-45 64t-58.5 31t-64 9.5q-86 0 -145.5 -59.5t-59.5 -182.5v-516h-336z" />
    <glyph glyph-name="Hbar" unicode="&#x126;" horiz-adv-x="1617" 
d="M4 1040v287h139v107h357v-107h618v107h357v-107h139v-287h-139v-1040h-357v569h-618v-569h-357v1040h-139zM500 897h618v143h-618v-143z" />
    <glyph glyph-name="hbar" unicode="&#x127;" horiz-adv-x="1265" 
d="M106 0v1040h-139v287h139v123h336v-123h250v-287h-250v-188h9q143 135 323 135q170 0 281.5 -115.5t111.5 -334.5v-537h-336v471q0 58 -16.5 100.5t-45 64t-58.5 31t-64 9.5q-86 0 -145.5 -59.5t-59.5 -182.5v-434h-336z" />
    <glyph glyph-name="Itilde" unicode="&#x128;" horiz-adv-x="626" 
d="M166 1851q56 0 101 -21.5t80.5 -43t68.5 -21.5q30 0 44 15t17 47h225q-9 -148 -73.5 -219.5t-167.5 -71.5q-56 0 -101 21.5t-80.5 43t-68.5 21.5q-30 0 -44 -14.5t-17 -46.5h-226q9 147 73.5 218.5t168.5 71.5zM135 0v1434h357v-1434h-357z" />
    <glyph glyph-name="itilde" unicode="&#x129;" horiz-adv-x="548" 
d="M127 1458q56 0 101 -21.5t80.5 -43t68.5 -21.5q30 0 44 15t17 47h226q-9 -147 -73.5 -219t-168.5 -72q-56 0 -101 21.5t-80.5 43t-68.5 21.5q-30 0 -44 -15t-17 -47h-226q9 147 73.5 219t168.5 72zM106 0v1040h336v-1040h-336z" />
    <glyph glyph-name="Imacron" unicode="&#x12a;" horiz-adv-x="626" 
d="M-35 1581v225h697v-225h-697zM135 0v1434h357v-1434h-357z" />
    <glyph glyph-name="imacron" unicode="&#x12b;" horiz-adv-x="548" 
d="M-74 1188v225h697v-225h-697zM106 0v1040h336v-1040h-336z" />
    <glyph glyph-name="Ibreve" unicode="&#x12c;" horiz-adv-x="626" 
d="M315 1556q-168 0 -258.5 88t-93.5 244h230q0 -63 35.5 -95t86.5 -32t87 32t36 95h230q-3 -156 -94 -244t-259 -88zM135 0v1434h357v-1434h-357z" />
    <glyph glyph-name="ibreve" unicode="&#x12d;" horiz-adv-x="548" 
d="M276 1163q-168 0 -258.5 88t-93.5 244h230q0 -63 35.5 -95t86.5 -32t87 32t36 95h230q-3 -156 -94 -244t-259 -88zM106 0v1040h336v-1040h-336z" />
    <glyph glyph-name="Iogonek" unicode="&#x12e;" horiz-adv-x="626" 
d="M135 0v1434h357v-1434q-136 -40 -136 -102q0 -32 30 -47t77 -15h29v-246h-144q-125 0 -195.5 52.5t-70.5 152.5q0 66 33 118.5t88 86.5h-68z" />
    <glyph glyph-name="iogonek" unicode="&#x12f;" horiz-adv-x="606" 
d="M303 1126q-88 0 -142.5 44.5t-54.5 119.5t54.5 119.5t142.5 44.5t142.5 -44.5t54.5 -119.5t-54.5 -119.5t-142.5 -44.5zM135 0v1040h336v-1040q-135 -39 -135 -102q0 -32 29.5 -47t76.5 -15h29v-246h-143q-125 0 -196 52.5t-71 152.5q0 66 33 118.5t88 86.5h-47z" />
    <glyph glyph-name="Idotaccent" unicode="&#x130;" horiz-adv-x="626" 
d="M313 1520q-88 0 -142 44t-54 119t54 119.5t142 44.5t142.5 -44.5t54.5 -119.5t-54.5 -119t-142.5 -44zM135 0v1434h357v-1434h-357z" />
    <glyph glyph-name="dotlessi" unicode="&#x131;" horiz-adv-x="548" 
d="M106 0v1040h336v-1040h-336z" />
    <glyph glyph-name="IJ" unicode="&#x132;" horiz-adv-x="2031" 
d="M135 0v1434h357v-1434h-357zM688 0v336h778q52 0 67 15t15 67v1016h357v-1078q0 -205 -75.5 -280.5t-281.5 -75.5h-860z" />
    <glyph glyph-name="ij" unicode="&#x133;" horiz-adv-x="1183" 
d="M303 1126q-88 0 -142.5 44.5t-54.5 119.5t54.5 119.5t142.5 44.5t142.5 -44.5t54.5 -119.5t-54.5 -119.5t-142.5 -44.5zM881 1126q-88 0 -142.5 44.5t-54.5 119.5t54.5 119.5t142.5 44.5t142 -44.5t54 -119.5t-54 -119.5t-142 -44.5zM135 0v1040h336v-1040h-336z
M483 -410v316h168q37 0 49.5 12t12.5 49v1073h336v-1101q0 -185 -82.5 -267t-266.5 -82h-217z" />
    <glyph glyph-name="Jcircumflex" unicode="&#x134;" horiz-adv-x="1404" 
d="M711 1561l225 327h328l225 -327h-287l-98 143h-8l-99 -143h-286zM61 0v336h779q52 0 67 15t15 67v1016h356v-1078q0 -206 -75 -281t-281 -75h-861z" />
    <glyph glyph-name="jcircumflex" unicode="&#x135;" horiz-adv-x="548" 
d="M-115 1167l226 328h327l226 -328h-287l-98 144h-9l-98 -144h-287zM-123 -410v316h168q37 0 49 12t12 49v1073h336v-1101q0 -185 -82 -267t-266 -82h-217z" />
    <glyph glyph-name="uni0136" unicode="&#x136;" horiz-adv-x="1568" 
d="M135 0v1434h357v-537h165l451 537h428l-594 -701l606 -733h-436l-467 569h-153v-569h-357zM627 -696l94 227q-73 9 -116.5 51.5t-43.5 110.5q0 79 52 121.5t145 42.5q94 0 145 -47t51 -138q0 -90 -36 -172l-87 -196h-204z" />
    <glyph glyph-name="uni0137" unicode="&#x137;" horiz-adv-x="1265" 
d="M106 0v1434h336v-754h115l270 360h398l-389 -512l413 -528h-409l-295 381h-103v-381h-336zM502 -696l94 227q-73 9 -116.5 51.5t-43.5 110.5q0 79 52 121.5t145 42.5q94 0 145 -47t51 -138q0 -90 -36 -172l-86 -196h-205z" />
    <glyph glyph-name="kgreenlandic" unicode="&#x138;" horiz-adv-x="1265" 
d="M106 0v1040h336v-360h115l270 360h398l-389 -512l413 -528h-409l-295 381h-103v-381h-336z" />
    <glyph glyph-name="Lacute" unicode="&#x139;" horiz-adv-x="1413" 
d="M109 1561l163 266h369l-164 -266h-368zM135 0v1434h357v-1098h860v-336h-1217z" />
    <glyph glyph-name="lacute" unicode="&#x13a;" horiz-adv-x="667" 
d="M61 1561l164 266h369l-164 -266h-369zM446 0q-184 0 -266 82t-82 266v1086h336v-1057q0 -37 12.5 -49.5t49.5 -12.5h131v-315h-181z" />
    <glyph glyph-name="uni013B" unicode="&#x13b;" horiz-adv-x="1413" 
d="M135 0v1434h357v-1098h860v-336h-1217zM647 -696l94 227q-73 9 -116 51.5t-43 110.5q0 79 51.5 121.5t144.5 42.5q94 0 145.5 -47t51.5 -138q0 -88 -37 -172l-86 -196h-205z" />
    <glyph glyph-name="uni013C" unicode="&#x13c;" horiz-adv-x="667" 
d="M446 0q-184 0 -266 82t-82 266v1086h336v-1057q0 -37 12.5 -49.5t49.5 -12.5h131v-315h-181zM242 -696l94 227q-73 9 -116.5 51.5t-43.5 110.5q0 79 52 121.5t145 42.5q94 0 145 -47t51 -138q0 -88 -37 -172l-86 -196h-204z" />
    <glyph glyph-name="Lcaron" unicode="&#x13d;" horiz-adv-x="1413" 
d="M135 0v1434h357v-1098h860v-336h-1217zM659 1106l82 328h267l-82 -328h-267z" />
    <glyph glyph-name="lcaron" unicode="&#x13e;" horiz-adv-x="667" 
d="M446 0q-184 0 -266 82t-82 266v1086h336v-1057q0 -37 12.5 -49.5t49.5 -12.5h131v-315h-181zM500 1106l82 328h266l-82 -328h-266z" />
    <glyph glyph-name="Ldot" unicode="&#x13f;" horiz-adv-x="1413" 
d="M135 0v1434h357v-1098h860v-336h-1217zM938 594q-93 0 -147 50.5t-54 141.5t54 142t147 51t147 -51t54 -142t-54 -141.5t-147 -50.5z" />
    <glyph glyph-name="ldot" unicode="&#x140;" horiz-adv-x="974" 
d="M446 0q-184 0 -266 82t-82 266v1086h336v-1057q0 -37 12.5 -49.5t49.5 -12.5h131v-315h-181zM754 512q-93 0 -147 51t-54 142t54 141.5t147 50.5t146.5 -50.5t53.5 -141.5t-53.5 -142t-146.5 -51z" />
    <glyph glyph-name="Lslash" unicode="&#x141;" horiz-adv-x="1421" 
d="M8 492v307l135 51v584h357v-453l389 145v-307l-389 -145v-338h860v-336h-1217v543z" />
    <glyph glyph-name="lslash" unicode="&#x142;" horiz-adv-x="753" 
d="M512 0q-184 0 -266 82t-82 266v166l-164 -63v286l164 64v633h336v-504l192 74v-287l-192 -74v-266q0 -37 12 -49.5t49 -12.5h131v-315h-180z" />
    <glyph glyph-name="Nacute" unicode="&#x143;" horiz-adv-x="1650" 
d="M623 1561l163 266h369l-164 -266h-368zM1516 1434v-1434h-439l-577 897h-8v-897h-357v1434h438l578 -897h8v897h357z" />
    <glyph glyph-name="nacute" unicode="&#x144;" horiz-adv-x="1265" 
d="M438 1167l164 267h369l-164 -267h-369zM106 0v1040h336v-106h9q143 135 323 135q81 0 151.5 -28t125 -82t85.5 -141.5t31 -199.5v-618h-336v553q0 58 -16.5 100.5t-45 64t-58.5 31t-64 9.5q-86 0 -145.5 -59.5t-59.5 -182.5v-516h-336z" />
    <glyph glyph-name="uni0145" unicode="&#x145;" horiz-adv-x="1650" 
d="M1516 1434v-1434h-439l-577 897h-8v-897h-357v1434h438l578 -897h8v897h357zM692 -696l94 227q-73 9 -116 51.5t-43 110.5q0 79 51.5 121.5t144.5 42.5q94 0 145.5 -47t51.5 -138q0 -88 -37 -172l-86 -196h-205z" />
    <glyph glyph-name="uni0146" unicode="&#x146;" horiz-adv-x="1265" 
d="M106 0v1040h336v-106h9q143 135 323 135q81 0 151.5 -28t125 -82t85.5 -141.5t31 -199.5v-618h-336v553q0 58 -16.5 100.5t-45 64t-58.5 31t-64 9.5q-86 0 -145.5 -59.5t-59.5 -182.5v-516h-336zM512 -696l94 227q-73 9 -116.5 51.5t-43.5 110.5q0 79 52 121.5t145 42.5
q94 0 145.5 -47t51.5 -138q0 -88 -37 -172l-86 -196h-205z" />
    <glyph glyph-name="Ncaron" unicode="&#x147;" horiz-adv-x="1650" 
d="M664 1561l-226 327h287l98 -143h8l99 143h287l-226 -327h-327zM1516 1434v-1434h-439l-577 897h-8v-897h-357v1434h438l578 -897h8v897h357z" />
    <glyph glyph-name="ncaron" unicode="&#x148;" horiz-adv-x="1265" 
d="M479 1167l-225 328h287l98 -143h8l98 143h287l-225 -328h-328zM106 0v1040h336v-106h9q143 135 323 135q81 0 151.5 -28t125 -82t85.5 -141.5t31 -199.5v-618h-336v553q0 58 -16.5 100.5t-45 64t-58.5 31t-64 9.5q-86 0 -145.5 -59.5t-59.5 -182.5v-516h-336z" />
    <glyph glyph-name="napostrophe" unicode="&#x149;" horiz-adv-x="1769" 
d="M152 823l79 250q-71 12 -110 61.5t-39 127.5q0 91 54 141.5t147 50.5q95 0 147.5 -55t52.5 -166q0 -81 -32 -180l-74 -230h-225zM610 0v1040h336v-106h8q143 135 324 135q81 0 151.5 -28t125 -82t85.5 -141.5t31 -199.5v-618h-336v553q0 58 -16.5 100.5t-45 64t-58.5 31
t-64 9.5q-86 0 -145.5 -59.5t-59.5 -182.5v-516h-336z" />
    <glyph glyph-name="Eng" unicode="&#x14a;" horiz-adv-x="1630" 
d="M492 938v-938h-357v1434h438l557 -742h9v742h356v-1495q0 -185 -82 -267t-266 -82h-238v316h168q37 0 49.5 12t12.5 49v123l-639 848h-8z" />
    <glyph glyph-name="eng" unicode="&#x14b;" horiz-adv-x="1265" 
d="M602 -410v316h168q37 0 49 12t12 49v586q0 58 -16.5 100.5t-45 64t-58.5 31t-64 9.5q-86 0 -145.5 -59.5t-59.5 -182.5v-516h-336v1040h336v-106h9q143 135 323 135q81 0 151.5 -28t125 -82t85.5 -141.5t31 -199.5v-679q0 -185 -82 -267t-266 -82h-217z" />
    <glyph glyph-name="Omacron" unicode="&#x14c;" horiz-adv-x="1679" 
d="M492 1581v225h696v-225h-696zM840 -29q-161 0 -298.5 52.5t-237.5 148t-157 236t-57 309.5q0 225 98 395.5t267.5 260t384.5 89.5q161 0 298.5 -52.5t237.5 -147.5t156.5 -235.5t56.5 -309.5t-56.5 -309.5t-156.5 -236t-238 -148t-298 -52.5zM840 299q176 0 284.5 113
t108.5 305t-108.5 305t-284.5 113q-177 0 -285.5 -113t-108.5 -305t108.5 -305t285.5 -113z" />
    <glyph glyph-name="omacron" unicode="&#x14d;" horiz-adv-x="1236" 
d="M270 1188v225h697v-225h-697zM618 -29q-247 0 -402 149t-155 400t155 400t402 149t402.5 -149t155.5 -400t-155.5 -400t-402.5 -149zM618 279q96 0 159 64t63 177t-63 177.5t-159 64.5t-158.5 -64.5t-62.5 -177.5t62.5 -177t158.5 -64z" />
    <glyph glyph-name="Obreve" unicode="&#x14e;" horiz-adv-x="1679" 
d="M842 1556q-168 0 -259 88t-94 244h230q0 -63 36 -95t87 -32t87 32t36 95h229q-3 -156 -93.5 -244t-258.5 -88zM840 -29q-161 0 -298.5 52.5t-237.5 148t-157 236t-57 309.5q0 225 98 395.5t267.5 260t384.5 89.5q161 0 298.5 -52.5t237.5 -147.5t156.5 -235.5
t56.5 -309.5t-56.5 -309.5t-156.5 -236t-238 -148t-298 -52.5zM840 299q176 0 284.5 113t108.5 305t-108.5 305t-284.5 113q-177 0 -285.5 -113t-108.5 -305t108.5 -305t285.5 -113z" />
    <glyph glyph-name="obreve" unicode="&#x14f;" horiz-adv-x="1236" 
d="M621 1163q-168 0 -259 88t-94 244h230q0 -63 36 -95t87 -32t86.5 32t35.5 95h230q-3 -156 -93.5 -244t-258.5 -88zM618 -29q-247 0 -402 149t-155 400t155 400t402 149t402.5 -149t155.5 -400t-155.5 -400t-402.5 -149zM618 279q96 0 159 64t63 177t-63 177.5t-159 64.5
t-158.5 -64.5t-62.5 -177.5t62.5 -177t158.5 -64z" />
    <glyph glyph-name="Ohungarumlaut" unicode="&#x150;" horiz-adv-x="1679" 
d="M868 1561l164 266h328l-164 -266h-328zM418 1561l164 266h327l-164 -266h-327zM840 -29q-161 0 -298.5 52.5t-237.5 148t-157 236t-57 309.5q0 225 98 395.5t267.5 260t384.5 89.5q161 0 298.5 -52.5t237.5 -147.5t156.5 -235.5t56.5 -309.5t-56.5 -309.5t-156.5 -236
t-238 -148t-298 -52.5zM840 299q176 0 284.5 113t108.5 305t-108.5 305t-284.5 113q-177 0 -285.5 -113t-108.5 -305t108.5 -305t285.5 -113z" />
    <glyph glyph-name="ohungarumlaut" unicode="&#x151;" horiz-adv-x="1236" 
d="M647 1167l164 267h328l-164 -267h-328zM197 1167l163 267h328l-164 -267h-327zM618 -29q-247 0 -402 149t-155 400t155 400t402 149t402.5 -149t155.5 -400t-155.5 -400t-402.5 -149zM618 279q96 0 159 64t63 177t-63 177.5t-159 64.5t-158.5 -64.5t-62.5 -177.5
t62.5 -177t158.5 -64z" />
    <glyph glyph-name="OE" unicode="&#x152;" horiz-adv-x="2555" 
d="M1589 578v-259h865v-319h-1221v90h-8q-182 -119 -385 -119q-161 0 -298.5 52.5t-237.5 148t-157 236t-57 309.5q0 225 98 395.5t267.5 260t384.5 89.5q203 0 385 -119h8v91h1221v-320h-865v-229h783v-307h-783zM840 299q176 0 284.5 113t108.5 305t-108.5 305t-284.5 113
q-177 0 -285.5 -113t-108.5 -305t108.5 -305t285.5 -113z" />
    <glyph glyph-name="oe" unicode="&#x153;" horiz-adv-x="1982" 
d="M618 -29q-247 0 -402 149t-155 400t155 400t402 149q243 0 390 -147h4q153 147 372 147q152 0 273 -64.5t192.5 -188.5t71.5 -288l-4 -114h-737q20 -84 73 -130t131 -46q111 0 168 81h349q-19 -53 -50 -102t-77.5 -94.5t-103 -78.5t-130.5 -53t-156 -20q-218 0 -372 148
h-8q-148 -148 -386 -148zM1186 651h391q-49 152 -193 152q-72 0 -123.5 -40t-74.5 -112zM618 279q96 0 159 64t63 177t-63 177.5t-159 64.5t-158.5 -64.5t-62.5 -177.5t62.5 -177t158.5 -64z" />
    <glyph glyph-name="Racute" unicode="&#x154;" horiz-adv-x="1572" 
d="M573 1561l164 266h369l-164 -266h-369zM1102 0l-262 459h-348v-459h-357v1434h848q150 0 269 -57t189 -169t70 -262q0 -163 -81.5 -279.5t-221.5 -168.5l287 -498h-393zM492 778h491q75 0 123.5 45t48.5 123t-48.5 123t-123.5 45h-491v-336z" />
    <glyph glyph-name="racute" unicode="&#x155;" horiz-adv-x="1052" 
d="M369 1167l163 267h369l-164 -267h-368zM106 0v1040h336v-106h9q122 106 274 106h266v-315h-278q-138 0 -204.5 -66t-66.5 -204v-455h-336z" />
    <glyph glyph-name="uni0156" unicode="&#x156;" horiz-adv-x="1572" 
d="M1102 0l-262 459h-348v-459h-357v1434h848q150 0 269 -57t189 -169t70 -262q0 -163 -81.5 -279.5t-221.5 -168.5l287 -498h-393zM492 778h491q75 0 123.5 45t48.5 123t-48.5 123t-123.5 45h-491v-336zM647 -696l94 227q-73 9 -116 51.5t-43 110.5q0 79 51.5 121.5
t144.5 42.5q94 0 145.5 -47t51.5 -138q0 -88 -37 -172l-86 -196h-205z" />
    <glyph glyph-name="uni0157" unicode="&#x157;" horiz-adv-x="1052" 
d="M106 0v1040h336v-106h9q122 106 274 106h266v-315h-278q-138 0 -204.5 -66t-66.5 -204v-455h-336zM143 -696l95 227q-73 9 -116.5 51.5t-43.5 110.5q0 79 51.5 121.5t144.5 42.5q94 0 145.5 -47t51.5 -138q0 -88 -37 -172l-86 -196h-205z" />
    <glyph glyph-name="Rcaron" unicode="&#x158;" horiz-adv-x="1572" 
d="M614 1561l-225 327h287l98 -143h8l99 143h286l-225 -327h-328zM1102 0l-262 459h-348v-459h-357v1434h848q150 0 269 -57t189 -169t70 -262q0 -163 -81.5 -279.5t-221.5 -168.5l287 -498h-393zM492 778h491q75 0 123.5 45t48.5 123t-48.5 123t-123.5 45h-491v-336z" />
    <glyph glyph-name="rcaron" unicode="&#x159;" horiz-adv-x="1052" 
d="M410 1167l-226 328h287l98 -143h9l98 143h287l-226 -328h-327zM106 0v1040h336v-106h9q122 106 274 106h266v-315h-278q-138 0 -204.5 -66t-66.5 -204v-455h-336z" />
    <glyph glyph-name="Sacute" unicode="&#x15a;" horiz-adv-x="1486" 
d="M479 1561l164 266h369l-164 -266h-369zM786 -29q-122 0 -222.5 13.5t-195 49t-161 92t-111 147t-55.5 210.5h373q16 -63 52.5 -105.5t90 -63t107 -28t122.5 -7.5q283 0 283 131q0 43 -33.5 72.5t-90.5 45t-131 26t-155 22t-162.5 28t-155.5 48.5t-131 78t-90.5 122
t-33.5 176q0 80 23 145t59.5 109.5t90 78t107 52.5t118.5 30.5t117 15t108 3.5q635 0 680 -475h-373q-7 50 -37.5 84.5t-77 52t-93 24.5t-99.5 7q-114 0 -190.5 -32t-76.5 -95q0 -40 33.5 -67.5t90.5 -42.5t131 -26.5t155.5 -24t162.5 -30.5t155 -51t131 -79.5t90.5 -122.5
t33.5 -174q0 -439 -639 -439z" />
    <glyph glyph-name="sacute" unicode="&#x15b;" horiz-adv-x="1118" 
d="M340 1167l164 267h368l-163 -267h-369zM582 -29q-510 0 -541 361h344q40 -94 197 -94q67 -2 107 15.5t40 53.5q0 25 -28.5 41.5t-75 24t-106 17.5t-122 20.5t-122 35t-106 59.5t-75 95.5t-28.5 140.5q0 78 30.5 137.5t77 95t111.5 57.5t125.5 30t126.5 8q77 0 144.5 -11
t130.5 -36.5t110.5 -64.5t79.5 -99.5t42 -136.5h-344q-29 82 -168 82q-131 0 -131 -62q0 -24 28.5 -39t75 -22t106.5 -17t122 -20.5t122 -36t106.5 -60.5t75 -96.5t28.5 -142.5q0 -84 -30.5 -146.5t-76.5 -98t-113 -57t-128.5 -28t-134.5 -6.5z" />
    <glyph glyph-name="Scircumflex" unicode="&#x15c;" horiz-adv-x="1486" 
d="M295 1561l225 327h328l225 -327h-287l-98 143h-8l-98 -143h-287zM786 -29q-122 0 -222.5 13.5t-195 49t-161 92t-111 147t-55.5 210.5h373q16 -63 52.5 -105.5t90 -63t107 -28t122.5 -7.5q283 0 283 131q0 43 -33.5 72.5t-90.5 45t-131 26t-155 22t-162.5 28t-155.5 48.5
t-131 78t-90.5 122t-33.5 176q0 80 23 145t59.5 109.5t90 78t107 52.5t118.5 30.5t117 15t108 3.5q635 0 680 -475h-373q-7 50 -37.5 84.5t-77 52t-93 24.5t-99.5 7q-114 0 -190.5 -32t-76.5 -95q0 -40 33.5 -67.5t90.5 -42.5t131 -26.5t155.5 -24t162.5 -30.5t155 -51
t131 -79.5t90.5 -122.5t33.5 -174q0 -439 -639 -439z" />
    <glyph glyph-name="scircumflex" unicode="&#x15d;" horiz-adv-x="1118" 
d="M156 1167l225 328h328l225 -328h-287l-98 144h-8l-99 -144h-286zM582 -29q-510 0 -541 361h344q40 -94 197 -94q67 -2 107 15.5t40 53.5q0 25 -28.5 41.5t-75 24t-106 17.5t-122 20.5t-122 35t-106 59.5t-75 95.5t-28.5 140.5q0 78 30.5 137.5t77 95t111.5 57.5t125.5 30
t126.5 8q77 0 144.5 -11t130.5 -36.5t110.5 -64.5t79.5 -99.5t42 -136.5h-344q-29 82 -168 82q-131 0 -131 -62q0 -24 28.5 -39t75 -22t106.5 -17t122 -20.5t122 -36t106.5 -60.5t75 -96.5t28.5 -142.5q0 -84 -30.5 -146.5t-76.5 -98t-113 -57t-128.5 -28t-134.5 -6.5z" />
    <glyph glyph-name="Scedilla" unicode="&#x15e;" horiz-adv-x="1486" 
d="M1425 410q0 -79 -21 -144t-55.5 -110t-86.5 -78.5t-107 -53.5t-123.5 -32.5t-129.5 -16.5t-132 -4l-12 -37q71 -14 119.5 -55.5t48.5 -111.5q0 -177 -332 -177h-82v205h66q73 0 73 41t-73 41h-29l41 105q-115 14 -206 46.5t-166 90t-120.5 149.5t-56.5 215h373
q16 -63 52.5 -105.5t90 -63t107 -28t122.5 -7.5q283 0 283 131q0 43 -33.5 72.5t-90.5 45t-131 26t-155 22t-162.5 28t-155.5 48.5t-131 78t-90.5 122t-33.5 176q0 80 23 145t59.5 109.5t90 78t107 52.5t118.5 30.5t117 15t108 3.5q635 0 680 -475h-373q-7 50 -37.5 84.5
t-77 52t-93 24.5t-99.5 7q-114 0 -190.5 -32t-76.5 -95q0 -40 33.5 -67.5t90.5 -42.5t131 -26.5t155.5 -24t162.5 -30.5t155 -51t131 -79.5t90.5 -122.5t33.5 -174z" />
    <glyph glyph-name="scedilla" unicode="&#x15f;" horiz-adv-x="1118" 
d="M377 -410v205h65q74 0 74 41t-74 41h-28l39 100q-386 41 -412 355h344q40 -94 197 -94q67 -2 107 15.5t40 53.5q0 25 -28.5 41.5t-75 24t-106 17.5t-122 20.5t-122 35t-106 59.5t-75 95.5t-28.5 140.5q0 78 30.5 137.5t77 95t111.5 57.5t125.5 30t126.5 8q77 0 144.5 -11
t130.5 -36.5t110.5 -64.5t79.5 -99.5t42 -136.5h-344q-29 82 -168 82q-131 0 -131 -62q0 -24 28.5 -39t75 -22t106.5 -17t122 -20.5t122 -36t106.5 -60.5t75 -96.5t28.5 -142.5q0 -317 -428 -334l-14 -39q71 -14 119.5 -55.5t48.5 -111.5q0 -177 -332 -177h-82z" />
    <glyph glyph-name="Scaron" unicode="&#x160;" horiz-adv-x="1486" 
d="M520 1561l-225 327h287l98 -143h8l98 143h287l-225 -327h-328zM786 -29q-122 0 -222.5 13.5t-195 49t-161 92t-111 147t-55.5 210.5h373q16 -63 52.5 -105.5t90 -63t107 -28t122.5 -7.5q283 0 283 131q0 43 -33.5 72.5t-90.5 45t-131 26t-155 22t-162.5 28t-155.5 48.5
t-131 78t-90.5 122t-33.5 176q0 80 23 145t59.5 109.5t90 78t107 52.5t118.5 30.5t117 15t108 3.5q635 0 680 -475h-373q-7 50 -37.5 84.5t-77 52t-93 24.5t-99.5 7q-114 0 -190.5 -32t-76.5 -95q0 -40 33.5 -67.5t90.5 -42.5t131 -26.5t155.5 -24t162.5 -30.5t155 -51
t131 -79.5t90.5 -122.5t33.5 -174q0 -439 -639 -439z" />
    <glyph glyph-name="scaron" unicode="&#x161;" horiz-adv-x="1118" 
d="M381 1167l-225 328h286l99 -143h8l98 143h287l-225 -328h-328zM582 -29q-510 0 -541 361h344q40 -94 197 -94q67 -2 107 15.5t40 53.5q0 25 -28.5 41.5t-75 24t-106 17.5t-122 20.5t-122 35t-106 59.5t-75 95.5t-28.5 140.5q0 78 30.5 137.5t77 95t111.5 57.5t125.5 30
t126.5 8q77 0 144.5 -11t130.5 -36.5t110.5 -64.5t79.5 -99.5t42 -136.5h-344q-29 82 -168 82q-131 0 -131 -62q0 -24 28.5 -39t75 -22t106.5 -17t122 -20.5t122 -36t106.5 -60.5t75 -96.5t28.5 -142.5q0 -84 -30.5 -146.5t-76.5 -98t-113 -57t-128.5 -28t-134.5 -6.5z" />
    <glyph glyph-name="uni0162" unicode="&#x162;" horiz-adv-x="1536" 
d="M590 0v1106h-529v328h1414v-328h-529v-1106h-82l-22 -66q71 -14 119.5 -55.5t48.5 -111.5q0 -177 -332 -177h-82v205h66q73 0 73 41t-73 41h-29l47 123h-90z" />
    <glyph glyph-name="uni0163" unicode="&#x163;" horiz-adv-x="1163" 
d="M442 -410v205h66q74 0 74 41t-74 41h-29l51 133q-251 50 -251 346v377h-218v307h218v312h335v-312h471v-307h-471v-352q0 -40 17 -57t57 -17h397v-307h-374l-23 -66q71 -14 119.5 -55.5t48.5 -111.5q0 -177 -332 -177h-82z" />
    <glyph glyph-name="Tcaron" unicode="&#x164;" horiz-adv-x="1536" 
d="M604 1561l-225 327h287l98 -143h8l98 143h287l-225 -327h-328zM590 0v1106h-529v328h1414v-328h-529v-1106h-356z" />
    <glyph glyph-name="tcaron" unicode="&#x165;" horiz-adv-x="1163" 
d="M717 1106l82 328h266l-82 -328h-266zM635 0q-175 0 -265.5 90.5t-90.5 265.5v377h-218v307h218v312h335v-312h471v-307h-471v-352q0 -40 17 -57t57 -17h397v-307h-450z" />
    <glyph glyph-name="Tbar" unicode="&#x166;" horiz-adv-x="1536" 
d="M246 508v287h344v311h-529v328h1414v-328h-529v-311h344v-287h-344v-508h-356v508h-344z" />
    <glyph glyph-name="tbar" unicode="&#x167;" horiz-adv-x="1191" 
d="M61 426v205h218v102h-218v307h218v312h335v-312h471v-307h-471v-102h471v-205h-471v-45q0 -40 17 -57t57 -17h397v-307h-450q-175 0 -265.5 90.5t-90.5 265.5v70h-218z" />
    <glyph glyph-name="Utilde" unicode="&#x168;" horiz-adv-x="1572" 
d="M639 1851q56 0 101 -21.5t80.5 -43t68.5 -21.5q30 0 44 15t17 47h226q-9 -147 -73.5 -219t-168.5 -72q-56 0 -101 21.5t-80.5 43t-68.5 21.5q-30 0 -44 -14.5t-17 -46.5h-226q9 147 73.5 218.5t168.5 71.5zM786 -29q-313 0 -492 185t-179 520v758h356v-758
q0 -192 83.5 -284.5t231.5 -92.5t232 92.5t84 284.5v758h356v-758q0 -335 -179.5 -520t-492.5 -185z" />
    <glyph glyph-name="utilde" unicode="&#x169;" horiz-adv-x="1265" 
d="M475 1458q56 0 101 -21.5t80.5 -43t68.5 -21.5q30 0 44 15t17 47h226q-9 -147 -73.5 -219t-168.5 -72q-56 0 -101 21.5t-80.5 43t-68.5 21.5q-30 0 -44 -15t-17 -47h-226q9 147 73.5 219t168.5 72zM1159 1040v-1040h-336v106h-8q-143 -135 -323 -135q-170 0 -282 116
t-112 335v618h336v-553q0 -58 16.5 -100.5t45 -63.5t58.5 -30.5t64 -9.5q86 0 145.5 59t59.5 182v516h336z" />
    <glyph glyph-name="Umacron" unicode="&#x16a;" horiz-adv-x="1572" 
d="M438 1581v225h697v-225h-697zM786 -29q-313 0 -492 185t-179 520v758h356v-758q0 -192 83.5 -284.5t231.5 -92.5t232 92.5t84 284.5v758h356v-758q0 -335 -179.5 -520t-492.5 -185z" />
    <glyph glyph-name="umacron" unicode="&#x16b;" horiz-adv-x="1265" 
d="M274 1188v225h697v-225h-697zM1159 1040v-1040h-336v106h-8q-143 -135 -323 -135q-170 0 -282 116t-112 335v618h336v-553q0 -58 16.5 -100.5t45 -63.5t58.5 -30.5t64 -9.5q86 0 145.5 59t59.5 182v516h336z" />
    <glyph glyph-name="Ubreve" unicode="&#x16c;" horiz-adv-x="1572" 
d="M788 1556q-168 0 -258.5 88t-93.5 244h230q0 -63 35.5 -95t86.5 -32t87 32t36 95h230q-3 -156 -94 -244t-259 -88zM786 -29q-313 0 -492 185t-179 520v758h356v-758q0 -192 83.5 -284.5t231.5 -92.5t232 92.5t84 284.5v758h356v-758q0 -335 -179.5 -520t-492.5 -185z" />
    <glyph glyph-name="ubreve" unicode="&#x16d;" horiz-adv-x="1265" 
d="M625 1163q-168 0 -259 88t-94 244h230q0 -63 36 -95t87 -32t87 32t36 95h229q-3 -156 -93.5 -244t-258.5 -88zM1159 1040v-1040h-336v106h-8q-143 -135 -323 -135q-170 0 -282 116t-112 335v618h336v-553q0 -58 16.5 -100.5t45 -63.5t58.5 -30.5t64 -9.5q86 0 145.5 59
t59.5 182v516h336z" />
    <glyph glyph-name="Uring" unicode="&#x16e;" horiz-adv-x="1572" 
d="M786 1516q-108 0 -183 60t-75 169t75 169t183 60t183 -60t75 -169t-75 -169t-183 -60zM709 1745q0 -36 21 -55t56 -19t56.5 19t21.5 55t-21.5 55t-56.5 19t-56 -19t-21 -55zM786 -29q-313 0 -492 185t-179 520v758h356v-758q0 -192 83.5 -284.5t231.5 -92.5t232 92.5
t84 284.5v758h356v-758q0 -335 -179.5 -520t-492.5 -185z" />
    <glyph glyph-name="uring" unicode="&#x16f;" horiz-adv-x="1265" 
d="M623 1122q-108 0 -183 60.5t-75 169.5t75 169t183 60t183 -60t75 -169t-75 -169.5t-183 -60.5zM545 1352q0 -36 21.5 -55t56.5 -19t56 19t21 55t-21 54.5t-56 18.5t-56.5 -18.5t-21.5 -54.5zM1159 1040v-1040h-336v106h-8q-143 -135 -323 -135q-170 0 -282 116t-112 335
v618h336v-553q0 -58 16.5 -100.5t45 -63.5t58.5 -30.5t64 -9.5q86 0 145.5 59t59.5 182v516h336z" />
    <glyph glyph-name="Uhungarumlaut" unicode="&#x170;" horiz-adv-x="1572" 
d="M815 1561l164 266h328l-164 -266h-328zM365 1561l163 266h328l-164 -266h-327zM786 -29q-313 0 -492 185t-179 520v758h356v-758q0 -192 83.5 -284.5t231.5 -92.5t232 92.5t84 284.5v758h356v-758q0 -335 -179.5 -520t-492.5 -185z" />
    <glyph glyph-name="uhungarumlaut" unicode="&#x171;" horiz-adv-x="1265" 
d="M651 1167l164 267h328l-164 -267h-328zM201 1167l164 267h327l-164 -267h-327zM1159 1040v-1040h-336v106h-8q-143 -135 -323 -135q-170 0 -282 116t-112 335v618h336v-553q0 -58 16.5 -100.5t45 -63.5t58.5 -30.5t64 -9.5q86 0 145.5 59t59.5 182v516h336z" />
    <glyph glyph-name="Uogonek" unicode="&#x172;" horiz-adv-x="1572" 
d="M856 -410q-125 0 -195.5 52.5t-70.5 152.5q0 111 88 182q-265 31 -414 212.5t-149 486.5v758h356v-758q0 -192 83.5 -284.5t231.5 -92.5t232 92.5t84 284.5v758h356v-758q0 -282 -130 -459t-363 -227q-101 -35 -101 -92q0 -32 30 -47t77 -15h28v-246h-143z" />
    <glyph glyph-name="uogonek" unicode="&#x173;" horiz-adv-x="1265" 
d="M1159 1040v-1040q-135 -39 -135 -102q0 -32 29.5 -47t76.5 -15h29v-246h-143q-125 0 -195.5 52.5t-70.5 152.5q0 131 120 205h-47v106h-8q-143 -135 -323 -135q-170 0 -282 116t-112 335v618h336v-553q0 -58 16.5 -100.5t45 -63.5t58.5 -30.5t64 -9.5q86 0 145.5 59
t59.5 182v516h336z" />
    <glyph glyph-name="Wcircumflex" unicode="&#x174;" horiz-adv-x="2506" 
d="M864 1561l226 327h327l225 -327h-286l-99 143h-8l-98 -143h-287zM2478 1434l-496 -1434h-426l-299 950h-8l-299 -950h-426l-495 1434h368l336 -988h8l312 988h401l311 -988h9l335 988h369z" />
    <glyph glyph-name="wcircumflex" unicode="&#x175;" horiz-adv-x="1957" 
d="M590 1167l225 328h328l225 -328h-287l-98 144h-8l-98 -144h-287zM356 0l-315 1040h344l188 -659h9l172 659h450l172 -659h8l189 659h344l-315 -1040h-451l-168 643h-8l-168 -643h-451z" />
    <glyph glyph-name="Ycircumflex" unicode="&#x176;" horiz-adv-x="1622" 
d="M422 1561l225 327h328l225 -327h-287l-98 143h-8l-98 -143h-287zM633 0v557l-613 877h414l377 -545l377 545h414l-613 -877v-557h-356z" />
    <glyph glyph-name="ycircumflex" unicode="&#x177;" 
d="M254 1167l225 328h328l225 -328h-287l-98 144h-8l-98 -144h-287zM176 -410v308h172q102 0 139 98l2 6l-460 1038h360l258 -598h12l230 598h352l-459 -1155q-46 -118 -97.5 -179.5t-129.5 -88.5t-207 -27h-172z" />
    <glyph glyph-name="Ydieresis" unicode="&#x178;" horiz-adv-x="1622" 
d="M586 1520q-84 0 -134.5 43.5t-50.5 119.5t50.5 120t134.5 44t134 -44t50 -120t-50 -119.5t-134 -43.5zM1036 1520q-84 0 -134 43.5t-50 119.5t50 120t134 44t134.5 -44t50.5 -120t-50.5 -119.5t-134.5 -43.5zM633 0v557l-613 877h414l377 -545l377 545h414l-613 -877
v-557h-356z" />
    <glyph glyph-name="Zacute" unicode="&#x179;" horiz-adv-x="1478" 
d="M537 1561l163 266h369l-164 -266h-368zM82 0v250l754 856v8h-742v320h1290v-246l-757 -860v-9h770v-319h-1315z" />
    <glyph glyph-name="zacute" unicode="&#x17a;" horiz-adv-x="1097" 
d="M344 1167l164 267h369l-164 -267h-369zM78 0v242l450 491v8h-442v299h926v-241l-451 -492v-8h459v-299h-942z" />
    <glyph glyph-name="Zdotaccent" unicode="&#x17b;" horiz-adv-x="1478" 
d="M741 1520q-88 0 -142 44t-54 119t54 119.5t142 44.5t142.5 -44.5t54.5 -119.5t-54.5 -119t-142.5 -44zM82 0v250l754 856v8h-742v320h1290v-246l-757 -860v-9h770v-319h-1315z" />
    <glyph glyph-name="zdotaccent" unicode="&#x17c;" horiz-adv-x="1097" 
d="M549 1126q-88 0 -142.5 44.5t-54.5 119.5t54.5 119.5t142.5 44.5t142 -44.5t54 -119.5t-54 -119.5t-142 -44.5zM78 0v242l450 491v8h-442v299h926v-241l-451 -492v-8h459v-299h-942z" />
    <glyph glyph-name="Zcaron" unicode="&#x17d;" horiz-adv-x="1478" 
d="M578 1561l-226 327h287l98 -143h8l99 143h286l-225 -327h-327zM82 0v250l754 856v8h-742v320h1290v-246l-757 -860v-9h770v-319h-1315z" />
    <glyph glyph-name="zcaron" unicode="&#x17e;" horiz-adv-x="1097" 
d="M385 1167l-225 328h286l99 -143h8l98 143h287l-225 -328h-328zM78 0v242l450 491v8h-442v299h926v-241l-451 -492v-8h459v-299h-942z" />
    <glyph glyph-name="longs" unicode="&#x17f;" horiz-adv-x="720" 
d="M635 1434h409v-291h-356q-40 0 -57 -17t-17 -57v-1069h-335v733h-218v307h218v37q0 175 90.5 266t265.5 91z" />
    <glyph glyph-name="florin" unicode="&#x192;" horiz-adv-x="1187" 
d="M82 733v307h217v37q0 175 90.5 266t265.5 91h451v-291h-397q-40 0 -57 -17t-17 -57v-29h471v-307h-471v-786q0 -175 -90.5 -266t-265.5 -91h-197v308h143q40 0 57 16.5t17 56.5v762h-217z" />
    <glyph glyph-name="uni01C4" unicode="&#x1c4;" horiz-adv-x="3076" 
d="M2175 1561l-225 327h286l99 -143h8l98 143h287l-225 -327h-328zM135 0v1434h631q216 0 382.5 -82.5t262.5 -246.5t96 -388t-96 -388t-262.5 -246.5t-382.5 -82.5h-631zM1679 0v250l754 856v8h-741v320h1290v-246l-758 -860v-9h770v-319h-1315zM492 319h274
q179 0 282 101.5t103 296.5t-103 296t-282 101h-274v-795z" />
    <glyph glyph-name="uni01C5" unicode="&#x1c5;" horiz-adv-x="2695" 
d="M623 1561l-226 327h287l98 -143h9l98 143h287l-226 -327h-327zM135 0v1434h631q216 0 382.5 -82.5t262.5 -246.5t96 -388t-96 -388t-262.5 -246.5t-382.5 -82.5h-631zM492 319h274q179 0 282 101.5t103 296.5t-103 296t-282 101h-274v-795zM1675 0v242l451 491v8h-443
v299h926v-241l-450 -492v-8h458v-299h-942z" />
    <glyph glyph-name="uni01C6" unicode="&#x1c6;" horiz-adv-x="2367" 
d="M1655 1167l-225 328h286l99 -143h8l98 143h287l-226 -328h-327zM504 -29q-208 0 -325.5 146.5t-117.5 402.5t117.5 402.5t325.5 146.5q195 0 315 -135h8v500h336v-1434h-336v106h-8q-120 -135 -315 -135zM1348 0v242l450 491v8h-442v299h925v-241l-450 -492v-8h459v-299
h-942zM614 279q94 0 158 66.5t64 174.5t-64 175t-158 67t-155.5 -66.5t-61.5 -175.5q0 -108 61.5 -174.5t155.5 -66.5z" />
    <glyph glyph-name="uni01C7" unicode="&#x1c7;" horiz-adv-x="2818" 
d="M135 0v1434h357v-1098h860v-336h-1217zM1475 0v336h778q53 0 67.5 15t14.5 67v1016h356v-1078q0 -206 -75.5 -281t-280.5 -75h-860z" />
    <glyph glyph-name="uni01C8" unicode="&#x1c8;" horiz-adv-x="1990" 
d="M1688 1126q-88 0 -142.5 44.5t-54.5 119.5t54.5 119.5t142.5 44.5t142 -44.5t54 -119.5t-54 -119.5t-142 -44.5zM135 0v1434h357v-1098h860v-336h-1217zM1290 -410v316h168q37 0 49.5 12t12.5 49v1073h335v-1101q0 -185 -82 -267t-266 -82h-217z" />
    <glyph glyph-name="uni01C9" unicode="&#x1c9;" horiz-adv-x="1265" 
d="M963 1126q-88 0 -142.5 44.5t-54.5 119.5t54.5 119.5t142.5 44.5t142 -44.5t54 -119.5t-54 -119.5t-142 -44.5zM446 0q-184 0 -266 82t-82 266v1086h336v-1057q0 -37 12.5 -49.5t49.5 -12.5h131v-315h-181zM565 -410v316h168q37 0 49.5 12t12.5 49v1073h335v-1101
q0 -185 -82 -267t-266 -82h-217z" />
    <glyph glyph-name="uni01CA" unicode="&#x1ca;" horiz-adv-x="3055" 
d="M1516 1434v-1434h-439l-577 897h-8v-897h-357v1434h438l578 -897h8v897h357zM1712 0v336h778q52 0 67 15t15 67v1016h357v-1078q0 -205 -75.5 -280.5t-281.5 -75.5h-860z" />
    <glyph glyph-name="uni01CB" unicode="&#x1cb;" horiz-adv-x="2228" 
d="M1925 1126q-88 0 -142 44.5t-54 119.5t54 119.5t142 44.5t142.5 -44.5t54.5 -119.5t-54.5 -119.5t-142.5 -44.5zM1516 1434v-1434h-439l-577 897h-8v-897h-357v1434h438l578 -897h8v897h357zM1528 -410v316h168q37 0 49 12t12 49v1073h336v-1101q0 -185 -82 -267
t-266 -82h-217z" />
    <glyph glyph-name="uni01CC" unicode="&#x1cc;" horiz-adv-x="1843" 
d="M1540 1126q-88 0 -142.5 44.5t-54.5 119.5t54.5 119.5t142.5 44.5t142.5 -44.5t54.5 -119.5t-54.5 -119.5t-142.5 -44.5zM106 0v1040h336v-106h9q143 135 323 135q81 0 151.5 -28t125 -82t85.5 -141.5t31 -199.5v-618h-336v553q0 58 -16.5 100.5t-45 64t-58.5 31t-64 9.5
q-86 0 -145.5 -59.5t-59.5 -182.5v-516h-336zM1143 -410v316h168q37 0 49 12t12 49v1073h336v-1101q0 -185 -82 -267t-266 -82h-217z" />
    <glyph glyph-name="uni01CD" unicode="&#x1cd;" horiz-adv-x="1638" 
d="M655 1561l-225 327h287l98 -143h8l99 143h286l-225 -327h-328zM1618 0h-385l-107 270h-614l-106 -270h-386l574 1434h450zM637 590h364l-178 450h-8z" />
    <glyph glyph-name="uni01CE" unicode="&#x1ce;" horiz-adv-x="1187" 
d="M430 1167l-225 328h287l98 -143h8l98 143h287l-225 -328h-328zM389 -29q-46 0 -89 7t-90 26.5t-81.5 51t-57 84.5t-22.5 122q0 48 12 89.5t29 71.5t46.5 56t55 42.5t64 32.5t63 24.5t62.5 19.5l328 94v8q0 44 -33 73.5t-90 29.5q-58 0 -96.5 -30.5t-47.5 -80.5h-344
q18 192 151 284.5t337 92.5q70 0 132 -10.5t121.5 -37t102 -67.5t68.5 -107t26 -151v-348q0 -22 9.5 -31.5t31.5 -9.5h70v-307h-295q-101 0 -123 78l-8 28h-8q-128 -135 -324 -135zM492 225q102 0 159.5 59t57.5 154v8l-238 -69q-86 -24 -86 -82q0 -70 107 -70z" />
    <glyph glyph-name="uni01CF" unicode="&#x1cf;" horiz-adv-x="626" 
d="M150 1561l-226 327h287l98 -143h8l99 143h286l-225 -327h-327zM135 0v1434h357v-1434h-357z" />
    <glyph glyph-name="uni01D0" unicode="&#x1d0;" horiz-adv-x="548" 
d="M111 1167l-226 328h287l98 -143h9l98 143h287l-226 -328h-327zM106 0v1040h336v-1040h-336z" />
    <glyph glyph-name="uni01D1" unicode="&#x1d1;" horiz-adv-x="1679" 
d="M676 1561l-225 327h286l99 -143h8l98 143h287l-225 -327h-328zM840 -29q-161 0 -298.5 52.5t-237.5 148t-157 236t-57 309.5q0 225 98 395.5t267.5 260t384.5 89.5q161 0 298.5 -52.5t237.5 -147.5t156.5 -235.5t56.5 -309.5t-56.5 -309.5t-156.5 -236t-238 -148
t-298 -52.5zM840 299q176 0 284.5 113t108.5 305t-108.5 305t-284.5 113q-177 0 -285.5 -113t-108.5 -305t108.5 -305t285.5 -113z" />
    <glyph glyph-name="uni01D2" unicode="&#x1d2;" horiz-adv-x="1236" 
d="M455 1167l-226 328h287l98 -143h9l98 143h287l-226 -328h-327zM618 -29q-247 0 -402 149t-155 400t155 400t402 149t402.5 -149t155.5 -400t-155.5 -400t-402.5 -149zM618 279q96 0 159 64t63 177t-63 177.5t-159 64.5t-158.5 -64.5t-62.5 -177.5t62.5 -177t158.5 -64z
" />
    <glyph glyph-name="uni01D3" unicode="&#x1d3;" horiz-adv-x="1572" 
d="M623 1561l-226 327h287l98 -143h9l98 143h287l-226 -327h-327zM786 -29q-313 0 -492 185t-179 520v758h356v-758q0 -192 83.5 -284.5t231.5 -92.5t232 92.5t84 284.5v758h356v-758q0 -335 -179.5 -520t-492.5 -185z" />
    <glyph glyph-name="uni01D4" unicode="&#x1d4;" horiz-adv-x="1265" 
d="M459 1167l-226 328h287l98 -143h9l98 143h287l-226 -328h-327zM1159 1040v-1040h-336v106h-8q-143 -135 -323 -135q-170 0 -282 116t-112 335v618h336v-553q0 -58 16.5 -100.5t45 -63.5t58.5 -30.5t64 -9.5q86 0 145.5 59t59.5 182v516h336z" />
    <glyph glyph-name="uni01E2" unicode="&#x1e2;" horiz-adv-x="2469" 
d="M1059 1581v225h696v-225h-696zM20 0l1004 1434h1343v-320h-782v-229h701v-307h-701v-259h782v-319h-1138v279h-604l-195 -279h-410zM846 598h383v537h-8z" />
    <glyph glyph-name="uni01E3" unicode="&#x1e3;" horiz-adv-x="1851" 
d="M573 1188v225h697v-225h-697zM438 -29q-389 0 -389 291q0 48 12 89.5t29 71.5t46.5 56t55 42.5t64 32.5t63 24.5t62.5 19.5l328 94v8q0 46 -29 74.5t-88 28.5q-61 0 -101 -30.5t-49 -80.5h-344q18 192 152.5 284.5t341.5 92.5q218 0 330 -127h4q121 127 327 127
q152 0 273 -64.5t192.5 -188.5t71.5 -288l-4 -114h-737q20 -84 73 -130t131 -46q111 0 168 81h348q-24 -67 -67.5 -127.5t-106.5 -111t-151.5 -80t-190.5 -29.5q-239 0 -381 164h-8q-72 -78 -171.5 -121t-254.5 -43zM1055 651h391q-49 152 -193 152q-72 0 -123.5 -40
t-74.5 -112zM492 225q102 0 159.5 59t57.5 154v8l-238 -69q-86 -24 -86 -82q0 -70 107 -70z" />
    <glyph glyph-name="Gcaron" unicode="&#x1e6;" horiz-adv-x="1662" 
d="M655 1561l-225 327h287l98 -143h8l99 143h286l-225 -327h-328zM807 -29q-152 0 -284 52.5t-227.5 147.5t-150.5 236t-55 310t55.5 309.5t153.5 235.5t235 147.5t297 52.5q262 0 445 -132t256 -367h-393q-95 172 -308 172q-176 0 -280.5 -112.5t-104.5 -305.5
q0 -194 108 -306t298 -112q143 0 252.5 62t148.5 171h-454v287h749v-819h-286v143h-9q-172 -172 -446 -172z" />
    <glyph glyph-name="gcaron" unicode="&#x1e7;" 
d="M451 1167l-226 328h287l98 -143h8l99 143h287l-226 -328h-327zM504 1069q195 0 315 -135h8v106h336v-950q0 -141 -39.5 -244.5t-112 -164.5t-167 -90t-213.5 -29q-226 0 -365 96t-168 252h369q55 -62 164 -62q97 0 146.5 56t49.5 186v57h-8q-120 -135 -315 -135
q-207 0 -325 144.5t-118 384.5q0 239 118 383.5t325 144.5zM614 762q-93 0 -155 -62t-62 -159t62 -159.5t155 -62.5q94 0 158 62.5t64 159.5t-64 159t-158 62z" />
    <glyph glyph-name="uni01E8" unicode="&#x1e8;" horiz-adv-x="1568" 
d="M594 1561l-225 327h286l99 -143h8l98 143h287l-225 -327h-328zM135 0v1434h357v-537h165l451 537h428l-594 -701l606 -733h-436l-467 569h-153v-569h-357z" />
    <glyph glyph-name="uni01E9" unicode="&#x1e9;" horiz-adv-x="1265" 
d="M111 1561l-226 327h287l98 -143h9l98 143h287l-226 -327h-327zM106 0v1434h336v-754h115l270 360h398l-389 -512l413 -528h-409l-295 381h-103v-381h-336z" />
    <glyph glyph-name="uni01EA" unicode="&#x1ea;" horiz-adv-x="1679" 
d="M922 -410q-125 0 -196 52.5t-71 152.5q0 109 88 180q-291 31 -472 230.5t-181 511.5q0 225 98 395.5t267.5 260t384.5 89.5q161 0 298.5 -52.5t237.5 -147.5t156.5 -235.5t56.5 -309.5q0 -276 -143 -465t-383 -252q-133 -40 -133 -102q0 -32 29.5 -47t76.5 -15h29v-246
h-143zM840 299q176 0 284.5 113t108.5 305t-108.5 305t-284.5 113q-177 0 -285.5 -113t-108.5 -305t108.5 -305t285.5 -113z" />
    <glyph glyph-name="uni01EB" unicode="&#x1eb;" horiz-adv-x="1236" 
d="M668 -410q-125 0 -196 52.5t-71 152.5q0 115 95 187q-198 36 -316.5 178.5t-118.5 359.5q0 251 155 400t402 149t402.5 -149t155.5 -400q0 -206 -107.5 -345.5t-288.5 -184.5q-104 -35 -104 -92q0 -32 29.5 -47t76.5 -15h29v-246h-143zM618 279q96 0 159 64t63 177
t-63 177.5t-159 64.5t-158.5 -64.5t-62.5 -177.5t62.5 -177t158.5 -64z" />
    <glyph glyph-name="uni01EC" unicode="&#x1ec;" horiz-adv-x="1679" 
d="M492 1581v225h696v-225h-696zM922 -410q-125 0 -196 52.5t-71 152.5q0 109 88 180q-291 31 -472 230.5t-181 511.5q0 225 98 395.5t267.5 260t384.5 89.5q161 0 298.5 -52.5t237.5 -147.5t156.5 -235.5t56.5 -309.5q0 -276 -143 -465t-383 -252q-133 -40 -133 -102
q0 -32 29.5 -47t76.5 -15h29v-246h-143zM840 299q176 0 284.5 113t108.5 305t-108.5 305t-284.5 113q-177 0 -285.5 -113t-108.5 -305t108.5 -305t285.5 -113z" />
    <glyph glyph-name="uni01ED" unicode="&#x1ed;" horiz-adv-x="1236" 
d="M270 1188v225h697v-225h-697zM668 -410q-125 0 -196 52.5t-71 152.5q0 115 95 187q-198 36 -316.5 178.5t-118.5 359.5q0 251 155 400t402 149t402.5 -149t155.5 -400q0 -206 -107.5 -345.5t-288.5 -184.5q-104 -35 -104 -92q0 -32 29.5 -47t76.5 -15h29v-246h-143z
M618 279q96 0 159 64t63 177t-63 177.5t-159 64.5t-158.5 -64.5t-62.5 -177.5t62.5 -177t158.5 -64z" />
    <glyph glyph-name="uni01F0" unicode="&#x1f0;" horiz-adv-x="548" 
d="M111 1167l-226 328h287l98 -143h9l98 143h287l-226 -328h-327zM-123 -410v316h168q37 0 49 12t12 49v1073h336v-1101q0 -185 -82 -267t-266 -82h-217z" />
    <glyph glyph-name="uni01F1" unicode="&#x1f1;" horiz-adv-x="3076" 
d="M135 0v1434h631q216 0 382.5 -82.5t262.5 -246.5t96 -388t-96 -388t-262.5 -246.5t-382.5 -82.5h-631zM1679 0v250l754 856v8h-741v320h1290v-246l-758 -860v-9h770v-319h-1315zM492 319h274q179 0 282 101.5t103 296.5t-103 296t-282 101h-274v-795z" />
    <glyph glyph-name="uni01F2" unicode="&#x1f2;" horiz-adv-x="2695" 
d="M135 0v1434h631q216 0 382.5 -82.5t262.5 -246.5t96 -388t-96 -388t-262.5 -246.5t-382.5 -82.5h-631zM492 319h274q179 0 282 101.5t103 296.5t-103 296t-282 101h-274v-795zM1675 0v242l451 491v8h-443v299h926v-241l-450 -492v-8h458v-299h-942z" />
    <glyph glyph-name="uni01F3" unicode="&#x1f3;" horiz-adv-x="2367" 
d="M504 -29q-208 0 -325.5 146.5t-117.5 402.5t117.5 402.5t325.5 146.5q195 0 315 -135h8v500h336v-1434h-336v106h-8q-120 -135 -315 -135zM1348 0v242l450 491v8h-442v299h925v-241l-450 -492v-8h459v-299h-942zM614 279q94 0 158 66.5t64 174.5t-64 175t-158 67
t-155.5 -66.5t-61.5 -175.5q0 -108 61.5 -174.5t155.5 -66.5z" />
    <glyph glyph-name="uni01F4" unicode="&#x1f4;" horiz-adv-x="1662" 
d="M614 1561l164 266h369l-164 -266h-369zM807 -29q-152 0 -284 52.5t-227.5 147.5t-150.5 236t-55 310t55.5 309.5t153.5 235.5t235 147.5t297 52.5q262 0 445 -132t256 -367h-393q-95 172 -308 172q-176 0 -280.5 -112.5t-104.5 -305.5q0 -194 108 -306t298 -112
q143 0 252.5 62t148.5 171h-454v287h749v-819h-286v143h-9q-172 -172 -446 -172z" />
    <glyph glyph-name="uni01F5" unicode="&#x1f5;" 
d="M410 1167l163 267h369l-164 -267h-368zM504 1069q195 0 315 -135h8v106h336v-950q0 -141 -39.5 -244.5t-112 -164.5t-167 -90t-213.5 -29q-226 0 -365 96t-168 252h369q55 -62 164 -62q97 0 146.5 56t49.5 186v57h-8q-120 -135 -315 -135q-207 0 -325 144.5t-118 384.5
q0 239 118 383.5t325 144.5zM614 762q-93 0 -155 -62t-62 -159t62 -159.5t155 -62.5q94 0 158 62.5t64 159.5t-64 159t-158 62z" />
    <glyph glyph-name="uni01F8" unicode="&#x1f8;" horiz-adv-x="1650" 
d="M868 1827l164 -266h-368l-164 266h368zM1516 1434v-1434h-439l-577 897h-8v-897h-357v1434h438l578 -897h8v897h357z" />
    <glyph glyph-name="uni01F9" unicode="&#x1f9;" horiz-adv-x="1265" 
d="M684 1434l164 -267h-369l-164 267h369zM106 0v1040h336v-106h9q143 135 323 135q81 0 151.5 -28t125 -82t85.5 -141.5t31 -199.5v-618h-336v553q0 58 -16.5 100.5t-45 64t-58.5 31t-64 9.5q-86 0 -145.5 -59.5t-59.5 -182.5v-516h-336z" />
    <glyph glyph-name="Oslashacute" unicode="&#x1fe;" horiz-adv-x="1679" 
d="M635 1561l164 266h368l-163 -266h-369zM840 -29q-117 0 -219 27l-76 -141h-344l149 274q-124 99 -192 249t-68 337q0 225 98 395.5t267.5 260t384.5 89.5q121 0 219 -26l76 141h344l-150 -274q124 -99 192 -249t68 -337q0 -169 -56.5 -309.5t-156.5 -236t-238 -148
t-298 -52.5zM522 451l371 682q-16 2 -53 2q-177 0 -285.5 -113t-108.5 -305q0 -157 76 -266zM840 299q176 0 284.5 113t108.5 305q0 157 -76 266l-371 -682q16 -2 54 -2z" />
    <glyph glyph-name="oslashacute" unicode="&#x1ff;" horiz-adv-x="1236" 
d="M414 1167l164 267h368l-164 -267h-368zM618 -29q-81 0 -159 19l-62 -113h-254l113 209q-93 72 -144 183t-51 251q0 251 155 400t402 149q86 0 160 -18l62 112h254l-113 -209q93 -72 144 -183t51 -251q0 -251 -155.5 -400t-402.5 -149zM424 395l199 367
q-105 0 -165.5 -67.5t-60.5 -174.5q0 -66 27 -125zM614 279q105 0 165.5 67t60.5 174q0 66 -27 125z" />
    <glyph glyph-name="uni0218" unicode="&#x218;" horiz-adv-x="1486" 
d="M786 -29q-122 0 -222.5 13.5t-195 49t-161 92t-111 147t-55.5 210.5h373q16 -63 52.5 -105.5t90 -63t107 -28t122.5 -7.5q283 0 283 131q0 43 -33.5 72.5t-90.5 45t-131 26t-155 22t-162.5 28t-155.5 48.5t-131 78t-90.5 122t-33.5 176q0 80 23 145t59.5 109.5t90 78
t107 52.5t118.5 30.5t117 15t108 3.5q635 0 680 -475h-373q-7 50 -37.5 84.5t-77 52t-93 24.5t-99.5 7q-114 0 -190.5 -32t-76.5 -95q0 -40 33.5 -67.5t90.5 -42.5t131 -26.5t155.5 -24t162.5 -30.5t155 -51t131 -79.5t90.5 -122.5t33.5 -174q0 -439 -639 -439zM553 -696
l94 227q-73 9 -116.5 51.5t-43.5 110.5q0 79 52 121.5t145 42.5q94 0 145.5 -47t51.5 -138q0 -88 -37 -172l-86 -196h-205z" />
    <glyph glyph-name="uni0219" unicode="&#x219;" horiz-adv-x="1118" 
d="M582 -29q-510 0 -541 361h344q40 -94 197 -94q67 -2 107 15.5t40 53.5q0 25 -28.5 41.5t-75 24t-106 17.5t-122 20.5t-122 35t-106 59.5t-75 95.5t-28.5 140.5q0 78 30.5 137.5t77 95t111.5 57.5t125.5 30t126.5 8q77 0 144.5 -11t130.5 -36.5t110.5 -64.5t79.5 -99.5
t42 -136.5h-344q-29 82 -168 82q-131 0 -131 -62q0 -24 28.5 -39t75 -22t106.5 -17t122 -20.5t122 -36t106.5 -60.5t75 -96.5t28.5 -142.5q0 -84 -30.5 -146.5t-76.5 -98t-113 -57t-128.5 -28t-134.5 -6.5zM418 -696l94 227q-73 9 -116.5 51.5t-43.5 110.5q0 79 52 121.5
t145 42.5q94 0 145 -47t51 -138q0 -90 -36 -172l-86 -196h-205z" />
    <glyph glyph-name="uni021A" unicode="&#x21a;" horiz-adv-x="1536" 
d="M590 0v1106h-529v328h1414v-328h-529v-1106h-356zM637 -696l94 227q-73 9 -116.5 51.5t-43.5 110.5q0 79 52 121.5t145 42.5q94 0 145.5 -47t51.5 -138q0 -88 -37 -172l-86 -196h-205z" />
    <glyph glyph-name="uni021B" unicode="&#x21b;" horiz-adv-x="1163" 
d="M635 0q-175 0 -265.5 90.5t-90.5 265.5v377h-218v307h218v312h335v-312h471v-307h-471v-352q0 -40 17 -57t57 -17h397v-307h-450zM483 -696l95 227q-73 9 -116.5 51.5t-43.5 110.5q0 79 51.5 121.5t144.5 42.5q94 0 145.5 -47t51.5 -138q0 -88 -37 -172l-86 -196h-205z
" />
    <glyph glyph-name="uni021E" unicode="&#x21e;" horiz-adv-x="1601" 
d="M637 1561l-225 327h286l99 -143h8l98 143h287l-225 -327h-328zM135 0v1434h357v-537h618v537h356v-1434h-356v569h-618v-569h-357z" />
    <glyph glyph-name="uni021F" unicode="&#x21f;" horiz-adv-x="1265" 
d="M111 1561l-226 327h287l98 -143h9l98 143h287l-226 -327h-327zM106 0v1434h336v-500h9q143 135 323 135q81 0 151.5 -28t125 -82t85.5 -141.5t31 -199.5v-618h-336v553q0 58 -16.5 100.5t-45 64t-58.5 31t-64 9.5q-86 0 -145.5 -59.5t-59.5 -182.5v-516h-336z" />
    <glyph glyph-name="uni0226" unicode="&#x226;" horiz-adv-x="1638" 
d="M819 1520q-88 0 -142 44t-54 119t54 119.5t142 44.5t142.5 -44.5t54.5 -119.5t-54.5 -119t-142.5 -44zM1618 0h-385l-107 270h-614l-106 -270h-386l574 1434h450zM637 590h364l-178 450h-8z" />
    <glyph glyph-name="uni0227" unicode="&#x227;" horiz-adv-x="1187" 
d="M594 1126q-88 0 -142.5 44.5t-54.5 119.5t54.5 119.5t142.5 44.5t142.5 -44.5t54.5 -119.5t-54.5 -119.5t-142.5 -44.5zM389 -29q-46 0 -89 7t-90 26.5t-81.5 51t-57 84.5t-22.5 122q0 48 12 89.5t29 71.5t46.5 56t55 42.5t64 32.5t63 24.5t62.5 19.5l328 94v8
q0 44 -33 73.5t-90 29.5q-58 0 -96.5 -30.5t-47.5 -80.5h-344q18 192 151 284.5t337 92.5q70 0 132 -10.5t121.5 -37t102 -67.5t68.5 -107t26 -151v-348q0 -22 9.5 -31.5t31.5 -9.5h70v-307h-295q-101 0 -123 78l-8 28h-8q-128 -135 -324 -135zM492 225q102 0 159.5 59
t57.5 154v8l-238 -69q-86 -24 -86 -82q0 -70 107 -70z" />
    <glyph glyph-name="uni0228" unicode="&#x228;" horiz-adv-x="1458" 
d="M492 578v-259h864v-319h-522l-23 -66q71 -14 119.5 -55.5t48.5 -111.5q0 -177 -332 -177h-82v205h66q74 0 74 41t-74 41h-29l47 123h-514v1434h1221v-320h-864v-229h782v-307h-782z" />
    <glyph glyph-name="uni0229" unicode="&#x229;" horiz-adv-x="1204" 
d="M430 -410v205h66q73 0 73 41t-73 41h-29l39 103q-196 32 -320.5 177t-124.5 363q0 123 42.5 227t116 174t173.5 109t213 39q152 0 273 -64.5t192.5 -188.5t71.5 -288l-4 -114h-738q20 -84 73.5 -130t131.5 -46q111 0 168 81h348q-45 -127 -156.5 -223.5t-275.5 -118.5
l-14 -43q71 -14 119.5 -55.5t48.5 -111.5q0 -177 -332 -177h-82zM408 651h391q-49 152 -193 152q-72 0 -123.5 -40t-74.5 -112z" />
    <glyph glyph-name="uni0232" unicode="&#x232;" horiz-adv-x="1622" 
d="M463 1581v225h696v-225h-696zM633 0v557l-613 877h414l377 -545l377 545h414l-613 -877v-557h-356z" />
    <glyph glyph-name="uni0233" unicode="&#x233;" 
d="M295 1188v225h696v-225h-696zM176 -410v308h172q102 0 139 98l2 6l-460 1038h360l258 -598h12l230 598h352l-459 -1155q-46 -118 -97.5 -179.5t-129.5 -88.5t-207 -27h-172z" />
    <glyph glyph-name="uni0237" unicode="&#x237;" horiz-adv-x="548" 
d="M-123 -410v316h168q37 0 49 12t12 49v1073h336v-1101q0 -185 -82 -267t-266 -82h-217z" />
    <glyph glyph-name="circumflex" unicode="&#x2c6;" horiz-adv-x="1024" 
d="M123 1167l225 328h328l225 -328h-287l-98 144h-8l-98 -144h-287z" />
    <glyph glyph-name="caron" unicode="&#x2c7;" horiz-adv-x="1024" 
d="M348 1167l-225 328h287l98 -143h8l98 143h287l-225 -328h-328z" />
    <glyph glyph-name="breve" unicode="&#x2d8;" horiz-adv-x="1024" 
d="M512 1163q-168 0 -258.5 88t-93.5 244h229q0 -63 36 -95t87 -32t87 32t36 95h229q-3 -156 -93.5 -244t-258.5 -88z" />
    <glyph glyph-name="dotaccent" unicode="&#x2d9;" horiz-adv-x="1024" 
d="M512 1126q-88 0 -142.5 44.5t-54.5 119.5t54.5 119.5t142.5 44.5t142.5 -44.5t54.5 -119.5t-54.5 -119.5t-142.5 -44.5z" />
    <glyph glyph-name="ring" unicode="&#x2da;" horiz-adv-x="1024" 
d="M512 1122q-108 0 -183 60.5t-75 169.5t75 169t183 60t183 -60t75 -169t-75 -169.5t-183 -60.5zM434 1352q0 -36 21.5 -55t56.5 -19t56.5 19t21.5 55t-21.5 54.5t-56.5 18.5t-56.5 -18.5t-21.5 -54.5z" />
    <glyph glyph-name="ogonek" unicode="&#x2db;" horiz-adv-x="1024" 
d="M369 -410q-125 0 -196 52.5t-71 152.5q0 73 39.5 128.5t104.5 88.5l266 -12q-135 -39 -135 -102q0 -32 29.5 -47t76.5 -15h29v-246h-143z" />
    <glyph glyph-name="tilde" unicode="&#x2dc;" horiz-adv-x="1024" 
d="M365 1458q44 0 82.5 -13.5t60.5 -29.5t50.5 -29.5t55.5 -13.5q56 0 62 62h225q-9 -147 -73.5 -219t-168.5 -72q-44 0 -82.5 13.5t-60.5 29.5t-50.5 29.5t-55.5 13.5q-56 0 -62 -62h-225q9 147 73.5 219t168.5 72z" />
    <glyph glyph-name="hungarumlaut" unicode="&#x2dd;" horiz-adv-x="1024" 
d="M541 1167l164 267h327l-164 -267h-327zM90 1167l164 267h328l-164 -267h-328z" />
    <glyph glyph-name="uni0312" unicode="&#x312;" horiz-adv-x="0" 
d="M131 1679l-94 -227q73 -9 116.5 -51.5t43.5 -110.5q0 -79 -52 -121.5t-145 -42.5q-94 0 -145.5 47t-51.5 138q0 88 37 172l86 196h205z" />
    <glyph glyph-name="uni0326" unicode="&#x326;" horiz-adv-x="0" 
d="M-131 -696l94 227q-73 9 -116.5 51.5t-43.5 110.5q0 79 52 121.5t145 42.5q94 0 145.5 -47t51.5 -138q0 -88 -37 -172l-86 -196h-205z" />
    <glyph glyph-name="uni0400" unicode="&#x400;" horiz-adv-x="1458" 
d="M795 1827l163 -266h-368l-164 266h369zM492 578v-259h864v-319h-1221v1434h1221v-320h-864v-229h782v-307h-782z" />
    <glyph glyph-name="uni0401" unicode="&#x401;" horiz-adv-x="1458" 
d="M528 1520q-84 0 -134 43.5t-50 119.5t50 120t134 44t134.5 -44t50.5 -120t-50.5 -119.5t-134.5 -43.5zM979 1520q-84 0 -134 43.5t-50 119.5t50 120t134 44t134 -44t50 -120t-50 -119.5t-134 -43.5zM492 578v-259h864v-319h-1221v1434h1221v-320h-864v-229h782v-307h-782
z" />
    <glyph glyph-name="uni0402" unicode="&#x402;" horiz-adv-x="1785" 
d="M1094 -4v328h73q98 0 160 37t62 122t-62 122.5t-160 37.5q-144 0 -217 -71t-73 -224v-348h-357v1106h-459v328h1274v-328h-458v-270h8q150 135 368 135q226 0 359 -126.5t133 -361.5q0 -234 -133 -360.5t-359 -126.5h-159z" />
    <glyph glyph-name="uni0403" unicode="&#x403;" horiz-adv-x="1372" 
d="M532 1561l164 266h369l-164 -266h-369zM135 0v1434h1176v-336h-819v-1098h-357z" />
    <glyph glyph-name="uni0404" unicode="&#x404;" horiz-adv-x="1617" 
d="M840 -29q-161 0 -298.5 52.5t-237.5 148t-157 236t-57 309.5q0 225 98 395.5t267.5 260t384.5 89.5q269 0 456 -143.5t252 -396.5h-377q-50 103 -138.5 158t-209.5 55q-128 0 -218 -62.5t-130 -175.5h529v-328h-539q34 -128 127.5 -199t230.5 -71q121 0 209.5 55
t138.5 158h377q-65 -253 -252 -397t-456 -144z" />
    <glyph glyph-name="uni0405" unicode="&#x405;" horiz-adv-x="1486" 
d="M786 -29q-122 0 -222.5 13.5t-195 49t-161 92t-111 147t-55.5 210.5h373q16 -63 52.5 -105.5t90 -63t107 -28t122.5 -7.5q283 0 283 131q0 43 -33.5 72.5t-90.5 45t-131 26t-155 22t-162.5 28t-155.5 48.5t-131 78t-90.5 122t-33.5 176q0 80 23 145t59.5 109.5t90 78
t107 52.5t118.5 30.5t117 15t108 3.5q635 0 680 -475h-373q-7 50 -37.5 84.5t-77 52t-93 24.5t-99.5 7q-114 0 -190.5 -32t-76.5 -95q0 -40 33.5 -67.5t90.5 -42.5t131 -26.5t155.5 -24t162.5 -30.5t155 -51t131 -79.5t90.5 -122.5t33.5 -174q0 -439 -639 -439z" />
    <glyph glyph-name="uni0406" unicode="&#x406;" horiz-adv-x="626" 
d="M135 0v1434h357v-1434h-357z" />
    <glyph glyph-name="uni0407" unicode="&#x407;" horiz-adv-x="626" 
d="M88 1520q-84 0 -134 43.5t-50 119.5t50 120t134 44t134 -44t50 -120t-50 -119.5t-134 -43.5zM539 1520q-84 0 -134.5 43.5t-50.5 119.5t50.5 120t134.5 44t134 -44t50 -120t-50 -119.5t-134 -43.5zM135 0v1434h357v-1434h-357z" />
    <glyph glyph-name="uni0408" unicode="&#x408;" horiz-adv-x="1404" 
d="M61 0v336h779q52 0 67 15t15 67v1016h356v-1078q0 -206 -75 -281t-281 -75h-861z" />
    <glyph glyph-name="uni0409" unicode="&#x409;" horiz-adv-x="2453" 
d="M287 -4h-246v356h156q37 0 60 20.5t26 57.5l86 1004h1085v-435h369q137 0 246 -37.5t179 -104.5t107 -158t37 -199t-37 -199t-107 -158.5t-179 -105t-246 -37.5h-725v1106h-406l-65 -795q-12 -154 -99 -234.5t-241 -80.5zM1454 307h365q95 0 156 51.5t61 141.5
q0 89 -61.5 140.5t-155.5 51.5h-365v-385z" />
    <glyph glyph-name="uni040A" unicode="&#x40a;" horiz-adv-x="2424" 
d="M135 0v1434h357v-435h577v435h356v-435h369q137 0 246 -37.5t179 -104.5t107 -158t37 -199t-37 -199t-107 -158.5t-179 -105t-246 -37.5h-725v672h-577v-672h-357zM1425 307h365q95 0 156 51.5t61 141.5q0 89 -61.5 140.5t-155.5 51.5h-365v-385z" />
    <glyph glyph-name="uni040B" unicode="&#x40b;" horiz-adv-x="1732" 
d="M1315 0v389q0 72 -19 123.5t-51 77.5t-66 37.5t-73 11.5q-95 0 -162 -65.5t-67 -204.5v-369h-357v1106h-459v328h1274v-328h-458v-270h8q150 135 356 135q91 0 168 -30t136 -89t92.5 -156.5t33.5 -224.5v-471h-356z" />
    <glyph glyph-name="uni040C" unicode="&#x40c;" horiz-adv-x="1568" 
d="M553 1561l164 266h368l-163 -266h-369zM135 0v1434h357v-537h165l451 537h428l-594 -701l606 -733h-436l-467 569h-153v-569h-357z" />
    <glyph glyph-name="uni040D" unicode="&#x40d;" horiz-adv-x="1650" 
d="M860 1827l164 -266h-369l-163 266h368zM1516 1434v-1434h-357v942l-590 -942h-434v1434h357v-942l589 942h435z" />
    <glyph glyph-name="uni040E" unicode="&#x40e;" horiz-adv-x="1515" 
d="M772 1556q-168 0 -258.5 88t-93.5 244h229q0 -63 36 -95t87 -32t87 32t36 95h229q-3 -156 -93.5 -244t-258.5 -88zM307 0v336h246q37 0 53 37l6 12l-583 1049h389l364 -668h11l317 668h377l-541 -1115q-37 -76 -58 -116t-52 -82.5t-57 -60.5t-68.5 -34.5t-92 -21
t-122.5 -4.5h-189z" />
    <glyph glyph-name="uni040F" unicode="&#x40f;" horiz-adv-x="1601" 
d="M614 -369v369h-479v1434h357v-1106h618v1106h356v-1434h-479v-369h-373z" />
    <glyph glyph-name="uni0410" unicode="&#x410;" horiz-adv-x="1638" 
d="M1618 0h-385l-107 270h-614l-106 -270h-386l574 1434h450zM637 590h364l-178 450h-8z" />
    <glyph glyph-name="uni0411" unicode="&#x411;" horiz-adv-x="1544" 
d="M492 1118v-205h438q136 0 241 -34.5t169.5 -96.5t97 -144.5t32.5 -182.5q0 -206 -135.5 -330.5t-404.5 -124.5h-795v1434h1237v-316h-880zM492 315h438q184 0 184 140q0 143 -184 143h-438v-283z" />
    <glyph glyph-name="uni0412" unicode="&#x412;" horiz-adv-x="1544" 
d="M135 0v1434h840q210 0 328 -95t118 -266q0 -205 -184 -319v-9q106 -46 169.5 -142t63.5 -214q0 -166 -124 -277.5t-338 -111.5h-873zM492 881h385q96 0 142 26.5t46 96.5t-46 96t-142 26h-385v-245zM492 307h434q97 0 142.5 35.5t45.5 97.5q0 133 -192 133h-430v-266z
" />
    <glyph glyph-name="uni0413" unicode="&#x413;" horiz-adv-x="1372" 
d="M135 0v1434h1176v-336h-819v-1098h-357z" />
    <glyph glyph-name="uni0414" unicode="&#x414;" horiz-adv-x="1671" 
d="M1630 -307h-356v307h-877v-307h-356v635h115q37 0 60 20.5t26 57.5l98 1028h1114v-1106h176v-635zM578 328h520v778h-434l-74 -696z" />
    <glyph glyph-name="uni0415" unicode="&#x415;" horiz-adv-x="1458" 
d="M492 578v-259h864v-319h-1221v1434h1221v-320h-864v-229h782v-307h-782z" />
    <glyph glyph-name="uni0416" unicode="&#x416;" horiz-adv-x="2445" 
d="M1044 0v569h-120l-467 -569h-437l607 733l-594 701h428l450 -537h133v537h357v-537h133l451 537h428l-594 -701l606 -733h-436l-467 569h-121v-569h-357z" />
    <glyph glyph-name="uni0417" unicode="&#x417;" horiz-adv-x="1507" 
d="M774 -29q-322 0 -507 128t-197 352h376q12 -75 96 -117.5t232 -42.5q135 0 219 38t84 109q0 63 -67.5 99t-194.5 36h-209v308h180q242 0 242 123q0 40 -23.5 68.5t-65 43t-87 21t-98.5 6.5q-132 0 -212.5 -42t-95.5 -118h-376q19 226 197.5 352.5t486.5 126.5
q126 0 235.5 -22.5t200 -68t142.5 -124t52 -182.5q0 -190 -184 -311v-9q107 -44 170.5 -136t63.5 -212q0 -200 -179 -313t-481 -113z" />
    <glyph glyph-name="uni0418" unicode="&#x418;" horiz-adv-x="1650" 
d="M1516 1434v-1434h-357v942l-590 -942h-434v1434h357v-942l589 942h435z" />
    <glyph glyph-name="uni0419" unicode="&#x419;" horiz-adv-x="1650" 
d="M821 1556q-168 0 -258.5 88t-93.5 244h229q0 -63 36 -95t87 -32t87 32t36 95h230q-3 -156 -94 -244t-259 -88zM1516 1434v-1434h-357v942l-590 -942h-434v1434h357v-942l589 942h435z" />
    <glyph glyph-name="uni041A" unicode="&#x41a;" horiz-adv-x="1568" 
d="M135 0v1434h357v-537h165l451 537h428l-594 -701l606 -733h-436l-467 569h-153v-569h-357z" />
    <glyph glyph-name="uni041B" unicode="&#x41b;" horiz-adv-x="1630" 
d="M1495 1434v-1434h-356v1106h-447l-65 -795q-12 -154 -99 -234.5t-241 -80.5h-246v356h156q37 0 60 20.5t26 57.5l86 1004h1126z" />
    <glyph glyph-name="uni041C" unicode="&#x41c;" horiz-adv-x="2097" 
d="M1962 1434v-1434h-356v977h-9l-434 -977h-229l-434 977h-8v-977h-357v1434h529l380 -856h9l381 856h528z" />
    <glyph glyph-name="uni041D" unicode="&#x41d;" horiz-adv-x="1601" 
d="M135 0v1434h357v-537h618v537h356v-1434h-356v569h-618v-569h-357z" />
    <glyph glyph-name="uni041E" unicode="&#x41e;" horiz-adv-x="1679" 
d="M840 -29q-161 0 -298.5 52.5t-237.5 148t-157 236t-57 309.5q0 225 98 395.5t267.5 260t384.5 89.5q161 0 298.5 -52.5t237.5 -147.5t156.5 -235.5t56.5 -309.5t-56.5 -309.5t-156.5 -236t-238 -148t-298 -52.5zM840 299q176 0 284.5 113t108.5 305t-108.5 305
t-284.5 113q-177 0 -285.5 -113t-108.5 -305t108.5 -305t285.5 -113z" />
    <glyph glyph-name="uni041F" unicode="&#x41f;" horiz-adv-x="1601" 
d="M135 0v1434h1331v-1434h-356v1106h-618v-1106h-357z" />
    <glyph glyph-name="uni0420" unicode="&#x420;" horiz-adv-x="1572" 
d="M983 434h-491v-434h-357v1434h848q112 0 208.5 -35.5t167.5 -99t111.5 -158t40.5 -207.5t-40.5 -207.5t-111.5 -158t-167.5 -99t-208.5 -35.5zM492 754h491q76 0 124 50t48 130t-48 130t-124 50h-491v-360z" />
    <glyph glyph-name="uni0421" unicode="&#x421;" horiz-adv-x="1617" 
d="M823 -29q-214 0 -380 90t-259.5 260t-93.5 396t93.5 396t259.5 259.5t380 89.5q284 0 480 -156t245 -425h-377q-41 123 -128.5 188.5t-219.5 65.5q-175 0 -276 -112t-101 -306t101 -306t276 -112q132 0 219.5 65.5t128.5 188.5h377q-49 -269 -245 -425.5t-480 -156.5z
" />
    <glyph glyph-name="uni0422" unicode="&#x422;" horiz-adv-x="1536" 
d="M590 0v1106h-529v328h1414v-328h-529v-1106h-356z" />
    <glyph glyph-name="uni0423" unicode="&#x423;" horiz-adv-x="1515" 
d="M307 0v336h246q37 0 53 37l6 12l-583 1049h389l364 -668h11l317 668h377l-541 -1115q-37 -76 -58 -116t-52 -82.5t-57 -60.5t-68.5 -34.5t-92 -21t-122.5 -4.5h-189z" />
    <glyph glyph-name="uni0424" unicode="&#x424;" horiz-adv-x="2011" 
d="M827 -29v164h-82q-197 0 -351.5 69.5t-243.5 203t-89 309.5t89 309t243.5 202.5t351.5 69.5h82v164h357v-164h82q197 0 351.5 -69.5t243.5 -202.5t89 -309t-89 -309.5t-243.5 -203t-351.5 -69.5h-82v-164h-357zM827 463v508h-82q-146 0 -236.5 -69t-90.5 -185t90.5 -185
t236.5 -69h82zM1184 463h82q146 0 236.5 69t90.5 185t-90.5 185t-236.5 69h-82v-508z" />
    <glyph glyph-name="uni0425" unicode="&#x425;" horiz-adv-x="1613" 
d="M20 0l572 725l-559 709h430l344 -437l344 437h430l-559 -709l571 -725h-430l-356 453l-356 -453h-431z" />
    <glyph glyph-name="uni0426" unicode="&#x426;" horiz-adv-x="1683" 
d="M135 0v1434h357v-1106h618v1106h356v-1106h176v-635h-356v307h-1151z" />
    <glyph glyph-name="uni0427" unicode="&#x427;" horiz-adv-x="1536" 
d="M1401 1434v-1434h-357v508q-156 -29 -303 -29q-659 0 -659 647v308h356v-308q0 -96 24.5 -160t74.5 -98t113 -47.5t153 -13.5q118 0 241 24v603h357z" />
    <glyph glyph-name="uni0428" unicode="&#x428;" horiz-adv-x="2412" 
d="M2277 1434v-1434h-2142v1434h357v-1106h536v1106h356v-1106h537v1106h356z" />
    <glyph glyph-name="uni0429" unicode="&#x429;" horiz-adv-x="2494" 
d="M2454 328v-635h-357v307h-1962v1434h357v-1106h536v1106h356v-1106h537v1106h356v-1106h177z" />
    <glyph glyph-name="uni042A" unicode="&#x42a;" horiz-adv-x="1867" 
d="M61 1106v328h766v-435h410q137 0 246 -37.5t179 -104.5t107 -158t37 -199t-37 -199t-107 -158.5t-179 -105t-246 -37.5h-766v1106h-410zM827 307h406q95 0 156 51.5t61 141.5q0 89 -61.5 140.5t-155.5 51.5h-406v-385z" />
    <glyph glyph-name="uni042B" unicode="&#x42b;" horiz-adv-x="2056" 
d="M1921 1434v-1434h-356v1434h356zM840 0h-705v1434h357v-435h348q137 0 246 -37.5t179 -104.5t107 -158t37 -199t-37 -199t-107 -158.5t-179 -105t-246 -37.5zM492 692v-385h344q95 0 156 51.5t61 141.5q0 89 -61.5 140.5t-155.5 51.5h-344z" />
    <glyph glyph-name="uni042C" unicode="&#x42c;" horiz-adv-x="1531" 
d="M135 0v1434h357v-435h409q137 0 246 -37.5t179 -104.5t107 -158t37 -199t-37 -199t-107 -158.5t-179 -105t-246 -37.5h-766zM492 307h405q95 0 156 51.5t61 141.5q0 89 -61.5 140.5t-155.5 51.5h-405v-385z" />
    <glyph glyph-name="uni042D" unicode="&#x42d;" horiz-adv-x="1617" 
d="M778 -29q-269 0 -456 144t-252 397h376q50 -103 139 -158t210 -55q137 0 230.5 71t127.5 199h-539v328h529q-40 113 -130 175.5t-218 62.5q-121 0 -210 -55t-139 -158h-376q65 253 252 396.5t456 143.5q215 0 384.5 -89.5t267.5 -260t98 -395.5q0 -169 -57 -309.5
t-157 -236t-237.5 -148t-298.5 -52.5z" />
    <glyph glyph-name="uni042E" unicode="&#x42e;" horiz-adv-x="2256" 
d="M492 569v-569h-357v1434h357v-537h233q51 263 242.5 414t470.5 151q160 0 295 -52.5t231 -147.5t149.5 -235t53.5 -310q0 -226 -92.5 -396t-257.5 -260t-379 -90q-288 0 -482.5 160t-236.5 438h-227zM1438 299q174 0 273 112t99 306t-99 306t-273 112t-273.5 -112
t-99.5 -306t99.5 -306t273.5 -112z" />
    <glyph glyph-name="uni042F" unicode="&#x42f;" horiz-adv-x="1572" 
d="M733 459l-262 -459h-393l287 498q-140 52 -222 168.5t-82 279.5q0 150 70 262t189.5 169t269.5 57h848v-1434h-357v459h-348zM590 778h491v336h-491q-75 0 -123.5 -45t-48.5 -123t48.5 -123t123.5 -45z" />
    <glyph glyph-name="uni0430" unicode="&#x430;" horiz-adv-x="1187" 
d="M389 -29q-46 0 -89 7t-90 26.5t-81.5 51t-57 84.5t-22.5 122q0 48 12 89.5t29 71.5t46.5 56t55 42.5t64 32.5t63 24.5t62.5 19.5l328 94v8q0 44 -33 73.5t-90 29.5q-58 0 -96.5 -30.5t-47.5 -80.5h-344q18 192 151 284.5t337 92.5q70 0 132 -10.5t121.5 -37t102 -67.5
t68.5 -107t26 -151v-348q0 -22 9.5 -31.5t31.5 -9.5h70v-307h-295q-101 0 -123 78l-8 28h-8q-128 -135 -324 -135zM492 225q102 0 159.5 59t57.5 154v8l-238 -69q-86 -24 -86 -82q0 -70 107 -70z" />
    <glyph glyph-name="uni0431" unicode="&#x431;" horiz-adv-x="1253" 
d="M635 -29q-263 0 -412 160.5t-149 462.5q0 377 152 578.5t450 248.5l422 66v-332l-422 -65q-100 -16 -161 -73t-89 -136h8q102 94 271 94q92 0 178.5 -34.5t155.5 -96.5t111 -158.5t42 -210.5q0 -232 -155 -368t-402 -136zM635 279q95 0 158 53t63 143t-63 143.5
t-158 53.5t-158 -53.5t-63 -143.5t63 -143t158 -53z" />
    <glyph glyph-name="uni0432" unicode="&#x432;" horiz-adv-x="1249" 
d="M106 0v1040h676q172 0 274.5 -71.5t102.5 -194.5q0 -79 -41 -132.5t-119 -92.5v-8q86 -32 137.5 -99t51.5 -159q0 -126 -104 -204.5t-285 -78.5h-693zM442 651h287q49 0 71.5 16.5t22.5 53.5q0 74 -94 74h-287v-144zM442 246h312q48 0 73 22t25 60q0 78 -98 78h-312v-160
z" />
    <glyph glyph-name="uni0433" unicode="&#x433;" horiz-adv-x="1036" 
d="M106 0v1040h869v-315h-533v-725h-336z" />
    <glyph glyph-name="uni0434" unicode="&#x434;" horiz-adv-x="1335" 
d="M123 307q40 0 55.5 15t18.5 55l59 663h887v-733h172v-532h-336v225h-623v-225h-336v532h103zM516 307h291v426h-244l-39 -356z" />
    <glyph glyph-name="uni0435" unicode="&#x435;" horiz-adv-x="1204" 
d="M606 -29q-113 0 -213 39t-173.5 109t-116 174t-42.5 227t42.5 227t116 174t173.5 109t213 39q152 0 273 -64.5t192.5 -188.5t71.5 -288l-4 -114h-738q20 -84 73.5 -130t131.5 -46q111 0 168 81h348q-24 -67 -67.5 -127.5t-106.5 -111t-151.5 -80t-190.5 -29.5zM408 651
h391q-49 152 -193 152q-72 0 -123.5 -40t-74.5 -112z" />
    <glyph glyph-name="uni0436" unicode="&#x436;" horiz-adv-x="1892" 
d="M778 0v381h-57l-295 -381h-410l414 528l-389 512h397l271 -360h69v360h336v-360h70l270 360h397l-389 -512l414 -528h-410l-295 381h-57v-381h-336z" />
    <glyph glyph-name="uni0437" unicode="&#x437;" horiz-adv-x="1171" 
d="M602 -29q-257 0 -403.5 95.5t-149.5 269.5h348q22 -90 205 -90q81 0 137 23t56 59t-56 59t-137 23h-143v245h131q72 0 113.5 19.5t41.5 50.5t-41.5 50.5t-113.5 19.5q-76 0 -127 -23t-66 -67h-348q9 96 57.5 168.5t125 114t166.5 61.5t192 20q99 0 186 -18.5t156 -54.5
t109 -96.5t40 -137.5q0 -79 -40.5 -128t-122.5 -85v-8q89 -29 140.5 -93t51.5 -157q0 -152 -136 -236t-372 -84z" />
    <glyph glyph-name="uni0438" unicode="&#x438;" horiz-adv-x="1253" 
d="M1147 1040v-1040h-336v532h-8l-361 -532h-336v1040h336v-532h9l360 532h336z" />
    <glyph glyph-name="uni0439" unicode="&#x439;" horiz-adv-x="1253" 
d="M625 1163q-168 0 -259 88t-94 244h230q0 -63 36 -95t87 -32t87 32t36 95h229q-3 -156 -93.5 -244t-258.5 -88zM1147 1040v-1040h-336v532h-8l-361 -532h-336v1040h336v-532h9l360 532h336z" />
    <glyph glyph-name="uni043A" unicode="&#x43a;" horiz-adv-x="1265" 
d="M106 0v1040h336v-360h115l270 360h398l-389 -512l413 -528h-409l-295 381h-103v-381h-336z" />
    <glyph glyph-name="uni043B" unicode="&#x43b;" 
d="M1163 1040v-1040h-336v733h-254l-24 -405q-9 -157 -102 -244.5t-250 -87.5h-152v328h107q40 0 55 14.5t18 54.5l41 647h897z" />
    <glyph glyph-name="uni043C" unicode="&#x43c;" horiz-adv-x="1605" 
d="M1499 1040v-1040h-336v549h-8l-233 -549h-238l-233 549h-9v-549h-336v1040h435l258 -602h8l258 602h434z" />
    <glyph glyph-name="uni043D" unicode="&#x43d;" horiz-adv-x="1232" 
d="M442 377v-377h-336v1040h336v-356h349v356h335v-1040h-335v377h-349z" />
    <glyph glyph-name="uni043E" unicode="&#x43e;" horiz-adv-x="1236" 
d="M618 -29q-247 0 -402 149t-155 400t155 400t402 149t402.5 -149t155.5 -400t-155.5 -400t-402.5 -149zM618 279q96 0 159 64t63 177t-63 177.5t-159 64.5t-158.5 -64.5t-62.5 -177.5t62.5 -177t158.5 -64z" />
    <glyph glyph-name="uni043F" unicode="&#x43f;" horiz-adv-x="1232" 
d="M442 733v-733h-336v1040h1020v-1040h-335v733h-349z" />
    <glyph glyph-name="uni0440" unicode="&#x440;" 
d="M766 1069q208 0 325 -146.5t117 -402.5t-117 -402.5t-325 -146.5q-195 0 -315 135h-9v-516h-336v1450h336v-106h9q120 135 315 135zM655 279q94 0 155.5 66.5t61.5 174.5q0 109 -61.5 175.5t-155.5 66.5t-157.5 -67t-63.5 -175t63.5 -174.5t157.5 -66.5z" />
    <glyph glyph-name="uni0441" unicode="&#x441;" horiz-adv-x="1200" 
d="M606 -29q-246 0 -395.5 147t-149.5 402t149.5 402t395.5 147q96 0 181.5 -24.5t161 -74.5t128.5 -136.5t74 -202.5h-348q-60 131 -197 131q-97 0 -153 -63.5t-56 -178.5t56 -178t153 -63q137 0 197 131h348q-21 -116 -74 -202.5t-128.5 -137t-161 -75t-181.5 -24.5z" />
    <glyph glyph-name="uni0442" unicode="&#x442;" horiz-adv-x="1183" 
d="M61 733v307h1061v-307h-362v-733h-336v733h-363z" />
    <glyph glyph-name="uni0443" unicode="&#x443;" 
d="M176 -410v308h172q102 0 139 98l2 6l-460 1038h360l258 -598h12l230 598h352l-459 -1155q-46 -118 -97.5 -179.5t-129.5 -88.5t-207 -27h-172z" />
    <glyph glyph-name="uni0444" unicode="&#x444;" horiz-adv-x="1671" 
d="M668 -16h-50q-162 0 -287.5 63t-197.5 185.5t-72 287.5q0 248 155 392.5t402 144.5h50v377h336v-377h49q247 0 402 -144.5t155 -392.5q0 -165 -72 -287.5t-197.5 -185.5t-287.5 -63h-49v-394h-336v394zM668 291v459h-50q-96 0 -158.5 -61.5t-62.5 -168.5t62.5 -168
t158.5 -61h50zM1053 750h-49v-459h49q96 0 158.5 61t62.5 168t-62.5 168.5t-158.5 61.5z" />
    <glyph glyph-name="uni0445" unicode="&#x445;" horiz-adv-x="1228" 
d="M16 0l398 522l-394 518h402l192 -254l193 254h401l-393 -518l397 -522h-401l-197 258l-196 -258h-402z" />
    <glyph glyph-name="uni0446" unicode="&#x446;" horiz-adv-x="1318" 
d="M1298 307v-532h-335v225h-857v1040h336v-733h349v733h335v-733h172z" />
    <glyph glyph-name="uni0447" unicode="&#x447;" horiz-adv-x="1187" 
d="M1081 1040v-1040h-336v311q-123 -20 -213 -20q-226 0 -348.5 119.5t-122.5 367.5v262h336v-262q0 -100 50.5 -140t154.5 -40q61 0 143 16v426h336z" />
    <glyph glyph-name="uni0448" unicode="&#x448;" horiz-adv-x="1835" 
d="M1729 1040v-1040h-1623v1040h336v-733h308v733h335v-733h308v733h336z" />
    <glyph glyph-name="uni0449" unicode="&#x449;" horiz-adv-x="1921" 
d="M1901 307v-532h-336v225h-1459v1040h336v-733h308v733h335v-733h308v733h336v-733h172z" />
    <glyph glyph-name="uni044A" unicode="&#x44a;" horiz-adv-x="1482" 
d="M373 0v725h-312v315h648v-313h335q402 0 402 -362q0 -365 -402 -365h-671zM709 254h278q74 0 102.5 26.5t28.5 84.5t-28.5 83t-102.5 25h-278v-219z" />
    <glyph glyph-name="uni044B" unicode="&#x44b;" horiz-adv-x="1687" 
d="M1581 1040v-1040h-336v1040h336zM737 0h-631v1040h336v-313h295q402 0 402 -362q0 -365 -402 -365zM442 473v-219h238q74 0 102.5 26.5t28.5 84.5t-28.5 83t-102.5 25h-238z" />
    <glyph glyph-name="uni044C" unicode="&#x44c;" horiz-adv-x="1216" 
d="M106 0v1040h336v-313h336q402 0 402 -362q0 -365 -402 -365h-672zM442 254h279q74 0 102.5 26.5t28.5 84.5t-28.5 83t-102.5 25h-279v-219z" />
    <glyph glyph-name="uni044D" unicode="&#x44d;" horiz-adv-x="1204" 
d="M504 389v266h276q-28 61 -78.5 94t-115.5 33q-126 0 -189 -110h-348q25 104 79 182.5t127 124.5t156 68t175 22q247 0 402 -149t155 -400t-155 -400t-402 -149q-92 0 -175 22.5t-156 68.5t-127 124.5t-79 182.5h348q64 -111 189 -111q66 0 117 34t79 97h-278z" />
    <glyph glyph-name="uni044E" unicode="&#x44e;" horiz-adv-x="1728" 
d="M1130 -29q-199 0 -340 108.5t-182 297.5h-166v-377h-336v1040h336v-356h170q45 180 184 282.5t334 102.5q237 0 387 -149t150 -400t-150 -400t-387 -149zM1130 279q88 0 144.5 64.5t56.5 176.5t-56.5 177t-144.5 65t-144 -65t-56 -177t56 -176.5t144 -64.5z" />
    <glyph glyph-name="uni044F" unicode="&#x44f;" horiz-adv-x="1241" 
d="M406 0h-357l203 373q-97 42 -150 121t-53 190q0 169 120 262.5t323 93.5h643v-1040h-336v328h-221zM492 594h307v180h-307q-48 0 -77.5 -23t-29.5 -67t29.5 -67t77.5 -23z" />
    <glyph glyph-name="uni0450" unicode="&#x450;" horiz-adv-x="1204" 
d="M647 1434l164 -267h-369l-163 267h368zM606 -29q-113 0 -213 39t-173.5 109t-116 174t-42.5 227t42.5 227t116 174t173.5 109t213 39q152 0 273 -64.5t192.5 -188.5t71.5 -288l-4 -114h-738q20 -84 73.5 -130t131.5 -46q111 0 168 81h348q-24 -67 -67.5 -127.5
t-106.5 -111t-151.5 -80t-190.5 -29.5zM408 651h391q-49 152 -193 152q-72 0 -123.5 -40t-74.5 -112z" />
    <glyph glyph-name="uni0451" unicode="&#x451;" horiz-adv-x="1204" 
d="M381 1126q-84 0 -134 44t-50 120t50 120t134 44t134 -44t50 -120t-50 -120t-134 -44zM831 1126q-84 0 -134 44t-50 120t50 120t134 44t134.5 -44t50.5 -120t-50.5 -120t-134.5 -44zM606 -29q-113 0 -213 39t-173.5 109t-116 174t-42.5 227t42.5 227t116 174t173.5 109
t213 39q152 0 273 -64.5t192.5 -188.5t71.5 -288l-4 -114h-738q20 -84 73.5 -130t131.5 -46q111 0 168 81h348q-24 -67 -67.5 -127.5t-106.5 -111t-151.5 -80t-190.5 -29.5zM408 651h391q-49 152 -193 152q-72 0 -123.5 -40t-74.5 -112z" />
    <glyph glyph-name="uni0452" unicode="&#x452;" horiz-adv-x="1265" 
d="M-33 1040v287h139v123h336v-123h250v-287h-250v-188h9q143 135 323 135q170 0 281.5 -115.5t111.5 -334.5v-598q0 -185 -82 -267t-266 -82h-217v316h168q37 0 49 12t12 49v504q0 58 -16.5 100.5t-45 64t-58.5 31t-64 9.5q-86 0 -145.5 -59.5t-59.5 -182.5v-434h-336v1040
h-139z" />
    <glyph glyph-name="uni0453" unicode="&#x453;" horiz-adv-x="1036" 
d="M336 1165l164 267h368l-163 -267h-369zM106 0v1040h869v-315h-533v-725h-336z" />
    <glyph glyph-name="uni0454" unicode="&#x454;" horiz-adv-x="1204" 
d="M700 655v-266h-278q28 -63 79 -97t117 -34q125 0 189 111h348q-25 -104 -79 -182.5t-127 -124.5t-156 -68.5t-175 -22.5q-247 0 -402 149t-155 400t155 400t402 149q92 0 175 -22t156 -68t127 -124.5t79 -182.5h-348q-63 110 -189 110q-65 0 -115.5 -33t-78.5 -94h276z
" />
    <glyph glyph-name="uni0455" unicode="&#x455;" horiz-adv-x="1118" 
d="M582 -29q-510 0 -541 361h344q40 -94 197 -94q67 -2 107 15.5t40 53.5q0 25 -28.5 41.5t-75 24t-106 17.5t-122 20.5t-122 35t-106 59.5t-75 95.5t-28.5 140.5q0 78 30.5 137.5t77 95t111.5 57.5t125.5 30t126.5 8q77 0 144.5 -11t130.5 -36.5t110.5 -64.5t79.5 -99.5
t42 -136.5h-344q-29 82 -168 82q-131 0 -131 -62q0 -24 28.5 -39t75 -22t106.5 -17t122 -20.5t122 -36t106.5 -60.5t75 -96.5t28.5 -142.5q0 -84 -30.5 -146.5t-76.5 -98t-113 -57t-128.5 -28t-134.5 -6.5z" />
    <glyph glyph-name="uni0456" unicode="&#x456;" horiz-adv-x="606" 
d="M303 1126q-88 0 -142.5 44.5t-54.5 119.5t54.5 119.5t142.5 44.5t142.5 -44.5t54.5 -119.5t-54.5 -119.5t-142.5 -44.5zM135 0v1040h336v-1040h-336z" />
    <glyph glyph-name="uni0457" unicode="&#x457;" horiz-adv-x="548" 
d="M49 1126q-84 0 -134 44t-50 120t50 120t134 44t134 -44t50 -120t-50 -120t-134 -44zM500 1126q-84 0 -134.5 44t-50.5 120t50.5 120t134.5 44t134 -44t50 -120t-50 -120t-134 -44zM106 0v1040h336v-1040h-336z" />
    <glyph glyph-name="uni0458" unicode="&#x458;" horiz-adv-x="577" 
d="M274 1126q-88 0 -142 44.5t-54 119.5t54 119.5t142 44.5t142.5 -44.5t54.5 -119.5t-54.5 -119.5t-142.5 -44.5zM-123 -410v316h168q37 0 49 12t12 49v1073h336v-1101q0 -185 -82 -267t-266 -82h-217z" />
    <glyph glyph-name="uni0459" unicode="&#x459;" horiz-adv-x="1871" 
d="M45 -4v328h107q40 0 55 14.5t18 54.5l41 647h864v-313h304q401 0 401 -362q0 -365 -401 -365h-639v733h-222l-24 -405q-9 -157 -102 -244.5t-250 -87.5h-152zM1130 254h246q74 0 102.5 26.5t28.5 84.5t-28.5 83t-102.5 25h-246v-219z" />
    <glyph glyph-name="uni045A" unicode="&#x45a;" horiz-adv-x="1835" 
d="M758 422h-316v-422h-336v1040h336v-311h316v311h336v-313h303q401 0 401 -362q0 -365 -401 -365h-639v422zM1094 473v-219h245q74 0 102.5 26.5t28.5 84.5t-28.5 83t-102.5 25h-245z" />
    <glyph glyph-name="uni045B" unicode="&#x45b;" horiz-adv-x="1404" 
d="M246 0v1040h-140v287h140v123h336v-123h249v-287h-249v-188h8q143 135 323 135q170 0 282 -115.5t112 -334.5v-537h-336v471q0 58 -17 100.5t-45.5 64t-58.5 31t-64 9.5q-86 0 -145 -59.5t-59 -182.5v-434h-336z" />
    <glyph glyph-name="uni045C" unicode="&#x45c;" horiz-adv-x="1265" 
d="M410 1167l163 267h369l-164 -267h-368zM106 0v1040h336v-360h115l270 360h398l-389 -512l413 -528h-409l-295 381h-103v-381h-336z" />
    <glyph glyph-name="uni045D" unicode="&#x45d;" horiz-adv-x="1253" 
d="M664 1434l163 -267h-368l-164 267h369zM1147 1040v-1040h-336v532h-8l-361 -532h-336v1040h336v-532h9l360 532h336z" />
    <glyph glyph-name="uni045E" unicode="&#x45e;" 
d="M645 1163q-168 0 -258.5 88t-93.5 244h229q0 -63 36 -95t87 -32t87 32t36 95h229q-3 -156 -93.5 -244t-258.5 -88zM176 -410v308h172q102 0 139 98l2 6l-460 1038h360l258 -598h12l230 598h352l-459 -1155q-46 -118 -97.5 -179.5t-129.5 -88.5t-207 -27h-172z" />
    <glyph glyph-name="uni045F" unicode="&#x45f;" horiz-adv-x="1232" 
d="M446 -266v266h-340v1040h336v-733h349v733h335v-1040h-340v-266h-340z" />
    <glyph glyph-name="uni0490" unicode="&#x490;" horiz-adv-x="1372" 
d="M954 1434v266h357v-602h-819v-1098h-357v1434h819z" />
    <glyph glyph-name="uni0491" unicode="&#x491;" horiz-adv-x="1036" 
d="M639 1040v250h336v-565h-533v-725h-336v1040h533z" />
    <glyph glyph-name="uni04C0" unicode="&#x4c0;" horiz-adv-x="626" 
d="M135 0v1434h357v-1434h-357z" />
    <glyph glyph-name="uni04C1" unicode="&#x4c1;" horiz-adv-x="2445" 
d="M1225 1556q-168 0 -259 88t-94 244h230q0 -63 36 -95t87 -32t87 32t36 95h229q-3 -156 -93.5 -244t-258.5 -88zM1044 0v569h-120l-467 -569h-437l607 733l-594 701h428l450 -537h133v537h357v-537h133l451 537h428l-594 -701l606 -733h-436l-467 569h-121v-569h-357z" />
    <glyph glyph-name="uni04C2" unicode="&#x4c2;" horiz-adv-x="1892" 
d="M948 1163q-168 0 -258.5 88t-93.5 244h229q0 -63 36 -95t87 -32t87 32t36 95h229q-3 -156 -93.5 -244t-258.5 -88zM778 0v381h-57l-295 -381h-410l414 528l-389 512h397l271 -360h69v360h336v-360h70l270 360h397l-389 -512l414 -528h-410l-295 381h-57v-381h-336z" />
    <glyph glyph-name="uni04CF" unicode="&#x4cf;" horiz-adv-x="548" 
d="M106 0v1040h336v-1040h-336z" />
    <glyph glyph-name="uni04D0" unicode="&#x4d0;" horiz-adv-x="1638" 
d="M821 1556q-168 0 -258.5 88t-93.5 244h229q0 -63 36 -95t87 -32t87 32t36 95h230q-3 -156 -94 -244t-259 -88zM1618 0h-385l-107 270h-614l-106 -270h-386l574 1434h450zM637 590h364l-178 450h-8z" />
    <glyph glyph-name="uni04D1" unicode="&#x4d1;" horiz-adv-x="1187" 
d="M596 1163q-168 0 -258.5 88t-93.5 244h229q0 -63 36 -95t87 -32t87 32t36 95h229q-3 -156 -93.5 -244t-258.5 -88zM389 -29q-46 0 -89 7t-90 26.5t-81.5 51t-57 84.5t-22.5 122q0 48 12 89.5t29 71.5t46.5 56t55 42.5t64 32.5t63 24.5t62.5 19.5l328 94v8q0 44 -33 73.5
t-90 29.5q-58 0 -96.5 -30.5t-47.5 -80.5h-344q18 192 151 284.5t337 92.5q70 0 132 -10.5t121.5 -37t102 -67.5t68.5 -107t26 -151v-348q0 -22 9.5 -31.5t31.5 -9.5h70v-307h-295q-101 0 -123 78l-8 28h-8q-128 -135 -324 -135zM492 225q102 0 159.5 59t57.5 154v8
l-238 -69q-86 -24 -86 -82q0 -70 107 -70z" />
    <glyph glyph-name="uni04D2" unicode="&#x4d2;" horiz-adv-x="1638" 
d="M594 1520q-84 0 -134 43.5t-50 119.5t50 120t134 44t134 -44t50 -120t-50 -119.5t-134 -43.5zM1044 1520q-84 0 -134 43.5t-50 119.5t50 120t134 44t134.5 -44t50.5 -120t-50.5 -119.5t-134.5 -43.5zM1618 0h-385l-107 270h-614l-106 -270h-386l574 1434h450zM637 590
h364l-178 450h-8z" />
    <glyph glyph-name="uni04D3" unicode="&#x4d3;" horiz-adv-x="1187" 
d="M369 1126q-84 0 -134.5 44t-50.5 120t50.5 120t134.5 44t134 -44t50 -120t-50 -120t-134 -44zM819 1126q-84 0 -134 44t-50 120t50 120t134 44t134.5 -44t50.5 -120t-50.5 -120t-134.5 -44zM389 -29q-46 0 -89 7t-90 26.5t-81.5 51t-57 84.5t-22.5 122q0 48 12 89.5
t29 71.5t46.5 56t55 42.5t64 32.5t63 24.5t62.5 19.5l328 94v8q0 44 -33 73.5t-90 29.5q-58 0 -96.5 -30.5t-47.5 -80.5h-344q18 192 151 284.5t337 92.5q70 0 132 -10.5t121.5 -37t102 -67.5t68.5 -107t26 -151v-348q0 -22 9.5 -31.5t31.5 -9.5h70v-307h-295
q-101 0 -123 78l-8 28h-8q-128 -135 -324 -135zM492 225q102 0 159.5 59t57.5 154v8l-238 -69q-86 -24 -86 -82q0 -70 107 -70z" />
    <glyph glyph-name="uni04D4" unicode="&#x4d4;" horiz-adv-x="2469" 
d="M20 0l1004 1434h1343v-320h-782v-229h701v-307h-701v-259h782v-319h-1138v279h-604l-195 -279h-410zM846 598h383v537h-8z" />
    <glyph glyph-name="uni04D5" unicode="&#x4d5;" horiz-adv-x="1851" 
d="M438 -29q-389 0 -389 291q0 48 12 89.5t29 71.5t46.5 56t55 42.5t64 32.5t63 24.5t62.5 19.5l328 94v8q0 46 -29 74.5t-88 28.5q-61 0 -101 -30.5t-49 -80.5h-344q18 192 152.5 284.5t341.5 92.5q218 0 330 -127h4q121 127 327 127q152 0 273 -64.5t192.5 -188.5
t71.5 -288l-4 -114h-737q20 -84 73 -130t131 -46q111 0 168 81h348q-24 -67 -67.5 -127.5t-106.5 -111t-151.5 -80t-190.5 -29.5q-239 0 -381 164h-8q-72 -78 -171.5 -121t-254.5 -43zM1055 651h391q-49 152 -193 152q-72 0 -123.5 -40t-74.5 -112zM492 225q102 0 159.5 59
t57.5 154v8l-238 -69q-86 -24 -86 -82q0 -70 107 -70z" />
    <glyph glyph-name="uni04D6" unicode="&#x4d6;" horiz-adv-x="1458" 
d="M756 1556q-168 0 -259 88t-94 244h230q0 -63 36 -95t87 -32t87 32t36 95h229q-3 -156 -93.5 -244t-258.5 -88zM492 578v-259h864v-319h-1221v1434h1221v-320h-864v-229h782v-307h-782z" />
    <glyph glyph-name="uni04D7" unicode="&#x4d7;" horiz-adv-x="1204" 
d="M608 1163q-168 0 -258.5 88t-93.5 244h229q0 -63 36 -95t87 -32t87 32t36 95h230q-3 -156 -94 -244t-259 -88zM606 -29q-113 0 -213 39t-173.5 109t-116 174t-42.5 227t42.5 227t116 174t173.5 109t213 39q152 0 273 -64.5t192.5 -188.5t71.5 -288l-4 -114h-738
q20 -84 73.5 -130t131.5 -46q111 0 168 81h348q-24 -67 -67.5 -127.5t-106.5 -111t-151.5 -80t-190.5 -29.5zM408 651h391q-49 152 -193 152q-72 0 -123.5 -40t-74.5 -112z" />
    <glyph glyph-name="uni04DC" unicode="&#x4dc;" horiz-adv-x="2445" 
d="M997 1520q-84 0 -134 43.5t-50 119.5t50 120t134 44t134.5 -44t50.5 -120t-50.5 -119.5t-134.5 -43.5zM1448 1520q-84 0 -134 43.5t-50 119.5t50 120t134 44t134 -44t50 -120t-50 -119.5t-134 -43.5zM1044 0v569h-120l-467 -569h-437l607 733l-594 701h428l450 -537h133
v537h357v-537h133l451 537h428l-594 -701l606 -733h-436l-467 569h-121v-569h-357z" />
    <glyph glyph-name="uni04DD" unicode="&#x4dd;" horiz-adv-x="1892" 
d="M721 1126q-84 0 -134 44t-50 120t50 120t134 44t134 -44t50 -120t-50 -120t-134 -44zM1171 1126q-84 0 -134 44t-50 120t50 120t134 44t134.5 -44t50.5 -120t-50.5 -120t-134.5 -44zM778 0v381h-57l-295 -381h-410l414 528l-389 512h397l271 -360h69v360h336v-360h70
l270 360h397l-389 -512l414 -528h-410l-295 381h-57v-381h-336z" />
    <glyph glyph-name="uni04DE" unicode="&#x4de;" horiz-adv-x="1507" 
d="M532 1520q-84 0 -134 43.5t-50 119.5t50 120t134 44t134.5 -44t50.5 -120t-50.5 -119.5t-134.5 -43.5zM983 1520q-84 0 -134 43.5t-50 119.5t50 120t134 44t134 -44t50 -120t-50 -119.5t-134 -43.5zM774 -29q-322 0 -507 128t-197 352h376q12 -75 96 -117.5t232 -42.5
q135 0 219 38t84 109q0 63 -67.5 99t-194.5 36h-209v308h180q242 0 242 123q0 40 -23.5 68.5t-65 43t-87 21t-98.5 6.5q-132 0 -212.5 -42t-95.5 -118h-376q19 226 197.5 352.5t486.5 126.5q126 0 235.5 -22.5t200 -68t142.5 -124t52 -182.5q0 -190 -184 -311v-9
q107 -44 170.5 -136t63.5 -212q0 -200 -179 -313t-481 -113z" />
    <glyph glyph-name="uni04DF" unicode="&#x4df;" horiz-adv-x="1171" 
d="M360 1126q-84 0 -134 44t-50 120t50 120t134 44t134.5 -44t50.5 -120t-50.5 -120t-134.5 -44zM811 1126q-84 0 -134 44t-50 120t50 120t134 44t134 -44t50 -120t-50 -120t-134 -44zM602 -29q-257 0 -403.5 95.5t-149.5 269.5h348q22 -90 205 -90q81 0 137 23t56 59
t-56 59t-137 23h-143v245h131q72 0 113.5 19.5t41.5 50.5t-41.5 50.5t-113.5 19.5q-76 0 -127 -23t-66 -67h-348q9 96 57.5 168.5t125 114t166.5 61.5t192 20q99 0 186 -18.5t156 -54.5t109 -96.5t40 -137.5q0 -79 -40.5 -128t-122.5 -85v-8q89 -29 140.5 -93t51.5 -157
q0 -152 -136 -236t-372 -84z" />
    <glyph glyph-name="uni04E2" unicode="&#x4e2;" horiz-adv-x="1650" 
d="M471 1581v225h696v-225h-696zM1516 1434v-1434h-357v942l-590 -942h-434v1434h357v-942l589 942h435z" />
    <glyph glyph-name="uni04E3" unicode="&#x4e3;" horiz-adv-x="1253" 
d="M274 1188v225h697v-225h-697zM1147 1040v-1040h-336v532h-8l-361 -532h-336v1040h336v-532h9l360 532h336z" />
    <glyph glyph-name="uni04E4" unicode="&#x4e4;" horiz-adv-x="1650" 
d="M594 1520q-84 0 -134 43.5t-50 119.5t50 120t134 44t134 -44t50 -120t-50 -119.5t-134 -43.5zM1044 1520q-84 0 -134 43.5t-50 119.5t50 120t134 44t134.5 -44t50.5 -120t-50.5 -119.5t-134.5 -43.5zM1516 1434v-1434h-357v942l-590 -942h-434v1434h357v-942l589 942h435
z" />
    <glyph glyph-name="uni04E5" unicode="&#x4e5;" horiz-adv-x="1253" 
d="M397 1126q-84 0 -134 44t-50 120t50 120t134 44t134.5 -44t50.5 -120t-50.5 -120t-134.5 -44zM848 1126q-84 0 -134 44t-50 120t50 120t134 44t134 -44t50 -120t-50 -120t-134 -44zM1147 1040v-1040h-336v532h-8l-361 -532h-336v1040h336v-532h9l360 532h336z" />
    <glyph glyph-name="uni04E6" unicode="&#x4e6;" horiz-adv-x="1679" 
d="M614 1520q-84 0 -134 43.5t-50 119.5t50 120t134 44t134.5 -44t50.5 -120t-50.5 -119.5t-134.5 -43.5zM1065 1520q-84 0 -134 43.5t-50 119.5t50 120t134 44t134 -44t50 -120t-50 -119.5t-134 -43.5zM840 -29q-161 0 -298.5 52.5t-237.5 148t-157 236t-57 309.5
q0 225 98 395.5t267.5 260t384.5 89.5q161 0 298.5 -52.5t237.5 -147.5t156.5 -235.5t56.5 -309.5t-56.5 -309.5t-156.5 -236t-238 -148t-298 -52.5zM840 299q176 0 284.5 113t108.5 305t-108.5 305t-284.5 113q-177 0 -285.5 -113t-108.5 -305t108.5 -305t285.5 -113z" />
    <glyph glyph-name="uni04E7" unicode="&#x4e7;" horiz-adv-x="1236" 
d="M393 1126q-84 0 -134 44t-50 120t50 120t134 44t134.5 -44t50.5 -120t-50.5 -120t-134.5 -44zM844 1126q-84 0 -134.5 44t-50.5 120t50.5 120t134.5 44t134 -44t50 -120t-50 -120t-134 -44zM618 -29q-247 0 -402 149t-155 400t155 400t402 149t402.5 -149t155.5 -400
t-155.5 -400t-402.5 -149zM618 279q96 0 159 64t63 177t-63 177.5t-159 64.5t-158.5 -64.5t-62.5 -177.5t62.5 -177t158.5 -64z" />
    <glyph glyph-name="uni04EC" unicode="&#x4ec;" horiz-adv-x="1617" 
d="M553 1520q-84 0 -134 43.5t-50 119.5t50 120t134 44t134 -44t50 -120t-50 -119.5t-134 -43.5zM1004 1520q-84 0 -134.5 43.5t-50.5 119.5t50.5 120t134.5 44t134 -44t50 -120t-50 -119.5t-134 -43.5zM778 -29q-269 0 -456 144t-252 397h376q50 -103 139 -158t210 -55
q137 0 230.5 71t127.5 199h-539v328h529q-40 113 -130 175.5t-218 62.5q-121 0 -210 -55t-139 -158h-376q65 253 252 396.5t456 143.5q215 0 384.5 -89.5t267.5 -260t98 -395.5q0 -169 -57 -309.5t-157 -236t-237.5 -148t-298.5 -52.5z" />
    <glyph glyph-name="uni04ED" unicode="&#x4ed;" horiz-adv-x="1204" 
d="M360 1126q-84 0 -134 44t-50 120t50 120t134 44t134.5 -44t50.5 -120t-50.5 -120t-134.5 -44zM811 1126q-84 0 -134 44t-50 120t50 120t134 44t134 -44t50 -120t-50 -120t-134 -44zM504 389v266h276q-28 61 -78.5 94t-115.5 33q-126 0 -189 -110h-348q25 104 79 182.5
t127 124.5t156 68t175 22q247 0 402 -149t155 -400t-155 -400t-402 -149q-92 0 -175 22.5t-156 68.5t-127 124.5t-79 182.5h348q64 -111 189 -111q66 0 117 34t79 97h-278z" />
    <glyph glyph-name="uni04EE" unicode="&#x4ee;" horiz-adv-x="1515" 
d="M422 1581v225h696v-225h-696zM307 0v336h246q37 0 53 37l6 12l-583 1049h389l364 -668h11l317 668h377l-541 -1115q-37 -76 -58 -116t-52 -82.5t-57 -60.5t-68.5 -34.5t-92 -21t-122.5 -4.5h-189z" />
    <glyph glyph-name="uni04EF" unicode="&#x4ef;" 
d="M295 1188v225h696v-225h-696zM176 -410v308h172q102 0 139 98l2 6l-460 1038h360l258 -598h12l230 598h352l-459 -1155q-46 -118 -97.5 -179.5t-129.5 -88.5t-207 -27h-172z" />
    <glyph glyph-name="uni04F0" unicode="&#x4f0;" horiz-adv-x="1515" 
d="M545 1520q-84 0 -134.5 43.5t-50.5 119.5t50.5 120t134.5 44t134 -44t50 -120t-50 -119.5t-134 -43.5zM995 1520q-84 0 -134 43.5t-50 119.5t50 120t134 44t134.5 -44t50.5 -120t-50.5 -119.5t-134.5 -43.5zM307 0v336h246q37 0 53 37l6 12l-583 1049h389l364 -668h11
l317 668h377l-541 -1115q-37 -76 -58 -116t-52 -82.5t-57 -60.5t-68.5 -34.5t-92 -21t-122.5 -4.5h-189z" />
    <glyph glyph-name="uni04F1" unicode="&#x4f1;" 
d="M418 1126q-84 0 -134.5 44t-50.5 120t50.5 120t134.5 44t134 -44t50 -120t-50 -120t-134 -44zM868 1126q-84 0 -134 44t-50 120t50 120t134 44t134.5 -44t50.5 -120t-50.5 -120t-134.5 -44zM176 -410v308h172q102 0 139 98l2 6l-460 1038h360l258 -598h12l230 598h352
l-459 -1155q-46 -118 -97.5 -179.5t-129.5 -88.5t-207 -27h-172z" />
    <glyph glyph-name="uni04F2" unicode="&#x4f2;" horiz-adv-x="1515" 
d="M799 1561l164 266h327l-164 -266h-327zM348 1561l164 266h328l-164 -266h-328zM307 0v336h246q37 0 53 37l6 12l-583 1049h389l364 -668h11l317 668h377l-541 -1115q-37 -76 -58 -116t-52 -82.5t-57 -60.5t-68.5 -34.5t-92 -21t-122.5 -4.5h-189z" />
    <glyph glyph-name="uni04F3" unicode="&#x4f3;" 
d="M672 1167l164 267h327l-164 -267h-327zM221 1167l164 267h328l-164 -267h-328zM176 -410v308h172q102 0 139 98l2 6l-460 1038h360l258 -598h12l230 598h352l-459 -1155q-46 -118 -97.5 -179.5t-129.5 -88.5t-207 -27h-172z" />
    <glyph glyph-name="uni04F4" unicode="&#x4f4;" horiz-adv-x="1536" 
d="M512 1520q-84 0 -134 43.5t-50 119.5t50 120t134 44t134 -44t50 -120t-50 -119.5t-134 -43.5zM963 1520q-84 0 -134.5 43.5t-50.5 119.5t50.5 120t134.5 44t134 -44t50 -120t-50 -119.5t-134 -43.5zM1401 1434v-1434h-357v508q-156 -29 -303 -29q-659 0 -659 647v308h356
v-308q0 -96 24.5 -160t74.5 -98t113 -47.5t153 -13.5q118 0 241 24v603h357z" />
    <glyph glyph-name="uni04F5" unicode="&#x4f5;" horiz-adv-x="1187" 
d="M340 1126q-84 0 -134 44t-50 120t50 120t134 44t134 -44t50 -120t-50 -120t-134 -44zM791 1126q-84 0 -134.5 44t-50.5 120t50.5 120t134.5 44t134 -44t50 -120t-50 -120t-134 -44zM1081 1040v-1040h-336v311q-123 -20 -213 -20q-226 0 -348.5 119.5t-122.5 367.5v262
h336v-262q0 -100 50.5 -140t154.5 -40q61 0 143 16v426h336z" />
    <glyph glyph-name="uni04F8" unicode="&#x4f8;" horiz-adv-x="2056" 
d="M803 1520q-84 0 -134.5 43.5t-50.5 119.5t50.5 120t134.5 44t134 -44t50 -120t-50 -119.5t-134 -43.5zM1253 1520q-84 0 -134 43.5t-50 119.5t50 120t134 44t134.5 -44t50.5 -120t-50.5 -119.5t-134.5 -43.5zM1921 1434v-1434h-356v1434h356zM840 0h-705v1434h357v-435
h348q137 0 246 -37.5t179 -104.5t107 -158t37 -199t-37 -199t-107 -158.5t-179 -105t-246 -37.5zM492 692v-385h344q95 0 156 51.5t61 141.5q0 89 -61.5 140.5t-155.5 51.5h-344z" />
    <glyph glyph-name="uni04F9" unicode="&#x4f9;" horiz-adv-x="1687" 
d="M618 1126q-84 0 -134 44t-50 120t50 120t134 44t134.5 -44t50.5 -120t-50.5 -120t-134.5 -44zM1069 1126q-84 0 -134 44t-50 120t50 120t134 44t134 -44t50 -120t-50 -120t-134 -44zM1581 1040v-1040h-336v1040h336zM737 0h-631v1040h336v-313h295q402 0 402 -362
q0 -365 -402 -365zM442 473v-219h238q74 0 102.5 26.5t28.5 84.5t-28.5 83t-102.5 25h-238z" />
    <glyph glyph-name="uni1EBC" unicode="&#x1ebc;" horiz-adv-x="1458" 
d="M606 1851q56 0 101 -21.5t80.5 -43t68.5 -21.5q56 0 62 62h225q-9 -147 -73.5 -219t-168.5 -72q-56 0 -101 21.5t-80.5 43t-68.5 21.5q-30 0 -44 -14.5t-17 -46.5h-225q9 147 73 218.5t168 71.5zM492 578v-259h864v-319h-1221v1434h1221v-320h-864v-229h782v-307h-782z
" />
    <glyph glyph-name="uni1EBD" unicode="&#x1ebd;" horiz-adv-x="1204" 
d="M459 1458q56 0 101 -21.5t80.5 -43t68.5 -21.5q30 0 44 15t17 47h225q-9 -148 -73.5 -219.5t-167.5 -71.5q-56 0 -101 21.5t-80.5 43t-68.5 21.5q-56 0 -62 -62h-225q9 147 73.5 219t168.5 72zM606 -29q-113 0 -213 39t-173.5 109t-116 174t-42.5 227t42.5 227t116 174
t173.5 109t213 39q152 0 273 -64.5t192.5 -188.5t71.5 -288l-4 -114h-738q20 -84 73.5 -130t131.5 -46q111 0 168 81h348q-24 -67 -67.5 -127.5t-106.5 -111t-151.5 -80t-190.5 -29.5zM408 651h391q-49 152 -193 152q-72 0 -123.5 -40t-74.5 -112z" />
    <glyph glyph-name="uni2010" unicode="&#x2010;" horiz-adv-x="880" 
d="M82 410v315h717v-315h-717z" />
    <glyph glyph-name="uni2011" unicode="&#x2011;" horiz-adv-x="880" 
d="M82 410v315h717v-315h-717z" />
    <glyph glyph-name="figuredash" unicode="&#x2012;" horiz-adv-x="1290" 
d="M82 565v336h1126v-336h-1126z" />
    <glyph glyph-name="endash" unicode="&#x2013;" horiz-adv-x="1290" 
d="M82 410v315h1126v-315h-1126z" />
    <glyph glyph-name="emdash" unicode="&#x2014;" horiz-adv-x="1699" 
d="M82 410v315h1536v-315h-1536z" />
    <glyph glyph-name="uni2015" unicode="&#x2015;" horiz-adv-x="1802" 
d="M82 410v315h1638v-315h-1638z" />
    <glyph glyph-name="quoteleft" unicode="&#x2018;" horiz-adv-x="565" 
d="M414 1454l-80 -250q71 -12 110 -61t39 -127q0 -91 -53.5 -142t-146.5 -51q-95 0 -148 55t-53 166q0 79 33 181l73 229h226z" />
    <glyph glyph-name="quoteright" unicode="&#x2019;" horiz-adv-x="565" 
d="M152 823l79 250q-71 12 -110 61.5t-39 127.5q0 91 54 141.5t147 50.5q95 0 147.5 -55t52.5 -166q0 -81 -32 -180l-74 -230h-225z" />
    <glyph glyph-name="quotesinglbase" unicode="&#x201a;" horiz-adv-x="565" 
d="M152 -266l79 250q-71 12 -110 61t-39 127q0 91 54 142t147 51q95 0 147.5 -55.5t52.5 -166.5q0 -81 -32 -180l-74 -229h-225z" />
    <glyph glyph-name="quotedblleft" unicode="&#x201c;" horiz-adv-x="1036" 
d="M414 1454l-80 -250q71 -12 110 -61t39 -127q0 -91 -53.5 -142t-146.5 -51q-95 0 -148 55t-53 166q0 79 33 181l73 229h226zM885 1454l-80 -250q71 -12 110 -61t39 -127q0 -91 -53.5 -142t-146.5 -51q-95 0 -148 55t-53 166q0 79 33 181l73 229h226z" />
    <glyph glyph-name="quotedblright" unicode="&#x201d;" horiz-adv-x="1036" 
d="M623 823l79 250q-71 12 -110 61.5t-39 127.5q0 91 54 141.5t147 50.5q95 0 147.5 -55t52.5 -166q0 -81 -32 -180l-74 -230h-225zM152 823l79 250q-71 12 -110 61.5t-39 127.5q0 91 54 141.5t147 50.5q95 0 147.5 -55t52.5 -166q0 -81 -32 -180l-74 -230h-225z" />
    <glyph glyph-name="quotedblbase" unicode="&#x201e;" horiz-adv-x="1036" 
d="M623 -266l79 250q-71 12 -110 61t-39 127q0 91 54 142t147 51q95 0 147.5 -55.5t52.5 -166.5q0 -81 -32 -180l-74 -229h-225zM152 -266l79 250q-71 12 -110 61t-39 127q0 91 54 142t147 51q95 0 147.5 -55.5t52.5 -166.5q0 -81 -32 -180l-74 -229h-225z" />
    <glyph glyph-name="dagger" unicode="&#x2020;" horiz-adv-x="1093" 
d="M41 778v328h328v328h356v-328h328v-328h-328v-778h-356v778h-328z" />
    <glyph glyph-name="daggerdbl" unicode="&#x2021;" horiz-adv-x="1134" 
d="M61 831v328h328v275h356v-275h328v-328h-328v-229h328v-328h-328v-274h-356v274h-328v328h328v229h-328z" />
    <glyph glyph-name="bullet" unicode="&#x2022;" horiz-adv-x="737" 
d="M369 315q-139 0 -223.5 81t-84.5 218t84.5 218t223.5 81t223 -81t84 -218t-84 -218t-223 -81z" />
    <glyph glyph-name="ellipsis" unicode="&#x2026;" horiz-adv-x="1695" 
d="M283 -20q-93 0 -147 50.5t-54 141.5t54 142t147 51t146.5 -51t53.5 -142t-53.5 -141.5t-146.5 -50.5zM848 -20q-93 0 -147 50.5t-54 141.5t54 142t147 51t147 -51t54 -142t-54 -141.5t-147 -50.5zM1413 -20q-93 0 -147 50.5t-54 141.5t54 142t147 51t147 -51t54 -142
t-54 -141.5t-147 -50.5z" />
    <glyph glyph-name="perthousand" unicode="&#x2030;" horiz-adv-x="3158" 
d="M479 549q-183 0 -298 122t-115 333t115 332.5t298 121.5t298.5 -121.5t115.5 -332.5t-115.5 -333t-298.5 -122zM549 0l840 1434h262l-840 -1434h-262zM479 807q72 0 110 51.5t38 145.5t-37.5 145t-110.5 51q-72 0 -109.5 -51t-37.5 -145t37.5 -145.5t109.5 -51.5z
M1720 -25q-183 0 -298 122t-115 333t115 333t298 122t298.5 -122t115.5 -333t-115.5 -333t-298.5 -122zM2679 -25q-183 0 -298.5 122t-115.5 333t115.5 333t298.5 122t298 -122t115 -333t-115 -333t-298 -122zM1720 233q72 0 110 51.5t38 145.5t-38 145.5t-110 51.5
t-109.5 -51.5t-37.5 -145.5t37.5 -145.5t109.5 -51.5zM2679 233q72 0 109.5 51.5t37.5 145.5t-37.5 145.5t-109.5 51.5t-110 -51.5t-38 -145.5t38 -145.5t110 -51.5z" />
    <glyph glyph-name="guilsinglleft" unicode="&#x2039;" horiz-adv-x="716" 
d="M287 160l-267 372l267 373h389l-266 -373l266 -372h-389z" />
    <glyph glyph-name="guilsinglright" unicode="&#x203a;" horiz-adv-x="716" 
d="M696 532l-266 -372h-389l266 372l-266 373h389z" />
    <glyph glyph-name="fraction" unicode="&#x2044;" horiz-adv-x="282" 
d="M-410 0l840 1434h262l-839 -1434h-263z" />
    <glyph glyph-name="uni2070" unicode="&#x2070;" horiz-adv-x="958" 
d="M479 713q-183 0 -298 121.5t-115 332.5t115 333t298 122t298.5 -122t115.5 -333t-115.5 -332.5t-298.5 -121.5zM479 971q73 0 110.5 51t37.5 145t-38 145.5t-110 51.5t-109.5 -51.5t-37.5 -145.5t37.5 -145t109.5 -51z" />
    <glyph glyph-name="uni2074" unicode="&#x2074;" horiz-adv-x="876" 
d="M471 737v152h-418v164l291 544h393v-483h86v-225h-86v-152h-266zM332 1114h139v254h-8l-131 -246v-8z" />
    <glyph glyph-name="uni2075" unicode="&#x2075;" horiz-adv-x="860" 
d="M438 713q-154 0 -249.5 72t-114.5 194h266q6 -18 34.5 -29.5t63.5 -11.5q49 0 76 22.5t27 59.5t-27 59.5t-76 22.5q-62 0 -94 -37h-266l53 532h614v-225h-376l-9 -94h9q69 25 135 25q124 0 213.5 -73.5t89.5 -209.5q0 -143 -102 -225t-267 -82z" />
    <glyph glyph-name="uni2076" unicode="&#x2076;" horiz-adv-x="892" 
d="M455 713q-89 0 -158 26.5t-112 69.5t-70.5 103.5t-38 122.5t-10.5 132q0 72 11.5 135.5t40 123t71.5 102.5t110 68.5t152 25.5q153 0 243 -74.5t113 -195.5h-266q-7 17 -29.5 31t-56.5 14q-51 0 -83.5 -35t-35.5 -113h10q70 45 170 45q138 0 229 -81.5t91 -204.5
q0 -133 -106.5 -214t-274.5 -81zM455 938q57 0 85.5 19t28.5 51t-28.5 50.5t-85.5 18.5t-88 -18.5t-31 -50.5t31 -51t88 -19z" />
    <glyph glyph-name="uni2077" unicode="&#x2077;" horiz-adv-x="761" 
d="M135 737l275 606v9h-369v245h680v-184l-303 -676h-283z" />
    <glyph glyph-name="uni2078" unicode="&#x2078;" horiz-adv-x="909" 
d="M455 713q-109 0 -197.5 26t-146.5 87t-58 149q0 157 168 213v8q-139 53 -139 184q0 116 108.5 179t264.5 63q100 0 182.5 -25.5t136 -81.5t53.5 -135q0 -131 -139 -184v-8q168 -56 168 -213q0 -88 -58 -149t-146 -87t-197 -26zM565 1348q0 32 -32.5 50.5t-77.5 18.5
q-46 0 -78.5 -18.5t-32.5 -50.5t32.5 -49t78.5 -17t78 17t32 49zM590 999q0 82 -135 82q-136 0 -136 -82q0 -81 136 -81q135 0 135 81z" />
    <glyph glyph-name="uni2079" unicode="&#x2079;" horiz-adv-x="892" 
d="M438 1622q89 0 158 -26.5t112 -69.5t70.5 -103.5t38 -122.5t10.5 -133q0 -72 -11.5 -135.5t-40 -123t-71.5 -102t-110 -68t-152 -25.5q-153 0 -243 74.5t-113 195.5h266q7 -17 29.5 -31t56.5 -14q51 0 83.5 34.5t35.5 112.5h-10q-70 -45 -170 -45q-138 0 -229 82t-91 205
q0 133 106.5 214t274.5 81zM438 1397q-57 0 -85.5 -19t-28.5 -51t28.5 -51t85.5 -19t88 19t31 51t-31 51t-88 19z" />
    <glyph glyph-name="uni2080" unicode="&#x2080;" horiz-adv-x="958" 
d="M479 -188q-183 0 -298 121.5t-115 332.5t115 333t298 122t298.5 -122t115.5 -333t-115.5 -332.5t-298.5 -121.5zM479 70q73 0 110.5 51t37.5 145t-38 145.5t-110 51.5t-109.5 -51.5t-37.5 -145.5t37.5 -145t109.5 -51z" />
    <glyph glyph-name="uni2081" unicode="&#x2081;" horiz-adv-x="675" 
d="M295 -164v537l-168 -86l-107 229l353 180h188v-860h-266z" />
    <glyph glyph-name="uni2082" unicode="&#x2082;" horiz-adv-x="806" 
d="M49 -164v205l365 289q65 53 65 100q0 53 -69 53q-76 0 -95 -65h-266q29 303 361 303q162 0 248.5 -68t86.5 -194q0 -78 -34.5 -137t-100.5 -113l-147 -119v-8h282v-246h-696z" />
    <glyph glyph-name="uni2083" unicode="&#x2083;" horiz-adv-x="815" 
d="M406 -188q-73 0 -136.5 15t-116.5 46t-85 84.5t-35 124.5h266q16 -45 107 -45q98 0 98 59q0 60 -115 60h-94v225h94q45 0 69.5 16t24.5 41q0 27 -24 42.5t-62 15.5q-35 0 -59.5 -12t-30.5 -33h-266q4 74 34 128t80 84t109.5 44t132.5 14q159 0 256 -63.5t97 -182.5
q0 -130 -123 -188v-8q66 -30 100.5 -88t34.5 -130q0 -124 -101.5 -186.5t-254.5 -62.5z" />
    <glyph glyph-name="uni2084" unicode="&#x2084;" horiz-adv-x="876" 
d="M471 -164v152h-418v164l291 544h393v-483h86v-225h-86v-152h-266zM332 213h139v254h-8l-131 -246v-8z" />
    <glyph glyph-name="uni2085" unicode="&#x2085;" horiz-adv-x="860" 
d="M438 -188q-154 0 -249.5 72t-114.5 194h266q6 -18 34.5 -29.5t63.5 -11.5q49 0 76 22.5t27 59.5t-27 59.5t-76 22.5q-62 0 -94 -37h-266l53 532h614v-225h-376l-9 -94h9q66 24 135 24q79 0 146 -29t112 -95t45 -158q0 -143 -102 -225t-267 -82z" />
    <glyph glyph-name="uni2086" unicode="&#x2086;" horiz-adv-x="892" 
d="M455 -188q-89 0 -158 26.5t-112 69.5t-70.5 103.5t-38 122.5t-10.5 132q0 72 11.5 135.5t40 123t71.5 102.5t110 68.5t152 25.5q153 0 243 -74.5t113 -195.5h-266q-7 17 -29.5 31t-56.5 14q-51 0 -83.5 -35t-35.5 -113h10q70 45 170 45q138 0 229 -82t91 -205
q0 -133 -106.5 -213.5t-274.5 -80.5zM455 37q57 0 85.5 18.5t28.5 50.5t-28.5 51t-85.5 19t-88 -19t-31 -51t31 -50.5t88 -18.5z" />
    <glyph glyph-name="uni2087" unicode="&#x2087;" horiz-adv-x="761" 
d="M135 -164l275 606v9h-369v245h680v-184l-303 -676h-283z" />
    <glyph glyph-name="uni2088" unicode="&#x2088;" horiz-adv-x="909" 
d="M455 -188q-109 0 -197.5 26t-146.5 87t-58 149q0 157 168 213v8q-139 53 -139 184q0 116 108.5 179t264.5 63q100 0 182.5 -25.5t136 -81.5t53.5 -135q0 -131 -139 -184v-8q168 -56 168 -213q0 -88 -58 -149t-146 -87t-197 -26zM565 446q0 32 -32.5 51t-77.5 19t-78 -19
t-33 -51t32 -48.5t79 -16.5q46 0 78 16.5t32 48.5zM590 98q0 82 -135 82q-136 0 -136 -82t136 -82q135 0 135 82z" />
    <glyph glyph-name="uni2089" unicode="&#x2089;" horiz-adv-x="892" 
d="M438 721q89 0 158 -26.5t112 -69.5t70.5 -103.5t38 -122.5t10.5 -133q0 -72 -11.5 -135.5t-40 -123t-71.5 -102t-110 -68t-152 -25.5q-153 0 -243 74.5t-113 195.5h266q7 -17 29.5 -31t56.5 -14q51 0 83.5 34.5t35.5 112.5h-10q-70 -45 -170 -45q-138 0 -229 82t-91 205
q0 133 106.5 214t274.5 81zM438 496q-57 0 -85.5 -19t-28.5 -51t28.5 -51t85.5 -19t88 19t31 51t-31 51t-88 19z" />
    <glyph glyph-name="lira" unicode="&#x20a4;" horiz-adv-x="1355" 
d="M102 901h136q-13 60 -13 111q0 94 31.5 174.5t91.5 142.5t156 97.5t217 35.5q244 0 391 -129.5t162 -349.5h-365q-39 152 -188 152q-139 0 -139 -123q0 -50 18 -111h424v-184h-922v184zM102 430v184h922v-184h-428q-26 -45 -72 -94v-8h750v-328h-1172v250q88 99 134 180
h-134z" />
    <glyph glyph-name="Euro" unicode="&#x20ac;" horiz-adv-x="1490" 
d="M799 1462q243 0 407.5 -149t194.5 -412h-377q-23 120 -74 177t-151 57q-149 0 -207 -131h260v-246h-770v246h145q57 220 204 339t368 119zM799 -29q-221 0 -367.5 119.5t-204.5 339.5h-145v246h770v-246h-260q58 -131 207 -131q100 0 151 56.5t74 176.5h377
q-30 -263 -194.5 -412t-407.5 -149z" />
    <glyph glyph-name="uni20B4" unicode="&#x20b4;" horiz-adv-x="1507" 
d="M82 942h819q45 49 45 102t-44.5 82t-127.5 29q-87 0 -135 -30.5t-61 -80.5h-365q9 198 166.5 308t394.5 110q95 0 184 -18.5t168.5 -57t128 -107t48.5 -157.5q0 -102 -62 -172v-8h184v-184h-1343v184zM766 -29q-117 0 -221.5 21.5t-190.5 63.5t-136 113t-50 163
q0 88 49 151v9h-135v184h1343v-184h-868q-33 -41 -33 -78q0 -63 66.5 -99t175.5 -36q62 0 111.5 11t84 36t42.5 63h364q-11 -91 -48 -162.5t-92.5 -119t-130 -78.5t-156 -44.5t-175.5 -13.5z" />
    <glyph glyph-name="uni20B8" unicode="&#x20b8;" horiz-adv-x="1454" 
d="M102 1434h1250v-267h-1250v267zM549 0v799h-447v266h1250v-266h-447v-799h-356z" />
    <glyph glyph-name="uni20B9" unicode="&#x20b9;" horiz-adv-x="1372" 
d="M123 1434h1147v-226h-1147v226zM692 0l-262 459h-307v311h450q64 0 110 34.5t58 96.5h-618v225h1147v-225h-170q-10 -147 -90 -250.5t-211 -152.5l286 -498h-393z" />
    <glyph glyph-name="uni20BD" unicode="&#x20bd;" horiz-adv-x="1495" 
d="M877 598h-775v266h172v570h603q250 0 393 -108t143 -310t-143 -310t-393 -108zM631 1167v-303h246q85 0 132.5 41.5t47.5 110.5t-47.5 110t-132.5 41h-246zM102 250v266h959v-266h-430v-250h-357v250h-172z" />
    <glyph glyph-name="uni20BF" unicode="&#x20bf;" horiz-adv-x="1441" 
d="M156 0v1434h209v204h253v-204h123v204h254v-219q146 -29 224.5 -118t78.5 -228q0 -214 -184 -328v-8q107 -47 170.5 -139t63.5 -209q0 -142 -94 -247t-259 -134v-213h-254v205h-123v-205h-253v205h-209zM512 872h246q95 0 141.5 28.5t46.5 98.5t-46.5 98.5t-141.5 28.5
h-246v-254zM512 307h291q188 0 188 129t-192 129h-287v-258z" />
    <glyph glyph-name="uni2103" unicode="&#x2103;" horiz-adv-x="2469" 
d="M1675 -29q-214 0 -380 90t-259.5 260t-93.5 396t93.5 396t259.5 259.5t380 89.5q284 0 480 -156t245 -425h-377q-41 123 -128.5 188.5t-219.5 65.5q-175 0 -276 -112t-101 -306t101 -306t276 -112q132 0 219.5 65.5t128.5 188.5h377q-49 -269 -245 -425.5t-480 -156.5z
M426 713q-170 0 -277.5 102.5t-107.5 269.5q0 168 107.5 270.5t277.5 102.5t277.5 -102.5t107.5 -270.5q0 -167 -107.5 -269.5t-277.5 -102.5zM545 1085q0 55 -31.5 85t-87.5 30t-87.5 -30t-31.5 -85t31.5 -84.5t87.5 -29.5t87.5 29.5t31.5 84.5z" />
    <glyph glyph-name="uni2109" unicode="&#x2109;" horiz-adv-x="2289" 
d="M426 713q-170 0 -277.5 102.5t-107.5 269.5q0 168 107.5 270.5t277.5 102.5t277.5 -102.5t107.5 -270.5q0 -167 -107.5 -269.5t-277.5 -102.5zM1343 537v-537h-356v1434h1221v-320h-865v-270h783v-307h-783zM545 1085q0 55 -31.5 85t-87.5 30t-87.5 -30t-31.5 -85
t31.5 -84.5t87.5 -29.5t87.5 29.5t31.5 84.5z" />
    <glyph glyph-name="uni2116" unicode="&#x2116;" horiz-adv-x="2551" 
d="M2085 713q-170 0 -277.5 102.5t-107.5 269.5q0 168 107.5 270.5t277.5 102.5t277.5 -102.5t107.5 -270.5q0 -167 -107.5 -269.5t-277.5 -102.5zM1516 1434v-1434h-439l-577 897h-8v-897h-357v1434h438l578 -897h8v897h357zM2204 1085q0 55 -31.5 85t-87.5 30t-87.5 -30
t-31.5 -85t31.5 -84.5t87.5 -29.5t87.5 29.5t31.5 84.5zM1700 356v258h770v-258h-770z" />
    <glyph glyph-name="trademark" unicode="&#x2122;" horiz-adv-x="1716" 
d="M-41 1257v177h680v-177h-238v-491h-204v491h-238zM1094 766l-156 416h-8v-416h-205v668h295l156 -422h8l155 422h295v-668h-204v416h-9l-155 -416h-172z" />
    <glyph glyph-name="uni2150" unicode="&#x2150;" horiz-adv-x="1863" 
d="M295 573v537l-168 -86l-107 229l353 181h188v-861h-266zM328 0l839 1434h263l-840 -1434h-262zM1237 0l274 606v8h-368v246h680v-184l-303 -676h-283z" />
    <glyph glyph-name="uni2151" unicode="&#x2151;" horiz-adv-x="1953" 
d="M295 573v537l-168 -86l-107 229l353 181h188v-861h-266zM328 0l839 1434h263l-840 -1434h-262zM1499 885q89 0 158 -26.5t112 -69.5t70.5 -103.5t38 -122.5t10.5 -133q0 -72 -11.5 -135.5t-40 -123t-71.5 -102.5t-110 -68.5t-152 -25.5q-152 0 -242.5 75t-113.5 196h266
q7 -17 29.5 -31t56.5 -14q51 0 83.5 34.5t35.5 112.5h-10q-70 -45 -170 -45q-138 0 -229 82t-91 205q0 133 106.5 214t274.5 81zM1499 659q-57 0 -86 -18.5t-29 -50.5t29 -51t86 -19t88 19t31 51t-31 50.5t-88 18.5z" />
    <glyph glyph-name="uni2152" unicode="&#x2152;" horiz-adv-x="2695" 
d="M295 573v537l-168 -86l-107 229l353 181h188v-861h-266zM328 0l839 1434h263l-840 -1434h-262zM2216 -25q-183 0 -298.5 122t-115.5 333t115.5 333t298.5 122t298.5 -122t115.5 -333t-115.5 -333t-298.5 -122zM1356 0v537l-168 -86l-107 229l353 180h188v-860h-266z
M2216 233q72 0 109.5 51.5t37.5 145.5t-37.5 145.5t-109.5 51.5t-110 -51.5t-38 -145.5t38 -145.5t110 -51.5z" />
    <glyph glyph-name="onethird" unicode="&#x2153;" horiz-adv-x="1896" 
d="M295 573v537l-168 -86l-107 229l353 181h188v-861h-266zM328 0l839 1434h263l-840 -1434h-262zM1487 -25q-73 0 -137 15t-116.5 46t-84.5 85t-35 125h266q16 -45 107 -45q98 0 98 59t-115 59h-94v226h94q45 0 70 16t25 41q0 27 -24 42t-62 15q-35 0 -59.5 -12t-30.5 -33
h-267q4 60 24.5 107t53 77.5t78 50t95 28t106.5 8.5q159 0 255.5 -63.5t96.5 -182.5q0 -130 -123 -188v-9q66 -30 100.5 -87.5t34.5 -129.5q0 -64 -29 -113t-79 -78.5t-112.5 -44t-135.5 -14.5z" />
    <glyph glyph-name="twothirds" unicode="&#x2154;" horiz-adv-x="2048" 
d="M49 573v205l365 289q65 53 65 100q0 54 -69 54q-76 0 -95 -66h-266q29 303 361 303q162 0 248.5 -68t86.5 -194q0 -78 -34.5 -137t-100.5 -113l-147 -119v-8h282v-246h-696zM479 0l840 1434h262l-840 -1434h-262zM1638 -25q-73 0 -136.5 15t-116.5 46t-84.5 85t-34.5 125
h266q16 -45 106 -45q99 0 99 59t-115 59h-94v226h94q45 0 69.5 16t24.5 41q0 27 -24 42t-62 15q-35 0 -59.5 -12t-30.5 -33h-266q4 74 34 128t80 84.5t110 44.5t132 14q159 0 255.5 -63.5t96.5 -182.5q0 -130 -122 -188v-9q66 -30 100.5 -87.5t34.5 -129.5q0 -124 -102 -187
t-255 -63z" />
    <glyph glyph-name="uni2155" unicode="&#x2155;" horiz-adv-x="1880" 
d="M295 573v537l-168 -86l-107 229l353 181h188v-861h-266zM328 0l839 1434h263l-840 -1434h-262zM1458 -25q-154 0 -249.5 72.5t-114.5 194.5h266q6 -18 34.5 -29.5t63.5 -11.5q49 0 76 22.5t27 59.5t-27 59.5t-76 22.5q-62 0 -94 -37h-266l53 532h614v-225h-376l-9 -94h9
q66 24 135 24q79 0 146 -29t112 -95t45 -158q0 -143 -102 -225.5t-267 -82.5z" />
    <glyph glyph-name="uni2156" unicode="&#x2156;" horiz-adv-x="2031" 
d="M49 573v205l365 289q65 53 65 100q0 54 -69 54q-76 0 -95 -66h-266q29 303 361 303q162 0 248.5 -68t86.5 -194q0 -78 -34.5 -137t-100.5 -113l-147 -119v-8h282v-246h-696zM479 0l840 1434h262l-840 -1434h-262zM1610 -25q-154 0 -250 72.5t-115 194.5h266
q6 -18 35 -29.5t64 -11.5q49 0 75.5 22t26.5 60q0 37 -26.5 59.5t-75.5 22.5q-62 0 -94 -37h-267l54 532h614v-225h-377l-8 -94h8q66 24 135 24q79 0 146 -29t112 -95t45 -158q0 -143 -101.5 -225.5t-266.5 -82.5z" />
    <glyph glyph-name="uni2157" unicode="&#x2157;" horiz-adv-x="2019" 
d="M406 549q-73 0 -136.5 15t-116.5 46t-85 84.5t-35 124.5h266q16 -45 107 -45q39 0 68.5 13.5t29.5 46.5q0 59 -115 59h-94v225h94q44 0 69 16t25 42q0 27 -24 42t-62 15q-35 0 -59.5 -12t-30.5 -33h-266q4 74 34 128t80 84t109.5 44t132.5 14q159 0 256 -63.5t97 -182.5
q0 -130 -123 -188v-8q66 -30 100.5 -87.5t34.5 -129.5q0 -64 -29 -113t-79 -78.5t-112.5 -44t-135.5 -14.5zM467 0l840 1434h262l-840 -1434h-262zM1597 -25q-154 0 -249.5 72.5t-114.5 194.5h266q6 -18 34.5 -29.5t63.5 -11.5q49 0 76 22.5t27 59.5t-27 59.5t-76 22.5
q-62 0 -94 -37h-266l53 532h615v-225h-377l-8 -94h8q66 24 135 24q79 0 146 -29t112 -95t45 -158q0 -143 -102 -225.5t-267 -82.5z" />
    <glyph glyph-name="uni2158" unicode="&#x2158;" horiz-adv-x="2060" 
d="M471 573v152h-418v164l291 545h393v-484h86v-225h-86v-152h-266zM508 0l840 1434h262l-840 -1434h-262zM332 950h139v254h-8l-131 -246v-8zM1638 -25q-154 0 -249.5 72.5t-114.5 194.5h266q6 -18 34.5 -29.5t63.5 -11.5q49 0 76 22.5t27 59.5t-27 59.5t-76 22.5
q-62 0 -94 -37h-266l53 532h615v-225h-377l-8 -94h8q66 24 135 24q79 0 146 -29t112 -95t45 -158q0 -143 -102 -225.5t-267 -82.5z" />
    <glyph glyph-name="uni2159" unicode="&#x2159;" horiz-adv-x="1912" 
d="M295 573v537l-168 -86l-107 229l353 181h188v-861h-266zM328 0l839 1434h263l-840 -1434h-262zM1475 -25q-89 0 -158 26.5t-112 69.5t-70.5 103.5t-38.5 123t-11 132.5q0 72 11.5 135.5t40 123t71.5 102.5t110 68.5t152 25.5q152 0 243 -75t114 -196h-266q-7 17 -29.5 31
t-56.5 14q-51 0 -83.5 -34.5t-35.5 -112.5h10q70 45 170 45q138 0 228.5 -82t90.5 -205q0 -134 -106 -214.5t-274 -80.5zM1475 201q57 0 85.5 18.5t28.5 50.5t-28.5 51t-85.5 19t-88 -19t-31 -51t31 -50.5t88 -18.5z" />
    <glyph glyph-name="uni215A" unicode="&#x215a;" horiz-adv-x="2076" 
d="M438 549q-154 0 -249.5 72t-114.5 194h266q6 -18 34.5 -29.5t63.5 -11.5q49 0 76 22.5t27 59.5t-27 59.5t-76 22.5q-62 0 -94 -37h-266l53 533h614v-226h-376l-9 -94h9q69 25 135 25q124 0 213.5 -73.5t89.5 -209.5q0 -143 -102 -225t-267 -82zM492 0l839 1434h262
l-839 -1434h-262zM1638 -25q-89 0 -158 26.5t-112 69.5t-70.5 103.5t-38 122.5t-10.5 133q0 72 11.5 135.5t40 123t71.5 102.5t110 68.5t152 25.5q152 0 243 -75t114 -196h-267q-7 17 -29.5 31t-56.5 14q-51 0 -83 -34.5t-35 -112.5h10q70 45 170 45q138 0 228.5 -82
t90.5 -205q0 -133 -106.5 -214t-274.5 -81zM1638 201q57 0 86 18.5t29 50.5t-29 51t-86 19t-87.5 -19t-30.5 -51t30.5 -50.5t87.5 -18.5z" />
    <glyph glyph-name="oneeighth" unicode="&#x215b;" horiz-adv-x="1970" 
d="M295 573v537l-168 -86l-107 229l353 181h188v-861h-266zM328 0l839 1434h263l-840 -1434h-262zM1516 -25q-109 0 -197.5 26.5t-146.5 87.5t-58 149q0 157 168 213v8q-139 53 -139 184q0 116 108.5 179t264.5 63q100 0 182.5 -25.5t136 -81.5t53.5 -135q0 -131 -139 -184
v-8q168 -56 168 -213q0 -67 -33 -118.5t-89.5 -82.5t-127 -46.5t-151.5 -15.5zM1626 610q0 32 -32.5 51t-77.5 19t-78 -19t-33 -51t32 -48.5t79 -16.5q46 0 78 16.5t32 48.5zM1651 262q0 82 -135 82q-136 0 -136 -82t136 -82q135 0 135 82z" />
    <glyph glyph-name="threeeighths" unicode="&#x215c;" horiz-adv-x="2109" 
d="M406 549q-73 0 -136.5 15t-116.5 46t-85 84.5t-35 124.5h266q16 -45 107 -45q39 0 68.5 13.5t29.5 46.5q0 59 -115 59h-94v225h94q44 0 69 16t25 42q0 27 -24 42t-62 15q-35 0 -59.5 -12t-30.5 -33h-266q4 74 34 128t80 84t109.5 44t132.5 14q159 0 256 -63.5t97 -182.5
q0 -130 -123 -188v-8q66 -30 100.5 -87.5t34.5 -129.5q0 -64 -29 -113t-79 -78.5t-112.5 -44t-135.5 -14.5zM467 0l840 1434h262l-840 -1434h-262zM1655 -25q-109 0 -197.5 26.5t-146.5 87.5t-58 149q0 157 168 213v8q-139 53 -139 184q0 116 108.5 179t264.5 63t264.5 -63
t108.5 -179q0 -130 -140 -184v-8q168 -56 168 -213q0 -67 -33 -118.5t-89.5 -82.5t-127 -46.5t-151.5 -15.5zM1765 610q0 32 -32.5 51t-77.5 19t-78 -19t-33 -51t32 -48.5t79 -16.5q46 0 78 16.5t32 48.5zM1790 262q0 82 -135 82t-135 -82t135 -82t135 82z" />
    <glyph glyph-name="fiveeighths" unicode="&#x215d;" horiz-adv-x="2134" 
d="M438 549q-154 0 -249.5 72t-114.5 194h266q6 -18 34.5 -29.5t63.5 -11.5q49 0 76 22.5t27 59.5t-27 59.5t-76 22.5q-62 0 -94 -37h-266l53 533h614v-226h-376l-9 -94h9q69 25 135 25q124 0 213.5 -73.5t89.5 -209.5q0 -143 -102 -225t-267 -82zM492 0l839 1434h262
l-839 -1434h-262zM1679 -25q-81 0 -151.5 15.5t-127 46.5t-89.5 82.5t-33 118.5q0 157 168 213v8q-139 53 -139 184q0 79 53.5 135t136 81.5t182.5 25.5q156 0 264.5 -63t108.5 -179q0 -131 -139 -184v-8q168 -56 168 -213q0 -88 -58 -149t-146.5 -87.5t-197.5 -26.5z
M1790 610q0 32 -33 51t-78 19t-77.5 -19t-32.5 -51t32 -48.5t78 -16.5q47 0 79 16.5t32 48.5zM1815 262q0 82 -136 82q-135 0 -135 -82t135 -82q136 0 136 82z" />
    <glyph glyph-name="seveneighths" unicode="&#x215e;" horiz-adv-x="1912" 
d="M135 573l275 607v8h-369v246h680v-185l-303 -676h-283zM270 0l840 1434h262l-840 -1434h-262zM1458 -25q-81 0 -151.5 15.5t-127 46.5t-89.5 82.5t-33 118.5q0 157 168 213v8q-140 54 -140 184q0 116 108.5 179t264.5 63t264.5 -63t108.5 -179q0 -131 -139 -184v-8
q168 -56 168 -213q0 -88 -58 -149t-146.5 -87.5t-197.5 -26.5zM1569 610q0 32 -33 51t-78 19t-77.5 -19t-32.5 -51t32 -48.5t78 -16.5q47 0 79 16.5t32 48.5zM1593 262q0 82 -135 82t-135 -82t135 -82t135 82z" />
    <glyph glyph-name="uni215F" unicode="&#x215f;" horiz-adv-x="1019" 
d="M295 573v537l-168 -86l-107 229l353 181h188v-861h-266zM328 0l839 1434h263l-840 -1434h-262z" />
    <glyph glyph-name="uni2189" unicode="&#x2189;" horiz-adv-x="2117" 
d="M479 549q-183 0 -298 122t-115 333t115 332.5t298 121.5t298.5 -121.5t115.5 -332.5t-115.5 -333t-298.5 -122zM549 0l840 1434h262l-840 -1434h-262zM479 807q72 0 110 51.5t38 145.5t-37.5 145t-110.5 51q-72 0 -109.5 -51t-37.5 -145t37.5 -145.5t109.5 -51.5z
M1708 -25q-73 0 -137 15t-116.5 46t-84.5 85t-35 125h267q16 -45 106 -45q98 0 98 59t-114 59h-95v226h95q45 0 69.5 16t24.5 41q0 27 -24 42t-62 15q-35 0 -59.5 -12t-30.5 -33h-267q4 60 24.5 107t53 77.5t78 50t95 28t106.5 8.5q159 0 255.5 -63.5t96.5 -182.5
q0 -130 -123 -188v-9q66 -30 100.5 -87.5t34.5 -129.5q0 -64 -29 -113t-79 -78.5t-112.5 -44t-135.5 -14.5z" />
    <glyph glyph-name="arrowleft" unicode="&#x2190;" horiz-adv-x="1523" 
d="M1483 352h-926v-8l279 -344h-394l-422 520l422 520h394l-279 -344v-8h926v-336z" />
    <glyph glyph-name="arrowup" unicode="&#x2191;" horiz-adv-x="1163" 
d="M414 0v926h-8l-345 -279v393l521 422l520 -422v-393l-344 279h-8v-926h-336z" />
    <glyph glyph-name="arrowright" unicode="&#x2192;" horiz-adv-x="1523" 
d="M967 352h-926v336h926v8l-279 344h393l422 -520l-422 -520h-393l279 344v8z" />
    <glyph glyph-name="arrowdown" unicode="&#x2193;" horiz-adv-x="1163" 
d="M414 508v926h336v-926h8l344 278v-393l-520 -422l-521 422v393l345 -278h8z" />
    <glyph glyph-name="arrowboth" unicode="&#x2194;" horiz-adv-x="1941" 
d="M836 0h-394l-422 520l422 520h394l-279 -344v-8h827v8l-278 344h393l422 -520l-422 -520h-393l278 344v8h-827v-8z" />
    <glyph glyph-name="arrowupdn" unicode="&#x2195;" horiz-adv-x="1204" 
d="M82 -16v393l344 -279h8v828h-8l-344 -279v393l520 422l520 -422v-393l-344 279h-8v-828h8l344 279v-393l-520 -422z" />
    <glyph glyph-name="uni2196" unicode="&#x2196;" horiz-adv-x="1626" 
d="M1311 -29l-897 897l-4 -4v-438l-308 307v701h701l307 -308h-438l-4 -4l897 -897z" />
    <glyph glyph-name="uni2197" unicode="&#x2197;" horiz-adv-x="1626" 
d="M1212 868l-897 -897l-254 254l897 897l-4 4h-438l307 308h701v-701l-307 -307v438z" />
    <glyph glyph-name="uni2198" unicode="&#x2198;" horiz-adv-x="1626" 
d="M315 1462l897 -897l5 4v439l307 -308v-700h-701l-307 307h438l4 4l-897 897z" />
    <glyph glyph-name="uni2199" unicode="&#x2199;" horiz-adv-x="1626" 
d="M373 565l897 897l254 -254l-897 -897l4 -4h438l-307 -307h-701v700l308 308v-439z" />
    <glyph glyph-name="uni21E4" unicode="&#x21e4;" horiz-adv-x="1581" 
d="M422 0h-316v1040h316v-1040zM1540 352h-500v-8l279 -344h-393l-422 520l422 520h393l-279 -344v-8h500v-336z" />
    <glyph glyph-name="uni21E5" unicode="&#x21e5;" horiz-adv-x="1581" 
d="M1159 1040h316v-1040h-316v1040zM41 688h500v8l-279 344h393l422 -520l-422 -520h-393l279 344v8h-500v336z" />
    <glyph glyph-name="minus" unicode="&#x2212;" horiz-adv-x="1146" 
d="M61 461v307h1024v-307h-1024z" />
    <glyph glyph-name="approxequal" unicode="&#x2248;" horiz-adv-x="1216" 
d="M406 1130q60 0 109 -16t80.5 -39t58.5 -45.5t56 -38.5t60 -16q92 0 98 131h308q-6 -227 -104.5 -339t-260.5 -112q-60 0 -109.5 16t-81 39t-58 46t-56 39t-60.5 16q-92 0 -98 -131h-307q6 227 104.5 338.5t260.5 111.5zM406 573q60 0 109 -16t80.5 -38.5t58.5 -45.5
t56 -39t60 -16q92 0 98 131h308q-6 -227 -104.5 -339t-260.5 -112q-60 0 -109.5 16t-81 39t-58 46t-56 39t-60.5 16q-92 0 -98 -131h-307q6 227 104.5 338.5t260.5 111.5z" />
    <glyph glyph-name="notequal" unicode="&#x2260;" horiz-adv-x="1187" 
d="M82 963h524l86 184h332l-86 -184h168v-287h-301l-78 -164h379v-287h-512l-86 -184h-332l86 184h-180v287h313l78 164h-391v287z" />
    <glyph glyph-name="lessequal" unicode="&#x2264;" horiz-adv-x="1150" 
d="M82 741v271l967 352v-324l-512 -159v-9l512 -159v-324zM82 0v307h967v-307h-967z" />
    <glyph glyph-name="greaterequal" unicode="&#x2265;" horiz-adv-x="1150" 
d="M1069 1012v-271l-967 -352v324l512 159v9l-512 159v324zM1069 307v-307h-967v307h967z" />
    <glyph glyph-name="circle" unicode="&#x25cb;" horiz-adv-x="1982" 
d="M991 -172q-264 0 -468.5 108.5t-318.5 311t-114 469.5t114 469.5t318.5 311t468.5 108.5t468.5 -108.5t318.5 -311t114 -469.5t-114 -469.5t-318.5 -311t-468.5 -108.5zM991 45q309 0 488.5 181.5t179.5 490.5t-179.5 490.5t-488.5 181.5t-488 -181.5t-179 -490.5
t179 -490.5t488 -181.5z" />
    <glyph glyph-name="uni25CF" unicode="&#x25cf;" horiz-adv-x="1982" 
d="M991 -172q-264 0 -468.5 108.5t-318.5 311t-114 469.5t114 469.5t318.5 311t468.5 108.5t468.5 -108.5t318.5 -311t114 -469.5t-114 -469.5t-318.5 -311t-468.5 -108.5z" />
    <glyph glyph-name="uni262E" unicode="&#x262e;" horiz-adv-x="1695" 
d="M848 -29q-161 0 -300 52.5t-240.5 147.5t-159.5 236t-58 310q0 224 100 395t271.5 260.5t386.5 89.5t386.5 -89.5t271.5 -260.5t100 -395q0 -169 -58 -310t-159.5 -236t-240.5 -147.5t-300 -52.5zM375 469l356 356v410q-186 -34 -296.5 -171t-110.5 -347q0 -137 51 -248z
M965 1235v-410l356 -356q51 108 51 248q0 210 -110.5 347t-296.5 171zM731 199v331l-229 -229q96 -78 229 -102zM1194 301l-229 229v-331q133 24 229 102z" />
    <glyph glyph-name="uni2639" unicode="&#x2639;" horiz-adv-x="1982" 
d="M991 -172q-264 0 -468.5 108.5t-318.5 311t-114 469.5t114 469.5t318.5 311t468.5 108.5t468.5 -108.5t318.5 -311t114 -469.5t-114 -469.5t-318.5 -311t-468.5 -108.5zM991 45q309 0 488.5 181.5t179.5 490.5t-179.5 490.5t-488.5 181.5t-488 -181.5t-179 -490.5
t179 -490.5t488 -181.5zM1253 778q-84 0 -134 44t-50 120t50 120t134 44t134.5 -44t50.5 -120t-50.5 -120t-134.5 -44zM729 778q-84 0 -134 44t-50 120t50 120t134 44t134 -44t50 -120t-50 -120t-134 -44zM1438 328h-238q-16 82 -72 120.5t-135 38.5t-136 -38.5t-73 -120.5
h-237q26 185 144.5 281t301.5 96q181 0 300 -96t145 -281z" />
    <glyph glyph-name="smileface" unicode="&#x263a;" horiz-adv-x="1982" 
d="M991 -172q-264 0 -468.5 108.5t-318.5 311t-114 469.5t114 469.5t318.5 311t468.5 108.5t468.5 -108.5t318.5 -311t114 -469.5t-114 -469.5t-318.5 -311t-468.5 -108.5zM991 45q309 0 488.5 181.5t179.5 490.5t-179.5 490.5t-488.5 181.5t-488 -181.5t-179 -490.5
t179 -490.5t488 -181.5zM1253 778q-84 0 -134 44t-50 120t50 120t134 44t134.5 -44t50.5 -120t-50.5 -120t-134.5 -44zM729 778q-84 0 -134 44t-50 120t50 120t134 44t134 -44t50 -120t-50 -120t-134 -44zM1200 635h238q-25 -185 -145.5 -281t-301.5 -96t-301 96t-145 281
h237q16 -82 73 -121t136 -39t136 39t73 121z" />
    <glyph glyph-name="invsmileface" unicode="&#x263b;" horiz-adv-x="1982" 
d="M991 -172q-264 0 -468.5 108.5t-318.5 311t-114 469.5t114 469.5t318.5 311t468.5 108.5t468.5 -108.5t318.5 -311t114 -469.5t-114 -469.5t-318.5 -311t-468.5 -108.5zM1253 778q84 0 134.5 44t50.5 120t-50.5 120t-134.5 44t-134 -44t-50 -120t50 -120t134 -44z
M729 778q84 0 134 44t50 120t-50 120t-134 44t-134 -44t-50 -120t50 -120t134 -44zM782 635h-237q25 -185 145 -281t301 -96t301.5 96t145.5 281h-238q-16 -82 -73 -121t-136 -39t-136 39t-73 121z" />
    <glyph glyph-name="uni2661" unicode="&#x2661;" horiz-adv-x="1802" 
d="M1479 508l-578 -537l-577 537q-242 221 -242 487q0 204 130 335.5t325 131.5q100 0 195 -37t169 -104q74 67 169.5 104t195.5 37q195 0 324.5 -131.5t129.5 -335.5q0 -267 -241 -487zM578 709l323 -312l324 312q71 67 105 121.5t34 115.5q0 80 -54.5 134.5t-133.5 54.5
q-143 0 -275 -185q-132 185 -274 185q-79 0 -134 -54.5t-55 -134.5q0 -60 34.5 -114.5t105.5 -122.5z" />
    <glyph glyph-name="heart" unicode="&#x2665;" horiz-adv-x="1802" 
d="M1479 508l-578 -537l-577 537q-242 221 -242 487q0 204 130 335.5t325 131.5q100 0 195 -37t169 -104q74 67 169.5 104t195.5 37q195 0 324.5 -131.5t129.5 -335.5q0 -267 -241 -487z" />
    <glyph glyph-name="uni2713" unicode="&#x2713;" horiz-adv-x="1638" 
d="M399 0l-379 676h420l154 -287h8l586 1045h430l-819 -1434h-400z" />
    <glyph glyph-name="uni2912" unicode="&#x2912;" horiz-adv-x="1204" 
d="M82 1118v316h1040v-316h-1040zM434 0v500h-8l-344 -279v393l520 422l520 -422v-393l-344 279h-8v-500h-336z" />
    <glyph glyph-name="uni2913" unicode="&#x2913;" horiz-adv-x="1204" 
d="M434 934v500h336v-500h8l344 278v-393l-520 -422l-520 422v393l344 -278h8zM82 0v315h1040v-315h-1040z" />
    <glyph glyph-name="uni2E3A" unicode="&#x2e3a;" horiz-adv-x="3235" 
d="M82 410v315h3072v-315h-3072z" />
    <glyph glyph-name="uni2E3B" unicode="&#x2e3b;" horiz-adv-x="4771" 
d="M82 410v315h4608v-315h-4608z" />
    <glyph glyph-name="u1F6D2" unicode="&#x1f6d2;" horiz-adv-x="1802" 
d="M512 451l-143 716h-349v267h594l45 -226h1102l-143 -757h-1106zM758 717h614l41 225h-700zM754 -20q-93 0 -147 50.5t-54 141.5t54 142t147 51t146.5 -51t53.5 -142t-53.5 -141.5t-146.5 -50.5zM1376 -20q-93 0 -146.5 50.5t-53.5 141.5t53.5 142t146.5 51t147 -51
t54 -142t-54 -141.5t-147 -50.5z" />
    <glyph glyph-name="space.tf" horiz-adv-x="1376" 
 />
    <glyph glyph-name="space.tosf" horiz-adv-x="1376" 
 />
    <glyph glyph-name="I.ss02" horiz-adv-x="1437" 
d="M102 0v307h439v819h-439v308h1233v-308h-438v-819h438v-307h-1233z" />
    <glyph glyph-name="Iacute.ss02" horiz-adv-x="1437" 
d="M514 1561l164 266h369l-164 -266h-369zM102 0v307h439v819h-439v308h1233v-308h-438v-819h438v-307h-1233z" />
    <glyph glyph-name="Ibreve.ss02" horiz-adv-x="1437" 
d="M721 1556q-168 0 -258.5 88t-93.5 244h229q0 -63 36 -95t87 -32t87 32t36 95h229q-3 -156 -93.5 -244t-258.5 -88zM102 0v307h439v819h-439v308h1233v-308h-438v-819h438v-307h-1233z" />
    <glyph glyph-name="Icaron.ss02" horiz-adv-x="1437" 
d="M555 1561l-225 327h286l99 -143h8l98 143h287l-225 -327h-328zM102 0v307h439v819h-439v308h1233v-308h-438v-819h438v-307h-1233z" />
    <glyph glyph-name="Icircumflex.ss02" horiz-adv-x="1437" 
d="M330 1561l225 327h328l225 -327h-287l-98 143h-8l-99 -143h-286zM102 0v307h439v819h-439v308h1233v-308h-438v-819h438v-307h-1233z" />
    <glyph glyph-name="Idieresis.ss02" horiz-adv-x="1437" 
d="M494 1520q-84 0 -134.5 43.5t-50.5 119.5t50.5 120t134.5 44t134 -44t50 -120t-50 -119.5t-134 -43.5zM944 1520q-84 0 -134 43.5t-50 119.5t50 120t134 44t134 -44t50 -120t-50 -119.5t-134 -43.5zM102 0v307h439v819h-439v308h1233v-308h-438v-819h438v-307h-1233z" />
    <glyph glyph-name="Idotaccent.ss02" horiz-adv-x="1437" 
d="M719 1520q-88 0 -142.5 44t-54.5 119t54.5 119.5t142.5 44.5t142 -44.5t54 -119.5t-54 -119t-142 -44zM102 0v307h439v819h-439v308h1233v-308h-438v-819h438v-307h-1233z" />
    <glyph glyph-name="Igrave.ss02" horiz-adv-x="1437" 
d="M760 1827l164 -266h-369l-164 266h369zM102 0v307h439v819h-439v308h1233v-308h-438v-819h438v-307h-1233z" />
    <glyph glyph-name="Imacron.ss02" horiz-adv-x="1437" 
d="M371 1581v225h696v-225h-696zM102 0v307h439v819h-439v308h1233v-308h-438v-819h438v-307h-1233z" />
    <glyph glyph-name="Iogonek.ss02" horiz-adv-x="1437" 
d="M102 0v307h439v819h-439v308h1233v-308h-438v-819h438v-307q-135 -39 -135 -102q0 -32 30 -47t77 -15h28v-246h-143q-125 0 -195.5 52.5t-70.5 152.5q0 66 33 118.5t88 86.5h-945z" />
    <glyph glyph-name="Itilde.ss02" horiz-adv-x="1437" 
d="M571 1851q56 0 101 -21.5t80.5 -43t68.5 -21.5q56 0 62 62h225q-9 -147 -73.5 -219t-168.5 -72q-56 0 -101 21.5t-80.5 43t-68.5 21.5q-30 0 -44 -14.5t-17 -46.5h-225q9 147 73 218.5t168 71.5zM102 0v307h439v819h-439v308h1233v-308h-438v-819h438v-307h-1233z" />
    <glyph glyph-name="J.ss02" horiz-adv-x="1404" 
d="M61 0v336h779q52 0 67 15t15 67v688h-512v328h868v-1078q0 -206 -75 -281t-281 -75h-861z" />
    <glyph glyph-name="Jcircumflex.ss02" horiz-adv-x="1404" 
d="M455 1561l225 327h328l225 -327h-287l-98 143h-8l-99 -143h-286zM61 0v336h779q52 0 67 15t15 67v688h-512v328h868v-1078q0 -206 -75 -281t-281 -75h-861z" />
    <glyph glyph-name="a.ss01" 
d="M504 -29q-208 0 -325.5 146.5t-117.5 402.5t117.5 402.5t325.5 146.5q195 0 315 -135h8v106h336v-1040h-336v106h-8q-120 -135 -315 -135zM614 279q94 0 158 66.5t64 174.5t-64 175t-158 67t-155.5 -66.5t-61.5 -175.5q0 -108 61.5 -174.5t155.5 -66.5z" />
    <glyph glyph-name="aacute.ss01" 
d="M430 1167l164 267h369l-164 -267h-369zM504 -29q-208 0 -325.5 146.5t-117.5 402.5t117.5 402.5t325.5 146.5q195 0 315 -135h8v106h336v-1040h-336v106h-8q-120 -135 -315 -135zM614 279q94 0 158 66.5t64 174.5t-64 175t-158 67t-155.5 -66.5t-61.5 -175.5
q0 -108 61.5 -174.5t155.5 -66.5z" />
    <glyph glyph-name="abreve.ss01" 
d="M637 1163q-168 0 -258.5 88t-93.5 244h229q0 -63 36 -95t87 -32t87 32t36 95h229q-3 -156 -93.5 -244t-258.5 -88zM504 -29q-208 0 -325.5 146.5t-117.5 402.5t117.5 402.5t325.5 146.5q195 0 315 -135h8v106h336v-1040h-336v106h-8q-120 -135 -315 -135zM614 279
q94 0 158 66.5t64 174.5t-64 175t-158 67t-155.5 -66.5t-61.5 -175.5q0 -108 61.5 -174.5t155.5 -66.5z" />
    <glyph glyph-name="acaron.ss01" 
d="M471 1167l-225 328h286l99 -143h8l98 143h287l-225 -328h-328zM504 -29q-208 0 -325.5 146.5t-117.5 402.5t117.5 402.5t325.5 146.5q195 0 315 -135h8v106h336v-1040h-336v106h-8q-120 -135 -315 -135zM614 279q94 0 158 66.5t64 174.5t-64 175t-158 67t-155.5 -66.5
t-61.5 -175.5q0 -108 61.5 -174.5t155.5 -66.5z" />
    <glyph glyph-name="acircumflex.ss01" 
d="M246 1167l225 328h328l225 -328h-287l-98 144h-8l-99 -144h-286zM504 -29q-208 0 -325.5 146.5t-117.5 402.5t117.5 402.5t325.5 146.5q195 0 315 -135h8v106h336v-1040h-336v106h-8q-120 -135 -315 -135zM614 279q94 0 158 66.5t64 174.5t-64 175t-158 67t-155.5 -66.5
t-61.5 -175.5q0 -108 61.5 -174.5t155.5 -66.5z" />
    <glyph glyph-name="adieresis.ss01" 
d="M410 1126q-84 0 -134.5 44t-50.5 120t50.5 120t134.5 44t134 -44t50 -120t-50 -120t-134 -44zM860 1126q-84 0 -134 44t-50 120t50 120t134 44t134 -44t50 -120t-50 -120t-134 -44zM504 -29q-208 0 -325.5 146.5t-117.5 402.5t117.5 402.5t325.5 146.5q195 0 315 -135h8
v106h336v-1040h-336v106h-8q-120 -135 -315 -135zM614 279q94 0 158 66.5t64 174.5t-64 175t-158 67t-155.5 -66.5t-61.5 -175.5q0 -108 61.5 -174.5t155.5 -66.5z" />
    <glyph glyph-name="adotaccent.ss01" 
d="M635 1126q-88 0 -142.5 44.5t-54.5 119.5t54.5 119.5t142.5 44.5t142 -44.5t54 -119.5t-54 -119.5t-142 -44.5zM504 -29q-208 0 -325.5 146.5t-117.5 402.5t117.5 402.5t325.5 146.5q195 0 315 -135h8v106h336v-1040h-336v106h-8q-120 -135 -315 -135zM614 279
q94 0 158 66.5t64 174.5t-64 175t-158 67t-155.5 -66.5t-61.5 -175.5q0 -108 61.5 -174.5t155.5 -66.5z" />
    <glyph glyph-name="agrave.ss01" 
d="M676 1434l164 -267h-369l-164 267h369zM504 -29q-208 0 -325.5 146.5t-117.5 402.5t117.5 402.5t325.5 146.5q195 0 315 -135h8v106h336v-1040h-336v106h-8q-120 -135 -315 -135zM614 279q94 0 158 66.5t64 174.5t-64 175t-158 67t-155.5 -66.5t-61.5 -175.5
q0 -108 61.5 -174.5t155.5 -66.5z" />
    <glyph glyph-name="amacron.ss01" 
d="M287 1188v225h696v-225h-696zM504 -29q-208 0 -325.5 146.5t-117.5 402.5t117.5 402.5t325.5 146.5q195 0 315 -135h8v106h336v-1040h-336v106h-8q-120 -135 -315 -135zM614 279q94 0 158 66.5t64 174.5t-64 175t-158 67t-155.5 -66.5t-61.5 -175.5q0 -108 61.5 -174.5
t155.5 -66.5z" />
    <glyph glyph-name="aogonek.ss01" 
d="M504 -29q-208 0 -325.5 146.5t-117.5 402.5t117.5 402.5t325.5 146.5q195 0 315 -135h8v106h336v-1040q-135 -39 -135 -102q0 -32 30 -47t77 -15h28v-246h-143q-125 0 -195.5 52.5t-70.5 152.5q0 131 120 205h-47v106h-8q-120 -135 -315 -135zM614 279q94 0 158 66.5
t64 174.5t-64 175t-158 67t-155.5 -66.5t-61.5 -175.5q0 -108 61.5 -174.5t155.5 -66.5z" />
    <glyph glyph-name="aring.ss01" 
d="M635 1122q-108 0 -183 60.5t-75 169.5t75 169t183 60t183 -60t75 -169t-75 -169.5t-183 -60.5zM557 1352q0 -36 21.5 -55t56.5 -19t56.5 19t21.5 55t-21.5 54.5t-56.5 18.5t-56.5 -18.5t-21.5 -54.5zM504 -29q-208 0 -325.5 146.5t-117.5 402.5t117.5 402.5t325.5 146.5
q195 0 315 -135h8v106h336v-1040h-336v106h-8q-120 -135 -315 -135zM614 279q94 0 158 66.5t64 174.5t-64 175t-158 67t-155.5 -66.5t-61.5 -175.5q0 -108 61.5 -174.5t155.5 -66.5z" />
    <glyph glyph-name="atilde.ss01" 
d="M487 1458q56 0 101 -21.5t80.5 -43t68.5 -21.5q56 0 62 62h225q-9 -147 -73.5 -219t-168.5 -72q-56 0 -101 21.5t-80.5 43t-68.5 21.5q-30 0 -44 -15t-17 -47h-225q9 148 73.5 219.5t167.5 71.5zM504 -29q-208 0 -325.5 146.5t-117.5 402.5t117.5 402.5t325.5 146.5
q195 0 315 -135h8v106h336v-1040h-336v106h-8q-120 -135 -315 -135zM614 279q94 0 158 66.5t64 174.5t-64 175t-158 67t-155.5 -66.5t-61.5 -175.5q0 -108 61.5 -174.5t155.5 -66.5z" />
    <glyph glyph-name="idotless.ss02" horiz-adv-x="1110" 
d="M78 0v307h328v426h-328v307h663v-733h308v-307h-971z" />
    <glyph glyph-name="i.ss02" horiz-adv-x="1110" 
d="M573 1126q-88 0 -142 44.5t-54 119.5t54 119.5t142 44.5t142.5 -44.5t54.5 -119.5t-54.5 -119.5t-142.5 -44.5zM78 0v307h328v426h-328v307h663v-733h308v-307h-971z" />
    <glyph glyph-name="iacute.ss02" horiz-adv-x="1110" 
d="M369 1167l163 267h369l-164 -267h-368zM78 0v307h328v426h-328v307h663v-733h308v-307h-971z" />
    <glyph glyph-name="ibreve.ss02" horiz-adv-x="1110" 
d="M575 1163q-168 0 -258.5 88t-93.5 244h230q0 -63 35.5 -95t86.5 -32t87 32t36 95h230q-3 -156 -94 -244t-259 -88zM78 0v307h328v426h-328v307h663v-733h308v-307h-971z" />
    <glyph glyph-name="icaron.ss02" horiz-adv-x="1110" 
d="M410 1167l-226 328h287l98 -143h9l98 143h287l-226 -328h-327zM78 0v307h328v426h-328v307h663v-733h308v-307h-971z" />
    <glyph glyph-name="icircumflex.ss02" horiz-adv-x="1110" 
d="M184 1167l226 328h327l226 -328h-287l-98 144h-9l-98 -144h-287zM78 0v307h328v426h-328v307h663v-733h308v-307h-971z" />
    <glyph glyph-name="idieresis.ss02" horiz-adv-x="1110" 
d="M348 1126q-84 0 -134 44t-50 120t50 120t134 44t134 -44t50 -120t-50 -120t-134 -44zM799 1126q-84 0 -134.5 44t-50.5 120t50.5 120t134.5 44t134 -44t50 -120t-50 -120t-134 -44zM78 0v307h328v426h-328v307h663v-733h308v-307h-971z" />
    <glyph glyph-name="igrave.ss02" horiz-adv-x="1110" 
d="M614 1434l164 -267h-368l-164 267h368zM78 0v307h328v426h-328v307h663v-733h308v-307h-971z" />
    <glyph glyph-name="itilde.ss02" horiz-adv-x="1110" 
d="M426 1458q56 0 101 -21.5t80.5 -43t68.5 -21.5q30 0 44 15t17 47h226q-9 -147 -73.5 -219t-168.5 -72q-56 0 -101 21.5t-80.5 43t-68.5 21.5q-30 0 -44 -15t-17 -47h-226q9 147 73.5 219t168.5 72zM78 0v307h328v426h-328v307h663v-733h308v-307h-971z" />
    <glyph glyph-name="imacron.ss02" horiz-adv-x="1110" 
d="M225 1188v225h697v-225h-697zM78 0v307h328v426h-328v307h663v-733h308v-307h-971z" />
    <glyph glyph-name="iogonek.ss02" horiz-adv-x="1110" 
d="M573 1126q-88 0 -142 44.5t-54 119.5t54 119.5t142 44.5t142.5 -44.5t54.5 -119.5t-54.5 -119.5t-142.5 -44.5zM78 0v307h328v426h-328v307h663v-733h308v-307q-136 -40 -136 -102q0 -32 30 -47t77 -15h29v-246h-144q-125 0 -195.5 52.5t-70.5 152.5q0 66 33 118.5
t88 86.5h-682z" />
    <glyph glyph-name="jdotless.ss02" horiz-adv-x="1036" 
d="M61 1040h869v-1101q0 -185 -82 -267t-266 -82h-521v316h471q37 0 49.5 12t12.5 49v766h-533v307z" />
    <glyph glyph-name="j.ss02" horiz-adv-x="1036" 
d="M762 1126q-88 0 -142.5 44.5t-54.5 119.5t54.5 119.5t142.5 44.5t142 -44.5t54 -119.5t-54 -119.5t-142 -44.5zM61 1040h869v-1101q0 -185 -82 -267t-266 -82h-521v316h471q37 0 49.5 12t12.5 49v766h-533v307z" />
    <glyph glyph-name="jcaron.ss02" horiz-adv-x="1036" 
d="M598 1167l-225 328h286l99 -143h8l98 143h287l-225 -328h-328zM61 1040h869v-1101q0 -185 -82 -267t-266 -82h-521v316h471q37 0 49.5 12t12.5 49v766h-533v307z" />
    <glyph glyph-name="jcircumflex.ss02" horiz-adv-x="1036" 
d="M373 1167l225 328h328l225 -328h-287l-98 144h-8l-99 -144h-286zM61 1040h869v-1101q0 -185 -82 -267t-266 -82h-521v316h471q37 0 49.5 12t12.5 49v766h-533v307z" />
    <glyph glyph-name="l.ss02" horiz-adv-x="1077" 
d="M446 0q-184 0 -266 82t-82 266v1086h336v-1057q0 -37 12.5 -49.5t49.5 -12.5h520v-315h-570z" />
    <glyph glyph-name="lacute.ss02" horiz-adv-x="1077" 
d="M61 1561l164 266h369l-164 -266h-369zM446 0q-184 0 -266 82t-82 266v1086h336v-1057q0 -37 12.5 -49.5t49.5 -12.5h520v-315h-570z" />
    <glyph glyph-name="lcaron.ss02" horiz-adv-x="1077" 
d="M500 1106l82 328h266l-82 -328h-266zM446 0q-184 0 -266 82t-82 266v1086h336v-1057q0 -37 12.5 -49.5t49.5 -12.5h520v-315h-570z" />
    <glyph glyph-name="lcommaaccent.ss02" horiz-adv-x="1077" 
d="M446 0q-184 0 -266 82t-82 266v1086h336v-1057q0 -37 12.5 -49.5t49.5 -12.5h520v-315h-570zM451 -696l94 227q-73 9 -116.5 51.5t-43.5 110.5q0 79 52 121.5t145 42.5q94 0 145 -47t51 -138q0 -88 -37 -172l-86 -196h-204z" />
    <glyph glyph-name="ldot.ss02" horiz-adv-x="1077" 
d="M754 512q-93 0 -147 51t-54 142t54 141.5t147 50.5t146.5 -50.5t53.5 -141.5t-53.5 -142t-146.5 -51zM446 0q-184 0 -266 82t-82 266v1086h336v-1057q0 -37 12.5 -49.5t49.5 -12.5h520v-315h-570z" />
    <glyph glyph-name="lslash.ss02" horiz-adv-x="1142" 
d="M0 451v286l164 64v633h336v-504l192 74v-287l-192 -74v-266q0 -37 12 -49.5t49 -12.5h520v-315h-569q-184 0 -266 82t-82 266v166z" />
    <glyph glyph-name="IJ.ss02" horiz-adv-x="2842" 
d="M102 0v307h439v819h-439v308h1233v-308h-438v-819h438v-307h-1233zM1499 0v336h778q53 0 67.5 15t14.5 67v688h-512v328h869v-1078q0 -205 -75.5 -280.5t-281.5 -75.5h-860z" />
    <glyph glyph-name="LJ.ss02" horiz-adv-x="2818" 
d="M135 0v1434h357v-1098h860v-336h-1217zM1475 0v336h778q53 0 67.5 15t14.5 67v688h-512v328h868v-1078q0 -206 -75.5 -281t-280.5 -75h-860z" />
    <glyph glyph-name="Lj.ss02" horiz-adv-x="2449" 
d="M2175 1126q-88 0 -142.5 44.5t-54.5 119.5t54.5 119.5t142.5 44.5t142.5 -44.5t54.5 -119.5t-54.5 -119.5t-142.5 -44.5zM135 0v1434h357v-1098h860v-336h-1217zM1475 1040h868v-1101q0 -185 -82 -267t-266 -82h-520v316h471q37 0 49 12t12 49v766h-532v307z" />
    <glyph glyph-name="NJ.ss02" horiz-adv-x="3055" 
d="M1516 1434v-1434h-439l-577 897h-8v-897h-357v1434h438l578 -897h8v897h357zM1712 0v336h778q52 0 67 15t15 67v688h-512v328h869v-1078q0 -205 -75.5 -280.5t-281.5 -75.5h-860z" />
    <glyph glyph-name="Nj.ss02" horiz-adv-x="2686" 
d="M2413 1126q-88 0 -142.5 44.5t-54.5 119.5t54.5 119.5t142.5 44.5t142 -44.5t54 -119.5t-54 -119.5t-142 -44.5zM1516 1434v-1434h-439l-577 897h-8v-897h-357v1434h438l578 -897h8v897h357zM1712 1040h868v-1101q0 -185 -82 -267t-266 -82h-520v316h471q37 0 49.5 12
t12.5 49v766h-533v307z" />
    <glyph glyph-name="ij.ss02" horiz-adv-x="2084" 
d="M573 1126q-88 0 -142 44.5t-54 119.5t54 119.5t142 44.5t142.5 -44.5t54.5 -119.5t-54.5 -119.5t-142.5 -44.5zM1810 1126q-88 0 -142 44.5t-54 119.5t54 119.5t142 44.5t142.5 -44.5t54.5 -119.5t-54.5 -119.5t-142.5 -44.5zM78 0v307h328v426h-328v307h663v-733h308
v-307h-971zM1110 1040h868v-1101q0 -185 -82 -267t-266 -82h-520v316h471q37 0 49 12t12 49v766h-532v307z" />
    </font>
</defs>
</svg>
