<svg width="16" height="16" viewBox="0 0 16 16" fill="none" xmlns="http://www.w3.org/2000/svg">
<g id="ArrowsClockwise">
<path id="Vector" d="M11.0125 6.23145H14.0125V3.23145" stroke="#3073F8" stroke-width="2" stroke-linecap="round" stroke-linejoin="round"/>
<path id="Vector_2" d="M4.11255 4.1124C4.62279 3.60141 5.22878 3.19603 5.89583 2.91944C6.56289 2.64285 7.27792 2.50049 8.00005 2.50049C8.72217 2.50049 9.43721 2.64285 10.1043 2.91944C10.7713 3.19603 11.3773 3.60141 11.8875 4.1124L14.0125 6.23115" stroke="#3073F8" stroke-width="2" stroke-linecap="round" stroke-linejoin="round"/>
<path id="Vector_3" d="M4.98755 9.76855H1.98755V12.7686" stroke="#3073F8" stroke-width="2" stroke-linecap="round" stroke-linejoin="round"/>
<path id="Vector_4" d="M11.8875 11.8873C11.3773 12.3983 10.7713 12.8037 10.1043 13.0803C9.43721 13.3569 8.72217 13.4992 8.00005 13.4992C7.27792 13.4992 6.56289 13.3569 5.89583 13.0803C5.22878 12.8037 4.6228 12.3983 4.11255 11.8873L1.98755 9.76855" stroke="#3073F8" stroke-width="2" stroke-linecap="round" stroke-linejoin="round"/>
</g>
</svg>
