<svg width="100" height="100" viewBox="0 0 100 100" fill="none" xmlns="http://www.w3.org/2000/svg">
<g id="Frame" clip-path="url(#clip0_76_536)">
<g id="Group">
<path id="Vector" d="M60.4908 32.0403L5.13574 48.67V85.9166L5.13945 85.9155C5.14238 86.6817 5.70586 87.484 6.78164 88.1051L10.7662 90.4055L14.7508 92.7059C16.5254 93.7305 19.1549 93.9563 20.9477 93.2379L25.3637 91.4684C37.6219 86.5567 48.1941 80.4528 56.7018 73.3754L59.7666 70.8258C60.2543 70.4202 60.4871 69.9403 60.4875 69.445L60.491 69.444L60.4908 32.0403Z" fill="url(#paint0_linear_76_536)"/>
<path id="Vector_2" d="M40.2631 26.5785L44.6794 24.8089C46.4721 24.0906 49.1016 24.3163 50.876 25.341L54.8606 27.6413L58.8452 29.9417C60.6198 30.9663 61.0108 32.4845 59.7667 33.5195L56.7018 36.0691C48.1944 43.1464 37.6221 49.2503 25.3637 54.1621L20.9475 55.9316C19.1549 56.6499 16.5253 56.4242 14.7508 55.3996L10.7663 53.0992L6.7817 50.7988C5.00709 49.7742 4.61607 48.256 5.86021 47.221L8.92506 44.6714C17.4327 37.5941 28.0049 31.4902 40.2631 26.5785Z" fill="url(#paint1_linear_76_536)"/>
<path id="Vector_3" d="M5.86021 47.221C4.61607 48.256 5.00709 49.7742 6.7817 50.7988L8.64478 51.8744H17.5102V46.3113H6.95377L5.86021 47.221Z" fill="url(#paint2_linear_76_536)"/>
<path id="Vector_4" d="M25.0975 33.7345H48.7243V28.1714H36.4538C32.4716 29.8983 28.679 31.7538 25.0975 33.7345Z" fill="url(#paint3_linear_76_536)"/>
<path id="Vector_5" d="M52.7506 14.7407C52.7506 9.41999 49.9998 4.65535 45.3918 1.99519C40.7842 -0.665161 35.2826 -0.664966 30.6748 1.99519C19.6961 8.33367 12.876 20.1464 12.876 32.8235V49.1032L12.884 49.1038C12.8891 49.7761 13.3787 50.4837 14.3373 51.0372C16.099 52.0544 18.7641 52.1647 20.2898 51.2839C20.9883 50.8805 21.3227 50.3391 21.3156 49.7733L21.3238 49.7739V32.8233C21.3238 23.1548 26.5256 14.1452 34.8986 9.31082C36.8619 8.17761 39.2051 8.17742 41.1684 9.31082C43.1311 10.444 44.3029 12.4739 44.3029 14.7405V30.9886L44.3123 30.9893C44.3314 31.6526 44.8199 32.3475 45.7645 32.8927C47.5262 33.9098 50.1912 34.0202 51.717 33.1393C52.3785 32.7575 52.716 32.2518 52.7439 31.7188L52.7508 31.7194V14.7407H52.7506Z" fill="url(#paint4_linear_76_536)"/>
<path id="Vector_6" d="M47.6571 31.0095V16.2355C47.6571 9.89273 40.7907 5.92847 35.2977 9.09976C37.121 8.20972 39.2143 8.25054 41.0122 9.22378C43.0784 10.3423 44.303 12.5675 44.303 14.9171V30.9888L44.3124 30.9896C44.3315 31.6529 44.82 32.3478 45.7645 32.8929C47.5262 33.9101 50.1913 34.0205 51.7171 33.1396C52.1518 32.8886 52.444 32.5836 52.6028 32.2529C49.3372 32.6759 47.6571 31.0095 47.6571 31.0095Z" fill="url(#paint5_linear_76_536)"/>
<path id="Vector_7" d="M47.5812 59.3865C47.5812 55.8875 45.4539 54.2793 42.8297 55.7943C40.2055 57.3093 38.0781 61.3742 38.0781 64.8732C38.0781 67.2884 39.092 68.8021 40.5828 69.0103V74.3033C40.5828 75.9578 41.5889 76.7183 42.8297 76.0019C44.0707 75.2855 45.0766 73.3634 45.0766 71.7089V66.416C46.5674 64.4861 47.5812 61.8017 47.5812 59.3865Z" fill="url(#paint6_linear_76_536)"/>
<path id="Vector_8" d="M52.0508 71.0635V79.5195L52.0566 79.5199C52.0604 80.0213 52.4256 80.549 53.1404 80.9617C54.4543 81.7201 56.4416 81.8025 57.5793 81.1457C58.1002 80.8449 58.3496 80.4412 58.3443 80.0191L58.3504 80.0197V71.0635H52.0508Z" fill="url(#paint7_linear_76_536)"/>
<path id="Vector_9" d="M52.0508 79.5199L58.3504 80.0193V71.0635H52.0508V79.5199Z" fill="url(#paint8_linear_76_536)"/>
<path id="Vector_10" d="M94.8643 87.529C94.8643 80.0624 90.3246 71.3886 84.7246 68.1554C82.1875 66.6905 79.8701 66.5978 78.0918 67.6245L78.091 67.62L71.9133 71.2056C71.9133 71.2056 68.5893 87.2154 74.2568 92.063C79.9242 96.9107 85.0525 99.387 85.0525 99.387L91.4852 95.6542L91.467 95.662C93.5508 94.389 94.8643 91.5435 94.8643 87.529ZM81.4162 82.5677C81.5268 81.7111 81.5773 80.7322 81.5773 79.7724C81.5773 79.0939 81.544 78.3624 81.4816 77.6364L86.6043 90.3759C86.2281 90.3222 84.9502 89.8208 84.7123 89.6827C82.6586 88.4913 81.0916 85.0839 81.4162 82.5677Z" fill="url(#paint9_linear_76_536)"/>
<path id="Vector_11" d="M94.8643 87.5291C94.8643 87.3923 94.8596 87.2544 94.8567 87.1169L86.9999 91.6531L85.0526 99.3871L91.4852 95.6542L91.4671 95.6621C93.5509 94.389 94.8643 91.5435 94.8643 87.5291Z" fill="url(#paint10_linear_76_536)"/>
<path id="Vector_12" d="M86.0315 90.2556C85.8282 90.199 85.6289 90.129 85.4348 90.0461C85.1867 89.9398 84.9453 89.8184 84.712 89.6826C82.6585 88.4914 81.0915 85.084 81.4161 82.5677C81.5266 81.7111 81.5772 80.7322 81.5772 79.7724C81.5772 79.0939 81.5438 78.3625 81.4815 77.6365C81.4815 77.6365 74.3282 71.1584 73.2589 77.6365C72.4419 82.5863 73.1126 89.6224 75.6489 93.2158C76.5914 93.9726 77.5563 94.7009 78.5425 95.3998C83.418 96.625 85.4495 92.7363 85.4495 92.7363C85.4495 92.7363 85.7981 91.7857 86.0315 90.2556Z" fill="url(#paint11_linear_76_536)"/>
<path id="Vector_13" d="M86.0315 90.2556C85.8282 90.199 85.6289 90.129 85.4348 90.0461C85.1867 89.9398 84.9453 89.8184 84.712 89.6826C82.6585 88.4914 81.0915 85.084 81.4161 82.5677C81.5266 81.7111 81.5772 80.7322 81.5772 79.7724C81.5772 79.0939 81.5438 78.3625 81.4815 77.6365C81.4815 77.6365 74.3282 71.1584 73.2589 77.6365C72.4419 82.5863 73.1126 89.6224 75.6489 93.2158C76.5914 93.9726 77.5563 94.7009 78.5425 95.3998C83.418 96.625 85.4495 92.7363 85.4495 92.7363C85.4495 92.7363 85.7981 91.7857 86.0315 90.2556Z" fill="url(#paint12_linear_76_536)"/>
<path id="Vector_14" d="M44.5923 66.7639V75.22L44.5981 75.2206C44.6019 75.7219 44.9671 76.2497 45.6819 76.6624C46.9958 77.4209 48.9831 77.5032 50.121 76.8463C50.6419 76.5456 50.8913 76.1418 50.8858 75.7198L50.8919 75.7204V66.7641H44.5923V66.7639Z" fill="url(#paint13_linear_76_536)"/>
<path id="Vector_15" d="M44.592 75.2204L50.8918 75.7198V66.7639H44.592V75.2204Z" fill="url(#paint14_linear_76_536)"/>
<path id="Vector_16" d="M47.1592 58.1024L47.1576 58.1057C46.6155 57.7926 45.91 57.8184 45.1364 58.2651C43.4287 59.2508 42.0446 61.8958 42.0446 64.1727C42.0446 65.429 42.4672 66.3077 43.1319 66.6801L43.1307 66.6829L72.0828 83.3657L76.111 74.7864L47.1592 58.1024Z" fill="url(#paint15_linear_76_536)"/>
<path id="Vector_17" d="M78.541 71.7441C72.941 68.5109 68.4014 71.943 68.4014 79.4096C68.4014 86.8762 72.941 95.55 78.541 98.7832C84.141 102.016 88.6807 98.5844 88.6807 91.1178C88.6807 83.6512 84.141 74.9773 78.541 71.7441ZM84.5783 89.6688C84.2719 93.2041 82.0344 94.9057 79.2512 93.7201C79.0031 93.6139 78.7617 93.4926 78.5285 93.3568C76.4748 92.1656 74.9078 88.7582 75.2326 86.242C75.3432 85.3852 75.3937 84.4065 75.3937 83.4467C75.3937 82.5193 75.3324 81.493 75.2184 80.517C74.8775 77.6025 76.4262 75.9641 78.4926 77.1356L78.541 77.1633C82.1234 79.2316 84.9818 85.0162 84.5783 89.6688Z" fill="url(#paint16_linear_76_536)"/>
</g>
</g>
<defs>
<linearGradient id="paint0_linear_76_536" x1="15.8441" y1="62.8483" x2="21.4193" y2="62.8483" gradientUnits="userSpaceOnUse">
<stop stop-color="#FFA538"/>
<stop offset="1" stop-color="#F7E041"/>
</linearGradient>
<linearGradient id="paint1_linear_76_536" x1="14.8358" y1="29.991" x2="48.4475" y2="49.3966" gradientUnits="userSpaceOnUse">
<stop stop-color="#FFA538"/>
<stop offset="1" stop-color="#FCF3B3"/>
</linearGradient>
<linearGradient id="paint2_linear_76_536" x1="18.2518" y1="49.0929" x2="1.50884" y2="49.0929" gradientUnits="userSpaceOnUse">
<stop offset="0.032" stop-color="#8B451C"/>
<stop offset="1" stop-color="#8B451C" stop-opacity="0"/>
</linearGradient>
<linearGradient id="paint3_linear_76_536" x1="51.6528" y1="30.953" x2="30.2204" y2="30.953" gradientUnits="userSpaceOnUse">
<stop offset="0.032" stop-color="#8B451C"/>
<stop offset="1" stop-color="#8B451C" stop-opacity="0"/>
</linearGradient>
<linearGradient id="paint4_linear_76_536" x1="32.8133" y1="45.0917" x2="32.8133" y2="-6.78704" gradientUnits="userSpaceOnUse">
<stop stop-color="#DFDAEF"/>
<stop offset="1" stop-color="white"/>
</linearGradient>
<linearGradient id="paint5_linear_76_536" x1="43.9501" y1="-1.01215" x2="43.9501" y2="24.7388" gradientUnits="userSpaceOnUse">
<stop offset="0.032" stop-color="#7662BD"/>
<stop offset="1" stop-color="#7662BD" stop-opacity="0"/>
</linearGradient>
<linearGradient id="paint6_linear_76_536" x1="42.8295" y1="51.6058" x2="42.8295" y2="73.65" gradientUnits="userSpaceOnUse">
<stop stop-color="#322A50"/>
<stop offset="1" stop-color="#43386B"/>
</linearGradient>
<linearGradient id="paint7_linear_76_536" x1="53.4939" y1="76.3264" x2="56.9795" y2="76.3264" gradientUnits="userSpaceOnUse">
<stop stop-color="#FFA538"/>
<stop offset="1" stop-color="#F7E041"/>
</linearGradient>
<linearGradient id="paint8_linear_76_536" x1="57.4422" y1="71.6588" x2="54.45" y2="76.8414" gradientUnits="userSpaceOnUse">
<stop offset="0.032" stop-color="#8B451C"/>
<stop offset="1" stop-color="#8B451C" stop-opacity="0"/>
</linearGradient>
<linearGradient id="paint9_linear_76_536" x1="88.4633" y1="93.8361" x2="75.8963" y2="72.0693" gradientUnits="userSpaceOnUse">
<stop stop-color="#E37A34"/>
<stop offset="0.173" stop-color="#FFA538"/>
<stop offset="0.659" stop-color="#F7E041"/>
<stop offset="1" stop-color="#FCF3B3"/>
</linearGradient>
<linearGradient id="paint10_linear_76_536" x1="92.1821" y1="97.1099" x2="89.6897" y2="92.7933" gradientUnits="userSpaceOnUse">
<stop offset="0.032" stop-color="#8B451C"/>
<stop offset="1" stop-color="#8B451C" stop-opacity="0"/>
</linearGradient>
<linearGradient id="paint11_linear_76_536" x1="76.418" y1="81.7435" x2="83.8739" y2="94.6572" gradientUnits="userSpaceOnUse">
<stop stop-color="#E37A34"/>
<stop offset="1" stop-color="#FFA538"/>
</linearGradient>
<linearGradient id="paint12_linear_76_536" x1="73.6192" y1="76.8957" x2="78.0464" y2="84.5636" gradientUnits="userSpaceOnUse">
<stop offset="0.032" stop-color="#8B451C"/>
<stop offset="1" stop-color="#8B451C" stop-opacity="0"/>
</linearGradient>
<linearGradient id="paint13_linear_76_536" x1="46.169" y1="72.0268" x2="49.4345" y2="72.0268" gradientUnits="userSpaceOnUse">
<stop stop-color="#FFA538"/>
<stop offset="1" stop-color="#F7E041"/>
</linearGradient>
<linearGradient id="paint14_linear_76_536" x1="49.9836" y1="67.3592" x2="46.9915" y2="72.5418" gradientUnits="userSpaceOnUse">
<stop offset="0.032" stop-color="#8B451C"/>
<stop offset="1" stop-color="#8B451C" stop-opacity="0"/>
</linearGradient>
<linearGradient id="paint15_linear_76_536" x1="57.375" y1="72.2877" x2="61.3307" y2="65.4364" gradientUnits="userSpaceOnUse">
<stop stop-color="#FFA538"/>
<stop offset="0.341" stop-color="#F7E041"/>
<stop offset="0.654" stop-color="#FCF3B3"/>
<stop offset="1" stop-color="#F7E041"/>
</linearGradient>
<linearGradient id="paint16_linear_76_536" x1="78.541" y1="111.741" x2="78.541" y2="72.1902" gradientUnits="userSpaceOnUse">
<stop stop-color="#FFA538"/>
<stop offset="1" stop-color="#F7E041"/>
</linearGradient>
<clipPath id="clip0_76_536">
<rect width="100" height="100" fill="white"/>
</clipPath>
</defs>
</svg>
