<svg width="472" height="388" viewBox="0 0 472 388" fill="none" xmlns="http://www.w3.org/2000/svg">
<path d="M376.234 371.35H362.075V387.429H376.234V371.35Z" fill="white"/>
<path d="M0.00526634 387.429V301.191H77.3628V387.429H60.2378V318.44H17.2462V387.429H0H0.00526634Z" fill="white"/>
<path d="M88.4492 387.429V327.061L114.195 301.191H165.807V387.429H148.687V318.44H122.82L105.701 335.688V387.435H88.4545L88.4492 387.429Z" fill="white"/>
<path d="M176.893 387.429V327.183L202.639 301.186H254.251V387.424H237.131V361.675H194.139V387.424H176.893V387.429ZM237.131 344.431V318.434H211.264L194.145 335.804V344.426H237.136L237.131 344.431Z" fill="white"/>
<path d="M266.565 387.429V301.191H283.811V335.81H326.803V301.191H343.923V387.429H326.803V353.058H283.811V387.429H266.565Z" fill="white"/>
<path d="M394.381 387.429V301.191H467.549V318.44H411.627V335.81H463.239L471.738 344.431V378.929L463.239 387.429H394.381ZM454.619 370.18V353.058H411.627V370.18H454.619Z" fill="white"/>
<path d="M233.189 233.219H162.424V254.283H254.25V150.843H233.189V233.219Z" fill="white"/>
<path d="M21.0607 136.894H0.00488281V254.283H117.377V233.219H21.0607V136.894Z" fill="white"/>
<path d="M0.00488281 0V91.835H21.0607V21.0589H165.143V48.4735H186.204V21.0589H233.189V99.076L215.643 120.562L231.951 133.884L254.251 106.58V0H0.00488281Z" fill="white"/>
<path d="M129.37 80.7732V103.835H0.00488281V124.894H129.37V133.21V144.493H150.431V133.21V103.835V80.7732H129.37Z" fill="white"/>
<path d="M150.431 184.872H129.37V201.988H150.431V184.872Z" fill="white"/>
<path d="M150.431 156.124H129.37V173.241H150.431V156.124Z" fill="white"/>
<path d="M150.431 213.625H129.37V254.283H150.431V213.625Z" fill="white"/>
</svg>
