<svg width="124" height="83" viewBox="0 0 124 83" fill="none" xmlns="http://www.w3.org/2000/svg">
<path fill-rule="evenodd" clip-rule="evenodd" d="M29.519 83.0001V32.3634L50.6185 21.8942V83.0001H107.679V52.4472L75.9203 34.4999V21.8942L107.886 39.2004V24.4582L62.5154 0.742188L16.7328 24.4582V83.0001H29.519ZM75.3013 46.8921V71.249H98.8114V60.1388L75.3013 46.8921Z" fill="white" fill-opacity="0.5"/>
<g clip-path="url(#clip0_438_468)">
<path fill-rule="evenodd" clip-rule="evenodd" d="M29.519 83.0001V32.3634L47.9764 21.8942V83.0001H107.679V52.4472L75.9203 34.4999V21.8942L107.886 39.2004V24.4582L62.5154 0.742188L16.7328 24.4582V83.0001H29.519ZM75.3013 46.8921V71.249H98.8114V60.1388L75.3013 46.8921Z" fill="url(#paint0_linear_438_468)" fill-opacity="0.5"/>
</g>
<path d="M16.7212 61.1763H6.55134V82.6092H0V55.2812H23.2725V82.6092H16.7212V61.1763Z" fill="white"/>
<path d="M45.8779 64.6508V82.6092H40.3549V69.9993H33.8797V76.3628C33.8797 77.7682 33.6258 78.9394 33.118 79.8764C32.6101 80.7873 31.7468 81.477 30.5279 81.9455C29.3344 82.3879 27.6839 82.6092 25.5763 82.6092V77.3388C26.3381 77.3388 26.9856 77.1956 27.5189 76.9093C28.0775 76.597 28.3568 75.9333 28.3568 74.9183V64.6508H45.8779Z" fill="white"/>
<path d="M54.4878 77.2607C54.4878 77.6771 54.6021 78.0285 54.8306 78.3148C55.0591 78.575 55.3638 78.7833 55.7447 78.9394C56.151 79.0695 56.57 79.1346 57.0017 79.1346C57.7127 79.1346 58.3602 79.0175 58.9442 78.7833C59.5537 78.549 60.0361 78.1586 60.3916 77.6121C60.7471 77.0655 60.9249 76.3107 60.9249 75.3477L61.5343 77.534C61.5343 78.6791 61.2423 79.6682 60.6582 80.501C60.0996 81.3078 59.3251 81.9325 58.3348 82.3749C57.3699 82.7914 56.278 82.9996 55.0591 82.9996C53.8403 82.9996 52.7484 82.7914 51.7835 82.3749C50.8185 81.9325 50.0568 81.3078 49.4981 80.501C48.9649 79.6682 48.6982 78.6661 48.6982 77.4949C48.6982 76.2977 49.003 75.2697 49.6124 74.4108C50.2472 73.5519 51.1359 72.8882 52.2786 72.4198C53.4213 71.9513 54.7544 71.717 56.278 71.717C57.1667 71.717 58.0047 71.8211 58.7919 72.0294C59.6044 72.2115 60.3027 72.4588 60.8868 72.7711C61.4962 73.0574 61.9279 73.3437 62.1818 73.63V76.4018C61.5216 75.9073 60.836 75.5429 60.125 75.3087C59.4394 75.0484 58.6014 74.9183 57.6111 74.9183C56.9509 74.9183 56.3796 75.0224 55.8971 75.2306C55.44 75.4128 55.0845 75.6731 54.8306 76.0114C54.6021 76.3498 54.4878 76.7662 54.4878 77.2607ZM52.2405 70.1945L50.298 66.2124C51.2883 65.7179 52.4691 65.2494 53.8403 64.807C55.2369 64.3645 56.7224 64.1433 58.2967 64.1433C59.8711 64.1433 61.2677 64.3775 62.4865 64.846C63.7308 65.2885 64.6957 65.9391 65.3813 66.798C66.0923 67.6569 66.4478 68.711 66.4478 69.9602V82.6092H60.9249V71.1314C60.9249 70.3767 60.6455 69.7781 60.0869 69.3356C59.5537 68.8671 58.8046 68.6329 57.8396 68.6329C57.0017 68.6329 56.2018 68.724 55.44 68.9062C54.7036 69.0884 54.0561 69.3096 53.4975 69.5698C52.9388 69.8041 52.5199 70.0123 52.2405 70.1945Z" fill="white"/>
<path d="M71.3973 75.3477V70.9362H85.5665V75.3477H71.3973ZM82.9764 64.6508H88.4994V82.6092H82.9764V64.6508ZM69.6071 64.6508H75.1681V82.6092H69.6071V64.6508Z" fill="white"/>
<path d="M104.765 70.8972V65.5878H114.935C116.661 65.5878 118.198 65.9521 119.544 66.6809C120.915 67.3836 121.994 68.3726 122.781 69.6479C123.594 70.8972 124 72.3677 124 74.0594C124 75.7251 123.594 77.2086 122.781 78.51C121.994 79.7853 120.915 80.7873 119.544 81.516C118.198 82.2448 116.661 82.6092 114.935 82.6092H104.765V77.1826H113.525C114.363 77.1826 115.074 77.0785 115.658 76.8703C116.242 76.6361 116.687 76.2847 116.992 75.8162C117.296 75.3477 117.449 74.7621 117.449 74.0594C117.449 73.3307 117.296 72.7451 116.992 72.3026C116.687 71.8342 116.242 71.4828 115.658 71.2486C115.074 71.0143 114.363 70.8972 113.525 70.8972H104.765ZM102.975 55.2812H121.981V60.7078H109.526V82.6092H102.975V55.2812Z" fill="white"/>
<defs>
<linearGradient id="paint0_linear_438_468" x1="62.3092" y1="0.742185" x2="129.774" y2="69.4779" gradientUnits="userSpaceOnUse">
<stop stop-color="white"/>
<stop offset="0.0001" stop-color="white"/>
<stop offset="0.835069" stop-color="white" stop-opacity="0"/>
</linearGradient>
<clipPath id="clip0_438_468">
<rect width="45.5046" height="82" fill="white" transform="translate(62.5688 1)"/>
</clipPath>
</defs>
</svg>
