<svg width="41" height="40" viewBox="0 0 41 40" fill="none" xmlns="http://www.w3.org/2000/svg">
<g id="Trophy">
<path id="Vector" d="M36.5835 10H32.8335V8.75C32.8335 8.08696 32.5701 7.45107 32.1013 6.98223C31.6324 6.51339 30.9965 6.25 30.3335 6.25H10.3335C9.67045 6.25 9.03457 6.51339 8.56573 6.98223C8.09689 7.45107 7.8335 8.08696 7.8335 8.75V10H4.06787C3.40483 10 2.76894 10.2634 2.3001 10.7322C1.83126 11.2011 1.56787 11.837 1.56787 12.5V15C1.56787 16.6576 2.22635 18.2473 3.39845 19.4194C4.57056 20.5915 6.16027 21.25 7.81787 21.25H8.44287C9.9585 25.9219 14.0991 29.4219 19.0835 29.9375V33.75H15.3335C15.002 33.75 14.684 33.8817 14.4496 34.1161C14.2152 34.3505 14.0835 34.6685 14.0835 35C14.0835 35.3315 14.2152 35.6495 14.4496 35.8839C14.684 36.1183 15.002 36.25 15.3335 36.25H25.3335C25.665 36.25 25.983 36.1183 26.2174 35.8839C26.4518 35.6495 26.5835 35.3315 26.5835 35C26.5835 34.6685 26.4518 34.3505 26.2174 34.1161C25.983 33.8817 25.665 33.75 25.3335 33.75H21.5835V29.9375C24.0192 29.6983 26.3304 28.7468 28.2284 27.2017C30.1264 25.6566 31.527 23.5865 32.2554 21.25H32.8335C34.4911 21.25 36.0808 20.5915 37.2529 19.4194C38.425 18.2473 39.0835 16.6576 39.0835 15V12.5C39.0835 11.837 38.8201 11.2011 38.3513 10.7322C37.8824 10.2634 37.2465 10 36.5835 10ZM7.81787 18.75C6.82331 18.75 5.86948 18.3549 5.16622 17.6517C4.46296 16.9484 4.06787 15.9946 4.06787 15V12.5H7.8335V17.3594C7.83573 17.8239 7.86181 18.2881 7.91162 18.75H7.81787ZM36.5835 15C36.5794 15.9933 36.183 16.9447 35.4806 17.6471C34.7782 18.3495 33.8268 18.7459 32.8335 18.75H32.771C32.8156 18.3349 32.8364 17.9175 32.8335 17.5V12.5H36.5835V15Z" fill="url(#paint0_linear_141_1730)"/>
</g>
<defs>
<linearGradient id="paint0_linear_141_1730" x1="35.9091" y1="34.5345" x2="-4.95996" y2="-19.1876" gradientUnits="userSpaceOnUse">
<stop stop-color="#1652CB"/>
<stop offset="1" stop-color="#1652CB" stop-opacity="0"/>
</linearGradient>
</defs>
</svg>
