<svg width="40" height="40" viewBox="0 0 40 40" fill="none" xmlns="http://www.w3.org/2000/svg">
<g id="Handshake">
<path id="Vector" d="M18.7187 33.5625C18.6496 33.8338 18.4925 34.0745 18.2719 34.247C18.0514 34.4194 17.7799 34.5139 17.4999 34.5156C17.3992 34.5153 17.299 34.4995 17.2031 34.4688L12.4843 33.2969C12.1016 33.2002 11.7478 33.0126 11.4531 32.75L7.93745 29.6875C7.81433 29.5808 7.71344 29.4509 7.64053 29.3052C7.56762 29.1595 7.52412 29.0009 7.51251 28.8384C7.5009 28.6759 7.52141 28.5127 7.57288 28.3581C7.62434 28.2035 7.70575 28.0606 7.81245 27.9375C7.91914 27.8144 8.04905 27.7135 8.19474 27.6406C8.34043 27.5677 8.49905 27.5242 8.66156 27.5126C8.82406 27.501 8.98726 27.5215 9.14183 27.5729C9.29641 27.6244 9.43933 27.7058 9.56245 27.8125L13.0937 30.875L17.7968 32.0469C18.1185 32.1282 18.3953 32.3327 18.5677 32.6161C18.7402 32.8996 18.7944 33.2395 18.7187 33.5625ZM39.4374 18.6875C39.3347 19.0022 39.1697 19.293 38.9523 19.5426C38.7348 19.7923 38.4694 19.9956 38.1718 20.1406L34.5312 21.9688L32.2031 24.7031H32.1718C32.1718 24.7188 32.1562 24.7188 32.1562 24.7344H32.1406L26.3906 30.4844C25.914 30.9502 25.2757 31.2134 24.6093 31.2188C24.409 31.2169 24.2096 31.1907 24.0156 31.1406L14.9531 28.9063C14.6109 28.8264 14.2907 28.6717 14.0156 28.4531L5.57807 21.8594L1.82807 19.9844C1.22906 19.6808 0.774185 19.1529 0.562445 18.5156C0.462343 18.1999 0.425989 17.8674 0.455495 17.5374C0.485 17.2075 0.579778 16.8867 0.73432 16.5938L4.57807 9.23438C4.88183 8.65523 5.39918 8.21714 6.02046 8.01297C6.64173 7.80879 7.3181 7.85458 7.90619 8.14063L11.4062 9.89062L19.0156 7.67188C19.586 7.51644 20.1924 7.56054 20.7343 7.79688L25.8906 10.1406H28.4531L32.0937 8.3125C32.6792 8.02118 33.3556 7.9709 33.9778 8.17245C34.5999 8.374 35.1183 8.81132 35.4218 9.39062L39.2656 16.75C39.4206 17.0457 39.5155 17.3691 39.545 17.7016C39.5745 18.0341 39.538 18.3692 39.4374 18.6875ZM29.3281 24.0312L24.3906 20.4375L23.1249 21.3906C22.0411 22.1972 20.726 22.6329 19.3749 22.6329C18.0239 22.6329 16.7088 22.1972 15.6249 21.3906L14.7812 20.75C14.4929 20.5365 14.2543 20.2632 14.0818 19.9487C13.9092 19.6342 13.8068 19.2861 13.7816 18.9283C13.7563 18.5705 13.8089 18.2115 13.9356 17.8759C14.0623 17.5404 14.2601 17.2362 14.5156 16.9844L20.6249 10.8594L20.9062 10.625L19.7031 10.0781L12.0937 12.2969L7.8437 20.4531L15.5624 26.4844L24.6093 28.75L29.3281 24.0312ZM32.2499 20.7969L27.9999 12.6406H22.3906L16.2812 18.75L17.1249 19.3906C17.777 19.8704 18.5654 20.1291 19.3749 20.1291C20.1845 20.1291 20.9729 19.8704 21.6249 19.3906L23.6249 17.8906C23.8382 17.7297 24.0974 17.6414 24.3646 17.6386C24.6317 17.6358 24.8927 17.7186 25.1093 17.875L31.0468 22.1875L32.2499 20.7969Z" fill="url(#paint0_linear_58_284)"/>
</g>
<defs>
<linearGradient id="paint0_linear_58_284" x1="36.2457" y1="32.9754" x2="1.33877" y2="-20.302" gradientUnits="userSpaceOnUse">
<stop stop-color="#089F84"/>
<stop offset="1" stop-color="#089F84" stop-opacity="0"/>
</linearGradient>
</defs>
</svg>
