<svg width="100" height="100" viewBox="0 0 100 100" fill="none" xmlns="http://www.w3.org/2000/svg">
<g id="Frame" clip-path="url(#clip0_76_555)">
<g id="Group">
<path id="Vector" d="M48.4398 6.55029L72.2539 7.30225V35.4374L72.2529 35.4376C72.2642 35.7897 72.0121 36.164 71.5082 36.4548L62.7299 41.5233C61.8285 42.0439 60.465 42.1003 59.6845 41.6497L48.9668 35.4616C48.5914 35.2448 48.4213 34.9503 48.4439 34.6448L48.4398 6.55029Z" fill="url(#paint0_linear_76_555)"/>
<path id="Vector_2" d="M61.009 0.304296L71.7267 6.49219C72.5072 6.94277 72.4094 7.73008 71.5082 8.25039L62.7299 13.3189C61.8285 13.8393 60.465 13.8959 59.6846 13.4451L48.9668 7.25723C48.1861 6.80664 48.2842 6.01934 49.1855 5.49902L57.9639 0.430468C58.865 -0.0898445 60.2285 -0.146485 61.009 0.304296Z" fill="#E7E3F3"/>
<path id="Vector_3" d="M59.6865 2.02441C59.8627 2.02441 59.9746 2.05215 60.0109 2.06563L69.0916 7.3084L61.7176 11.566C61.5802 11.6453 61.3074 11.7252 61.0072 11.7252C60.8308 11.7252 60.7187 11.6973 60.6826 11.684L51.6019 6.44121L58.9758 2.18359C59.1133 2.1043 59.3861 2.02441 59.6865 2.02441Z" fill="url(#paint1_linear_76_555)"/>
<path id="Vector_4" d="M71.0443 86.5448L53.5898 76.4675L74.7189 60.3159L71.0443 86.5448Z" fill="url(#paint2_linear_76_555)"/>
<path id="Vector_5" d="M17.5685 55.8438V81.5096C17.5685 82.5297 17.9064 83.2475 18.439 83.5646L18.4392 83.5684L46.6136 99.8367L45.7142 72.0947L17.5685 55.8438Z" fill="url(#paint3_linear_76_555)"/>
<path id="Vector_6" d="M39.0107 75.4417L67.074 26.5704L39.0476 10.3862L39.0468 10.3874C37.1968 9.27041 34.3669 10.9911 32.5959 14.3749L10.78 56.0587C10.0642 57.4265 10.2029 58.7728 10.8447 59.1771L10.8443 59.1776L10.8794 59.198C10.8884 59.203 10.897 59.2087 10.9062 59.2134L39.0107 75.4417Z" fill="url(#paint4_linear_76_555)"/>
<path id="Vector_7" d="M45.714 97.7607C45.714 99.6432 46.8585 100.508 48.2702 99.6934L57.1009 94.5949V76.9852C57.1009 75.8348 57.8003 74.4986 58.663 74.0004L69.482 67.7541C70.3447 67.2559 71.0441 67.7848 71.0441 68.935V86.5449L79.8747 81.4465C81.2865 80.6314 82.431 78.4445 82.431 76.5623V48.1299L45.714 72.0949V97.7607Z" fill="url(#paint5_linear_76_555)"/>
<path id="Vector_8" d="M89.2196 43.2724L67.4034 26.7798C65.5638 25.389 62.5812 27.111 60.7415 30.6259L38.9255 72.3099C37.9003 74.2688 38.6263 76.1868 40.0763 75.3497L45.714 72.0948L82.4312 50.8962L88.0688 47.6413C89.5187 46.8042 90.2448 44.0478 89.2196 43.2724Z" fill="url(#paint6_linear_76_555)"/>
</g>
</g>
<defs>
<linearGradient id="paint0_linear_76_555" x1="48.4398" y1="6.55029" x2="72.2539" y2="6.55029" gradientUnits="userSpaceOnUse">
<stop stop-color="#C5BAEB"/>
<stop offset="1" stop-color="#E9E5F6"/>
</linearGradient>
<linearGradient id="paint1_linear_76_555" x1="51.6019" y1="2.02441" x2="69.0916" y2="2.02441" gradientUnits="userSpaceOnUse">
<stop stop-color="#43386B"/>
<stop offset="1" stop-color="#594A8E"/>
</linearGradient>
<linearGradient id="paint2_linear_76_555" x1="53.5898" y1="60.3159" x2="74.7189" y2="60.3159" gradientUnits="userSpaceOnUse">
<stop stop-color="#43386B"/>
<stop offset="1" stop-color="#594A8E"/>
</linearGradient>
<linearGradient id="paint3_linear_76_555" x1="17.5685" y1="55.8438" x2="46.6136" y2="55.8438" gradientUnits="userSpaceOnUse">
<stop stop-color="#C5BAEB"/>
<stop offset="1" stop-color="#E9E5F6"/>
</linearGradient>
<linearGradient id="paint4_linear_76_555" x1="45.9377" y1="27.3444" x2="49.8091" y2="20.639" gradientUnits="userSpaceOnUse">
<stop stop-color="#AB2C37"/>
<stop offset="1" stop-color="#FF959D"/>
</linearGradient>
<linearGradient id="paint5_linear_76_555" x1="64.0726" y1="84.182" x2="64.0726" y2="51.9273" gradientUnits="userSpaceOnUse">
<stop stop-color="#E7E3F3"/>
<stop offset="1" stop-color="white"/>
</linearGradient>
<linearGradient id="paint6_linear_76_555" x1="69.181" y1="35.9944" x2="58.3724" y2="85.338" gradientUnits="userSpaceOnUse">
<stop stop-color="#FF4757"/>
<stop offset="1" stop-color="#FF7A85"/>
</linearGradient>
<clipPath id="clip0_76_555">
<rect width="100" height="100" fill="white"/>
</clipPath>
</defs>
</svg>
