<svg width="100" height="100" viewBox="0 0 100 100" fill="none" xmlns="http://www.w3.org/2000/svg">
<g id="Frame">
<g id="Group">
<path id="Vector" d="M32.6918 4.95142L51.5342 13.3999L35.7197 44.0862L13.8416 75.2045V35.1616L32.6918 4.95142Z" fill="url(#paint0_linear_76_565)"/>
<path id="Vector_2" d="M56.9778 59.9569L13.8416 35.2786V75.3215L56.9778 100V59.9569Z" fill="url(#paint1_linear_76_565)"/>
<path id="Vector_3" d="M75.828 29.7466L94.6704 38.1952V78.2382L56.9778 99.9997V59.9569L75.828 29.7466Z" fill="url(#paint2_linear_76_565)"/>
<path id="Vector_4" d="M75.8241 37.5966L94.6704 46.9249V38.1952L72.4897 27.0415L75.8241 37.5966Z" fill="url(#paint3_linear_76_565)"/>
<path id="Vector_5" d="M13.8415 43.081L57.0804 68.0448L59.5652 61.2181L13.8415 34.1997V43.081Z" fill="url(#paint4_linear_76_565)"/>
<path id="Vector_6" d="M30.4014 0L71.7895 22.3109L79.8334 28.4428L98.1684 37.5967C98.383 37.7038 98.5636 37.8687 98.6898 38.0728C98.816 38.2768 98.8828 38.512 98.8828 38.752C98.8828 39.692 97.9107 40.3168 97.0557 39.9266L80.466 32.2492L62.0336 62.1166L62.0328 62.1149L61.8193 62.4184C60.3732 64.4732 57.6105 65.0947 55.4242 63.8713L54.7088 63.4619L54.6969 63.4551L11.7596 38.8828C11.033 38.4631 10.6066 37.7338 10.5311 36.9604L10.5111 33.1873L30.4014 0Z" fill="#8B451C"/>
<path id="Vector_7" d="M11.2716 31.918L66.4685 50.1236V54.9193L62.0328 62.115L61.8193 62.4186C60.3734 64.473 57.6113 65.0947 55.4251 63.8719L54.6994 63.4566L54.697 63.4551L11.7597 38.8826C11.0332 38.4631 10.6068 37.7338 10.5312 36.9604L10.5113 33.1873L11.2716 31.918Z" fill="url(#paint5_linear_76_565)"/>
<path id="Vector_8" d="M79.8333 28.4428L30.4016 0L10.8805 31.7889C10.1452 32.9861 10.5426 34.5543 11.7596 35.2568L56.4106 60.8102C57.836 61.633 59.6573 61.173 60.5209 59.7721L79.8333 28.4428Z" fill="url(#paint6_linear_76_565)"/>
<path id="Vector_9" d="M71.7896 22.3109L48.7319 9.2248L30.4017 0L79.8333 28.4428L98.1685 37.5967L71.7896 22.3109Z" fill="url(#paint7_linear_76_565)"/>
<path id="Vector_10" d="M20.7971 12.9763L36.1025 12.2144V21.8185C36.1031 21.8298 36.1025 21.8411 36.1025 21.8526V21.8669H36.1019C36.0949 22.0825 31.1455 29.7437 29.5668 32.1819C29.0763 32.9396 28.1814 33.3751 27.2961 33.1995C27.1055 33.1616 26.9301 33.1003 26.7822 33.0149L21.1961 29.7897C20.9304 29.6364 20.8002 29.4313 20.798 29.2165L20.7969 22.6239L20.7971 12.9763Z" fill="url(#paint8_linear_76_565)"/>
<path id="Vector_11" d="M19.5647 9.92388L37.3346 9.03931V12.8178C37.3354 12.8309 37.3346 12.8442 37.3346 12.8575V12.8739H37.334C37.3243 13.1717 37.1047 13.4834 36.6807 13.728L29.1918 18.0516C28.3993 18.5092 27.2 18.559 26.5137 18.1627L20.0282 14.4182C19.7198 14.2401 19.5686 14.0022 19.5661 13.7528L19.5647 13.753V9.92388Z" fill="url(#paint9_linear_76_565)"/>
<path id="Vector_12" d="M30.3875 4.61881L36.8731 8.36334C37.5596 8.75963 37.4735 9.45201 36.6809 9.90963L29.192 14.2333C28.3994 14.6909 27.2002 14.7407 26.5139 14.3442L20.0284 10.5999C19.3418 10.2036 19.428 9.51119 20.2205 9.05357L27.7094 4.72994C28.502 4.27232 29.701 4.22252 30.3875 4.61881Z" fill="#EBCBA0"/>
<path id="Vector_13" d="M29.2242 6.14526C28.9627 6.14526 28.7254 6.21479 28.6062 6.28354L22.3732 9.88218L27.397 12.7826C27.4291 12.7941 27.5256 12.8177 27.6767 12.8177C27.9383 12.8177 28.1756 12.7484 28.2947 12.6794L34.5277 9.08081L29.5039 6.18022C29.472 6.1687 29.3754 6.14526 29.2242 6.14526Z" fill="url(#paint10_linear_76_565)"/>
<path id="Vector_14" d="M18.9298 50.0095L21.1574 48.7126C21.4125 48.5456 21.7533 48.5501 22.1279 48.7665L48.4218 63.9273C49.2119 64.3835 49.8523 65.6072 49.8523 66.6605V78.9005C49.8523 79.5228 49.6287 79.9464 49.2828 80.0949L47.7367 80.9939L47.2007 81.3076L18.9298 50.0095Z" fill="url(#paint11_linear_76_565)"/>
<path id="Vector_15" d="M19.9098 50.0569L46.2039 65.2176C46.994 65.6737 47.6344 66.8975 47.6344 67.9508V80.1909C47.6344 81.2442 46.994 81.7284 46.2039 81.2723L19.9098 66.1116C19.1197 65.6555 18.4793 64.4317 18.4793 63.3784V51.1383C18.4793 50.085 19.1197 49.6008 19.9098 50.0569Z" fill="url(#paint12_linear_76_565)"/>
<path id="Vector_16" d="M20.4188 52.5894V62.937C20.4188 63.3585 20.7281 63.8837 20.8785 63.9901L45.6949 78.2987V67.9511C45.6949 67.5296 45.3856 67.0044 45.2352 66.898L20.4188 52.5894Z" fill="url(#paint13_linear_76_565)"/>
<path id="Vector_17" d="M45.2352 66.8979C45.3856 67.0043 45.6949 67.5295 45.6949 67.951V78.2987L37.7877 73.7397L29.4406 57.7913L45.2352 66.8979Z" fill="url(#paint14_linear_76_565)"/>
<path id="Vector_18" d="M21.9439 53.4687V62.497C21.9439 62.9185 22.2533 63.4437 22.4039 63.5501L45.6951 76.9794V78.7403L20.8787 64.4317C20.7283 64.3253 20.4189 63.8001 20.4189 63.3786V52.5894L21.9439 53.4687Z" fill="url(#paint15_linear_76_565)"/>
<path id="Vector_19" d="M86.9922 53.133L84.7646 51.8362C84.5096 51.6692 84.1687 51.6737 83.7941 51.8901L67.4596 61.2235C66.6695 61.6797 66.0291 62.9034 66.0291 63.9567V76.1967C66.0291 76.819 66.2527 77.2424 66.5986 77.391L68.1445 78.2901L68.6805 78.6039L86.9922 53.133Z" fill="url(#paint16_linear_76_565)"/>
<path id="Vector_20" d="M86.0122 53.1803L69.6776 62.5137C68.8875 62.9699 68.2471 64.1936 68.2471 65.2471V77.4871C68.2471 78.5404 68.8875 79.0246 69.6776 78.5686L86.0122 69.2352C86.8022 68.7791 87.4426 67.5553 87.4426 66.502V54.2617C87.4426 53.2082 86.8022 52.724 86.0122 53.1803Z" fill="url(#paint17_linear_76_565)"/>
<path id="Vector_21" d="M70.6463 64.1937C70.4959 64.3001 70.1866 64.8253 70.1866 65.2468V75.5946L85.0434 67.1134C85.1938 67.0069 85.5032 66.4817 85.5032 66.0603V55.7124L70.6463 64.1937Z" fill="url(#paint18_linear_76_565)"/>
<path id="Vector_22" d="M72.3005 74.1966L70.1864 75.4156V65.2468C70.1864 64.8251 70.4958 64.3001 70.6462 64.1937L80.4712 58.5847L72.3005 74.1966Z" fill="url(#paint19_linear_76_565)"/>
<path id="Vector_23" d="M83.978 56.5919V65.6202C83.978 66.0417 83.6686 66.5669 83.5182 66.6733L70.1866 74.2753V76.036L85.0434 67.5548C85.1938 67.4483 85.5032 66.9232 85.5032 66.5017V55.7124L83.978 56.5919Z" fill="url(#paint20_linear_76_565)"/>
<path id="Vector_24" d="M13.8416 48.6069L20.6164 49.4034C20.8824 49.4347 21.1602 49.5337 21.4377 49.694C21.7153 49.8544 21.993 50.0759 22.259 50.3517L32.3912 60.8601C33.0492 61.5425 33.4908 62.6231 33.4908 63.5513V71.161C33.4908 76.6845 31.6727 80.7903 28.6254 82.5489L28.6258 82.5497L28.5957 82.5671L28.5819 82.5751L27.5559 83.1675L13.8418 75.3216V48.6069H13.8416Z" fill="url(#paint21_linear_76_565)"/>
<path id="Vector_25" d="M1.66655 53.1763L4.84937 51.3386C5.11968 51.1755 5.29429 51.0259 5.59663 51.0614L15.7289 52.2528C15.9949 52.2841 16.2726 52.3833 16.5501 52.5435C16.8277 52.7038 17.1052 52.9251 17.3714 53.2011L27.5037 63.7095C28.1617 64.3919 28.6033 65.4726 28.6033 66.4005V74.0103C28.6033 79.5337 26.7851 83.6396 23.7378 85.3984L23.7382 85.3991L23.7082 85.4165L23.6943 85.4245L21.0332 86.9609L1.66655 53.1763Z" fill="url(#paint22_linear_76_565)"/>
<path id="Vector_26" d="M19.1092 79.9868L28.5983 74.5083C28.492 79.7802 26.693 83.6927 23.7379 85.3981L23.7383 85.3989L23.7082 85.4163L23.6944 85.4243L21.0332 86.9606L19.328 83.9858L19.1092 79.9868Z" fill="url(#paint23_linear_76_565)"/>
<path id="Vector_27" d="M2.21675 53.0651L12.349 54.2565C12.8812 54.319 13.4593 54.653 13.9915 55.2047L24.1238 65.7131C24.7818 66.3956 25.2234 67.4762 25.2234 68.4042V76.0139C25.2234 83.1137 22.2205 87.8729 17.4624 88.3135L14.1697 88.6184C13.541 88.6766 12.7999 88.2487 12.1712 87.4645L8.87847 83.3575C4.12046 77.4227 1.11752 69.1961 1.11752 62.0963V54.4866C1.11713 53.5586 1.55874 52.9877 2.21675 53.0651Z" fill="url(#paint24_linear_76_565)"/>
<path id="Vector_28" d="M13.1704 56.7638C13.075 56.7087 12.9811 56.6755 12.8911 56.6649L2.77973 55.4761V63.0563C2.77973 66.1288 3.41899 69.5042 4.62856 72.8175C5.83813 76.131 7.56567 79.2397 9.62466 81.8079L12.9174 85.9149C12.9956 86.0124 13.0829 86.0905 13.1704 86.1409C13.2577 86.1913 13.3452 86.2142 13.4231 86.2069L16.7159 85.9021C18.7748 85.7114 20.5026 84.5974 21.712 82.6806C22.9215 80.7638 23.5608 78.1267 23.5608 75.0542V67.4739L13.4495 56.9874C13.3596 56.894 13.2657 56.8189 13.1704 56.7638Z" fill="url(#paint25_linear_76_565)"/>
<path id="Vector_29" d="M13.8949 73.4404L18.9863 73.6492V76.0482L18.9818 76.0514C19.007 76.7141 18.8359 77.2746 18.4645 77.5555L15.1543 80.0578C14.8066 80.3207 14.3506 80.2894 13.8947 80.0264C13.4389 79.7631 12.983 79.2682 12.6352 78.6035L13.8949 73.4404Z" fill="url(#paint26_linear_76_565)"/>
<path id="Vector_30" d="M6.9262 61.8081C7.62171 61.3169 8.74944 61.9333 9.44514 63.2624L13.7698 71.5251L14.2731 71.1788L16.0301 70.1573L16.0305 70.1608C16.7301 69.7435 17.7963 70.3915 18.4647 71.6685C19.1604 72.9976 19.1604 74.5013 18.4647 75.0272L15.1545 77.5296C15.0911 77.5765 15.0216 77.6147 14.9481 77.6433L14.9496 77.6462L13.1844 78.6743L5.28381 62.761C5.28342 62.761 6.92092 61.8118 6.9262 61.8081Z" fill="url(#paint27_linear_76_565)"/>
<path id="Vector_31" d="M16.599 76.1038L18.4666 75.0256L18.4644 75.0276L15.1542 77.5299C15.0908 77.5769 15.0214 77.6151 14.9478 77.6436L14.9494 77.6465L13.1841 78.6747L13.098 78.5012L16.599 76.1038Z" fill="url(#paint28_linear_76_565)"/>
<path id="Vector_32" d="M6.92622 61.8081C7.62173 61.3169 8.74946 61.9333 9.44517 63.2624L13.7698 71.5251L12.0295 72.8405L5.28364 62.761C5.28345 62.761 6.92095 61.8118 6.92622 61.8081Z" fill="url(#paint29_linear_76_565)"/>
<path id="Vector_33" d="M12.0295 78.5745C12.4853 78.8377 12.9412 78.869 13.289 78.6061L16.5992 76.1038C17.2949 75.5778 17.2949 74.0741 16.5992 72.745C15.9037 71.4159 14.7758 70.7647 14.0802 71.2905L12.0297 72.8407L7.57985 64.3387C6.88415 63.0096 5.75642 62.3584 5.06091 62.8844C4.3654 63.4104 4.3654 64.9141 5.06091 66.2432L10.7701 77.1516C11.1177 77.8163 11.5736 78.3112 12.0295 78.5745Z" fill="url(#paint30_linear_76_565)"/>
</g>
</g>
<defs>
<linearGradient id="paint0_linear_76_565" x1="51.5342" y1="4.95142" x2="13.8416" y2="4.95142" gradientUnits="userSpaceOnUse">
<stop stop-color="#DFDAEF"/>
<stop offset="1" stop-color="white"/>
</linearGradient>
<linearGradient id="paint1_linear_76_565" x1="56.9778" y1="35.2786" x2="13.8416" y2="35.2786" gradientUnits="userSpaceOnUse">
<stop stop-color="#DFDAEF"/>
<stop offset="1" stop-color="white"/>
</linearGradient>
<linearGradient id="paint2_linear_76_565" x1="75.8241" y1="103.187" x2="75.8241" y2="33.4054" gradientUnits="userSpaceOnUse">
<stop stop-color="#C5BAEB"/>
<stop offset="1" stop-color="white"/>
</linearGradient>
<linearGradient id="paint3_linear_76_565" x1="94.6704" y1="27.0415" x2="72.4897" y2="27.0415" gradientUnits="userSpaceOnUse">
<stop stop-color="#7662BD"/>
<stop offset="1" stop-color="#7662BD" stop-opacity="0"/>
</linearGradient>
<linearGradient id="paint4_linear_76_565" x1="59.5652" y1="34.1997" x2="13.8415" y2="34.1997" gradientUnits="userSpaceOnUse">
<stop stop-color="#7662BD"/>
<stop offset="1" stop-color="#7662BD" stop-opacity="0"/>
</linearGradient>
<linearGradient id="paint5_linear_76_565" x1="62.263" y1="48.2068" x2="54.1109" y2="48.2068" gradientUnits="userSpaceOnUse">
<stop stop-color="#8B451C"/>
<stop offset="0.285" stop-color="#93491E"/>
<stop offset="0.73" stop-color="#A95422"/>
<stop offset="1" stop-color="#BA5C25"/>
</linearGradient>
<linearGradient id="paint6_linear_76_565" x1="79.8333" y1="0" x2="10.511" y2="0" gradientUnits="userSpaceOnUse">
<stop stop-color="#CC8241"/>
<stop offset="1" stop-color="#DEA861"/>
</linearGradient>
<linearGradient id="paint7_linear_76_565" x1="61.6726" y1="23.323" x2="69.463" y2="9.82969" gradientUnits="userSpaceOnUse">
<stop stop-color="#CC8241"/>
<stop offset="0.332" stop-color="#D08A48"/>
<stop offset="0.85" stop-color="#DAA05A"/>
<stop offset="1" stop-color="#DEA861"/>
</linearGradient>
<linearGradient id="paint8_linear_76_565" x1="36.1028" y1="12.2144" x2="20.7969" y2="12.2144" gradientUnits="userSpaceOnUse">
<stop stop-color="#DFDAEF"/>
<stop offset="1" stop-color="white"/>
</linearGradient>
<linearGradient id="paint9_linear_76_565" x1="37.335" y1="9.03931" x2="19.5647" y2="9.03931" gradientUnits="userSpaceOnUse">
<stop stop-color="#CC8241"/>
<stop offset="1" stop-color="#DEA861"/>
</linearGradient>
<linearGradient id="paint10_linear_76_565" x1="27.3635" y1="9.4814" x2="30.4568" y2="9.4814" gradientUnits="userSpaceOnUse">
<stop stop-color="#8B451C"/>
<stop offset="0.499" stop-color="#A55121"/>
<stop offset="1" stop-color="#BA5C25"/>
</linearGradient>
<linearGradient id="paint11_linear_76_565" x1="49.8523" y1="48.595" x2="18.9298" y2="48.595" gradientUnits="userSpaceOnUse">
<stop stop-color="#BA5C25"/>
<stop offset="1" stop-color="#EBCBA0"/>
</linearGradient>
<linearGradient id="paint12_linear_76_565" x1="47.6344" y1="49.8853" x2="18.4793" y2="49.8853" gradientUnits="userSpaceOnUse">
<stop stop-color="#CC8241"/>
<stop offset="1" stop-color="#DEA861"/>
</linearGradient>
<linearGradient id="paint13_linear_76_565" x1="45.6949" y1="52.5894" x2="20.4188" y2="52.5894" gradientUnits="userSpaceOnUse">
<stop stop-color="#0072BC"/>
<stop offset="0.188" stop-color="#1781CB"/>
<stop offset="0.536" stop-color="#3B98E4"/>
<stop offset="0.819" stop-color="#51A7F3"/>
<stop offset="1" stop-color="#59ACF9"/>
</linearGradient>
<linearGradient id="paint14_linear_76_565" x1="45.6949" y1="57.7913" x2="29.4406" y2="57.7913" gradientUnits="userSpaceOnUse">
<stop offset="0.032" stop-color="white"/>
<stop offset="1" stop-color="white" stop-opacity="0"/>
</linearGradient>
<linearGradient id="paint15_linear_76_565" x1="45.6951" y1="52.5894" x2="20.4189" y2="52.5894" gradientUnits="userSpaceOnUse">
<stop stop-color="#BA5C25"/>
<stop offset="1" stop-color="#EBCBA0"/>
</linearGradient>
<linearGradient id="paint16_linear_76_565" x1="86.9922" y1="51.7185" x2="66.0291" y2="51.7185" gradientUnits="userSpaceOnUse">
<stop stop-color="#BA5C25"/>
<stop offset="1" stop-color="#EBCBA0"/>
</linearGradient>
<linearGradient id="paint17_linear_76_565" x1="87.4426" y1="53.0085" x2="68.2471" y2="53.0085" gradientUnits="userSpaceOnUse">
<stop stop-color="#CC8241"/>
<stop offset="1" stop-color="#DEA861"/>
</linearGradient>
<linearGradient id="paint18_linear_76_565" x1="85.5032" y1="55.7124" x2="70.1866" y2="55.7124" gradientUnits="userSpaceOnUse">
<stop stop-color="#0072BC"/>
<stop offset="0.188" stop-color="#1781CB"/>
<stop offset="0.536" stop-color="#3B98E4"/>
<stop offset="0.819" stop-color="#51A7F3"/>
<stop offset="1" stop-color="#59ACF9"/>
</linearGradient>
<linearGradient id="paint19_linear_76_565" x1="80.4712" y1="58.5847" x2="70.1864" y2="58.5847" gradientUnits="userSpaceOnUse">
<stop offset="0.032" stop-color="white"/>
<stop offset="1" stop-color="white" stop-opacity="0"/>
</linearGradient>
<linearGradient id="paint20_linear_76_565" x1="85.5032" y1="55.7124" x2="70.1866" y2="55.7124" gradientUnits="userSpaceOnUse">
<stop stop-color="#BA5C25"/>
<stop offset="1" stop-color="#EBCBA0"/>
</linearGradient>
<linearGradient id="paint21_linear_76_565" x1="23.6662" y1="91.2415" x2="23.6662" y2="53.6165" gradientUnits="userSpaceOnUse">
<stop offset="0.032" stop-color="#43386B"/>
<stop offset="1" stop-color="#43386B" stop-opacity="0"/>
</linearGradient>
<linearGradient id="paint22_linear_76_565" x1="21.688" y1="70.7622" x2="9.07319" y2="48.9126" gradientUnits="userSpaceOnUse">
<stop offset="0.032" stop-color="#A996EB"/>
<stop offset="0.065" stop-color="#B3A3ED"/>
<stop offset="0.141" stop-color="#C7BBF0"/>
<stop offset="0.229" stop-color="#D6CEF3"/>
<stop offset="0.331" stop-color="#E1DBF5"/>
<stop offset="0.461" stop-color="#E7E3F6"/>
<stop offset="0.719" stop-color="#E9E5F6"/>
<stop offset="0.763" stop-color="#DFDAF0"/>
<stop offset="0.825" stop-color="#D9D3EC"/>
<stop offset="1" stop-color="#D7D1EB"/>
</linearGradient>
<linearGradient id="paint23_linear_76_565" x1="28.5983" y1="74.5083" x2="19.1092" y2="74.5083" gradientUnits="userSpaceOnUse">
<stop offset="0.032" stop-color="#7662BD"/>
<stop offset="1" stop-color="#7662BD" stop-opacity="0"/>
</linearGradient>
<linearGradient id="paint24_linear_76_565" x1="25.2234" y1="53.0581" x2="1.11752" y2="53.0581" gradientUnits="userSpaceOnUse">
<stop stop-color="#DFDAEF"/>
<stop offset="1" stop-color="white"/>
</linearGradient>
<linearGradient id="paint25_linear_76_565" x1="13.1704" y1="91.6843" x2="13.1704" y2="63.2714" gradientUnits="userSpaceOnUse">
<stop stop-color="#2F878A"/>
<stop offset="1" stop-color="#06DAAE"/>
</linearGradient>
<linearGradient id="paint26_linear_76_565" x1="15.8107" y1="70.8367" x2="15.8107" y2="81.441" gradientUnits="userSpaceOnUse">
<stop offset="0.032" stop-color="#1A4C4E"/>
<stop offset="1" stop-color="#1A4C4E" stop-opacity="0"/>
</linearGradient>
<linearGradient id="paint27_linear_76_565" x1="18.9865" y1="61.6401" x2="5.28381" y2="61.6401" gradientUnits="userSpaceOnUse">
<stop offset="0.032" stop-color="#A996EB"/>
<stop offset="0.682" stop-color="#D7CFF3"/>
<stop offset="1" stop-color="#E9E5F6"/>
</linearGradient>
<linearGradient id="paint28_linear_76_565" x1="18.4666" y1="75.0256" x2="13.098" y2="75.0256" gradientUnits="userSpaceOnUse">
<stop offset="0.032" stop-color="#7662BD"/>
<stop offset="1" stop-color="#7662BD" stop-opacity="0"/>
</linearGradient>
<linearGradient id="paint29_linear_76_565" x1="13.7698" y1="61.6401" x2="5.28364" y2="61.6401" gradientUnits="userSpaceOnUse">
<stop offset="0.032" stop-color="#A996EB"/>
<stop offset="0.682" stop-color="#D7CFF3"/>
<stop offset="1" stop-color="#E9E5F6"/>
</linearGradient>
<linearGradient id="paint30_linear_76_565" x1="17.121" y1="62.7021" x2="4.53928" y2="62.7021" gradientUnits="userSpaceOnUse">
<stop stop-color="#DFDAEF"/>
<stop offset="1" stop-color="white"/>
</linearGradient>
</defs>
</svg>
