<svg width="67" height="76" viewBox="0 0 67 76" fill="none" xmlns="http://www.w3.org/2000/svg">
<g filter="url(#filter0_d_79_733)">
<mask id="path-1-outside-1_79_733" maskUnits="userSpaceOnUse" x="15" y="11" width="37" height="46" fill="black">
<rect fill="white" x="15" y="11" width="37" height="46"/>
<path fill-rule="evenodd" clip-rule="evenodd" d="M33.5 14C24.9486 14 18 20.9323 18 29.4837C18 36.2661 22.371 42.0299 28.4459 44.1245C30.3929 44.7958 31.9857 46.4655 31.9857 48.5251V52.4872C31.9857 53.3225 32.6629 53.9997 33.4983 53.9997C34.3337 53.9997 35.0109 53.3225 35.0109 52.4872V48.5262C35.0109 46.4663 36.6042 44.7964 38.5517 44.1253C44.6279 42.0315 49 36.267 49 29.4837C49 20.9323 42.0514 14 33.5 14Z"/>
</mask>
<path fill-rule="evenodd" clip-rule="evenodd" d="M33.5 14C24.9486 14 18 20.9323 18 29.4837C18 36.2661 22.371 42.0299 28.4459 44.1245C30.3929 44.7958 31.9857 46.4655 31.9857 48.5251V52.4872C31.9857 53.3225 32.6629 53.9997 33.4983 53.9997C34.3337 53.9997 35.0109 53.3225 35.0109 52.4872V48.5262C35.0109 46.4663 36.6042 44.7964 38.5517 44.1253C44.6279 42.0315 49 36.267 49 29.4837C49 20.9323 42.0514 14 33.5 14Z" fill="#35BAA2"/>
<path d="M38.5517 44.1253L37.5743 41.289L38.5517 44.1253ZM21 29.4837C21 22.5933 26.6013 17 33.5 17V11C23.2958 11 15 19.2714 15 29.4837H21ZM29.4237 41.2883C24.5183 39.597 21 34.9438 21 29.4837H15C15 37.5884 20.2236 44.4628 27.468 46.9606L29.4237 41.2883ZM34.9857 52.4872V48.5251H28.9857V52.4872H34.9857ZM32.0109 48.5262V52.4872H38.0109V48.5262H32.0109ZM46 29.4837C46 34.9445 42.4807 39.5982 37.5743 41.289L39.5291 46.9616C46.775 44.4647 52 37.5895 52 29.4837H46ZM33.5 17C40.3987 17 46 22.5933 46 29.4837H52C52 19.2714 43.7042 11 33.5 11V17ZM38.0109 48.5262C38.0109 48.3047 38.0896 48.0403 38.3417 47.7422C38.6063 47.4292 39.023 47.136 39.5291 46.9616L37.5743 41.289C34.8216 42.2376 32.0109 44.8047 32.0109 48.5262H38.0109ZM33.4983 56.9997C35.9906 56.9997 38.0109 54.9794 38.0109 52.4872H32.0109C32.0109 51.6657 32.6768 50.9997 33.4983 50.9997V56.9997ZM28.9857 52.4872C28.9857 54.9794 31.0061 56.9997 33.4983 56.9997V50.9997C34.3198 50.9997 34.9857 51.6657 34.9857 52.4872H28.9857ZM27.468 46.9606C27.9739 47.135 28.3905 47.4283 28.6551 47.7412C28.9071 48.0392 28.9857 48.3036 28.9857 48.5251H34.9857C34.9857 44.8042 32.1759 42.2372 29.4237 41.2883L27.468 46.9606Z" fill="white" mask="url(#path-1-outside-1_79_733)"/>
</g>
<path fill-rule="evenodd" clip-rule="evenodd" d="M27.3671 36V26.7662L31.2732 24.8571V36H41.8368V30.4286L35.9573 27.1558V24.8571L41.875 28.013V25.3247L33.4757 21L25 25.3247V36H27.3671ZM35.8427 29.4156V33.8572H40.1951V31.8312L35.8427 29.4156Z" fill="white"/>
<g clip-path="url(#clip0_79_733)">
<path fill-rule="evenodd" clip-rule="evenodd" d="M27.367 36V26.7662L30.784 24.8571V36H41.8367V30.4286L35.9572 27.1558V24.8571L41.8749 28.013V25.3247L33.4755 21L24.9999 25.3247V36H27.367ZM35.8426 29.4156V33.8572H40.195V31.8312L35.8426 29.4156Z" fill="url(#paint0_linear_79_733)"/>
</g>
<defs>
<filter id="filter0_d_79_733" x="0" y="0" width="67" height="76" filterUnits="userSpaceOnUse" color-interpolation-filters="sRGB">
<feFlood flood-opacity="0" result="BackgroundImageFix"/>
<feColorMatrix in="SourceAlpha" type="matrix" values="0 0 0 0 0 0 0 0 0 0 0 0 0 0 0 0 0 0 127 0" result="hardAlpha"/>
<feOffset dy="4"/>
<feGaussianBlur stdDeviation="7.5"/>
<feComposite in2="hardAlpha" operator="out"/>
<feColorMatrix type="matrix" values="0 0 0 0 0.0315199 0 0 0 0 0.12055 0 0 0 0 0.298611 0 0 0 0.3 0"/>
<feBlend mode="normal" in2="BackgroundImageFix" result="effect1_dropShadow_79_733"/>
<feBlend mode="normal" in="SourceGraphic" in2="effect1_dropShadow_79_733" result="shape"/>
</filter>
<linearGradient id="paint0_linear_79_733" x1="33.4374" y1="21" x2="45.7349" y2="33.7199" gradientUnits="userSpaceOnUse">
<stop stop-color="white"/>
<stop offset="1" stop-color="white" stop-opacity="0"/>
</linearGradient>
<clipPath id="clip0_79_733">
<rect width="8.03572" height="15" fill="white" transform="translate(33.8391 21)"/>
</clipPath>
</defs>
</svg>
