<svg width="20" height="20" viewBox="0 0 20 20" fill="none" xmlns="http://www.w3.org/2000/svg">
<g clip-path="url(#clip0_915_10)">
<mask id="mask0_915_10" style="mask-type:luminance" maskUnits="userSpaceOnUse" x="0" y="0" width="20" height="20">
<path d="M20 0H0V20H20V0Z" fill="white"/>
</mask>
<g mask="url(#mask0_915_10)">
<path d="M17.1743 13.4156L13.1818 11.713C12.9758 11.6207 12.7497 11.5825 12.5248 11.6018C12.2999 11.6212 12.0836 11.6975 11.8964 11.8237L9.75969 13.2454C8.4574 12.6128 7.40304 11.5645 6.76315 10.2659L8.17628 8.10363C8.30162 7.91624 8.37817 7.70051 8.39899 7.47604C8.4198 7.25156 8.38421 7.02544 8.29545 6.8182L6.58438 2.82568C6.46498 2.55609 6.26282 2.33154 6.00719 2.18459C5.75158 2.03766 5.45579 1.97596 5.16275 2.00845C4.01318 2.15904 2.9574 2.72197 2.19172 3.59256C1.42605 4.46315 1.00256 5.58218 1 6.74158C1 13.5008 6.49926 19 13.2584 19C14.4178 18.9975 15.5368 18.5739 16.4075 17.8084C17.278 17.0427 17.8409 15.9868 17.9916 14.8372C18.024 14.5442 17.9623 14.2484 17.8154 13.9928C17.6684 13.7372 17.4439 13.535 17.1743 13.4156Z" fill="white"/>
<path d="M11.9997 8.93436C11.4224 8.93417 10.9651 8.44647 11.0021 7.87031L11.3129 3.02831C11.369 2.15449 12.4415 1.76963 13.0404 2.4084L17.5815 7.25207C18.1804 7.89085 17.7273 8.93633 16.8517 8.93603L11.9997 8.93436Z" fill="white"/>
<path d="M13.5554 4.41984L15.6073 6.6084L19.2549 3.18859L17.203 1.00004L13.5554 4.41984Z" fill="white"/>
</g>
</g>
<defs>
<clipPath id="clip0_915_10">
<rect width="20" height="20" fill="white"/>
</clipPath>
</defs>
</svg>
