<svg width="40" height="40" viewBox="0 0 40 40" fill="none" xmlns="http://www.w3.org/2000/svg">
<g id="Stamp">
<path id="Vector" d="M35 35C35 35.3315 34.8683 35.6495 34.6339 35.8839C34.3995 36.1183 34.0815 36.25 33.75 36.25H6.25C5.91848 36.25 5.60054 36.1183 5.36612 35.8839C5.1317 35.6495 5 35.3315 5 35C5 34.6685 5.1317 34.3505 5.36612 34.1161C5.60054 33.8817 5.91848 33.75 6.25 33.75H33.75C34.0815 33.75 34.3995 33.8817 34.6339 34.1161C34.8683 34.3505 35 34.6685 35 35ZM35 22.5V28.75C35 29.413 34.7366 30.0489 34.2678 30.5178C33.7989 30.9866 33.163 31.25 32.5 31.25H7.5C6.83696 31.25 6.20107 30.9866 5.73223 30.5178C5.26339 30.0489 5 29.413 5 28.75V22.5C5 21.837 5.26339 21.2011 5.73223 20.7322C6.20107 20.2634 6.83696 20 7.5 20H15.9531L13.5 8.54688C13.3439 7.81781 13.3528 7.06305 13.5261 6.33788C13.6994 5.6127 14.0327 4.93546 14.5015 4.35574C14.9704 3.77602 15.563 3.3085 16.2359 2.98741C16.9088 2.66632 17.645 2.49978 18.3906 2.5H21.6094C22.355 2.49978 23.0912 2.66632 23.7641 2.98741C24.437 3.3085 25.0296 3.77602 25.4984 4.35574C25.9673 4.93546 26.3006 5.6127 26.4739 6.33788C26.6472 7.06305 26.6561 7.81781 26.5 8.54688L24.0469 20H32.5C33.163 20 33.7989 20.2634 34.2678 20.7322C34.7366 21.2011 35 21.837 35 22.5Z" fill="url(#paint0_linear_58_271)"/>
</g>
<defs>
<linearGradient id="paint0_linear_58_271" x1="32.4615" y1="34.3201" x2="-15.1362" y2="-10.1534" gradientUnits="userSpaceOnUse">
<stop stop-color="#089F84"/>
<stop offset="1" stop-color="#089F84" stop-opacity="0"/>
</linearGradient>
</defs>
</svg>
