<svg width="20" height="20" viewBox="0 0 20 20" fill="none" xmlns="http://www.w3.org/2000/svg">
<path d="M10 1.875C8.58892 1.87489 7.20213 2.24229 5.97617 2.94101C4.75022 3.63973 3.72737 4.64569 3.00834 5.85985C2.28931 7.074 1.89888 8.45448 1.87551 9.86538C1.85213 11.2763 2.1966 12.6689 2.87501 13.9062L2.21094 16.25C2.149 16.4636 2.14551 16.6899 2.20086 16.9052C2.25621 17.1206 2.36836 17.3172 2.5256 17.4744C2.68284 17.6316 2.87941 17.7438 3.09478 17.7991C3.31015 17.8545 3.53644 17.851 3.75001 17.7891L6.09376 17.125C7.17992 17.7203 8.38781 18.0594 9.6251 18.1164C10.8624 18.1734 12.0963 17.9467 13.2326 17.4538C14.3689 16.9608 15.3774 16.2146 16.1811 15.2721C16.9848 14.3297 17.5624 13.216 17.8698 12.0161C18.1771 10.8162 18.2061 9.56199 17.9544 8.34922C17.7028 7.13645 17.1772 5.99727 16.4178 5.01874C15.6585 4.04022 14.6854 3.24825 13.5731 2.70339C12.4608 2.15852 11.2386 1.87517 10 1.875ZM11.8828 15H11.875C10.0509 14.9979 8.30226 14.2719 7.01317 12.9813C5.72408 11.6908 5.00001 9.94127 5.00001 8.11719C5.00208 7.37262 5.2993 6.65926 5.82653 6.1335C6.35375 5.60774 7.06794 5.3125 7.81251 5.3125C8.01718 5.31295 8.21811 5.36735 8.39505 5.47022C8.57198 5.57309 8.71867 5.72079 8.82032 5.89844L9.73438 7.5C9.84477 7.69181 9.90156 7.90976 9.89881 8.13105C9.89606 8.35233 9.83387 8.56881 9.71876 8.75781L9.16407 9.6875C9.44297 10.1618 9.83825 10.557 10.3125 10.8359L11.2422 10.2812C11.4312 10.1661 11.6477 10.1039 11.869 10.1012C12.0902 10.0984 12.3082 10.1552 12.5 10.2656L14.1016 11.1797C14.2792 11.2813 14.4269 11.428 14.5298 11.605C14.6327 11.7819 14.6871 11.9828 14.6875 12.1875C14.6875 12.9321 14.3923 13.6463 13.8665 14.1735C13.3408 14.7007 12.6274 14.9979 11.8828 15Z" fill="#35BAA2"/>
<path d="M10.6641 12.0859C10.5771 12.1368 10.4793 12.1661 10.3788 12.1716C10.2782 12.177 10.1778 12.1584 10.0859 12.1172C9.10354 11.6818 8.31824 10.8965 7.88282 9.91406C7.84165 9.82216 7.82301 9.72177 7.82845 9.62122C7.83388 9.52067 7.86324 9.42286 7.91407 9.33594L8.64844 8.11719L7.76563 6.5625C7.36011 6.57269 6.97463 6.74098 6.69147 7.03144C6.4083 7.3219 6.24988 7.71154 6.25001 8.11719C6.24898 8.85653 6.39372 9.58882 6.67594 10.2722C6.95816 10.9555 7.37233 11.5766 7.89477 12.0997C8.4172 12.6229 9.03764 13.0379 9.7206 13.3211C10.4036 13.6042 11.1357 13.75 11.875 13.75H11.8828C12.2885 13.7501 12.6781 13.5917 12.9686 13.3085C13.259 13.0254 13.4273 12.6399 13.4375 12.2344L11.8828 11.3516L10.6641 12.0859Z" fill="#35BAA2"/>
</svg>
