<svg width="40" height="40" viewBox="0 0 40 40" fill="none" xmlns="http://www.w3.org/2000/svg">
<g id="IdentificationCard">
<path id="Vector" d="M33.75 6.25H6.25C5.58696 6.25 4.95107 6.51339 4.48223 6.98223C4.01339 7.45107 3.75 8.08696 3.75 8.75V31.25C3.75 31.913 4.01339 32.5489 4.48223 33.0178C4.95107 33.4866 5.58696 33.75 6.25 33.75H33.75C34.413 33.75 35.0489 33.4866 35.5178 33.0178C35.9866 32.5489 36.25 31.913 36.25 31.25V8.75C36.25 8.08696 35.9866 7.45107 35.5178 6.98223C35.0489 6.51339 34.413 6.25 33.75 6.25ZM19.5469 27.4531C19.3878 27.4955 19.222 27.5061 19.0589 27.4843C18.8957 27.4625 18.7385 27.4086 18.5963 27.3259C18.454 27.2431 18.3295 27.1331 18.2298 27.0021C18.1302 26.8711 18.0574 26.7217 18.0156 26.5625C17.8038 25.7627 17.3334 25.0555 16.6778 24.5509C16.0221 24.0463 15.218 23.7726 14.3906 23.7726C13.5633 23.7726 12.7591 24.0463 12.1035 24.5509C11.4478 25.0555 10.9775 25.7627 10.7656 26.5625C10.6936 26.8309 10.5352 27.0681 10.3149 27.2375C10.0947 27.407 9.82477 27.4992 9.54688 27.5L9.23438 27.4531C9.07578 27.4131 8.92671 27.342 8.79584 27.2439C8.66497 27.1458 8.5549 27.0226 8.47203 26.8816C8.38916 26.7406 8.33515 26.5845 8.31313 26.4224C8.29111 26.2604 8.30152 26.0955 8.34375 25.9375C8.72426 24.4599 9.62957 23.1714 10.8906 22.3125C10.1814 21.6173 9.69521 20.7266 9.49415 19.754C9.2931 18.7814 9.38624 17.7709 9.76172 16.8515C10.1372 15.932 10.778 15.1452 11.6024 14.5914C12.4268 14.0376 13.3975 13.7418 14.3906 13.7418C15.3838 13.7418 16.3545 14.0376 17.1789 14.5914C18.0033 15.1452 18.6441 15.932 19.0195 16.8515C19.395 17.7709 19.4882 18.7814 19.2871 19.754C19.086 20.7266 18.5999 21.6173 17.8906 22.3125C19.1517 23.1714 20.057 24.4599 20.4375 25.9375C20.4797 26.0955 20.4901 26.2604 20.4681 26.4224C20.4461 26.5845 20.3921 26.7406 20.3092 26.8816C20.2263 27.0226 20.1163 27.1458 19.9854 27.2439C19.8545 27.342 19.7055 27.4131 19.5469 27.4531ZM30 23.75H23.75C23.4185 23.75 23.1005 23.6183 22.8661 23.3839C22.6317 23.1495 22.5 22.8315 22.5 22.5C22.5 22.1685 22.6317 21.8505 22.8661 21.6161C23.1005 21.3817 23.4185 21.25 23.75 21.25H30C30.3315 21.25 30.6495 21.3817 30.8839 21.6161C31.1183 21.8505 31.25 22.1685 31.25 22.5C31.25 22.8315 31.1183 23.1495 30.8839 23.3839C30.6495 23.6183 30.3315 23.75 30 23.75ZM30 18.75H23.75C23.4185 18.75 23.1005 18.6183 22.8661 18.3839C22.6317 18.1495 22.5 17.8315 22.5 17.5C22.5 17.1685 22.6317 16.8505 22.8661 16.6161C23.1005 16.3817 23.4185 16.25 23.75 16.25H30C30.3315 16.25 30.6495 16.3817 30.8839 16.6161C31.1183 16.8505 31.25 17.1685 31.25 17.5C31.25 17.8315 31.1183 18.1495 30.8839 18.3839C30.6495 18.6183 30.3315 18.75 30 18.75Z" fill="url(#paint0_linear_58_280)"/>
<path id="Vector_2" d="M14.3906 21.25C15.7713 21.25 16.8906 20.1307 16.8906 18.75C16.8906 17.3693 15.7713 16.25 14.3906 16.25C13.0099 16.25 11.8906 17.3693 11.8906 18.75C11.8906 20.1307 13.0099 21.25 14.3906 21.25Z" fill="url(#paint1_linear_58_280)"/>
</g>
<defs>
<linearGradient id="paint0_linear_58_280" x1="33.5" y1="32.1775" x2="-4.47555" y2="-14.9987" gradientUnits="userSpaceOnUse">
<stop stop-color="#089F84"/>
<stop offset="1" stop-color="#089F84" stop-opacity="0"/>
</linearGradient>
<linearGradient id="paint1_linear_58_280" x1="16.4675" y1="20.9641" x2="9.40857" y2="13.544" gradientUnits="userSpaceOnUse">
<stop stop-color="#089F84"/>
<stop offset="1" stop-color="#089F84" stop-opacity="0"/>
</linearGradient>
</defs>
</svg>
