<svg width="40" height="40" viewBox="0 0 40 40" fill="none" xmlns="http://www.w3.org/2000/svg">
<path d="M33.75 11.25H28.2812C29.0686 10.2558 29.4487 8.99947 29.3445 7.73552C29.2404 6.47157 28.6599 5.29442 27.7205 4.4424C26.7811 3.59039 25.553 3.12718 24.2849 3.14658C23.0169 3.16598 21.8035 3.66653 20.8906 4.54688C20.5224 4.91965 20.2211 5.35307 20 5.82813C19.7789 5.35307 19.4776 4.91965 19.1094 4.54688C18.1965 3.66653 16.9831 3.16598 15.7151 3.14658C14.447 3.12718 13.2189 3.59039 12.2795 4.4424C11.3401 5.29442 10.7596 6.47157 10.6555 7.73552C10.5513 8.99947 10.9314 10.2558 11.7188 11.25H6.25C5.58696 11.25 4.95107 11.5134 4.48223 11.9822C4.01339 12.4511 3.75 13.087 3.75 13.75V18.75C3.75 19.413 4.01339 20.0489 4.48223 20.5178C4.95107 20.9866 5.58696 21.25 6.25 21.25V31.25C6.25 31.913 6.51339 32.5489 6.98223 33.0178C7.45107 33.4866 8.08696 33.75 8.75 33.75H31.25C31.913 33.75 32.5489 33.4866 33.0178 33.0178C33.4866 32.5489 33.75 31.913 33.75 31.25V21.25C34.413 21.25 35.0489 20.9866 35.5178 20.5178C35.9866 20.0489 36.25 19.413 36.25 18.75V13.75C36.25 13.087 35.9866 12.4511 35.5178 11.9822C35.0489 11.5134 34.413 11.25 33.75 11.25ZM22.6562 6.31251C22.8836 6.06154 23.1597 5.85939 23.4676 5.71833C23.7754 5.57726 24.1088 5.50023 24.4473 5.49189C24.7859 5.48356 25.1226 5.5441 25.4371 5.66984C25.7515 5.79558 26.0372 5.9839 26.2766 6.22337C26.5161 6.46284 26.7044 6.74847 26.8302 7.06293C26.9559 7.37738 27.0164 7.71411 27.0081 8.05267C26.9998 8.39123 26.9227 8.72457 26.7817 9.03246C26.6406 9.34034 26.4385 9.61636 26.1875 9.84376C25.4219 10.625 23.1875 11.0469 21.2969 11.2031C21.4531 9.31251 21.875 7.07813 22.6562 6.31251ZM13.8125 6.31251C14.2832 5.84875 14.9174 5.58879 15.5781 5.58879C16.2389 5.58879 16.8731 5.84875 17.3438 6.31251C18.125 7.07813 18.5469 9.31251 18.7031 11.2031C16.8125 11.0469 14.5781 10.625 13.8125 9.84376C13.3487 9.3731 13.0888 8.73888 13.0888 8.07813C13.0888 7.41738 13.3487 6.78316 13.8125 6.31251ZM33.75 18.75H21.25V30C21.25 30.3315 21.1183 30.6495 20.8839 30.8839C20.6495 31.1183 20.3315 31.25 20 31.25C19.6685 31.25 19.3505 31.1183 19.1161 30.8839C18.8817 30.6495 18.75 30.3315 18.75 30V18.75H6.25V13.75H18.75V18.75H21.25V13.75H33.75V18.75Z" fill="url(#paint0_linear_58_263)"/>
<defs>
<linearGradient id="paint0_linear_58_263" x1="33.5" y1="32" x2="-9.5" y2="-16" gradientUnits="userSpaceOnUse">
<stop stop-color="#089F84"/>
<stop offset="1" stop-color="#089F84" stop-opacity="0"/>
</linearGradient>
</defs>
</svg>
