<svg width="76" height="51" viewBox="0 0 76 51" fill="none" xmlns="http://www.w3.org/2000/svg">
<path fill-rule="evenodd" clip-rule="evenodd" d="M18.0923 51V20.1239L31.0242 13.7403V51H65.997V32.3702L46.5318 21.4267V13.7403L66.1234 24.2929V15.3037L38.3159 0.842743L10.2556 15.3037V51H18.0923ZM46.1524 28.9829V43.8347H60.5618V37.0602L46.1524 28.9829Z" fill="#35BAA2" fill-opacity="0.5"/>
<g clip-path="url(#clip0_375_2087)">
<path fill-rule="evenodd" clip-rule="evenodd" d="M18.0923 51V20.1239L29.4049 13.7403V51H65.997V32.3702L46.5318 21.4267V13.7403L66.1234 24.2929V15.3037L38.3159 0.842743L10.2556 15.3037V51H18.0923ZM46.1524 28.9829V43.8347H60.5618V37.0602L46.1524 28.9829Z" fill="url(#paint0_linear_375_2087)" fill-opacity="0.5"/>
</g>
<path d="M10.2485 37.6931H4.01534V50.762H0V34.0986H14.2638V50.762H10.2485V37.6931Z" fill="#071E4B"/>
<path d="M28.1187 39.8118V50.762H24.7337V43.073H20.765V46.9532C20.765 47.8102 20.6094 48.5243 20.2981 49.0956C19.9868 49.6511 19.4577 50.0716 18.7107 50.3573C17.9792 50.6271 16.9676 50.762 15.6758 50.762V47.5483C16.1427 47.5483 16.5396 47.461 16.8664 47.2865C17.2088 47.096 17.38 46.6913 17.38 46.0724V39.8118H28.1187Z" fill="#071E4B"/>
<path d="M33.3957 47.5007C33.3957 47.7546 33.4658 47.9689 33.6059 48.1434C33.7459 48.3021 33.9327 48.4291 34.1661 48.5243C34.4151 48.6037 34.6719 48.6433 34.9365 48.6433C35.3723 48.6433 35.7692 48.5719 36.1271 48.4291C36.5006 48.2863 36.7963 48.0482 37.0142 47.7149C37.2321 47.3817 37.3411 46.9215 37.3411 46.3343L37.7146 47.6673C37.7146 48.3656 37.5356 48.9687 37.1776 49.4765C36.8352 49.9685 36.3606 50.3493 35.7536 50.6191C35.1622 50.8731 34.493 51 33.7459 51C32.9989 51 32.3297 50.8731 31.7383 50.6191C31.1468 50.3493 30.6799 49.9685 30.3376 49.4765C30.0107 48.9687 29.8473 48.3577 29.8473 47.6435C29.8473 46.9135 30.0341 46.2867 30.4076 45.763C30.7967 45.2393 31.3414 44.8346 32.0417 44.5489C32.7421 44.2633 33.5592 44.1204 34.493 44.1204C35.0377 44.1204 35.5513 44.1839 36.0337 44.3109C36.5318 44.422 36.9597 44.5727 37.3177 44.7632C37.6912 44.9377 37.9558 45.1123 38.1114 45.2869V46.977C37.7068 46.6755 37.2866 46.4533 36.8508 46.3105C36.4306 46.1518 35.917 46.0724 35.31 46.0724C34.9054 46.0724 34.5552 46.1359 34.2595 46.2629C33.9794 46.3739 33.7615 46.5326 33.6059 46.739C33.4658 46.9453 33.3957 47.1992 33.3957 47.5007ZM32.0184 43.192L30.8278 40.7639C31.4348 40.4624 32.1585 40.1768 32.9989 39.907C33.8549 39.6372 34.7653 39.5023 35.7302 39.5023C36.6952 39.5023 37.5512 39.6451 38.2982 39.9308C39.0608 40.2006 39.6522 40.5973 40.0724 41.121C40.5082 41.6447 40.7261 42.2875 40.7261 43.0492V50.762H37.3411V43.7634C37.3411 43.3031 37.1699 42.9381 36.8275 42.6683C36.5006 42.3827 36.0415 42.2398 35.4501 42.2398C34.9365 42.2398 34.4463 42.2954 33.9794 42.4065C33.528 42.5176 33.1312 42.6525 32.7888 42.8112C32.4464 42.954 32.1896 43.0809 32.0184 43.192Z" fill="#071E4B"/>
<path d="M43.7596 46.3343V43.6443H52.444V46.3343H43.7596ZM50.8565 39.8118H54.2416V50.762H50.8565V39.8118ZM42.6624 39.8118H46.0708V50.762H42.6624V39.8118Z" fill="#071E4B"/>
<path d="M64.2108 43.6205V40.3831H70.4439C71.5022 40.3831 72.4438 40.6052 73.2686 41.0496C74.1091 41.4781 74.7705 42.0811 75.253 42.8588C75.751 43.6205 76 44.5172 76 45.5487C76 46.5644 75.751 47.469 75.253 48.2625C74.7705 49.0401 74.1091 49.6511 73.2686 50.0954C72.4438 50.5398 71.5022 50.762 70.4439 50.762H64.2108V47.4531H69.5801C70.0937 47.4531 70.5295 47.3896 70.8874 47.2627C71.2454 47.1198 71.5178 46.9056 71.7045 46.6199C71.8913 46.3343 71.9847 45.9772 71.9847 45.5487C71.9847 45.1044 71.8913 44.7473 71.7045 44.4775C71.5178 44.1918 71.2454 43.9776 70.8874 43.8348C70.5295 43.6919 70.0937 43.6205 69.5801 43.6205H64.2108ZM63.1136 34.0986H74.7627V37.4075H67.1289V50.762H63.1136V34.0986Z" fill="#071E4B"/>
<defs>
<linearGradient id="paint0_linear_375_2087" x1="38.1895" y1="0.842742" x2="79.322" y2="42.9665" gradientUnits="userSpaceOnUse">
<stop stop-color="#1652CB"/>
<stop offset="1" stop-color="#1652CB" stop-opacity="0"/>
</linearGradient>
<clipPath id="clip0_375_2087">
<rect width="27.8899" height="50" fill="white" transform="translate(38.3486 1)"/>
</clipPath>
</defs>
</svg>
