<svg width="40" height="40" viewBox="0 0 40 40" fill="none" xmlns="http://www.w3.org/2000/svg">
<path d="M10 21.875C10.0021 22.0397 9.97125 22.2032 9.90917 22.3558C9.8471 22.5084 9.7551 22.647 9.63861 22.7635C9.52212 22.88 9.38348 22.972 9.23088 23.0341C9.07827 23.0962 8.91478 23.1271 8.75005 23.125H1.87505C1.64283 23.1231 1.41549 23.0581 1.21733 22.937C1.01918 22.8159 0.85766 22.6433 0.75005 22.4375C0.649983 22.2279 0.608755 21.9951 0.630772 21.7639C0.652789 21.5327 0.737224 21.3119 0.87505 21.125C1.98128 19.64 3.45741 18.471 5.1563 17.7344C4.42629 17.0661 3.86541 16.2341 3.51981 15.3067C3.17422 14.3793 3.0538 13.3831 3.16846 12.4001C3.28312 11.4171 3.62959 10.4754 4.17934 9.65242C4.72909 8.82947 5.46642 8.14885 6.33063 7.66656C7.19484 7.18427 8.16123 6.9141 9.15026 6.8783C10.1393 6.84249 11.1227 7.04207 12.0195 7.46061C12.9163 7.87914 13.7009 8.50467 14.3088 9.28571C14.9166 10.0667 15.3302 10.981 15.5157 11.9531C15.5619 12.2063 15.5298 12.4676 15.4238 12.7021C15.3177 12.9366 15.1426 13.1332 14.9219 13.2656C12.901 14.464 11.364 16.3327 10.5782 18.5469C10.1908 19.6135 9.99506 20.7402 10 21.875ZM39.125 21.125C38.0188 19.64 36.5427 18.471 34.8438 17.7344C35.5738 17.0661 36.1347 16.2341 36.4803 15.3067C36.8259 14.3793 36.9463 13.3831 36.8316 12.4001C36.717 11.4171 36.3705 10.4754 35.8208 9.65242C35.271 8.82947 34.5337 8.14885 33.6695 7.66656C32.8053 7.18427 31.8389 6.9141 30.8498 6.8783C29.8608 6.84249 28.8774 7.04207 27.9806 7.46061C27.0838 7.87914 26.2992 8.50467 25.6913 9.28571C25.0835 10.0667 24.6699 10.981 24.4844 11.9531C24.4382 12.2063 24.4703 12.4676 24.5763 12.7021C24.6824 12.9366 24.8575 13.1332 25.0782 13.2656C27.1017 14.4609 28.6396 16.3307 29.4219 18.5469C29.8093 19.6135 30.005 20.7402 30 21.875C29.998 22.0397 30.0289 22.2032 30.0909 22.3558C30.153 22.5084 30.245 22.647 30.3615 22.7635C30.478 22.88 30.6166 22.972 30.7692 23.0341C30.9218 23.0962 31.0853 23.1271 31.25 23.125H38.125C38.3572 23.125 38.5847 23.0603 38.7822 22.9383C38.9797 22.8163 39.1393 22.6416 39.2431 22.434C39.3469 22.2264 39.3908 21.9939 39.37 21.7627C39.3492 21.5315 39.2643 21.3107 39.125 21.125ZM24.5625 27.8281C25.8066 26.8746 26.7206 25.5553 27.1762 24.0555C27.6318 22.5558 27.6061 20.951 27.1027 19.4666C26.5992 17.9822 25.6434 16.6929 24.3695 15.7797C23.0955 14.8666 21.5675 14.3755 20 14.3755C18.4326 14.3755 16.9046 14.8666 15.6306 15.7797C14.3567 16.6929 13.4009 17.9822 12.8974 19.4666C12.394 20.951 12.3683 22.5558 12.8239 24.0555C13.2795 25.5553 14.1935 26.8746 15.4376 27.8281C13.0071 28.9071 11.0367 30.8111 9.87505 33.2031C9.78262 33.3932 9.74122 33.6041 9.75492 33.815C9.76861 34.0259 9.83694 34.2297 9.95317 34.4062C10.0614 34.5873 10.2147 34.7373 10.3982 34.8413C10.5817 34.9454 10.7891 35.0001 11.0001 35H29.0001C29.211 35.0001 29.4184 34.9454 29.6019 34.8413C29.7854 34.7373 29.9387 34.5873 30.0469 34.4062C30.1632 34.2297 30.2315 34.0259 30.2452 33.815C30.2589 33.6041 30.2175 33.3932 30.125 33.2031C28.9634 30.8111 26.993 28.9071 24.5625 27.8281Z" fill="url(#paint0_linear_58_267)"/>
<defs>
<linearGradient id="paint0_linear_58_267" x1="36.0962" y1="33.3917" x2="-1.08231" y2="-20.4511" gradientUnits="userSpaceOnUse">
<stop stop-color="#089F84"/>
<stop offset="1" stop-color="#089F84" stop-opacity="0"/>
</linearGradient>
</defs>
</svg>
