<svg width="20" height="20" viewBox="0 0 20 20" fill="none" xmlns="http://www.w3.org/2000/svg">
<path d="M17.3438 12.3749L13.6797 10.8124C13.4906 10.7277 13.2831 10.6926 13.0767 10.7103C12.8703 10.7281 12.6718 10.7982 12.5 10.914L10.5391 12.2187C9.34394 11.6382 8.37631 10.6761 7.78906 9.48432L9.08594 7.49994C9.20097 7.32797 9.27123 7.12999 9.29033 6.92398C9.30943 6.71797 9.27677 6.51045 9.19531 6.32026L7.625 2.6562C7.51542 2.40878 7.32989 2.20271 7.09529 2.06785C6.8607 1.933 6.58925 1.87638 6.32031 1.9062C5.26531 2.0444 4.29638 2.56102 3.59369 3.35999C2.891 4.15896 2.50235 5.18593 2.5 6.24995C2.5 12.4531 7.54688 17.4999 13.75 17.4999C14.814 17.4976 15.841 17.1089 16.64 16.4063C17.4389 15.7036 17.9555 14.7346 18.0938 13.6796C18.1236 13.4107 18.0669 13.1392 17.9321 12.9046C17.7972 12.6701 17.5912 12.4845 17.3438 12.3749Z" fill="white"/>
<path d="M12.2969 3.72672C13.2483 3.98663 14.1154 4.4901 14.8128 5.18746C15.5101 5.88481 16.0136 6.75194 16.2735 7.70328C16.308 7.83685 16.3857 7.95526 16.4945 8.04004C16.6033 8.12483 16.7371 8.17124 16.8751 8.17203C16.9306 8.17193 16.9858 8.16404 17.0391 8.1486C17.1186 8.12781 17.1931 8.09137 17.2583 8.04143C17.3235 7.99148 17.378 7.92902 17.4188 7.85772C17.4595 7.78642 17.4856 7.7077 17.4956 7.62618C17.5055 7.54466 17.4991 7.46197 17.4766 7.38297C17.1642 6.21788 16.5506 5.15552 15.6977 4.30256C14.8447 3.4496 13.7823 2.83607 12.6173 2.5236C12.5357 2.4939 12.4489 2.4815 12.3623 2.48719C12.2758 2.49288 12.1913 2.51653 12.1144 2.55665C12.0374 2.59676 11.9697 2.65246 11.9155 2.72019C11.8612 2.78792 11.8217 2.8662 11.7994 2.95004C11.777 3.03389 11.7724 3.12147 11.7858 3.2072C11.7992 3.29293 11.8303 3.37494 11.8771 3.448C11.9239 3.52106 11.9854 3.58357 12.0577 3.63156C12.13 3.67954 12.2114 3.71195 12.2969 3.72672Z" fill="white"/>
<path d="M11.6485 6.14078C12.1773 6.28554 12.6593 6.56555 13.047 6.95323C13.4347 7.34092 13.7147 7.82291 13.8594 8.35172C13.8927 8.48595 13.9701 8.60513 14.0792 8.69013C14.1882 8.77513 14.3227 8.82103 14.461 8.82047C14.514 8.82099 14.5667 8.81308 14.6173 8.79703C14.6974 8.7771 14.7727 8.74128 14.8388 8.6917C14.9049 8.64212 14.9603 8.57979 15.0018 8.50839C15.0434 8.437 15.0701 8.35799 15.0806 8.27606C15.091 8.19413 15.0849 8.11093 15.0626 8.03141C14.8653 7.28884 14.4752 6.6116 13.9319 6.06831C13.3886 5.52501 12.7114 5.13496 11.9688 4.93766C11.8873 4.90796 11.8005 4.89556 11.7139 4.90125C11.6273 4.90694 11.5429 4.93059 11.4659 4.97071C11.389 5.01082 11.3212 5.06652 11.267 5.13425C11.2128 5.20198 11.1732 5.28026 11.1509 5.36411C11.1286 5.44795 11.124 5.53553 11.1374 5.62126C11.1507 5.70699 11.1818 5.789 11.2286 5.86206C11.2754 5.93512 11.3369 5.99763 11.4092 6.04562C11.4815 6.09361 11.563 6.12602 11.6485 6.14078Z" fill="white"/>
</svg>
