<svg width="41" height="40" viewBox="0 0 41 40" fill="none" xmlns="http://www.w3.org/2000/svg">
<g id="Briefcase">
<path id="Vector" d="M34.4167 10H28.1667V8.75C28.1626 7.7567 27.7662 6.80527 27.0639 6.10289C26.3615 5.40052 25.41 5.00411 24.4167 5H16.9167C15.9235 5.00411 14.972 5.40052 14.2696 6.10289C13.5673 6.80527 13.1709 7.7567 13.1667 8.75V10H6.91675C6.25371 10 5.61782 10.2634 5.14898 10.7322C4.68014 11.2011 4.41675 11.837 4.41675 12.5V32.5C4.41675 33.163 4.68014 33.7989 5.14898 34.2678C5.61782 34.7366 6.25371 35 6.91675 35H34.4167C35.0798 35 35.7157 34.7366 36.1845 34.2678C36.6534 33.7989 36.9167 33.163 36.9167 32.5V12.5C36.9167 11.837 36.6534 11.2011 36.1845 10.7322C35.7157 10.2634 35.0798 10 34.4167 10ZM15.6667 8.75C15.6667 8.41848 15.7984 8.10054 16.0329 7.86612C16.2673 7.6317 16.5852 7.5 16.9167 7.5H24.4167C24.7483 7.5 25.0662 7.6317 25.3006 7.86612C25.5351 8.10054 25.6667 8.41848 25.6667 8.75V10H15.6667V8.75ZM34.4167 12.5V19C30.1988 21.2996 25.4708 22.503 20.6667 22.5C15.8627 22.503 11.1347 21.2996 6.91675 19V12.5H34.4167ZM17.5417 18.75C17.5417 18.4185 17.6734 18.1005 17.9079 17.8661C18.1423 17.6317 18.4602 17.5 18.7917 17.5H22.5417C22.8733 17.5 23.1912 17.6317 23.4256 17.8661C23.6601 18.1005 23.7917 18.4185 23.7917 18.75C23.7917 19.0815 23.6601 19.3995 23.4256 19.6339C23.1912 19.8683 22.8733 20 22.5417 20H18.7917C18.4602 20 18.1423 19.8683 17.9079 19.6339C17.6734 19.3995 17.5417 19.0815 17.5417 18.75Z" fill="url(#paint0_linear_141_1727)"/>
</g>
<defs>
<linearGradient id="paint0_linear_141_1727" x1="34.1667" y1="33.2845" x2="-7.8844" y2="-14.6014" gradientUnits="userSpaceOnUse">
<stop stop-color="#9747FF"/>
<stop offset="1" stop-color="#9747FF" stop-opacity="0"/>
</linearGradient>
</defs>
</svg>
